<svg width="171" height="64" viewBox="0 0 171 64" fill="none" xmlns="http://www.w3.org/2000/svg">
<path d="M67.0326 28.1676L75.3044 6.4514H78.4924L86.7321 28.1676H83.8538L81.5629 22.3053H72.1163L69.8255 28.1676H67.0326ZM80.7512 19.8556L76.8156 9.3986L72.912 19.8556H80.7512Z" fill="white"/>
<path d="M98.6944 12.3458H101.236V28.1676H99.0362L98.6944 26.0602C97.7653 27.2369 96.2487 28.3548 93.6481 28.3548C90.177 28.3548 87.4216 26.4025 87.4216 21.1553V12.3458H89.9634V21.0002C89.9634 24.2897 91.448 26.0281 94.0806 26.0281C96.9589 26.0281 98.6944 23.8244 98.6944 20.2567V12.3458Z" fill="white"/>
<path d="M102.448 14.6704V12.3436H105.3V7.90947H107.842V12.3436H111.932V14.6704H107.842V24.0094C107.842 25.3413 108.307 25.8387 109.668 25.8387H112.178V28.1655H109.423C106.389 28.1655 105.305 26.8336 105.305 24.0415V14.6704H102.448Z" fill="white"/>
<path d="M127.718 19.3528V28.1623H125.176V19.5079C125.176 16.2184 123.595 14.48 120.872 14.48C117.929 14.48 116.103 16.6837 116.103 20.2514V28.1623H113.561V6.4514H116.103V14.9507C117.032 13.4637 118.645 12.1586 121.304 12.1586C124.834 12.1586 127.712 14.1109 127.712 19.3581L127.718 19.3528Z" fill="white"/>
<path d="M129.485 16.8108C129.485 10.6382 132.828 6.26288 137.725 6.26288C142.621 6.26288 145.932 10.6382 145.932 16.8108V17.8056C145.932 24.2884 142.589 28.3535 137.725 28.3535C132.86 28.3535 129.485 24.2884 129.485 17.8056V16.8108ZM143.3 16.9017C143.3 11.7508 141.067 8.64845 137.725 8.64845C134.382 8.64845 132.117 11.7508 132.117 16.9017V17.7094C132.117 22.8603 134.35 25.9626 137.725 25.9626C141.099 25.9626 143.3 22.8603 143.3 17.7094V16.9017Z" fill="white"/>
<path d="M83.9712 49.8354C83.9712 54.6761 80.7511 57.9336 76.383 57.9336C73.7183 57.9336 71.924 56.8478 70.9628 55.3287L70.621 57.7464H68.4209V36.0301H70.9628V44.4706C72.0148 43.0103 73.7183 41.7427 76.383 41.7427C80.7511 41.7427 83.9712 44.6899 83.9712 49.8408V49.8354ZM81.3706 49.8354C81.3706 46.3908 79.2666 44.0052 76.1373 44.0052C73.008 44.0052 70.9361 46.3962 70.9361 49.7766C70.9361 53.1571 73.0401 55.671 76.1373 55.671C79.2345 55.671 81.3706 53.2801 81.3706 49.8408V49.8354Z" fill="white"/>
<path d="M83.875 41.9234H86.5717L91.4365 54.552L96.1465 41.9234H98.8432L91.5647 60.4143C90.5715 62.9604 89.984 63.9499 87.7572 63.9499H84.7241V61.6231H86.9829C88.4408 61.6231 88.6864 61.2487 89.2738 59.7618L90.0481 57.8362L83.8857 41.9234H83.875Z" fill="white"/>
<path d="M117.821 57.9257C111.718 57.9257 107.478 53.2722 107.478 46.8804C107.478 40.4886 111.723 35.8351 117.821 35.8351C123.92 35.8351 128.165 40.4886 128.165 46.8804C128.165 53.2722 123.92 57.9257 117.821 57.9257ZM117.821 55.4439C122.344 55.4439 125.41 51.8762 125.41 46.8804C125.41 41.8846 122.344 38.3169 117.821 38.3169C113.298 38.3169 110.233 41.8846 110.233 46.8804C110.233 51.8762 113.298 55.4439 117.821 55.4439Z" fill="white"/>
<path d="M130.12 36.0301H132.662V50.3329L140.592 41.9245H143.721L137.559 48.4715L144.154 57.7464H141.089L135.855 50.3008L132.667 53.5903V57.7464H130.126V36.0301H130.12Z" fill="white"/>
<path d="M144.361 44.2502V41.9235H147.213V37.4893H149.755V41.9235H153.845V44.2502H149.755V53.5892C149.755 54.9211 150.219 55.4185 151.581 55.4185H154.091V57.7453H151.336C148.302 57.7453 147.218 56.4134 147.218 53.6213V44.2502H144.361Z" fill="white"/>
<path d="M170.395 55.4184V57.7451H169.002C166.898 57.7451 166.182 56.8465 166.15 55.2954C165.157 56.7235 163.582 57.9323 160.853 57.9323C157.382 57.9323 155.032 56.194 155.032 53.3109C155.032 50.1444 157.232 48.3793 161.381 48.3793H166.027V47.2935C166.027 45.2449 164.569 44.004 162.092 44.004C159.86 44.004 158.375 45.0577 158.065 46.6731H155.523C155.897 43.5707 158.402 41.7414 162.214 41.7414C166.241 41.7414 168.564 43.758 168.564 47.4486V54.3647C168.564 55.2044 168.874 55.4184 169.584 55.4184H170.395ZM161.136 50.5189C158.877 50.5189 157.606 51.3586 157.606 53.1558C157.606 54.707 158.936 55.7607 161.045 55.7607C164.206 55.7607 166.033 53.9314 166.033 51.2944V50.5189H161.136Z" fill="white"/>
<path d="M3.37163 27.7823C13.8466 26.0536 22.0585 17.3818 23.7786 6.88966L24.3558 1.84681C24.4986 1.04545 23.9557 -0.0707301 22.9442 0.00940596C15.0295 0.627599 7.56046 3.24347 3.40592 4.9435C1.34294 5.79065 0 7.79405 0 10.0264V26.4772C0 27.4503 0.874338 28.1944 1.8344 28.0399L3.37163 27.788V27.7823Z" fill="white"/>
<path d="M28.8312 6.89002C30.557 17.3821 38.7689 26.054 49.2381 27.7826L50.7753 28.0345C51.7354 28.1948 52.6097 27.4507 52.6097 26.4718V10.0211C52.6097 7.78869 51.2668 5.78529 49.2038 4.93814C45.0436 3.23238 37.5802 0.622239 29.6655 0.00404612C28.6483 -0.0760899 28.1282 1.05154 28.2483 1.84145L28.8254 6.8843L28.8312 6.89002Z" fill="white"/>
<path d="M49.2301 32.3907C34.915 35.2184 28.2689 44.7488 28.2689 62.7909C28.2689 63.6953 29.166 64.3249 29.9204 63.8212C36.5036 59.3737 50.9902 47.7654 52.4818 33.2436C52.5389 31.4176 50.2588 32.2762 49.2301 32.3907Z" fill="white"/>
<path d="M3.37691 32.3907C17.6921 35.2184 24.3382 44.7488 24.3382 62.7909C24.3382 63.6953 23.441 64.3249 22.6867 63.8212C16.1034 59.3737 1.6168 47.7654 0.125285 33.2436C0.0681382 31.4176 2.34828 32.2762 3.37691 32.3907Z" fill="white"/>
</svg>
