<svg width="100" height="40" viewBox="0 0 100 40" fill="none" xmlns="http://www.w3.org/2000/svg">
<path d="M22.7101 0H13.1793L16.1422 9.18519H25.6731L17.9694 14.6667L20.9324 23.9012C25.8706 20.2963 27.5003 14.8148 25.6731 9.18519L22.7101 0ZM0.734836 9.18519H10.2657L13.2287 0H3.64842L0.734836 9.18519C-1.09232 14.8148 0.487923 20.2963 5.47558 23.9012L8.43854 14.6667L0.734836 9.18519ZM5.47558 23.9012L13.1793 29.3333L20.883 23.9012L13.1793 18.321L5.47558 23.9012ZM77.4262 8.98766C75.1546 8.98766 73.7225 10.0247 73.0311 11.6543H72.883V4.09877H69.525V23.8519H72.9817V15.2593C72.9817 13.1358 74.3151 11.9012 76.1422 11.9012C77.9694 11.9012 79.0064 13.0864 79.0064 15.0617V23.8519H82.4632V14.4691C82.4632 10.963 80.4879 8.98766 77.4262 8.98766ZM91.8459 4.04938C87.1546 4.04938 84.3398 7.7037 84.3398 14.0741C84.3398 20.4444 87.1052 24.1975 91.8459 24.1975C96.5373 24.1975 99.3521 20.4938 99.3521 14.0741C99.3521 7.65432 96.5373 4.04938 91.8459 4.04938ZM87.8953 14.0741C87.8953 9.4321 89.4262 7.01235 91.8459 7.01235C93.5249 7.01235 94.7101 8.14815 95.3521 10.321L87.9941 15.6543C87.8953 15.2099 87.8953 14.6667 87.8953 14.0741ZM91.8459 21.1852C90.1669 21.1852 88.883 20 88.2904 17.6296L95.6978 12.2469C95.7472 12.8395 95.7966 13.4815 95.7966 14.0741C95.7966 18.7654 94.2657 21.1852 91.8459 21.1852ZM53.92 17.679C53.92 19.9012 52.3398 20.9877 50.8089 20.9877C49.278 20.9877 48.0435 19.8025 48.0435 17.9753V9.1358H44.5867V18.4691C44.5867 22.0247 46.6114 24 49.4756 24C51.6484 24 53.2287 22.8148 53.8706 21.1852H54.0188V23.8025H57.3768V9.1358H53.92V17.679ZM36.7348 8.93827C33.6237 8.93827 31.3027 10.321 30.5126 12.9877L33.7225 13.4321C34.0682 12.3951 35.0558 11.5556 36.7348 11.5556C38.4138 11.5556 39.204 12.3457 39.204 13.8272V13.8765C39.204 14.8642 38.1669 14.9136 35.599 15.2099C33.0311 15.5062 30.0188 16.3951 30.0188 19.7037C30.0188 22.5679 32.1422 24.0988 34.9571 24.0988C37.2287 24.0988 38.6114 23.0123 39.2534 21.7778H39.3521V23.8025H42.6608V13.9753C42.7101 10.1235 39.5497 8.93827 36.7348 8.93827ZM39.2534 18.5679C39.2534 20.1975 37.92 21.5802 35.8459 21.5802C34.4138 21.5802 33.3768 20.9383 33.3768 19.6543C33.3768 18.3704 34.562 17.7778 36.0929 17.5309C36.9817 17.3827 38.8089 17.1852 39.2534 16.7901V18.5679ZM64.7842 5.48148H61.3274V9.18519H59.204V11.9012H61.3274V20.0494C61.3274 22.8148 63.3027 24.1481 65.92 24.0988C66.5126 24.0988 67.1052 24 67.6978 23.8519V21.1358C67.4509 21.1852 66.8089 21.2346 66.3645 21.284C65.4756 21.284 64.7842 20.9877 64.7842 19.6049V11.9012H67.6484V9.18519H64.7842V5.48148Z" fill="#FFFEFA"/>
<path d="M69.0802 38.3712C70.1666 38.3712 70.9074 37.4823 70.9074 36.0008C70.9074 34.5193 70.1172 33.6304 69.0802 33.6304C68.2901 33.6304 67.8456 34.0749 67.6481 34.4206V33.5811V31.9021H66.8086V38.2724H67.6481V37.5317C67.8456 37.9267 68.2901 38.3712 69.0802 38.3712ZM68.8333 37.6304C68.0925 37.6304 67.5987 37.0872 67.5987 35.9514C67.5987 34.865 68.1419 34.3218 68.8333 34.3218C69.5246 34.3218 70.0678 34.7169 70.0678 35.9514C70.0678 37.186 69.5246 37.6304 68.8333 37.6304ZM74.858 33.7292L74.0679 36.0502C73.8703 36.6428 73.8209 36.8403 73.7222 37.0872C73.6234 36.8897 73.574 36.6922 73.2777 35.9514L72.3395 33.6798H71.4012L73.3765 38.1243L73.1296 38.7662C72.9814 39.1119 72.8333 39.1613 72.4876 39.1613H71.5987V40.0008H72.537C73.3271 40.0008 73.6728 39.7045 73.9691 38.865L75.7469 33.7292H74.858ZM81.8209 38.3712C83.6481 38.3712 84.9814 37.0379 84.9814 35.0625C84.9814 33.0872 83.6481 31.7539 81.8209 31.7539C79.9938 31.7539 78.6111 33.0872 78.6111 35.0625C78.6111 37.0379 79.9938 38.3712 81.8209 38.3712ZM81.8209 37.5317C80.4382 37.5317 79.5987 36.4453 79.5987 35.0625C79.5987 33.6304 80.4382 32.5934 81.8209 32.5934C83.2037 32.5934 84.0432 33.6798 84.0432 35.0625C84.0432 36.4453 83.2037 37.5317 81.8209 37.5317ZM89.5246 38.223H90.6111L88.4382 35.5564L90.4629 33.6798H89.3765L87.0555 35.9514V34.47V31.8527H86.216V38.223H87.0555V36.8897L87.895 36.0996L89.5246 38.223ZM92.9814 38.223H94.0678V37.4823H93.1296C92.8333 37.4823 92.6851 37.3342 92.6851 37.0379V34.4206H93.9197V33.7292H92.6851V32.2971H91.8456V33.7292H90.8086V34.4206H91.8456V37.1366C91.8456 37.8774 92.2407 38.223 92.9814 38.223ZM96.2407 38.3712C96.9814 38.3712 97.3765 38.0749 97.7222 37.5811C97.7715 37.9761 97.9197 38.2724 98.5617 38.2724H99.2036V37.5317H98.7592C98.5617 37.5317 98.5123 37.4823 98.5123 37.2848V35.2107C98.5123 34.223 97.9197 33.6304 96.6851 33.6304C95.4999 33.6304 94.858 34.2724 94.7098 34.9144L95.5493 35.1613C95.6481 34.8156 95.9444 34.3712 96.7345 34.3712C97.3765 34.3712 97.6728 34.6675 97.6728 35.2107V35.3588C96.1913 35.4576 94.8086 35.9021 94.8086 37.1366C94.7592 37.8774 95.3518 38.3712 96.2407 38.3712ZM96.4382 37.6304C95.895 37.6304 95.6481 37.3835 95.6481 36.9885C95.6481 36.2477 96.537 36.0008 97.6234 35.9021V36.3465C97.6234 37.2848 97.0308 37.6304 96.4382 37.6304Z" fill="#FFFEFA"/>
</svg>
