<svg width="109" height="36" viewBox="0 0 109 36" fill="none" xmlns="http://www.w3.org/2000/svg">
<path d="M98.6872 23.673C95.6499 23.673 93.5041 21.2919 93.5041 18.1668C93.5041 15.0417 95.6514 12.6607 98.6872 12.6607C101.723 12.6607 103.81 15.0417 103.81 18.1668C103.81 21.2919 101.694 23.673 98.6872 23.673ZM98.1963 26.9514C100.651 26.9514 102.736 25.9932 104.054 23.9827C104.3 25.931 105.711 26.6432 107.489 26.6432H108.9V23.55H108.287C107.275 23.55 107.03 23.0549 107.03 21.91V9.692H103.779V12.1975C102.675 10.4346 100.589 9.38222 98.1963 9.38222C93.9332 9.38222 90.006 12.9705 90.006 18.1668C90.006 23.3632 93.9317 26.9514 98.1963 26.9514ZM81.4497 22.7133C81.4497 25.4967 83.1679 26.6417 85.2219 26.6417H89.1792V23.5484H86.2955C85.0999 23.5484 84.8544 23.0838 84.8544 21.9084V12.7837H89.1792V9.69048H84.8544V4.00061H81.4497V22.7133ZM65.9605 26.6417H69.3652V19.3725H70.5006L76.2982 26.6417H80.5929L73.2006 17.4243L78.8747 9.692H75.0408L70.4088 16.2186H69.3652V4.00061H65.9605V26.6417ZM54.918 9.38222C50.164 9.38222 46.2383 12.9705 46.2383 18.1668C46.2383 23.3632 50.164 26.9514 54.918 26.9514C59.672 26.9514 63.5978 23.3632 63.5978 18.1668C63.5978 12.9705 59.672 9.38222 54.918 9.38222ZM54.918 23.6714C51.8807 23.6714 49.7349 21.2904 49.7349 18.1653C49.7349 15.0402 51.8822 12.6592 54.918 12.6592C57.9538 12.6592 60.1012 15.0402 60.1012 18.1653C60.1012 21.2904 57.9538 23.6714 54.918 23.6714Z" fill="#FFFEFA"/>
<path fill-rule="evenodd" clip-rule="evenodd" d="M19.7464 0.255641L19.0104 9.37401C18.6619 9.33165 18.309 9.30896 17.9485 9.30896C17.5005 9.30896 17.0601 9.34224 16.6302 9.4088L16.2109 4.98727C16.1973 4.84962 16.3074 4.7286 16.4462 4.73011H17.1988L16.8353 0.255641C16.8233 0.117988 16.9319 0 17.0691 0H19.5096C19.6469 0 19.754 0.117988 19.7434 0.255641H19.7464ZM13.5864 0.707929C13.5502 0.574814 13.4084 0.502206 13.2787 0.549099L10.9845 1.38712C10.8547 1.43401 10.7944 1.58225 10.8517 1.7078L12.7176 5.78747L12.0086 6.04462C11.8789 6.09152 11.8156 6.24127 11.8759 6.36833L13.7764 10.3799C14.4657 9.99874 15.2124 9.71284 16.0012 9.53132L13.5864 0.707929ZM7.9542 3.2477L13.2334 10.7067C12.5637 11.1438 11.9589 11.6702 11.4339 12.2708L8.27698 9.15164C8.17743 9.05332 8.18497 8.89147 8.29056 8.80222L8.86825 8.31816L5.72486 5.12492C5.62833 5.0266 5.63587 4.86777 5.74145 4.77852L7.61029 3.20383C7.71588 3.11458 7.87425 3.13576 7.9542 3.2477ZM3.52569 7.56637C3.41257 7.48922 3.25721 7.52401 3.18782 7.642L1.96757 9.76276C1.89819 9.88226 1.94645 10.035 2.07014 10.094L6.11401 12.0166L5.73542 12.6701C5.66603 12.7911 5.7143 12.9454 5.841 13.0029L9.8698 14.8499C10.1624 14.0981 10.5516 13.3977 11.0282 12.7654L3.52569 7.56637ZM0.546709 13.3296C0.570842 13.1935 0.703577 13.1073 0.83782 13.1421L9.66164 15.4534C9.43388 16.2007 9.30567 16.9918 9.28757 17.8102L4.86963 17.4547C4.73086 17.4441 4.63282 17.3155 4.65695 17.1779L4.78969 16.4351L0.33554 16.0161C0.198281 16.0025 0.101747 15.8755 0.12588 15.7393L0.548217 13.3281L0.546709 13.3296ZM0.213364 19.3062C0.0761048 19.3198 -0.0204293 19.4469 0.00370423 19.583L0.427549 21.9942C0.451683 22.1303 0.585926 22.2166 0.71866 22.1818L5.04761 21.0473L5.17733 21.79C5.20146 21.9276 5.33872 22.0139 5.47146 21.976L9.74158 20.7931C9.48969 20.0504 9.33433 19.2653 9.29361 18.4485L0.213364 19.3062ZM1.62518 25.6428C1.55579 25.5233 1.60406 25.3705 1.72774 25.3115L9.96633 21.3937C10.2801 22.1349 10.6949 22.8231 11.1911 23.4403L7.58012 26.0164C7.467 26.0981 7.30862 26.0618 7.24075 25.9423L6.86517 25.2873L3.18481 27.8391C3.07168 27.9178 2.91632 27.883 2.84694 27.7635L1.62518 25.6428ZM11.6074 23.9244L5.19845 30.4349C5.10191 30.5332 5.10946 30.692 5.21504 30.7813L7.08539 32.3545C7.19097 32.4437 7.34935 32.4225 7.42929 32.3106L10.0176 28.6499L10.5938 29.137C10.6994 29.2263 10.8608 29.2051 10.9392 29.0901L13.4521 25.434C12.7703 25.0165 12.1504 24.5067 11.6074 23.9244ZM10.3419 34.3769C10.2122 34.33 10.1519 34.1818 10.2092 34.0562L14.0102 25.7396C14.7101 26.0981 15.4643 26.3658 16.2576 26.5231L15.143 30.8221C15.1083 30.9568 14.965 31.0324 14.8353 30.984L14.1279 30.7238L12.9423 35.0516C12.9061 35.1847 12.7643 35.2573 12.6346 35.2104L10.3404 34.3739L10.3419 34.3769ZM16.8881 26.6245L16.1521 35.7444C16.1415 35.882 16.2486 36 16.3858 36H18.8264C18.9636 36 19.0722 35.882 19.0601 35.7444L18.6966 31.2714H19.4493C19.5881 31.2729 19.6967 31.1534 19.6846 31.0142L19.2653 26.5927C18.8354 26.6578 18.395 26.6926 17.947 26.6926C17.588 26.6926 17.235 26.6683 16.8866 26.626L16.8881 26.6245ZM25.6893 1.94227C25.7466 1.81672 25.6848 1.66999 25.5566 1.62158L23.2624 0.785075C23.1342 0.738182 22.9909 0.81079 22.9547 0.943905L21.7691 5.27165L21.0617 5.01147C20.932 4.96307 20.7887 5.0387 20.754 5.17333L19.6394 9.47233C20.4327 9.62965 21.1869 9.89739 21.8868 10.2559L25.6893 1.94075V1.94227ZM30.6985 5.56662L24.2896 12.0771C23.7481 11.4933 23.1282 10.9835 22.4449 10.566L24.9578 6.90987C25.0362 6.79642 25.1976 6.77373 25.3032 6.86449L25.8794 7.35157L28.4677 3.69091C28.5476 3.57897 28.706 3.5578 28.8116 3.64704L30.682 5.22022C30.7875 5.30947 30.7951 5.46981 30.6985 5.56662ZM34.1692 10.69C34.2944 10.631 34.3412 10.4783 34.2718 10.3588L33.0501 8.23799C32.9807 8.11849 32.8253 8.0837 32.7122 8.16236L29.0318 10.7142L28.6562 10.0592C28.5869 9.93823 28.4285 9.90344 28.3169 9.98513L24.7059 12.5612C25.2021 13.1799 25.6169 13.8666 25.9307 14.6078L34.1692 10.69ZM35.4694 14.0088L35.8933 16.42C35.9174 16.5577 35.8194 16.6847 35.6836 16.6968L26.6034 17.5515C26.5627 16.7347 26.4073 15.9496 26.1554 15.2069L30.4255 14.0255C30.5583 13.9876 30.6955 14.0754 30.7197 14.2115L30.8479 14.9542L35.1768 13.8197C35.3096 13.7849 35.4438 13.8712 35.4679 14.0073L35.4694 14.0088ZM35.0592 22.8594C35.1919 22.8942 35.3261 22.808 35.3503 22.6719L35.7726 20.2607C35.7968 20.1245 35.6987 19.9975 35.563 19.9839L31.1088 19.5649L31.2415 18.8221C31.2657 18.6845 31.1676 18.5574 31.0289 18.5453L26.6109 18.1898C26.5928 19.0097 26.4646 19.7993 26.2369 20.5481L35.0607 22.8579L35.0592 22.8594ZM32.7092 28.361C32.6398 28.479 32.4844 28.5138 32.3713 28.4367L24.8658 23.2376C25.3424 22.6053 25.7331 21.905 26.0242 21.1532L30.053 23.0016C30.1797 23.0591 30.2294 23.2149 30.1586 23.3344L29.78 23.9879L33.8238 25.9105C33.9475 25.9695 33.9958 26.1223 33.9264 26.2418L32.7062 28.3625L32.7092 28.361ZM22.6636 25.2948L27.9428 32.7553C28.0227 32.8673 28.1796 32.8884 28.2867 32.7992L30.1555 31.2245C30.2611 31.1353 30.2687 30.9749 30.1721 30.8781L27.0287 27.6849L27.6064 27.2008C27.712 27.1116 27.7196 26.9497 27.62 26.8529L24.463 23.7338C23.9381 24.3328 23.3333 24.8592 22.6636 25.2964V25.2948ZM22.6183 35.4524C22.4901 35.4993 22.3468 35.4267 22.3106 35.2936L19.8943 26.4717C20.6831 26.2902 21.4298 26.0028 22.1191 25.6231L24.0196 29.6347C24.0799 29.7602 24.0181 29.9115 23.8869 29.9584L23.1779 30.2156L25.0438 34.2952C25.1011 34.4208 25.0392 34.5675 24.911 34.6159L22.6168 35.4539L22.6183 35.4524Z" fill="#FFFEFA"/>
</svg>
