<?xml version="1.0" standalone="no"?>
<!DOCTYPE svg PUBLIC "-//W3C//DTD SVG 1.1//EN" "http://www.w3.org/Graphics/SVG/1.1/DTD/svg11.dtd" >
<svg xmlns="http://www.w3.org/2000/svg" xmlns:xlink="http://www.w3.org/1999/xlink" version="1.1">
<metadata>
Created by FontForge 20170731 at Mon Jul 26 14:52:01 2021
 By Aleksey,,,
Copyright 2020 Dinamo (Johannes Breyer, Fabian Harb) &#38; Erkin Karamemet. All rights reserved.
</metadata>
<defs>
<font id="ABCWhyte-Bold" horiz-adv-x="1269" >
  <font-face 
    font-family="ABC Whyte"
    font-weight="700"
    font-stretch="normal"
    units-per-em="2048"
    panose-1="2 11 0 4 5 1 1 2 1 3"
    ascent="1649"
    descent="-399"
    x-height="1024"
    cap-height="1434"
    bbox="-934 -686 2546 2327"
    underline-thickness="102"
    underline-position="-307"
    unicode-range="U+000D-FB02"
  />
<missing-glyph horiz-adv-x="1445" 
d="M178 0v1444h1090v-1444h-1090zM424 205h598v1034h-598v-1034z" />
    <glyph glyph-name="fi" unicode="fi" horiz-adv-x="1351" 
d="M913 1438h310v-275h-310v275zM1214 1024v-1024h-290v803h-400v-803h-291v803h-198v221h198v141q0 123 67 196t189 73h316v-232h-191q-47 0 -68.5 -22t-21.5 -68v-88h690z" />
    <glyph glyph-name="fl" unicode="fl" horiz-adv-x="1355" 
d="M1214 1434v-1434h-290v1202h-310q-47 0 -68.5 -22t-21.5 -68v-88h238v-221h-238v-803h-291v803h-198v221h198v141q0 123 67 196t189 73h725z" />
    <glyph glyph-name="f_f" unicode="ff" horiz-adv-x="1482" 
d="M1305 1202q-91 0 -91 -90v-88h238v-221h-238v-803h-290v803h-400v-803h-291v803h-198v221h198v141q0 123 67 196t189 73h316v-232h-191q-47 0 -68.5 -22t-21.5 -68v-88h400v141q0 123 67 196t189 73h315v-232h-190z" />
    <glyph glyph-name="f_f_i" unicode="ffi" horiz-adv-x="2033" 
d="M1595 1438h310v-275h-310v275zM1896 1024v-1024h-290v803h-392v-803h-290v803h-400v-803h-291v803h-198v221h198v141q0 123 67 196t189 73h316v-232h-191q-47 0 -68.5 -22t-21.5 -68v-88h400v141q0 123 67 196t189 73h315v-232h-190q-91 0 -91 -90v-88h682z" />
    <glyph glyph-name="f_f_l" unicode="ffl" horiz-adv-x="2045" 
d="M1905 1434v-1434h-291v1202h-309q-91 0 -91 -90v-88h238v-221h-238v-803h-290v803h-400v-803h-291v803h-198v221h198v141q0 123 67 196t189 73h316v-232h-191q-47 0 -68.5 -22t-21.5 -68v-88h400v141q0 123 67 196t189 73h725z" />
    <glyph glyph-name=".notdef" horiz-adv-x="1445" 
d="M178 0v1444h1090v-1444h-1090zM424 205h598v1034h-598v-1034z" />
    <glyph glyph-name=".null" horiz-adv-x="0" 
 />
    <glyph glyph-name="nonmarkingreturn" horiz-adv-x="682" 
 />
    <glyph glyph-name="CR" unicode="&#xd;" horiz-adv-x="481" 
 />
    <glyph glyph-name="space" unicode=" " horiz-adv-x="481" 
 />
    <glyph glyph-name="exclam" unicode="!" horiz-adv-x="595" 
d="M231 514l-96 594v326h324v-326l-94 -594h-134zM127 0v322h340v-322h-340z" />
    <glyph glyph-name="quotedbl" unicode="&#x22;" horiz-adv-x="897" 
d="M182 766l-82 403v265h297v-265l-82 -403h-133zM582 766l-82 403v265h297v-265l-82 -403h-133z" />
    <glyph glyph-name="numbersign" unicode="#" horiz-adv-x="1544" 
d="M236 0l18 92q8 39 55 254h-188h-53v234h290l58 272h-246v256h299l70 326h249l-16 -80l-53 -246h188h78l70 326h245l-14 -80q-18 -96 -51 -246h184h54v-256h-291l-58 -272h246v-234h-295l-74 -346h-249l22 100q27 120 51 246h-188h-78l-74 -346h-249zM608 580h266l58 272
h-266z" />
    <glyph glyph-name="dollar" unicode="$" horiz-adv-x="1286" 
d="M561 -203v176q-105 12 -191.5 51.5t-146 99.5t-98 130.5t-57.5 151.5l258 98q19 -99 77.5 -177.5t157.5 -105.5v381l-43 8q-89 17 -156.5 47.5t-120.5 80.5t-80.5 125.5t-27.5 174.5q0 105 47.5 194t146 152t234.5 78v174h187v-176q180 -26 288.5 -129t149.5 -244
l-246 -98q-55 175 -192 219v-352l53 -12q82 -19 149 -50.5t125.5 -81.5t91.5 -127t33 -173q0 -84 -27.5 -157.5t-81.5 -133.5t-142 -99.5t-201 -50.5v-174h-187zM561 891v98v228q-73 -18 -109 -63t-36 -99q0 -67 36.5 -105.5t108.5 -58.5zM748 217q84 17 125.5 64.5
t41.5 115.5q0 65 -44 109t-123 63v-133v-219z" />
    <glyph glyph-name="percent" unicode="%" horiz-adv-x="1824" 
d="M420 592q-161 0 -256.5 116.5t-95.5 311.5q0 197 95.5 314.5t256.5 117.5q162 0 258 -117.5t96 -314.5q0 -195 -96 -311.5t-258 -116.5zM266 0l1047 1434h252l-1045 -1434h-254zM420 780q117 0 117 240q0 118 -30.5 181t-86.5 63q-54 0 -84.5 -63t-30.5 -181
q0 -117 29.5 -178.5t85.5 -61.5zM1405 -18q-161 0 -256.5 116.5t-95.5 311.5q0 197 95.5 314.5t256.5 117.5q162 0 258 -117.5t96 -314.5q0 -195 -96 -311.5t-258 -116.5zM1405 170q117 0 117 240q0 118 -30.5 180.5t-86.5 62.5q-55 0 -85 -63t-30 -180t29.5 -178.5
t85.5 -61.5z" />
    <glyph glyph-name="ampersand" unicode="&#x26;" horiz-adv-x="1452" 
d="M604 -33q-259 0 -395.5 111t-136.5 309q0 131 66.5 224t203.5 173q-70 149 -70 301q0 175 113 278t297 103q91 0 166.5 -26.5t123 -70.5t73.5 -99.5t26 -114.5q0 -138 -93.5 -238t-313.5 -210q73 -98 167 -179q56 -48 134 -102q79 124 118 293l254 -96
q-58 -193 -141 -328q122 -56 248 -96l-84 -228q-152 34 -334 127q-78 -59 -189.5 -95t-232.5 -36zM557 901l55 27q116 56 156.5 103t40.5 104q0 49 -34 82.5t-93 33.5q-69 0 -113.5 -47t-44.5 -119q0 -87 33 -184zM621 201q97 0 165 47q-127 94 -233 209q-60 66 -107 129
q-90 -70 -90 -178q0 -85 70 -146t195 -61z" />
    <glyph glyph-name="quotesingle" unicode="'" horiz-adv-x="497" 
d="M182 766l-82 403v265h297v-265l-82 -403h-133z" />
    <glyph glyph-name="parenleft" unicode="(" horiz-adv-x="704" 
d="M649 -328q-125 12 -224 74t-162 153.5t-105 213t-59 246t-17 259.5q0 112 12.5 219t38.5 213t71.5 195.5t106 160t147.5 113t191 48.5v-250q-62 -11 -110.5 -45.5t-80.5 -88t-54.5 -116t-34 -140.5t-16.5 -151t-5 -158q0 -102 6.5 -188t26.5 -177t52 -156.5t87.5 -114
t128.5 -62.5v-248z" />
    <glyph glyph-name="parenright" unicode=")" horiz-adv-x="704" 
d="M55 1567q125 -12 224 -74t162 -153.5t105 -212.5t59.5 -246t17.5 -260q0 -112 -12.5 -219t-39 -213t-71.5 -195.5t-106 -160t-148 -113t-191 -48.5v250q62 11 110.5 45.5t80.5 88t54.5 116t34 140.5t16.5 151t5 158q0 102 -6.5 188t-26.5 177t-52 156.5t-87.5 114
t-128.5 62.5v248z" />
    <glyph glyph-name="asterisk" unicode="*" horiz-adv-x="1159" 
d="M440 743l-223 127l51 72l125 174q-120 -10 -223 -10h-86v237l299 -20l-162 229l219 127l39 -69q30 -53 99 -185q14 27 92 179l37 75l225 -125l-166 -231l307 20v-241h-98q-61 0 -215 14l121 -172l53 -76l-229 -118l-130 251z" />
    <glyph glyph-name="plus" unicode="+" horiz-adv-x="1224" 
d="M489 180v420h-419v246h419v420h246v-420h420v-246h-420v-420h-246z" />
    <glyph glyph-name="comma" unicode="," horiz-adv-x="593" 
d="M123 -338l196 338h-190v324h338v-324l-199 -338h-145z" />
    <glyph glyph-name="hyphen" unicode="-" horiz-adv-x="974" 
d="M123 518v266h729v-266h-729z" />
    <glyph glyph-name="period" unicode="." horiz-adv-x="579" 
d="M121 0v324h338v-324h-338z" />
    <glyph glyph-name="slash" unicode="/" horiz-adv-x="923" 
d="M47 -205l551 1854h279l-551 -1854h-279z" />
    <glyph glyph-name="zero" unicode="0" horiz-adv-x="1376" 
d="M688 -33q-265 0 -429.5 197.5t-164.5 550.5q0 177 44.5 319.5t123.5 236.5t188 144.5t238 50.5t238 -50.5t188 -144.5t123.5 -236.5t44.5 -319.5q0 -353 -164.5 -550.5t-429.5 -197.5zM688 225q59 0 107 25t87.5 80t61 153t21.5 232q0 108 -14.5 193t-39.5 140.5t-61 92
t-75.5 52t-86.5 15.5q-124 0 -200 -117.5t-76 -375.5q0 -134 21.5 -231.5t60.5 -152.5t87 -80.5t107 -25.5z" />
    <glyph glyph-name="one" unicode="1" horiz-adv-x="905" 
d="M436 0v881v200q-65 -103 -167.5 -175.5t-215.5 -76.5v310q147 11 257 84.5t165 210.5h252v-1434h-291z" />
    <glyph glyph-name="two" unicode="2" horiz-adv-x="1253" 
d="M104 0v315q186 107 312.5 189t209 147t127 123t61.5 107t17 108q0 99 -59 159t-149 60q-66 0 -113 -27t-71 -73.5t-35 -95t-13 -105.5l-297 47q2 97 35.5 186t96 163t167.5 118.5t238 44.5q240 0 377 -123t137 -325q0 -196 -119 -342q-85 -107 -241 -205t-400 -213h420
h346v-258h-1047z" />
    <glyph glyph-name="three" unicode="3" horiz-adv-x="1241" 
d="M614 -33q-239 0 -381.5 117t-173.5 326l306 63q14 -121 77 -186.5t172 -65.5q103 0 164.5 50.5t61.5 136.5q0 88 -60 141t-166 53h-133v244h133q85 0 143 50t58 134q0 83 -57.5 132.5t-143.5 49.5q-91 0 -145.5 -59t-60.5 -162l-297 45q20 188 150.5 309t352.5 121
q228 0 362 -106.5t134 -274.5q0 -132 -72 -218t-192 -124q136 -29 217.5 -125t81.5 -225q0 -196 -143 -311t-388 -115z" />
    <glyph glyph-name="four" unicode="4" horiz-adv-x="1312" 
d="M743 0v342h-694v256l561 836h420v-848h215v-244h-215v-342h-287zM743 586v147v455l-409 -602h297h112z" />
    <glyph glyph-name="five" unicode="5" horiz-adv-x="1226" 
d="M616 -33q-215 0 -357.5 104.5t-180.5 274.5l270 92q26 -94 90 -155.5t166 -61.5q104 0 169 62.5t65 175.5q0 109 -65.5 174t-168.5 65q-72 0 -128 -32.5t-87 -90.5l-283 60l121 799h863v-258h-654l-37 -246q-6 -38 -18 -117q109 94 295 94q96 0 179.5 -29t147.5 -84.5
t101 -144t37 -198.5q0 -219 -140 -351.5t-385 -132.5z" />
    <glyph glyph-name="six" unicode="6" horiz-adv-x="1288" 
d="M678 -33q-140 0 -252.5 56t-184.5 152t-110.5 221t-38.5 266q0 379 188 591.5t523 212.5q96 0 182 -18t133 -39v-279q-159 64 -305 64q-88 0 -164.5 -29.5t-136 -86t-94 -146.5t-35.5 -203q38 96 133.5 156.5t224.5 60.5q95 0 179.5 -31.5t149 -90t102.5 -148.5t38 -199
q0 -229 -147.5 -369.5t-384.5 -140.5zM668 221q102 0 171.5 69t69.5 181t-69.5 181t-171.5 69q-105 0 -173.5 -69t-68.5 -181t68.5 -181t173.5 -69z" />
    <glyph glyph-name="seven" unicode="7" horiz-adv-x="1114" 
d="M240 0q0 169 39 328.5t100.5 283t146 235t167 189t171.5 140.5h-342h-479v258h1028v-328q-252 -181 -384 -474.5t-132 -631.5h-315z" />
    <glyph glyph-name="eight" unicode="8" horiz-adv-x="1275" 
d="M637 -33q-246 0 -394.5 113t-148.5 307q0 132 87.5 227.5t203.5 118.5q-252 97 -252 344q0 162 139 275.5t365 113.5q227 0 368.5 -113.5t141.5 -275.5q0 -136 -64.5 -218t-185.5 -126q119 -23 202 -117.5t83 -228.5q0 -193 -149 -306.5t-396 -113.5zM641 829
q95 0 157 54t62 145q0 86 -61.5 140.5t-157.5 54.5q-97 0 -159 -54.5t-62 -140.5q0 -92 62.5 -145.5t158.5 -53.5zM637 221q110 0 173.5 56.5t63.5 152.5q0 93 -64.5 151t-172.5 58q-107 0 -171.5 -58t-64.5 -151q0 -95 64.5 -152t171.5 -57z" />
    <glyph glyph-name="nine" unicode="9" horiz-adv-x="1277" 
d="M487 -33q-191 0 -333 56v288q89 -34 162.5 -49.5t168.5 -15.5q151 0 267 96q138 119 141 363q-41 -88 -137.5 -143.5t-225.5 -55.5q-123 0 -223.5 51.5t-162.5 155.5t-62 243q0 228 145 369t373 141q224 0 399 -163q185 -174 185 -531q0 -384 -186 -594.5t-511 -210.5z
M614 733q100 0 166 66.5t66 173.5t-66 173t-166 66q-98 0 -164.5 -66.5t-66.5 -172.5q0 -107 66.5 -173.5t164.5 -66.5z" />
    <glyph glyph-name="colon" unicode=":" horiz-adv-x="579" 
d="M121 721v323h338v-323h-338zM121 0v324h338v-324h-338z" />
    <glyph glyph-name="semicolon" unicode=";" horiz-adv-x="585" 
d="M125 721v323h338v-323h-338zM119 -338l196 338h-190v324h338v-324l-199 -338h-145z" />
    <glyph glyph-name="less" unicode="&#x3c;" horiz-adv-x="1304" 
d="M1174 1280v-264l-424 -139l-480 -158l480 -158l424 -139v-270l-1096 368v391z" />
    <glyph glyph-name="equal" unicode="=" horiz-adv-x="1353" 
d="M129 840v245h1096v-245h-1096zM129 348v246h1096v-246h-1096z" />
    <glyph glyph-name="greater" unicode="&#x3e;" horiz-adv-x="1304" 
d="M131 152v264l424 139l479 158l-479 157l-424 140v270l1096 -369v-391z" />
    <glyph glyph-name="question" unicode="?" horiz-adv-x="1107" 
d="M399 514q0 72 12 124t41 93t58 67.5t82 65.5q62 46 96.5 90.5t34.5 106.5q0 73 -48 116.5t-128 43.5q-184 0 -199 -258l-287 45q9 211 137 333.5t357 122.5q119 0 212.5 -32t148.5 -86.5t83.5 -120.5t28.5 -140q0 -55 -14 -103.5t-34 -83.5t-54.5 -71t-62.5 -58.5
t-72 -53.5q-123 -90 -123 -201h-269zM367 0v322h338v-322h-338z" />
    <glyph glyph-name="at" unicode="@" horiz-adv-x="1918" 
d="M1001 -264q-204 0 -374 57t-293 164.5t-191.5 272t-68.5 370.5q0 163 49.5 304t136 243t202.5 174.5t249.5 108.5t275.5 36q184 0 347 -54t284 -151.5t191.5 -244.5t70.5 -322q0 -123 -37.5 -226t-100.5 -169.5t-143 -103.5t-167 -37q-100 0 -171 44.5t-94 125.5
q-38 -81 -109 -125.5t-161 -44.5q-105 0 -184 63t-118.5 165t-39.5 226q0 113 40.5 207.5t118 151.5t177.5 57q178 0 260 -135v113h233v-570q0 -27 19 -45t49 -18q67 0 114.5 81.5t47.5 237.5q0 256 -171 403.5t-456 147.5q-135 0 -251.5 -41t-205 -119.5t-139.5 -202
t-51 -278.5q0 -315 173.5 -479t487.5 -164q170 0 291.5 29.5t233.5 83.5l100 -209q-137 -67 -287 -97t-338 -30zM971 373q79 0 121.5 69t42.5 174q0 97 -42 158.5t-122 61.5q-79 0 -119.5 -62t-40.5 -162q0 -105 41 -172t119 -67z" />
    <glyph glyph-name="A" unicode="A" horiz-adv-x="1515" 
d="M1159 0l-115 336h-583l-117 -336h-334l547 1434h404l542 -1434h-344zM551 594h405l-106 315l-94 275q-21 -67 -94 -277z" />
    <glyph glyph-name="B" unicode="B" horiz-adv-x="1472" 
d="M172 0v1434h686q232 0 356.5 -94t124.5 -253q0 -123 -73 -210t-209 -127q153 -26 241 -122.5t88 -228.5q0 -121 -68.5 -212.5t-187 -139t-270.5 -47.5h-688zM483 866h328q217 0 217 156q0 83 -55 118.5t-162 35.5h-328v-310zM483 258h332q250 0 250 178q0 92 -67.5 136
t-182.5 44h-332v-358z" />
    <glyph glyph-name="C" unicode="C" horiz-adv-x="1546" 
d="M825 -33q-221 0 -390 97t-260 267.5t-91 387.5q0 157 55 294.5t151.5 237.5t236 157.5t302.5 57.5q251 0 427 -122.5t235 -319.5l-281 -109q-103 293 -385 293q-195 0 -305 -128.5t-110 -360.5q0 -233 109 -362.5t306 -129.5q147 0 246.5 79.5t147.5 215.5l274 -110
q-80 -213 -247.5 -329t-420.5 -116z" />
    <glyph glyph-name="D" unicode="D" horiz-adv-x="1556" 
d="M172 0v1434h541q154 0 291 -48t241 -136.5t164.5 -223.5t60.5 -299q0 -168 -60.5 -307t-164.5 -230t-241 -140.5t-291 -49.5h-541zM483 258h215q451 0 451 463q0 210 -111.5 332.5t-326.5 122.5h-228v-918z" />
    <glyph glyph-name="E" unicode="E" horiz-adv-x="1351" 
d="M172 0v1434h1083v-258h-772v-312h584v-254h-584v-352h772v-258h-1083z" />
    <glyph glyph-name="F" unicode="F" horiz-adv-x="1323" 
d="M172 0v1434h1102v-258h-791v-373h633v-258h-633v-545h-311z" />
    <glyph glyph-name="G" unicode="G" horiz-adv-x="1630" 
d="M764 -33q-107 0 -207 31t-185.5 93.5t-149 150t-100 208.5t-36.5 261q0 157 58 297t158.5 240.5t242 159t301.5 58.5q141 0 258 -35t198.5 -97t135.5 -138.5t84 -167.5l-293 -108q-100 288 -383 288q-194 0 -315 -133t-121 -364q0 -225 123 -356.5t305 -131.5
q87 0 157.5 23t113 61.5t67.5 82t32 89.5h-463v258h768v-737h-280v203q-151 -236 -469 -236z" />
    <glyph glyph-name="H" unicode="H" horiz-adv-x="1581" 
d="M172 0v1434h311v-568h615v568h311v-1434h-311v608h-615v-608h-311z" />
    <glyph glyph-name="I" unicode="I" horiz-adv-x="655" 
d="M172 0v1434h311v-1434h-311z" />
    <glyph glyph-name="J" unicode="J" horiz-adv-x="1157" 
d="M532 -33q-234 0 -368.5 138t-140.5 378l315 80q-1 -81 6.5 -139t27.5 -105t57 -70.5t93 -23.5q92 0 128 67t36 204v938h311v-899q0 -290 -115 -429t-350 -139z" />
    <glyph glyph-name="K" unicode="K" horiz-adv-x="1470" 
d="M1104 0l-447 639l-174 -180v-459h-311v1434h311v-232v-364l525 596h417l-555 -574l625 -860h-391z" />
    <glyph glyph-name="L" unicode="L" horiz-adv-x="1275" 
d="M172 0v1434h311v-1170h772v-264h-1083z" />
    <glyph glyph-name="M" unicode="M" horiz-adv-x="2037" 
d="M172 0v1434h510l236 -699q78 -227 108 -305q33 82 109 305l239 699h492v-1434h-312v590v579l-399 -1169h-276l-396 1167v-577v-590h-311z" />
    <glyph glyph-name="N" unicode="N" horiz-adv-x="1730" 
d="M172 0v1434h432l643 -908v363v545h312v-1434h-287l-789 1112v-436v-676h-311z" />
    <glyph glyph-name="O" unicode="O" horiz-adv-x="1703" 
d="M852 -33q-178 0 -323 56t-241.5 155.5t-149 236.5t-52.5 298q0 160 53 298t150.5 239t242.5 158.5t320 57.5t320 -57.5t242.5 -158.5t150.5 -239t53 -298q0 -161 -52.5 -298t-149 -236.5t-241.5 -155.5t-323 -56zM854 225q204 0 321 137t117 353q0 219 -116.5 356
t-321.5 137q-206 0 -324 -137t-118 -356q0 -216 118 -353t324 -137z" />
    <glyph glyph-name="P" unicode="P" horiz-adv-x="1382" 
d="M172 0v1434h643q232 0 375 -125.5t143 -337.5t-142.5 -339.5t-373.5 -127.5h-334v-504h-311zM483 762h277q112 0 181 55.5t69 153.5q0 94 -69 149.5t-181 55.5h-277v-414z" />
    <glyph glyph-name="Q" unicode="Q" horiz-adv-x="1732" 
d="M852 -33q-178 0 -323 56t-241.5 155.5t-149 236.5t-52.5 298q0 160 53 298t150.5 239t242.5 158.5t320 57.5t320 -57.5t242.5 -158.5t150.5 -239t53 -298q0 -258 -129 -447q47 -23 90 -33t121 -10v-256q-135 0 -239.5 32t-162.5 85q-188 -117 -446 -117zM854 225
q138 0 242 68l-47 55q-78 91 -156 132.5t-197 35.5v250q213 32 357 -80q82 -63 198 -203q41 106 41 232q0 219 -116.5 356t-321.5 137q-206 0 -324 -137t-118 -356q0 -216 118 -353t324 -137z" />
    <glyph glyph-name="R" unicode="R" horiz-adv-x="1486" 
d="M172 0v1434h709q228 0 358.5 -103.5t130.5 -275.5q0 -92 -31.5 -165.5t-85.5 -120t-115.5 -74.5t-131.5 -40q138 -13 220 -85t109 -226l60 -344h-332l-43 317q-17 124 -80 176t-197 52h-260v-545h-311zM483 797h338q102 0 164 48t62 142q0 93 -62 141t-164 48h-338v-379z
" />
    <glyph glyph-name="S" unicode="S" horiz-adv-x="1402" 
d="M713 -33q-145 0 -262.5 35.5t-195.5 98t-127.5 140t-70.5 169.5l293 98q11 -56 38 -106t69.5 -93t108.5 -68.5t147 -25.5q144 0 212 50.5t68 133.5q0 69 -54.5 113.5t-178.5 62.5l-178 25q-453 64 -453 430q0 87 37 165t106 139t178.5 96.5t245.5 35.5q107 0 198 -21
t157 -56.5t117.5 -85t83.5 -104t51 -116.5l-287 -100q-76 236 -320 236q-127 0 -185 -51t-58 -126q0 -63 48 -102t136 -51l178 -25q234 -32 368 -143t134 -301q0 -94 -36 -174.5t-107.5 -143.5t-189.5 -99t-271 -36z" />
    <glyph glyph-name="T" unicode="T" horiz-adv-x="1335" 
d="M512 0v1176h-492v258h1295v-258h-492v-1176h-311z" />
    <glyph glyph-name="U" unicode="U" horiz-adv-x="1597" 
d="M799 -33q-295 0 -469 159.5t-174 432.5v875h311v-826q0 -182 84 -278.5t248 -96.5q169 0 250 98.5t81 276.5v826h312v-875q0 -184 -83 -319t-228 -204t-332 -69z" />
    <glyph glyph-name="V" unicode="V" horiz-adv-x="1480" 
d="M520 0l-495 1434h346l241 -777q99 -321 127 -407q42 121 131 407l242 777h342l-493 -1434h-441z" />
    <glyph glyph-name="W" unicode="W" horiz-adv-x="2166" 
d="M424 0l-387 1434h340l123 -568q92 -427 108 -497l97 372l182 693h405l183 -693q78 -298 94 -372q21 88 110 497l125 568h330l-393 -1434h-348l-191 721q-83 310 -112 407q-13 -55 -111 -405l-199 -723h-356z" />
    <glyph glyph-name="X" unicode="X" horiz-adv-x="1468" 
d="M-14 0l561 770l-506 664h399l129 -174q114 -156 191 -265q39 53 170 242l137 197h350l-483 -670l551 -764h-400l-174 264l-184 279l-201 -283l-184 -260h-356z" />
    <glyph glyph-name="Y" unicode="Y" horiz-adv-x="1384" 
d="M539 0v584l-521 850h361l162 -279q147 -253 161 -276l156 280l152 275h350l-510 -850v-584h-311z" />
    <glyph glyph-name="Z" unicode="Z" horiz-adv-x="1363" 
d="M90 0v313l811 863h-278h-519v258h1149v-301l-817 -869h281h573v-264h-1200z" />
    <glyph glyph-name="bracketleft" unicode="[" horiz-adv-x="743" 
d="M164 -307v1853h524v-225h-258v-1403h258v-225h-524z" />
    <glyph glyph-name="backslash" unicode="\" horiz-adv-x="929" 
d="M598 -205l-551 1854h285l551 -1854h-285z" />
    <glyph glyph-name="bracketright" unicode="]" horiz-adv-x="743" 
d="M580 1546v-1853h-525v225h258v1403h-258v225h525z" />
    <glyph glyph-name="asciicircum" unicode="^" horiz-adv-x="1165" 
d="M66 676l376 758h283l375 -758h-305l-93 205l-120 276l-125 -274l-95 -207h-296z" />
    <glyph glyph-name="underscore" unicode="_" horiz-adv-x="1331" 
d="M92 -346v233h1147v-233h-1147z" />
    <glyph glyph-name="grave" unicode="`" horiz-adv-x="720" 
d="M377 1159l-225 316h319l102 -316h-196z" />
    <glyph glyph-name="a" unicode="a" horiz-adv-x="1175" 
d="M406 -33q-140 0 -232 81t-92 214q0 83 35 148.5t92.5 108t143.5 73.5t173.5 47t198.5 27v39q0 141 -168 141q-183 0 -225 -162l-262 57q13 129 142.5 221.5t342.5 92.5q220 0 338.5 -99.5t118.5 -298.5v-374q0 -39 10.5 -50.5t50.5 -11.5h90v-221h-223q-84 0 -130 39.5
t-54 110.5q-48 -76 -137.5 -129.5t-212.5 -53.5zM510 180q92 0 153.5 61t61.5 179v65q-81 -10 -135.5 -21.5t-107 -33t-79 -56t-26.5 -83.5q0 -52 34 -81.5t99 -29.5z" />
    <glyph glyph-name="b" unicode="b" horiz-adv-x="1284" 
d="M764 -33q-120 0 -207.5 51.5t-132.5 118.5v-137h-283v1434h291v-371v-176q42 64 129.5 116t204.5 52q201 0 321.5 -149.5t120.5 -393.5q0 -245 -120.5 -395t-323.5 -150zM664 188q110 0 174.5 77t64.5 247t-64.5 247t-174.5 77q-111 0 -177.5 -83t-66.5 -241t66.5 -241
t177.5 -83z" />
    <glyph glyph-name="c" unicode="c" horiz-adv-x="1167" 
d="M621 -33q-157 0 -281.5 67t-196 192.5t-71.5 287.5q0 161 73.5 285.5t198 190t279.5 65.5q178 0 306 -85.5t181 -221.5l-268 -101q-30 87 -90 132.5t-140 45.5q-109 0 -178 -79.5t-69 -231.5q0 -151 71 -233t178 -82q89 0 146.5 47.5t91.5 146.5l274 -98
q-60 -150 -193 -239t-312 -89z" />
    <glyph glyph-name="d" unicode="d" horiz-adv-x="1284" 
d="M520 -33q-203 0 -323.5 150t-120.5 395t120.5 394t323.5 149q117 0 203 -51t129 -117v176v371h291v-1434h-283v137q-44 -65 -132.5 -117.5t-207.5 -52.5zM623 188q111 0 176 83t65 241t-65 241t-176 83q-110 0 -176 -77t-66 -247t66 -247t176 -77z" />
    <glyph glyph-name="e" unicode="e" horiz-adv-x="1167" 
d="M594 -33q-237 0 -378.5 148t-141.5 399q0 239 146.5 390t371.5 151q167 0 286 -82.5t171.5 -220.5t37.5 -310h-722q6 -129 68 -191.5t161 -62.5q90 0 145 48t92 131l261 -101q-19 -44 -43.5 -82t-67 -79.5t-94 -70.5t-128 -48t-165.5 -19zM375 647h426q-9 96 -63 147.5
t-146 51.5q-88 0 -145 -51.5t-72 -147.5z" />
    <glyph glyph-name="f" unicode="f" horiz-adv-x="792" 
d="M233 0v803h-198v221h198v141q0 123 67 196t189 73h316v-232h-191q-47 0 -68.5 -22t-21.5 -68v-88h238v-221h-238v-803h-291z" />
    <glyph glyph-name="g" unicode="g" horiz-adv-x="1259" 
d="M360 -399q-307 0 -307 211q0 62 35.5 115.5t85.5 86.5q-96 67 -96 189q0 71 46 128t116 95q-51 41 -81 107t-30 139q0 171 124.5 277t319.5 106q135 0 241.5 -56.5t158.5 -150.5q5 102 42.5 139t139.5 37h78v-221h-113q-48 0 -65.5 -21.5t-26.5 -97.5l-2 -18
q-19 -164 -139.5 -260.5t-302.5 -96.5q-134 0 -213 35q-78 -22 -78 -72q0 -29 24.5 -37t77.5 -8h441q160 0 258 -90t98 -219q0 -150 -99.5 -233.5t-256.5 -83.5h-476zM582 500q81 0 130.5 48t49.5 126q0 80 -49.5 132t-130.5 52t-131 -52t-50 -132q0 -78 49.5 -126
t131.5 -48zM379 -188h399q127 0 127 96q0 40 -30 66t-97 26h-448q-21 -12 -37.5 -37.5t-16.5 -54.5q0 -47 29.5 -71.5t73.5 -24.5z" />
    <glyph glyph-name="h" unicode="h" horiz-adv-x="1222" 
d="M141 0v1434h291v-371v-197q116 189 334 189q164 0 245 -98t81 -271v-686h-291v623q0 192 -164 192q-42 0 -75 -13.5t-54.5 -32.5t-36.5 -50.5t-22.5 -57.5t-11.5 -64t-4.5 -59t-0.5 -53v-485h-291z" />
    <glyph glyph-name="i" unicode="i" horiz-adv-x="567" 
d="M129 1163v275h309v-275h-309zM139 0v1024h291v-1024h-291z" />
    <glyph glyph-name="j" unicode="j" horiz-adv-x="585" 
d="M147 1165v269h304v-269h-304zM-76 -399v231h144q49 0 69.5 21.5t20.5 68.5v1102h286v-1155q0 -123 -67 -195.5t-191 -72.5h-262z" />
    <glyph glyph-name="k" unicode="k" horiz-adv-x="1241" 
d="M901 0l-319 424l-150 -143v-281h-291v1434h291v-457v-367l412 414h356l-418 -406l486 -618h-367z" />
    <glyph glyph-name="l" unicode="l" horiz-adv-x="573" 
d="M141 0v1434h291v-1434h-291z" />
    <glyph glyph-name="m" unicode="m" horiz-adv-x="1837" 
d="M141 0v1024h283v-147q50 90 129 134t178 44q192 0 293 -178q126 178 344 178q153 0 245.5 -90t92.5 -281v-684h-291v623q0 192 -160 192q-38 0 -68 -11.5t-49.5 -28.5t-33.5 -44t-21 -50.5t-11 -56.5t-4.5 -53t-0.5 -49v-522h-287v623q0 192 -159 192q-38 0 -68.5 -11.5
t-49.5 -28.5t-33.5 -44t-21.5 -50.5t-11 -56.5t-4.5 -53.5t-0.5 -48.5v-522h-291z" />
    <glyph glyph-name="n" unicode="n" horiz-adv-x="1222" 
d="M141 0v1024h283v-158q15 25 32.5 47t48 49.5t64.5 46.5t82.5 32.5t102.5 13.5q172 0 255 -97.5t83 -271.5v-686h-291v623q0 192 -164 192q-42 0 -75 -13.5t-54.5 -32.5t-36.5 -50.5t-22.5 -57.5t-11.5 -64t-4.5 -59t-0.5 -53v-485h-291z" />
    <glyph glyph-name="o" unicode="o" horiz-adv-x="1220" 
d="M610 -33q-234 0 -386 154t-152 391q0 244 150.5 393.5t387.5 149.5t388 -149.5t151 -393.5q0 -247 -150.5 -396t-388.5 -149zM610 199q108 0 172 78t64 231q0 154 -64 235.5t-172 81.5t-171.5 -81.5t-63.5 -235.5q0 -153 63.5 -231t171.5 -78z" />
    <glyph glyph-name="p" unicode="p" horiz-adv-x="1284" 
d="M141 -399v1423h283v-137q45 65 133.5 117.5t206.5 52.5q203 0 323.5 -150t120.5 -395t-120.5 -395t-323.5 -150q-117 0 -203 51.5t-129 118.5v-178v-358h-291zM662 188q110 0 175.5 77t65.5 247t-65.5 248t-175.5 78q-111 0 -176.5 -84t-65.5 -242t65.5 -241t176.5 -83z
" />
    <glyph glyph-name="q" unicode="q" horiz-adv-x="1284" 
d="M852 -399v358v178q-42 -65 -129 -117.5t-203 -52.5q-203 0 -323.5 150t-120.5 395t120.5 395t323.5 150q119 0 207 -51.5t133 -118.5v137h283v-1423h-291zM623 188q112 0 181.5 83.5t69.5 240.5t-69.5 241.5t-181.5 84.5q-110 0 -176 -78t-66 -248t66 -247t176 -77z" />
    <glyph glyph-name="r" unicode="r" horiz-adv-x="880" 
d="M141 0v1024h285v-233q105 253 373 253q31 0 47 -2v-299q-72 7 -113 7q-161 0 -231 -75t-70 -263v-412h-291z" />
    <glyph glyph-name="s" unicode="s" horiz-adv-x="1075" 
d="M537 -29q-184 0 -317 79.5t-165 213.5l264 84q2 -13 6.5 -27.5t20.5 -42.5t39.5 -48.5t67.5 -37t100 -16.5q74 0 115 29t41 74q0 40 -27.5 67t-99.5 41l-146 29q-86 17 -145 39.5t-105 58.5t-68 89.5t-22 127.5q0 147 118.5 235.5t322.5 88.5q91 0 168 -22t128 -58.5
t84.5 -75t51.5 -80.5l-240 -108q-24 65 -78.5 104t-128.5 39q-71 0 -108 -27.5t-37 -70.5q0 -41 30 -63.5t111 -37.5l141 -26q353 -68 353 -320q0 -155 -126.5 -246.5t-348.5 -91.5z" />
    <glyph glyph-name="t" unicode="t" horiz-adv-x="892" 
d="M506 0q-123 0 -191.5 73t-68.5 195v535h-215v221h215v322h291v-322h266v-221h-266v-481q0 -91 90 -91h221v-231h-342z" />
    <glyph glyph-name="u" unicode="u" horiz-adv-x="1210" 
d="M444 -33q-146 0 -230.5 99.5t-84.5 267.5v690h291v-623q0 -192 153 -192q106 0 155.5 86t49.5 223v506h291v-1024h-291v164q-117 -197 -334 -197z" />
    <glyph glyph-name="v" unicode="v" horiz-adv-x="1157" 
d="M410 0l-394 1024h306l141 -420l121 -356q10 30 114 356l136 420h296l-372 -1024h-348z" />
    <glyph glyph-name="w" unicode="w" horiz-adv-x="1765" 
d="M350 0l-327 1024h299l75 -303q97 -388 115 -451q15 68 102 396l95 358h346l94 -356q85 -328 104 -392q17 76 123 480l70 268h297l-328 -1024h-350l-117 442l-80 301q-17 -82 -75 -299l-117 -444h-326z" />
    <glyph glyph-name="x" unicode="x" horiz-adv-x="1138" 
d="M10 0l391 532l-374 492h352l78 -111q97 -137 125 -176l125 174l81 113h320l-377 -496l404 -528h-357l-88 127l-139 201q-87 -123 -139 -199l-88 -129h-314z" />
    <glyph glyph-name="y" unicode="y" horiz-adv-x="1146" 
d="M817 1024h305l-428 -1186q-44 -123 -117 -180t-204 -57h-305v231h266q54 0 81.5 26t51.5 93l18 53l-495 1020h311l170 -391q92 -212 127 -285q27 80 100 305z" />
    <glyph glyph-name="z" unicode="z" horiz-adv-x="1021" 
d="M80 0v254l502 539h-279h-199v231h824v-209l-543 -584h293h276v-231h-874z" />
    <glyph glyph-name="braceleft" unicode="{" horiz-adv-x="761" 
d="M539 -307q-167 0 -234 70t-67 225v334q0 106 -43.5 143t-137.5 37v233q48 0 77.5 5t55.5 21.5t37 49.5t11 86v354q0 155 67 225t234 70h166v-217h-72q-67 0 -98 -28t-31 -103v-299q0 -57 -16.5 -102.5t-39.5 -72.5t-61 -49t-67 -32t-72 -22q31 -9 51 -15.5t49.5 -19.5
t49 -26.5t41.5 -35t35 -46.5t21.5 -60.5t8.5 -77.5v-297q0 -76 31 -104.5t98 -28.5h72v-217h-166z" />
    <glyph glyph-name="bar" unicode="|" horiz-adv-x="593" 
d="M164 -205v1854h266v-1854h-266z" />
    <glyph glyph-name="braceright" unicode="}" horiz-adv-x="761" 
d="M223 1546q167 0 234 -70t67 -225v-333q0 -106 43.5 -143.5t137.5 -37.5v-233q-48 0 -77.5 -5t-55.5 -21.5t-37 -49.5t-11 -86v-354q0 -155 -67 -225t-234 -70h-166v217h72q67 0 98 28t31 103v299q0 57 16.5 102.5t39.5 72.5t61 49t67 32t72 22q-31 9 -51 15.5t-49.5 19.5
t-49 26.5t-41.5 35t-35 46.5t-21.5 60.5t-8.5 77.5v297q0 76 -31 104.5t-98 28.5h-72v217h166z" />
    <glyph glyph-name="asciitilde" unicode="~" horiz-adv-x="1300" 
d="M858 532q-112 0 -227 62l-88 49q-55 31 -109 31q-99 0 -174 -113l-172 148q56 107 150 164t206 57q113 0 224 -60l82 -45q70 -37 120 -37q47 0 92.5 32.5t81.5 86.5l173 -153q-56 -107 -152 -164.5t-207 -57.5z" />
    <glyph glyph-name="uni00A0" unicode="&#xa0;" horiz-adv-x="481" 
 />
    <glyph glyph-name="exclamdown" unicode="&#xa1;" horiz-adv-x="593" 
d="M467 1206v-321h-340v321h340zM362 692l97 -594v-325h-324v325l94 594h133z" />
    <glyph glyph-name="cent" unicode="&#xa2;" horiz-adv-x="1198" 
d="M530 -244v219q-199 31 -321.5 179.5t-122.5 369.5q0 219 123 365.5t321 179.5v219h175v-215q152 -18 260 -102t155 -209l-268 -103q-46 132 -147 170v-342v-274q105 36 157 188l275 -100q-53 -136 -166.5 -223.5t-265.5 -106.5v-215h-175zM530 221v324v278
q-141 -59 -141 -299q0 -239 141 -303z" />
    <glyph glyph-name="sterling" unicode="&#xa3;" horiz-adv-x="1208" 
d="M719 258h409v-258h-1019v268q27 9 50.5 18.5t65 31.5t70 46t50.5 61.5t22 78.5q0 47 -21 98h-233v182h112q-78 114 -78 240q0 104 40.5 189.5t109.5 139.5t156.5 83.5t183.5 29.5q80 0 157 -24.5t144.5 -72t115 -127.5t62.5 -181l-295 -70q-14 114 -68.5 167.5
t-127.5 53.5q-83 0 -133 -49t-50 -135q0 -60 25 -116t72 -128h303v-182h-221q2 -14 2 -47q0 -115 -49 -183t-140 -114h285z" />
    <glyph glyph-name="currency" unicode="&#xa4;" horiz-adv-x="1339" 
d="M293 147l-199 199l158 156q-57 96 -57 219q0 117 55 221l-156 158l199 196l162 -161q102 51 217 51q122 0 213 -51l162 161l198 -196l-155 -158q57 -96 57 -221q0 -114 -57 -221l155 -154l-198 -199l-160 162q-102 -51 -215 -51q-115 0 -217 51zM672 504q92 0 150.5 64
t58.5 153q0 91 -58 155t-151 64t-152 -64.5t-59 -154.5q0 -89 59 -153t152 -64z" />
    <glyph glyph-name="yen" unicode="&#xa5;" horiz-adv-x="1454" 
d="M1397 1434l-396 -615h244v-182h-358v-145h358v-183h-358v-309h-312v309h-362v183h362v145h-362v182h244l-402 615h359l164 -279q87 -145 159 -272q49 92 154 278l156 273h350z" />
    <glyph glyph-name="brokenbar" unicode="&#xa6;" horiz-adv-x="593" 
d="M164 870v779h266v-779h-266zM164 -205v778h266v-778h-266z" />
    <glyph glyph-name="section" unicode="&#xa7;" horiz-adv-x="1349" 
d="M678 -426q-220 0 -350 100t-156 258l289 76q41 -178 217 -178q87 0 132.5 38.5t45.5 94.5q0 48 -28 82.5t-107 58.5l-356 111q-148 46 -221.5 126t-73.5 200q0 95 59.5 174.5t146.5 124.5q-86 79 -86 237q0 165 129 277t347 112t344.5 -99t154.5 -255l-288 -76
q-46 176 -211 176q-80 0 -124 -41.5t-44 -97.5q0 -48 26.5 -79.5t108.5 -57.5l356 -113q149 -47 222 -125.5t73 -199.5q0 -93 -62 -175.5t-149 -125.5q90 -87 90 -238q0 -165 -130.5 -275t-354.5 -110zM877 319q42 21 67 63t25 85q0 40 -31.5 74t-87.5 53l-238 78
q-61 19 -137 49q-43 -27 -66.5 -67.5t-23.5 -82.5q0 -40 31.5 -74t87.5 -53l237 -75q46 -14 136 -50z" />
    <glyph glyph-name="dieresis" unicode="&#xa8;" horiz-adv-x="1007" 
d="M201 1178v245h270v-245h-270zM651 1178v245h271v-245h-271z" />
    <glyph glyph-name="copyright" unicode="&#xa9;" horiz-adv-x="1792" 
d="M895 -80q-167 0 -317.5 63.5t-259 171.5t-172.5 258t-64 316t64 316t172.5 257.5t259 170.5t317.5 63q134 0 258.5 -40t225 -114.5t176 -173.5t116.5 -222.5t41 -256.5q0 -166 -64.5 -316t-173.5 -258t-260.5 -171.5t-318.5 -63.5zM897 113q173 0 314 82.5t220.5 224
t79.5 309.5q0 169 -79.5 310.5t-220.5 224t-314 82.5t-314 -82.5t-220.5 -224t-79.5 -310.5q0 -168 79.5 -309.5t220.5 -224t314 -82.5zM899 289q-199 0 -313.5 119.5t-114.5 322.5q0 196 118 320.5t310 124.5q138 0 244.5 -76t144.5 -193l-198 -69q-50 184 -203 184
q-94 0 -153.5 -78t-59.5 -213q0 -134 58.5 -210.5t154.5 -76.5q161 0 205 181l196 -72q-42 -118 -148 -191t-241 -73z" />
    <glyph glyph-name="ordfeminine" unicode="&#xaa;" horiz-adv-x="1052" 
d="M412 592q-143 0 -238.5 127t-95.5 309q0 185 94.5 305.5t239.5 120.5q87 0 151 -34.5t113 -116.5v131h244v-822h-244v138q-93 -158 -264 -158zM504 770q78 0 125 68.5t47 189.5q0 122 -46.5 185t-125.5 63t-125.5 -63t-46.5 -185q0 -121 47 -189.5t125 -68.5z" />
    <glyph glyph-name="guillemotleft" unicode="&#xab;" horiz-adv-x="1220" 
d="M662 1004l-295 -488l292 -489h-307l-289 489l291 488h308zM1163 1004l-295 -488l293 -489h-307l-289 491l291 486h307z" />
    <glyph glyph-name="logicalnot" unicode="&#xac;" horiz-adv-x="1335" 
d="M950 315v295h-839v246h1085v-541h-246z" />
    <glyph glyph-name="uni00AD" unicode="&#xad;" horiz-adv-x="974" 
d="M123 518v266h729v-266h-729z" />
    <glyph glyph-name="registered" unicode="&#xae;" horiz-adv-x="1153" 
d="M575 541q-218 0 -358.5 143.5t-140.5 355.5q0 210 140 353t359 143q145 0 260.5 -66.5t178.5 -179.5t63 -250q0 -139 -63.5 -252.5t-178.5 -180t-260 -66.5zM575 670q163 0 262 104t99 266q0 159 -99 262t-262 103t-259.5 -102.5t-96.5 -262.5q0 -163 96.5 -266.5
t259.5 -103.5zM391 805v467h248q63 0 106 -33.5t43 -89.5t-40 -84t-97 -35q56 -7 80.5 -34.5t32.5 -82.5l16 -108h-131l-12 102q-6 46 -23.5 62t-56.5 16h-41v-180h-125zM516 1077h74q74 0 74 51q0 50 -76 50h-72v-101z" />
    <glyph glyph-name="macron" unicode="&#xaf;" horiz-adv-x="675" 
d="M47 1186v196h647v-196h-647z" />
    <glyph glyph-name="degree" unicode="&#xb0;" horiz-adv-x="911" 
d="M453 856q-171 0 -279 109.5t-108 271.5q0 163 110 273t279 110t279 -110t110 -273q0 -165 -109.5 -273t-281.5 -108zM455 1071q68 0 110.5 46.5t42.5 121.5q0 72 -42.5 117t-110.5 45q-67 0 -111.5 -45.5t-44.5 -116.5q0 -75 44.5 -121.5t111.5 -46.5z" />
    <glyph glyph-name="plusminus" unicode="&#xb1;" horiz-adv-x="1359" 
d="M567 520v252h-420v225h420v269h246v-269h420v-225h-420v-252h-246zM123 180v246h1096v-246h-1096z" />
    <glyph glyph-name="uni00B2" unicode="&#xb2;" horiz-adv-x="819" 
d="M96 797v207q234 133 312.5 204t78.5 148q0 43 -22.5 68.5t-61.5 25.5q-49 0 -73.5 -41.5t-22.5 -114.5l-221 23q0 143 90 232t236 89q141 0 226 -72t85 -188q0 -108 -76 -207q-74 -96 -280 -186h268h90v-188h-629z" />
    <glyph glyph-name="uni00B3" unicode="&#xb3;" horiz-adv-x="811" 
d="M406 778q-144 0 -235 71t-103 191l223 45q19 -120 112 -120q43 0 68 20t25 59q0 78 -107 78h-53v181h53q45 0 68.5 20t23.5 55q0 32 -20.5 53t-54.5 21q-40 0 -62 -31.5t-22 -85.5l-226 31q6 121 92 196.5t218 75.5q133 0 217 -62.5t84 -162.5q0 -63 -37 -112.5
t-107 -75.5q162 -52 162 -201q0 -109 -87.5 -177.5t-231.5 -68.5z" />
    <glyph glyph-name="acute" unicode="&#xb4;" horiz-adv-x="720" 
d="M166 1159l102 316h318l-226 -316h-194z" />
    <glyph glyph-name="uni00B5" unicode="&#xb5;" horiz-adv-x="1267" 
d="M164 -399v1423h291v-614q0 -197 153 -197q72 0 119.5 44t66.5 112t19 159v496h291v-1024h-291v168q-116 -201 -313 -201q-31 0 -45 2v-368h-291z" />
    <glyph glyph-name="paragraph" unicode="&#xb6;" horiz-adv-x="1560" 
d="M616 1434h859v-224h-179v-1607h-266v1607h-164v-1607h-266v843h-49q-106 0 -198.5 38t-157 103t-101.5 154.5t-37 190.5q0 158 75 273.5t200 172t284 56.5z" />
    <glyph glyph-name="periodcentered" unicode="&#xb7;" horiz-adv-x="579" 
d="M121 575v324h338v-324h-338z" />
    <glyph glyph-name="cedilla" unicode="&#xb8;" horiz-adv-x="813" 
d="M426 -102q31 0 63 -10t62 -30.5t48.5 -57.5t18.5 -85q0 -80 -66 -138t-206 -58q-81 0 -150.5 33.5t-105.5 72.5l100 133q74 -69 154 -69q78 0 78 45q0 20 -19.5 32.5t-52.5 12.5q-31 0 -55 -6l-76 98l133 129h185l-64 -55q-5 -4 -23.5 -21t-29.5 -26h6z" />
    <glyph glyph-name="uni00B9" unicode="&#xb9;" horiz-adv-x="630" 
d="M274 797v327v219q-75 -108 -206 -96v213q182 -3 237 160h193v-823h-224z" />
    <glyph glyph-name="ordmasculine" unicode="&#xba;" horiz-adv-x="1001" 
d="M502 592q-132 0 -230.5 58t-148 155.5t-49.5 220.5q0 192 114 310t314 118q199 0 312.5 -118.5t113.5 -309.5q0 -189 -114.5 -311.5t-311.5 -122.5zM502 764q77 0 124.5 69t47.5 193q0 127 -47 191.5t-125 64.5q-80 0 -127 -64.5t-47 -191.5q0 -125 47.5 -193.5
t126.5 -68.5z" />
    <glyph glyph-name="guillemotright" unicode="&#xbb;" horiz-adv-x="1216" 
d="M367 1004l288 -492l-290 -485h-308l295 487l-293 490h308zM868 1004l289 -490l-291 -487h-307l295 487l-293 490h307z" />
    <glyph glyph-name="onequarter" unicode="&#xbc;" horiz-adv-x="1865" 
d="M270 610v328v219q-75 -108 -207 -96v213q183 -3 238 160h193v-824h-224zM211 0l1046 1434h252l-1044 -1434h-254zM1479 0v184h-385v168l319 471h275v-458h114v-181h-114v-184h-209zM1479 365v55v186l-164 -241h117h47z" />
    <glyph glyph-name="onehalf" unicode="&#xbd;" horiz-adv-x="1830" 
d="M270 610v328v219q-75 -108 -207 -96v213q183 -3 238 160h193v-824h-224zM211 0l1046 1434h252l-1044 -1434h-254zM1120 0v207q234 133 312.5 204t78.5 148q0 43 -22.5 68.5t-61.5 25.5q-49 0 -73.5 -41t-22.5 -114l-221 22q0 143 90 232.5t236 89.5q141 0 226 -72
t85 -188q0 -108 -76 -207q-75 -97 -280 -187h268h90v-188h-629z" />
    <glyph glyph-name="threequarters" unicode="&#xbe;" horiz-adv-x="2045" 
d="M403 592q-144 0 -234.5 71t-102.5 191l223 45q19 -121 112 -121q42 0 67.5 20.5t25.5 59.5q0 78 -107 78h-53v180h53q45 0 68.5 20.5t23.5 55.5q0 32 -21 53t-55 21q-40 0 -62 -31.5t-22 -85.5l-225 31q6 121 91.5 196.5t217.5 75.5q134 0 218 -62.5t84 -162.5
q0 -63 -37 -113t-107 -76q162 -52 162 -200q0 -109 -88 -177.5t-232 -68.5zM391 0l1047 1434h252l-1045 -1434h-254zM1659 0v184h-385v168l319 471h275v-458h114v-181h-114v-184h-209zM1659 365v55v186l-164 -241h117h47z" />
    <glyph glyph-name="questiondown" unicode="&#xbf;" horiz-adv-x="1107" 
d="M743 1208v-321h-337v321h337zM711 694q0 -72 -12 -124t-41 -93t-58 -67.5t-82 -65.5q-62 -46 -96.5 -90.5t-34.5 -106.5q0 -73 48 -116t128 -43q184 0 199 258l287 -45q-9 -211 -137 -334t-357 -123q-119 0 -212.5 32t-148.5 86.5t-83.5 120.5t-28.5 140q0 68 18.5 124.5
t56.5 102t72.5 75.5t89.5 69q123 90 123 200h269z" />
    <glyph glyph-name="Agrave" unicode="&#xc0;" horiz-adv-x="1515" 
d="M874 1569h-217l-247 315h352zM1159 0l-115 336h-583l-117 -336h-334l547 1434h404l542 -1434h-344zM551 594h405l-106 315l-94 275q-21 -67 -94 -277z" />
    <glyph glyph-name="Aacute" unicode="&#xc1;" horiz-adv-x="1515" 
d="M1114 1884l-248 -315h-213l113 315h348zM1159 0l-115 336h-583l-117 -336h-334l547 1434h404l542 -1434h-344zM551 594h405l-106 315l-94 275q-21 -67 -94 -277z" />
    <glyph glyph-name="Acircumflex" unicode="&#xc2;" horiz-adv-x="1515" 
d="M758 1714l-168 -145h-275l248 264h387l248 -264h-274zM1159 0l-115 336h-583l-117 -336h-334l547 1434h404l542 -1434h-344zM551 594h405l-106 315l-94 275q-21 -67 -94 -277z" />
    <glyph glyph-name="Atilde" unicode="&#xc3;" horiz-adv-x="1515" 
d="M592 1669q-83 0 -86 -100h-230q0 137 80.5 210.5t216.5 73.5q93 0 193 -53l57 -31q70 -36 111 -36q80 0 86 100h219q0 -285 -287 -285q-42 0 -81 9.5t-60.5 18.5t-52.5 26l-58 30q-68 37 -108 37zM1159 0l-115 336h-583l-117 -336h-334l547 1434h404l542 -1434h-344z
M551 594h405l-106 315l-94 275q-21 -67 -94 -277z" />
    <glyph glyph-name="Adieresis" unicode="&#xc4;" horiz-adv-x="1515" 
d="M662 1815v-246h-297v246h297zM1157 1815v-246h-297v246h297zM1159 0l-115 336h-583l-117 -336h-334l547 1434h404l542 -1434h-344zM551 594h405l-106 315l-94 275q-21 -67 -94 -277z" />
    <glyph glyph-name="Aring" unicode="&#xc5;" horiz-adv-x="1515" 
d="M758 1518q-111 0 -192 73t-81 187q0 112 81.5 188t191.5 76q109 0 189.5 -76t80.5 -188q0 -114 -79.5 -187t-190.5 -73zM758 1882q-43 0 -73 -29.5t-30 -74.5q0 -48 29.5 -77.5t73.5 -29.5q42 0 71 29.5t29 77.5q0 45 -29 74.5t-71 29.5zM1159 0l-115 336h-583l-117 -336
h-334l547 1434h404l542 -1434h-344zM551 594h405l-106 315l-94 275q-21 -67 -94 -277z" />
    <glyph glyph-name="AE" unicode="&#xc6;" horiz-adv-x="1966" 
d="M1870 1176h-686v-312h493v-254h-493v-352h686v-258h-996v338h-405l-158 -338h-356l741 1434h1174v-258zM874 854v348q-42 -95 -221 -473l-61 -133h282v258z" />
    <glyph glyph-name="Ccedilla" unicode="&#xc7;" horiz-adv-x="1546" 
d="M963 -23l-37 -32q-4 -4 -12 -10.5t-21 -18t-21 -18.5h7q31 0 63 -10t62 -30.5t48.5 -57.5t18.5 -85q0 -80 -66 -138t-206 -58q-81 0 -150.5 33.5t-105.5 72.5l100 133q74 -69 154 -69q77 0 77 45q0 21 -19 33t-52 12q-31 0 -55 -6l-76 98l100 98q-206 11 -363 110
t-241 265t-84 375q0 157 55 294.5t151.5 237.5t236 157.5t302.5 57.5q251 0 427 -122.5t235 -319.5l-281 -109q-103 293 -385 293q-195 0 -305 -128.5t-110 -360.5q0 -233 109 -362.5t306 -129.5q147 0 246.5 79.5t147.5 215.5l274 -110q-69 -183 -202 -294.5t-328 -140.5z
" />
    <glyph glyph-name="Egrave" unicode="&#xc8;" horiz-adv-x="1351" 
d="M612 1569l-247 315h352l112 -315h-217zM172 0v1434h1083v-258h-772v-312h584v-254h-584v-352h772v-258h-1083z" />
    <glyph glyph-name="Eacute" unicode="&#xc9;" horiz-adv-x="1351" 
d="M608 1569l113 315h348l-248 -315h-213zM172 0v1434h1083v-258h-772v-312h584v-254h-584v-352h772v-258h-1083z" />
    <glyph glyph-name="Ecircumflex" unicode="&#xca;" horiz-adv-x="1351" 
d="M270 1569l248 264h387l248 -264h-274l-166 145l-168 -145h-275zM172 0v1434h1083v-258h-772v-312h584v-254h-584v-352h772v-258h-1083z" />
    <glyph glyph-name="Edieresis" unicode="&#xcb;" horiz-adv-x="1351" 
d="M319 1569v246h297v-246h-297zM815 1569v246h297v-246h-297zM172 0v1434h1083v-258h-772v-312h584v-254h-584v-352h772v-258h-1083z" />
    <glyph glyph-name="Igrave" unicode="&#xcc;" horiz-adv-x="655" 
d="M227 1569l-247 315h352l112 -315h-217zM172 0v1434h311v-1434h-311z" />
    <glyph glyph-name="Iacute" unicode="&#xcd;" horiz-adv-x="655" 
d="M223 1569l113 315h348l-248 -315h-213zM172 0v1434h311v-1434h-311z" />
    <glyph glyph-name="Icircumflex" unicode="&#xce;" horiz-adv-x="655" 
d="M-115 1569l248 264h387l248 -264h-274l-166 145l-168 -145h-275zM172 0v1434h311v-1434h-311z" />
    <glyph glyph-name="Idieresis" unicode="&#xcf;" horiz-adv-x="655" 
d="M-66 1569v246h297v-246h-297zM430 1569v246h297v-246h-297zM172 0v1434h311v-1434h-311z" />
    <glyph glyph-name="Eth" unicode="&#xd0;" horiz-adv-x="1583" 
d="M739 1434q154 0 291.5 -48t241.5 -136.5t164.5 -223.5t60.5 -299q0 -168 -60.5 -307t-164.5 -230t-241.5 -140.5t-291.5 -49.5h-540v637h-158v213h158v584h540zM725 258q451 0 451 463q0 210 -112 332.5t-327 122.5h-227v-326h260v-213h-260v-379h215z" />
    <glyph glyph-name="Ntilde" unicode="&#xd1;" horiz-adv-x="1730" 
d="M1059 1548q-93 0 -195 54l-57 30q-68 37 -109 37q-83 0 -86 -100h-229q0 137 80.5 210.5t216.5 73.5q42 0 80.5 -9t59.5 -18.5t52 -25.5l58 -31q70 -36 110 -36q80 0 86 100h220q0 -285 -287 -285zM172 0v1434h432l643 -908v363v545h312v-1434h-287l-789 1112v-436v-676
h-311z" />
    <glyph glyph-name="Ograve" unicode="&#xd2;" horiz-adv-x="1703" 
d="M750 1569l-248 315h352l113 -315h-217zM852 -33q-178 0 -323 56t-241.5 155.5t-149 236.5t-52.5 298q0 160 53 298t150.5 239t242.5 158.5t320 57.5t320 -57.5t242.5 -158.5t150.5 -239t53 -298q0 -161 -52.5 -298t-149 -236.5t-241.5 -155.5t-323 -56zM854 225
q204 0 321 137t117 353q0 219 -116.5 356t-321.5 137q-206 0 -324 -137t-118 -356q0 -216 118 -353t324 -137z" />
    <glyph glyph-name="Oacute" unicode="&#xd3;" horiz-adv-x="1703" 
d="M745 1569l113 315h348l-248 -315h-213zM852 -33q-178 0 -323 56t-241.5 155.5t-149 236.5t-52.5 298q0 160 53 298t150.5 239t242.5 158.5t320 57.5t320 -57.5t242.5 -158.5t150.5 -239t53 -298q0 -161 -52.5 -298t-149 -236.5t-241.5 -155.5t-323 -56zM854 225
q204 0 321 137t117 353q0 219 -116.5 356t-321.5 137q-206 0 -324 -137t-118 -356q0 -216 118 -353t324 -137z" />
    <glyph glyph-name="Ocircumflex" unicode="&#xd4;" horiz-adv-x="1703" 
d="M408 1569l247 264h387l248 -264h-274l-166 145l-168 -145h-274zM852 -33q-178 0 -323 56t-241.5 155.5t-149 236.5t-52.5 298q0 160 53 298t150.5 239t242.5 158.5t320 57.5t320 -57.5t242.5 -158.5t150.5 -239t53 -298q0 -161 -52.5 -298t-149 -236.5t-241.5 -155.5
t-323 -56zM854 225q204 0 321 137t117 353q0 219 -116.5 356t-321.5 137q-206 0 -324 -137t-118 -356q0 -216 118 -353t324 -137z" />
    <glyph glyph-name="Otilde" unicode="&#xd5;" horiz-adv-x="1703" 
d="M1044 1548q-42 0 -81 9.5t-60.5 18.5t-52.5 26l-57 30q-68 37 -109 37q-83 0 -86 -100h-229q0 137 80.5 210.5t216.5 73.5q42 0 80.5 -9t59.5 -18.5t52 -25.5l57 -31q70 -36 111 -36q80 0 86 100h219q0 -285 -287 -285zM852 -33q-178 0 -323 56t-241.5 155.5t-149 236.5
t-52.5 298q0 160 53 298t150.5 239t242.5 158.5t320 57.5t320 -57.5t242.5 -158.5t150.5 -239t53 -298q0 -161 -52.5 -298t-149 -236.5t-241.5 -155.5t-323 -56zM854 225q204 0 321 137t117 353q0 219 -116.5 356t-321.5 137q-206 0 -324 -137t-118 -356q0 -216 118 -353
t324 -137z" />
    <glyph glyph-name="Odieresis" unicode="&#xd6;" horiz-adv-x="1703" 
d="M457 1569v246h297v-246h-297zM952 1569v246h297v-246h-297zM852 -33q-178 0 -323 56t-241.5 155.5t-149 236.5t-52.5 298q0 160 53 298t150.5 239t242.5 158.5t320 57.5t320 -57.5t242.5 -158.5t150.5 -239t53 -298q0 -161 -52.5 -298t-149 -236.5t-241.5 -155.5
t-323 -56zM854 225q204 0 321 137t117 353q0 219 -116.5 356t-321.5 137q-206 0 -324 -137t-118 -356q0 -216 118 -353t324 -137z" />
    <glyph glyph-name="multiply" unicode="&#xd7;" horiz-adv-x="1214" 
d="M258 201l-164 164l348 348l-350 350l166 166l350 -350l348 348l164 -164l-348 -348l348 -348l-166 -166l-348 348z" />
    <glyph glyph-name="Oslash" unicode="&#xd8;" horiz-adv-x="1703" 
d="M356 -137l-209 157l129 166q-190 205 -190 525q0 160 53 298t150.5 239t242.5 158.5t320 57.5q204 0 360 -75l138 176l209 -162l-132 -168q191 -210 191 -524q0 -161 -52.5 -298t-149 -237t-241.5 -156.5t-323 -56.5q-204 0 -360 72zM475 440l410 529q132 170 155 200
q-78 37 -186 37q-206 0 -324 -137t-118 -356q0 -153 63 -273zM854 223q204 0 321 137t117 353q0 154 -59 272l-397 -508q-38 -51 -170 -217q81 -37 188 -37z" />
    <glyph glyph-name="Ugrave" unicode="&#xd9;" horiz-adv-x="1597" 
d="M696 1569l-247 315h352l112 -315h-217zM799 -33q-295 0 -469 159.5t-174 432.5v875h311v-826q0 -182 84 -278.5t248 -96.5q169 0 250 98.5t81 276.5v826h312v-875q0 -184 -83 -319t-228 -204t-332 -69z" />
    <glyph glyph-name="Uacute" unicode="&#xda;" horiz-adv-x="1597" 
d="M692 1569l113 315h348l-248 -315h-213zM799 -33q-295 0 -469 159.5t-174 432.5v875h311v-826q0 -182 84 -278.5t248 -96.5q169 0 250 98.5t81 276.5v826h312v-875q0 -184 -83 -319t-228 -204t-332 -69z" />
    <glyph glyph-name="Ucircumflex" unicode="&#xdb;" horiz-adv-x="1597" 
d="M354 1569l248 264h387l248 -264h-274l-166 145l-168 -145h-275zM799 -33q-295 0 -469 159.5t-174 432.5v875h311v-826q0 -182 84 -278.5t248 -96.5q169 0 250 98.5t81 276.5v826h312v-875q0 -184 -83 -319t-228 -204t-332 -69z" />
    <glyph glyph-name="Udieresis" unicode="&#xdc;" horiz-adv-x="1597" 
d="M403 1569v246h297v-246h-297zM899 1569v246h297v-246h-297zM799 -33q-295 0 -469 159.5t-174 432.5v875h311v-826q0 -182 84 -278.5t248 -96.5q169 0 250 98.5t81 276.5v826h312v-875q0 -184 -83 -319t-228 -204t-332 -69z" />
    <glyph glyph-name="Yacute" unicode="&#xdd;" horiz-adv-x="1384" 
d="M588 1569l112 315h349l-248 -315h-213zM539 0v584l-521 850h361l162 -279q147 -253 161 -276l156 280l152 275h350l-510 -850v-584h-311z" />
    <glyph glyph-name="Thorn" unicode="&#xde;" horiz-adv-x="1406" 
d="M815 1190q232 0 375 -125.5t143 -337.5q0 -213 -142.5 -340t-373.5 -127h-334v-260h-311v1434h311v-244h332zM760 518q112 0 181 55.5t69 153.5q0 94 -69 149.5t-181 55.5h-277v-414h277z" />
    <glyph glyph-name="germandbls" unicode="&#xdf;" horiz-adv-x="1304" 
d="M750 -23q-90 0 -179 17v244q89 -19 129 -19q112 0 172 58t60 153q0 98 -71 154.5t-191 56.5h-99v211h76q105 0 166 52.5t61 142.5q0 79 -60.5 132.5t-147.5 53.5q-53 0 -93 -12.5t-73.5 -42.5t-51.5 -87t-18 -139v-952h-289v965q0 241 132 371t401 130q115 0 210 -31.5
t154 -84t91 -117.5t32 -135q0 -74 -25 -133.5t-67.5 -97.5t-88 -61.5t-97.5 -37.5q73 -14 135 -44t111.5 -75t77.5 -111t28 -145q0 -185 -130 -300.5t-355 -115.5z" />
    <glyph glyph-name="agrave" unicode="&#xe0;" horiz-adv-x="1175" 
d="M461 1159l-225 316h319l102 -316h-196zM406 -33q-140 0 -232 81t-92 214q0 83 35 148.5t92.5 108t143.5 73.5t173.5 47t198.5 27v39q0 141 -168 141q-183 0 -225 -162l-262 57q13 129 142.5 221.5t342.5 92.5q220 0 338.5 -99.5t118.5 -298.5v-374q0 -39 10.5 -50.5
t50.5 -11.5h90v-221h-223q-84 0 -130 39.5t-54 110.5q-48 -76 -137.5 -129.5t-212.5 -53.5zM510 180q92 0 153.5 61t61.5 179v65q-81 -10 -135.5 -21.5t-107 -33t-79 -56t-26.5 -83.5q0 -52 34 -81.5t99 -29.5z" />
    <glyph glyph-name="aacute" unicode="&#xe1;" horiz-adv-x="1175" 
d="M467 1159l102 316h318l-225 -316h-195zM406 -33q-140 0 -232 81t-92 214q0 83 35 148.5t92.5 108t143.5 73.5t173.5 47t198.5 27v39q0 141 -168 141q-183 0 -225 -162l-262 57q13 129 142.5 221.5t342.5 92.5q220 0 338.5 -99.5t118.5 -298.5v-374q0 -39 10.5 -50.5
t50.5 -11.5h90v-221h-223q-84 0 -130 39.5t-54 110.5q-48 -76 -137.5 -129.5t-212.5 -53.5zM510 180q92 0 153.5 61t61.5 179v65q-81 -10 -135.5 -21.5t-107 -33t-79 -56t-26.5 -83.5q0 -52 34 -81.5t99 -29.5z" />
    <glyph glyph-name="acircumflex" unicode="&#xe2;" horiz-adv-x="1175" 
d="M158 1159l225 264h352l226 -264h-250l-152 146l-151 -146h-250zM406 -33q-140 0 -232 81t-92 214q0 83 35 148.5t92.5 108t143.5 73.5t173.5 47t198.5 27v39q0 141 -168 141q-183 0 -225 -162l-262 57q13 129 142.5 221.5t342.5 92.5q220 0 338.5 -99.5t118.5 -298.5
v-374q0 -39 10.5 -50.5t50.5 -11.5h90v-221h-223q-84 0 -130 39.5t-54 110.5q-48 -76 -137.5 -129.5t-212.5 -53.5zM510 180q92 0 153.5 61t61.5 179v65q-81 -10 -135.5 -21.5t-107 -33t-79 -56t-26.5 -83.5q0 -52 34 -81.5t99 -29.5z" />
    <glyph glyph-name="atilde" unicode="&#xe3;" horiz-adv-x="1175" 
d="M735 1139q-85 0 -176 53l-51 31q-65 37 -100 37q-75 0 -78 -101h-209q0 138 73.5 211.5t196.5 73.5q85 0 176 -53l51 -31q65 -37 101 -37q75 0 78 100h200q0 -150 -68 -217t-194 -67zM406 -33q-140 0 -232 81t-92 214q0 83 35 148.5t92.5 108t143.5 73.5t173.5 47
t198.5 27v39q0 141 -168 141q-183 0 -225 -162l-262 57q13 129 142.5 221.5t342.5 92.5q220 0 338.5 -99.5t118.5 -298.5v-374q0 -39 10.5 -50.5t50.5 -11.5h90v-221h-223q-84 0 -130 39.5t-54 110.5q-48 -76 -137.5 -129.5t-212.5 -53.5zM510 180q92 0 153.5 61t61.5 179
v65q-81 -10 -135.5 -21.5t-107 -33t-79 -56t-26.5 -83.5q0 -52 34 -81.5t99 -29.5z" />
    <glyph glyph-name="adieresis" unicode="&#xe4;" horiz-adv-x="1175" 
d="M199 1178v245h270v-245h-270zM649 1178v245h271v-245h-271zM406 -33q-140 0 -232 81t-92 214q0 83 35 148.5t92.5 108t143.5 73.5t173.5 47t198.5 27v39q0 141 -168 141q-183 0 -225 -162l-262 57q13 129 142.5 221.5t342.5 92.5q220 0 338.5 -99.5t118.5 -298.5v-374
q0 -39 10.5 -50.5t50.5 -11.5h90v-221h-223q-84 0 -130 39.5t-54 110.5q-48 -76 -137.5 -129.5t-212.5 -53.5zM510 180q92 0 153.5 61t61.5 179v65q-81 -10 -135.5 -21.5t-107 -33t-79 -56t-26.5 -83.5q0 -52 34 -81.5t99 -29.5z" />
    <glyph glyph-name="aring" unicode="&#xe5;" horiz-adv-x="1175" 
d="M561 1128q-106 0 -183 70.5t-77 177.5t77.5 179.5t182.5 72.5t181.5 -72.5t76.5 -179.5q0 -108 -76 -178t-182 -70zM561 1276q41 0 68.5 27.5t27.5 72.5q0 44 -28 72.5t-68 28.5q-42 0 -70 -28.5t-28 -72.5q0 -45 28 -72.5t70 -27.5zM406 -33q-140 0 -232 81t-92 214
q0 83 35 148.5t92.5 108t143.5 73.5t173.5 47t198.5 27v39q0 141 -168 141q-183 0 -225 -162l-262 57q13 129 142.5 221.5t342.5 92.5q220 0 338.5 -99.5t118.5 -298.5v-374q0 -39 10.5 -50.5t50.5 -11.5h90v-221h-223q-84 0 -130 39.5t-54 110.5q-48 -76 -137.5 -129.5
t-212.5 -53.5zM510 180q92 0 153.5 61t61.5 179v65q-81 -10 -135.5 -21.5t-107 -33t-79 -56t-26.5 -83.5q0 -52 34 -81.5t99 -29.5z" />
    <glyph glyph-name="ae" unicode="&#xe6;" horiz-adv-x="1775" 
d="M430 -33q-167 0 -260.5 80t-93.5 225q0 78 32.5 140t87.5 103.5t139 72t175.5 47.5t208.5 27v40q0 69 -44 106.5t-130 37.5q-79 0 -131 -44t-70 -118l-260 57q13 128 133 221t307 93q129 0 219.5 -42.5t135.5 -105.5q47 65 131 106.5t198 41.5q125 0 225 -50.5
t160.5 -135.5t87.5 -195.5t15 -231.5h-723q6 -129 68 -191.5t161 -62.5q90 0 145.5 48t92.5 131l260 -101q-19 -44 -43.5 -82t-66 -79.5t-91.5 -70.5t-123.5 -48t-158.5 -19q-141 0 -247.5 55.5t-146.5 133.5q-52 -81 -153.5 -135t-239.5 -54zM983 643h426q-9 98 -63 150.5
t-146 52.5q-89 0 -145.5 -52t-71.5 -151zM502 180q93 0 155 61t62 179v65q-64 -8 -110.5 -16t-95 -23t-78.5 -35t-49 -50.5t-19 -69.5q0 -52 35 -81.5t100 -29.5z" />
    <glyph glyph-name="ccedilla" unicode="&#xe7;" horiz-adv-x="1167" 
d="M752 -18l-41 -37q-4 -4 -12 -10.5t-21 -18t-21 -18.5h7q31 0 63 -10t62 -30.5t48.5 -57.5t18.5 -85q0 -80 -66 -138t-206 -58q-81 0 -150.5 33.5t-105.5 72.5l100 133q74 -69 154 -69q77 0 77 45q0 21 -19 33t-52 12q-32 0 -56 -6l-75 98l102 98q-216 21 -351.5 169
t-135.5 376q0 161 73.5 285.5t198 190t279.5 65.5q178 0 306 -85.5t181 -221.5l-268 -101q-30 87 -90 132.5t-140 45.5q-109 0 -178 -79.5t-69 -231.5q0 -151 71 -233t178 -82q89 0 146.5 47.5t91.5 146.5l274 -98q-48 -121 -144.5 -202.5t-229.5 -110.5z" />
    <glyph glyph-name="egrave" unicode="&#xe8;" horiz-adv-x="1167" 
d="M496 1159l-226 316h320l102 -316h-196zM594 -33q-237 0 -378.5 148t-141.5 399q0 239 146.5 390t371.5 151q167 0 286 -82.5t171.5 -220.5t37.5 -310h-722q6 -129 68 -191.5t161 -62.5q90 0 145 48t92 131l261 -101q-19 -44 -43.5 -82t-67 -79.5t-94 -70.5t-128 -48
t-165.5 -19zM375 647h426q-9 96 -63 147.5t-146 51.5q-88 0 -145 -51.5t-72 -147.5z" />
    <glyph glyph-name="eacute" unicode="&#xe9;" horiz-adv-x="1167" 
d="M502 1159l102 316h318l-226 -316h-194zM594 -33q-237 0 -378.5 148t-141.5 399q0 239 146.5 390t371.5 151q167 0 286 -82.5t171.5 -220.5t37.5 -310h-722q6 -129 68 -191.5t161 -62.5q90 0 145 48t92 131l261 -101q-19 -44 -43.5 -82t-67 -79.5t-94 -70.5t-128 -48
t-165.5 -19zM375 647h426q-9 96 -63 147.5t-146 51.5q-88 0 -145 -51.5t-72 -147.5z" />
    <glyph glyph-name="ecircumflex" unicode="&#xea;" horiz-adv-x="1167" 
d="M193 1159l225 264h352l225 -264h-250l-151 146l-152 -146h-249zM594 -33q-237 0 -378.5 148t-141.5 399q0 239 146.5 390t371.5 151q167 0 286 -82.5t171.5 -220.5t37.5 -310h-722q6 -129 68 -191.5t161 -62.5q90 0 145 48t92 131l261 -101q-19 -44 -43.5 -82t-67 -79.5
t-94 -70.5t-128 -48t-165.5 -19zM375 647h426q-9 96 -63 147.5t-146 51.5q-88 0 -145 -51.5t-72 -147.5z" />
    <glyph glyph-name="edieresis" unicode="&#xeb;" horiz-adv-x="1167" 
d="M233 1178v245h271v-245h-271zM684 1178v245h270v-245h-270zM594 -33q-237 0 -378.5 148t-141.5 399q0 239 146.5 390t371.5 151q167 0 286 -82.5t171.5 -220.5t37.5 -310h-722q6 -129 68 -191.5t161 -62.5q90 0 145 48t92 131l261 -101q-19 -44 -43.5 -82t-67 -79.5
t-94 -70.5t-128 -48t-165.5 -19zM375 647h426q-9 96 -63 147.5t-146 51.5q-88 0 -145 -51.5t-72 -147.5z" />
    <glyph glyph-name="igrave" unicode="&#xec;" horiz-adv-x="573" 
d="M186 1159l-225 316h320l102 -316h-197zM141 0v1024h291v-1024h-291z" />
    <glyph glyph-name="iacute" unicode="&#xed;" horiz-adv-x="573" 
d="M193 1159l102 316h317l-225 -316h-194zM141 0v1024h291v-1024h-291z" />
    <glyph glyph-name="icircumflex" unicode="&#xee;" horiz-adv-x="573" 
d="M-117 1159l226 264h352l225 -264h-250l-151 146l-152 -146h-250zM141 0v1024h291v-1024h-291z" />
    <glyph glyph-name="idieresis" unicode="&#xef;" horiz-adv-x="573" 
d="M-76 1178v245h271v-245h-271zM375 1178v245h270v-245h-270zM141 0v1024h291v-1024h-291z" />
    <glyph glyph-name="eth" unicode="&#xf0;" horiz-adv-x="1275" 
d="M999 1231q93 -111 143 -255.5t50 -303.5q0 -146 -38.5 -273.5t-110.5 -224t-184.5 -152t-252.5 -55.5q-237 0 -384.5 139t-147.5 367q0 138 64.5 244.5t167.5 160.5t224 54q135 0 238.5 -63t149.5 -169q0 232 -125 383l-164 -116l-105 141l123 86q-87 43 -194 43
q-157 0 -287 -59v235q132 53 326 53q211 0 376 -114l158 110l104 -139zM616 199q106 0 174 68.5t68 187.5q0 116 -63 186t-179 70q-101 0 -171 -72.5t-70 -183.5q0 -118 69 -187t172 -69z" />
    <glyph glyph-name="ntilde" unicode="&#xf1;" horiz-adv-x="1222" 
d="M797 1139q-85 0 -176 53l-52 31q-65 37 -100 37q-75 0 -78 -101h-209q0 137 74 211t197 74q85 0 176 -53l51 -31q65 -37 100 -37q75 0 78 100h201q0 -150 -68 -217t-194 -67zM141 0v1024h283v-158q15 25 32.5 47t48 49.5t64.5 46.5t82.5 32.5t102.5 13.5q172 0 255 -97.5
t83 -271.5v-686h-291v623q0 192 -164 192q-42 0 -75 -13.5t-54.5 -32.5t-36.5 -50.5t-22.5 -57.5t-11.5 -64t-4.5 -59t-0.5 -53v-485h-291z" />
    <glyph glyph-name="ograve" unicode="&#xf2;" horiz-adv-x="1220" 
d="M512 1159l-225 316h319l103 -316h-197zM610 -33q-234 0 -386 154t-152 391q0 244 150.5 393.5t387.5 149.5t388 -149.5t151 -393.5q0 -247 -150.5 -396t-388.5 -149zM610 199q108 0 172 78t64 231q0 154 -64 235.5t-172 81.5t-171.5 -81.5t-63.5 -235.5q0 -153 63.5 -231
t171.5 -78z" />
    <glyph glyph-name="oacute" unicode="&#xf3;" horiz-adv-x="1220" 
d="M518 1159l103 316h317l-225 -316h-195zM610 -33q-234 0 -386 154t-152 391q0 244 150.5 393.5t387.5 149.5t388 -149.5t151 -393.5q0 -247 -150.5 -396t-388.5 -149zM610 199q108 0 172 78t64 231q0 154 -64 235.5t-172 81.5t-171.5 -81.5t-63.5 -235.5q0 -153 63.5 -231
t171.5 -78z" />
    <glyph glyph-name="ocircumflex" unicode="&#xf4;" horiz-adv-x="1220" 
d="M209 1159l225 264h352l226 -264h-250l-152 146l-151 -146h-250zM610 -33q-234 0 -386 154t-152 391q0 244 150.5 393.5t387.5 149.5t388 -149.5t151 -393.5q0 -247 -150.5 -396t-388.5 -149zM610 199q108 0 172 78t64 231q0 154 -64 235.5t-172 81.5t-171.5 -81.5
t-63.5 -235.5q0 -153 63.5 -231t171.5 -78z" />
    <glyph glyph-name="otilde" unicode="&#xf5;" horiz-adv-x="1220" 
d="M786 1139q-85 0 -176 53l-51 31q-65 37 -100 37q-75 0 -78 -101h-209q0 138 73.5 211.5t196.5 73.5q85 0 176 -53l52 -31q65 -37 100 -37q75 0 78 100h201q0 -150 -68 -217t-195 -67zM610 -33q-234 0 -386 154t-152 391q0 244 150.5 393.5t387.5 149.5t388 -149.5
t151 -393.5q0 -247 -150.5 -396t-388.5 -149zM610 199q108 0 172 78t64 231q0 154 -64 235.5t-172 81.5t-171.5 -81.5t-63.5 -235.5q0 -153 63.5 -231t171.5 -78z" />
    <glyph glyph-name="odieresis" unicode="&#xf6;" horiz-adv-x="1220" 
d="M250 1178v245h270v-245h-270zM700 1178v245h271v-245h-271zM610 -33q-234 0 -386 154t-152 391q0 244 150.5 393.5t387.5 149.5t388 -149.5t151 -393.5q0 -247 -150.5 -396t-388.5 -149zM610 199q108 0 172 78t64 231q0 154 -64 235.5t-172 81.5t-171.5 -81.5
t-63.5 -235.5q0 -153 63.5 -231t171.5 -78z" />
    <glyph glyph-name="divide" unicode="&#xf7;" horiz-adv-x="1253" 
d="M459 983v283h338v-283h-338zM84 600v246h1085v-246h-1085zM459 180v283h338v-283h-338z" />
    <glyph glyph-name="oslash" unicode="&#xf8;" horiz-adv-x="1224" 
d="M612 -33q-157 0 -284 76l-86 -102l-142 112l90 107q-116 144 -116 352q0 244 150.5 393.5t387.5 149.5q162 0 281 -70l90 107l139 -115l-90 -107q119 -144 119 -358q0 -247 -150.5 -396t-388.5 -149zM389 393l141 168q146 173 199 232q-46 32 -117 32
q-108 0 -171.5 -81.5t-63.5 -235.5q0 -62 12 -115zM612 199q108 0 172 78t64 231q0 77 -14 129l-146 -172q-109 -131 -199 -232q48 -34 123 -34z" />
    <glyph glyph-name="ugrave" unicode="&#xf9;" horiz-adv-x="1210" 
d="M502 1159l-226 316h320l102 -316h-196zM444 -33q-146 0 -230.5 99.5t-84.5 267.5v690h291v-623q0 -192 153 -192q106 0 155.5 86t49.5 223v506h291v-1024h-291v164q-117 -197 -334 -197z" />
    <glyph glyph-name="uacute" unicode="&#xfa;" horiz-adv-x="1210" 
d="M508 1159l102 316h318l-226 -316h-194zM444 -33q-146 0 -230.5 99.5t-84.5 267.5v690h291v-623q0 -192 153 -192q106 0 155.5 86t49.5 223v506h291v-1024h-291v164q-117 -197 -334 -197z" />
    <glyph glyph-name="ucircumflex" unicode="&#xfb;" horiz-adv-x="1210" 
d="M199 1159l225 264h352l225 -264h-249l-152 146l-151 -146h-250zM444 -33q-146 0 -230.5 99.5t-84.5 267.5v690h291v-623q0 -192 153 -192q106 0 155.5 86t49.5 223v506h291v-1024h-291v164q-117 -197 -334 -197z" />
    <glyph glyph-name="udieresis" unicode="&#xfc;" horiz-adv-x="1210" 
d="M240 1178v245h270v-245h-270zM690 1178v245h271v-245h-271zM444 -33q-146 0 -230.5 99.5t-84.5 267.5v690h291v-623q0 -192 153 -192q106 0 155.5 86t49.5 223v506h291v-1024h-291v164q-117 -197 -334 -197z" />
    <glyph glyph-name="yacute" unicode="&#xfd;" horiz-adv-x="1146" 
d="M889 1475l-225 -316h-195l102 316h318zM817 1024h305l-428 -1186q-44 -123 -117 -180t-204 -57h-305v231h266q54 0 81.5 26t51.5 93l18 53l-495 1020h311l170 -391q92 -212 127 -285q27 80 100 305z" />
    <glyph glyph-name="thorn" unicode="&#xfe;" horiz-adv-x="1284" 
d="M141 -399v1833h291v-377v-176q42 67 129 121.5t203 54.5q203 0 323.5 -151.5t120.5 -397.5q0 -243 -120.5 -392t-323.5 -149q-117 0 -203 51t-129 117v-174v-360h-291zM662 188q110 0 175.5 77t65.5 247t-65.5 247t-175.5 77q-111 0 -176.5 -83t-65.5 -241t65.5 -241
t176.5 -83z" />
    <glyph glyph-name="ydieresis" unicode="&#xff;" horiz-adv-x="1146" 
d="M471 1423v-245h-270v245h270zM922 1423v-245h-271v245h271zM817 1024h305l-428 -1186q-44 -123 -117 -180t-204 -57h-305v231h266q54 0 81.5 26t51.5 93l18 53l-495 1020h311l170 -391q92 -212 127 -285q27 80 100 305z" />
    <glyph glyph-name="Amacron" unicode="&#x100;" horiz-adv-x="1515" 
d="M1116 1786v-197h-713v197h713zM1159 0l-115 336h-583l-117 -336h-334l547 1434h404l542 -1434h-344zM551 594h405l-106 315l-94 275q-21 -67 -94 -277z" />
    <glyph glyph-name="amacron" unicode="&#x101;" horiz-adv-x="1175" 
d="M236 1186v196h647v-196h-647zM406 -33q-140 0 -232 81t-92 214q0 83 35 148.5t92.5 108t143.5 73.5t173.5 47t198.5 27v39q0 141 -168 141q-183 0 -225 -162l-262 57q13 129 142.5 221.5t342.5 92.5q220 0 338.5 -99.5t118.5 -298.5v-374q0 -39 10.5 -50.5t50.5 -11.5h90
v-221h-223q-84 0 -130 39.5t-54 110.5q-48 -76 -137.5 -129.5t-212.5 -53.5zM510 180q92 0 153.5 61t61.5 179v65q-81 -10 -135.5 -21.5t-107 -33t-79 -56t-26.5 -83.5q0 -52 34 -81.5t99 -29.5z" />
    <glyph glyph-name="Abreve" unicode="&#x102;" horiz-adv-x="1515" 
d="M760 1538q-102 0 -178.5 24.5t-120 67t-65 93.5t-23.5 110h219q6 -44 49 -82.5t119 -38.5q77 0 119.5 39t46.5 82h223q-2 -59 -24.5 -110t-66.5 -93.5t-120.5 -67t-177.5 -24.5zM1159 0l-115 336h-583l-117 -336h-334l547 1434h404l542 -1434h-344zM551 594h405l-106 315
l-94 275q-21 -67 -94 -277z" />
    <glyph glyph-name="abreve" unicode="&#x103;" horiz-adv-x="1175" 
d="M557 1128q-92 0 -161.5 24.5t-109.5 67t-59.5 93.5t-21.5 110h201q4 -43 43 -81.5t108 -38.5t108.5 38.5t43.5 81.5h202q-2 -59 -22.5 -110t-60.5 -93.5t-109.5 -67t-161.5 -24.5zM406 -33q-140 0 -232 81t-92 214q0 83 35 148.5t92.5 108t143.5 73.5t173.5 47t198.5 27
v39q0 141 -168 141q-183 0 -225 -162l-262 57q13 129 142.5 221.5t342.5 92.5q220 0 338.5 -99.5t118.5 -298.5v-374q0 -39 10.5 -50.5t50.5 -11.5h90v-221h-223q-84 0 -130 39.5t-54 110.5q-48 -76 -137.5 -129.5t-212.5 -53.5zM510 180q92 0 153.5 61t61.5 179v65
q-81 -10 -135.5 -21.5t-107 -33t-79 -56t-26.5 -83.5q0 -52 34 -81.5t99 -29.5z" />
    <glyph glyph-name="Aogonek" unicode="&#x104;" horiz-adv-x="1515" 
d="M1255 -164q0 -69 117 -69q53 0 131 20v-186q-92 -31 -172 -31q-130 0 -205 53.5t-75 151.5q0 132 190 225h-82l-115 336h-583l-117 -336h-334l547 1434h404l542 -1434q-139 -36 -193.5 -79t-54.5 -85zM551 594h405l-106 315l-94 275q-21 -67 -94 -277z" />
    <glyph glyph-name="aogonek" unicode="&#x105;" horiz-adv-x="1175" 
d="M1163 0q-139 -36 -193.5 -79t-54.5 -85q0 -69 117 -69q53 0 131 20v-186q-92 -31 -172 -31q-130 0 -205 53.5t-75 151.5q0 134 194 227q-68 7 -105.5 46t-43.5 102q-48 -76 -137.5 -129.5t-212.5 -53.5q-140 0 -232 81t-92 214q0 83 35 148.5t92.5 108t143.5 73.5
t173.5 47t198.5 27v39q0 141 -168 141q-183 0 -225 -162l-262 57q13 129 142.5 221.5t342.5 92.5q220 0 338.5 -99.5t118.5 -298.5v-374q0 -39 10.5 -50.5t50.5 -11.5h90v-221zM725 420v65q-81 -10 -135.5 -21.5t-107 -33t-79 -56t-26.5 -83.5q0 -52 34 -81.5t99 -29.5
q92 0 153.5 61t61.5 179z" />
    <glyph glyph-name="Cacute" unicode="&#x106;" horiz-adv-x="1546" 
d="M741 1569l113 315h348l-248 -315h-213zM825 -33q-221 0 -390 97t-260 267.5t-91 387.5q0 157 55 294.5t151.5 237.5t236 157.5t302.5 57.5q251 0 427 -122.5t235 -319.5l-281 -109q-103 293 -385 293q-195 0 -305 -128.5t-110 -360.5q0 -233 109 -362.5t306 -129.5
q147 0 246.5 79.5t147.5 215.5l274 -110q-80 -213 -247.5 -329t-420.5 -116z" />
    <glyph glyph-name="cacute" unicode="&#x107;" horiz-adv-x="1167" 
d="M524 1159l103 316h317l-225 -316h-195zM621 -33q-157 0 -281.5 67t-196 192.5t-71.5 287.5q0 161 73.5 285.5t198 190t279.5 65.5q178 0 306 -85.5t181 -221.5l-268 -101q-30 87 -90 132.5t-140 45.5q-109 0 -178 -79.5t-69 -231.5q0 -151 71 -233t178 -82
q89 0 146.5 47.5t91.5 146.5l274 -98q-60 -150 -193 -239t-312 -89z" />
    <glyph glyph-name="Ccircumflex" unicode="&#x108;" horiz-adv-x="1546" 
d="M403 1569l248 264h387l248 -264h-274l-166 145l-168 -145h-275zM825 -33q-221 0 -390 97t-260 267.5t-91 387.5q0 157 55 294.5t151.5 237.5t236 157.5t302.5 57.5q251 0 427 -122.5t235 -319.5l-281 -109q-103 293 -385 293q-195 0 -305 -128.5t-110 -360.5
q0 -233 109 -362.5t306 -129.5q147 0 246.5 79.5t147.5 215.5l274 -110q-80 -213 -247.5 -329t-420.5 -116z" />
    <glyph glyph-name="ccircumflex" unicode="&#x109;" horiz-adv-x="1167" 
d="M215 1159l225 264h353l225 -264h-250l-152 146l-151 -146h-250zM621 -33q-157 0 -281.5 67t-196 192.5t-71.5 287.5q0 161 73.5 285.5t198 190t279.5 65.5q178 0 306 -85.5t181 -221.5l-268 -101q-30 87 -90 132.5t-140 45.5q-109 0 -178 -79.5t-69 -231.5
q0 -151 71 -233t178 -82q89 0 146.5 47.5t91.5 146.5l274 -98q-60 -150 -193 -239t-312 -89z" />
    <glyph glyph-name="Cdotaccent" unicode="&#x10a;" horiz-adv-x="1546" 
d="M692 1569v274h309v-274h-309zM825 -33q-221 0 -390 97t-260 267.5t-91 387.5q0 157 55 294.5t151.5 237.5t236 157.5t302.5 57.5q251 0 427 -122.5t235 -319.5l-281 -109q-103 293 -385 293q-195 0 -305 -128.5t-110 -360.5q0 -233 109 -362.5t306 -129.5
q147 0 246.5 79.5t147.5 215.5l274 -110q-80 -213 -247.5 -329t-420.5 -116z" />
    <glyph glyph-name="cdotaccent" unicode="&#x10b;" horiz-adv-x="1167" 
d="M461 1159v275h309v-275h-309zM621 -33q-157 0 -281.5 67t-196 192.5t-71.5 287.5q0 161 73.5 285.5t198 190t279.5 65.5q178 0 306 -85.5t181 -221.5l-268 -101q-30 87 -90 132.5t-140 45.5q-109 0 -178 -79.5t-69 -231.5q0 -151 71 -233t178 -82q89 0 146.5 47.5
t91.5 146.5l274 -98q-60 -150 -193 -239t-312 -89z" />
    <glyph glyph-name="Ccaron" unicode="&#x10c;" horiz-adv-x="1546" 
d="M1286 1802l-248 -264h-387l-248 264h275l168 -145l166 145h274zM825 -33q-221 0 -390 97t-260 267.5t-91 387.5q0 157 55 294.5t151.5 237.5t236 157.5t302.5 57.5q251 0 427 -122.5t235 -319.5l-281 -109q-103 293 -385 293q-195 0 -305 -128.5t-110 -360.5
q0 -233 109 -362.5t306 -129.5q147 0 246.5 79.5t147.5 215.5l274 -110q-80 -213 -247.5 -329t-420.5 -116z" />
    <glyph glyph-name="ccaron" unicode="&#x10d;" horiz-adv-x="1167" 
d="M440 1159l-225 264h250l151 -145l152 145h250l-225 -264h-353zM621 -33q-157 0 -281.5 67t-196 192.5t-71.5 287.5q0 161 73.5 285.5t198 190t279.5 65.5q178 0 306 -85.5t181 -221.5l-268 -101q-30 87 -90 132.5t-140 45.5q-109 0 -178 -79.5t-69 -231.5q0 -151 71 -233
t178 -82q89 0 146.5 47.5t91.5 146.5l274 -98q-60 -150 -193 -239t-312 -89z" />
    <glyph glyph-name="Dcaron" unicode="&#x10e;" horiz-adv-x="1556" 
d="M1102 1802l-248 -264h-387l-248 264h275l168 -145l165 145h275zM172 0v1434h541q154 0 291 -48t241 -136.5t164.5 -223.5t60.5 -299q0 -168 -60.5 -307t-164.5 -230t-241 -140.5t-291 -49.5h-541zM483 258h215q451 0 451 463q0 210 -111.5 332.5t-326.5 122.5h-228v-918z
" />
    <glyph glyph-name="dcaron" unicode="&#x10f;" horiz-adv-x="1468" 
d="M520 -33q-203 0 -323.5 150t-120.5 395t120.5 394t323.5 149q117 0 203 -51t129 -117v176v371h291v-1434h-283v137q-44 -65 -132.5 -117.5t-207.5 -52.5zM1282 872l168 287h-162v275h287v-275l-170 -287h-123zM623 188q111 0 176 83t65 241t-65 241t-176 83
q-110 0 -176 -77t-66 -247t66 -247t176 -77z" />
    <glyph glyph-name="Dcroat" unicode="&#x110;" horiz-adv-x="1583" 
d="M739 1434q154 0 291.5 -48t241.5 -136.5t164.5 -223.5t60.5 -299q0 -168 -60.5 -307t-164.5 -230t-241.5 -140.5t-291.5 -49.5h-540v637h-158v213h158v584h540zM725 258q451 0 451 463q0 210 -112 332.5t-327 122.5h-227v-326h260v-213h-260v-379h215z" />
    <glyph glyph-name="dcroat" unicode="&#x111;" horiz-adv-x="1284" 
d="M1319 1280v-172h-176v-1108h-283v137q-44 -65 -132.5 -117.5t-207.5 -52.5q-203 0 -323.5 150t-120.5 395t120.5 394t323.5 149q117 0 203 -51t129 -117v176v45h-305v172h305v154h291v-154h176zM623 188q111 0 176 83t65 241t-65 241t-176 83q-110 0 -176 -77t-66 -247
t66 -247t176 -77z" />
    <glyph glyph-name="Emacron" unicode="&#x112;" horiz-adv-x="1351" 
d="M358 1589v197h713v-197h-713zM172 0v1434h1083v-258h-772v-312h584v-254h-584v-352h772v-258h-1083z" />
    <glyph glyph-name="emacron" unicode="&#x113;" horiz-adv-x="1167" 
d="M270 1186v196h648v-196h-648zM594 -33q-237 0 -378.5 148t-141.5 399q0 239 146.5 390t371.5 151q167 0 286 -82.5t171.5 -220.5t37.5 -310h-722q6 -129 68 -191.5t161 -62.5q90 0 145 48t92 131l261 -101q-19 -44 -43.5 -82t-67 -79.5t-94 -70.5t-128 -48t-165.5 -19z
M375 647h426q-9 96 -63 147.5t-146 51.5q-88 0 -145 -51.5t-72 -147.5z" />
    <glyph glyph-name="Ebreve" unicode="&#x114;" horiz-adv-x="1351" 
d="M715 1538q-102 0 -178.5 24.5t-120 67t-65 93.5t-23.5 110h219q6 -44 49 -82.5t119 -38.5q77 0 119.5 39t46.5 82h223q-2 -59 -24.5 -110t-66.5 -93.5t-120.5 -67t-177.5 -24.5zM172 0v1434h1083v-258h-772v-312h584v-254h-584v-352h772v-258h-1083z" />
    <glyph glyph-name="ebreve" unicode="&#x115;" horiz-adv-x="1167" 
d="M592 1128q-92 0 -161.5 24.5t-109.5 67t-59.5 93.5t-21.5 110h200q4 -43 43.5 -81.5t108.5 -38.5t108 38.5t43 81.5h203q-2 -59 -22.5 -110t-60.5 -93.5t-109.5 -67t-161.5 -24.5zM594 -33q-237 0 -378.5 148t-141.5 399q0 239 146.5 390t371.5 151q167 0 286 -82.5
t171.5 -220.5t37.5 -310h-722q6 -129 68 -191.5t161 -62.5q90 0 145 48t92 131l261 -101q-19 -44 -43.5 -82t-67 -79.5t-94 -70.5t-128 -48t-165.5 -19zM375 647h426q-9 96 -63 147.5t-146 51.5q-88 0 -145 -51.5t-72 -147.5z" />
    <glyph glyph-name="Edotaccent" unicode="&#x116;" horiz-adv-x="1351" 
d="M559 1569v274h309v-274h-309zM172 0v1434h1083v-258h-772v-312h584v-254h-584v-352h772v-258h-1083z" />
    <glyph glyph-name="edotaccent" unicode="&#x117;" horiz-adv-x="1167" 
d="M438 1159v275h310v-275h-310zM594 -33q-237 0 -378.5 148t-141.5 399q0 239 146.5 390t371.5 151q167 0 286 -82.5t171.5 -220.5t37.5 -310h-722q6 -129 68 -191.5t161 -62.5q90 0 145 48t92 131l261 -101q-19 -44 -43.5 -82t-67 -79.5t-94 -70.5t-128 -48t-165.5 -19z
M375 647h426q-9 96 -63 147.5t-146 51.5q-88 0 -145 -51.5t-72 -147.5z" />
    <glyph glyph-name="Eogonek" unicode="&#x118;" horiz-adv-x="1351" 
d="M1255 1176h-772v-312h584v-254h-584v-352h772v-258q-247 -64 -247 -164q0 -69 116 -69q53 0 131 20v-186q-92 -31 -172 -31q-130 0 -205 53.5t-75 151.5q0 132 190 225h-821v1434h1083v-258z" />
    <glyph glyph-name="eogonek" unicode="&#x119;" horiz-adv-x="1167" 
d="M74 514q0 239 146.5 390t371.5 151q167 0 286 -82.5t171.5 -220.5t37.5 -310h-722q6 -129 68 -191.5t161 -62.5q90 0 145 48t92 131l261 -101q-45 -108 -128.5 -177t-187.5 -99q-123 -34 -169 -70.5t-46 -79.5q0 -73 117 -73q53 0 131 20v-186q-92 -31 -172 -31
q-132 0 -206.5 53.5t-74.5 151.5q0 123 142 198q-208 34 -316 179t-108 362zM375 647h426q-9 96 -63 147.5t-146 51.5q-88 0 -145 -51.5t-72 -147.5z" />
    <glyph glyph-name="Ecaron" unicode="&#x11a;" horiz-adv-x="1351" 
d="M1153 1802l-248 -264h-387l-248 264h275l168 -145l166 145h274zM172 0v1434h1083v-258h-772v-312h584v-254h-584v-352h772v-258h-1083z" />
    <glyph glyph-name="ecaron" unicode="&#x11b;" horiz-adv-x="1167" 
d="M418 1159l-225 264h249l152 -145l151 145h250l-225 -264h-352zM594 -33q-237 0 -378.5 148t-141.5 399q0 239 146.5 390t371.5 151q167 0 286 -82.5t171.5 -220.5t37.5 -310h-722q6 -129 68 -191.5t161 -62.5q90 0 145 48t92 131l261 -101q-19 -44 -43.5 -82t-67 -79.5
t-94 -70.5t-128 -48t-165.5 -19zM375 647h426q-9 96 -63 147.5t-146 51.5q-88 0 -145 -51.5t-72 -147.5z" />
    <glyph glyph-name="Gcircumflex" unicode="&#x11c;" horiz-adv-x="1630" 
d="M401 1569l248 264h387l248 -264h-274l-166 145l-168 -145h-275zM764 -33q-107 0 -207 31t-185.5 93.5t-149 150t-100 208.5t-36.5 261q0 157 58 297t158.5 240.5t242 159t301.5 58.5q141 0 258 -35t198.5 -97t135.5 -138.5t84 -167.5l-293 -108q-100 288 -383 288
q-194 0 -315 -133t-121 -364q0 -225 123 -356.5t305 -131.5q87 0 157.5 23t113 61.5t67.5 82t32 89.5h-463v258h768v-737h-280v203q-151 -236 -469 -236z" />
    <glyph glyph-name="gcircumflex" unicode="&#x11d;" horiz-adv-x="1259" 
d="M184 1159l226 264h352l225 -264h-250l-151 146l-152 -146h-250zM360 -399q-307 0 -307 211q0 62 35.5 115.5t85.5 86.5q-96 67 -96 189q0 71 46 128t116 95q-51 41 -81 107t-30 139q0 171 124.5 277t319.5 106q135 0 241.5 -56.5t158.5 -150.5q5 102 42.5 139t139.5 37
h78v-221h-113q-48 0 -65.5 -21.5t-26.5 -97.5l-2 -18q-19 -164 -139.5 -260.5t-302.5 -96.5q-134 0 -213 35q-78 -22 -78 -72q0 -29 24.5 -37t77.5 -8h441q160 0 258 -90t98 -219q0 -150 -99.5 -233.5t-256.5 -83.5h-476zM582 500q81 0 130.5 48t49.5 126q0 80 -49.5 132
t-130.5 52t-131 -52t-50 -132q0 -78 49.5 -126t131.5 -48zM379 -188h399q127 0 127 96q0 40 -30 66t-97 26h-448q-21 -12 -37.5 -37.5t-16.5 -54.5q0 -47 29.5 -71.5t73.5 -24.5z" />
    <glyph glyph-name="Gbreve" unicode="&#x11e;" horiz-adv-x="1630" 
d="M846 1538q-102 0 -178.5 24.5t-120 67t-65 93.5t-23.5 110h219q6 -44 49 -82.5t119 -38.5q77 0 119.5 39t46.5 82h223q-2 -59 -24.5 -110t-66.5 -93.5t-120.5 -67t-177.5 -24.5zM764 -33q-107 0 -207 31t-185.5 93.5t-149 150t-100 208.5t-36.5 261q0 157 58 297
t158.5 240.5t242 159t301.5 58.5q141 0 258 -35t198.5 -97t135.5 -138.5t84 -167.5l-293 -108q-100 288 -383 288q-194 0 -315 -133t-121 -364q0 -225 123 -356.5t305 -131.5q87 0 157.5 23t113 61.5t67.5 82t32 89.5h-463v258h768v-737h-280v203q-151 -236 -469 -236z" />
    <glyph glyph-name="gbreve" unicode="&#x11f;" horiz-adv-x="1259" 
d="M584 1128q-92 0 -162 24.5t-110 67t-59.5 93.5t-21.5 110h201q4 -43 43.5 -81.5t108.5 -38.5t108 38.5t43 81.5h203q-2 -59 -22.5 -110t-60.5 -93.5t-109.5 -67t-161.5 -24.5zM360 -399q-307 0 -307 211q0 62 35.5 115.5t85.5 86.5q-96 67 -96 189q0 71 46 128t116 95
q-51 41 -81 107t-30 139q0 171 124.5 277t319.5 106q135 0 241.5 -56.5t158.5 -150.5q5 102 42.5 139t139.5 37h78v-221h-113q-48 0 -65.5 -21.5t-26.5 -97.5l-2 -18q-19 -164 -139.5 -260.5t-302.5 -96.5q-134 0 -213 35q-78 -22 -78 -72q0 -29 24.5 -37t77.5 -8h441
q160 0 258 -90t98 -219q0 -150 -99.5 -233.5t-256.5 -83.5h-476zM582 500q81 0 130.5 48t49.5 126q0 80 -49.5 132t-130.5 52t-131 -52t-50 -132q0 -78 49.5 -126t131.5 -48zM379 -188h399q127 0 127 96q0 40 -30 66t-97 26h-448q-21 -12 -37.5 -37.5t-16.5 -54.5
q0 -47 29.5 -71.5t73.5 -24.5z" />
    <glyph glyph-name="Gdotaccent" unicode="&#x120;" horiz-adv-x="1630" 
d="M690 1569v274h309v-274h-309zM764 -33q-107 0 -207 31t-185.5 93.5t-149 150t-100 208.5t-36.5 261q0 157 58 297t158.5 240.5t242 159t301.5 58.5q141 0 258 -35t198.5 -97t135.5 -138.5t84 -167.5l-293 -108q-100 288 -383 288q-194 0 -315 -133t-121 -364
q0 -225 123 -356.5t305 -131.5q87 0 157.5 23t113 61.5t67.5 82t32 89.5h-463v258h768v-737h-280v203q-151 -236 -469 -236z" />
    <glyph glyph-name="gdotaccent" unicode="&#x121;" horiz-adv-x="1259" 
d="M430 1159v275h309v-275h-309zM360 -399q-307 0 -307 211q0 62 35.5 115.5t85.5 86.5q-96 67 -96 189q0 71 46 128t116 95q-51 41 -81 107t-30 139q0 171 124.5 277t319.5 106q135 0 241.5 -56.5t158.5 -150.5q5 102 42.5 139t139.5 37h78v-221h-113q-48 0 -65.5 -21.5
t-26.5 -97.5l-2 -18q-19 -164 -139.5 -260.5t-302.5 -96.5q-134 0 -213 35q-78 -22 -78 -72q0 -29 24.5 -37t77.5 -8h441q160 0 258 -90t98 -219q0 -150 -99.5 -233.5t-256.5 -83.5h-476zM582 500q81 0 130.5 48t49.5 126q0 80 -49.5 132t-130.5 52t-131 -52t-50 -132
q0 -78 49.5 -126t131.5 -48zM379 -188h399q127 0 127 96q0 40 -30 66t-97 26h-448q-21 -12 -37.5 -37.5t-16.5 -54.5q0 -47 29.5 -71.5t73.5 -24.5z" />
    <glyph glyph-name="uni0122" unicode="&#x122;" horiz-adv-x="1630" 
d="M764 -33q-107 0 -207 31t-185.5 93.5t-149 150t-100 208.5t-36.5 261q0 157 58 297t158.5 240.5t242 159t301.5 58.5q141 0 258 -35t198.5 -97t135.5 -138.5t84 -167.5l-293 -108q-100 288 -383 288q-194 0 -315 -133t-121 -364q0 -225 123 -356.5t305 -131.5
q87 0 157.5 23t113 61.5t67.5 82t32 89.5h-463v258h768v-737h-280v203q-151 -236 -469 -236zM698 -686l168 287h-161v274h286v-274l-170 -287h-123z" />
    <glyph glyph-name="uni0123" unicode="&#x123;" horiz-adv-x="1259" 
d="M729 1720l-168 -286h162v-275h-287v275l170 286h123zM360 -399q-307 0 -307 211q0 62 35.5 115.5t85.5 86.5q-96 67 -96 189q0 71 46 128t116 95q-51 41 -81 107t-30 139q0 171 124.5 277t319.5 106q135 0 241.5 -56.5t158.5 -150.5q5 102 42.5 139t139.5 37h78v-221
h-113q-48 0 -65.5 -21.5t-26.5 -97.5l-2 -18q-19 -164 -139.5 -260.5t-302.5 -96.5q-134 0 -213 35q-78 -22 -78 -72q0 -29 24.5 -37t77.5 -8h441q160 0 258 -90t98 -219q0 -150 -99.5 -233.5t-256.5 -83.5h-476zM582 500q81 0 130.5 48t49.5 126q0 80 -49.5 132t-130.5 52
t-131 -52t-50 -132q0 -78 49.5 -126t131.5 -48zM379 -188h399q127 0 127 96q0 40 -30 66t-97 26h-448q-21 -12 -37.5 -37.5t-16.5 -54.5q0 -47 29.5 -71.5t73.5 -24.5z" />
    <glyph glyph-name="Hcircumflex" unicode="&#x124;" horiz-adv-x="1581" 
d="M352 1569l248 264h387l248 -264h-274l-166 145l-168 -145h-275zM172 0v1434h311v-568h615v568h311v-1434h-311v608h-615v-608h-311z" />
    <glyph glyph-name="hcircumflex" unicode="&#x125;" horiz-adv-x="1222" 
d="M231 1569l226 264h352l225 -264h-250l-151 145l-152 -145h-250zM141 0v1434h291v-371v-197q116 189 334 189q164 0 245 -98t81 -271v-686h-291v623q0 192 -164 192q-42 0 -75 -13.5t-54.5 -32.5t-36.5 -50.5t-22.5 -57.5t-11.5 -64t-4.5 -59t-0.5 -53v-485h-291z" />
    <glyph glyph-name="Hbar" unicode="&#x126;" horiz-adv-x="1654" 
d="M1610 1249v-205h-168v-1044h-312v608h-614v-608h-311v1044h-158v205h158v185h311v-185h614v185h312v-185h168zM1130 866v178h-614v-178h614z" />
    <glyph glyph-name="hbar" unicode="&#x127;" horiz-adv-x="1222" 
d="M766 1055q164 0 245 -98t81 -271v-686h-291v623q0 192 -164 192q-42 0 -75 -13.5t-54.5 -32.5t-36.5 -50.5t-22.5 -57.5t-11.5 -64t-4.5 -59t-0.5 -53v-485h-291v1108h-151v172h151v154h291v-154h330v-172h-330v-45v-197q116 189 334 189z" />
    <glyph glyph-name="Itilde" unicode="&#x128;" horiz-adv-x="655" 
d="M522 1548q-42 0 -81 9.5t-60.5 18.5t-52.5 26l-58 30q-68 37 -108 37q-83 0 -86 -100h-232q0 137 81.5 210.5t217.5 73.5q93 0 193 -53l57 -31q70 -36 111 -36q80 0 86 100h219q0 -285 -287 -285zM172 0v1434h311v-1434h-311z" />
    <glyph glyph-name="itilde" unicode="&#x129;" horiz-adv-x="573" 
d="M461 1139q-85 0 -176 53l-52 31q-65 37 -100 37q-75 0 -78 -101h-209q0 137 74 211t197 74q85 0 176 -53l51 -31q65 -37 100 -37q75 0 78 100h201q0 -150 -68 -217t-194 -67zM141 0v1024h291v-1024h-291z" />
    <glyph glyph-name="Imacron" unicode="&#x12a;" horiz-adv-x="655" 
d="M-27 1589v197h713v-197h-713zM172 0v1434h311v-1434h-311z" />
    <glyph glyph-name="imacron" unicode="&#x12b;" horiz-adv-x="573" 
d="M-39 1186v196h647v-196h-647zM141 0v1024h291v-1024h-291z" />
    <glyph glyph-name="Ibreve" unicode="&#x12c;" horiz-adv-x="655" 
d="M330 1538q-102 0 -178.5 24.5t-120 67t-65 93.5t-23.5 110h219q6 -44 49 -82.5t119 -38.5q77 0 119.5 39t46.5 82h223q-2 -59 -24.5 -110t-66.5 -93.5t-120.5 -67t-177.5 -24.5zM172 0v1434h311v-1434h-311z" />
    <glyph glyph-name="ibreve" unicode="&#x12d;" horiz-adv-x="573" 
d="M283 1128q-92 0 -162 24.5t-110 67t-59.5 93.5t-21.5 110h201q4 -43 43.5 -81.5t108.5 -38.5t108 38.5t43 81.5h203q-2 -59 -22.5 -110t-60.5 -93.5t-109.5 -67t-161.5 -24.5zM141 0v1024h291v-1024h-291z" />
    <glyph glyph-name="Iogonek" unicode="&#x12e;" horiz-adv-x="657" 
d="M485 0q-247 -64 -247 -164q0 -69 116 -69q53 0 131 20v-186q-92 -31 -172 -31q-130 0 -205 53.5t-75 151.5q0 132 190 225h-49v1434h311v-1434z" />
    <glyph glyph-name="iogonek" unicode="&#x12f;" horiz-adv-x="577" 
d="M133 1434h309v-275h-309v275zM145 0v1024h291v-1024q-139 -36 -193.5 -79t-54.5 -85q0 -69 117 -69q53 0 131 20v-186q-92 -31 -172 -31q-130 0 -205 53.5t-75 151.5q0 132 190 225h-29z" />
    <glyph glyph-name="Idotaccent" unicode="&#x130;" horiz-adv-x="655" 
d="M174 1569v274h309v-274h-309zM172 0v1434h311v-1434h-311z" />
    <glyph glyph-name="dotlessi" unicode="&#x131;" horiz-adv-x="573" 
d="M141 0v1024h291v-1024h-291z" />
    <glyph glyph-name="IJ" unicode="&#x132;" horiz-adv-x="1812" 
d="M172 0v1434h311v-1434h-311zM1188 -33q-235 0 -369.5 138t-140.5 378l315 80q-1 -81 7 -139t27.5 -105t57 -70.5t93.5 -23.5q92 0 127.5 66.5t35.5 204.5v938h312v-899q0 -290 -115 -429t-350 -139z" />
    <glyph glyph-name="ij" unicode="&#x133;" horiz-adv-x="1153" 
d="M129 1163v275h309v-275h-309zM715 1165v269h303v-269h-303zM139 0v1024h291v-1024h-291zM492 -399v231h143q49 0 69.5 21.5t20.5 68.5v1102h287v-1155q0 -123 -67 -195.5t-191 -72.5h-262z" />
    <glyph glyph-name="Jcircumflex" unicode="&#x134;" horiz-adv-x="1157" 
d="M391 1569l248 264h387l248 -264h-275l-165 145l-168 -145h-275zM532 -33q-234 0 -368.5 138t-140.5 378l315 80q-1 -81 6.5 -139t27.5 -105t57 -70.5t93 -23.5q92 0 128 67t36 204v938h311v-899q0 -290 -115 -429t-350 -139z" />
    <glyph glyph-name="jcircumflex" unicode="&#x135;" horiz-adv-x="589" 
d="M-100 1159l225 264h352l225 -264h-249l-152 146l-151 -146h-250zM-82 -399v231h148q49 0 70.5 22t21.5 68v1102h291v-1155q0 -122 -69 -195t-194 -73h-268z" />
    <glyph glyph-name="uni0136" unicode="&#x136;" horiz-adv-x="1470" 
d="M870 860l625 -860h-391l-447 639l-174 -180v-459h-311v1434h311v-232v-364l525 596h417zM653 -399v274h287v-274l-170 -287h-123l168 287h-162z" />
    <glyph glyph-name="uni0137" unicode="&#x137;" horiz-adv-x="1241" 
d="M782 618l486 -618h-367l-319 424l-150 -143v-281h-291v1434h291v-457v-367l412 414h356zM526 -399v274h287v-274l-170 -287h-123l168 287h-162z" />
    <glyph glyph-name="Lacute" unicode="&#x139;" horiz-adv-x="1275" 
d="M217 1569l113 315h348l-248 -315h-213zM172 0v1434h311v-1170h772v-264h-1083z" />
    <glyph glyph-name="lacute" unicode="&#x13a;" horiz-adv-x="573" 
d="M195 1569l102 315h317l-225 -315h-194zM141 0v1434h291v-1434h-291z" />
    <glyph glyph-name="uni013B" unicode="&#x13b;" horiz-adv-x="1275" 
d="M172 0v1434h311v-1170h772v-264h-1083zM561 -686l168 287h-162v274h287v-274l-170 -287h-123z" />
    <glyph glyph-name="uni013C" unicode="&#x13c;" horiz-adv-x="573" 
d="M141 0v1434h291v-1434h-291zM135 -686l168 287h-162v274h287v-274l-170 -287h-123z" />
    <glyph glyph-name="Lcaron" unicode="&#x13d;" horiz-adv-x="1277" 
d="M172 0v1434h311v-1170h772v-264h-1083zM680 815l184 318h-178v301h315v-301l-186 -318h-135z" />
    <glyph glyph-name="lcaron" unicode="&#x13e;" horiz-adv-x="757" 
d="M141 0v1434h291v-1434h-291zM571 872l168 287h-161v275h286v-275l-170 -287h-123z" />
    <glyph glyph-name="Ldot" unicode="&#x13f;" horiz-adv-x="1282" 
d="M172 0v1434h311v-1170h772v-264h-1083zM756 627v323h338v-323h-338z" />
    <glyph glyph-name="ldot" unicode="&#x140;" horiz-adv-x="956" 
d="M141 0v1434h291v-1434h-291zM596 582v323h338v-323h-338z" />
    <glyph glyph-name="Lslash" unicode="&#x141;" horiz-adv-x="1380" 
d="M588 264h772v-264h-1084v506l-202 -103v244l202 103v684h312v-529l407 205v-242l-407 -204v-400z" />
    <glyph glyph-name="lslash" unicode="&#x142;" horiz-adv-x="772" 
d="M731 1077v-233l-190 -113v-731h-291v559l-182 -106v233l182 107v641h291v-469z" />
    <glyph glyph-name="Nacute" unicode="&#x143;" horiz-adv-x="1730" 
d="M760 1569l112 315h349l-248 -315h-213zM172 0v1434h432l643 -908v363v545h312v-1434h-287l-789 1112v-436v-676h-311z" />
    <glyph glyph-name="nacute" unicode="&#x144;" horiz-adv-x="1222" 
d="M528 1159l103 316h317l-225 -316h-195zM141 0v1024h283v-158q15 25 32.5 47t48 49.5t64.5 46.5t82.5 32.5t102.5 13.5q172 0 255 -97.5t83 -271.5v-686h-291v623q0 192 -164 192q-42 0 -75 -13.5t-54.5 -32.5t-36.5 -50.5t-22.5 -57.5t-11.5 -64t-4.5 -59t-0.5 -53v-485
h-291z" />
    <glyph glyph-name="uni0145" unicode="&#x145;" horiz-adv-x="1730" 
d="M172 0v1434h432l643 -908v363v545h312v-1434h-287l-789 1112v-436v-676h-311zM719 -686l168 287h-162v274h287v-274l-170 -287h-123z" />
    <glyph glyph-name="uni0146" unicode="&#x146;" horiz-adv-x="1222" 
d="M141 0v1024h283v-158q15 25 32.5 47t48 49.5t64.5 46.5t82.5 32.5t102.5 13.5q172 0 255 -97.5t83 -271.5v-686h-291v623q0 192 -164 192q-42 0 -75 -13.5t-54.5 -32.5t-36.5 -50.5t-22.5 -57.5t-11.5 -64t-4.5 -59t-0.5 -53v-485h-291zM469 -686l168 287h-162v274h287
v-274l-170 -287h-123z" />
    <glyph glyph-name="Ncaron" unicode="&#x147;" horiz-adv-x="1730" 
d="M1305 1802l-248 -264h-387l-248 264h274l168 -145l166 145h275zM172 0v1434h432l643 -908v363v545h312v-1434h-287l-789 1112v-436v-676h-311z" />
    <glyph glyph-name="ncaron" unicode="&#x148;" horiz-adv-x="1222" 
d="M444 1159l-225 264h250l152 -145l151 145h250l-225 -264h-353zM141 0v1024h283v-158q15 25 32.5 47t48 49.5t64.5 46.5t82.5 32.5t102.5 13.5q172 0 255 -97.5t83 -271.5v-686h-291v623q0 192 -164 192q-42 0 -75 -13.5t-54.5 -32.5t-36.5 -50.5t-22.5 -57.5t-11.5 -64
t-4.5 -59t-0.5 -53v-485h-291z" />
    <glyph glyph-name="Eng" unicode="&#x14a;" horiz-adv-x="1730" 
d="M999 -399v254h115q59 0 96 33t37 104v43l-764 1077v-88v-348v-676h-311v1434h432l643 -908v80v283v545h312v-1459q0 -170 -101.5 -272t-273.5 -102h-185z" />
    <glyph glyph-name="eng" unicode="&#x14b;" horiz-adv-x="1222" 
d="M561 -399v235h148q49 0 70.5 22.5t21.5 69.5v695q0 192 -164 192q-42 0 -75 -13.5t-54.5 -32.5t-36.5 -50.5t-22.5 -57.5t-11.5 -64t-4.5 -59t-0.5 -53v-485h-291v1024h283v-158q15 25 32.5 47t48 49.5t64.5 46.5t82.5 32.5t102.5 13.5q172 0 255 -97.5t83 -271.5v-811
q0 -125 -69 -199.5t-194 -74.5h-268z" />
    <glyph glyph-name="Omacron" unicode="&#x14c;" horiz-adv-x="1703" 
d="M496 1589v197h712v-197h-712zM852 -33q-178 0 -323 56t-241.5 155.5t-149 236.5t-52.5 298q0 160 53 298t150.5 239t242.5 158.5t320 57.5t320 -57.5t242.5 -158.5t150.5 -239t53 -298q0 -161 -52.5 -298t-149 -236.5t-241.5 -155.5t-323 -56zM854 225q204 0 321 137
t117 353q0 219 -116.5 356t-321.5 137q-206 0 -324 -137t-118 -356q0 -216 118 -353t324 -137z" />
    <glyph glyph-name="omacron" unicode="&#x14d;" horiz-adv-x="1220" 
d="M287 1186v196h647v-196h-647zM610 -33q-234 0 -386 154t-152 391q0 244 150.5 393.5t387.5 149.5t388 -149.5t151 -393.5q0 -247 -150.5 -396t-388.5 -149zM610 199q108 0 172 78t64 231q0 154 -64 235.5t-172 81.5t-171.5 -81.5t-63.5 -235.5q0 -153 63.5 -231
t171.5 -78z" />
    <glyph glyph-name="Obreve" unicode="&#x14e;" horiz-adv-x="1703" 
d="M852 1538q-102 0 -178.5 24.5t-120 67t-65 93.5t-23.5 110h219q6 -44 49 -82.5t119 -38.5q77 0 119.5 39t46.5 82h223q-2 -59 -24.5 -110t-66.5 -93.5t-120.5 -67t-177.5 -24.5zM852 -33q-178 0 -323 56t-241.5 155.5t-149 236.5t-52.5 298q0 160 53 298t150.5 239
t242.5 158.5t320 57.5t320 -57.5t242.5 -158.5t150.5 -239t53 -298q0 -161 -52.5 -298t-149 -236.5t-241.5 -155.5t-323 -56zM854 225q204 0 321 137t117 353q0 219 -116.5 356t-321.5 137q-206 0 -324 -137t-118 -356q0 -216 118 -353t324 -137z" />
    <glyph glyph-name="obreve" unicode="&#x14f;" horiz-adv-x="1220" 
d="M608 1128q-92 0 -161.5 24.5t-109.5 67t-59.5 93.5t-21.5 110h201q4 -43 43 -81.5t108 -38.5t108.5 38.5t43.5 81.5h203q-2 -59 -22.5 -110t-60.5 -93.5t-110 -67t-162 -24.5zM610 -33q-234 0 -386 154t-152 391q0 244 150.5 393.5t387.5 149.5t388 -149.5t151 -393.5
q0 -247 -150.5 -396t-388.5 -149zM610 199q108 0 172 78t64 231q0 154 -64 235.5t-172 81.5t-171.5 -81.5t-63.5 -235.5q0 -153 63.5 -231t171.5 -78z" />
    <glyph glyph-name="Ohungarumlaut" unicode="&#x150;" horiz-adv-x="1703" 
d="M526 1569l113 315h348l-248 -315h-213zM950 1569l113 315h348l-248 -315h-213zM852 -33q-178 0 -323 56t-241.5 155.5t-149 236.5t-52.5 298q0 160 53 298t150.5 239t242.5 158.5t320 57.5t320 -57.5t242.5 -158.5t150.5 -239t53 -298q0 -161 -52.5 -298t-149 -236.5
t-241.5 -155.5t-323 -56zM854 225q204 0 321 137t117 353q0 219 -116.5 356t-321.5 137q-206 0 -324 -137t-118 -356q0 -216 118 -353t324 -137z" />
    <glyph glyph-name="ohungarumlaut" unicode="&#x151;" horiz-adv-x="1220" 
d="M319 1159l103 316h317l-225 -316h-195zM705 1159l102 316h317l-225 -316h-194zM610 -33q-234 0 -386 154t-152 391q0 244 150.5 393.5t387.5 149.5t388 -149.5t151 -393.5q0 -247 -150.5 -396t-388.5 -149zM610 199q108 0 172 78t64 231q0 154 -64 235.5t-172 81.5
t-171.5 -81.5t-63.5 -235.5q0 -153 63.5 -231t171.5 -78z" />
    <glyph glyph-name="OE" unicode="&#x152;" horiz-adv-x="2437" 
d="M778 -33q-198 0 -356 97.5t-246 268.5t-88 384q0 159 51.5 297.5t142 238t219 156.5t277.5 57q306 0 484 -213v181h1079v-258h-768v-302h575v-251h-575v-365h768v-258h-1079v180q-178 -213 -484 -213zM844 225q208 0 320 129t112 359q0 231 -112 363t-320 132t-320 -132
t-112 -363q0 -230 112 -359t320 -129z" />
    <glyph glyph-name="oe" unicode="&#x153;" horiz-adv-x="1925" 
d="M575 -33q-216 0 -358.5 151.5t-142.5 393.5q0 243 142 393t362 150q131 0 240 -54.5t163 -146.5q117 201 391 201q158 0 271.5 -80.5t165 -219.5t36.5 -313h-723q6 -129 68 -191.5t162 -62.5q90 0 145 48t92 131l260 -101q-20 -45 -42.5 -82t-63 -79t-90 -71t-124.5 -48
t-165 -19q-134 0 -232 50.5t-151 142.5q-59 -91 -166 -142t-240 -51zM1133 643h426q-9 98 -63 150.5t-146 52.5q-89 0 -145.5 -52t-71.5 -151zM612 199q108 0 172 78t64 231q0 154 -64 235.5t-172 81.5t-171.5 -81.5t-63.5 -235.5q0 -153 63.5 -231t171.5 -78z" />
    <glyph glyph-name="Racute" unicode="&#x154;" horiz-adv-x="1486" 
d="M612 1569l113 315h348l-248 -315h-213zM172 0v1434h709q228 0 358.5 -103.5t130.5 -275.5q0 -92 -31.5 -165.5t-85.5 -120t-115.5 -74.5t-131.5 -40q138 -13 220 -85t109 -226l60 -344h-332l-43 317q-17 124 -80 176t-197 52h-260v-545h-311zM483 797h338q102 0 164 48
t62 142q0 93 -62 141t-164 48h-338v-379z" />
    <glyph glyph-name="racute" unicode="&#x155;" horiz-adv-x="880" 
d="M420 1159l102 316h318l-226 -316h-194zM141 0v1024h285v-233q105 253 373 253q31 0 47 -2v-299q-72 7 -113 7q-161 0 -231 -75t-70 -263v-412h-291z" />
    <glyph glyph-name="uni0156" unicode="&#x156;" horiz-adv-x="1486" 
d="M172 0v1434h709q228 0 358.5 -103.5t130.5 -275.5q0 -92 -31.5 -165.5t-85.5 -120t-115.5 -74.5t-131.5 -40q138 -13 220 -85t109 -226l60 -344h-332l-43 317q-17 124 -80 176t-197 52h-260v-545h-311zM483 797h338q102 0 164 48t62 142q0 93 -62 141t-164 48h-338v-379z
M610 -686l168 287h-162v274h287v-274l-170 -287h-123z" />
    <glyph glyph-name="uni0157" unicode="&#x157;" horiz-adv-x="880" 
d="M141 0v1024h285v-233q105 253 373 253q31 0 47 -2v-299q-72 7 -113 7q-161 0 -231 -75t-70 -263v-412h-291zM143 -686l168 287h-161v274h286v-274l-170 -287h-123z" />
    <glyph glyph-name="Rcaron" unicode="&#x158;" horiz-adv-x="1486" 
d="M1157 1802l-248 -264h-387l-248 264h275l168 -145l166 145h274zM172 0v1434h709q228 0 358.5 -103.5t130.5 -275.5q0 -92 -31.5 -165.5t-85.5 -120t-115.5 -74.5t-131.5 -40q138 -13 220 -85t109 -226l60 -344h-332l-43 317q-17 124 -80 176t-197 52h-260v-545h-311z
M483 797h338q102 0 164 48t62 142q0 93 -62 141t-164 48h-338v-379z" />
    <glyph glyph-name="rcaron" unicode="&#x159;" horiz-adv-x="880" 
d="M336 1159l-225 264h249l152 -145l152 145h249l-225 -264h-352zM141 0v1024h285v-233q105 253 373 253q31 0 47 -2v-299q-72 7 -113 7q-161 0 -231 -75t-70 -263v-412h-291z" />
    <glyph glyph-name="Sacute" unicode="&#x15a;" horiz-adv-x="1402" 
d="M590 1569l112 315h349l-248 -315h-213zM713 -33q-145 0 -262.5 35.5t-195.5 98t-127.5 140t-70.5 169.5l293 98q11 -56 38 -106t69.5 -93t108.5 -68.5t147 -25.5q144 0 212 50.5t68 133.5q0 69 -54.5 113.5t-178.5 62.5l-178 25q-453 64 -453 430q0 87 37 165t106 139
t178.5 96.5t245.5 35.5q107 0 198 -21t157 -56.5t117.5 -85t83.5 -104t51 -116.5l-287 -100q-76 236 -320 236q-127 0 -185 -51t-58 -126q0 -63 48 -102t136 -51l178 -25q234 -32 368 -143t134 -301q0 -94 -36 -174.5t-107.5 -143.5t-189.5 -99t-271 -36z" />
    <glyph glyph-name="sacute" unicode="&#x15b;" horiz-adv-x="1075" 
d="M449 1159l102 316h317l-225 -316h-194zM537 -29q-184 0 -317 79.5t-165 213.5l264 84q2 -13 6.5 -27.5t20.5 -42.5t39.5 -48.5t67.5 -37t100 -16.5q74 0 115 29t41 74q0 40 -27.5 67t-99.5 41l-146 29q-86 17 -145 39.5t-105 58.5t-68 89.5t-22 127.5q0 147 118.5 235.5
t322.5 88.5q91 0 168 -22t128 -58.5t84.5 -75t51.5 -80.5l-240 -108q-24 65 -78.5 104t-128.5 39q-71 0 -108 -27.5t-37 -70.5q0 -41 30 -63.5t111 -37.5l141 -26q353 -68 353 -320q0 -155 -126.5 -246.5t-348.5 -91.5z" />
    <glyph glyph-name="Scircumflex" unicode="&#x15c;" horiz-adv-x="1402" 
d="M252 1569l248 264h387l248 -264h-275l-166 145l-168 -145h-274zM713 -33q-145 0 -262.5 35.5t-195.5 98t-127.5 140t-70.5 169.5l293 98q11 -56 38 -106t69.5 -93t108.5 -68.5t147 -25.5q144 0 212 50.5t68 133.5q0 69 -54.5 113.5t-178.5 62.5l-178 25q-453 64 -453 430
q0 87 37 165t106 139t178.5 96.5t245.5 35.5q107 0 198 -21t157 -56.5t117.5 -85t83.5 -104t51 -116.5l-287 -100q-76 236 -320 236q-127 0 -185 -51t-58 -126q0 -63 48 -102t136 -51l178 -25q234 -32 368 -143t134 -301q0 -94 -36 -174.5t-107.5 -143.5t-189.5 -99
t-271 -36z" />
    <glyph glyph-name="scircumflex" unicode="&#x15d;" horiz-adv-x="1075" 
d="M139 1159l226 264h352l225 -264h-250l-151 146l-152 -146h-250zM537 -29q-184 0 -317 79.5t-165 213.5l264 84q2 -13 6.5 -27.5t20.5 -42.5t39.5 -48.5t67.5 -37t100 -16.5q74 0 115 29t41 74q0 40 -27.5 67t-99.5 41l-146 29q-86 17 -145 39.5t-105 58.5t-68 89.5
t-22 127.5q0 147 118.5 235.5t322.5 88.5q91 0 168 -22t128 -58.5t84.5 -75t51.5 -80.5l-240 -108q-24 65 -78.5 104t-128.5 39q-71 0 -108 -27.5t-37 -70.5q0 -41 30 -63.5t111 -37.5l141 -26q353 -68 353 -320q0 -155 -126.5 -246.5t-348.5 -91.5z" />
    <glyph glyph-name="Scedilla" unicode="&#x15e;" horiz-adv-x="1402" 
d="M825 -27l-32 -28q-4 -4 -12 -10.5t-21 -18t-21 -18.5h6q44 0 85.5 -16.5t74.5 -60t33 -106.5q0 -80 -66 -138t-206 -58q-81 0 -150.5 33.5t-105.5 72.5l100 133q74 -69 154 -69q77 0 77 45q0 21 -19 33t-52 12q-32 0 -56 -6l-75 98l102 98q-249 18 -396 139.5t-188 301.5
l293 98q11 -56 38 -106t69.5 -93t108.5 -68.5t147 -25.5q144 0 212 50.5t68 133.5q0 69 -54.5 113.5t-178.5 62.5l-178 25q-453 64 -453 430q0 87 37 165t106 139t178.5 96.5t245.5 35.5q107 0 198 -21t157 -56.5t117.5 -85t83.5 -104t51 -116.5l-287 -100q-76 236 -320 236
q-127 0 -185 -51t-58 -126q0 -63 48 -102t136 -51l178 -25q234 -32 368 -143t134 -301q0 -177 -124 -300t-368 -147z" />
    <glyph glyph-name="scedilla" unicode="&#x15f;" horiz-adv-x="1075" 
d="M678 -16l-43 -39q-5 -4 -23.5 -21t-29.5 -26h6q31 0 63 -10t62 -30.5t48.5 -57.5t18.5 -85q0 -80 -66 -138t-206 -58q-81 0 -150.5 33.5t-105.5 72.5l100 133q74 -69 154 -69q78 0 78 45q0 20 -19.5 32.5t-52.5 12.5q-31 0 -55 -6l-76 98l104 102q-165 11 -282.5 89
t-147.5 202l264 84q2 -13 6.5 -27.5t20.5 -42.5t39.5 -48.5t67.5 -37t100 -16.5q74 0 115 29t41 74q0 40 -27.5 67t-99.5 41l-146 29q-86 17 -145 39.5t-105 58.5t-68 89.5t-22 127.5q0 147 118.5 235.5t322.5 88.5q91 0 168 -22t128 -58.5t84.5 -75t51.5 -80.5l-240 -108
q-24 65 -78.5 104t-128.5 39q-71 0 -108 -27.5t-37 -70.5q0 -41 30 -63.5t111 -37.5l141 -26q353 -68 353 -320q0 -128 -87.5 -213.5t-246.5 -111.5z" />
    <glyph glyph-name="Scaron" unicode="&#x160;" horiz-adv-x="1402" 
d="M1135 1802l-248 -264h-387l-248 264h274l168 -145l166 145h275zM713 -33q-145 0 -262.5 35.5t-195.5 98t-127.5 140t-70.5 169.5l293 98q11 -56 38 -106t69.5 -93t108.5 -68.5t147 -25.5q144 0 212 50.5t68 133.5q0 69 -54.5 113.5t-178.5 62.5l-178 25q-453 64 -453 430
q0 87 37 165t106 139t178.5 96.5t245.5 35.5q107 0 198 -21t157 -56.5t117.5 -85t83.5 -104t51 -116.5l-287 -100q-76 236 -320 236q-127 0 -185 -51t-58 -126q0 -63 48 -102t136 -51l178 -25q234 -32 368 -143t134 -301q0 -94 -36 -174.5t-107.5 -143.5t-189.5 -99
t-271 -36z" />
    <glyph glyph-name="scaron" unicode="&#x161;" horiz-adv-x="1075" 
d="M365 1159l-226 264h250l152 -145l151 145h250l-225 -264h-352zM537 -29q-184 0 -317 79.5t-165 213.5l264 84q2 -13 6.5 -27.5t20.5 -42.5t39.5 -48.5t67.5 -37t100 -16.5q74 0 115 29t41 74q0 40 -27.5 67t-99.5 41l-146 29q-86 17 -145 39.5t-105 58.5t-68 89.5
t-22 127.5q0 147 118.5 235.5t322.5 88.5q91 0 168 -22t128 -58.5t84.5 -75t51.5 -80.5l-240 -108q-24 65 -78.5 104t-128.5 39q-71 0 -108 -27.5t-37 -70.5q0 -41 30 -63.5t111 -37.5l141 -26q353 -68 353 -320q0 -155 -126.5 -246.5t-348.5 -91.5z" />
    <glyph glyph-name="uni0162" unicode="&#x162;" horiz-adv-x="1335" 
d="M823 0l-63 -55q-5 -4 -23.5 -21t-29.5 -26h6q31 0 63 -10t62 -30.5t48.5 -57.5t18.5 -85q0 -80 -66 -138t-206 -58q-81 0 -150.5 33.5t-105.5 72.5l100 133q74 -69 154 -69q78 0 78 45q0 20 -19.5 32.5t-52.5 12.5q-31 0 -55 -6l-76 98l133 129h-127v1176h-492v258h1295
v-258h-492v-1176z" />
    <glyph glyph-name="uni0163" unicode="&#x163;" horiz-adv-x="892" 
d="M680 0l-64 -55q-5 -4 -23.5 -21t-29.5 -26h6q44 0 85.5 -16.5t74.5 -60t33 -106.5q0 -80 -66.5 -138t-206.5 -58q-81 0 -150.5 33.5t-105.5 72.5l101 133q74 -69 153 -69q78 0 78 45q0 21 -19 33t-52 12q-32 0 -56 -6l-76 98l134 129h10q-123 0 -191.5 73t-68.5 195v535
h-215v221h215v322h291v-322h266v-221h-266v-481q0 -91 90 -91h221v-231h-168z" />
    <glyph glyph-name="Tcaron" unicode="&#x164;" horiz-adv-x="1335" 
d="M1106 1802l-248 -264h-387l-248 264h275l168 -145l165 145h275zM512 0v1176h-492v258h1295v-258h-492v-1176h-311z" />
    <glyph glyph-name="tcaron" unicode="&#x165;" horiz-adv-x="892" 
d="M698 1108l168 287h-161v274h286v-274l-170 -287h-123zM506 0q-123 0 -191.5 73t-68.5 195v535h-215v221h215v322h291v-322h266v-221h-266v-481q0 -91 90 -91h221v-231h-342z" />
    <glyph glyph-name="Tbar" unicode="&#x166;" horiz-adv-x="1359" 
d="M1327 1176h-491v-285h286v-213h-286v-678h-312v678h-297v213h297v285h-491v258h1294v-258z" />
    <glyph glyph-name="tbar" unicode="&#x167;" horiz-adv-x="913" 
d="M643 231h221v-231h-342q-123 0 -191.5 73t-68.5 195v211h-215v215h215v109h-215v221h215v322h291v-322h266v-221h-266v-109h266v-215h-266v-157q0 -91 90 -91z" />
    <glyph glyph-name="Utilde" unicode="&#x168;" horiz-adv-x="1597" 
d="M991 1548q-42 0 -81 9.5t-60.5 18.5t-52.5 26l-58 30q-68 37 -108 37q-83 0 -86 -100h-230q0 137 80.5 210.5t216.5 73.5q93 0 193 -53l57 -31q70 -36 111 -36q80 0 86 100h219q0 -285 -287 -285zM799 -33q-295 0 -469 159.5t-174 432.5v875h311v-826q0 -182 84 -278.5
t248 -96.5q169 0 250 98.5t81 276.5v826h312v-875q0 -184 -83 -319t-228 -204t-332 -69z" />
    <glyph glyph-name="utilde" unicode="&#x169;" horiz-adv-x="1210" 
d="M776 1139q-85 0 -176 53l-51 31q-65 37 -100 37q-75 0 -78 -101h-209q0 138 73.5 211.5t196.5 73.5q85 0 176 -53l51 -31q65 -37 101 -37q75 0 78 100h200q0 -150 -68 -217t-194 -67zM444 -33q-146 0 -230.5 99.5t-84.5 267.5v690h291v-623q0 -192 153 -192
q106 0 155.5 86t49.5 223v506h291v-1024h-291v164q-117 -197 -334 -197z" />
    <glyph glyph-name="Umacron" unicode="&#x16a;" horiz-adv-x="1597" 
d="M442 1589v197h713v-197h-713zM799 -33q-295 0 -469 159.5t-174 432.5v875h311v-826q0 -182 84 -278.5t248 -96.5q169 0 250 98.5t81 276.5v826h312v-875q0 -184 -83 -319t-228 -204t-332 -69z" />
    <glyph glyph-name="umacron" unicode="&#x16b;" horiz-adv-x="1210" 
d="M276 1186v196h648v-196h-648zM444 -33q-146 0 -230.5 99.5t-84.5 267.5v690h291v-623q0 -192 153 -192q106 0 155.5 86t49.5 223v506h291v-1024h-291v164q-117 -197 -334 -197z" />
    <glyph glyph-name="Ubreve" unicode="&#x16c;" horiz-adv-x="1597" 
d="M799 1538q-102 0 -178.5 24.5t-120 67t-65 93.5t-23.5 110h219q6 -44 49 -82.5t119 -38.5q77 0 119.5 39t46.5 82h223q-2 -59 -24.5 -110t-66.5 -93.5t-120.5 -67t-177.5 -24.5zM799 -33q-295 0 -469 159.5t-174 432.5v875h311v-826q0 -182 84 -278.5t248 -96.5
q169 0 250 98.5t81 276.5v826h312v-875q0 -184 -83 -319t-228 -204t-332 -69z" />
    <glyph glyph-name="ubreve" unicode="&#x16d;" horiz-adv-x="1210" 
d="M598 1128q-92 0 -161.5 24.5t-109.5 67t-59.5 93.5t-21.5 110h200q4 -43 43.5 -81.5t108.5 -38.5t108.5 38.5t43.5 81.5h202q-2 -59 -22.5 -110t-60.5 -93.5t-109.5 -67t-161.5 -24.5zM444 -33q-146 0 -230.5 99.5t-84.5 267.5v690h291v-623q0 -192 153 -192
q106 0 155.5 86t49.5 223v506h291v-1024h-291v164q-117 -197 -334 -197z" />
    <glyph glyph-name="Uring" unicode="&#x16e;" horiz-adv-x="1597" 
d="M797 1518q-111 0 -192 73t-81 187q0 112 81.5 188t191.5 76q109 0 189.5 -76t80.5 -188q0 -114 -79.5 -187t-190.5 -73zM797 1671q42 0 71 29.5t29 77.5q0 45 -29 74.5t-71 29.5q-43 0 -73 -29.5t-30 -74.5q0 -48 29.5 -77.5t73.5 -29.5zM799 -33q-295 0 -469 159.5
t-174 432.5v875h311v-826q0 -182 84 -278.5t248 -96.5q169 0 250 98.5t81 276.5v826h312v-875q0 -184 -83 -319t-228 -204t-332 -69z" />
    <glyph glyph-name="uring" unicode="&#x16f;" horiz-adv-x="1210" 
d="M602 1128q-106 0 -183 70.5t-77 177.5t77.5 179.5t182.5 72.5t181.5 -72.5t76.5 -179.5q0 -108 -76 -178t-182 -70zM602 1276q41 0 68.5 27.5t27.5 72.5q0 44 -28 72.5t-68 28.5q-42 0 -70 -28.5t-28 -72.5q0 -45 28 -72.5t70 -27.5zM444 -33q-146 0 -230.5 99.5
t-84.5 267.5v690h291v-623q0 -192 153 -192q106 0 155.5 86t49.5 223v506h291v-1024h-291v164q-117 -197 -334 -197z" />
    <glyph glyph-name="Uhungarumlaut" unicode="&#x170;" horiz-adv-x="1597" 
d="M473 1569l113 315h348l-248 -315h-213zM897 1569l113 315h348l-248 -315h-213zM799 -33q-295 0 -469 159.5t-174 432.5v875h311v-826q0 -182 84 -278.5t248 -96.5q169 0 250 98.5t81 276.5v826h312v-875q0 -184 -83 -319t-228 -204t-332 -69z" />
    <glyph glyph-name="uhungarumlaut" unicode="&#x171;" horiz-adv-x="1210" 
d="M309 1159l103 316h317l-225 -316h-195zM694 1159l103 316h317l-225 -316h-195zM444 -33q-146 0 -230.5 99.5t-84.5 267.5v690h291v-623q0 -192 153 -192q106 0 155.5 86t49.5 223v506h291v-1024h-291v164q-117 -197 -334 -197z" />
    <glyph glyph-name="Uogonek" unicode="&#x172;" horiz-adv-x="1597" 
d="M854 -430q-125 0 -197.5 54t-72.5 143q0 67 31.5 112t103.5 92q-269 20 -416 179.5t-147 408.5v875h311v-826q0 -182 84 -278.5t248 -96.5q169 0 250 98.5t81 276.5v826h312v-875q0 -213 -109 -358.5t-297 -200.5q-144 -42 -196 -79.5t-52 -84.5q0 -69 117 -69
q53 0 131 20v-186q-97 -31 -182 -31z" />
    <glyph glyph-name="uogonek" unicode="&#x173;" horiz-adv-x="1210" 
d="M1069 0q-139 -36 -193.5 -79t-54.5 -85q0 -69 117 -69q53 0 131 20v-186q-92 -31 -172 -31q-130 0 -205.5 53.5t-75.5 151.5q0 132 191 225h-29v164q-117 -197 -334 -197q-146 0 -230.5 99.5t-84.5 267.5v690h291v-623q0 -192 153 -192q106 0 155.5 86t49.5 223v506h291
v-1024z" />
    <glyph glyph-name="Wcircumflex" unicode="&#x174;" horiz-adv-x="2166" 
d="M645 1569l248 264h387l248 -264h-275l-166 145l-167 -145h-275zM424 0l-387 1434h340l123 -568q92 -427 108 -497l97 372l182 693h405l183 -693q78 -298 94 -372q21 88 110 497l125 568h330l-393 -1434h-348l-191 721q-83 310 -112 407q-13 -55 -111 -405l-199 -723h-356
z" />
    <glyph glyph-name="wcircumflex" unicode="&#x175;" horiz-adv-x="1765" 
d="M481 1159l226 264h352l225 -264h-250l-151 146l-152 -146h-250zM350 0l-327 1024h299l75 -303q97 -388 115 -451q15 68 102 396l95 358h346l94 -356q85 -328 104 -392q17 76 123 480l70 268h297l-328 -1024h-350l-117 442l-80 301q-17 -82 -75 -299l-117 -444h-326z" />
    <glyph glyph-name="Ycircumflex" unicode="&#x176;" horiz-adv-x="1384" 
d="M250 1569l248 264h387l248 -264h-275l-166 145l-168 -145h-274zM539 0v584l-521 850h361l162 -279q147 -253 161 -276l156 280l152 275h350l-510 -850v-584h-311z" />
    <glyph glyph-name="ycircumflex" unicode="&#x177;" horiz-adv-x="1146" 
d="M561 1305l-151 -146h-250l225 264h352l226 -264h-250zM817 1024h305l-428 -1186q-44 -123 -117 -180t-204 -57h-305v231h266q54 0 81.5 26t51.5 93l18 53l-495 1020h311l170 -391q92 -212 127 -285q27 80 100 305z" />
    <glyph glyph-name="Ydieresis" unicode="&#x178;" horiz-adv-x="1384" 
d="M299 1569v246h297v-246h-297zM795 1569v246h297v-246h-297zM539 0v584l-521 850h361l162 -279q147 -253 161 -276l156 280l152 275h350l-510 -850v-584h-311z" />
    <glyph glyph-name="Zacute" unicode="&#x179;" horiz-adv-x="1363" 
d="M573 1569l113 315h348l-248 -315h-213zM90 0v313l811 863h-278h-519v258h1149v-301l-817 -869h281h573v-264h-1200z" />
    <glyph glyph-name="zacute" unicode="&#x17a;" horiz-adv-x="1021" 
d="M424 1159l102 316h318l-226 -316h-194zM80 0v254l502 539h-279h-199v231h824v-209l-543 -584h293h276v-231h-874z" />
    <glyph glyph-name="Zdotaccent" unicode="&#x17b;" horiz-adv-x="1363" 
d="M524 1569v274h310v-274h-310zM90 0v313l811 863h-278h-519v258h1149v-301l-817 -869h281h573v-264h-1200z" />
    <glyph glyph-name="zdotaccent" unicode="&#x17c;" horiz-adv-x="1021" 
d="M360 1159v275h310v-275h-310zM80 0v254l502 539h-279h-199v231h824v-209l-543 -584h293h276v-231h-874z" />
    <glyph glyph-name="Zcaron" unicode="&#x17d;" horiz-adv-x="1363" 
d="M1118 1802l-248 -264h-387l-247 264h274l168 -145l166 145h274zM90 0v313l811 863h-278h-519v258h1149v-301l-817 -869h281h573v-264h-1200z" />
    <glyph glyph-name="zcaron" unicode="&#x17e;" horiz-adv-x="1021" 
d="M340 1159l-225 264h250l151 -145l152 145h250l-226 -264h-352zM80 0v254l502 539h-279h-199v231h824v-209l-543 -584h293h276v-231h-874z" />
    <glyph glyph-name="florin" unicode="&#x192;" horiz-adv-x="960" 
d="M41 -426q-71 0 -154 18v218q64 -11 97 -11q174 0 202 201l50 328q33 218 61 389h-117h-106v182h250l34 219q56 348 396 348q78 0 170 -18v-234q-61 7 -97 7q-83 0 -131 -30.5t-59 -107.5l-29 -184h275v-182h-301l-113 -737q-30 -201 -141.5 -303.5t-286.5 -102.5z" />
    <glyph glyph-name="uni01E2" unicode="&#x1e2;" horiz-adv-x="1966" 
d="M1565 1786v-197h-713v197h713zM1870 1176h-686v-312h493v-254h-493v-352h686v-258h-996v338h-405l-158 -338h-356l741 1434h1174v-258zM874 854v348q-42 -95 -221 -473l-61 -133h282v258z" />
    <glyph glyph-name="uni01E3" unicode="&#x1e3;" horiz-adv-x="1775" 
d="M557 1186v196h647v-196h-647zM430 -33q-167 0 -260.5 80t-93.5 225q0 78 32.5 140t87.5 103.5t139 72t175.5 47.5t208.5 27v40q0 69 -44 106.5t-130 37.5q-79 0 -131 -44t-70 -118l-260 57q13 128 133 221t307 93q129 0 219.5 -42.5t135.5 -105.5q47 65 131 106.5
t198 41.5q125 0 225 -50.5t160.5 -135.5t87.5 -195.5t15 -231.5h-723q6 -129 68 -191.5t161 -62.5q90 0 145.5 48t92.5 131l260 -101q-19 -44 -43.5 -82t-66 -79.5t-91.5 -70.5t-123.5 -48t-158.5 -19q-141 0 -247.5 55.5t-146.5 133.5q-52 -81 -153.5 -135t-239.5 -54z
M983 643h426q-9 98 -63 150.5t-146 52.5q-89 0 -145.5 -52t-71.5 -151zM502 180q93 0 155 61t62 179v65q-64 -8 -110.5 -16t-95 -23t-78.5 -35t-49 -50.5t-19 -69.5q0 -52 35 -81.5t100 -29.5z" />
    <glyph glyph-name="Aringacute" unicode="&#x1fa;" horiz-adv-x="1515" 
d="M1079 2327l-225 -252h-195l103 252h317zM762 1516q-106 0 -183 70t-77 177t77.5 179.5t182.5 72.5t181.5 -72.5t76.5 -179.5q0 -108 -76 -177.5t-182 -69.5zM762 1864q-42 0 -70 -28.5t-28 -72.5q0 -45 28 -72.5t70 -27.5q41 0 68.5 27.5t27.5 72.5q0 44 -28 72.5
t-68 28.5zM1159 0l-115 336h-583l-117 -336h-334l547 1434h404l542 -1434h-344zM551 594h405l-106 315l-94 275q-21 -67 -94 -277z" />
    <glyph glyph-name="aringacute" unicode="&#x1fb;" horiz-adv-x="1175" 
d="M459 1688l102 251h318l-226 -251h-194zM561 1128q-106 0 -183 70.5t-77 177.5t77.5 179.5t182.5 72.5t181.5 -72.5t76.5 -179.5q0 -108 -76 -178t-182 -70zM561 1276q41 0 68.5 27.5t27.5 72.5q0 44 -28 72.5t-68 28.5q-42 0 -70 -28.5t-28 -72.5q0 -45 28 -72.5
t70 -27.5zM406 -33q-140 0 -232 81t-92 214q0 83 35 148.5t92.5 108t143.5 73.5t173.5 47t198.5 27v39q0 141 -168 141q-183 0 -225 -162l-262 57q13 129 142.5 221.5t342.5 92.5q220 0 338.5 -99.5t118.5 -298.5v-374q0 -39 10.5 -50.5t50.5 -11.5h90v-221h-223
q-84 0 -130 39.5t-54 110.5q-48 -76 -137.5 -129.5t-212.5 -53.5zM510 180q92 0 153.5 61t61.5 179v65q-81 -10 -135.5 -21.5t-107 -33t-79 -56t-26.5 -83.5q0 -52 34 -81.5t99 -29.5z" />
    <glyph glyph-name="AEacute" unicode="&#x1fc;" horiz-adv-x="1966" 
d="M1563 1884l-248 -315h-213l112 315h349zM1870 1176h-686v-312h493v-254h-493v-352h686v-258h-996v338h-405l-158 -338h-356l741 1434h1174v-258zM874 854v348q-42 -95 -221 -473l-61 -133h282v258z" />
    <glyph glyph-name="aeacute" unicode="&#x1fd;" horiz-adv-x="1775" 
d="M788 1159l103 316h317l-225 -316h-195zM430 -33q-167 0 -260.5 80t-93.5 225q0 78 32.5 140t87.5 103.5t139 72t175.5 47.5t208.5 27v40q0 69 -44 106.5t-130 37.5q-79 0 -131 -44t-70 -118l-260 57q13 128 133 221t307 93q129 0 219.5 -42.5t135.5 -105.5
q47 65 131 106.5t198 41.5q125 0 225 -50.5t160.5 -135.5t87.5 -195.5t15 -231.5h-723q6 -129 68 -191.5t161 -62.5q90 0 145.5 48t92.5 131l260 -101q-19 -44 -43.5 -82t-66 -79.5t-91.5 -70.5t-123.5 -48t-158.5 -19q-141 0 -247.5 55.5t-146.5 133.5q-52 -81 -153.5 -135
t-239.5 -54zM983 643h426q-9 98 -63 150.5t-146 52.5q-89 0 -145.5 -52t-71.5 -151zM502 180q93 0 155 61t62 179v65q-64 -8 -110.5 -16t-95 -23t-78.5 -35t-49 -50.5t-19 -69.5q0 -52 35 -81.5t100 -29.5z" />
    <glyph glyph-name="Oslashacute" unicode="&#x1fe;" horiz-adv-x="1703" 
d="M745 1569l113 315h348l-248 -315h-213zM356 -137l-209 157l129 166q-190 205 -190 525q0 160 53 298t150.5 239t242.5 158.5t320 57.5q204 0 360 -75l138 176l209 -162l-132 -168q191 -210 191 -524q0 -161 -52.5 -298t-149 -237t-241.5 -156.5t-323 -56.5
q-204 0 -360 72zM475 440l410 529q132 170 155 200q-78 37 -186 37q-206 0 -324 -137t-118 -356q0 -153 63 -273zM854 223q204 0 321 137t117 353q0 154 -59 272l-397 -508q-38 -51 -170 -217q81 -37 188 -37z" />
    <glyph glyph-name="oslashacute" unicode="&#x1ff;" horiz-adv-x="1224" 
d="M520 1159l103 316h317l-225 -316h-195zM612 -33q-157 0 -284 76l-86 -102l-142 112l90 107q-116 144 -116 352q0 244 150.5 393.5t387.5 149.5q162 0 281 -70l90 107l139 -115l-90 -107q119 -144 119 -358q0 -247 -150.5 -396t-388.5 -149zM389 393l141 168
q146 173 199 232q-46 32 -117 32q-108 0 -171.5 -81.5t-63.5 -235.5q0 -62 12 -115zM612 199q108 0 172 78t64 231q0 77 -14 129l-146 -172q-109 -131 -199 -232q48 -34 123 -34z" />
    <glyph glyph-name="uni0218" unicode="&#x218;" horiz-adv-x="1402" 
d="M713 -33q-145 0 -262.5 35.5t-195.5 98t-127.5 140t-70.5 169.5l293 98q11 -56 38 -106t69.5 -93t108.5 -68.5t147 -25.5q144 0 212 50.5t68 133.5q0 69 -54.5 113.5t-178.5 62.5l-178 25q-453 64 -453 430q0 87 37 165t106 139t178.5 96.5t245.5 35.5q107 0 198 -21
t157 -56.5t117.5 -85t83.5 -104t51 -116.5l-287 -100q-76 236 -320 236q-127 0 -185 -51t-58 -126q0 -63 48 -102t136 -51l178 -25q234 -32 368 -143t134 -301q0 -94 -36 -174.5t-107.5 -143.5t-189.5 -99t-271 -36zM549 -686l168 287h-162v274h287v-274l-170 -287h-123z
" />
    <glyph glyph-name="uni0219" unicode="&#x219;" horiz-adv-x="1075" 
d="M537 -29q-184 0 -317 79.5t-165 213.5l264 84q2 -13 6.5 -27.5t20.5 -42.5t39.5 -48.5t67.5 -37t100 -16.5q74 0 115 29t41 74q0 40 -27.5 67t-99.5 41l-146 29q-86 17 -145 39.5t-105 58.5t-68 89.5t-22 127.5q0 147 118.5 235.5t322.5 88.5q91 0 168 -22t128 -58.5
t84.5 -75t51.5 -80.5l-240 -108q-24 65 -78.5 104t-128.5 39q-71 0 -108 -27.5t-37 -70.5q0 -41 30 -63.5t111 -37.5l141 -26q353 -68 353 -320q0 -155 -126.5 -246.5t-348.5 -91.5zM391 -686l168 287h-162v274h287v-274l-170 -287h-123z" />
    <glyph glyph-name="uni021A" unicode="&#x21a;" horiz-adv-x="1335" 
d="M512 0v1176h-492v258h1295v-258h-492v-1176h-311zM516 -686l168 287h-162v274h287v-274l-170 -287h-123z" />
    <glyph glyph-name="uni021B" unicode="&#x21b;" horiz-adv-x="892" 
d="M506 0q-123 0 -191.5 73t-68.5 195v535h-215v221h215v322h291v-322h266v-221h-266v-481q0 -91 90 -91h221v-231h-342zM373 -686l168 287h-162v274h287v-274l-170 -287h-123z" />
    <glyph glyph-name="uni0226" unicode="&#x226;" horiz-adv-x="1515" 
d="M913 1843v-274h-309v274h309zM1159 0l-115 336h-583l-117 -336h-334l547 1434h404l542 -1434h-344zM551 594h405l-106 315l-94 275q-21 -67 -94 -277z" />
    <glyph glyph-name="uni0227" unicode="&#x227;" horiz-adv-x="1175" 
d="M403 1159v275h310v-275h-310zM406 -33q-140 0 -232 81t-92 214q0 83 35 148.5t92.5 108t143.5 73.5t173.5 47t198.5 27v39q0 141 -168 141q-183 0 -225 -162l-262 57q13 129 142.5 221.5t342.5 92.5q220 0 338.5 -99.5t118.5 -298.5v-374q0 -39 10.5 -50.5t50.5 -11.5h90
v-221h-223q-84 0 -130 39.5t-54 110.5q-48 -76 -137.5 -129.5t-212.5 -53.5zM510 180q92 0 153.5 61t61.5 179v65q-81 -10 -135.5 -21.5t-107 -33t-79 -56t-26.5 -83.5q0 -52 34 -81.5t99 -29.5z" />
    <glyph glyph-name="uni0232" unicode="&#x232;" horiz-adv-x="1384" 
d="M338 1589v197h713v-197h-713zM539 0v584l-521 850h361l162 -279q147 -253 161 -276l156 280l152 275h350l-510 -850v-584h-311z" />
    <glyph glyph-name="uni0233" unicode="&#x233;" horiz-adv-x="1146" 
d="M885 1382v-196h-647v196h647zM817 1024h305l-428 -1186q-44 -123 -117 -180t-204 -57h-305v231h266q54 0 81.5 26t51.5 93l18 53l-495 1020h311l170 -391q92 -212 127 -285q27 80 100 305z" />
    <glyph glyph-name="uni0237" unicode="&#x237;" horiz-adv-x="589" 
d="M-82 -399v231h148q49 0 70.5 22t21.5 68v1102h291v-1155q0 -122 -69 -195t-194 -73h-268z" />
    <glyph glyph-name="circumflex" unicode="&#x2c6;" horiz-adv-x="1705" 
d="M236 1159l225 264h352l225 -264h-250l-151 146l-152 -146h-249z" />
    <glyph glyph-name="caron" unicode="&#x2c7;" horiz-adv-x="1705" 
d="M449 1159l-226 264h250l152 -145l151 145h250l-225 -264h-352z" />
    <glyph glyph-name="breve" unicode="&#x2d8;" horiz-adv-x="976" 
d="M487 1128q-92 0 -161.5 24.5t-109.5 67t-59.5 93.5t-21.5 110h201q4 -43 43 -81.5t108 -38.5t108.5 38.5t43.5 81.5h203q-2 -59 -22.5 -110t-60.5 -93.5t-110 -67t-162 -24.5z" />
    <glyph glyph-name="dotaccent" unicode="&#x2d9;" horiz-adv-x="671" 
d="M203 1159v275h309v-275h-309z" />
    <glyph glyph-name="ring" unicode="&#x2da;" horiz-adv-x="761" 
d="M383 1128q-106 0 -183 70.5t-77 177.5t77.5 179.5t182.5 72.5t181.5 -72.5t76.5 -179.5q0 -108 -76 -178t-182 -70zM383 1276q41 0 68.5 27.5t27.5 72.5q0 44 -28 72.5t-68 28.5q-42 0 -70 -28.5t-28 -72.5q0 -45 28 -72.5t70 -27.5z" />
    <glyph glyph-name="ogonek" unicode="&#x2db;" horiz-adv-x="653" 
d="M338 -430q-130 0 -205.5 53.5t-75.5 151.5q0 189 394 299l59 -74q-139 -36 -193.5 -79t-54.5 -85q0 -69 117 -69q53 0 131 20v-186q-92 -31 -172 -31z" />
    <glyph glyph-name="tilde" unicode="&#x2dc;" horiz-adv-x="1032" 
d="M698 1139q-85 0 -176 53l-51 31q-65 37 -100 37q-75 0 -78 -101h-209q0 138 73.5 211.5t196.5 73.5q85 0 176 -53l52 -31q65 -37 100 -37q75 0 78 100h201q0 -150 -68 -217t-195 -67z" />
    <glyph glyph-name="hungarumlaut" unicode="&#x2dd;" horiz-adv-x="1048" 
d="M162 1159l102 316h318l-226 -316h-194zM547 1159l102 316h318l-226 -316h-194z" />
    <glyph glyph-name="gravecomb" unicode="&#x300;" horiz-adv-x="0" 
d="M-211 1159l-225 316h319l103 -316h-197z" />
    <glyph glyph-name="acutecomb" unicode="&#x301;" horiz-adv-x="0" 
d="M-381 1159l102 316h318l-225 -316h-195z" />
    <glyph glyph-name="uni0302" unicode="&#x302;" horiz-adv-x="0" 
d="M-831 1159l225 264h352l225 -264h-250l-151 146l-152 -146h-249z" />
    <glyph glyph-name="tildecomb" unicode="&#x303;" horiz-adv-x="0" 
d="M-270 1139q-85 0 -176 53l-52 31q-65 37 -100 37q-75 0 -78 -101h-209q0 137 73.5 211t197.5 74q85 0 176 -53l51 -31q65 -37 100 -37q75 0 78 100h201q0 -150 -68 -217t-194 -67z" />
    <glyph glyph-name="uni0304" unicode="&#x304;" horiz-adv-x="0" 
d="M-709 1186v196h648v-196h-648z" />
    <glyph glyph-name="uni0306" unicode="&#x306;" horiz-adv-x="0" 
d="M-397 1128q-92 0 -162 24.5t-110 67t-59.5 93.5t-21.5 110h201q4 -43 43.5 -81.5t108.5 -38.5t108 38.5t43 81.5h203q-2 -59 -22.5 -110t-60.5 -93.5t-109.5 -67t-161.5 -24.5z" />
    <glyph glyph-name="uni0307" unicode="&#x307;" horiz-adv-x="0" 
d="M-330 1159v275h310v-275h-310z" />
    <glyph glyph-name="uni0308" unicode="&#x308;" horiz-adv-x="0" 
d="M-782 1178v245h270v-245h-270zM-332 1178v245h271v-245h-271z" />
    <glyph glyph-name="uni030A" unicode="&#x30a;" horiz-adv-x="0" 
d="M-276 1128q-106 0 -183.5 70.5t-77.5 177.5t78 179.5t183 72.5t181.5 -72.5t76.5 -179.5q0 -108 -76 -178t-182 -70zM-276 1276q41 0 68.5 27.5t27.5 72.5q0 44 -28 72.5t-68 28.5q-42 0 -70.5 -28.5t-28.5 -72.5q0 -45 28.5 -72.5t70.5 -27.5z" />
    <glyph glyph-name="uni030B" unicode="&#x30b;" horiz-adv-x="0" 
d="M-780 1159l102 316h318l-226 -316h-194zM-395 1159l102 316h318l-226 -316h-194z" />
    <glyph glyph-name="uni030C" unicode="&#x30c;" horiz-adv-x="0" 
d="M-639 1159l-225 264h250l151 -145l152 145h250l-226 -264h-352z" />
    <glyph glyph-name="uni0312" unicode="&#x312;" horiz-adv-x="0" 
d="M4 1720l-168 -286h162v-275h-287v275l170 286h123z" />
    <glyph glyph-name="dotbelowcomb" unicode="&#x323;" horiz-adv-x="0" 
d="M-287 -399v274h310v-274h-310z" />
    <glyph glyph-name="uni0326" unicode="&#x326;" horiz-adv-x="0" 
d="M-301 -686l168 287h-162v274h287v-274l-170 -287h-123z" />
    <glyph glyph-name="uni0327" unicode="&#x327;" horiz-adv-x="0" 
d="M-270 -102q31 0 63 -10t62 -30.5t48.5 -57.5t18.5 -85q0 -80 -66 -138t-206 -58q-81 0 -150.5 33.5t-105.5 72.5l100 133q74 -69 154 -69q78 0 78 45q0 20 -19.5 32.5t-52.5 12.5q-31 0 -55 -6l-76 98l133 129h184l-63 -55q-5 -4 -23.5 -21t-29.5 -26h6z" />
    <glyph glyph-name="uni0328" unicode="&#x328;" horiz-adv-x="0" 
d="M-262 -430q-130 0 -205.5 53.5t-75.5 151.5q0 190 393 299l60 -74q-139 -36 -193.5 -79t-54.5 -85q0 -69 117 -69q53 0 131 20v-186q-92 -31 -172 -31z" />
    <glyph glyph-name="uni0394" unicode="&#x394;" horiz-adv-x="1513" 
d="M961 1434l542 -1434h-1493l547 1434h404zM434 258h637l-221 651l-94 275q-21 -67 -94 -277z" />
    <glyph glyph-name="uni03A9" unicode="&#x3a9;" horiz-adv-x="1701" 
d="M96 0v258h90h232q-137 85 -222 219.5t-85 302.5q0 133 50 256t141 219t232.5 153.5t311.5 57.5t311.5 -57.5t232.5 -153.5t141 -219t50 -256q0 -170 -78.5 -304.5t-212.5 -217.5h234h71v-258h-665v258q151 31 239 149t88 320q0 218 -110.5 349.5t-300.5 131.5t-301 -132
t-111 -349q0 -202 87.5 -319.5t240.5 -149.5v-258h-666z" />
    <glyph glyph-name="uni03BC" unicode="&#x3bc;" horiz-adv-x="1222" 
d="M141 -399v1423h291v-623q0 -192 154 -192q106 0 155.5 86t49.5 223v506h290v-1024h-290v164q-117 -197 -314 -197q-31 0 -45 2v-368h-291z" />
    <glyph glyph-name="pi" unicode="&#x3c0;" horiz-adv-x="1378" 
d="M240 0v793h-205v231h1257v-231h-205v-474q0 -46 23 -67t72 -21h108v-231h-186q-150 0 -228.5 63.5t-78.5 208.5v521h-267v-793h-290z" />
    <glyph glyph-name="Wgrave" unicode="&#x1e80;" horiz-adv-x="2166" 
d="M987 1569l-248 315h353l112 -315h-217zM424 0l-387 1434h340l123 -568q92 -427 108 -497l97 372l182 693h405l183 -693q78 -298 94 -372q21 88 110 497l125 568h330l-393 -1434h-348l-191 721q-83 310 -112 407q-13 -55 -111 -405l-199 -723h-356z" />
    <glyph glyph-name="wgrave" unicode="&#x1e81;" horiz-adv-x="1765" 
d="M784 1159l-225 316h320l102 -316h-197zM350 0l-327 1024h299l75 -303q97 -388 115 -451q15 68 102 396l95 358h346l94 -356q85 -328 104 -392q17 76 123 480l70 268h297l-328 -1024h-350l-117 442l-80 301q-17 -82 -75 -299l-117 -444h-326z" />
    <glyph glyph-name="Wacute" unicode="&#x1e82;" horiz-adv-x="2166" 
d="M983 1569l113 315h348l-248 -315h-213zM424 0l-387 1434h340l123 -568q92 -427 108 -497l97 372l182 693h405l183 -693q78 -298 94 -372q21 88 110 497l125 568h330l-393 -1434h-348l-191 721q-83 310 -112 407q-13 -55 -111 -405l-199 -723h-356z" />
    <glyph glyph-name="wacute" unicode="&#x1e83;" horiz-adv-x="1765" 
d="M791 1159l102 316h317l-225 -316h-194zM350 0l-327 1024h299l75 -303q97 -388 115 -451q15 68 102 396l95 358h346l94 -356q85 -328 104 -392q17 76 123 480l70 268h297l-328 -1024h-350l-117 442l-80 301q-17 -82 -75 -299l-117 -444h-326z" />
    <glyph glyph-name="Wdieresis" unicode="&#x1e84;" horiz-adv-x="2166" 
d="M694 1569v246h297v-246h-297zM1190 1569v246h297v-246h-297zM424 0l-387 1434h340l123 -568q92 -427 108 -497l97 372l182 693h405l183 -693q78 -298 94 -372q21 88 110 497l125 568h330l-393 -1434h-348l-191 721q-83 310 -112 407q-13 -55 -111 -405l-199 -723h-356z
" />
    <glyph glyph-name="wdieresis" unicode="&#x1e85;" horiz-adv-x="1765" 
d="M522 1178v245h271v-245h-271zM973 1178v245h270v-245h-270zM350 0l-327 1024h299l75 -303q97 -388 115 -451q15 68 102 396l95 358h346l94 -356q85 -328 104 -392q17 76 123 480l70 268h297l-328 -1024h-350l-117 442l-80 301q-17 -82 -75 -299l-117 -444h-326z" />
    <glyph glyph-name="uni1E9E" unicode="&#x1e9e;" horiz-adv-x="1507" 
d="M936 -33q-184 0 -293 51v277q41 -22 102.5 -35.5t118.5 -13.5q113 0 173.5 46t60.5 132q0 82 -64.5 125t-175.5 43h-160v272h111q217 0 217 160q0 80 -59.5 116t-157.5 36h-326v-1176h-311v1434h694q232 0 351.5 -96.5t119.5 -262.5q0 -111 -67.5 -197t-194.5 -130
q65 -13 125.5 -42t112.5 -73t83 -109t31 -141q0 -183 -131 -299.5t-360 -116.5z" />
    <glyph glyph-name="uni1EA0" unicode="&#x1ea0;" horiz-adv-x="1515" 
d="M1503 0h-344l-115 336h-583l-117 -336h-334l547 1434h404zM551 594h405l-106 315l-94 275q-21 -67 -94 -277zM596 -399v274h309v-274h-309z" />
    <glyph glyph-name="uni1EA1" unicode="&#x1ea1;" horiz-adv-x="1175" 
d="M406 -33q-140 0 -232 81t-92 214q0 83 35 148.5t92.5 108t143.5 73.5t173.5 47t198.5 27v39q0 141 -168 141q-183 0 -225 -162l-262 57q13 129 142.5 221.5t342.5 92.5q220 0 338.5 -99.5t118.5 -298.5v-374q0 -39 10.5 -50.5t50.5 -11.5h90v-221h-223q-84 0 -130 39.5
t-54 110.5q-48 -76 -137.5 -129.5t-212.5 -53.5zM510 180q92 0 153.5 61t61.5 179v65q-81 -10 -135.5 -21.5t-107 -33t-79 -56t-26.5 -83.5q0 -52 34 -81.5t99 -29.5zM403 -399v274h310v-274h-310z" />
    <glyph glyph-name="uni1EB8" unicode="&#x1eb8;" horiz-adv-x="1351" 
d="M172 0v1434h1083v-258h-772v-312h584v-254h-584v-352h772v-258h-1083zM559 -399v274h309v-274h-309z" />
    <glyph glyph-name="uni1EB9" unicode="&#x1eb9;" horiz-adv-x="1167" 
d="M594 -33q-237 0 -378.5 148t-141.5 399q0 239 146.5 390t371.5 151q167 0 286 -82.5t171.5 -220.5t37.5 -310h-722q6 -129 68 -191.5t161 -62.5q90 0 145 48t92 131l261 -101q-19 -44 -43.5 -82t-67 -79.5t-94 -70.5t-128 -48t-165.5 -19zM375 647h426q-9 96 -63 147.5
t-146 51.5q-88 0 -145 -51.5t-72 -147.5zM465 -399v274h309v-274h-309z" />
    <glyph glyph-name="uni1ECA" unicode="&#x1eca;" horiz-adv-x="655" 
d="M172 0v1434h311v-1434h-311zM172 -399v274h309v-274h-309z" />
    <glyph glyph-name="uni1ECB" unicode="&#x1ecb;" horiz-adv-x="567" 
d="M131 1165v269h303v-269h-303zM141 0v1024h285v-1024h-285zM131 -399v268h303v-268h-303z" />
    <glyph glyph-name="uni1ECC" unicode="&#x1ecc;" horiz-adv-x="1703" 
d="M852 -33q-178 0 -323 56t-241.5 155.5t-149 236.5t-52.5 298q0 160 53 298t150.5 239t242.5 158.5t320 57.5t320 -57.5t242.5 -158.5t150.5 -239t53 -298q0 -161 -52.5 -298t-149 -236.5t-241.5 -155.5t-323 -56zM854 225q204 0 321 137t117 353q0 219 -116.5 356
t-321.5 137q-206 0 -324 -137t-118 -356q0 -216 118 -353t324 -137zM696 -399v274h310v-274h-310z" />
    <glyph glyph-name="uni1ECD" unicode="&#x1ecd;" horiz-adv-x="1220" 
d="M610 -33q-234 0 -386 154t-152 391q0 244 150.5 393.5t387.5 149.5t388 -149.5t151 -393.5q0 -247 -150.5 -396t-388.5 -149zM610 199q108 0 172 78t64 231q0 154 -64 235.5t-172 81.5t-171.5 -81.5t-63.5 -235.5q0 -153 63.5 -231t171.5 -78zM455 -399v274h309v-274
h-309z" />
    <glyph glyph-name="uni1EE4" unicode="&#x1ee4;" horiz-adv-x="1597" 
d="M799 -33q-295 0 -469 159.5t-174 432.5v875h311v-826q0 -182 84 -278.5t248 -96.5q169 0 250 98.5t81 276.5v826h312v-875q0 -184 -83 -319t-228 -204t-332 -69zM647 -399v274h309v-274h-309z" />
    <glyph glyph-name="uni1EE5" unicode="&#x1ee5;" horiz-adv-x="1210" 
d="M444 -33q-146 0 -230.5 99.5t-84.5 267.5v690h291v-623q0 -192 153 -192q106 0 155.5 86t49.5 223v506h291v-1024h-291v164q-117 -197 -334 -197zM444 -399v274h310v-274h-310z" />
    <glyph glyph-name="Ygrave" unicode="&#x1ef2;" horiz-adv-x="1384" 
d="M592 1569l-248 315h352l113 -315h-217zM539 0v584l-521 850h361l162 -279q147 -253 161 -276l156 280l152 275h350l-510 -850v-584h-311z" />
    <glyph glyph-name="ygrave" unicode="&#x1ef3;" horiz-adv-x="1146" 
d="M659 1159h-196l-225 316h319zM817 1024h305l-428 -1186q-44 -123 -117 -180t-204 -57h-305v231h266q54 0 81.5 26t51.5 93l18 53l-495 1020h311l170 -391q92 -212 127 -285q27 80 100 305z" />
    <glyph glyph-name="uni2002" unicode="&#x2002;" horiz-adv-x="1024" 
 />
    <glyph glyph-name="uni2003" unicode="&#x2003;" horiz-adv-x="2048" 
 />
    <glyph glyph-name="uni2009" unicode="&#x2009;" horiz-adv-x="256" 
 />
    <glyph glyph-name="endash" unicode="&#x2013;" horiz-adv-x="1323" 
d="M125 535v233h1073v-233h-1073z" />
    <glyph glyph-name="emdash" unicode="&#x2014;" horiz-adv-x="1835" 
d="M125 535v233h1585v-233h-1585z" />
    <glyph glyph-name="quoteleft" unicode="&#x2018;" horiz-adv-x="548" 
d="M434 1436l-186 -322h180v-307h-322v307l191 322h137z" />
    <glyph glyph-name="quoteright" unicode="&#x2019;" horiz-adv-x="530" 
d="M119 805l186 321h-180v308h321v-308l-190 -321h-137z" />
    <glyph glyph-name="quotesinglbase" unicode="&#x201a;" horiz-adv-x="569" 
d="M119 -322l186 322h-180v307h321v-307l-190 -322h-137z" />
    <glyph glyph-name="quotedblleft" unicode="&#x201c;" horiz-adv-x="978" 
d="M434 1436l-186 -322h180v-307h-322v307l191 322h137zM864 1436l-186 -322h180v-307h-321v307l190 322h137z" />
    <glyph glyph-name="quotedblright" unicode="&#x201d;" horiz-adv-x="960" 
d="M119 805l186 321h-180v308h321v-308l-190 -321h-137zM549 805l186 321h-180v308h322v-308l-191 -321h-137z" />
    <glyph glyph-name="quotedblbase" unicode="&#x201e;" horiz-adv-x="999" 
d="M119 -322l186 322h-180v307h321v-307l-190 -322h-137zM549 -322l186 322h-180v307h322v-307l-191 -322h-137z" />
    <glyph glyph-name="dagger" unicode="&#x2020;" 
d="M479 -203v981h-420v258h420v398h312v-398h419v-258h-419v-981h-312z" />
    <glyph glyph-name="daggerdbl" unicode="&#x2021;" horiz-adv-x="1335" 
d="M512 -203v396h-420v258h420v327h-420v258h420v398h311v-398h420v-258h-420v-327h420v-258h-420v-396h-311z" />
    <glyph glyph-name="bullet" unicode="&#x2022;" horiz-adv-x="1122" 
d="M561 289q-176 0 -302 126t-126 300q0 178 125.5 304t302.5 126t302.5 -126t125.5 -304q0 -174 -126 -300t-302 -126z" />
    <glyph glyph-name="ellipsis" unicode="&#x2026;" horiz-adv-x="1644" 
d="M121 0v324h338v-324h-338zM653 0v324h338v-324h-338zM1186 0v324h338v-324h-338z" />
    <glyph glyph-name="perthousand" unicode="&#x2030;" horiz-adv-x="2260" 
d="M774 1020q0 -195 -96 -311.5t-258 -116.5q-161 0 -256.5 116.5t-95.5 311.5q0 197 95.5 314.5t256.5 117.5q162 0 258 -117.5t96 -314.5zM1313 1434h252l-1045 -1434h-254zM305 1020q0 -117 29.5 -178.5t85.5 -61.5q117 0 117 240q0 118 -30.5 181t-86.5 63
q-54 0 -84.5 -63t-30.5 -181zM1882 842q162 0 258 -117.5t96 -314.5q0 -195 -96 -311.5t-258 -116.5q-144 0 -237 96q-93 -96 -240 -96q-161 0 -256.5 116.5t-95.5 311.5q0 197 95.5 314.5t256.5 117.5q146 0 240 -97q94 97 237 97zM1405 170q117 0 117 240
q0 118 -30.5 180.5t-86.5 62.5q-55 0 -85 -63t-30 -180t29.5 -178.5t85.5 -61.5zM1882 170q117 0 117 240q0 118 -30.5 180.5t-86.5 62.5q-55 0 -85 -63t-30 -180t29.5 -178.5t85.5 -61.5z" />
    <glyph glyph-name="guilsinglleft" unicode="&#x2039;" horiz-adv-x="718" 
d="M662 1004l-295 -488l292 -489h-307l-289 489l291 488h308z" />
    <glyph glyph-name="guilsinglright" unicode="&#x203a;" horiz-adv-x="714" 
d="M367 1004l288 -490l-290 -487h-308l295 487l-293 490h308z" />
    <glyph glyph-name="fraction" unicode="&#x2044;" horiz-adv-x="409" 
d="M-449 0l1047 1434h252l-1045 -1434h-254z" />
    <glyph glyph-name="uni2070" unicode="&#x2070;" horiz-adv-x="878" 
d="M438 778q-161 0 -256.5 116.5t-95.5 311.5q0 197 95.5 314.5t256.5 117.5q162 0 258.5 -117.5t96.5 -314.5q0 -195 -96 -311.5t-259 -116.5zM438 967q117 0 117 239q0 118 -30.5 181t-86.5 63q-54 0 -84 -63t-30 -181q0 -117 29 -178t85 -61z" />
    <glyph glyph-name="uni2074" unicode="&#x2074;" horiz-adv-x="849" 
d="M451 797v184h-385v168l319 471h274v-459h115v-180h-115v-184h-208zM451 1161v56v186l-164 -242h116h48z" />
    <glyph glyph-name="uni2075" unicode="&#x2075;" horiz-adv-x="813" 
d="M403 778q-136 0 -223.5 63.5t-107.5 174.5l211 57q11 -50 40.5 -79t73.5 -29q45 0 75 28t30 76q0 47 -27 76t-69 29q-58 0 -95 -60l-207 43l72 463h526v-188h-356l-6 -46l-12 -108q47 57 141 57q114 0 188 -75t74 -195q0 -130 -91 -208.5t-237 -78.5z" />
    <glyph glyph-name="uni2076" unicode="&#x2076;" horiz-adv-x="833" 
d="M430 778q-157 0 -251.5 108t-94.5 285q0 216 110 341.5t304 125.5q58 0 115.5 -13.5t86.5 -29.5v-206q-103 53 -211 53q-73 0 -125 -40.5t-55 -125.5q24 37 69.5 58.5t96.5 21.5q120 0 197.5 -78t77.5 -199q0 -133 -89.5 -217t-230.5 -84zM424 965q43 0 70.5 31.5
t27.5 78.5q0 49 -27.5 80t-70.5 31t-70.5 -31t-27.5 -80t27.5 -79.5t70.5 -30.5z" />
    <glyph glyph-name="uni2077" unicode="&#x2077;" horiz-adv-x="749" 
d="M172 797q-6 189 77 360.5t243 274.5h-136h-290v188h620v-213q-135 -89 -209 -252t-69 -358h-236z" />
    <glyph glyph-name="uni2078" unicode="&#x2078;" horiz-adv-x="823" 
d="M410 778q-151 0 -238.5 65t-87.5 179q0 71 47.5 122t116.5 77q-57 21 -99.5 69.5t-42.5 120.5q0 98 83 162.5t221 64.5t223.5 -65t85.5 -162q0 -73 -41.5 -121.5t-99.5 -68.5q73 -25 116 -75.5t43 -123.5q0 -114 -88 -179t-239 -65zM412 1294q40 0 63 22t23 60
q0 36 -23.5 58t-62.5 22q-40 0 -63 -21.5t-23 -58.5q0 -38 23 -60t63 -22zM410 965q46 0 71 23.5t25 64.5t-25 64.5t-71 23.5q-44 0 -69.5 -23.5t-25.5 -64.5t25.5 -64.5t69.5 -23.5z" />
    <glyph glyph-name="uni2079" unicode="&#x2079;" horiz-adv-x="831" 
d="M338 778q-124 0 -213 41v211q70 -30 113 -40.5t98 -10.5q103 0 158 61q46 49 43 129q-60 -100 -185 -100q-115 0 -190.5 75t-75.5 193q0 132 86.5 216.5t224.5 84.5q132 0 236 -96q112 -103 112 -309q0 -216 -106.5 -335.5t-300.5 -119.5zM406 1241q41 0 66.5 30t25.5 77
q0 46 -25.5 75t-66.5 29q-40 0 -66.5 -29.5t-26.5 -74.5q0 -47 26.5 -77t66.5 -30z" />
    <glyph glyph-name="uni20A9" unicode="&#x20a9;" horiz-adv-x="2516" 
d="M2451 817h-313l-33 -121h265v-174h-312l-143 -522h-348l-131 522h-344l-138 -522h-356l-141 522h-310v174h263l-33 121h-311v174h264l-119 443h340l88 -443h313l109 443h405l107 -443h313l92 443h330l-121 -443h264v-174zM1319 991l-55 219q-9 -42 -29 -121t-25 -98h109z
M674 817l24 -121h181l18 76l10 45h-233zM1137 696h256l-7 21l-24 100h-195q-4 -17 -13 -51.5t-13 -52.5zM1825 696l24 121h-233l20 -86q1 -6 4.5 -17.5t4.5 -17.5h180zM782 287q15 70 56 235h-103q5 -27 15 -75.5t18 -87t14 -72.5zM1743 287l47 235h-104q36 -144 57 -235z
" />
    <glyph glyph-name="Euro" unicode="&#x20ac;" horiz-adv-x="1458" 
d="M803 -33q-216 0 -368 129.5t-210 354.5h-153v184h123q-6 71 0 141h-123v185h147q57 234 212.5 369.5t371.5 135.5q228 0 379 -115t200 -327l-286 -94q-24 126 -99.5 202t-193.5 76q-211 0 -271 -247h193h100v-185h-315q-6 -70 0 -141h315v-184h-100h-186
q64 -224 264 -224q123 0 191.5 72.5t103.5 218.5l291 -106q-75 -225 -216 -335t-370 -110z" />
    <glyph glyph-name="uni20B9" unicode="&#x20b9;" horiz-adv-x="1224" 
d="M1153 1219h-160h-221q94 -28 139 -113h242v-205h-225q-26 -101 -109 -172.5t-221 -93.5q263 -24 320 -289l75 -346h-331l-60 319q-24 127 -79.5 176.5t-186.5 49.5h-234v254h312q142 0 198 102h-510v205h523q-48 113 -211 113h-312v215h1051v-215z" />
    <glyph glyph-name="uni20BA" unicode="&#x20ba;" horiz-adv-x="1390" 
d="M328 0v152v260q-66 -35 -133 -68l-70 -35v244l203 102v136l-203 -103v244l203 102v410h311v-115v-139q25 13 102.5 51t110.5 55l195 99v-242l-408 -205v-137l408 205v-242l-408 -205v-293h41q122 0 224.5 98.5t152.5 258.5l280 -135q-179 -498 -798 -498h-211z" />
    <glyph glyph-name="uni20BD" unicode="&#x20bd;" horiz-adv-x="1357" 
d="M774 559h-227v-113h440v-213h-440v-233h-303v233h-146v213h146v113h-146v234h146v641h528q227 0 368.5 -123t141.5 -330q0 -189 -142 -305.5t-366 -116.5zM547 1176v-383h182q110 0 175 51t65 137q0 90 -64.5 142.5t-175.5 52.5h-182z" />
    <glyph glyph-name="uni20BF" unicode="&#x20bf;" horiz-adv-x="1417" 
d="M1341 399q0 -161 -117.5 -266t-308.5 -127v-219h-188v213h-98v-213h-189v213h-262v1434h262v202h189v-202h98v202h188v-209q184 -20 281.5 -110t97.5 -230q0 -123 -73 -210t-209 -127q153 -26 241 -122.5t88 -228.5zM983 1022q0 83 -55 118.5t-162 35.5h-277v-310h277
q217 0 217 156zM770 258q250 0 250 178q0 92 -67.5 136t-182.5 44h-281v-358h281z" />
    <glyph glyph-name="uni2113" unicode="&#x2113;" horiz-adv-x="1071" 
d="M580 -33q-185 0 -281 96t-96 269v69q-68 -6 -142 -6v209q75 3 142 12v476q0 173 107.5 273.5t277.5 100.5q209 0 319.5 -115t110.5 -298q0 -69 -18.5 -137.5t-60 -137.5t-101.5 -129t-149 -111t-197 -85v-111q0 -65 21 -97t73 -32q50 0 85 46.5t48 119.5l280 -115
q-32 -128 -140.5 -212.5t-278.5 -84.5zM492 694q219 112 219 355q0 91 -34 137.5t-89 46.5q-96 0 -96 -135v-140v-264z" />
    <glyph glyph-name="uni2116" unicode="&#x2116;" horiz-adv-x="2607" 
d="M2120 592q-132 0 -230.5 58t-148 155.5t-49.5 220.5q0 192 114 310t314 118q199 0 312.5 -118.5t113.5 -309.5q0 -189 -114.5 -311.5t-311.5 -122.5zM188 0v1434h433l643 -908v363v545h311v-1434h-287l-788 1112v-436v-676h-312zM2120 764q77 0 124.5 69t47.5 193
q0 127 -47 191.5t-125 64.5q-80 0 -127 -64.5t-47 -191.5q0 -125 47.5 -193.5t126.5 -68.5z" />
    <glyph glyph-name="uni2117" unicode="&#x2117;" horiz-adv-x="1792" 
d="M895 -80q-167 0 -317.5 63.5t-259 171.5t-172.5 258t-64 316t64 316t172.5 257.5t259 170.5t317.5 63q134 0 258.5 -40t225 -114.5t176 -173.5t116.5 -222.5t41 -256.5q0 -166 -64.5 -316t-173.5 -258t-260.5 -171.5t-318.5 -63.5zM897 113q173 0 314 82.5t220.5 224
t79.5 309.5q0 169 -79.5 310.5t-220.5 224t-314 82.5t-314 -82.5t-220.5 -224t-79.5 -310.5q0 -168 79.5 -309.5t220.5 -224t314 -82.5zM629 311v850h395q120 0 197 -69.5t77 -178.5q0 -106 -74.5 -180t-203.5 -74h-199v-348h-192zM821 799h148q63 0 97 27.5t34 82.5
q0 109 -135 109h-144v-219z" />
    <glyph glyph-name="trademark" unicode="&#x2122;" horiz-adv-x="1992" 
d="M311 655v615h-245v164h692v-164h-248v-615h-199zM842 655v779h325l58 -185l123 -393l116 391l56 187h319v-779h-194v260v367l-193 -627h-217l-199 627v-367v-260h-194z" />
    <glyph glyph-name="uni2126" unicode="&#x2126;" horiz-adv-x="1691" 
d="M92 0v258h90h232q-137 86 -222.5 220t-85.5 302q0 106 31 206.5t93.5 187t149.5 152t206 103t256 37.5q170 0 311.5 -57.5t232.5 -153.5t141 -219t50 -256q0 -170 -78.5 -304.5t-212.5 -217.5h234h71v-258h-665v258q151 31 239 149t88 320q0 218 -110.5 349.5
t-300.5 131.5t-301 -132t-111 -349q0 -202 87.5 -319.5t240.5 -149.5v-258h-666z" />
    <glyph glyph-name="uni2153" unicode="&#x2153;" horiz-adv-x="1818" 
d="M270 610v328v219q-75 -108 -207 -96v213q183 -3 238 160h193v-824h-224zM211 0l1046 1434h252l-1044 -1434h-254zM1425 -18q-144 0 -235 71t-103 191l224 45q19 -121 112 -121q42 0 67.5 20.5t25.5 59.5q0 78 -107 78h-53v180h53q45 0 68.5 20.5t23.5 55.5q0 32 -21 52.5
t-55 20.5q-40 0 -62 -31t-22 -85l-225 30q6 122 91.5 197.5t217.5 75.5q133 0 217 -63t84 -163q0 -63 -36.5 -112.5t-106.5 -75.5q162 -52 162 -201q0 -109 -88 -177t-232 -68z" />
    <glyph glyph-name="uni2154" unicode="&#x2154;" horiz-adv-x="1994" 
d="M86 610v207q234 133 312.5 204t78.5 148q0 43 -22.5 69t-61.5 26q-49 0 -73.5 -41.5t-22.5 -114.5l-221 22q0 143 89.5 232.5t235.5 89.5q142 0 227 -72t85 -188q0 -108 -76 -207q-73 -95 -281 -186h269h90v-189h-629zM393 0l1047 1434h252l-1045 -1434h-254zM1608 -18
q-144 0 -235 71t-103 191l223 45q19 -121 113 -121q42 0 67 20.5t25 59.5q0 78 -107 78h-53v180h53q45 0 68.5 20.5t23.5 55.5q0 32 -20.5 52.5t-54.5 20.5q-40 0 -62 -31t-22 -85l-226 30q6 122 92 197.5t218 75.5q133 0 217 -63t84 -163q0 -63 -37 -112.5t-107 -75.5
q162 -52 162 -201q0 -109 -87.5 -177t-231.5 -68z" />
    <glyph glyph-name="uni2155" unicode="&#x2155;" horiz-adv-x="1826" 
d="M270 610v328v219q-75 -108 -207 -96v213q183 -3 238 160h193v-824h-224zM211 0l1046 1434h252l-1044 -1434h-254zM1419 -18q-136 0 -224 63t-108 174l211 57q11 -50 41 -79t74 -29q45 0 75 28t30 76q0 47 -27.5 76t-69.5 29q-32 0 -53.5 -14t-40.5 -46l-207 43l72 463
h526v-188h-356l-6 -45l-13 -109q47 58 142 58q114 0 188 -75.5t74 -195.5q0 -129 -91 -207.5t-237 -78.5z" />
    <glyph glyph-name="uni2156" unicode="&#x2156;" horiz-adv-x="1998" 
d="M84 610v207q234 133 312.5 204t78.5 148q0 43 -22.5 69t-61.5 26q-49 0 -73.5 -41.5t-22.5 -114.5l-221 22q0 143 89.5 232.5t235.5 89.5q142 0 227 -72t85 -188q0 -108 -76 -207q-73 -95 -281 -186h269h90v-189h-629zM391 0l1047 1434h252l-1045 -1434h-254zM1599 -18
q-136 0 -223.5 63t-107.5 174l211 57q11 -50 40.5 -79t73.5 -29q45 0 75 28t30 76q0 47 -27 76t-69 29q-58 0 -95 -60l-207 43l72 463h526v-188h-356l-6 -45l-12 -109q47 58 141 58q114 0 188 -75.5t74 -195.5q0 -129 -91 -207.5t-237 -78.5z" />
    <glyph glyph-name="uni2157" unicode="&#x2157;" horiz-adv-x="2004" 
d="M401 592q-144 0 -235 71t-103 191l224 45q19 -121 112 -121q42 0 67.5 20.5t25.5 59.5q0 78 -107 78h-53v180h53q45 0 68.5 20.5t23.5 55.5q0 32 -21 53t-55 21q-40 0 -62 -31.5t-22 -85.5l-225 31q6 121 91.5 196.5t217.5 75.5q133 0 217 -62.5t84 -162.5
q0 -63 -36.5 -113t-106.5 -76q162 -52 162 -200q0 -109 -88 -177.5t-232 -68.5zM389 0l1047 1434h252l-1045 -1434h-254zM1597 -18q-136 0 -223.5 63t-107.5 174l211 57q11 -50 40.5 -79t73.5 -29q45 0 75 28t30 76q0 47 -27.5 76t-69.5 29q-32 0 -53.5 -14t-40.5 -46
l-207 43l72 463h526v-188h-356l-6 -45l-12 -109q47 58 141 58q114 0 188 -75.5t74 -195.5q0 -129 -91 -207.5t-237 -78.5z" />
    <glyph glyph-name="uni2158" unicode="&#x2158;" horiz-adv-x="2037" 
d="M444 610v185h-385v168l320 471h274v-459h115v-180h-115v-185h-209zM416 0l1046 1434h252l-1044 -1434h-254zM444 975v55v187l-163 -242h116h47zM1624 -18q-136 0 -224 63t-108 174l211 57q11 -50 41 -79t74 -29t74 28t30 76q0 47 -27 76t-69 29q-32 0 -53.5 -14
t-40.5 -46l-207 43l72 463h526v-188h-356l-6 -45l-13 -109q47 58 142 58q114 0 188 -75.5t74 -195.5q0 -129 -91 -207.5t-237 -78.5z" />
    <glyph glyph-name="uni2159" unicode="&#x2159;" horiz-adv-x="1853" 
d="M270 610v328v219q-75 -108 -207 -96v213q183 -3 238 160h193v-824h-224zM211 0l1046 1434h252l-1044 -1434h-254zM1460 -18q-157 0 -251.5 108t-94.5 285q0 216 110 341.5t304 125.5q58 0 116 -13.5t87 -29.5v-207q-103 53 -211 53q-73 0 -125.5 -40.5t-55.5 -125.5
q24 37 69.5 58.5t96.5 21.5q120 0 197.5 -77.5t77.5 -198.5q0 -133 -89.5 -217t-230.5 -84zM1454 168q43 0 70.5 31.5t27.5 79.5q0 49 -27.5 79.5t-70.5 30.5t-70.5 -30.5t-27.5 -79.5t27.5 -80t70.5 -31z" />
    <glyph glyph-name="uni215A" unicode="&#x215a;" horiz-adv-x="2031" 
d="M395 592q-136 0 -224 63t-108 174l211 58q11 -50 41 -79.5t74 -29.5t74.5 28.5t30.5 76.5q0 47 -27.5 75.5t-69.5 28.5q-58 0 -94 -59l-207 43l72 463h526v-189h-356l-6 -45l-13 -108q47 57 142 57q114 0 188 -75t74 -195q0 -130 -91 -208.5t-237 -78.5zM389 0l1047 1434
h252l-1045 -1434h-254zM1638 -18q-157 0 -251.5 108t-94.5 285q0 216 110 341.5t304 125.5q58 0 116 -13.5t87 -29.5v-207q-103 53 -211 53q-73 0 -125 -40.5t-55 -125.5q24 37 69 58.5t96 21.5q120 0 197.5 -77.5t77.5 -198.5q0 -133 -89.5 -217t-230.5 -84zM1632 168
q43 0 71 32t28 79q0 49 -28 79.5t-71 30.5t-70.5 -30.5t-27.5 -79.5t27.5 -80t70.5 -31z" />
    <glyph glyph-name="oneeighth" unicode="&#x215b;" horiz-adv-x="1835" 
d="M270 610v328v219q-75 -108 -207 -96v213q183 -3 238 160h193v-824h-224zM211 0l1046 1434h252l-1044 -1434h-254zM1434 -18q-151 0 -238.5 64.5t-87.5 178.5q0 71 47.5 122t116.5 77q-57 21 -99.5 69.5t-42.5 120.5q0 98 83 163t221 65t223.5 -65.5t85.5 -162.5
q0 -73 -41.5 -121.5t-99.5 -68.5q73 -25 116 -75.5t43 -123.5q0 -114 -88 -178.5t-239 -64.5zM1436 498q40 0 63 22t23 60q0 36 -23.5 57.5t-62.5 21.5q-40 0 -63 -21t-23 -58q0 -38 23 -60t63 -22zM1434 168q46 0 71 23.5t25 64.5t-25 64.5t-71 23.5q-44 0 -69.5 -23.5
t-25.5 -64.5t25.5 -64.5t69.5 -23.5z" />
    <glyph glyph-name="threeeighths" unicode="&#x215c;" horiz-adv-x="2013" 
d="M401 592q-144 0 -235 71t-103 191l224 45q19 -121 112 -121q42 0 67.5 20.5t25.5 59.5q0 78 -107 78h-53v180h53q45 0 68.5 20.5t23.5 55.5q0 32 -21 53t-55 21q-40 0 -62 -31.5t-22 -85.5l-225 31q6 121 91.5 196.5t217.5 75.5q133 0 217 -62.5t84 -162.5
q0 -63 -36.5 -113t-106.5 -76q162 -52 162 -200q0 -109 -88 -177.5t-232 -68.5zM389 0l1047 1434h252l-1045 -1434h-254zM1612 -18q-151 0 -238.5 64.5t-87.5 178.5q0 71 47.5 122t116.5 77q-56 21 -98.5 69.5t-42.5 120.5q0 98 82.5 163t220.5 65t223.5 -65.5t85.5 -162.5
q0 -73 -41.5 -121.5t-99.5 -68.5q73 -25 116 -75.5t43 -123.5q0 -114 -88 -178.5t-239 -64.5zM1614 498q40 0 63 22t23 60q0 36 -23.5 57.5t-62.5 21.5q-40 0 -63 -21t-23 -58q0 -38 23 -60t63 -22zM1612 168q46 0 71 23.5t25 64.5t-25 64.5t-71 23.5q-44 0 -69 -23.5
t-25 -64.5t25 -64.5t69 -23.5z" />
    <glyph glyph-name="fiveeighths" unicode="&#x215d;" horiz-adv-x="2015" 
d="M395 592q-136 0 -224 63t-108 174l211 58q11 -50 41 -79.5t74 -29.5t74.5 28.5t30.5 76.5q0 47 -27.5 75.5t-69.5 28.5q-58 0 -94 -59l-207 43l72 463h526v-189h-356l-6 -45l-13 -108q47 57 142 57q114 0 188 -75t74 -195q0 -130 -91 -208.5t-237 -78.5zM389 0l1047 1434
h252l-1045 -1434h-254zM1612 -18q-151 0 -238.5 64.5t-87.5 178.5q0 71 47.5 122t116.5 77q-56 21 -98.5 69.5t-42.5 120.5q0 98 82.5 163t220.5 65t223.5 -65.5t85.5 -162.5q0 -73 -41.5 -121.5t-99.5 -68.5q73 -25 116 -75.5t43 -123.5q0 -114 -88 -178.5t-239 -64.5z
M1614 498q40 0 63 22t23 60q0 36 -23.5 57.5t-62.5 21.5q-40 0 -63 -21t-23 -58q0 -38 23 -60t63 -22zM1612 168q46 0 71 23.5t25 64.5t-25 64.5t-71 23.5q-44 0 -69 -23.5t-25 -64.5t25 -64.5t69 -23.5z" />
    <glyph glyph-name="seveneighths" unicode="&#x215e;" horiz-adv-x="1830" 
d="M172 610q-6 189 77 360.5t243 274.5h-136h-290v189h620v-213q-135 -89 -209 -252t-69 -359h-236zM209 0l1046 1434h252l-1044 -1434h-254zM1432 -18q-151 0 -238.5 64.5t-87.5 178.5q0 71 47.5 122t116.5 77q-57 21 -99.5 69.5t-42.5 120.5q0 98 83 163t221 65
t223.5 -65.5t85.5 -162.5q0 -73 -42 -121.5t-100 -68.5q73 -25 116.5 -75.5t43.5 -123.5q0 -114 -88 -178.5t-239 -64.5zM1434 498q40 0 63 22t23 60q0 36 -23.5 57.5t-62.5 21.5q-40 0 -63 -21t-23 -58q0 -38 23 -60t63 -22zM1432 168q46 0 71 23.5t25 64.5t-25 64.5
t-71 23.5q-44 0 -69.5 -23.5t-25.5 -64.5t25.5 -64.5t69.5 -23.5z" />
    <glyph glyph-name="uni215F" unicode="&#x215f;" horiz-adv-x="876" 
d="M252 610v328v219q-75 -108 -207 -96v213q183 -3 238 160h192v-824h-223zM193 0l1046 1434h252l-1045 -1434h-253z" />
    <glyph glyph-name="arrowleft" unicode="&#x2190;" horiz-adv-x="1730" 
d="M1638 563h-1007q72 -68 209 -205l116 -116l-215 -215l-692 688l692 688l215 -215l-114 -113q-139 -139 -211 -209h1007v-303z" />
    <glyph glyph-name="arrowup" unicode="&#x2191;" horiz-adv-x="1462" 
d="M580 0v1008q-68 -72 -205 -209l-117 -117l-215 215l688 692l688 -692l-215 -215l-112 115q-139 139 -209 211v-1008h-303z" />
    <glyph glyph-name="arrowright" unicode="&#x2192;" horiz-adv-x="1730" 
d="M92 866h1008q-72 68 -209 205l-117 117l215 215l692 -688l-692 -688l-215 215l115 112q139 139 211 209h-1008v303z" />
    <glyph glyph-name="arrowdown" unicode="&#x2193;" horiz-adv-x="1462" 
d="M883 1434v-1008q85 90 204 209l117 117l215 -215l-688 -693l-688 693l215 215l113 -115q139 -139 209 -211v1008h303z" />
    <glyph glyph-name="uni2196" unicode="&#x2196;" horiz-adv-x="1433" 
d="M1378 416l-211 -211l-712 715v-314v-147h-305v975h974v-304h-145h-317z" />
    <glyph glyph-name="uni2197" unicode="&#x2197;" horiz-adv-x="1433" 
d="M266 205l-211 211l715 712h-313h-148v306h975v-975h-303v145v318z" />
    <glyph glyph-name="uni2198" unicode="&#x2198;" horiz-adv-x="1433" 
d="M55 1018l211 211l713 -715v313v148h305v-975h-975v303h146h317z" />
    <glyph glyph-name="uni2199" unicode="&#x2199;" horiz-adv-x="1433" 
d="M1167 1229l211 -211l-714 -713h313h147v-305h-974v975h303v-146v-317z" />
    <glyph glyph-name="uni21A4" unicode="&#x21a4;" horiz-adv-x="1847" 
d="M1325 1315h315v-1196h-315v446h-696q26 -26 73 -71t85 -82t73 -72l96 -96l-215 -215l-692 688l692 688l215 -215l-98 -96q-38 -38 -114.5 -113t-114.5 -113h696v447z" />
    <glyph glyph-name="uni21A5" unicode="&#x21a5;" horiz-adv-x="1490" 
d="M893 1012v-697h446v-315h-1196v315h447v697q-20 -20 -100 -103.5t-125 -128.5l-97 -96l-215 215l688 692l689 -692l-216 -215l-96 98q-38 38 -112.5 115t-112.5 115z" />
    <glyph glyph-name="uni21A6" unicode="&#x21a6;" horiz-adv-x="1843" 
d="M1106 1405l692 -688l-692 -688l-215 215l98 96q38 38 115 112.5t115 112.5h-697v-446h-315v1196h315v-447h697q-26 26 -73 71t-85.5 82.5t-73.5 72.5l-96 96z" />
    <glyph glyph-name="uni21A7" unicode="&#x21a7;" horiz-adv-x="1490" 
d="M1223 750l215 -215l-688 -693l-689 693l215 215l97 -99q38 -38 112.5 -114.5t112.5 -114.5v696h-446v316h1196v-316h-447v-696q26 26 71 73t82 85t72 73z" />
    <glyph glyph-name="uni21B0" unicode="&#x21b0;" horiz-adv-x="1771" 
d="M631 868h1007v-868h-315v565h-692q72 -68 209 -205l116 -116l-215 -215l-692 688l692 688l215 -215l-114 -113q-139 -139 -211 -209z" />
    <glyph glyph-name="uni21B1" unicode="&#x21b1;" horiz-adv-x="1767" 
d="M1030 1405l692 -688l-692 -688l-215 215l115 112q139 139 211 209h-692v-565h-316v868h1008q-72 68 -209 205l-117 117z" />
    <glyph glyph-name="uni21B2" unicode="&#x21b2;" horiz-adv-x="1767" 
d="M1319 1434h315v-869h-1007q72 -68 209 -205l116 -116l-215 -215l-692 688l692 688l215 -215l-114 -113q-139 -139 -211 -209h692v566z" />
    <glyph glyph-name="uni21B3" unicode="&#x21b3;" horiz-adv-x="1771" 
d="M1030 1405l692 -688l-692 -688l-215 215l115 112q139 139 211 209h-1008v869h316v-566h692q-72 68 -209 205l-117 117z" />
    <glyph glyph-name="partialdiff" unicode="&#x2202;" horiz-adv-x="1284" 
d="M608 -33q-237 0 -384.5 140.5t-147.5 369.5q0 109 38 199t102.5 148.5t149 90t179.5 31.5q129 0 224.5 -60.5t133.5 -156.5q-1 226 -123.5 345.5t-324.5 119.5q-135 0 -287 -64v283q132 53 326 53q322 0 511 -214t189 -590q0 -141 -38.5 -266t-110.5 -221t-184.5 -152
t-252.5 -56zM621 221q103 0 171 68.5t68 175.5q0 112 -71.5 183t-172.5 71q-99 0 -169 -67t-70 -179q0 -117 70.5 -184.5t173.5 -67.5z" />
    <glyph glyph-name="uni2206" unicode="&#x2206;" horiz-adv-x="1589" 
d="M997 1434l543 -1434h-1493l547 1434h403zM471 258h637l-221 651l-94 275q-12 -38 -95 -277z" />
    <glyph glyph-name="product" unicode="&#x220f;" horiz-adv-x="1642" 
d="M1573 1434v-258h-205v-1379h-311v1379h-471v-1379h-312v1379h-204v258h1503z" />
    <glyph glyph-name="summation" unicode="&#x2211;" horiz-adv-x="1308" 
d="M90 -203v271l514 544l-524 557v265h1137v-258h-345h-395l524 -560l-530 -561h401h365v-258h-1147z" />
    <glyph glyph-name="minus" unicode="&#x2212;" horiz-adv-x="1347" 
d="M131 600v246h1086v-246h-1086z" />
    <glyph glyph-name="uni2215" unicode="&#x2215;" horiz-adv-x="772" 
d="M-29 -205l551 1854h279l-551 -1854h-279z" />
    <glyph glyph-name="radical" unicode="&#x221a;" horiz-adv-x="1400" 
d="M489 -203l-296 789h-166v258h374l146 -438l117 -359q23 77 116 363l334 1024h311l-587 -1637h-349z" />
    <glyph glyph-name="infinity" unicode="&#x221e;" horiz-adv-x="1773" 
d="M506 322q-180 0 -298 117t-118 284t118 284t298 117q114 0 212 -50.5t171 -147.5q144 198 381 198q180 0 296.5 -117t116.5 -284t-116.5 -284t-296.5 -117q-238 0 -383 196q-73 -96 -172 -146t-209 -50zM522 537q60 0 110 38t126 152q-68 102 -121.5 142t-114.5 40
q-75 0 -125.5 -52t-50.5 -134t50.5 -134t125.5 -52zM1251 537q75 0 125.5 52t50.5 134t-50.5 134t-125.5 52q-59 0 -111.5 -39t-123.5 -143q76 -114 125.5 -152t109.5 -38z" />
    <glyph glyph-name="integral" unicode="&#x222b;" horiz-adv-x="790" 
d="M55 -397v258h92q47 0 75 31.5t28 87.5v1124q0 66 18.5 123t57.5 104.5t107 75t159 27.5h143v-258h-92q-47 0 -74.5 -31.5t-27.5 -87.5v-1125q0 -65 -18.5 -122t-57.5 -104.5t-107 -75t-159 -27.5h-144z" />
    <glyph glyph-name="approxequal" unicode="&#x2248;" horiz-adv-x="1329" 
d="M870 737q-112 0 -227 62l-88 49q-55 31 -109 31q-99 0 -174 -113l-172 147q56 107 150.5 164.5t206.5 57.5t223 -60l82 -45q70 -37 121 -37q47 0 92.5 32.5t81.5 86.5l172 -154q-56 -106 -152 -163.5t-207 -57.5zM870 287q-114 0 -227 61l-88 49q-55 31 -109 31
q-99 0 -174 -113l-172 148q56 107 150.5 164t206.5 57q114 0 223 -59l82 -45q70 -37 121 -37q47 0 92.5 32.5t81.5 86.5l172 -154q-56 -106 -152 -163.5t-207 -57.5z" />
    <glyph glyph-name="notequal" unicode="&#x2260;" horiz-adv-x="1353" 
d="M221 180l98 168h-190v246h334l74 123q17 27 69 123h-272h-205v245h623l104 181h256l-106 -181h219v-245h-363l-71 -123q-12 -23 -72 -123h262h244v-246h-650l-98 -168h-256z" />
    <glyph glyph-name="lessequal" unicode="&#x2264;" horiz-adv-x="1382" 
d="M1233 485l-1096 205v391l1096 211v-243l-381 -66q-304 -53 -530 -90q277 -42 530 -84l381 -64v-260zM137 180v246h1096v-246h-1096z" />
    <glyph glyph-name="greaterequal" unicode="&#x2265;" horiz-adv-x="1380" 
d="M150 483v244l380 66q291 51 531 90q-292 45 -531 84l-380 63v260l1095 -205v-391zM150 180v246h1095v-246h-1095z" />
    <glyph glyph-name="angleleft" unicode="&#x2329;" horiz-adv-x="761" 
d="M313 629l418 -826l-242 -131l-469 946l472 949l237 -133z" />
    <glyph glyph-name="angleright" unicode="&#x232a;" horiz-adv-x="765" 
d="M272 1567l469 -946l-471 -949l-237 133l416 805l-418 826z" />
    <glyph glyph-name="uni2460" unicode="&#x2460;" horiz-adv-x="1777" 
d="M887 -80q-167 0 -317.5 63.5t-259 171.5t-172.5 258t-64 316t64 316t172.5 257.5t259 170.5t317.5 63q134 0 258.5 -40t225 -114.5t176 -173.5t116.5 -222.5t41 -256.5q0 -166 -64.5 -316t-173.5 -258t-260.5 -171.5t-318.5 -63.5zM889 113q173 0 314 82.5t220.5 224
t79.5 309.5q0 169 -79.5 310.5t-220.5 224t-314 82.5t-314.5 -82.5t-221 -224t-79.5 -310.5q0 -126 47 -239.5t128 -196.5t196 -131.5t244 -48.5zM825 317v328v219q-75 -108 -207 -96v213q183 -3 238 160h193v-824h-224z" />
    <glyph glyph-name="uni2461" unicode="&#x2461;" horiz-adv-x="1777" 
d="M887 -80q-167 0 -317.5 63.5t-259 171.5t-172.5 258t-64 316t64 316t172.5 257.5t259 170.5t317.5 63q134 0 258.5 -40t225 -114.5t176 -173.5t116.5 -222.5t41 -256.5q0 -166 -64.5 -316t-173.5 -258t-260.5 -171.5t-318.5 -63.5zM889 113q173 0 314 82.5t220.5 224
t79.5 309.5q0 169 -79.5 310.5t-220.5 224t-314 82.5t-314.5 -82.5t-221 -224t-79.5 -310.5q0 -126 47 -239.5t128 -196.5t196 -131.5t244 -48.5zM580 317v207q233 133 312 204.5t79 148.5q0 43 -22.5 68.5t-61.5 25.5q-49 0 -73.5 -41.5t-22.5 -114.5l-222 23q0 143 90 232
t236 89q141 0 226 -72t85 -188q0 -108 -76 -207q-74 -96 -280 -186h268h90v-189h-628z" />
    <glyph glyph-name="uni2462" unicode="&#x2462;" horiz-adv-x="1777" 
d="M887 -80q-167 0 -317.5 63.5t-259 171.5t-172.5 258t-64 316t64 316t172.5 257.5t259 170.5t317.5 63q134 0 258.5 -40t225 -114.5t176 -173.5t116.5 -222.5t41 -256.5q0 -166 -64.5 -316t-173.5 -258t-260.5 -171.5t-318.5 -63.5zM889 113q173 0 314 82.5t220.5 224
t79.5 309.5q0 169 -79.5 310.5t-220.5 224t-314 82.5t-314.5 -82.5t-221 -224t-79.5 -310.5q0 -126 47 -239.5t128 -196.5t196 -131.5t244 -48.5zM887 299q-144 0 -235 71t-103 191l223 45q19 -121 113 -121q42 0 67 20.5t25 59.5q0 78 -107 78h-53v180h53q45 0 69 20.5
t24 55.5q0 32 -21 53t-55 21q-40 0 -62 -31.5t-22 -85.5l-225 31q6 121 91.5 196.5t217.5 75.5q133 0 217 -62.5t84 -162.5q0 -63 -37 -113t-107 -76q162 -52 162 -200q0 -109 -87.5 -177.5t-231.5 -68.5z" />
    <glyph glyph-name="uni2463" unicode="&#x2463;" horiz-adv-x="1777" 
d="M887 -80q-167 0 -317.5 63.5t-259 171.5t-172.5 258t-64 316t64 316t172.5 257.5t259 170.5t317.5 63q134 0 258.5 -40t225 -114.5t176 -173.5t116.5 -222.5t41 -256.5q0 -166 -64.5 -316t-173.5 -258t-260.5 -171.5t-318.5 -63.5zM889 113q173 0 314 82.5t220.5 224
t79.5 309.5q0 169 -79.5 310.5t-220.5 224t-314 82.5t-314.5 -82.5t-221 -224t-79.5 -310.5q0 -126 47 -239.5t128 -196.5t196 -131.5t244 -48.5zM895 317v185h-385v168l319 471h275v-459h115v-180h-115v-185h-209zM895 682v55v187l-164 -242h117h47z" />
    <glyph glyph-name="uni2464" unicode="&#x2464;" horiz-adv-x="1777" 
d="M887 -80q-167 0 -317.5 63.5t-259 171.5t-172.5 258t-64 316t64 316t172.5 257.5t259 170.5t317.5 63q134 0 258.5 -40t225 -114.5t176 -173.5t116.5 -222.5t41 -256.5q0 -166 -64.5 -316t-173.5 -258t-260.5 -171.5t-318.5 -63.5zM889 113q173 0 314 82.5t220.5 224
t79.5 309.5q0 169 -79.5 310.5t-220.5 224t-314 82.5t-314.5 -82.5t-221 -224t-79.5 -310.5q0 -126 47 -239.5t128 -196.5t196 -131.5t244 -48.5zM870 299q-136 0 -223.5 63.5t-107.5 174.5l211 57q11 -50 40.5 -79.5t73.5 -29.5t74.5 28.5t30.5 76.5q0 47 -27.5 75.5
t-69.5 28.5q-58 0 -94 -59l-207 43l72 463h526v-189h-356l-6 -45l-12 -108q47 57 141 57q114 0 188 -75t74 -195q0 -130 -91 -208.5t-237 -78.5z" />
    <glyph glyph-name="uni2465" unicode="&#x2465;" horiz-adv-x="1777" 
d="M887 -80q-167 0 -317.5 63.5t-259 171.5t-172.5 258t-64 316t64 316t172.5 257.5t259 170.5t317.5 63q134 0 258.5 -40t225 -114.5t176 -173.5t116.5 -222.5t41 -256.5q0 -166 -64.5 -316t-173.5 -258t-260.5 -171.5t-318.5 -63.5zM889 113q173 0 314 82.5t220.5 224
t79.5 309.5q0 169 -79.5 310.5t-220.5 224t-314 82.5t-314.5 -82.5t-221 -224t-79.5 -310.5q0 -126 47 -239.5t128 -196.5t196 -131.5t244 -48.5zM864 299q-157 0 -251.5 108t-94.5 285q0 216 110 341.5t304 125.5q58 0 116 -13.5t87 -29.5v-207q-105 54 -211 54
q-73 0 -125.5 -40.5t-55.5 -125.5q24 37 69.5 58.5t96.5 21.5q120 0 197.5 -78t77.5 -199q0 -133 -89.5 -217t-230.5 -84zM858 485q43 0 70.5 31.5t27.5 79.5q0 49 -27.5 80t-70.5 31t-70.5 -31t-27.5 -80t27.5 -80t70.5 -31z" />
    <glyph glyph-name="uni2466" unicode="&#x2466;" horiz-adv-x="1777" 
d="M887 -80q-167 0 -317.5 63.5t-259 171.5t-172.5 258t-64 316t64 316t172.5 257.5t259 170.5t317.5 63q134 0 258.5 -40t225 -114.5t176 -173.5t116.5 -222.5t41 -256.5q0 -166 -64.5 -316t-173.5 -258t-260.5 -171.5t-318.5 -63.5zM889 113q173 0 314 82.5t220.5 224
t79.5 309.5q0 169 -79.5 310.5t-220.5 224t-314 82.5t-314.5 -82.5t-221 -224t-79.5 -310.5q0 -126 47 -239.5t128 -196.5t196 -131.5t244 -48.5zM700 317q-6 189 77 360.5t243 274.5h-135h-291v189h620v-213q-135 -89 -209 -252t-69 -359h-236z" />
    <glyph glyph-name="uni2467" unicode="&#x2467;" horiz-adv-x="1777" 
d="M887 -80q-167 0 -317.5 63.5t-259 171.5t-172.5 258t-64 316t64 316t172.5 257.5t259 170.5t317.5 63q134 0 258.5 -40t225 -114.5t176 -173.5t116.5 -222.5t41 -256.5q0 -166 -64.5 -316t-173.5 -258t-260.5 -171.5t-318.5 -63.5zM889 113q173 0 314 82.5t220.5 224
t79.5 309.5q0 169 -79.5 310.5t-220.5 224t-314 82.5t-314.5 -82.5t-221 -224t-79.5 -310.5q0 -126 47 -239.5t128 -196.5t196 -131.5t244 -48.5zM887 299q-151 0 -238.5 65t-87.5 179q0 71 47 121.5t117 76.5q-56 20 -98.5 69.5t-42.5 121.5q0 98 82.5 162.5t220.5 64.5
t223.5 -65t85.5 -162q0 -73 -42 -122t-99 -69q73 -25 116 -75t43 -123q0 -114 -88 -179t-239 -65zM889 815q40 0 63 22t23 60q0 36 -23.5 58t-62.5 22q-40 0 -63 -21.5t-23 -58.5q0 -38 23 -60t63 -22zM887 485q46 0 71 23.5t25 64.5q0 42 -25.5 65.5t-70.5 23.5
q-44 0 -69 -24t-25 -65t25 -64.5t69 -23.5z" />
    <glyph glyph-name="uni2468" unicode="&#x2468;" horiz-adv-x="1777" 
d="M887 -80q-167 0 -317.5 63.5t-259 171.5t-172.5 258t-64 316t64 316t172.5 257.5t259 170.5t317.5 63q134 0 258.5 -40t225 -114.5t176 -173.5t116.5 -222.5t41 -256.5q0 -166 -64.5 -316t-173.5 -258t-260.5 -171.5t-318.5 -63.5zM889 113q173 0 314 82.5t220.5 224
t79.5 309.5q0 169 -79.5 310.5t-220.5 224t-314 82.5t-314.5 -82.5t-221 -224t-79.5 -310.5q0 -126 47 -239.5t128 -196.5t196 -131.5t244 -48.5zM825 299q-124 0 -213 41v211q70 -30 113 -40.5t98 -10.5q103 0 158 61q46 49 43 129q-60 -100 -184 -100q-115 0 -191 75
t-76 193q0 132 87 216.5t225 84.5q131 0 235 -96q113 -104 113 -309q0 -216 -106.5 -335.5t-301.5 -119.5zM893 762q41 0 66.5 29.5t25.5 76.5q0 46 -25.5 75.5t-66.5 29.5q-40 0 -66 -29.5t-26 -75.5q0 -47 26 -76.5t66 -29.5z" />
    <glyph glyph-name="uni24EA" unicode="&#x24ea;" horiz-adv-x="1777" 
d="M887 -80q-167 0 -317.5 63.5t-259 171.5t-172.5 258t-64 316t64 316t172.5 257.5t259 170.5t317.5 63q134 0 258.5 -40t225 -114.5t176 -173.5t116.5 -222.5t41 -256.5q0 -166 -64.5 -316t-173.5 -258t-260.5 -171.5t-318.5 -63.5zM889 113q173 0 314 82.5t220.5 224
t79.5 309.5q0 169 -79.5 310.5t-220.5 224t-314 82.5t-314.5 -82.5t-221 -224t-79.5 -310.5q0 -126 47 -239.5t128 -196.5t196 -131.5t244 -48.5zM887 299q-161 0 -256.5 116.5t-95.5 311.5q0 197 95.5 314.5t256.5 117.5q162 0 258 -117.5t96 -314.5q0 -195 -96 -311.5
t-258 -116.5zM887 487q117 0 117 240q0 118 -30.5 181t-86.5 63q-54 0 -84.5 -63t-30.5 -181q0 -117 29.5 -178.5t85.5 -61.5z" />
    <glyph glyph-name="uni24FF" unicode="&#x24ff;" horiz-adv-x="1777" 
d="M887 -80q167 0 318.5 63.5t260.5 171.5t173.5 258t64.5 316q0 133 -41 256.5t-116.5 222.5t-176 173.5t-225 114.5t-258.5 40q-167 0 -317.5 -63t-259 -170.5t-172.5 -257.5t-64 -316t64 -316t172.5 -258t259 -171.5t317.5 -63.5zM887 299q-161 0 -256.5 116.5
t-95.5 311.5q0 197 95.5 314.5t256.5 117.5q162 0 258 -117.5t96 -314.5q0 -195 -96 -311.5t-258 -116.5zM887 487q117 0 117 240q0 118 -30.5 181t-86.5 63q-54 0 -84.5 -63t-30.5 -181q0 -117 29.5 -178.5t85.5 -61.5z" />
    <glyph glyph-name="lozenge" unicode="&#x25ca;" horiz-adv-x="1347" 
d="M494 0l-431 717l431 717h360l430 -717l-430 -717h-360zM952 711l-170 288q-33 55 -108 189q-66 -122 -113 -197l-166 -270l172 -287q32 -55 107 -188q71 128 110 190z" />
    <glyph glyph-name="uni274C" unicode="&#x274c;" horiz-adv-x="1570" 
d="M221 -33l-182 183l563 571l-553 567l189 189l550 -568l560 568l186 -177l-565 -575l555 -571l-191 -187l-553 570z" />
    <glyph glyph-name="uni2776" unicode="&#x2776;" horiz-adv-x="1777" 
d="M887 -80q167 0 318.5 63.5t260.5 171.5t173.5 258t64.5 316q0 133 -41 256.5t-116.5 222.5t-176 173.5t-225 114.5t-258.5 40q-167 0 -317.5 -63t-259 -170.5t-172.5 -257.5t-64 -316t64 -316t172.5 -258t259 -171.5t317.5 -63.5zM825 317v328v219q-75 -108 -207 -96v213
q183 -3 238 160h193v-824h-224z" />
    <glyph glyph-name="uni2777" unicode="&#x2777;" horiz-adv-x="1777" 
d="M887 -80q167 0 318.5 63.5t260.5 171.5t173.5 258t64.5 316q0 133 -41 256.5t-116.5 222.5t-176 173.5t-225 114.5t-258.5 40q-167 0 -317.5 -63t-259 -170.5t-172.5 -257.5t-64 -316t64 -316t172.5 -258t259 -171.5t317.5 -63.5zM580 317v207q233 133 312 204.5
t79 148.5q0 43 -22.5 68.5t-61.5 25.5q-49 0 -73.5 -41.5t-22.5 -114.5l-222 23q0 143 90 232t236 89q141 0 226 -72t85 -188q0 -108 -76 -207q-74 -96 -280 -186h268h90v-189h-628z" />
    <glyph glyph-name="uni2778" unicode="&#x2778;" horiz-adv-x="1777" 
d="M887 -80q167 0 318.5 63.5t260.5 171.5t173.5 258t64.5 316q0 133 -41 256.5t-116.5 222.5t-176 173.5t-225 114.5t-258.5 40q-167 0 -317.5 -63t-259 -170.5t-172.5 -257.5t-64 -316t64 -316t172.5 -258t259 -171.5t317.5 -63.5zM887 299q-144 0 -235 71t-103 191
l223 45q19 -121 113 -121q42 0 67 20.5t25 59.5q0 78 -107 78h-53v180h53q45 0 69 20.5t24 55.5q0 32 -21 53t-55 21q-40 0 -62 -31.5t-22 -85.5l-225 31q6 121 91.5 196.5t217.5 75.5q133 0 217 -62.5t84 -162.5q0 -63 -37 -113t-107 -76q162 -52 162 -200
q0 -109 -87.5 -177.5t-231.5 -68.5z" />
    <glyph glyph-name="uni2779" unicode="&#x2779;" horiz-adv-x="1777" 
d="M887 -80q167 0 318.5 63.5t260.5 171.5t173.5 258t64.5 316q0 133 -41 256.5t-116.5 222.5t-176 173.5t-225 114.5t-258.5 40q-167 0 -317.5 -63t-259 -170.5t-172.5 -257.5t-64 -316t64 -316t172.5 -258t259 -171.5t317.5 -63.5zM895 317v185h-385v168l319 471h275v-459
h115v-180h-115v-185h-209zM895 682v55v187l-164 -242h117h47z" />
    <glyph glyph-name="uni277A" unicode="&#x277a;" horiz-adv-x="1777" 
d="M887 -80q167 0 318.5 63.5t260.5 171.5t173.5 258t64.5 316q0 133 -41 256.5t-116.5 222.5t-176 173.5t-225 114.5t-258.5 40q-167 0 -317.5 -63t-259 -170.5t-172.5 -257.5t-64 -316t64 -316t172.5 -258t259 -171.5t317.5 -63.5zM870 299q-136 0 -223.5 63.5
t-107.5 174.5l211 57q11 -50 40.5 -79.5t73.5 -29.5t74.5 28.5t30.5 76.5q0 47 -27.5 75.5t-69.5 28.5q-58 0 -94 -59l-207 43l72 463h526v-189h-356l-6 -45l-12 -108q47 57 141 57q114 0 188 -75t74 -195q0 -130 -91 -208.5t-237 -78.5z" />
    <glyph glyph-name="uni277B" unicode="&#x277b;" horiz-adv-x="1777" 
d="M887 -80q167 0 318.5 63.5t260.5 171.5t173.5 258t64.5 316q0 133 -41 256.5t-116.5 222.5t-176 173.5t-225 114.5t-258.5 40q-167 0 -317.5 -63t-259 -170.5t-172.5 -257.5t-64 -316t64 -316t172.5 -258t259 -171.5t317.5 -63.5zM864 299q-157 0 -251.5 108t-94.5 285
q0 216 110 341.5t304 125.5q58 0 116 -13.5t87 -29.5v-207q-105 54 -211 54q-73 0 -125.5 -40.5t-55.5 -125.5q24 37 69.5 58.5t96.5 21.5q120 0 197.5 -78t77.5 -199q0 -133 -89.5 -217t-230.5 -84zM858 485q43 0 70.5 31.5t27.5 79.5q0 49 -27.5 80t-70.5 31t-70.5 -31
t-27.5 -80t27.5 -80t70.5 -31z" />
    <glyph glyph-name="uni277C" unicode="&#x277c;" horiz-adv-x="1777" 
d="M887 -80q167 0 318.5 63.5t260.5 171.5t173.5 258t64.5 316q0 133 -41 256.5t-116.5 222.5t-176 173.5t-225 114.5t-258.5 40q-167 0 -317.5 -63t-259 -170.5t-172.5 -257.5t-64 -316t64 -316t172.5 -258t259 -171.5t317.5 -63.5zM700 317q-6 189 77 360.5t243 274.5
h-135h-291v189h620v-213q-135 -89 -209 -252t-69 -359h-236z" />
    <glyph glyph-name="uni277D" unicode="&#x277d;" horiz-adv-x="1777" 
d="M887 -80q167 0 318.5 63.5t260.5 171.5t173.5 258t64.5 316q0 133 -41 256.5t-116.5 222.5t-176 173.5t-225 114.5t-258.5 40q-167 0 -317.5 -63t-259 -170.5t-172.5 -257.5t-64 -316t64 -316t172.5 -258t259 -171.5t317.5 -63.5zM887 299q-151 0 -238.5 65t-87.5 179
q0 71 47 121.5t117 76.5q-56 20 -98.5 69.5t-42.5 121.5q0 98 82.5 162.5t220.5 64.5t223.5 -65t85.5 -162q0 -73 -42 -122t-99 -69q73 -25 116 -75t43 -123q0 -114 -88 -179t-239 -65zM889 815q40 0 63 22t23 60q0 36 -23.5 58t-62.5 22q-40 0 -63 -21.5t-23 -58.5
q0 -38 23 -60t63 -22zM887 485q46 0 71 23.5t25 64.5q0 42 -25.5 65.5t-70.5 23.5q-44 0 -69 -24t-25 -65t25 -64.5t69 -23.5z" />
    <glyph glyph-name="uni277E" unicode="&#x277e;" horiz-adv-x="1777" 
d="M887 -80q167 0 318.5 63.5t260.5 171.5t173.5 258t64.5 316q0 133 -41 256.5t-116.5 222.5t-176 173.5t-225 114.5t-258.5 40q-167 0 -317.5 -63t-259 -170.5t-172.5 -257.5t-64 -316t64 -316t172.5 -258t259 -171.5t317.5 -63.5zM848 299q-124 0 -213 41v211
q70 -30 113 -40.5t98 -10.5q103 0 158 61q46 49 43 129q-60 -100 -185 -100q-115 0 -190.5 75t-75.5 193q0 132 86.5 216.5t224.5 84.5q132 0 236 -96q112 -103 112 -309q0 -216 -106.5 -335.5t-300.5 -119.5zM915 762q41 0 67 29.5t26 76.5q0 46 -26 75.5t-67 29.5
q-40 0 -66 -29.5t-26 -75.5q0 -47 26 -76.5t66 -29.5z" />
    <glyph glyph-name="uni300A" unicode="&#x300a;" horiz-adv-x="1294" 
d="M729 1434l-416 -805l418 -826l-242 -131l-469 949l472 946zM846 629l418 -826l-242 -131l-469 949l471 946l238 -133z" />
    <glyph glyph-name="uni300B" unicode="&#x300b;" horiz-adv-x="1296" 
d="M270 1569l469 -948l-471 -947l-237 133l415 805l-417 826zM803 1569l469 -948l-471 -947l-238 133l416 805l-418 826z" />
    <glyph glyph-name="uni300C" unicode="&#x300c;" horiz-adv-x="798" 
d="M160 623v923h610v-225h-344v-698h-266z" />
    <glyph glyph-name="uni300D" unicode="&#x300d;" horiz-adv-x="757" 
d="M631 614v-923h-611v225h345v698h266z" />
    <glyph glyph-name="uni300E" unicode="&#x300e;" horiz-adv-x="1142" 
d="M162 397v1149h913v-532h-346v-617h-567zM387 602h137v606h326v133h-463v-739z" />
    <glyph glyph-name="uni300F" unicode="&#x300f;" horiz-adv-x="1124" 
d="M977 840v-1149h-914v532h347v617h567zM752 635h-138v-606h-325v-133h463v739z" />
    <glyph glyph-name="uni3010" unicode="&#x3010;" horiz-adv-x="796" 
d="M164 -307v1853h649q-199 -225 -291 -447.5t-92 -475.5q0 -251 91.5 -477t291.5 -453h-649z" />
    <glyph glyph-name="uni3011" unicode="&#x3011;" horiz-adv-x="796" 
d="M633 1546v-1853h-649q199 225 291 447.5t92 475.5q0 251 -91.5 477t-291.5 453h649z" />
    <glyph glyph-name="uni3014" unicode="&#x3014;" horiz-adv-x="714" 
d="M375 209l319 -361l-196 -176l-389 432v1033l391 430l190 -178l-315 -336v-844z" />
    <glyph glyph-name="uni3015" unicode="&#x3015;" horiz-adv-x="714" 
d="M217 1565l389 -432v-1033l-391 -430l-190 178l315 336v844l-320 361z" />
    <glyph glyph-name="plus.alt" unicode="&#xe000;" horiz-adv-x="1540" 
d="M637 0v598h-574v246h574v600h266v-600h574v-246h-574v-598h-266z" />
    <glyph glyph-name="minus.alt" unicode="&#xe001;" horiz-adv-x="1671" 
d="M129 598v246h1413v-246h-1413z" />
    <glyph glyph-name="multiply.alt" unicode="&#xe002;" horiz-adv-x="1622" 
d="M246 -33l-183 183l564 571l-553 567l188 189l551 -568l559 568l187 -177l-566 -575l555 -571l-190 -187l-553 570z" />
    <glyph glyph-name="uniE003" unicode="&#xe003;" horiz-adv-x="1789" 
d="M711 -31l-660 846l209 170l461 -590l827 1086l201 -162z" />
    <glyph glyph-name="uniE004" unicode="&#xe004;" horiz-adv-x="1970" 
d="M193 1118v254h1585v-254h-1585zM193 590v254h1585v-254h-1585zM193 61v254h1585v-254h-1585z" />
    <glyph glyph-name="uniE005" unicode="&#xe005;" horiz-adv-x="1789" 
d="M178 0v1423h1434v-1423h-1434zM444 244h902v936h-902v-936z" />
    <glyph glyph-name="uniE006" unicode="&#xe006;" horiz-adv-x="1789" 
d="M897 324l-367 589l203 131l66 -102q17 -26 119 -190l139 190l385 516l194 -147zM178 0v1423h928v-243h-662v-936h902v424h266v-668h-1434z" />
    <glyph glyph-name="uniE007" unicode="&#xe007;" horiz-adv-x="1789" 
d="M178 0v1423h1434v-1423h-1434zM444 244h902v936h-902v-936zM727 551v323h338v-323h-338z" />
    <glyph glyph-name="uniE008" unicode="&#xe008;" horiz-adv-x="1552" 
d="M780 313l-612 611l207 204l65 -71q108 -120 193 -205v924h295v-924l188 201l70 75l207 -204zM59 0v313h1434v-313h-1434z" />
    <glyph glyph-name="uniE009" unicode="&#xe009;" horiz-adv-x="1552" 
d="M780 475l-612 610l207 205l65 -71q108 -120 193 -205v923h295v-923l188 200l70 76l207 -205zM59 0v313h1434v-313h-1434z" />
    <glyph glyph-name="uniF8FF" unicode="&#xf8ff;" horiz-adv-x="1724" 
d="M1622 8l-86 -12q-62 49 -104 92q10 -127 10 -176l-41 -27q-127 0 -200 70t-105 225q-15 72 -19 105q-15 -40 -35 -70t-61 -76q-49 24 -91.5 83.5t-64.5 117.5t-30 106q-31 187 -62 234q-30 44 -72.5 67.5t-125.5 51.5q-72 24 -113.5 59t-95.5 105l182 135l-62 61
q-50 -12 -100 -12q-99 0 -171.5 43.5t-72.5 112.5q0 66 36 105.5t102 39.5q135 0 211 -66q-31 66 -39.5 97.5t-8.5 87.5q0 47 32 74.5t93 27.5q68 0 104 -37.5t36 -107.5q0 -124 -47 -221l65 -70l92 70q65 -31 130 -85.5t111.5 -109t89.5 -115.5t63.5 -96.5t33.5 -60.5
q292 -251 381 -570q35 -122 35 -258z" />
    <glyph glyph-name="G.ss03" horiz-adv-x="1599" 
d="M829 -33q-215 0 -382.5 88t-264 258t-96.5 398q0 210 97.5 383t271 272.5t385.5 99.5q141 0 258 -35t198.5 -97t135.5 -138.5t84 -167.5l-293 -108q-100 288 -383 288q-192 0 -311 -133t-119 -364q0 -213 115.5 -349.5t305.5 -136.5q142 0 227.5 68.5t106.5 185.5h-407
v258h741q9 -117 -9 -226.5t-69 -209t-129 -173.5t-197 -117.5t-266 -43.5z" />
    <glyph glyph-name="Gbreve.ss03" horiz-adv-x="1599" 
d="M840 1538q-102 0 -178.5 24.5t-120 67t-65 93.5t-23.5 110h219q6 -44 49 -82.5t119 -38.5q77 0 119.5 39t46.5 82h223q-2 -59 -24.5 -110t-66.5 -93.5t-120.5 -67t-177.5 -24.5zM829 -33q-215 0 -382.5 88t-264 258t-96.5 398q0 210 97.5 383t271 272.5t385.5 99.5
q141 0 258 -35t198.5 -97t135.5 -138.5t84 -167.5l-293 -108q-100 288 -383 288q-192 0 -311 -133t-119 -364q0 -213 115.5 -349.5t305.5 -136.5q142 0 227.5 68.5t106.5 185.5h-407v258h741q9 -117 -9 -226.5t-69 -209t-129 -173.5t-197 -117.5t-266 -43.5z" />
    <glyph glyph-name="Gcircumflex.ss03" horiz-adv-x="1599" 
d="M395 1569l248 264h387l248 -264h-274l-166 145l-168 -145h-275zM829 -33q-215 0 -382.5 88t-264 258t-96.5 398q0 210 97.5 383t271 272.5t385.5 99.5q141 0 258 -35t198.5 -97t135.5 -138.5t84 -167.5l-293 -108q-100 288 -383 288q-192 0 -311 -133t-119 -364
q0 -213 115.5 -349.5t305.5 -136.5q142 0 227.5 68.5t106.5 185.5h-407v258h741q9 -117 -9 -226.5t-69 -209t-129 -173.5t-197 -117.5t-266 -43.5z" />
    <glyph glyph-name="uni0122.ss03" horiz-adv-x="1599" 
d="M829 -33q-215 0 -382.5 88t-264 258t-96.5 398q0 210 97.5 383t271 272.5t385.5 99.5q141 0 258 -35t198.5 -97t135.5 -138.5t84 -167.5l-293 -108q-100 288 -383 288q-192 0 -311 -133t-119 -364q0 -213 115.5 -349.5t305.5 -136.5q142 0 227.5 68.5t106.5 185.5h-407
v258h741q9 -117 -9 -226.5t-69 -209t-129 -173.5t-197 -117.5t-266 -43.5zM698 -686l168 287h-161v274h286v-274l-170 -287h-123z" />
    <glyph glyph-name="Gdotaccent.ss03" horiz-adv-x="1599" 
d="M684 1569v274h309v-274h-309zM829 -33q-215 0 -382.5 88t-264 258t-96.5 398q0 210 97.5 383t271 272.5t385.5 99.5q141 0 258 -35t198.5 -97t135.5 -138.5t84 -167.5l-293 -108q-100 288 -383 288q-192 0 -311 -133t-119 -364q0 -213 115.5 -349.5t305.5 -136.5
q142 0 227.5 68.5t106.5 185.5h-407v258h741q9 -117 -9 -226.5t-69 -209t-129 -173.5t-197 -117.5t-266 -43.5z" />
    <glyph glyph-name="a.ss01" horiz-adv-x="1284" 
d="M520 -33q-203 0 -323.5 150t-120.5 395t120.5 394t323.5 149q117 0 203 -51t129 -117v137h291v-1024h-283v137q-44 -65 -132.5 -117.5t-207.5 -52.5zM623 188q111 0 176 83t65 241t-65 241t-176 83q-110 0 -176 -77t-66 -247t66 -247t176 -77z" />
    <glyph glyph-name="aacute.ss01" horiz-adv-x="1284" 
d="M516 1159l102 316h318l-225 -316h-195zM520 -33q-203 0 -323.5 150t-120.5 395t120.5 394t323.5 149q117 0 203 -51t129 -117v137h291v-1024h-283v137q-44 -65 -132.5 -117.5t-207.5 -52.5zM623 188q111 0 176 83t65 241t-65 241t-176 83q-110 0 -176 -77t-66 -247
t66 -247t176 -77z" />
    <glyph glyph-name="abreve.ss01" horiz-adv-x="1284" 
d="M606 1128q-92 0 -161.5 24.5t-109.5 67t-59.5 93.5t-21.5 110h201q4 -43 43 -81.5t108 -38.5t108.5 38.5t43.5 81.5h203q-2 -59 -22.5 -110t-60.5 -93.5t-110 -67t-162 -24.5zM520 -33q-203 0 -323.5 150t-120.5 395t120.5 394t323.5 149q117 0 203 -51t129 -117v137h291
v-1024h-283v137q-44 -65 -132.5 -117.5t-207.5 -52.5zM623 188q111 0 176 83t65 241t-65 241t-176 83q-110 0 -176 -77t-66 -247t66 -247t176 -77z" />
    <glyph glyph-name="acircumflex.ss01" horiz-adv-x="1284" 
d="M207 1159l225 264h352l226 -264h-250l-152 146l-151 -146h-250zM520 -33q-203 0 -323.5 150t-120.5 395t120.5 394t323.5 149q117 0 203 -51t129 -117v137h291v-1024h-283v137q-44 -65 -132.5 -117.5t-207.5 -52.5zM623 188q111 0 176 83t65 241t-65 241t-176 83
q-110 0 -176 -77t-66 -247t66 -247t176 -77z" />
    <glyph glyph-name="adieresis.ss01" horiz-adv-x="1284" 
d="M248 1178v245h270v-245h-270zM698 1178v245h271v-245h-271zM520 -33q-203 0 -323.5 150t-120.5 395t120.5 394t323.5 149q117 0 203 -51t129 -117v137h291v-1024h-283v137q-44 -65 -132.5 -117.5t-207.5 -52.5zM623 188q111 0 176 83t65 241t-65 241t-176 83
q-110 0 -176 -77t-66 -247t66 -247t176 -77z" />
    <glyph glyph-name="uni0227.ss01" horiz-adv-x="1284" 
d="M453 1159v275h309v-275h-309zM520 -33q-203 0 -323.5 150t-120.5 395t120.5 394t323.5 149q117 0 203 -51t129 -117v137h291v-1024h-283v137q-44 -65 -132.5 -117.5t-207.5 -52.5zM623 188q111 0 176 83t65 241t-65 241t-176 83q-110 0 -176 -77t-66 -247t66 -247
t176 -77z" />
    <glyph glyph-name="uni1EA1.ss01" horiz-adv-x="1284" 
d="M520 -33q-203 0 -323.5 150t-120.5 395t120.5 394t323.5 149q117 0 203 -51t129 -117v137h291v-1024h-283v137q-44 -65 -132.5 -117.5t-207.5 -52.5zM623 188q111 0 176 83t65 241t-65 241t-176 83q-110 0 -176 -77t-66 -247t66 -247t176 -77zM442 -399v274h310v-274
h-310z" />
    <glyph glyph-name="agrave.ss01" horiz-adv-x="1284" 
d="M510 1159l-225 316h319l103 -316h-197zM520 -33q-203 0 -323.5 150t-120.5 395t120.5 394t323.5 149q117 0 203 -51t129 -117v137h291v-1024h-283v137q-44 -65 -132.5 -117.5t-207.5 -52.5zM623 188q111 0 176 83t65 241t-65 241t-176 83q-110 0 -176 -77t-66 -247
t66 -247t176 -77z" />
    <glyph glyph-name="amacron.ss01" horiz-adv-x="1284" 
d="M285 1186v196h647v-196h-647zM520 -33q-203 0 -323.5 150t-120.5 395t120.5 394t323.5 149q117 0 203 -51t129 -117v137h291v-1024h-283v137q-44 -65 -132.5 -117.5t-207.5 -52.5zM623 188q111 0 176 83t65 241t-65 241t-176 83q-110 0 -176 -77t-66 -247t66 -247
t176 -77z" />
    <glyph glyph-name="aogonek.ss01" horiz-adv-x="1284" 
d="M1143 0q-139 -36 -193.5 -79t-54.5 -85q0 -69 117 -69q53 0 131 20v-186q-92 -31 -172 -31q-130 0 -205.5 53.5t-75.5 151.5q0 132 191 225h-21v137q-44 -65 -132.5 -117.5t-207.5 -52.5q-203 0 -323.5 150t-120.5 395t120.5 394t323.5 149q117 0 203 -51t129 -117v137
h291v-1024zM623 188q111 0 176 83t65 241t-65 241t-176 83q-110 0 -176 -77t-66 -247t66 -247t176 -77z" />
    <glyph glyph-name="aring.ss01" horiz-adv-x="1284" 
d="M610 1128q-106 0 -183 70.5t-77 177.5t77.5 179.5t182.5 72.5t181.5 -72.5t76.5 -179.5q0 -108 -76 -178t-182 -70zM610 1276q41 0 69 27.5t28 72.5q0 44 -28.5 72.5t-68.5 28.5q-42 0 -70 -28.5t-28 -72.5q0 -45 28 -72.5t70 -27.5zM520 -33q-203 0 -323.5 150
t-120.5 395t120.5 394t323.5 149q117 0 203 -51t129 -117v137h291v-1024h-283v137q-44 -65 -132.5 -117.5t-207.5 -52.5zM623 188q111 0 176 83t65 241t-65 241t-176 83q-110 0 -176 -77t-66 -247t66 -247t176 -77z" />
    <glyph glyph-name="aringacute.ss01" horiz-adv-x="1284" 
d="M514 1667l102 252h318l-225 -252h-195zM616 1108q-106 0 -183 70.5t-77 177.5t77.5 179.5t182.5 72.5t181.5 -72.5t76.5 -179.5q0 -108 -76 -178t-182 -70zM616 1255q41 0 69 28t28 73q0 44 -28.5 72t-68.5 28q-42 0 -70 -28t-28 -72q0 -45 28 -73t70 -28zM520 -33
q-203 0 -323.5 150t-120.5 395t120.5 394t323.5 149q117 0 203 -51t129 -117v137h291v-1024h-283v137q-44 -65 -132.5 -117.5t-207.5 -52.5zM623 188q111 0 176 83t65 241t-65 241t-176 83q-110 0 -176 -77t-66 -247t66 -247t176 -77z" />
    <glyph glyph-name="atilde.ss01" horiz-adv-x="1284" 
d="M784 1139q-85 0 -176 53l-51 31q-65 37 -100 37q-75 0 -78 -101h-209q0 138 73.5 211.5t196.5 73.5q85 0 176 -53l52 -31q65 -37 100 -37q75 0 78 100h201q0 -150 -68 -217t-195 -67zM520 -33q-203 0 -323.5 150t-120.5 395t120.5 394t323.5 149q117 0 203 -51t129 -117
v137h291v-1024h-283v137q-44 -65 -132.5 -117.5t-207.5 -52.5zM623 188q111 0 176 83t65 241t-65 241t-176 83q-110 0 -176 -77t-66 -247t66 -247t176 -77z" />
    <glyph glyph-name="g.ss02" horiz-adv-x="1284" 
d="M590 -432q-457 0 -541 307l275 90q14 -38 32.5 -67.5t49 -58.5t78.5 -44.5t110 -15.5q130 0 198 78.5t68 199.5v121q-43 -64 -131 -114t-207 -50q-202 0 -324 144t-122 374q0 231 121.5 378t322.5 147q119 0 207 -51.5t133 -118.5v137h283v-948q0 -251 -144.5 -379.5
t-408.5 -128.5zM623 229q110 0 175.5 79t65.5 224t-66 225.5t-175 80.5t-175.5 -75t-66.5 -231t66.5 -229.5t175.5 -73.5z" />
    <glyph glyph-name="gbreve.ss02" horiz-adv-x="1284" 
d="M641 1128q-92 0 -161.5 24.5t-109.5 67t-59.5 93.5t-21.5 110h200q4 -43 43.5 -81.5t108.5 -38.5t108.5 38.5t43.5 81.5h202q-2 -59 -22.5 -110t-60.5 -93.5t-109.5 -67t-161.5 -24.5zM590 -432q-457 0 -541 307l275 90q14 -38 32.5 -67.5t49 -58.5t78.5 -44.5t110 -15.5
q130 0 198 78.5t68 199.5v121q-43 -64 -131 -114t-207 -50q-202 0 -324 144t-122 374q0 231 121.5 378t322.5 147q119 0 207 -51.5t133 -118.5v137h283v-948q0 -251 -144.5 -379.5t-408.5 -128.5zM623 229q110 0 175.5 79t65.5 224t-66 225.5t-175 80.5t-175.5 -75
t-66.5 -231t66.5 -229.5t175.5 -73.5z" />
    <glyph glyph-name="gcircumflex.ss02" horiz-adv-x="1284" 
d="M242 1159l225 264h352l225 -264h-249l-152 146l-151 -146h-250zM590 -432q-457 0 -541 307l275 90q14 -38 32.5 -67.5t49 -58.5t78.5 -44.5t110 -15.5q130 0 198 78.5t68 199.5v121q-43 -64 -131 -114t-207 -50q-202 0 -324 144t-122 374q0 231 121.5 378t322.5 147
q119 0 207 -51.5t133 -118.5v137h283v-948q0 -251 -144.5 -379.5t-408.5 -128.5zM623 229q110 0 175.5 79t65.5 224t-66 225.5t-175 80.5t-175.5 -75t-66.5 -231t66.5 -229.5t175.5 -73.5z" />
    <glyph glyph-name="uni0123.ss02" horiz-adv-x="1284" 
d="M786 1720l-168 -286h162v-275h-286v275l170 286h122zM590 -432q-457 0 -541 307l275 90q14 -38 32.5 -67.5t49 -58.5t78.5 -44.5t110 -15.5q130 0 198 78.5t68 199.5v121q-43 -64 -131 -114t-207 -50q-202 0 -324 144t-122 374q0 231 121.5 378t322.5 147
q119 0 207 -51.5t133 -118.5v137h283v-948q0 -251 -144.5 -379.5t-408.5 -128.5zM623 229q110 0 175.5 79t65.5 224t-66 225.5t-175 80.5t-175.5 -75t-66.5 -231t66.5 -229.5t175.5 -73.5z" />
    <glyph glyph-name="gdotaccent.ss02" horiz-adv-x="1284" 
d="M487 1159v275h310v-275h-310zM590 -432q-457 0 -541 307l275 90q14 -38 32.5 -67.5t49 -58.5t78.5 -44.5t110 -15.5q130 0 198 78.5t68 199.5v121q-43 -64 -131 -114t-207 -50q-202 0 -324 144t-122 374q0 231 121.5 378t322.5 147q119 0 207 -51.5t133 -118.5v137h283
v-948q0 -251 -144.5 -379.5t-408.5 -128.5zM623 229q110 0 175.5 79t65.5 224t-66 225.5t-175 80.5t-175.5 -75t-66.5 -231t66.5 -229.5t175.5 -73.5z" />
    <glyph glyph-name="i.loclTRK" horiz-adv-x="573" 
d="M129 1163v275h309v-275h-309zM139 0v1024h291v-1024h-291z" />
    <glyph glyph-name="zero.osf" horiz-adv-x="1343" 
d="M672 -33q-118 0 -226 41.5t-188 112.5t-128 173.5t-48 217.5q0 154 81.5 279.5t216 194.5t292.5 69t292.5 -69t216 -194.5t81.5 -279.5q0 -115 -48 -217.5t-128 -173.5t-188 -112.5t-226 -41.5zM672 195q120 0 204.5 82.5t84.5 234.5q0 148 -85.5 232.5t-203.5 84.5
t-203.5 -84.5t-85.5 -232.5q0 -152 84.5 -234.5t204.5 -82.5z" />
    <glyph glyph-name="one.osf" horiz-adv-x="862" 
d="M418 0v455v221q-59 -101 -154 -172.5t-194 -75.5v305q132 11 232 83t155 208h252v-1024h-291z" />
    <glyph glyph-name="two.osf" horiz-adv-x="1120" 
d="M104 -2v278q193 73 315.5 130t186.5 105t86.5 85.5t22.5 83.5q0 69 -42.5 107t-113.5 38q-48 0 -82.5 -19.5t-53 -53t-26.5 -70.5t-8 -78l-297 41q2 180 131.5 295t343.5 115q212 0 329.5 -96.5t117.5 -235.5q0 -76 -27 -133t-82 -111q-68 -65 -175 -121t-288 -133h355
h223v-227h-916z" />
    <glyph glyph-name="three.osf" horiz-adv-x="1214" 
d="M610 -432q-237 0 -383 123t-176 325l309 52q9 -125 71.5 -196t172.5 -71q104 0 167 52.5t63 144.5t-61 147.5t-167 55.5h-133v243h111q97 0 160 51t63 144q0 85 -57.5 135.5t-143.5 50.5q-97 0 -159 -60.5t-68 -174.5l-283 51q10 83 48.5 157.5t101.5 132.5t156.5 92
t205.5 34q220 0 354 -106t134 -263q0 -135 -70.5 -222t-189.5 -128q129 -31 213 -125.5t84 -230.5q0 -186 -141 -300t-382 -114z" />
    <glyph glyph-name="four.osf" horiz-adv-x="1304" 
d="M754 -399v399h-701v219l588 805h395v-797h215v-227h-215v-399h-282zM354 227h283h117v238v315z" />
    <glyph glyph-name="five.osf" horiz-adv-x="1183" 
d="M594 -432q-218 0 -353 101.5t-173 271.5l264 102q63 -238 250 -238q106 0 170.5 63t64.5 185q0 108 -66.5 176t-168.5 68q-71 0 -127 -29.5t-88 -77.5l-287 60l121 774h854v-242h-645l-39 -243l-21 -127q112 112 303 112q91 0 173.5 -30.5t147.5 -87t103.5 -145.5
t38.5 -198q0 -224 -143.5 -359.5t-378.5 -135.5z" />
    <glyph glyph-name="six.osf" horiz-adv-x="1257" 
d="M655 -33q-134 0 -243 53.5t-178.5 145.5t-106.5 211.5t-37 255.5q0 383 184.5 608t495.5 225q194 0 326 -53v-252q-154 62 -287 62q-97 0 -181 -35t-145.5 -98.5t-96.5 -157.5t-36 -207q37 97 139 158t236 61q90 0 172.5 -32.5t147 -91t103 -148.5t38.5 -197
q0 -226 -149.5 -367t-381.5 -141zM645 199q103 0 173.5 73.5t70.5 192.5q0 106 -71.5 176t-172.5 70q-103 0 -172.5 -69.5t-69.5 -176.5q0 -120 68.5 -193t173.5 -73z" />
    <glyph glyph-name="seven.osf" horiz-adv-x="1101" 
d="M254 -399q0 169 35 329t92.5 286.5t135.5 238t158.5 190.5t166.5 137h-371h-438v242h1028v-309q-251 -179 -383.5 -478t-132.5 -636h-291z" />
    <glyph glyph-name="eight.osf" horiz-adv-x="1236" 
d="M618 -33q-240 0 -385 118.5t-145 301.5q0 127 75 218t195 130q-229 111 -229 342q0 160 137 274.5t352 114.5q214 0 352 -114.5t138 -274.5q0 -231 -229 -342q120 -39 195 -130t75 -218q0 -183 -145 -301.5t-386 -118.5zM618 829q97 0 158.5 55.5t61.5 149.5
q0 86 -61.5 142.5t-158.5 56.5q-98 0 -158.5 -56.5t-60.5 -142.5q0 -94 60.5 -149.5t158.5 -55.5zM618 201q111 0 172.5 57.5t61.5 161.5q0 96 -63.5 157.5t-170.5 61.5q-110 0 -171.5 -61t-61.5 -158q0 -105 60.5 -162t172.5 -57z" />
    <glyph glyph-name="nine.osf" horiz-adv-x="1275" 
d="M506 -432q-194 0 -326 53v256q152 -61 287 -61q98 0 181.5 32.5t145 93t96.5 153.5t36 208q-37 -97 -137.5 -158t-231.5 -61q-92 0 -176 32t-149.5 90t-104.5 149t-39 200q0 220 150.5 360t382.5 140q138 0 248 -52.5t180.5 -144t107.5 -211.5t37 -258
q0 -381 -187.5 -601t-500.5 -220zM631 317q103 0 172 68.5t69 173.5q0 121 -68 193.5t-173 72.5q-103 0 -173.5 -73t-70.5 -193q0 -104 71.5 -173t172.5 -69z" />
    <glyph glyph-name="zero.tf" 
d="M635 -33q-265 0 -429.5 197.5t-164.5 550.5q0 177 44.5 319.5t123.5 236.5t188 144.5t238 50.5t238 -50.5t188 -144.5t123.5 -236.5t44.5 -319.5q0 -353 -164.5 -550.5t-429.5 -197.5zM635 225q59 0 107 25t87 80t60.5 152.5t21.5 232.5q0 134 -21.5 232t-60.5 153.5
t-87 81.5t-107 26q-124 0 -200.5 -117.5t-76.5 -375.5q0 -134 21.5 -231.5t61 -152.5t87.5 -80.5t107 -25.5z" />
    <glyph glyph-name="one.tf" 
d="M877 260h299v-260h-1024v260h434v621v200q-65 -103 -167.5 -175.5t-215.5 -76.5v310q147 11 257 84.5t165 210.5h252v-1174z" />
    <glyph glyph-name="two.tf" 
d="M113 0v315q186 107 312.5 189t209 147t127 123t61.5 107t17 108q0 99 -59.5 159t-149.5 60q-66 0 -113 -27t-71 -73.5t-35 -95t-13 -105.5l-297 47q2 97 35.5 186t96 163t167.5 118.5t238 44.5q240 0 377 -123t137 -325q0 -196 -119 -342q-85 -107 -241 -205t-400 -213
h420h346v-258h-1046z" />
    <glyph glyph-name="three.tf" 
d="M629 -33q-239 0 -381.5 117t-173.5 326l305 63q14 -121 77.5 -186.5t172.5 -65.5q103 0 164 50.5t61 136.5q0 88 -59.5 141t-165.5 53h-133v244h133q85 0 142.5 50t57.5 134q0 83 -57 132.5t-143 49.5q-91 0 -146 -59t-61 -162l-297 45q20 188 151 309t353 121
q227 0 361 -106.5t134 -274.5q0 -132 -72 -218t-192 -124q136 -29 217.5 -125t81.5 -225q0 -196 -142.5 -311t-387.5 -115z" />
    <glyph glyph-name="four.tf" 
d="M711 0v342h-639v256l516 836h387v-848h196v-244h-196v-342h-264zM711 586v147v455l-377 -602h272h105z" />
    <glyph glyph-name="five.tf" 
d="M637 -33q-215 0 -358 104.5t-181 274.5l271 92q26 -94 90 -155.5t166 -61.5q104 0 168.5 62.5t64.5 175.5q0 109 -65 174t-168 65q-72 0 -128 -32.5t-87 -90.5l-283 60l121 799h862v-258h-653l-37 -246q-13 -76 -19 -117q109 94 295 94q96 0 179.5 -29t147.5 -84.5
t101 -144t37 -198.5q0 -219 -139.5 -351.5t-384.5 -132.5z" />
    <glyph glyph-name="six.tf" 
d="M668 -33q-140 0 -252.5 56t-184.5 152t-110.5 221t-38.5 266q0 379 188 591.5t523 212.5q96 0 182 -18t133 -39v-279q-159 64 -305 64q-88 0 -164.5 -29.5t-136 -86t-94 -146.5t-35.5 -203q38 96 133.5 156.5t224.5 60.5q95 0 179.5 -31.5t149 -90t102.5 -148.5t38 -199
q0 -229 -147.5 -369.5t-384.5 -140.5zM657 221q102 0 172 69.5t70 180.5t-70 180.5t-172 69.5q-104 0 -172.5 -69t-68.5 -181t68.5 -181t172.5 -69z" />
    <glyph glyph-name="seven.tf" 
d="M322 0q0 169 39 328.5t100.5 283t146 235t167 189t171.5 140.5h-342h-479v258h1028v-328q-252 -181 -384 -474.5t-132 -631.5h-315z" />
    <glyph glyph-name="eight.tf" 
d="M633 -33q-246 0 -394.5 113t-148.5 307q0 132 87.5 227.5t203.5 118.5q-252 97 -252 344q0 162 139 275.5t365 113.5q227 0 368.5 -113.5t141.5 -275.5q0 -136 -64.5 -218t-185.5 -126q119 -23 202 -117.5t83 -228.5q0 -193 -149 -306.5t-396 -113.5zM637 829
q95 0 157 54t62 145q0 86 -61.5 140.5t-157.5 54.5q-97 0 -159 -54.5t-62 -140.5q0 -92 62.5 -145.5t158.5 -53.5zM633 221q110 0 173.5 56.5t63.5 152.5q0 93 -64.5 151t-172.5 58q-107 0 -171.5 -58t-64.5 -151q0 -95 64.5 -152t171.5 -57z" />
    <glyph glyph-name="nine.tf" 
d="M483 -33q-191 0 -333 56v288q89 -34 162.5 -49.5t168.5 -15.5q151 0 267 96q138 119 141 363q-41 -88 -137.5 -143.5t-225.5 -55.5q-123 0 -223.5 51.5t-162.5 155.5t-62 243q0 228 145 369t373 141q224 0 399 -163q185 -174 185 -531q0 -384 -186 -594.5t-511 -210.5z
M610 733q100 0 166 66.5t66 173.5t-66 173t-166 66q-98 0 -164.5 -66.5t-66.5 -172.5q0 -107 66.5 -173.5t164.5 -66.5z" />
    <glyph glyph-name="zero.subs" horiz-adv-x="878" 
d="M438 -240q-161 0 -256.5 116.5t-95.5 311.5q0 197 95.5 315t256.5 118q162 0 258.5 -118t96.5 -315q0 -195 -96 -311.5t-259 -116.5zM438 -51q117 0 117 239q0 118 -30.5 181t-86.5 63q-54 0 -84 -63t-30 -181q0 -117 29 -178t85 -61z" />
    <glyph glyph-name="one.subs" horiz-adv-x="630" 
d="M274 -221v327v220q-40 -57 -94.5 -79.5t-111.5 -17.5v213q182 -3 237 160h193v-823h-224z" />
    <glyph glyph-name="two.subs" horiz-adv-x="819" 
d="M94 -221v207q234 133 312.5 204t78.5 148q0 43 -22.5 68.5t-61.5 25.5q-49 0 -73.5 -41.5t-22.5 -114.5l-221 23q0 143 90 232.5t236 89.5q141 0 226 -72.5t85 -188.5q0 -107 -76 -206q-75 -97 -280 -187h268h90v-188h-629z" />
    <glyph glyph-name="three.subs" horiz-adv-x="811" 
d="M406 -240q-144 0 -235 71t-103 192l223 45q19 -121 112 -121q42 0 67.5 20.5t25.5 59.5q0 77 -107 77h-53v181h53q45 0 68.5 20t23.5 55q0 32 -20.5 53t-54.5 21q-40 0 -62 -31.5t-22 -85.5l-226 31q6 122 92 197.5t218 75.5q133 0 217 -63t84 -163q0 -63 -37 -112.5
t-107 -75.5q162 -52 162 -201q0 -109 -87.5 -177.5t-231.5 -68.5z" />
    <glyph glyph-name="four.subs" horiz-adv-x="849" 
d="M424 -240q-144 0 -235 71t-103 192l223 45q19 -121 113 -121q42 0 67 20.5t25 59.5q0 77 -106 77h-54v181h54q45 0 68.5 20t23.5 55q0 32 -21 53t-55 21q-40 0 -62 -31.5t-22 -85.5l-225 31q6 122 91.5 197.5t217.5 75.5q133 0 217 -63t84 -163q0 -63 -36.5 -112.5
t-106.5 -75.5q161 -52 161 -201q0 -109 -87.5 -177.5t-231.5 -68.5z" />
    <glyph glyph-name="five.subs" horiz-adv-x="813" 
d="M403 -240q-136 0 -223.5 63.5t-107.5 174.5l211 57q11 -50 40.5 -79t73.5 -29q45 0 75 28t30 76q0 47 -27 76t-69 29q-58 0 -95 -60l-207 43l72 463h526v-188h-356l-6 -45l-12 -109q47 57 141 57q114 0 188 -75t74 -195q0 -130 -91 -208.5t-237 -78.5z" />
    <glyph glyph-name="six.subs" horiz-adv-x="833" 
d="M430 -240q-156 0 -251 108.5t-95 285.5q0 216 110 341.5t304 125.5q58 0 115.5 -13.5t86.5 -29.5v-207q-103 53 -211 53q-73 0 -125 -40.5t-55 -125.5q24 37 69.5 58.5t96.5 21.5q120 0 197.5 -78t77.5 -199q0 -133 -89.5 -217t-230.5 -84zM424 -53q43 0 70.5 31.5
t27.5 78.5q0 49 -27.5 80t-70.5 31t-70.5 -31t-27.5 -80t27.5 -79.5t70.5 -30.5z" />
    <glyph glyph-name="seven.subs" horiz-adv-x="749" 
d="M172 -221q-6 189 77 360.5t243 274.5h-136h-290v188h620v-213q-135 -89 -209 -252t-69 -358h-236z" />
    <glyph glyph-name="eight.subs" horiz-adv-x="823" 
d="M410 -240q-151 0 -238.5 65t-87.5 179q0 71 47.5 122t116.5 77q-57 21 -99.5 69.5t-42.5 120.5q0 98 83 163t221 65t223.5 -65.5t85.5 -162.5q0 -73 -41.5 -121.5t-99.5 -68.5q73 -25 116 -75.5t43 -123.5q0 -114 -88 -179t-239 -65zM412 276q40 0 63 22t23 60
q0 36 -23.5 58t-62.5 22q-40 0 -63 -21.5t-23 -58.5q0 -38 23 -60t63 -22zM410 -53q46 0 71 23.5t25 64.5t-25 64.5t-71 23.5q-44 0 -69.5 -23.5t-25.5 -64.5t25.5 -64.5t69.5 -23.5z" />
    <glyph glyph-name="nine.subs" horiz-adv-x="831" 
d="M338 -240q-124 0 -213 41v211q70 -30 113 -40.5t98 -10.5q102 0 158 62q46 49 43 129q-60 -101 -185 -101q-115 0 -190.5 75t-75.5 193q0 132 86.5 217t224.5 85q131 0 236 -97q112 -103 112 -309q0 -216 -106.5 -335.5t-300.5 -119.5zM406 223q41 0 66.5 30t25.5 77
q0 46 -25.5 75t-66.5 29q-40 0 -66.5 -29.5t-26.5 -74.5q0 -47 26.5 -77t66.5 -30z" />
    <glyph glyph-name="zero.dnom" horiz-adv-x="878" 
d="M438 -18q-161 0 -256.5 116.5t-95.5 311.5q0 197 95.5 314.5t256.5 117.5q162 0 258.5 -117.5t96.5 -314.5q0 -195 -96 -311.5t-259 -116.5zM438 170q117 0 117 240q0 118 -30.5 180.5t-86.5 62.5q-54 0 -84 -62.5t-30 -180.5q0 -117 29 -178.5t85 -61.5z" />
    <glyph glyph-name="one.dnom" horiz-adv-x="630" 
d="M274 0v328v219q-75 -108 -206 -96v213q182 -3 237 159h193v-823h-224z" />
    <glyph glyph-name="two.dnom" horiz-adv-x="819" 
d="M96 0v207q234 133 312.5 204t78.5 148q0 43 -22.5 68.5t-61.5 25.5q-49 0 -73.5 -41t-22.5 -114l-221 22q0 143 90 232.5t236 89.5q141 0 226 -72t85 -188q0 -108 -76 -207q-75 -97 -280 -187h268h90v-188h-629z" />
    <glyph glyph-name="three.dnom" horiz-adv-x="811" 
d="M406 -18q-144 0 -235 71t-103 191l223 45q19 -121 112 -121q42 0 67.5 20.5t25.5 59.5q0 78 -107 78h-53v180h53q45 0 68.5 20.5t23.5 55.5q0 32 -20.5 52.5t-54.5 20.5q-40 0 -62 -31t-22 -85l-226 30q6 122 92 197.5t218 75.5q133 0 217 -63t84 -163q0 -63 -37 -112.5
t-107 -75.5q162 -52 162 -201q0 -109 -87.5 -177t-231.5 -68z" />
    <glyph glyph-name="four.dnom" horiz-adv-x="849" 
d="M449 0v184h-386v168l320 471h274v-458h115v-181h-115v-184h-208zM449 365v55v186l-164 -241h116h48z" />
    <glyph glyph-name="five.dnom" horiz-adv-x="813" 
d="M403 -18q-136 0 -223.5 63t-107.5 174l211 57q11 -50 40.5 -79t73.5 -29q45 0 75 28t30 76q0 47 -27 76t-69 29q-58 0 -95 -60l-207 43l72 463h526v-188h-356l-6 -45l-12 -109q47 58 141 58q114 0 188 -75.5t74 -195.5q0 -129 -91 -207.5t-237 -78.5z" />
    <glyph glyph-name="six.dnom" horiz-adv-x="833" 
d="M430 -18q-157 0 -251.5 108t-94.5 285q0 216 110 341.5t304 125.5q58 0 115.5 -13.5t86.5 -29.5v-207q-103 53 -211 53q-73 0 -125 -40.5t-55 -125.5q24 37 69.5 58.5t96.5 21.5q120 0 197.5 -77.5t77.5 -198.5q0 -133 -89.5 -217t-230.5 -84zM424 168q43 0 70.5 31.5
t27.5 79.5q0 49 -27.5 79.5t-70.5 30.5t-70.5 -30.5t-27.5 -79.5t27.5 -80t70.5 -31z" />
    <glyph glyph-name="seven.dnom" horiz-adv-x="749" 
d="M172 0q-6 189 77 360.5t243 274.5h-136h-290v188h620v-213q-135 -89 -209 -252t-69 -358h-236z" />
    <glyph glyph-name="eight.dnom" horiz-adv-x="823" 
d="M410 -18q-151 0 -238.5 64.5t-87.5 178.5q0 71 47.5 122t116.5 77q-57 21 -99.5 69.5t-42.5 120.5q0 98 83 163t221 65t223.5 -65.5t85.5 -162.5q0 -73 -41.5 -121.5t-99.5 -68.5q73 -25 116 -75.5t43 -123.5q0 -114 -88 -178.5t-239 -64.5zM412 498q40 0 63 22t23 60
q0 36 -23.5 57.5t-62.5 21.5q-40 0 -63 -21t-23 -58q0 -38 23 -60t63 -22zM410 168q46 0 71 23.5t25 64.5t-25 64.5t-71 23.5q-44 0 -69.5 -23.5t-25.5 -64.5t25.5 -64.5t69.5 -23.5z" />
    <glyph glyph-name="nine.dnom" horiz-adv-x="831" 
d="M338 -18q-124 0 -213 41v210q70 -30 113 -40.5t98 -10.5q102 0 158 62q46 49 43 129q-60 -101 -185 -101q-115 0 -190.5 75.5t-75.5 193.5q0 132 86.5 216.5t224.5 84.5q131 0 236 -97q112 -103 112 -309q0 -216 -106 -335t-301 -119zM406 444q41 0 66.5 30t25.5 77
q0 46 -25.5 75t-66.5 29q-40 0 -66.5 -29.5t-26.5 -74.5q0 -47 26.5 -77t66.5 -30z" />
    <glyph glyph-name="zero.numr" horiz-adv-x="878" 
d="M438 592q-161 0 -256.5 116.5t-95.5 311.5q0 197 95.5 314.5t256.5 117.5q162 0 258.5 -117.5t96.5 -314.5q0 -195 -96 -311.5t-259 -116.5zM438 780q117 0 117 240q0 118 -30.5 181t-86.5 63q-54 0 -84 -63t-30 -181q0 -117 29 -178.5t85 -61.5z" />
    <glyph glyph-name="one.numr" horiz-adv-x="630" 
d="M274 610v328v219q-75 -108 -206 -96v213q182 -3 237 160h193v-824h-224z" />
    <glyph glyph-name="two.numr" horiz-adv-x="819" 
d="M96 610v207q234 133 312.5 204t78.5 148q0 43 -22.5 69t-61.5 26q-49 0 -73.5 -41.5t-22.5 -114.5l-221 22q0 143 90 232.5t236 89.5q141 0 226 -72t85 -188q0 -108 -76 -207q-74 -96 -280 -186h268h90v-189h-629z" />
    <glyph glyph-name="three.numr" horiz-adv-x="811" 
d="M406 592q-144 0 -235 71t-103 191l223 45q19 -121 112 -121q42 0 67.5 20.5t25.5 59.5q0 78 -107 78h-53v180h53q45 0 68.5 20.5t23.5 55.5q0 32 -20.5 53t-54.5 21q-40 0 -62 -31.5t-22 -85.5l-226 31q6 121 92 196.5t218 75.5q133 0 217 -62.5t84 -162.5
q0 -63 -37 -113t-107 -76q162 -52 162 -200q0 -109 -87.5 -177.5t-231.5 -68.5z" />
    <glyph glyph-name="four.numr" horiz-adv-x="849" 
d="M451 610v185h-385v168l319 471h274v-459h115v-180h-115v-185h-208zM451 975v55v187l-164 -242h116h48z" />
    <glyph glyph-name="five.numr" horiz-adv-x="813" 
d="M403 592q-136 0 -223.5 63t-107.5 174l211 58q11 -50 40.5 -79.5t73.5 -29.5t74.5 28.5t30.5 76.5q0 47 -27 75.5t-69 28.5q-59 0 -95 -59l-207 43l72 463h526v-189h-356l-6 -45l-12 -108q47 57 141 57q114 0 188 -75t74 -195q0 -130 -91 -208.5t-237 -78.5z" />
    <glyph glyph-name="six.numr" horiz-adv-x="833" 
d="M430 592q-157 0 -251.5 108t-94.5 285q0 216 110 341.5t304 125.5q58 0 115.5 -13.5t86.5 -29.5v-207q-103 53 -211 53q-73 0 -125 -40t-55 -125q24 37 69.5 58t96.5 21q120 0 197.5 -77.5t77.5 -198.5q0 -133 -89.5 -217t-230.5 -84zM424 778q43 0 70.5 31.5t27.5 79.5
q0 49 -27.5 79.5t-70.5 30.5t-70.5 -30.5t-27.5 -79.5t27.5 -80t70.5 -31z" />
    <glyph glyph-name="seven.numr" horiz-adv-x="749" 
d="M172 610q-6 189 77 360.5t243 274.5h-136h-290v189h620v-213q-135 -89 -209 -252t-69 -359h-236z" />
    <glyph glyph-name="eight.numr" horiz-adv-x="823" 
d="M410 592q-151 0 -238.5 65t-87.5 179q0 71 47 121.5t117 76.5q-56 21 -99 70t-43 121q0 98 83 162.5t221 64.5t223.5 -65t85.5 -162q0 -73 -42 -122t-99 -69q73 -25 116 -75t43 -123q0 -114 -88 -179t-239 -65zM412 1108q40 0 63 22t23 60q0 36 -23.5 58t-62.5 22
q-40 0 -63 -21.5t-23 -58.5q0 -38 23 -60t63 -22zM410 778q46 0 71 23.5t25 64.5t-25 64.5t-71 23.5q-44 0 -69.5 -23.5t-25.5 -64.5t25.5 -64.5t69.5 -23.5z" />
    <glyph glyph-name="nine.numr" horiz-adv-x="831" 
d="M338 592q-124 0 -213 41v211q70 -30 113 -40.5t98 -10.5q103 0 158 61q46 49 43 129q-60 -100 -185 -100q-115 0 -190.5 75t-75.5 193q0 132 86.5 216.5t224.5 84.5q132 0 236 -96q112 -103 112 -309q0 -216 -106.5 -335.5t-300.5 -119.5zM406 1055q41 0 66.5 29.5
t25.5 76.5q0 46 -25.5 75.5t-66.5 29.5q-40 0 -66.5 -29.5t-26.5 -75.5q0 -47 26.5 -76.5t66.5 -29.5z" />
    <glyph glyph-name="exclamdown.case" horiz-adv-x="628" 
d="M485 1434v-322h-340v322h340zM381 920l96 -594v-326h-323v326l94 594h133z" />
    <glyph glyph-name="questiondown.case" horiz-adv-x="1107" 
d="M741 1434v-322h-338v322h338zM709 920q0 -72 -12 -124.5t-41 -93.5t-58 -67.5t-82 -65.5q-63 -46 -97 -90t-34 -106q0 -73 48 -116.5t128 -43.5q184 0 199 258l287 -45q-9 -211 -137 -334t-357 -123q-119 0 -212.5 32t-148.5 86.5t-83.5 120.5t-28.5 140q0 68 18.5 124.5
t56.5 102t72.5 75.5t89.5 69q123 90 123 201h269z" />
    <glyph glyph-name="period.tf" 
d="M432 0v389h406v-389h-406z" />
    <glyph glyph-name="comma.tf" 
d="M426 -406l236 406h-228v389h406v-389l-240 -406h-174z" />
    <glyph glyph-name="colon.tf" 
d="M432 780v389h406v-389h-406zM432 0v389h406v-389h-406z" />
    <glyph glyph-name="semicolon.tf" 
d="M434 780v389h406v-389h-406zM426 -406l236 406h-228v389h406v-389l-240 -406h-174z" />
    <glyph glyph-name="numbersign.tf" 
d="M133 0l21 100q10 51 53 246h-150h-12v234h211l57 272h-207v256h261l69 326h250l-20 -93l-50 -233h187h18l70 326h248l-21 -101l-49 -225h137h19v-256h-209l-58 -272h205v-234h-254l-73 -346h-250l20 100q10 51 53 246h-184h-18l-74 -346h-250zM506 580h203l57 272h-203z
" />
    <glyph glyph-name="parenleft.case" horiz-adv-x="718" 
d="M657 -225q-125 12 -224 74t-162 153.5t-105 213t-59 246t-17 259.5q0 112 12.5 219t38.5 213t71.5 195t106 159.5t147.5 113t191 48.5v-250q-73 -14 -128.5 -61.5t-87.5 -113t-52 -157t-26.5 -177.5t-6.5 -189q0 -102 6.5 -188t26.5 -177t52 -156.5t87.5 -114
t128.5 -62.5v-248z" />
    <glyph glyph-name="parenright.case" horiz-adv-x="720" 
d="M63 1669q125 -12 224 -74t162 -153.5t105 -212.5t59.5 -246t17.5 -260q0 -136 -17.5 -262.5t-59.5 -250t-105 -216t-162.5 -152.5t-223.5 -67v250q62 11 110.5 45.5t81 87.5t55 115.5t34 140.5t16.5 151t5 158q0 84 -5 157t-16.5 150.5t-34 140t-55 116t-81 88
t-110.5 46.5v248z" />
    <glyph glyph-name="braceleft.case" horiz-adv-x="776" 
d="M545 -205q-167 0 -234 70t-67 225v334q0 106 -43.5 143t-137.5 37v234q48 0 77.5 5t55.5 21t37 49t11 86v355q0 155 67 225t234 70h166v-217h-72q-67 0 -98 -28.5t-31 -103.5v-299q0 -57 -16.5 -102.5t-39.5 -72.5t-61 -49t-67 -32t-72 -22q31 -9 51 -15.5t49.5 -19.5
t49 -26.5t41.5 -35t35 -46.5t21.5 -60.5t8.5 -77.5v-297q0 -76 31 -104.5t98 -28.5h72v-217h-166z" />
    <glyph glyph-name="braceright.case" horiz-adv-x="776" 
d="M231 1649q167 0 234 -70t67 -225v-334q0 -106 43.5 -143t137.5 -37v-234q-48 0 -77.5 -5t-55.5 -21.5t-37 -49.5t-11 -86v-354q0 -155 -67 -225t-234 -70h-165v217h71q67 0 98 28t31 103v299q0 57 16.5 102.5t39.5 73t61 49.5t67.5 32.5t71.5 21.5q-36 10 -59.5 18.5
t-57.5 24t-55 35t-42.5 47.5t-31.5 67t-10 88v297q0 76 -31 105t-98 29h-71v217h165z" />
    <glyph glyph-name="bracketleft.case" horiz-adv-x="763" 
d="M178 -205v1854h524v-226h-258v-1403h258v-225h-524z" />
    <glyph glyph-name="bracketright.case" horiz-adv-x="763" 
d="M586 1649v-1854h-525v225h258v1403h-258v226h525z" />
    <glyph glyph-name="angleleft.case" horiz-adv-x="784" 
d="M332 731l418 -825l-242 -131l-469 946l471 948l238 -133z" />
    <glyph glyph-name="angleright.case" horiz-adv-x="786" 
d="M279 1669l469 -946l-472 -948l-237 133l416 805l-418 825z" />
    <glyph glyph-name="uni3010.case" horiz-adv-x="817" 
d="M178 -205v1854h649q-199 -225 -291 -448t-92 -476q0 -251 91.5 -477t291.5 -453h-649z" />
    <glyph glyph-name="uni3011.case" horiz-adv-x="817" 
d="M639 1649v-1854h-649q199 225 291 448t92 476q0 251 -91.5 477t-291.5 453h649z" />
    <glyph glyph-name="uni300C.case" horiz-adv-x="796" 
d="M152 725v924h610v-226h-344v-698h-266z" />
    <glyph glyph-name="uni300D.case" horiz-adv-x="786" 
d="M643 719v-924h-610v225h344v699h266z" />
    <glyph glyph-name="uni300A.case" horiz-adv-x="1316" 
d="M748 1536l-416 -805l418 -825l-242 -131l-469 948l471 946zM864 731l418 -825l-242 -131l-469 948l471 946l238 -133z" />
    <glyph glyph-name="uni300B.case" horiz-adv-x="1318" 
d="M279 1671l469 -948l-472 -946l-237 133l416 805l-418 825zM811 1671l469 -948l-471 -946l-238 133l416 805l-418 825z" />
    <glyph glyph-name="uni3014.case" horiz-adv-x="733" 
d="M383 311l319 -360l-196 -176l-389 432v1032l391 430l190 -178l-315 -336v-844z" />
    <glyph glyph-name="uni3015.case" horiz-adv-x="731" 
d="M225 1669l389 -432v-1032l-391 -430l-190 178l315 336v844l-319 360z" />
    <glyph glyph-name="uni300E.case" horiz-adv-x="1161" 
d="M176 500v1149h914v-533h-347v-616h-567zM401 705h138v606h325v133h-463v-739z" />
    <glyph glyph-name="uni300F.case" horiz-adv-x="1148" 
d="M985 942v-1149h-913v533h346v616h567zM760 737h-137v-606h-326v-133h463v739z" />
    <glyph glyph-name="hyphen.case" horiz-adv-x="991" 
d="M131 623v266h729v-266h-729z" />
    <glyph glyph-name="uni00AD.case" horiz-adv-x="991" 
d="M131 623v266h729v-266h-729z" />
    <glyph glyph-name="endash.case" horiz-adv-x="1343" 
d="M135 637v233h1073v-233h-1073z" />
    <glyph glyph-name="emdash.case" horiz-adv-x="1855" 
d="M135 639v233h1585v-233h-1585z" />
    <glyph glyph-name="guillemotleft.case" horiz-adv-x="1273" 
d="M670 1188l-295 -488l293 -489h-308l-288 489l290 488h308zM1171 1188l-294 -488l292 -489h-307l-289 491l291 486h307z" />
    <glyph glyph-name="guillemotright.case" horiz-adv-x="1273" 
d="M412 1188l288 -492l-290 -485h-308l295 487l-293 490h308zM913 1188l289 -490l-291 -487h-307l295 487l-293 490h307z" />
    <glyph glyph-name="guilsinglleft.case" horiz-adv-x="772" 
d="M670 1188l-295 -488l293 -489h-308l-288 489l290 488h308z" />
    <glyph glyph-name="guilsinglright.case" horiz-adv-x="772" 
d="M412 1188l288 -490l-290 -487h-308l295 487l-293 490h308z" />
    <glyph glyph-name="space.tf" 
 />
    <glyph glyph-name="uni20BF.tf" 
d="M1268 399q0 -161 -117.5 -266t-308.5 -127v-219h-189v213h-98v-213h-188v213h-263v1434h263v202h188v-202h98v202h189v-209q184 -20 281.5 -110t97.5 -230q0 -123 -73 -210t-210 -127q153 -26 241.5 -123t88.5 -228zM909 1022q0 83 -55 118.5t-162 35.5h-276v-310h276
q217 0 217 156zM696 258q250 0 250 178q0 92 -67.5 136t-182.5 44h-280v-358h280z" />
    <glyph glyph-name="cent.tf" 
d="M565 -244v219q-199 31 -321.5 179.5t-122.5 369.5q0 219 123 365.5t321 179.5v219h174v-215q152 -18 260.5 -102.5t155.5 -208.5l-268 -103q-46 131 -148 170v-342v-274q106 37 158 188l274 -100q-53 -136 -166.5 -223.5t-265.5 -106.5v-215h-174zM565 221v324v278
q-141 -59 -141 -299q0 -239 141 -303z" />
    <glyph glyph-name="currency.tf" 
d="M258 147l-199 199l158 156q-57 96 -57 219q0 117 55 221l-156 158l199 196l162 -161q102 51 217 51q122 0 213 -51l162 161l198 -196l-155 -158q57 -96 57 -221q0 -114 -57 -221l155 -154l-198 -199l-160 162q-102 -51 -215 -51q-115 0 -217 51zM637 504q92 0 150.5 64
t58.5 153q0 91 -58 155t-151 64t-152 -64.5t-59 -154.5q0 -89 59 -153t152 -64z" />
    <glyph glyph-name="dollar.tf" 
d="M553 -203v176q-105 12 -191.5 51.5t-146 99.5t-98.5 130.5t-58 151.5l258 98q19 -99 78 -177.5t158 -105.5v381l-43 8q-89 17 -156.5 47.5t-120.5 80.5t-80.5 125.5t-27.5 174.5q0 105 47.5 194t146 152t234.5 78v174h186v-176q180 -26 289 -129t150 -244l-246 -98
q-55 174 -193 219v-352l54 -12q82 -19 149 -50.5t125.5 -81.5t91.5 -127t33 -173q0 -84 -27.5 -157.5t-82 -133.5t-142.5 -99.5t-201 -50.5v-174h-186zM553 891v98v228q-73 -18 -109 -63t-36 -99q0 -67 36.5 -105.5t108.5 -58.5zM739 217q84 17 126 64.5t42 115.5
q0 65 -44 109t-124 63v-133v-219z" />
    <glyph glyph-name="Euro.tf" 
d="M707 -33q-190 0 -324 130t-178 354h-133v184h106q-6 71 0 141h-106v185h127q48 235 182.5 370t325.5 135q199 0 330.5 -115t172.5 -327l-270 -61q-21 105 -80.5 175t-154.5 70q-173 0 -218 -247h158h82v-185h-256q-6 -70 0 -141h256v-184h-82h-151q22 -108 76 -166
t135 -58q96 0 150.5 69.5t84.5 199.5l277 -84q-66 -225 -188.5 -335t-321.5 -110z" />
    <glyph glyph-name="liraturkish.tf" 
d="M289 0v152v260q-60 -33 -127 -68l-66 -35v244l193 102v136l-193 -103v244l193 102v410h295v-115v-139q19 10 51 27t76.5 40t74.5 39l185 99v-242l-387 -205v-137l387 205v-242l-387 -205v-293h39q116 0 214 98.5t144 258.5l266 -135q-27 -80 -65 -148t-101.5 -134.5
t-143.5 -112.5t-195 -74.5t-253 -28.5h-200z" />
    <glyph glyph-name="uni20BD.tf" 
d="M727 559h-217v-113h420v-213h-420v-233h-287v233h-139v213h139v113h-139v234h139v641h502q216 0 349.5 -123t133.5 -330q0 -189 -134 -305.5t-347 -116.5zM510 1176v-383h174q104 0 165.5 51t61.5 137q0 90 -61 142.5t-166 52.5h-174z" />
    <glyph glyph-name="rupeeindian.tf" 
d="M1176 1219h-160h-221q94 -28 139 -113h242v-205h-226q-26 -101 -108.5 -172.5t-220.5 -93.5q262 -24 319 -289l76 -346h-332l-59 319q-24 127 -80 176.5t-187 49.5h-233v254h311q67 0 119.5 26t79.5 76h-510v205h522q-48 113 -211 113h-311v215h1051v-215z" />
    <glyph glyph-name="sterling.tf" 
d="M750 258h409v-258h-1020v268q27 9 50.5 18.5t65 31.5t70 46t50.5 61.5t22 78.5q0 50 -20 98h-234v182h113q-78 114 -78 240q0 104 40.5 189.5t109.5 139.5t156.5 83.5t183.5 29.5q80 0 157 -24.5t144.5 -72t115 -127.5t62.5 -181l-295 -70q-14 113 -69 167t-128 54
q-83 0 -132.5 -48.5t-49.5 -135.5q0 -60 25 -116.5t71 -127.5h303v-182h-221q2 -14 2 -47q0 -115 -48.5 -183t-139.5 -114h285z" />
    <glyph glyph-name="uni20A9.tf" 
d="M1214 791h-147l-14 -142h161v-184h-180l-45 -465h-297l-18 238q-17 227 -39 448l-45 -448l-23 -238h-301l-39 465h-172v184h156l-12 142h-144v184h127l-39 459h238l10 -273q16 -466 37 -897q32 331 59 549l27 223h244l22 -223l54 -549q33 616 45 881l12 289h239l-45 -459
h129v-184z" />
    <glyph glyph-name="yen.tf" 
d="M1305 1434l-396 -615h244v-182h-358v-145h358v-183h-358v-309h-312v309h-362v183h362v145h-362v182h244l-402 615h359l163 -279q109 -182 160 -272q49 92 154 278l155 273h351z" />
    <glyph glyph-name="multiply.case.tf" 
d="M285 201l-164 164l348 348l-350 350l166 166l350 -350l348 348l164 -164l-348 -348l348 -348l-166 -166l-348 348z" />
    <glyph glyph-name="plus.tf" 
d="M512 180v420h-420v246h420v420h246v-420h420v-246h-420v-420h-246z" />
    <glyph glyph-name="minus.tf" 
d="M147 600v246h977v-246h-977z" />
    <glyph glyph-name="multiply.tf" 
d="M285 201l-164 164l348 348l-350 350l166 166l350 -350l348 348l164 -164l-348 -348l348 -348l-166 -166l-348 348z" />
    <glyph glyph-name="divide.tf" 
d="M483 983v283h303v-283h-303zM145 600v246h977v-246h-977zM483 180v283h303v-283h-303z" />
    <glyph glyph-name="equal.tf" 
d="M143 840v245h985v-245h-985zM143 348v246h985v-246h-985z" />
    <glyph glyph-name="notequal.tf" 
d="M223 180l88 168h-170v246h299l68 123q22 41 61 123h-243h-185v245h559l95 181h231l-96 -181h196v-245h-325l-66 -123q-9 -20 -63 -123h235h219v-246h-583l-88 -168h-232z" />
    <glyph glyph-name="greater.tf" 
d="M168 152v264l381 139l432 158l-432 157l-381 140v270l985 -369v-391z" />
    <glyph glyph-name="less.tf" 
d="M1102 1280v-264l-383 -139l-430 -158l430 -158l383 -139v-270l-987 368v391z" />
    <glyph glyph-name="greaterequal.tf" 
d="M150 483v244l342 66q252 49 477 90q-314 54 -477 84l-342 63v260l985 -205v-391zM150 180v246h985v-246h-985z" />
    <glyph glyph-name="lessequal.tf" 
d="M1122 485l-987 205v391l987 211v-243l-344 -66q-263 -52 -477 -90q246 -42 477 -84l344 -64v-260zM135 180v246h987v-246h-987z" />
    <glyph glyph-name="plusminus.tf" 
d="M532 520v252h-376v225h376v269h222v-269h379v-225h-379v-252h-222zM133 180v246h987v-246h-987z" />
    <glyph glyph-name="approxequal.tf" 
d="M840 737q-113 0 -228 62l-88 49q-55 31 -108 31q-99 0 -174 -113l-172 147q56 107 150 164.5t206 57.5t223 -60l82 -45q70 -37 121 -37q47 0 92.5 32.5t81.5 86.5l172 -154q-56 -106 -151.5 -163.5t-206.5 -57.5zM840 287q-115 0 -228 61l-88 49q-55 31 -108 31
q-99 0 -174 -113l-172 148q56 107 150 164t206 57q114 0 223 -59l82 -45q70 -37 121 -37q47 0 92.5 32.5t81.5 86.5l172 -154q-56 -106 -151.5 -163.5t-206.5 -57.5z" />
    <glyph glyph-name="logicalnot.tf" 
d="M889 315v295h-756v246h977v-541h-221z" />
    <glyph glyph-name="percent.tf" 
d="M309 793q-135 0 -215 93t-80 247q0 151 78 242t217 91q136 0 212.5 -92t76.5 -241q0 -154 -76 -247t-213 -93zM147 0l777 1434h198l-774 -1434h-201zM307 946q105 0 105 187q0 88 -28 134t-75 46q-48 0 -78 -46.5t-30 -133.5q0 -187 106 -187zM969 -33q-135 0 -215 93
t-80 247q0 151 78 242.5t217 91.5q136 0 212 -92.5t76 -241.5q0 -154 -75.5 -247t-212.5 -93zM967 121q104 0 104 186q0 88 -27.5 134t-74.5 46q-48 0 -78.5 -46.5t-30.5 -133.5q0 -186 107 -186z" />
    <glyph glyph-name="perthousand.tf" 
d="M250 793q-114 0 -179 92t-65 248q0 152 63 242.5t181 90.5q116 0 176.5 -91t60.5 -242q0 -156 -60.5 -248t-176.5 -92zM825 1434h158l-795 -1434h-159zM250 1313q-37 0 -52.5 -43t-15.5 -137q0 -99 13.5 -143t52.5 -44q36 0 49.5 44.5t13.5 142.5q0 94 -13.5 137
t-47.5 43zM1047 641q105 0 161 -92t56 -242q0 -156 -55.5 -248t-161.5 -92q-93 0 -150 76q-54 -76 -145 -76q-102 0 -163 93t-61 247q0 151 59.5 242.5t164.5 91.5q94 0 145 -63q54 63 150 63zM758 121q38 0 50.5 42.5t12.5 143.5q0 96 -13 138t-48 42q-36 0 -51 -43.5
t-15 -136.5q0 -99 13.5 -142.5t50.5 -43.5zM1034 121q38 0 51 43t13 143q0 95 -13.5 137.5t-48.5 42.5q-37 0 -52 -43t-15 -137q0 -99 13.5 -142.5t51.5 -43.5z" />
    <glyph glyph-name="at.case" horiz-adv-x="1935" 
d="M1010 -162q-204 0 -374 57t-293.5 164.5t-192 272t-68.5 370.5q0 163 49.5 304t136 243t202.5 175t249.5 109t275.5 36q184 0 347 -54t284 -151.5t191.5 -244.5t70.5 -322q0 -123 -37.5 -226t-100.5 -170t-143.5 -104t-166.5 -37q-100 0 -170.5 44.5t-93.5 125.5
q-38 -81 -109.5 -125.5t-161.5 -44.5q-105 0 -184 63.5t-118.5 165.5t-39.5 226q0 113 40.5 207t118 151t177.5 57q178 0 260 -135v113h234v-569q0 -27 18.5 -45.5t48.5 -18.5q67 0 114.5 82t47.5 238q0 256 -171 403.5t-456 147.5q-135 0 -251.5 -41t-205 -119.5
t-139.5 -202t-51 -278.5q0 -315 174 -479.5t488 -164.5q170 0 291 29.5t233 83.5l100 -209q-137 -67 -286.5 -97t-337.5 -30zM979 475q79 0 121.5 69.5t42.5 174.5q0 97 -42 158t-122 61q-79 0 -119.5 -61.5t-40.5 -161.5q0 -106 41 -173t119 -67z" />
    <glyph glyph-name="registered.case" horiz-adv-x="1792" 
d="M895 -80q-167 0 -317.5 63.5t-259 171.5t-172.5 258t-64 316t64 316t172.5 257.5t259 170.5t317.5 63q134 0 258.5 -40t225 -114.5t176 -173.5t116.5 -222.5t41 -256.5q0 -166 -64.5 -316t-173.5 -258t-260.5 -171.5t-318.5 -63.5zM897 113q173 0 314 82.5t220.5 224
t79.5 309.5q0 169 -79.5 310.5t-220.5 224t-314 82.5t-314 -82.5t-220.5 -224t-79.5 -310.5q0 -168 79.5 -309.5t220.5 -224t314 -82.5zM563 311v850h430q122 0 199.5 -61.5t77.5 -167.5q0 -89 -54 -148t-153 -79q73 -18 108.5 -67t49.5 -136l30 -191h-200l-27 189
q-12 84 -49.5 121.5t-114.5 37.5h-104v-348h-193zM756 799h182q135 0 135 110q0 54 -35.5 82.5t-103.5 28.5h-178v-221z" />
    <glyph glyph-name="section.tf" 
d="M637 -426q-198 0 -315 100t-140 258l260 76q36 -178 195 -178q78 0 119 38.5t41 94.5q0 47 -25.5 82t-95.5 59l-322 111q-132 46 -198 126t-66 200q0 95 53.5 174.5t132.5 124.5q-77 77 -77 237q0 166 116 277.5t312 111.5q195 0 309 -99t139 -255l-260 -76
q-40 176 -188 176q-72 0 -112 -41.5t-40 -97.5q0 -47 24 -79t97 -58l322 -113q133 -47 198.5 -125.5t65.5 -199.5q0 -93 -55.5 -175.5t-133.5 -125.5q80 -87 80 -238q0 -165 -117 -275t-319 -110zM815 319q37 21 60.5 63.5t23.5 84.5q0 40 -28 74.5t-78 52.5l-215 78
q-47 16 -123 49q-39 -27 -60.5 -67.5t-21.5 -82.5q0 -40 28 -74.5t78 -52.5l215 -75q27 -9 121 -50z" />
    <glyph glyph-name="degree.tf" 
d="M633 856q-171 0 -279 109.5t-108 271.5q0 163 110 273t279 110t279 -110t110 -273q0 -165 -109.5 -273t-281.5 -108zM635 1071q68 0 110.5 46.5t42.5 121.5q0 72 -42.5 117t-110.5 45q-67 0 -111.5 -45.5t-44.5 -116.5q0 -75 44.5 -121.5t111.5 -46.5z" />
    <glyph glyph-name="uni030C.alt" horiz-adv-x="0" 
d="M-250 872l168 287h-162v275h287v-275l-170 -287h-123z" />
    <glyph glyph-name="ringacutecomb" horiz-adv-x="567" 
d="M250 1688l102 251h318l-226 -251h-194zM352 1128q-106 0 -183 70.5t-77 177.5t77.5 179.5t182.5 72.5t181.5 -72.5t76.5 -179.5q0 -108 -76 -178t-182 -70zM352 1276q41 0 69 27.5t28 72.5q0 44 -28.5 72.5t-68.5 28.5q-42 0 -70 -28.5t-28 -72.5q0 -45 28 -72.5
t70 -27.5z" />
    <glyph glyph-name="uni0308.cap" horiz-adv-x="0" 
d="M-688 1159v246h297v-246h-297zM-193 1159v246h297v-246h-297z" />
    <glyph glyph-name="uni0307.cap" horiz-adv-x="0" 
d="M-258 1159v275h309v-275h-309z" />
    <glyph glyph-name="gravecomb.cap" horiz-adv-x="0" 
d="M-219 1159l-248 316h352l113 -316h-217z" />
    <glyph glyph-name="acutecomb.cap" horiz-adv-x="0" 
d="M-377 1159l113 316h348l-248 -316h-213z" />
    <glyph glyph-name="uni030B.cap" horiz-adv-x="0" 
d="M-772 1159l113 316h348l-248 -316h-213zM-348 1159l112 316h349l-248 -316h-213z" />
    <glyph glyph-name="uni0302.cap" horiz-adv-x="0" 
d="M-872 1159l247 264h387l248 -264h-274l-166 146l-168 -146h-274z" />
    <glyph glyph-name="uni030C.cap" horiz-adv-x="0" 
d="M-51 1423l-248 -264h-387l-248 264h275l165 -145l168 145h275z" />
    <glyph glyph-name="uni0306.cap" horiz-adv-x="0" 
d="M-397 1128q-102 0 -178.5 24.5t-120 67t-65 93.5t-23.5 110h219q6 -44 49 -82t119 -38q77 0 119.5 38.5t46.5 81.5h223q-2 -59 -24.5 -110t-66.5 -93.5t-120.5 -67t-177.5 -24.5z" />
    </font>
</defs>
</svg>
