<?xml version="1.0" encoding="UTF-8"?>
<svg id="Layer_1" data-name="Layer 1" xmlns="http://www.w3.org/2000/svg" width="32" height="32" viewBox="0 0 32 32">
  <defs>
    <style>
      .cls-1 {
        fill: #3f59e4;
      }
    </style>
  </defs>
  <path class="cls-1" d="M22.12341,24.24451c-1.75983,1.31049-3.88226,2.02942-6.12341,2.02942-2.75049,0-5.33203-1.06689-7.26953-3.00439s-3.00439-4.51904-3.00439-7.26953c0-2.24115,.71893-4.36359,2.02942-6.12341l-1.07111-1.07111c-1.58783,2.05005-2.45831,4.55133-2.45831,7.19452,0,2.89844,1.04565,5.62616,2.93945,7.77393l-4.6958,4.6958,1.06055,1.06055,4.6958-4.6958c2.14777,1.8938,4.87549,2.93945,7.77393,2.93945,2.64319,0,5.14447-.87048,7.19452-2.45831l-1.07111-1.07111Z"/>
  <path d="M11.13623,11.13623c-2.68164,2.68213-2.68164,7.04541,0,9.72754,1.34082,1.34082,3.10254,2.01123,4.86377,2.01123s3.52295-.67041,4.86377-2.01123c2.68164-2.68213,2.68164-7.04541,0-9.72754-2.68164-2.68164-7.0459-2.68164-9.72754,0Zm8.66699,8.66699c-2.09717,2.09619-5.50928,2.09717-7.60645,0-2.09668-2.09717-2.09668-5.50928,0-7.60645,1.04834-1.04834,2.42578-1.57227,3.80322-1.57227s2.75488,.52393,3.80322,1.57227c2.09619,2.09717,2.09668,5.50928,0,7.60645Zm5.03027-11.57617c3.73816,4.24457,3.89807,10.54639,.48151,14.96686l-1.07123-1.07123c2.98993-4.02228,2.67291-9.74506-.97424-13.39221-3.64758-3.64673-9.36963-3.96375-13.39209-.97412l-1.07147-1.07147c4.42023-3.41699,10.72284-3.25696,14.96704,.48157l4.69672-4.69672,1.06055,1.06055-4.69678,4.69678Z"/>
</svg>