<?xml version="1.0" encoding="utf-8"?>
<!-- Generator: Adobe Illustrator 19.1.0, SVG Export Plug-In . SVG Version: 6.00 Build 0)  -->
<svg version="1.1" xmlns="http://www.w3.org/2000/svg" xmlns:xlink="http://www.w3.org/1999/xlink" x="0px" y="0px"
	 viewBox="-687.911 657.892 72 72" style="enable-background:new -687.911 657.892 72 72;" xml:space="preserve">
<style type="text/css">
	.st0{fill:none;stroke:#007DC1;stroke-width:1.133;stroke-linecap:round;stroke-linejoin:round;stroke-miterlimit:10;}
	.st1{fill:none;stroke:#007DC0;stroke-width:0.95;stroke-miterlimit:10;}
	.st2{fill:#007DC0;stroke:#007DC0;stroke-width:0.2;stroke-miterlimit:10;}
	.st3{fill:#007DC0;stroke:#007DC0;stroke-width:0.3;stroke-miterlimit:10;}
	.st4{fill:#007DC0;}
	.st5{fill:none;stroke:#007DC1;stroke-width:1.133;stroke-linecap:round;stroke-miterlimit:10;}
	.st6{fill:#FFFFFF;stroke:#007DC0;stroke-width:0.2;stroke-miterlimit:10;}
	.st7{fill:#007DC1;stroke:#007DC0;stroke-width:0.2;stroke-miterlimit:10;}
	.st8{fill:#007DC0;stroke:#007DC1;stroke-width:0.2;stroke-miterlimit:10;}
	.st9{fill:#FFFFFF;stroke:#007DC1;stroke-width:1.133;stroke-linecap:round;stroke-linejoin:round;stroke-miterlimit:10;}
	.st10{fill:#007DC1;stroke:#007DC1;stroke-width:0.2;stroke-miterlimit:10;}
	.st11{fill:none;stroke:#007DC0;stroke-width:0.2;stroke-linecap:round;stroke-linejoin:round;stroke-miterlimit:10;}
	.st12{fill:#007DC1;stroke:#007DC1;stroke-width:0.3;stroke-miterlimit:10;}
	.st13{fill:none;stroke:#007DC0;stroke-width:1.133;stroke-linecap:round;stroke-linejoin:round;stroke-miterlimit:10;}
	.st14{fill:#007DC1;stroke:#007DC0;stroke-width:0.3;stroke-miterlimit:10;}
	.st15{fill:none;stroke:#007DC1;stroke-width:1.133;stroke-miterlimit:10;}
	.st16{clip-path:url(#SVGID_2_);fill:#007DC1;stroke:#007DC0;stroke-width:0.2;stroke-miterlimit:10;}
	.st17{fill:#007DC1;}
	.st18{fill:#40FF2A;}
	.st19{fill:#FFFFFF;}
</style>
<g id="whatWeDo">
</g>
<g id="whatIsOkta">
</g>
<g id="documents">
</g>
<g id="pdf">
</g>
<g id="whitepaper">
</g>
<g id="tablet">
</g>
<g id="mobileDevice">
</g>
<g id="forms">
</g>
<g id="customerSuccess">
</g>
<g id="userProfile">
</g>
<g id="training">
</g>
<g id="presentation">
</g>
<g id="employesSSO">
</g>
<g id="emploeeSystemOfRecord">
</g>
<g id="mobileDeviceLifeCycle">
</g>
<g id="identityForOffice">
</g>
<g id="universalDirectory">
</g>
<g id="solutionProviders">
</g>
<g id="solutions">
</g>
<g id="singleCustomerProfile">
</g>
<g id="file">
</g>
<g id="files">
</g>
<g id="selfService">
</g>
<g id="socialAuthentication">
</g>
<g id="info">
</g>
<g id="event">
</g>
<g id="Layer_52">
</g>
<g id="favorite">
</g>
<g id="appPartners">
</g>
<g id="adAuthtication">
</g>
<g id="MFAforApps">
</g>
<g id="speed">
</g>
<g id="key">
</g>
<g id="OAN_1_">
</g>
<g id="AppsAcross">
</g>
<g id="video">
</g>
<g id="tools">
</g>
<g id="computer">
</g>
<g id="connectingToDistributor">
</g>
<g id="contentLibary">
</g>
<g id="policyEngine">
</g>
<g id="product">
</g>
<g id="reporting">
</g>
<g id="findYourApps">
</g>
<g id="enterpriseFed">
</g>
<g id="partnerCustomerSSO">
</g>
<g id="adLDAP">
	<g id="Layer_1_3_">
		<g>
			<g>
				<g>
					<path class="st17" d="M-664.173,685.874c-1.64,0-2.976-1.335-2.976-2.976s1.335-2.976,2.976-2.976s2.976,1.335,2.976,2.976
						S-662.532,685.874-664.173,685.874z M-664.173,680.851c-1.128,0-2.047,0.918-2.047,2.047c0,1.129,0.918,2.047,2.047,2.047
						s2.047-0.918,2.047-2.047C-662.126,681.769-663.044,680.851-664.173,680.851z"/>
					<path class="st17" d="M-664.173,693.836c-1.412,0-2.712-0.133-3.865-0.394c-0.485-0.11-0.904-0.421-1.149-0.853
						c-0.246-0.433-0.298-0.952-0.144-1.425l1.101-3.391c0.331-1.014,1.268-1.695,2.333-1.695h3.449
						c1.066,0,2.003,0.681,2.333,1.695l0,0l1.101,3.391c0.154,0.473,0.102,0.992-0.144,1.425c-0.246,0.432-0.665,0.743-1.149,0.853
						C-661.46,693.704-662.761,693.836-664.173,693.836z M-665.897,687.007c-0.662,0-1.245,0.423-1.45,1.054l-1.101,3.391
						c-0.075,0.229-0.05,0.47,0.068,0.679c0.118,0.209,0.312,0.353,0.547,0.406c0.746,0.169,1.986,0.371,3.66,0.371
						s2.915-0.202,3.66-0.371c0.235-0.053,0.429-0.197,0.547-0.406c0.118-0.209,0.143-0.45,0.068-0.679l-1.101-3.392
						c-0.205-0.63-0.788-1.053-1.45-1.053H-665.897z"/>
				</g>
				<path class="st17" d="M-654.757,693.262c1.512,0,2.743,1.23,2.743,2.742c0,1.255-0.851,2.347-2.069,2.656l-0.102,0.026v3.127
					h2.17v1.326h-2.17l0.006,1.398h2.164v1.326h-2.164v1.427h-1.15v-8.603l-0.102-0.026c-1.218-0.308-2.069-1.4-2.069-2.656
					C-657.499,694.492-656.269,693.262-654.757,693.262 M-654.757,697.086c0.598,0,1.085-0.487,1.085-1.085
					c0-0.598-0.487-1.085-1.085-1.085c-0.598,0-1.085,0.487-1.085,1.085C-655.842,696.6-655.355,697.086-654.757,697.086
					 M-654.757,692.333c-2.024,0-3.671,1.647-3.671,3.671c0,1.466,0.867,2.766,2.17,3.348v7.936c0,0.513,0.416,0.929,0.929,0.929
					h1.15c0.513,0,0.929-0.416,0.929-0.929v-0.498h1.235c0.513,0,0.929-0.416,0.929-0.929v-1.326c0-0.279-0.123-0.529-0.317-0.699
					c0.194-0.17,0.317-0.42,0.317-0.699v-1.326c0-0.513-0.416-0.929-0.929-0.929h-1.241v-1.531c1.304-0.582,2.17-1.882,2.17-3.348
					C-651.085,693.98-652.732,692.333-654.757,692.333L-654.757,692.333z M-654.757,696.157c-0.084,0-0.156-0.071-0.156-0.156
					c0-0.085,0.071-0.156,0.156-0.156c0.085,0,0.156,0.071,0.156,0.156C-654.601,696.086-654.672,696.157-654.757,696.157
					L-654.757,696.157z"/>
			</g>
		</g>
	</g>
	<g>
		<line id="XMLID_14_" class="st0" x1="-672.902" y1="692.757" x2="-672.902" y2="685.636"/>
		<line id="XMLID_13_" class="st0" x1="-672.902" y1="702.207" x2="-672.902" y2="694.977"/>
		<path id="XMLID_12_" class="st0" d="M-672.902,683.285v-3.647c0-1.827,1.481-3.307,3.307-3.307h18.395
			c1.827,0,3.307,1.481,3.307,3.307v28.511c0,1.827-1.481,3.307-3.307,3.307h-18.395c-1.827,0-3.307-1.481-3.307-3.307v-3.742"/>
		<g>
			<path class="st0" d="M-671.79,685.462h-2.337c-0.558,0-1.015-0.457-1.015-1.015v0c0-0.558,0.457-1.015,1.015-1.015h2.337
				c0.558,0,1.015,0.457,1.015,1.015v0C-670.776,685.005-671.232,685.462-671.79,685.462z"/>
			<path class="st0" d="M-671.79,694.907h-2.337c-0.558,0-1.015-0.457-1.015-1.015l0,0c0-0.558,0.457-1.015,1.015-1.015h2.337
				c0.558,0,1.015,0.457,1.015,1.015l0,0C-670.776,694.451-671.232,694.907-671.79,694.907z"/>
			<path class="st0" d="M-671.79,704.352h-2.337c-0.558,0-1.015-0.457-1.015-1.015l0,0c0-0.558,0.457-1.015,1.015-1.015h2.337
				c0.558,0,1.015,0.457,1.015,1.015l0,0C-670.776,703.896-671.232,704.352-671.79,704.352z"/>
		</g>
		<g>
			<circle class="st0" cx="-630.367" cy="684.033" r="1.687"/>
		</g>
		<g>
			<circle class="st0" cx="-630.367" cy="694.07" r="1.687"/>
		</g>
		<g>
			<circle class="st0" cx="-630.367" cy="703.945" r="1.687"/>
		</g>
		<polyline class="st0" points="-645.937,694.229 -640.353,694.229 -640.353,684.033 -632.053,684.033 		"/>
		<polyline class="st0" points="-632.053,704.107 -640.353,704.107 -640.353,694.229 -632.053,694.229 		"/>
	</g>
	<circle class="st1" cx="-651.911" cy="693.892" r="34.368"/>
	<circle class="st1" cx="-651.911" cy="693.892" r="34.368"/>
</g>
<g id="FederationSSO">
</g>
<g id="adaptiveMultifactorAuthentication">
</g>
<g id="experience">
</g>
<g id="adoptionServices">
</g>
<g id="customize">
</g>
<g id="HRDriven">
</g>
<g id="onDemand">
</g>
<g id="blogPost">
</g>
<g id="cloudAppsOnMobileDevices">
</g>
<g id="cloud">
</g>
<g id="OAN1">
</g>
<g id="community">
</g>
</svg>
