<svg id="Layer_1" data-name="Layer 1" xmlns="http://www.w3.org/2000/svg" viewBox="0 0 54.58 23.31"><defs><style>.cls-1{fill:#abadac;}</style></defs><title>icn</title><path class="cls-1" d="M2,23V11H0V7.39H2V6.72C2,2.42,5.38,0,10.19,0a10.44,10.44,0,0,1,4.59,1l-.92,3.66a7.62,7.62,0,0,0-3.53-.8c-2.55,0-3.44,1.31-3.44,3v.54h9.46V23H11.5V11H6.91V23Z"/><path class="cls-1" d="M35.32.35v18c0,1.75.06,3.6.13,4.65h-4.3l-.22-2.29h-.06A5.44,5.44,0,0,1,26,23.31c-3.69,0-6.66-3.15-6.66-8,0-5.25,3.25-8.28,7-8.28a4.74,4.74,0,0,1,4.11,1.75h.06V.35ZM30.48,14a7.73,7.73,0,0,0-.06-.86,2.91,2.91,0,0,0-2.83-2.39c-2.2,0-3.34,2-3.34,4.43,0,2.64,1.31,4.3,3.31,4.3a2.83,2.83,0,0,0,2.8-2.32A4.11,4.11,0,0,0,30.48,16Z"/><path class="cls-1" d="M54.58,15c0,5.7-4,8.31-8.22,8.31-4.55,0-8.06-3-8.06-8S41.62,7,46.62,7A7.57,7.57,0,0,1,54.58,15Zm-11.27.16c0,2.68,1.11,4.68,3.18,4.68,1.88,0,3.09-1.88,3.09-4.68,0-2.32-.89-4.68-3.09-4.68S43.31,12.87,43.31,15.16Z"/></svg>