<svg id="f5707ffd-a5b9-4f22-ac6b-643540f13fa4" data-name="Layer 1" xmlns="http://www.w3.org/2000/svg" viewBox="0 0 256 256"><title>docs-errorcodes</title><path d="M136,96v56a8,8,0,0,1-16,0V96a8,8,0,0,1,16,0Zm-8,80a8,8,0,1,0,8,8A8,8,0,0,0,128,176Zm120.06,44.06C243.3,227.76,234.76,232,224,232H32c-10.76,0-19.3-4.24-24.06-11.94-5.24-8.48-4.91-20,.9-31.64C20.26,165.58,79.48,50.38,124.05,25a8,8,0,0,1,8.43.34c17.45,11.81,39.85,38.72,66.57,80,19.8,30.57,38.82,64.49,48.11,83.06C253,200.05,253.3,211.59,248.06,220.06Zm-15.22-24.48c-16.1-32.2-69.46-125.39-105.17-153.89C94.16,65.35,46.72,148.44,23.16,195.58c-3.24,6.46-3.84,12.47-1.61,16.07S28.46,216,32,216H224c3.54,0,8.23-.75,10.45-4.35S236.08,202,232.84,195.58Z" style="fill:#007dc1"/></svg>