<svg id="6291a078-e832-42e6-b2dd-944c0209ca3b" data-name="Layer 1" xmlns="http://www.w3.org/2000/svg" viewBox="0 0 256 256"><title>docs-postman</title><path d="M192.21,32a32,32,0,0,1,32,32V192a32,32,0,0,1-32,32H63.79a32,32,0,0,1-32-32V64a32,32,0,0,1,32-32H192.21m0-16H63.79a48.14,48.14,0,0,0-48,48V192a48.14,48.14,0,0,0,48,48H192.21a48.14,48.14,0,0,0,48-48V64a48.14,48.14,0,0,0-48-48Zm-96,168a8,8,0,0,1-8-8V80a8,8,0,0,1,12.12-6.86l80,48a8,8,0,0,1,0,13.72l-80,48A8,8,0,0,1,96.21,184Zm8-89.87v67.74L160.67,128Z" style="fill:#007dc1"/></svg>