<?xml version="1.0" encoding="UTF-8" standalone="no"?>
<svg width="60px" height="60px" viewBox="0 0 60 60" version="1.1" xmlns="http://www.w3.org/2000/svg" xmlns:xlink="http://www.w3.org/1999/xlink">
    <g stroke="none" stroke-width="1" fill="none" fill-rule="evenodd">
        <polygon stroke="#000000" stroke-width="2" stroke-linecap="round" stroke-linejoin="round" points="11 48.8914286 48.8914286 48.8914286 48.8914286 11 11 11"></polygon>
        <path d="M28.5885714,39.8619048 C28.5885714,41.2914286 28.2538095,41.6714286 27.3128571,41.6714286 C26.3719048,41.6714286 26.0552381,40.9928571 25.6028571,40.1966667 L23.3319048,41.6080952 C23.942619,43.2674286 25.5657619,44.3323333 27.3309524,44.2319048 C29.8733333,44.2319048 31.3028571,42.8838095 31.3028571,39.9071429 L31.3028571,30.3980952 L28.5885714,30.3980952 L28.5885714,39.8619048 Z" fill="#000000"></path>
        <path d="M39.6990476,35.7272333 L38.9842857,35.4196143 C37.7538095,34.8858048 37.22,34.5148524 37.22,33.6824714 C37.2263333,32.9930429 37.7909048,32.4393286 38.4803333,32.4465667 C38.5183333,32.4465667 38.5572381,32.4483762 38.5952381,32.4519952 C39.3932381,32.4547095 40.1089048,32.9414714 40.4047619,33.6824714 L42.6395238,32.2529476 C41.8641429,30.7429 40.2618095,29.8417571 38.5680952,29.9639 C36.007619,29.9639 34.37,31.601519 34.37,33.7548524 C34.37,36.0891381 35.7452381,37.1929476 37.8080952,38.0705667 L38.5228571,38.3781857 C39.8347619,38.9481857 40.6128571,39.2829476 40.6128571,40.2781857 C40.6128571,41.101519 39.8528571,41.6896143 38.667619,41.6896143 C37.4715238,41.6995667 36.3749524,41.0246143 35.8447619,39.9524714 L33.5104762,41.3014714 C34.522,43.2213762 36.5658571,44.3686143 38.7309524,44.2329 C41.4452381,44.2329 43.4809524,42.8214714 43.4809524,40.2429 C43.5080952,37.8353286 42.16,36.731519 39.6990476,35.7272333" fill="#000000"></path>
    </g>
</svg>