<?xml version="1.0" encoding="utf-8"?>
<!-- Generator: Adobe Illustrator 19.1.0, SVG Export Plug-In . SVG Version: 6.00 Build 0)  -->
<svg version="1.1" xmlns="http://www.w3.org/2000/svg" xmlns:xlink="http://www.w3.org/1999/xlink" x="0px" y="0px"
	 viewBox="-687.911 581.728 72 72" style="enable-background:new -687.911 581.728 72 72;" xml:space="preserve">
<style type="text/css">
	.st0{fill:none;stroke:#007DC1;stroke-width:1.133;stroke-linecap:round;stroke-linejoin:round;stroke-miterlimit:10;}
	.st1{fill:none;stroke:#007DC0;stroke-width:0.95;stroke-miterlimit:10;}
	.st2{fill:#007DC0;stroke:#007DC0;stroke-width:0.2;stroke-miterlimit:10;}
	.st3{fill:#007DC0;stroke:#007DC0;stroke-width:0.3;stroke-miterlimit:10;}
	.st4{fill:#007DC0;}
	.st5{fill:none;stroke:#007DC1;stroke-width:1.133;stroke-linecap:round;stroke-miterlimit:10;}
	.st6{fill:#FFFFFF;stroke:#007DC0;stroke-width:0.2;stroke-miterlimit:10;}
	.st7{fill:#007DC1;stroke:#007DC0;stroke-width:0.2;stroke-miterlimit:10;}
	.st8{fill:#007DC0;stroke:#007DC1;stroke-width:0.2;stroke-miterlimit:10;}
	.st9{fill:#FFFFFF;stroke:#007DC1;stroke-width:1.133;stroke-linecap:round;stroke-linejoin:round;stroke-miterlimit:10;}
	.st10{fill:#007DC1;stroke:#007DC1;stroke-width:0.2;stroke-miterlimit:10;}
	.st11{fill:none;stroke:#007DC0;stroke-width:0.2;stroke-linecap:round;stroke-linejoin:round;stroke-miterlimit:10;}
	.st12{fill:#007DC1;stroke:#007DC1;stroke-width:0.3;stroke-miterlimit:10;}
	.st13{fill:none;stroke:#007DC0;stroke-width:1.133;stroke-linecap:round;stroke-linejoin:round;stroke-miterlimit:10;}
	.st14{fill:#007DC1;stroke:#007DC0;stroke-width:0.3;stroke-miterlimit:10;}
	.st15{fill:none;stroke:#007DC1;stroke-width:1.133;stroke-miterlimit:10;}
	.st16{clip-path:url(#SVGID_2_);fill:#007DC1;stroke:#007DC0;stroke-width:0.2;stroke-miterlimit:10;}
	.st17{fill:#007DC1;}
	.st18{fill:#40FF2A;}
	.st19{fill:#FFFFFF;}
</style>
<g id="whatWeDo">
</g>
<g id="whatIsOkta">
</g>
<g id="documents">
</g>
<g id="pdf">
</g>
<g id="whitepaper">
</g>
<g id="tablet">
</g>
<g id="mobileDevice">
</g>
<g id="forms">
</g>
<g id="customerSuccess">
</g>
<g id="userProfile">
</g>
<g id="training">
</g>
<g id="presentation">
</g>
<g id="employesSSO">
</g>
<g id="emploeeSystemOfRecord">
</g>
<g id="mobileDeviceLifeCycle">
</g>
<g id="identityForOffice">
</g>
<g id="universalDirectory">
</g>
<g id="solutionProviders">
</g>
<g id="solutions">
</g>
<g id="singleCustomerProfile">
</g>
<g id="file">
</g>
<g id="files">
</g>
<g id="selfService">
</g>
<g id="socialAuthentication">
</g>
<g id="info">
</g>
<g id="event">
</g>
<g id="Layer_52">
</g>
<g id="favorite">
</g>
<g id="appPartners">
</g>
<g id="adAuthtication">
</g>
<g id="MFAforApps">
</g>
<g id="speed">
</g>
<g id="key">
</g>
<g id="OAN_1_">
</g>
<g id="AppsAcross">
</g>
<g id="video">
</g>
<g id="tools">
</g>
<g id="computer">
</g>
<g id="connectingToDistributor">
</g>
<g id="contentLibary">
</g>
<g id="policyEngine">
</g>
<g id="product">
</g>
<g id="reporting">
</g>
<g id="findYourApps">
</g>
<g id="enterpriseFed">
</g>
<g id="partnerCustomerSSO">
</g>
<g id="adLDAP">
</g>
<g id="FederationSSO">
</g>
<g id="adaptiveMultifactorAuthentication">
	<g>
		<g id="Layer_1_2_">
			<g>
				<g>
					<g>
						<path class="st12" d="M-641.949,633.075c-0.053,0-0.105-0.015-0.152-0.044l-5.779-3.677c-3.487-2.118-5.655-5.894-5.655-9.851
							v-12.767c0-0.144,0.109-0.264,0.25-0.28l11.304-1.251c0.021-0.002,0.041-0.002,0.062,0l11.304,1.251
							c0.142,0.016,0.251,0.136,0.251,0.28v12.767c0,3.956-2.168,7.732-5.659,9.853l-5.776,3.675
							C-641.844,633.06-641.896,633.075-641.949,633.075z M-652.971,606.988v12.515c0,3.762,2.065,7.353,5.39,9.373l5.632,3.584
							l5.628-3.581c0.002-0.001,0.003-0.002,0.005-0.003c3.325-2.02,5.39-5.611,5.39-9.373v-12.515l-11.022-1.22L-652.971,606.988z"
							/>
					</g>
				</g>
				<g>
					<path class="st12" d="M-647.189,625.292c-0.093,0-0.184-0.046-0.238-0.131c-0.084-0.132-0.044-0.305,0.087-0.389
						c0.821-0.521,2.744-1.743,4.546-5.345c0.07-0.139,0.24-0.195,0.378-0.126c0.139,0.07,0.195,0.239,0.126,0.378
						c-1.872,3.742-3.887,5.022-4.748,5.569C-647.085,625.278-647.138,625.292-647.189,625.292z"/>
					<path class="st12" d="M-645.992,626.454c-0.09,0-0.178-0.043-0.232-0.122c-0.088-0.129-0.055-0.304,0.073-0.392
						c3.334-2.281,4.411-4.284,4.932-5.592c0.558-1.402-0.5-2.145-0.511-2.151c-0.13-0.074-0.728-0.313-1.287-0.129
						c-0.368,0.121-0.654,0.41-0.851,0.859c-0.987,2.249-2.123,3.573-3.924,4.57c-0.136,0.075-0.308,0.026-0.383-0.11
						c-0.076-0.136-0.026-0.307,0.11-0.383c1.682-0.931,2.749-2.177,3.681-4.303c0.263-0.602,0.664-0.994,1.189-1.168
						c0.749-0.247,1.512,0.042,1.743,0.174c0.325,0.186,1.406,1.213,0.756,2.848c-0.548,1.376-1.675,3.481-5.137,5.85
						C-645.882,626.438-645.937,626.454-645.992,626.454z"/>
					<path class="st12" d="M-644.338,627.369c-0.084,0-0.167-0.038-0.223-0.109c-0.096-0.122-0.073-0.299,0.05-0.395
						c4.557-3.54,5.049-6.219,5.049-7.206c0-1.565-0.865-2.345-1.516-2.797c-0.362-0.25-1.478-0.602-2.548-0.326
						c-0.776,0.2-1.36,0.688-1.739,1.452c-1.182,2.381-1.874,2.82-2.833,3.427c-0.142,0.09-0.29,0.184-0.449,0.29
						c-0.129,0.087-0.304,0.053-0.391-0.076c-0.087-0.129-0.053-0.304,0.077-0.391c0.162-0.109,0.314-0.206,0.461-0.298
						c0.914-0.579,1.518-0.962,2.63-3.202c0.449-0.904,1.176-1.508,2.103-1.747c1.204-0.31,2.506,0.061,3.009,0.409
						c0.435,0.301,1.759,1.218,1.759,3.259c0,1.33-0.684,4.091-5.267,7.651C-644.216,627.35-644.277,627.369-644.338,627.369z"/>
					<path class="st12" d="M-641.01,626.665c-0.072,0-0.144-0.027-0.199-0.082c-0.11-0.11-0.11-0.289,0-0.398
						c0.141-0.141,3.456-3.491,3.456-6.596c0-2.79-2.537-4.876-4.805-4.876c-2.284,0-3.82,1.678-4.313,2.566
						c-0.414,0.744-0.882,1.587-1.823,1.858c-0.153,0.042-0.306-0.043-0.349-0.192c-0.043-0.149,0.043-0.306,0.192-0.349
						c0.666-0.192,1.037-0.781,1.487-1.591c0.549-0.988,2.259-2.856,4.806-2.856c2.86,0,5.369,2.542,5.369,5.44
						c0,3.335-3.473,6.846-3.62,6.994C-640.867,626.637-640.938,626.665-641.01,626.665z"/>
					<path class="st12" d="M-637.332,624.553c-0.036,0-0.073-0.007-0.109-0.022c-0.144-0.06-0.212-0.225-0.152-0.368
						c0.034-0.082,0.109-0.222,0.21-0.407c0.417-0.767,1.283-2.362,1.283-3.903c0-4.164-3.299-6.742-6.355-6.742
						c-2.928,0-4.163,1.478-5.593,3.191c-0.099,0.12-0.277,0.135-0.397,0.036c-0.119-0.1-0.135-0.277-0.035-0.397
						c1.393-1.668,2.833-3.393,6.025-3.393c3.328,0,6.918,2.793,6.918,7.305c0,1.684-0.913,3.364-1.352,4.172
						c-0.088,0.162-0.155,0.283-0.184,0.355C-637.117,624.487-637.222,624.553-637.332,624.553z"/>
					<path class="st12" d="M-634.357,617.846c-0.107,0-0.209-0.061-0.256-0.165c-0.035-0.076-0.081-0.215-0.142-0.401
						c-0.25-0.769-0.772-2.371-1.949-3.547c-4.225-4.226-9.509-1.338-10.097-0.994c-0.134,0.078-0.307,0.033-0.386-0.101
						c-0.078-0.135-0.033-0.307,0.102-0.385c0.626-0.366,6.255-3.442,10.78,1.083c1.272,1.271,1.822,2.96,2.086,3.771
						c0.052,0.159,0.09,0.278,0.119,0.343c0.065,0.142,0.002,0.309-0.139,0.373C-634.278,617.838-634.317,617.846-634.357,617.846z"
						/>
					<path class="st12" d="M-634.955,613.234c-0.088,0-0.174-0.041-0.229-0.118c-1.98-2.771-5.252-3.858-9.458-3.143
						c-0.146,0.025-0.299-0.077-0.325-0.23c-0.026-0.153,0.078-0.299,0.231-0.325c4.432-0.754,7.897,0.411,10.01,3.371
						c0.09,0.127,0.061,0.303-0.065,0.393C-634.841,613.217-634.899,613.234-634.955,613.234z"/>
				</g>
			</g>
		</g>
		<g>
			<g>
				<circle class="st0" cx="-672.261" cy="631.223" r="2.038"/>
			</g>
			<g>
				<circle class="st0" cx="-672.261" cy="619.1" r="2.038"/>
			</g>
			<g>
				<circle class="st0" cx="-672.261" cy="607.172" r="2.038"/>
			</g>
			<polyline class="st0" points="-655.054,618.907 -660.199,618.907 -660.199,631.223 -670.224,631.223 			"/>
			<polyline class="st0" points="-670.224,606.976 -660.199,606.976 -660.199,618.907 -670.224,618.907 			"/>
		</g>
	</g>
	<circle class="st1" cx="-651.911" cy="617.728" r="34.368"/>
	<circle class="st1" cx="-651.911" cy="617.728" r="34.368"/>
</g>
<g id="experience">
</g>
<g id="adoptionServices">
</g>
<g id="customize">
</g>
<g id="HRDriven">
</g>
<g id="onDemand">
</g>
<g id="blogPost">
</g>
<g id="cloudAppsOnMobileDevices">
</g>
<g id="cloud">
</g>
<g id="OAN1">
</g>
<g id="community">
</g>
</svg>
