<?xml version="1.0" encoding="UTF-8" standalone="no"?>
<svg width="64px" height="20px" viewBox="0 0 64 20" version="1.1" xmlns="http://www.w3.org/2000/svg" xmlns:xlink="http://www.w3.org/1999/xlink">
    <!-- Generator: Sketch 39.1 (31720) - http://www.bohemiancoding.com/sketch -->
    <title>Shape</title>
    <desc>Created with Sketch.</desc>
    <defs></defs>
    <g id="Page-1" stroke="none" stroke-width="1" fill="none" fill-rule="evenodd">
        <path d="M0,19.65 L5.69,19.65 L5.69,17.24 L3.06,17.24 L3.06,2.41 L5.69,2.41 L5.69,1.66533454e-16 L0,1.66533454e-16 L0,19.65 Z M19.65,2.35 C18.9938596,1.61182468 18.1852214,1.02496489 17.28,0.63 C16.2731801,0.196785193 15.1859195,-0.0179402451 14.09,1.66533454e-16 C12.9982365,-0.0187801666 11.9147464,0.192466331 10.91,0.62 C9.99991814,1.01606336 9.18757063,1.60655125 8.53,2.35 C7.85671344,3.09827457 7.33688289,3.97145399 7,4.92 C6.64688531,5.94956851 6.4710557,7.0315969 6.48,8.12 C6.47161307,9.18877112 6.64752192,10.25099 7,11.26 C7.32488621,12.1933766 7.83128111,13.0532284 8.49,13.79 C9.15185745,14.5187346 9.96384113,15.0953112 10.87,15.48 C11.8764292,15.9009925 12.9592274,16.1086991 14.05,16.09 C15.1441798,16.1106735 16.2306447,15.9029169 17.24,15.48 C18.1422589,15.0935098 18.9506143,14.5170876 19.61,13.79 C20.2685052,13.0530723 20.7748736,12.1932654 21.1,11.26 C21.4524781,10.25099 21.6283869,9.18877112 21.62,8.12 C21.6289443,7.0315969 21.4531147,5.94956851 21.1,4.92 C20.7868694,3.97786559 20.2944965,3.10517703 19.65,2.35 L19.65,2.35 Z M18,10 C17.8595369,10.5882751 17.6157546,11.146943 17.28,11.65 C16.9532587,12.1395409 16.5144462,12.5440712 16,12.83 C15.4007028,13.1376916 14.7334009,13.2890384 14.06,13.27 C13.3865991,13.2890384 12.7192972,13.1376916 12.12,12.83 C11.6030331,12.5481949 11.1607832,12.1470845 10.83,11.66 C10.5033342,11.1519866 10.269691,10.5898884 10.14,10 C9.9865413,9.38173758 9.90930082,8.74702237 9.91,8.11 C9.90611549,7.43651833 9.98333794,6.76501881 10.14,6.11 C10.2776029,5.50833652 10.5214212,4.93604062 10.86,4.42 C11.1871234,3.92458093 11.6298512,3.51617304 12.15,3.23 C12.7492972,2.92230842 13.4165991,2.77096162 14.09,2.79 C14.7584439,2.79445397 15.4151135,2.966357 16,3.29 C16.5201488,3.57617304 16.9628766,3.98458093 17.29,4.48 C17.623608,4.99389647 17.8639567,5.56260893 18,6.16 C18.1561864,6.81510265 18.2334022,7.48654466 18.23,8.16 C18.2262037,8.78026004 18.1489999,9.3978904 18,10 L18,10 Z M37,2.88 L40.06,2.88 L40.06,0.37 L37.09,0.37 L37,2.88 Z M37,16.13 C37,16.5433333 36.88,16.8133333 36.64,16.94 C36.3817796,17.065716 36.0971005,17.1274537 35.81,17.12 C35.589856,17.1259913 35.3702339,17.095582 35.16,17.03 L35.16,19.55 C35.4894692,19.6134768 35.8244913,19.6436288 36.16,19.64 C36.806386,19.6532703 37.451765,19.582682 38.08,19.43 C38.5253228,19.3263076 38.937763,19.1132135 39.28,18.81 C39.5728093,18.5366448 39.7898524,18.192132 39.91,17.81 C40.0394518,17.3242079 40.1000434,16.8226439 40.09,16.32 L40.09,4.61 L37.09,4.61 L37,16.13 Z M33.39,5.71 C32.5879714,4.82089219 31.4473959,4.31235534 30.25,4.31 C29.5633333,4.30866641 28.8833333,4.44466642 28.25,4.71 C27.6251027,4.97305823 27.0974258,5.42385503 26.74,6 L26.74,6 L26.74,0.37 L23.64,0.37 L23.64,15.75 L26.55,15.75 L26.55,14.33 L26.55,14.33 C26.8645092,14.9308071 27.3870771,15.3964969 28.02,15.64 C28.7216008,15.9096527 29.4684609,16.0420506 30.22,16.03 C31.4173959,16.0276447 32.5579714,15.5191078 33.36,14.63 C33.8329416,14.0996445 34.1965565,13.4811593 34.43,12.81 C34.7206647,11.9609116 34.8594529,11.0672506 34.84,10.17 C34.8592442,9.27276321 34.7204616,8.37913853 34.43,7.53 C34.2055403,6.86122614 33.8522179,6.24291202 33.39,5.71 L33.39,5.71 Z M31.66,11.53 C31.571232,11.9345697 31.4121524,12.3204221 31.19,12.67 C30.9844802,12.9922297 30.7072663,13.2625989 30.38,13.46 C29.6481448,13.8475718 28.7718552,13.8475718 28.04,13.46 C27.7084183,13.2647183 27.427499,12.9940764 27.22,12.67 C26.9978476,12.3204221 26.838768,11.9345697 26.75,11.53 C26.6485189,11.0906079 26.5981846,10.6409552 26.6,10.19 C26.597978,9.73243005 26.6483051,9.27613058 26.75,8.83 C26.838768,8.42543031 26.9978476,8.03957788 27.22,7.69 C27.417603,7.37430743 27.6843074,7.10760303 28,6.91 C28.7318552,6.52242822 29.6081448,6.52242822 30.34,6.91 C30.6672663,7.10740106 30.9444802,7.37777025 31.15,7.7 C31.3721524,8.04957788 31.531232,8.43543031 31.62,8.84 C31.7216949,9.28613058 31.772022,9.74243005 31.77,10.2 C31.784187,10.6460779 31.7472803,11.0923141 31.66,11.53 L31.66,11.53 Z M52.45,12.33 C51.8192156,12.9825442 50.9362482,13.3291636 50.03,13.28 C49.3565991,13.2990384 48.6892972,13.1476916 48.09,12.84 C47.5730331,12.5581949 47.1307832,12.1570845 46.8,11.67 C46.4546509,11.1625093 46.2039482,10.5967343 46.06,10 C45.9065413,9.38173758 45.8293008,8.74702237 45.83,8.11 C45.8261155,7.43651833 45.9033379,6.76501881 46.06,6.11 C46.1976029,5.50833652 46.4414212,4.93604062 46.78,4.42 C47.1071234,3.92458093 47.5498512,3.51617304 48.07,3.23 C48.6707873,2.94121606 49.3342202,2.8071545 50,2.84 C50.4085761,2.83651521 50.8146393,2.90419242 51.2,3.04 C51.5626624,3.17317402 51.9006176,3.36580846 52.2,3.61 C52.4958038,3.84936774 52.7493266,4.13669364 52.95,4.46 C53.1529722,4.7856756 53.2857995,5.15009917 53.34,5.53 L56.62,5.53 C56.5384837,4.69895471 56.2902007,3.89288514 55.89,3.16 C55.516903,2.49045447 55.0137077,1.90226007 54.41,1.43 C53.8110841,0.959045358 53.1341444,0.596882597 52.41,0.36 C50.5763548,-0.204828626 48.6031781,-0.112888492 46.83,0.62 C45.9208656,1.01315283 45.1085957,1.60017141 44.45,2.34 C43.8041766,3.09800376 43.3117251,3.97422784 43,4.92 C42.6468853,5.94956851 42.4710557,7.0315969 42.48,8.12 C42.4716131,9.18877112 42.6475219,10.25099 43,11.26 C43.3248862,12.1933766 43.8312811,13.0532284 44.49,13.79 C45.1518575,14.5187346 45.9638411,15.0953112 46.87,15.48 C47.8602194,15.8976801 48.9253298,16.1086604 50,16.1 C50.8884782,16.1107493 51.7719273,15.9652003 52.61,15.67 C53.3776827,15.3981353 54.081984,14.9728326 54.68,14.42 C55.280789,13.8536699 55.763415,13.173915 56.1,12.42 C56.4719101,11.5950542 56.6985736,10.7120814 56.77,9.81 L53.51,9.81 C53.4317643,10.7427532 53.0567726,11.6259113 52.44,12.33 L52.45,12.33 Z M57.63,1.66533454e-16 L57.63,2.41 L60.26,2.41 L60.26,17.24 L57.63,17.24 L57.63,19.65 L63.32,19.65 L63.32,1.66533454e-16 L57.63,1.66533454e-16 Z" id="Shape" fill="#FFFFFF"></path>
    </g>
</svg>