<?xml version="1.0" encoding="UTF-8" standalone="no"?>
<svg width="60px" height="60px" viewBox="0 0 60 60" version="1.1" xmlns="http://www.w3.org/2000/svg" xmlns:xlink="http://www.w3.org/1999/xlink">
    <g stroke="none" stroke-width="1" fill="none" fill-rule="evenodd">
        <path d="M29.6405634,14.8999996 C45.4582254,14.8999996 58.2811268,21.6443376 58.2811268,29.9636616 C58.2811268,38.2829855 45.4582254,45.0273236 29.6405634,45.0273236 C13.8229014,45.0273236 1,38.2829855 1,29.9636616 C1,21.6443376 13.8229014,14.8999996 29.6405634,14.8999996 L29.6405634,14.8999996 Z" stroke="#000000" stroke-width="2" stroke-linecap="round" stroke-linejoin="round"></path>
        <path d="M13.6620535,37.2424165 L16.1617718,37.2424165 L16.7581099,34.1872053 L18.8983915,34.1872053 C19.6875183,34.2100785 20.4758282,34.1104165 21.2347296,33.8931207 C21.8457718,33.683994 22.4028986,33.344163 22.8685324,32.896501 C23.6887014,32.1563884 24.2401099,31.1654869 24.4369831,30.0773743 C24.7580254,28.9819095 24.5366451,27.7974024 23.8406451,26.8922757 C23.004138,26.0614869 21.844138,25.6432334 20.6710676,25.7486137 L15.8595183,25.7486137 L13.6620535,37.2424165 Z M19.764307,27.5621348 C20.4431521,27.4755433 21.1285324,27.6634306 21.6676873,28.0849517 C22.0165042,28.6200222 22.1006451,29.2849799 21.8964197,29.8903038 C21.8073775,30.6246982 21.4536592,31.3027264 20.8998,31.7936841 C20.2299408,32.2233743 19.4391803,32.424332 18.6451521,32.3655151 L17.1257155,32.3655151 L18.0569831,27.5539658 L19.7724761,27.5539658 L19.764307,27.5621348 Z" fill="#000000"></path>
        <path d="M27.1407634,22.6933207 L29.5914676,22.6933207 L28.9951296,25.748532 L31.2089324,25.748532 C32.2259746,25.640701 33.2479183,25.8988419 34.0925944,26.4755743 C34.6529887,27.1258278 34.832707,28.0211517 34.5663972,28.8372362 L33.5289324,34.1871236 L31.004707,34.1871236 L31.9931577,29.1059968 C32.1336648,28.7130672 32.0887352,28.2776588 31.8706225,27.9214898 C31.5095521,27.6600813 31.062707,27.5457151 30.6207634,27.6028982 L28.635693,27.6028982 L27.3531577,34.1871236 L24.9024535,34.1871236 L27.1407634,22.6933207 Z" fill="#000000"></path>
        <path d="M34.0191549,37.2424165 L36.5188732,37.2424165 L37.1152113,34.1872053 L39.255493,34.1872053 C40.0446197,34.2100785 40.8329296,34.1104165 41.591831,33.8931207 C42.2028732,33.683994 42.76,33.344163 43.2256338,32.896501 C44.0458028,32.1563884 44.5980282,31.1654869 44.7940845,30.0773743 C45.1151268,28.9819095 44.8937465,27.7974024 44.1977465,26.8922757 C43.3620563,26.0614869 42.2020563,25.6432334 41.028169,25.7486137 L36.2166197,25.7486137 L34.0191549,37.2424165 Z M40.1214085,27.5621348 C40.8002535,27.4755433 41.4856338,27.6634306 42.0247887,28.0849517 C42.3736056,28.6200222 42.4577465,29.2849799 42.2535211,29.8903038 C42.1644789,30.6246982 41.8107606,31.3027264 41.2569014,31.7936841 C40.5870423,32.2233743 39.7962817,32.424332 39.0022535,32.3655151 L37.4828169,32.3655151 L38.4140845,27.5539658 L40.1295775,27.5539658 L40.1214085,27.5621348 Z" fill="#000000"></path>
    </g>
</svg>