<?xml version="1.0" encoding="utf-8"?>
<!-- Generator: Adobe Illustrator 19.1.0, SVG Export Plug-In . SVG Version: 6.00 Build 0)  -->
<!DOCTYPE svg PUBLIC "-//W3C//DTD SVG 1.1//EN" "http://www.w3.org/Graphics/SVG/1.1/DTD/svg11.dtd">
<svg version="1.1" xmlns="http://www.w3.org/2000/svg" xmlns:xlink="http://www.w3.org/1999/xlink" x="0px" y="0px"
	 viewBox="0 0 72 72" enable-background="new 0 0 72 72" xml:space="preserve">
<g id="Layer_3">
</g>
<g id="Layer_1">
	<g id="Favorite">
	</g>
	<g>
		<path fill="#007DC0" d="M27.576,57.104c-4.416,0-8.474-0.413-12.062-1.226c-1.266-0.287-2.36-1.099-3.002-2.228
			c-0.641-1.129-0.78-2.486-0.378-3.722l3.503-10.777c0.912-2.807,3.507-4.693,6.458-4.693h10.961c1.672,0,3.254,0.605,4.484,1.689
			V25.753c0-2.709,2.203-4.912,4.912-4.912h2.352c0.285-0.176,0.583-0.334,0.89-0.472c0.312-1.459,1.611-2.529,3.127-2.532
			c1.517,0.003,2.816,1.074,3.129,2.532c0.307,0.138,0.605,0.296,0.89,0.472h2.341c2.709,0,4.912,2.204,4.912,4.912v17.473
			c0,2.709-2.203,4.912-4.912,4.912H42.453c0,0-0.012,0-0.017,0l0.582,1.789c0.402,1.236,0.263,2.593-0.378,3.723
			c-0.642,1.128-1.735,1.94-3.001,2.228C36.05,56.692,31.991,57.104,27.576,57.104z M22.095,35.402c-2.541,0-4.776,1.624-5.56,4.04
			L13.032,50.22c-0.32,0.984-0.21,2.065,0.301,2.964c0.518,0.912,1.367,1.542,2.391,1.774c3.468,0.787,7.567,1.202,11.852,1.202
			c4.345,0,8.334-0.405,11.853-1.202c1.023-0.232,1.872-0.862,2.39-1.774c0.511-0.899,0.62-1.98,0.301-2.965l-0.712-2.193
			c-2.208-0.481-3.866-2.45-3.866-4.8v-5.73c-1.115-1.332-2.742-2.094-4.484-2.094H22.095z M42.453,21.785
			c-2.188,0-3.968,1.78-3.968,3.968v17.473c0,2.188,1.781,3.968,3.968,3.968H55.18c2.188,0,3.968-1.78,3.968-3.968V25.753
			c0-2.188-1.781-3.968-3.968-3.968h-1.11c0.567,0.533,1.056,1.154,1.442,1.84c0.002,0.003,0.407,0.737,0.119,1.235
			c-0.128,0.22-0.36,0.347-0.637,0.347H42.649c-0.406,0-0.597-0.221-0.673-0.353c-0.238-0.407-0.005-0.945,0.156-1.229
			c0.386-0.686,0.874-1.306,1.442-1.84H42.453z M42.871,24.262h11.885c-0.021-0.066-0.046-0.135-0.069-0.18
			c-0.537-0.956-1.304-1.767-2.216-2.359c-0.016-0.009-0.032-0.019-0.046-0.03c-0.34-0.217-0.699-0.403-1.074-0.555
			c-0.158-0.064-0.27-0.209-0.291-0.379c-0.141-1.126-1.103-1.978-2.239-1.98c-1.134,0.002-2.096,0.853-2.237,1.98
			c-0.021,0.17-0.132,0.314-0.291,0.379c-1.404,0.571-2.59,1.618-3.339,2.949C42.922,24.144,42.893,24.206,42.871,24.262z
			 M27.526,53.153c-0.076,0-0.151-0.018-0.22-0.055l-3.204-1.694c-0.178-0.094-0.277-0.29-0.246-0.489l1.775-11.555l-1.164-2.534
			c-0.067-0.146-0.055-0.316,0.032-0.452c0.087-0.135,0.236-0.217,0.397-0.217h5.262c0.161,0,0.311,0.082,0.397,0.217
			c0.087,0.135,0.099,0.306,0.032,0.452l-1.165,2.534l1.774,11.555c0.031,0.199-0.068,0.395-0.246,0.489l-3.203,1.694
			C27.677,53.135,27.601,53.153,27.526,53.153z M24.839,50.727l2.687,1.42l2.686-1.42l-1.745-11.363
			c-0.015-0.092-0.001-0.185,0.037-0.269l0.917-1.993h-3.79l0.916,1.994c0.038,0.084,0.052,0.177,0.037,0.269L24.839,50.727z
			 M42.055,44.448c-0.157,0-0.303-0.078-0.392-0.208l-0.917-1.361c-0.146-0.216-0.088-0.509,0.128-0.655
			c0.215-0.145,0.51-0.089,0.656,0.128l0.526,0.78l1.614-2.398c0.145-0.217,0.44-0.273,0.655-0.128
			c0.217,0.145,0.274,0.439,0.128,0.655l-2.006,2.979C42.359,44.37,42.211,44.448,42.055,44.448z M56.285,42.959h-9.754
			c-0.26,0-0.472-0.211-0.472-0.472c0-0.261,0.211-0.472,0.472-0.472h9.754c0.26,0,0.472,0.211,0.472,0.472
			C56.757,42.747,56.545,42.959,56.285,42.959z M42.055,38.399c-0.157,0-0.303-0.078-0.392-0.208l-0.917-1.361
			c-0.146-0.216-0.088-0.509,0.128-0.655c0.215-0.145,0.51-0.089,0.656,0.128l0.526,0.78l1.614-2.398
			c0.145-0.217,0.44-0.273,0.655-0.128c0.217,0.145,0.274,0.439,0.128,0.655l-2.006,2.979C42.359,38.32,42.211,38.399,42.055,38.399
			z M56.285,36.909h-9.754c-0.26,0-0.472-0.211-0.472-0.472c0-0.261,0.211-0.472,0.472-0.472h9.754c0.26,0,0.472,0.211,0.472,0.472
			C56.757,36.698,56.545,36.909,56.285,36.909z M42.055,32.35c-0.157,0-0.303-0.078-0.392-0.208l-0.917-1.361
			c-0.146-0.216-0.088-0.509,0.128-0.655c0.215-0.145,0.51-0.089,0.656,0.128l0.526,0.78l1.614-2.399
			c0.145-0.217,0.44-0.273,0.655-0.128c0.217,0.145,0.274,0.439,0.128,0.655l-2.006,2.98C42.359,32.271,42.212,32.35,42.055,32.35z
			 M27.576,31.802c-4.661,0-8.452-3.792-8.452-8.453c0-4.661,3.792-8.454,8.452-8.454c4.661,0,8.453,3.792,8.453,8.454
			C36.029,28.01,32.237,31.802,27.576,31.802z M27.576,15.84c-4.14,0-7.509,3.369-7.509,7.51c0,4.14,3.368,7.509,7.509,7.509
			s7.509-3.368,7.509-7.509C35.085,19.209,31.716,15.84,27.576,15.84z M56.285,30.859h-9.754c-0.26,0-0.472-0.211-0.472-0.472
			s0.211-0.472,0.472-0.472h9.754c0.26,0,0.472,0.211,0.472,0.472S56.545,30.859,56.285,30.859z"/>
	</g>
	<circle fill="none" stroke="#007DC0" stroke-width="0.95" stroke-miterlimit="10" cx="36" cy="36" r="34.368"/>
</g>
</svg>
