<?xml version="1.0" encoding="UTF-8" standalone="no"?>
<svg width="60px" height="60px" viewBox="0 0 60 60" version="1.1" xmlns="http://www.w3.org/2000/svg" xmlns:xlink="http://www.w3.org/1999/xlink">
    <g stroke="none" stroke-width="1" fill="none" fill-rule="evenodd">
        <path d="M29.4154511,10.0004081 L29.2930136,10.0004081 C27.8213149,10.0020406 26.3520649,10.1277431 24.9015886,10.3758831 C21.0162386,11.0615331 20.3061011,12.4981331 20.3061011,15.1509457 L20.3061011,18.6526582 L29.4970761,18.6526582 L29.4970761,20.1708832 L16.861526,20.1708832 C14.0756648,20.1227245 11.6611973,22.0923357 11.147776,24.8316707 C10.2841835,27.8844458 10.2841835,31.1167958 11.147776,34.1695708 C11.800776,36.8876833 13.3598135,38.8303583 16.045276,38.8303583 L19.2041636,38.8303583 L19.2041636,34.6348333 C19.2694636,31.506147 21.7900436,28.985567 24.9179136,28.9210833 L34.0925637,28.9210833 C36.6490587,28.9031258 38.706825,26.8159745 38.6880512,24.2602957 L38.6880512,24.251317 L38.6880512,15.1509457 C38.6880512,12.6613831 36.5902887,10.7921706 34.0925637,10.3750669 C32.5547487,10.1236619 30.9989762,9.99877562 29.4407549,10.0004081 L29.4154511,10.0004081 Z M29.4317761,11.6247456 C30.9002099,11.6231131 32.3661949,11.7406531 33.8150387,11.9757331 C35.4475387,12.2450956 37.0800387,13.4204957 37.0800387,15.1427832 L37.0800387,24.2439707 C37.0988125,25.900142 35.7732224,27.258382 34.1170512,27.2804208 L24.9424011,27.2804208 C20.9093098,27.3375583 17.6532886,30.5935795 17.5961511,34.6266708 L17.5961511,37.1896958 L16.0697635,37.1896958 C15.457576,37.1896958 13.6210135,37.1896958 12.8047635,33.7777708 C12.0040223,30.977217 12.0040223,28.0076995 12.8047635,25.2071457 C13.159016,23.2016195 14.9245648,21.7560407 16.9594761,21.8033832 L29.5950261,21.8033832 C30.4969824,21.8033832 31.2275262,21.0720232 31.2275262,20.1708832 L31.2275262,18.6526582 C31.2275262,17.7515182 30.4969824,17.0201582 29.5950261,17.0201582 L21.9467636,17.0201582 L21.9467636,15.1509457 C21.9467636,13.4204957 21.9467636,12.5552706 25.2117636,11.9838956 C26.5602086,11.7537131 27.9249786,11.6369894 29.2930136,11.6329081 L29.4154511,11.6329081 L29.4317761,11.6247456 Z" fill="#000000"></path>
        <path d="M24.8772644,13.4284133 C24.2152856,13.401477 23.6569706,13.917347 23.6300344,14.5793258 C23.6030981,15.2413045 24.1181519,15.7996195 24.7809469,15.8265558 C25.4429256,15.8526758 26.0012406,15.337622 26.0281769,14.6756433 L26.0281769,14.6691133 C26.0330744,14.0136645 25.5074094,13.4782045 24.8527769,13.4692258 L24.8772644,13.4284133 Z" fill="#000000"></path>
        <path d="M34.4436328,43.4662503 C33.7808378,43.452374 33.2331341,43.9788553 33.2192578,44.640834 C33.2061978,45.303629 33.7318628,45.852149 34.3946578,45.865209 C35.0574528,45.8790853 35.6051566,45.3534203 35.6190328,44.6906253 L35.6190328,44.6579753 C35.6239303,44.004159 35.0974491,43.4703315 34.4436328,43.4662503" fill="#000000"></path>
        <path d="M43.5772255,20.4968935 L40.1326505,20.4968935 L40.1326505,24.5781435 C40.0991842,27.7386635 37.5786042,30.309851 34.4189004,30.4061685 L25.2442504,30.4061685 C22.6983666,30.4551435 20.6569253,32.5284186 20.6487628,35.0751186 L20.6487628,44.1763061 C20.6487628,46.6658687 22.8118253,48.1269562 25.2442504,48.8452562 C26.7232954,49.2999074 28.2602941,49.5366199 29.8070879,49.5472312 C31.3726554,49.5349874 32.9284279,49.2990912 34.4270629,48.8452562 C36.7370505,48.1767474 39.0225505,46.8291187 39.0225505,44.1763061 L39.0225505,40.6745936 L29.8479004,40.6745936 L29.8479004,39.1563686 L43.618038,39.1563686 C46.2871755,39.1563686 47.2830005,37.2961348 48.2135255,34.4955811 C49.1440506,31.6958435 49.1358881,28.847131 48.2135255,25.157681 C47.552363,22.4975222 46.295338,20.4968935 43.618038,20.4968935 L43.5772255,20.4968935 Z M43.6262005,22.1465347 C44.695488,22.1465347 45.887213,22.5546597 46.638163,25.565806 C47.503388,29.0348685 47.5115505,31.4762723 46.638163,33.9984848 C45.626013,37.0430973 44.907713,37.5401936 43.5935505,37.5401936 L29.8234129,37.5401936 C28.9222729,37.5401936 28.1909129,38.2715536 28.1909129,39.1726936 L28.1909129,40.6909186 C28.1909129,41.5928749 28.9222729,42.3234186 29.8234129,42.3234186 L37.365563,42.3234186 L37.365563,44.1926311 C37.365563,45.5965812 36.2146505,46.6413812 33.9454754,47.2943812 C32.5953979,47.7041387 31.1938967,47.9179962 29.7826004,47.9310562 C28.3982404,47.9188124 27.0236754,47.7041387 25.7013504,47.2943812 C24.4198379,46.9189062 22.2812628,46.0128687 22.2812628,44.1926311 L22.2812628,35.0751186 C22.2804466,33.4262936 23.5962416,32.0786648 25.2442504,32.0386685 L34.4189004,32.0386685 C38.4813767,31.9464323 41.7357655,28.6422523 41.7651505,24.5781435 L41.7651505,22.1293935 L43.5772255,22.1293935 L43.6262005,22.1465347 Z" fill="#000000"></path>
    </g>
</svg>