<svg id="Layer_1" data-name="Layer 1" xmlns="http://www.w3.org/2000/svg" viewBox="0 0 54 18"><defs><style>.cls-1{fill:#abadac;}</style></defs><title>icn</title><path class="cls-1" d="M27.31,1.25a4.36,4.36,0,0,0-2.16-1,10.34,10.34,0,0,0-2.1-.2,8.38,8.38,0,0,0-3.47.71,8.18,8.18,0,0,0-2.7,1.94A9,9,0,0,0,15.12,5.5,9.52,9.52,0,0,0,14.48,9V9a9.62,9.62,0,0,0,.63,3.5,8.7,8.7,0,0,0,1.76,2.84,8.25,8.25,0,0,0,2.68,1.9,8.11,8.11,0,0,0,3.36.7,9.44,9.44,0,0,0,2.16-.21,6.24,6.24,0,0,0,1.4-.5,5.7,5.7,0,0,0,.82-.48l-1.88-2.88a4.81,4.81,0,0,1-2.38.55A4.3,4.3,0,0,1,21.09,14a4.56,4.56,0,0,1-1.5-1.18,5.6,5.6,0,0,1-1-1.74A6.28,6.28,0,0,1,18.26,9v0a6.18,6.18,0,0,1,.35-2.1,5.52,5.52,0,0,1,1-1.73,4.56,4.56,0,0,1,1.51-1.17A4.37,4.37,0,0,1,23,3.53,4.76,4.76,0,0,1,25.27,4c.14.07.12,0,.09,0l.08.06ZM11.63,9.05A6.15,6.15,0,0,0,10,8a16.25,16.25,0,0,0-2.22-.78Q6.7,6.93,6,6.7a5,5,0,0,1-1.09-.47,1.42,1.42,0,0,1-.55-.56,1.64,1.64,0,0,1-.15-.73v0a1.35,1.35,0,0,1,.53-1.08,2.45,2.45,0,0,1,1.58-.43,5.27,5.27,0,0,1,2.11.46,11.78,11.78,0,0,1,2.16,1.25l1.88-2.88A9.5,9.5,0,0,0,9.68.57,9.34,9.34,0,0,0,6.36,0,6.92,6.92,0,0,0,4,.37,5.21,5.21,0,0,0,2.23,1.44,4.87,4.87,0,0,0,1.05,3.09,5.28,5.28,0,0,0,.63,5.24v0A5.3,5.3,0,0,0,1,7.45,3.94,3.94,0,0,0,2.12,8.9a6.26,6.26,0,0,0,1.72,1,19.69,19.69,0,0,0,2.26.72,16.73,16.73,0,0,1,1.68.52,5.11,5.11,0,0,1,1,.5,1.36,1.36,0,0,1,.49.53,1.58,1.58,0,0,1,.13.66v0a1.39,1.39,0,0,1-.62,1.2A3,3,0,0,1,7,14.5a5.9,5.9,0,0,1-2.59-.57,10.64,10.64,0,0,1-2.31-1.54L0,15.1a9.68,9.68,0,0,0,3.29,2.1A10.37,10.37,0,0,0,7,17.88a7.79,7.79,0,0,0,2.44-.36,5.47,5.47,0,0,0,1.89-1,4.69,4.69,0,0,0,1.24-1.69,5.65,5.65,0,0,0,.44-2.3v0a5.1,5.1,0,0,0-.34-2A4,4,0,0,0,11.63,9.05ZM33.44,6.26c-.6-1,.1-1.27.24-1.95A6.06,6.06,0,0,0,33.11,2a5.16,5.16,0,0,0-1-2H29.72V18h1.07a3.28,3.28,0,0,0,1.47-.15,2.09,2.09,0,0,0,1.2-1.42,3.67,3.67,0,0,0-.1-1.83c-.06-.23.26-.38.34-.46a.55.55,0,0,0,.11-.55.79.79,0,0,0-.37-.34,1.83,1.83,0,0,0,.36-.19c.26-.17.48-.33.42-.62a5.41,5.41,0,0,0-.29-.71,1,1,0,0,1,.1-.87c.22-.29.6-.35.83-.51a1.22,1.22,0,0,0,.58-.79c.13-.47-.32-.92-.79-1.58S33.78,6.81,33.44,6.26ZM50.1,0,45.78,7.35,41.46,0h-3.9V18h3.57V6.11l4.58,7.35h.09L50.43,6V18H54V0Z"/></svg>