<?xml version="1.0" encoding="utf-8"?>
<!-- Generator: Adobe Illustrator 19.2.1, SVG Export Plug-In . SVG Version: 6.00 Build 0)  -->
<svg version="1.1" id="Layer_1" xmlns="http://www.w3.org/2000/svg" xmlns:xlink="http://www.w3.org/1999/xlink" x="0px" y="0px"
	 viewBox="0 0 72 72" style="enable-background:new 0 0 72 72;" xml:space="preserve">
<style type="text/css">
	.st0{display:none;}
	.st1{display:inline;}
	.st2{fill:#FFFFFF;}
	.st3{display:inline;fill:none;stroke:#FFFFFF;stroke-width:0.95;stroke-miterlimit:10;}
	.st4{fill:#007DC1;}
	.st5{fill:none;stroke:#007DC0;stroke-width:0.95;stroke-miterlimit:10;}
</style>
<g id="Layer_3" class="st0">
</g>
<g id="Layer_1_1_" class="st0">
	<g id="Favorite" class="st1">
	</g>
	<g class="st1">
		<path class="st2" d="M39.4,57.3H20.8c-1.9,0-3.5-1.6-3.5-3.5v-36c0-1.9,1.6-3.5,3.5-3.5h19.4c1.9,0,3.5,1.6,3.5,3.5v20.6
			c0,0.2-0.2,0.4-0.4,0.4s-0.4-0.2-0.4-0.4V17.8c0-1.5-1.2-2.7-2.7-2.7H20.8c-1.5,0-2.7,1.2-2.7,2.7v36c0,1.5,1.2,2.7,2.7,2.7h18.6
			c0.2,0,0.4,0.2,0.4,0.4C39.8,57.1,39.7,57.3,39.4,57.3z M30.9,55c-1,0-1.9-0.8-1.9-1.9s0.8-1.9,1.9-1.9s1.9,0.8,1.9,1.9
			S31.9,55,30.9,55z M29.8,53.1c0,0.6,0.5,1,1.1,1s1.1-0.4,1.1-1s-0.5-1-1.1-1S29.8,52.6,29.8,53.1z M39,49.8H20.7
			c-0.3,0-0.5-0.2-0.5-0.5v-29c0-0.3,0.2-0.5,0.5-0.5h19.7c0.3,0,0.5,0.2,0.5,0.5v24.2c0,0.2-0.2,0.4-0.4,0.4s-0.4-0.2-0.4-0.4v-24
			H21V49h18c0.2,0,0.4,0.2,0.4,0.4C39.4,49.7,39.2,49.8,39,49.8z M33.4,17.9h-4.7c-0.2,0-0.4-0.2-0.4-0.4s0.2-0.4,0.4-0.4h4.7
			c0.2,0,0.4,0.2,0.4,0.4S33.6,17.9,33.4,17.9z"/>
		<path class="st2" d="M53,57.6H40.6c-0.9,0-1.7-0.8-1.7-1.7V45.6c0-0.9,0.7-1.6,1.6-1.6h0.7v-1.7c0-2.8,2.3-5.1,5.1-5.1h1.1
			c2.8,0,5.1,2.3,5.1,5.1V44h0.7c0.9,0,1.6,0.7,1.6,1.6v10.3C54.7,56.9,53.9,57.6,53,57.6z M40.5,44.9c-0.4,0-0.7,0.3-0.7,0.7v10.3
			c0,0.5,0.4,0.8,0.8,0.8H53c0.5,0,0.8-0.4,0.8-0.8V45.6c0-0.4-0.3-0.7-0.7-0.7C53.1,44.9,40.5,44.9,40.5,44.9z M42,44h9.6v-1.7
			c0-2.3-1.9-4.2-4.2-4.2h-1.1c-2.3,0-4.2,1.9-4.2,4.2L42,44L42,44z M48,53.4h-2.4c-0.1,0-0.3-0.1-0.3-0.2c-0.1-0.1-0.1-0.3-0.1-0.4
			l0.6-1.9C45.3,50.6,45,50,45,49.4c0-1,0.8-1.8,1.8-1.8s1.8,0.8,1.8,1.8c0,0.6-0.3,1.2-0.8,1.5l0.6,1.9c0,0.1,0,0.3-0.1,0.4
			C48.2,53.3,48.1,53.4,48,53.4z M46.1,52.6h1.2l-0.6-1.7c-0.1-0.2,0-0.5,0.3-0.5c0.4-0.1,0.6-0.5,0.6-0.9c0-0.5-0.4-1-1-1
			c-0.5,0-1,0.4-1,1c0,0.4,0.3,0.8,0.6,0.9c0.1,0,0.2,0.1,0.2,0.2s0.1,0.2,0,0.3L46.1,52.6z M36.7,46.8H24.3c-0.2,0-0.4-0.2-0.4-0.4
			s0.2-0.4,0.4-0.4h12.4c0.2,0,0.4,0.2,0.4,0.4C37.2,46.6,37,46.8,36.7,46.8z M36.7,43.7H24.3c-0.2,0-0.4-0.2-0.4-0.4
			s0.2-0.4,0.4-0.4h12.4c0.2,0,0.4,0.2,0.4,0.4S37,43.7,36.7,43.7z M30.5,39.9c-1.7,0-3.3-0.2-4.7-0.5c-0.6-0.1-1-0.5-1.3-1
			s-0.3-1.1-0.2-1.6l1.4-4.2c0.4-1.2,1.5-2,2.7-2h4.3c1.2,0,2.3,0.8,2.7,2l0,0l1.4,4.2c0.2,0.5,0.1,1.1-0.2,1.6s-0.8,0.9-1.3,1
			C33.9,39.7,32.3,39.9,30.5,39.9z M28.4,31.5c-0.9,0-1.7,0.6-1.9,1.4L25.1,37c-0.1,0.3-0.1,0.7,0.1,1s0.4,0.5,0.8,0.6
			c0.9,0.2,2.5,0.5,4.5,0.5c1.7,0,3.2-0.2,4.5-0.5c0.3-0.1,0.6-0.3,0.8-0.6s0.2-0.6,0.1-1l-1.4-4.2c-0.3-0.8-1-1.4-1.9-1.4h-4.2
			C28.4,31.4,28.4,31.5,28.4,31.5z M30.5,38.7c-0.1,0-0.1,0-0.2,0L29.2,38C29,37.9,29,37.7,29,37.6l0.6-4.1l-0.4-0.8
			c-0.1-0.1,0-0.3,0-0.4c0.1-0.1,0.2-0.2,0.4-0.2h1.9c0.1,0,0.3,0.1,0.4,0.2c0.1,0.1,0.1,0.3,0,0.4l-0.4,0.8l0.6,4.1
			c0,0.2-0.1,0.4-0.2,0.4l-1.1,0.6C30.7,38.7,30.6,38.7,30.5,38.7z M29.9,37.4l0.7,0.4l0.7-0.4l-0.6-3.9c0-0.1,0-0.2,0-0.2l0.2-0.4
			h-0.6l0.2,0.4c0,0.1,0,0.2,0,0.2L29.9,37.4z M30.5,30.1c-1.9,0-3.5-1.6-3.5-3.5s1.6-3.5,3.5-3.5c1.9,0,3.5,1.6,3.5,3.5
			C34.1,28.5,32.5,30.1,30.5,30.1z M30.5,23.9c-1.5,0-2.7,1.2-2.7,2.7s1.2,2.7,2.7,2.7s2.7-1.2,2.7-2.7S32,23.9,30.5,23.9z"/>
	</g>
	<circle class="st3" cx="36" cy="36" r="34.4"/>
</g>
<g>
	<g>
		<path class="st4" d="M34.2,53.3C34.2,53.3,34.2,53.3,34.2,53.3l-15.8-0.1c-1.6,0-3.1-0.6-4.2-1.8s-1.7-2.7-1.7-4.2l0.1-12.3
			c0-3.1,2.5-5.5,5.6-5.5c0,0,0,0,0,0l16.6,0.1c1.5,0,2.9,0.6,3.9,1.7c1,1.1,1.6,2.5,1.6,3.9l-0.1,12.3
			C40.2,50.6,37.5,53.3,34.2,53.3z M18.1,30.2c-2.5,0-4.6,2.1-4.6,4.6l-0.1,12.3c0,1.3,0.5,2.6,1.5,3.6c1,1,2.2,1.5,3.6,1.5
			l15.7,0.1c0,0,0,0,0,0c2.8,0,5.1-2.3,5.1-5L39.3,35c0-1.2-0.5-2.4-1.3-3.3c-0.9-0.9-2-1.4-3.3-1.4L18.1,30.2
			C18.1,30.2,18.1,30.2,18.1,30.2z"/>
		<path class="st4" d="M35.8,30.3C35.8,30.3,35.8,30.3,35.8,30.3c-0.3,0-0.5-0.2-0.5-0.5l0-3.9c0-2.1-0.8-4.1-2.3-5.6
			c-1.5-1.5-3.5-2.3-5.5-2.3l-2,0c0,0,0,0,0,0c-2.1,0-4,0.8-5.5,2.3c-1.5,1.5-2.3,3.5-2.3,5.5l0,3.9c0,0.3-0.2,0.5-0.5,0.5h0
			c-0.3,0-0.5-0.2-0.5-0.5l0-3.9c0-2.3,0.9-4.5,2.6-6.2c1.7-1.6,3.9-2.6,6.2-2.6c0,0,0,0,0,0l2,0c2.3,0,4.5,0.9,6.2,2.6
			c1.7,1.7,2.6,3.9,2.6,6.2l0,3.9C36.2,30.1,36,30.3,35.8,30.3z"/>
		<path class="st4" d="M27.7,45.6L27.7,45.6l-2.8,0c-0.1,0-0.3-0.1-0.3-0.2c-0.1-0.1-0.1-0.2-0.1-0.4l0.5-3.7
			c-1-0.5-1.6-1.5-1.6-2.7c0-1.6,1.4-3,3-3c1.6,0,3,1.3,3,3v0c0,1.1-0.6,2.1-1.6,2.6l0.5,3.7c0,0.1,0,0.3-0.1,0.4
			C28,45.6,27.9,45.6,27.7,45.6z M25.5,44.7l1.7,0l-0.5-3.5c0-0.2,0.1-0.4,0.3-0.5c0.8-0.3,1.4-1.1,1.4-1.9c0-1.1-0.9-2-2-2
			c0,0,0,0,0,0c-1.1,0-2,0.9-2,2c0,0.9,0.5,1.6,1.3,1.9c0.2,0.1,0.3,0.3,0.3,0.5L25.5,44.7z"/>
	</g>
	<g>
		<g>
			<path class="st4" d="M57.7,30.9c-1.4,0-2.6-1.2-2.6-2.6s1.2-2.6,2.6-2.6c1.4,0,2.6,1.2,2.6,2.6S59.1,30.9,57.7,30.9z M57.7,26.6
				c-0.9,0-1.7,0.8-1.7,1.7s0.8,1.7,1.7,1.7c0.9,0,1.7-0.8,1.7-1.7S58.6,26.6,57.7,26.6z"/>
		</g>
		<g>
			<path class="st4" d="M57.7,43.6c-1.4,0-2.6-1.2-2.6-2.6s1.2-2.6,2.6-2.6c1.4,0,2.6,1.2,2.6,2.6S59.1,43.6,57.7,43.6z M57.7,39.4
				c-0.9,0-1.7,0.8-1.7,1.7c0,0.9,0.8,1.7,1.7,1.7c0.9,0,1.7-0.8,1.7-1.7C59.3,40.1,58.6,39.4,57.7,39.4z"/>
		</g>
		<g>
			<path class="st4" d="M57.7,56.2c-1.4,0-2.6-1.2-2.6-2.6s1.2-2.6,2.6-2.6c1.4,0,2.6,1.2,2.6,2.6S59.1,56.2,57.7,56.2z M57.7,51.9
				c-0.9,0-1.7,0.8-1.7,1.7c0,0.9,0.8,1.7,1.7,1.7c0.9,0,1.7-0.8,1.7-1.7C59.3,52.6,58.6,51.9,57.7,51.9z"/>
		</g>
		<path class="st4" d="M47.3,41.7h-7.1c-0.3,0-0.5-0.2-0.5-0.5c0-0.3,0.2-0.5,0.5-0.5h6.6V28.3c0-0.3,0.2-0.5,0.5-0.5h8.2
			c0.3,0,0.5,0.2,0.5,0.5c0,0.3-0.2,0.5-0.5,0.5h-7.7v12.5C47.8,41.5,47.6,41.7,47.3,41.7z"/>
		<path class="st4" d="M55.5,54.2h-8.2c-0.3,0-0.5-0.2-0.5-0.5V41.2c0-0.3,0.2-0.5,0.5-0.5h8.2c0.3,0,0.5,0.2,0.5,0.5
			c0,0.3-0.2,0.5-0.5,0.5h-7.7v11.6h7.7c0.3,0,0.5,0.2,0.5,0.5C56,54,55.8,54.2,55.5,54.2z"/>
	</g>
</g>
<circle class="st5" cx="36.4" cy="36.6" r="34.4"/>
</svg>
