<svg width="45" height="49" viewBox="0 0 45 49" fill="none" xmlns="http://www.w3.org/2000/svg">
<path d="M21.5637 28.8832C21.5679 28.3182 21.6114 27.7541 21.6939 27.1951C19.6045 28.0982 17.2795 28.3032 15.0644 27.7796C12.8492 27.256 10.862 26.0318 9.39808 24.2889C7.93412 22.5459 7.0715 20.3772 6.93836 18.1049C6.80522 15.8326 7.40867 13.5779 8.65905 11.6759C9.90944 9.77392 11.74 8.32602 13.8789 7.54733C16.0178 6.76863 18.3508 6.70069 20.5313 7.35361C22.7119 8.00652 24.6237 9.34544 25.9826 11.1715C27.3415 12.9975 28.0752 15.2132 28.0745 17.4894C28.0745 17.6989 28.055 17.9033 28.0431 18.1097C28.5757 17.8289 29.1286 17.5883 29.697 17.3898C29.6848 14.7901 28.8459 12.2618 27.3017 10.1705C25.7574 8.07915 23.5879 6.53334 21.107 5.75665C18.626 4.97995 15.9623 5.01266 13.5012 5.85003C11.0401 6.68741 8.90916 8.28603 7.41673 10.4146C5.9243 12.5432 5.14774 15.0914 5.1994 17.6906C5.25106 20.2897 6.12825 22.805 7.70408 24.8726C9.27991 26.9403 11.4727 28.4529 13.9651 29.1919C16.4576 29.9308 19.1205 29.8576 21.5686 28.983C21.5684 28.9498 21.5637 28.9174 21.5637 28.8832Z" fill="#00297A"/>
<path d="M24.9562 37.1281V46.3452L19.3223 43.5687C18.7446 43.2829 18.1074 43.1341 17.4613 43.1341C16.8153 43.1341 16.1781 43.2829 15.6004 43.5687L9.98035 46.3437V32.8376C12.3171 33.9452 14.8753 34.5215 17.4671 34.5242C19.2356 34.5173 20.9923 34.2401 22.6749 33.7024C22.4575 33.2097 22.2733 32.7033 22.1235 32.1866C18.976 33.1505 15.6024 33.1184 12.4743 32.095C9.3462 31.0715 6.62004 29.1079 4.67701 26.4786C2.73399 23.8493 1.67125 20.6858 1.63739 17.4305C1.60354 14.1752 2.60027 10.9908 4.48821 8.32267C6.37615 5.6545 9.0609 3.63593 12.1671 2.54921C15.2732 1.4625 18.6455 1.36198 21.8123 2.26171C24.9791 3.16144 27.7822 5.01643 29.8295 7.56731C31.8768 10.1182 33.066 13.2374 33.2309 16.4888C33.52 16.4686 33.8082 16.4449 34.1024 16.4449C34.3696 16.4449 34.6309 16.4683 34.8939 16.4847C34.7611 13.5125 33.8522 10.6248 32.2556 8.10229C30.6591 5.57977 28.4291 3.50822 25.7825 2.08898C23.1358 0.669735 20.1626 -0.0489208 17.1517 0.00285659C14.1408 0.0546339 11.1946 0.875083 8.59961 2.38446C6.00458 3.89384 3.84893 6.04081 2.34218 8.6167C0.835425 11.1926 0.0288201 14.1098 0.000758105 17.0847C-0.0273039 20.0597 0.724132 22.9912 2.18203 25.5944C3.63993 28.1976 5.7547 30.3839 8.32081 31.9408V49.0002L16.339 45.0409C16.6863 44.8678 17.0697 44.7774 17.4587 44.7768C17.8477 44.7763 18.2314 44.8656 18.5792 45.0376L26.6157 48.9999V38.613C26.0187 38.168 25.4633 37.6711 24.9562 37.1281V37.1281Z" fill="#00297A"/>
<path d="M33.7803 39.3487C31.6512 39.3487 29.5698 38.7174 27.7995 37.5345C26.0292 36.3516 24.6494 34.6703 23.8346 32.7032C23.0198 30.7361 22.8066 28.5716 23.222 26.4834C23.6374 24.3952 24.6627 22.477 26.1682 20.9715C27.6737 19.4659 29.5919 18.4407 31.6801 18.0253C33.7684 17.6099 35.9329 17.8231 37.9 18.6379C39.867 19.4527 41.5483 20.8325 42.7312 22.6028C43.9141 24.3731 44.5455 26.4544 44.5455 28.5836C44.5422 31.4377 43.4069 34.1739 41.3888 36.1921C39.3706 38.2102 36.6344 39.3454 33.7803 39.3487V39.3487ZM33.7803 19.4746C31.9787 19.4746 30.2176 20.0088 28.7196 21.0097C27.2217 22.0107 26.0542 23.4333 25.3647 25.0977C24.6753 26.7622 24.4949 28.5937 24.8464 30.3607C25.1978 32.1276 26.0654 33.7507 27.3393 35.0246C28.6132 36.2985 30.2363 37.1661 32.0032 37.5175C33.7702 37.869 35.6017 37.6886 37.2662 36.9992C38.9306 36.3097 40.3532 35.1422 41.3541 33.6443C42.3551 32.1463 42.8893 30.3852 42.8893 28.5836C42.8863 26.1687 41.9256 23.8535 40.218 22.1459C38.5104 20.4383 36.1952 19.4776 33.7803 19.4746Z" fill="#7D91CB"/>
<path d="M32.1427 32.6669C32.0352 32.667 31.9287 32.6474 31.8293 32.609C31.73 32.5707 31.6397 32.5145 31.5638 32.4436L27.4697 28.6297L28.6275 27.551L32.1427 30.8259L38.9331 24.5002L40.0909 25.579L32.7216 32.4439C32.6456 32.5147 32.5554 32.5709 32.456 32.6092C32.3567 32.6475 32.2502 32.6671 32.1427 32.6669V32.6669Z" fill="#7D91CB"/>
</svg>
