<svg width="53" height="49" viewBox="0 0 53 49" fill="none" xmlns="http://www.w3.org/2000/svg">
<path d="M29.5637 28.883C29.5679 28.3179 29.6114 27.7539 29.6939 27.1949C27.6045 28.098 25.2795 28.303 23.0644 27.7794C20.8492 27.2558 18.862 26.0316 17.3981 24.2886C15.9341 22.5456 15.0715 20.3769 14.9384 18.1046C14.8052 15.8323 15.4087 13.5777 16.6591 11.6757C17.9094 9.77368 19.74 8.32578 21.8789 7.54708C24.0178 6.76839 26.3508 6.70045 28.5313 7.35336C30.7119 8.00627 32.6237 9.3452 33.9826 11.1712C35.3415 12.9972 36.0752 15.2129 36.0745 17.4891C36.0745 17.6986 36.055 17.9031 36.0431 18.1094C36.5757 17.8287 37.1286 17.5881 37.697 17.3895C37.6848 14.7899 36.8459 12.2615 35.3017 10.1702C33.7574 8.07891 31.5879 6.53309 29.107 5.7564C26.626 4.97971 23.9623 5.01242 21.5012 5.84979C19.0401 6.68716 16.9092 8.28578 15.4167 10.4144C13.9243 12.543 13.1477 15.0912 13.1994 17.6903C13.2511 20.2895 14.1283 22.8048 15.7041 24.8724C17.2799 26.94 19.4727 28.4527 21.9651 29.1916C24.4576 29.9306 27.1205 29.8574 29.5686 28.9827C29.5684 28.9495 29.5637 28.9171 29.5637 28.883Z" fill="#00297A"/>
<path d="M32.9562 37.1279V46.3449L27.3223 43.5684C26.7446 43.2826 26.1074 43.1338 25.4613 43.1338C24.8153 43.1338 24.1781 43.2826 23.6004 43.5684L17.9804 46.3435V32.8374C20.3171 33.945 22.8753 34.5213 25.4671 34.5239C27.2356 34.5171 28.9923 34.2399 30.6749 33.7022C30.4575 33.2095 30.2733 32.7031 30.1235 32.1864C26.976 33.1502 23.6024 33.1182 20.4743 32.0947C17.3462 31.0713 14.62 29.1076 12.677 26.4783C10.734 23.8491 9.67125 20.6856 9.63739 17.4303C9.60354 14.175 10.6003 10.9906 12.4882 8.32243C14.3761 5.65425 17.0609 3.63568 20.1671 2.54897C23.2732 1.46226 26.6455 1.36174 29.8123 2.26147C32.9791 3.1612 35.7822 5.01619 37.8295 7.56706C39.8768 10.1179 41.066 13.2372 41.2309 16.4886C41.52 16.4683 41.8082 16.4447 42.1024 16.4447C42.3696 16.4447 42.6309 16.468 42.8939 16.4844C42.7611 13.5123 41.8522 10.6246 40.2556 8.10205C38.6591 5.57953 36.4291 3.50797 33.7825 2.08873C31.1358 0.669491 28.1626 -0.0491649 25.1517 0.00261245C22.1408 0.0543898 19.1946 0.874839 16.5996 2.38422C14.0046 3.8936 11.8489 6.04057 10.3422 8.61646C8.83543 11.1923 8.02882 14.1095 8.00076 17.0845C7.9727 20.0594 8.72413 22.991 10.182 25.5942C11.6399 28.1973 13.7547 30.3836 16.3208 31.9405V49L24.339 45.0407C24.6863 44.8676 25.0697 44.7772 25.4587 44.7766C25.8477 44.776 26.2314 44.8653 26.5792 45.0374L34.6157 48.9997V38.6128C34.0187 38.1678 33.4633 37.6708 32.9562 37.1279V37.1279Z" fill="#00297A"/>
<path d="M41.7803 39.3485C39.6512 39.3485 37.5698 38.7171 35.7995 37.5342C34.0292 36.3513 32.6494 34.6701 31.8346 32.703C31.0198 30.7359 30.8066 28.5714 31.222 26.4832C31.6374 24.3949 32.6627 22.4768 34.1682 20.9712C35.6737 19.4657 37.5919 18.4404 39.6801 18.025C41.7684 17.6097 43.9329 17.8228 45.9 18.6376C47.867 19.4524 49.5483 20.8322 50.7312 22.6025C51.9141 24.3729 52.5455 26.4542 52.5455 28.5833C52.5422 31.4374 51.4069 34.1737 49.3888 36.1918C47.3706 38.21 44.6344 39.3452 41.7803 39.3485V39.3485ZM41.7803 19.4744C39.9787 19.4744 38.2176 20.0086 36.7196 21.0095C35.2217 22.0104 34.0542 23.433 33.3647 25.0975C32.6753 26.7619 32.4949 28.5934 32.8464 30.3604C33.1978 32.1274 34.0654 33.7504 35.3393 35.0244C36.6132 36.2983 38.2363 37.1658 40.0032 37.5173C41.7702 37.8688 43.6017 37.6884 45.2662 36.9989C46.9306 36.3095 48.3532 35.142 49.3541 33.644C50.3551 32.146 50.8893 30.3849 50.8893 28.5833C50.8863 26.1684 49.9256 23.8533 48.218 22.1457C46.5104 20.4381 44.1952 19.4774 41.7803 19.4744Z" fill="#7D91CB"/>
<path d="M40.1427 32.6667C40.0352 32.6668 39.9287 32.6471 39.8293 32.6088C39.73 32.5705 39.6397 32.5142 39.5638 32.4433L35.4697 28.6295L36.6275 27.5508L40.1427 30.8256L46.9331 24.5L48.0909 25.5787L40.7216 32.4436C40.6456 32.5145 40.5554 32.5707 40.456 32.6089C40.3567 32.6472 40.2502 32.6668 40.1427 32.6667V32.6667Z" fill="#7D91CB"/>
</svg>
