<svg width="157" height="83" viewBox="0 0 157 83" fill="none" xmlns="http://www.w3.org/2000/svg">
<g clip-path="url(#clip0)">
<rect width="1440" height="2674" transform="translate(-1064 -1329)" fill="white"/>
<path fill-rule="evenodd" clip-rule="evenodd" d="M472 -118H525L472 -187.25V-235.5H435.072L419 -256.5L402 -436L313 -395L234.312 -436L155.625 -395L76.9375 -436L-1.75 -395L-80.4375 -436L-159.125 -395L-237.812 -436L-316.5 -395L-395.188 -436L-473.875 -395L-552.562 -436L-631.25 -395L-709.937 -436L-788.625 -395L-867.312 -436L-928.787 -403.969C-939.365 -398.457 -946 -387.519 -946 -375.59L-946 -235.5H-999L-946 -166.25L-946 -118H-909.072L-893 -96.9999L-876 82.5001L-787 41.5001L-708.312 82.5001L-629.625 41.5001L-550.938 82.5001L-472.25 41.5001L-393.562 82.5001L-314.875 41.5001L-236.188 82.5001L-157.5 41.5001L-78.8125 82.5001L-0.125 41.5001L78.5625 82.5001L157.25 41.5001L235.938 82.5001L314.625 41.5001L393.312 82.5001L454.787 50.4691C465.365 44.9571 472 34.0188 472 22.0903V-118Z" fill="#FAFAFA"/>
<path opacity="0.7" fill-rule="evenodd" clip-rule="evenodd" d="M-866 -51.9994H-867L-867 -334.59C-867 -346.519 -860.365 -357.457 -849.787 -362.969L-788.312 -395L-709.625 -354L-630.937 -395L-552.25 -354L-473.562 -395L-394.875 -354L-316.188 -395L-237.5 -354L-158.812 -395L-80.125 -354L-1.4375 -395L77.25 -354L155.938 -395L234.625 -354L313.312 -395L392 -354V-252H393V-18.9101C393 -6.98159 386.365 3.95674 375.787 9.4687L314.312 41.4997L235.625 0.499737L156.938 41.4997L78.25 0.499737L-0.4375 41.4997L-79.125 0.499737L-157.812 41.4997L-236.5 0.499737L-315.188 41.4997L-393.875 0.499737L-472.562 41.4997L-551.25 0.499737L-629.938 41.4997L-708.625 0.499737L-787.312 41.4997L-866 0.499737V-51.9994Z" fill="#F5F5F6"/>
</g>
<defs>
<clipPath id="clip0">
<rect width="1440" height="2674" fill="white" transform="translate(-1064 -1329)"/>
</clipPath>
</defs>
</svg>
