<svg width="157" height="84" viewBox="0 0 157 84" fill="none" xmlns="http://www.w3.org/2000/svg">
<g clip-path="url(#clip0)">
<rect width="1440" height="2684" transform="translate(-1059 -1309)" fill="white"/>
<path d="M-867 -462H392V-18.9095C392 -6.98107 385.365 3.95725 374.787 9.46921L313.312 41.5002L234.625 0.500244L155.938 41.5002L77.25 0.500244L-1.4375 41.5002L-80.125 0.500244L-158.812 41.5002L-237.5 0.500244L-316.188 41.5002L-394.875 0.500244L-473.562 41.5002L-552.25 0.500244L-630.938 41.5002L-709.625 0.500244L-788.312 41.5002L-867 0.500244L-867 -462Z" fill="#F5F5F6"/>
<path opacity="0.5" fill-rule="evenodd" clip-rule="evenodd" d="M472 -232H526L420 -370.5L403 -550L314 -509L235.312 -550L156.625 -509L77.9375 -550L-0.75 -509L-79.4375 -550L-158.125 -509L-236.812 -550L-315.5 -509L-394.188 -550L-472.875 -509L-551.562 -550L-630.25 -509L-708.937 -550L-787.625 -509L-866.312 -550L-927.787 -517.969C-938.365 -512.457 -945 -501.519 -945 -489.59L-945 -260H-999L-893 -95.9998L-876 83.5002L-787 42.5002L-708.312 83.5002L-629.625 42.5002L-550.938 83.5002L-472.25 42.5002L-393.562 83.5002L-314.875 42.5002L-236.188 83.5002L-157.5 42.5002L-78.8125 83.5002L-0.125 42.5002L78.5625 83.5002L157.25 42.5002L235.938 83.5002L314.625 42.5002L393.312 83.5002L454.787 51.4692C465.365 45.9573 472 35.0189 472 23.0905V-232Z" fill="#F5F5F6"/>
</g>
<defs>
<clipPath id="clip0">
<rect width="1440" height="2684" fill="white" transform="translate(-1059 -1309)"/>
</clipPath>
</defs>
</svg>
