<svg width="157" height="1776" viewBox="0 0 157 1776" fill="none" xmlns="http://www.w3.org/2000/svg">
<g clip-path="url(#clip0)">
<rect width="1440" height="2684" transform="translate(-1059 -87)" fill="white"/>
<path d="M-867 760H392V1203.09C392 1215.02 385.365 1225.96 374.787 1231.47L313.312 1263.5L234.625 1222.5L155.938 1263.5L77.25 1222.5L-1.4375 1263.5L-80.125 1222.5L-158.812 1263.5L-237.5 1222.5L-316.188 1263.5L-394.875 1222.5L-473.562 1263.5L-552.25 1222.5L-630.938 1263.5L-709.625 1222.5L-788.312 1263.5L-867 1222.5L-867 760Z" fill="#F5F5F6"/>
<path d="M392 1178L-867 1178L-867 775.41C-867 763.482 -860.365 752.544 -849.787 747.032L-788.312 715.001L-709.625 756.001L-630.937 715.001L-552.25 756.001L-473.562 715.001L-394.875 756.001L-316.187 715.001L-237.5 756.001L-158.812 715.001L-80.125 756.001L-1.43746 715.001L77.25 756.001L155.938 715.001L234.625 756.001L313.313 715.001L392 756.001L392 1178Z" fill="#F5F5F6"/>
<path opacity="0.5" fill-rule="evenodd" clip-rule="evenodd" d="M472 990H526L420 851.5L403 672L314 713L235.312 672L156.625 713L77.9375 672L-0.75 713L-79.4375 672L-158.125 713L-236.812 672L-315.5 713L-394.188 672L-472.875 713L-551.562 672L-630.25 713L-708.937 672L-787.625 713L-866.312 672L-927.787 704.031C-938.365 709.543 -945 720.481 -945 732.41L-945 962H-999L-893 1126L-876 1305.5L-787 1264.5L-708.312 1305.5L-629.625 1264.5L-550.938 1305.5L-472.25 1264.5L-393.562 1305.5L-314.875 1264.5L-236.188 1305.5L-157.5 1264.5L-78.8125 1305.5L-0.125 1264.5L78.5625 1305.5L157.25 1264.5L235.938 1305.5L314.625 1264.5L393.312 1305.5L454.787 1273.47C465.365 1267.96 472 1257.02 472 1245.09V990Z" fill="#F5F5F6"/>
<path d="M409 2196L-850 2196L-850 1795.41C-850 1783.48 -843.365 1772.54 -832.787 1767.03L-771.312 1735L-692.625 1776L-613.937 1735L-535.25 1776L-456.562 1735L-377.875 1776L-299.187 1735L-220.5 1776L-141.812 1735L-63.125 1776L15.5625 1735L94.25 1776L172.938 1735L251.625 1776L330.313 1735L409 1776L409 2196Z" fill="#F5F5F6"/>
<path opacity="0.5" d="M381.001 1993.5L-925 1993.5L-925 1754.41C-925 1742.48 -918.365 1731.54 -907.787 1726.03L-846.312 1694L-767.625 1735L-688.937 1694L-610.25 1735L-531.562 1694L-452.875 1735L-374.187 1694L-295.5 1735L-216.812 1694L-138.125 1735L-59.4365 1694L19.251 1735L97.9385 1694L176.626 1735L255.314 1694L334.001 1735L408 1694L381.001 1873.5L381.001 1993.5Z" fill="#F5F5F6"/>
</g>
<defs>
<clipPath id="clip0">
<rect width="1440" height="2684" fill="white" transform="translate(-1059 -87)"/>
</clipPath>
</defs>
</svg>
