<svg width="68" height="68" viewBox="0 0 68 68" fill="none" xmlns="http://www.w3.org/2000/svg">
<path d="M15.3 34.5782C15.8392 34.3119 16.4199 34.1395 17.017 34.0682C17.1298 31.6662 17.7501 29.3154 18.8372 27.1705C19.9243 25.0256 21.4535 23.1353 23.324 21.6242L23.358 21.4542C23.5504 20.4881 23.9317 19.5696 24.48 18.7512C21.7245 20.3846 19.4338 22.6971 17.8266 25.4679C16.2195 28.2388 15.3496 31.3754 15.3 34.5782V34.5782ZM34.493 51.8332C34.3291 51.8474 34.1645 51.8531 34 51.8502C33.796 51.8332 33.609 51.8502 33.388 51.8332C31.4296 51.7695 29.497 51.3669 27.676 50.6432L28.067 52.5982C29.7623 53.1671 31.5325 53.4822 33.32 53.5332C33.524 53.5502 33.762 53.5502 34 53.5502C34.204 53.5502 34.425 53.5502 34.578 53.5332C35.7686 53.5065 36.9534 53.3584 38.114 53.0912L38.488 51.2552C37.1846 51.6029 35.8449 51.7969 34.4964 51.8332H34.493ZM40.63 17.3742C41.472 18.1472 42.1286 19.1002 42.551 20.1622C45.0775 21.6387 47.1817 23.7403 48.6613 26.265C50.141 28.7896 50.9464 31.6524 51 34.5782C51.6295 34.8752 52.1998 35.2842 52.683 35.7852C52.7 35.4792 52.7 35.1732 52.7 34.8502C52.6981 31.0568 51.5426 27.3537 49.3868 24.2324C47.2311 21.111 44.177 18.7192 40.63 17.3742V17.3742Z" fill="#7D91CB"/>
<path d="M56.5624 50.6772C56.2885 49.3316 55.559 48.1217 54.4967 47.2514C53.4345 46.3812 52.1046 45.904 50.7314 45.9002H48.45C49.5772 45.9002 50.6582 45.4525 51.4552 44.6554C52.2522 43.8584 52.7 42.7774 52.7 41.6502V39.9502C52.7 38.8231 52.2522 37.7421 51.4552 36.945C50.6582 36.148 49.5772 35.7002 48.45 35.7002C47.3228 35.7002 46.2418 36.148 45.4448 36.945C44.6478 37.7421 44.2 38.8231 44.2 39.9502V41.6502C44.2 42.7774 44.6478 43.8584 45.4448 44.6554C46.2418 45.4525 47.3228 45.9002 48.45 45.9002H46.1754C44.8131 45.8989 43.4918 46.3661 42.4332 47.2235C41.3746 48.081 40.6431 49.2764 40.3614 50.6092C40.3614 50.6262 40.3444 50.6602 40.3444 50.6772L39.9704 52.5812L38.9164 57.8002H57.9904L56.5624 50.6772ZM45.9 41.6502V39.9502C45.9 39.2739 46.1687 38.6253 46.6469 38.1471C47.1251 37.6689 47.7737 37.4002 48.45 37.4002C49.1263 37.4002 49.7749 37.6689 50.2531 38.1471C50.7313 38.6253 51 39.2739 51 39.9502V41.6502C51 42.3265 50.7313 42.9751 50.2531 43.4534C49.7749 43.9316 49.1263 44.2002 48.45 44.2002C47.7737 44.2002 47.1251 43.9316 46.6469 43.4534C46.1687 42.9751 45.9 42.3265 45.9 41.6502ZM40.9904 56.1002L41.8574 51.8162L42.0104 51.0172C42.1212 50.4558 42.3469 49.9233 42.6734 49.4532C43.2156 48.635 44.0376 48.0427 44.9854 47.7872C45.3702 47.6646 45.7715 47.6015 46.1754 47.6002H50.7314C51.7135 47.6008 52.6652 47.9416 53.4245 48.5645C54.1838 49.1875 54.7039 50.0542 54.8964 51.0172L55.9164 56.1002H40.9904Z" fill="#002979"/>
<path d="M26.2004 51.8672L25.9624 50.6772C25.8941 50.3335 25.7916 49.9975 25.6564 49.6742C25.2829 48.729 24.675 47.8943 23.8898 47.2489C23.1046 46.6036 22.1681 46.1687 21.1684 45.9852H21.1514C20.814 45.9316 20.473 45.9032 20.1314 45.9002H17.85C18.9772 45.9002 20.0582 45.4525 20.8552 44.6554C21.6522 43.8584 22.1 42.7774 22.1 41.6502V39.9502C22.1 38.8231 21.6522 37.7421 20.8552 36.945C20.0582 36.148 18.9772 35.7002 17.85 35.7002C16.7228 35.7002 15.6418 36.148 14.8448 36.945C14.0478 37.7421 13.6 38.8231 13.6 39.9502V41.6502C13.6 42.7774 14.0478 43.8584 14.8448 44.6554C15.6418 45.4525 16.7228 45.9002 17.85 45.9002H15.5754C14.2014 45.9008 12.8698 46.3768 11.8069 47.2476C10.744 48.1184 10.0153 49.3302 9.7444 50.6772L8.3164 57.8002H27.3904L26.2004 51.8672ZM15.3 41.6502V39.9502C15.3 39.2739 15.5687 38.6253 16.0469 38.1471C16.5251 37.6689 17.1737 37.4002 17.85 37.4002C18.5263 37.4002 19.1749 37.6689 19.6531 38.1471C20.1313 38.6253 20.4 39.2739 20.4 39.9502V41.6502C20.4 42.3265 20.1313 42.9751 19.6531 43.4534C19.1749 43.9316 18.5263 44.2002 17.85 44.2002C17.1737 44.2002 16.5251 43.9316 16.0469 43.4534C15.5687 42.9751 15.3 42.3265 15.3 41.6502ZM10.3904 56.1002L11.4104 51.0172C11.6029 50.0542 12.123 49.1875 12.8823 48.5645C13.6416 47.9416 14.5933 47.6008 15.5754 47.6002H20.1314C21.1135 47.6008 22.0652 47.9416 22.8245 48.5645C23.5838 49.1875 24.1039 50.0542 24.2964 51.0172L25.3164 56.1002H10.3904Z" fill="#002979"/>
<path d="M41.2624 21.7772C40.9859 20.4329 40.2556 19.2246 39.1939 18.3548C38.1323 17.4851 36.8038 17.0068 35.4314 17.0002H33.15C34.2772 17.0002 35.3582 16.5525 36.1552 15.7554C36.9522 14.9584 37.4 13.8774 37.4 12.7502V11.0502C37.4 9.92307 36.9522 8.84207 36.1552 8.04504C35.3582 7.24801 34.2772 6.80024 33.15 6.80024C32.0228 6.80024 30.9418 7.24801 30.1448 8.04504C29.3478 8.84207 28.9 9.92307 28.9 11.0502V12.7502C28.9 13.8774 29.3478 14.9584 30.1448 15.7554C30.9418 16.5525 32.0228 17.0002 33.15 17.0002H30.8754C29.8216 17.0051 28.7876 17.2873 27.8774 17.8185C26.9673 18.3497 26.213 19.1111 25.6904 20.0262C25.3777 20.5693 25.1593 21.1613 25.0444 21.7772L23.6164 28.9002H42.6904L41.2624 21.7772ZM30.6 12.7502V11.0502C30.6 10.3739 30.8687 9.72534 31.3469 9.24712C31.8251 8.7689 32.4737 8.50024 33.15 8.50024C33.8263 8.50024 34.4749 8.7689 34.9531 9.24712C35.4313 9.72534 35.7 10.3739 35.7 11.0502V12.7502C35.7 13.4265 35.4313 14.0751 34.9531 14.5534C34.4749 15.0316 33.8263 15.3002 33.15 15.3002C32.4737 15.3002 31.8251 15.0316 31.3469 14.5534C30.8687 14.0751 30.6 13.4265 30.6 12.7502V12.7502ZM25.6904 27.2002L26.7104 22.1172C26.9029 21.1542 27.423 20.2875 28.1823 19.6645C28.9416 19.0416 29.8933 18.7008 30.8754 18.7002H35.4314C36.4135 18.7008 37.3652 19.0416 38.1245 19.6645C38.8838 20.2875 39.4039 21.1542 39.5964 22.1172L40.6164 27.2002H25.6904Z" fill="#002979"/>
</svg>
