<svg width="50" height="56" viewBox="0 0 50 56" fill="none" xmlns="http://www.w3.org/2000/svg">
<path d="M7.30005 28.578C7.83926 28.3117 8.4199 28.1392 9.01705 28.068C9.12982 25.666 9.75019 23.3151 10.8373 21.1702C11.9244 19.0254 13.4535 17.1351 15.324 15.624L15.358 15.454C15.5504 14.4879 15.9317 13.5693 16.48 12.751C13.7246 14.3843 11.4338 16.6968 9.82669 19.4677C8.21954 22.2385 7.34963 25.3752 7.30005 28.578V28.578ZM26.493 45.833C26.3291 45.8471 26.1646 45.8528 26 45.85C25.796 45.833 25.609 45.85 25.388 45.833C23.4296 45.7692 21.497 45.3666 19.676 44.643L20.067 46.598C21.7624 47.1669 23.5325 47.4819 25.32 47.533C25.524 47.55 25.762 47.55 26 47.55C26.204 47.55 26.425 47.55 26.578 47.533C27.7687 47.5063 28.9535 47.3582 30.114 47.091L30.488 45.255C29.1846 45.6026 27.845 45.7966 26.4964 45.833H26.493ZM32.63 11.374C33.472 12.1469 34.1287 13.0999 34.551 14.162C37.0775 15.6385 39.1817 17.7401 40.6614 20.2647C42.141 22.7894 42.9464 25.6522 43 28.578C43.6296 28.875 44.1998 29.284 44.683 29.785C44.7 29.479 44.7 29.173 44.7 28.85C44.6982 25.0566 43.5427 21.3534 41.3869 18.2321C39.2311 15.1108 36.177 12.7189 32.63 11.374V11.374Z" fill="#7D91CB"/>
<path d="M48.5625 44.677C48.2887 43.3314 47.5591 42.1214 46.4968 41.2512C45.4346 40.3809 44.1047 39.9037 42.7315 39.9H40.4501C41.5773 39.9 42.6583 39.4522 43.4553 38.6552C44.2523 37.8582 44.7001 36.7772 44.7001 35.65V33.95C44.7001 32.8228 44.2523 31.7418 43.4553 30.9448C42.6583 30.1478 41.5773 29.7 40.4501 29.7C39.3229 29.7 38.2419 30.1478 37.4449 30.9448C36.6479 31.7418 36.2001 32.8228 36.2001 33.95V35.65C36.2001 36.7772 36.6479 37.8582 37.4449 38.6552C38.2419 39.4522 39.3229 39.9 40.4501 39.9H38.1755C36.8132 39.8987 35.4919 40.3659 34.4333 41.2233C33.3747 42.0807 32.6432 43.2761 32.3615 44.609C32.3615 44.626 32.3445 44.66 32.3445 44.677L31.9705 46.581L30.9165 51.8H49.9905L48.5625 44.677ZM37.9001 35.65V33.95C37.9001 33.2737 38.1688 32.6251 38.647 32.1469C39.1252 31.6687 39.7738 31.4 40.4501 31.4C41.1264 31.4 41.775 31.6687 42.2532 32.1469C42.7314 32.6251 43.0001 33.2737 43.0001 33.95V35.65C43.0001 36.3263 42.7314 36.9749 42.2532 37.4531C41.775 37.9313 41.1264 38.2 40.4501 38.2C39.7738 38.2 39.1252 37.9313 38.647 37.4531C38.1688 36.9749 37.9001 36.3263 37.9001 35.65ZM32.9905 50.1L33.8575 45.816L34.0105 45.017C34.1213 44.4555 34.347 43.923 34.6735 43.453C35.2157 42.6348 36.0378 42.0424 36.9855 41.787C37.3703 41.6644 37.7716 41.6013 38.1755 41.6H42.7315C43.7136 41.6006 44.6653 41.9413 45.4246 42.5643C46.1839 43.1872 46.704 44.0539 46.8965 45.017L47.9165 50.1H32.9905Z" fill="#002979"/>
<path d="M18.2004 45.867L17.9624 44.677C17.8941 44.3333 17.7916 43.9973 17.6564 43.674C17.2829 42.7287 16.675 41.8941 15.8898 41.2487C15.1046 40.6033 14.1681 40.1684 13.1684 39.985H13.1514C12.814 39.9314 12.473 39.903 12.1314 39.9H9.85001C10.9772 39.9 12.0582 39.4522 12.8552 38.6552C13.6522 37.8582 14.1 36.7772 14.1 35.65V33.95C14.1 32.8228 13.6522 31.7418 12.8552 30.9448C12.0582 30.1478 10.9772 29.7 9.85001 29.7C8.72284 29.7 7.64183 30.1478 6.8448 30.9448C6.04777 31.7418 5.60001 32.8228 5.60001 33.95V35.65C5.60001 36.7772 6.04777 37.8582 6.8448 38.6552C7.64183 39.4522 8.72284 39.9 9.85001 39.9H7.57541C6.20136 39.9005 4.86985 40.3766 3.80695 41.2473C2.74405 42.1181 2.01529 43.3299 1.74441 44.677L0.316406 51.8H19.3904L18.2004 45.867ZM7.30001 35.65V33.95C7.30001 33.2737 7.56867 32.6251 8.04688 32.1469C8.5251 31.6687 9.1737 31.4 9.85001 31.4C10.5263 31.4 11.1749 31.6687 11.6531 32.1469C12.1313 32.6251 12.4 33.2737 12.4 33.95V35.65C12.4 36.3263 12.1313 36.9749 11.6531 37.4531C11.1749 37.9313 10.5263 38.2 9.85001 38.2C9.1737 38.2 8.5251 37.9313 8.04688 37.4531C7.56867 36.9749 7.30001 36.3263 7.30001 35.65ZM2.39041 50.1L3.41041 45.017C3.60291 44.0539 4.12303 43.1872 4.88233 42.5643C5.64164 41.9413 6.59326 41.6006 7.57541 41.6H12.1314C13.1135 41.6006 14.0652 41.9413 14.8245 42.5643C15.5838 43.1872 16.1039 44.0539 16.2964 45.017L17.3164 50.1H2.39041Z" fill="#002979"/>
<path d="M33.2625 15.777C32.986 14.4327 32.2556 13.2244 31.194 12.3546C30.1323 11.4848 28.8039 11.0066 27.4315 11H25.1501C26.2772 11 27.3582 10.5522 28.1553 9.75521C28.9523 8.95818 29.4001 7.87717 29.4001 6.75V5.05C29.4001 3.92283 28.9523 2.84183 28.1553 2.0448C27.3582 1.24777 26.2772 0.800003 25.1501 0.800003C24.0229 0.800003 22.9419 1.24777 22.1449 2.0448C21.3478 2.84183 20.9001 3.92283 20.9001 5.05V6.75C20.9001 7.87717 21.3478 8.95818 22.1449 9.75521C22.9419 10.5522 24.0229 11 25.1501 11H22.8755C21.8216 11.0049 20.7877 11.2871 19.8775 11.8183C18.9673 12.3494 18.213 13.1109 17.6905 14.026C17.3778 14.569 17.1594 15.1611 17.0445 15.777L15.6165 22.9H34.6905L33.2625 15.777ZM22.6001 6.75V5.05C22.6001 4.3737 22.8687 3.7251 23.3469 3.24688C23.8252 2.76866 24.4738 2.5 25.1501 2.5C25.8264 2.5 26.475 2.76866 26.9532 3.24688C27.4314 3.7251 27.7001 4.3737 27.7001 5.05V6.75C27.7001 7.42631 27.4314 8.07491 26.9532 8.55313C26.475 9.03134 25.8264 9.3 25.1501 9.3C24.4738 9.3 23.8252 9.03134 23.3469 8.55313C22.8687 8.07491 22.6001 7.42631 22.6001 6.75V6.75ZM17.6905 21.2L18.7105 16.117C18.903 15.1539 19.4231 14.2872 20.1824 13.6643C20.9417 13.0413 21.8933 12.7006 22.8755 12.7H27.4315C28.4136 12.7006 29.3652 13.0413 30.1245 13.6643C30.8838 14.2872 31.404 15.1539 31.5965 16.117L32.6165 21.2H17.6905Z" fill="#002979"/>
</svg>
