<svg width="42" height="44" viewBox="0 0 42 44" fill="none" xmlns="http://www.w3.org/2000/svg">
<path d="M41 42.879L39.8653 44.0002L34 38.1215C34.3836 37.7691 34.7671 37.3847 35.1347 37.0002L41 42.879Z" fill="#002979"/>
<path d="M7.86735 38.0002C8.22631 38.3658 8.6044 38.7117 9 39.0363L4.08673 44.0002L3 42.9178L7.86735 38.0002Z" fill="#002979"/>
<path d="M25 0.000244141H17V1.65587H20.2V5.00024C20.7325 4.95592 21.2675 4.95592 21.8 5.00024V1.65587H25V0.000244141Z" fill="#002979"/>
<path d="M12 7.32594C11.5433 7.55077 11.0984 7.79958 10.6671 8.07135C9.69769 7.12042 8.41525 6.57076 7.06953 6.52942C5.7238 6.48808 4.41114 6.95803 3.38718 7.84773C3.28464 7.92227 3.25535 7.967 3.19676 8.01172C3.14189 8.07502 3.08318 8.13477 3.02099 8.19062C2.01057 9.25641 1.44835 10.6812 1.45382 12.1623C1.45929 13.6433 2.03202 15.0638 3.05028 16.1218L3.40182 16.4796C3.17634 16.9739 2.98067 17.4817 2.81592 18.0002L2.0103 17.1803C0.721348 15.834 0 14.0285 0 12.1488C0 10.269 0.721348 8.46353 2.0103 7.11722L2.17142 6.95323C2.26708 6.85593 2.36992 6.76622 2.47902 6.68489C3.69855 5.59644 5.26596 4.99755 6.88797 5.00025C7.80365 4.99961 8.71007 5.18673 9.55314 5.55045C10.3962 5.91417 11.1586 6.44703 11.7949 7.11722L12 7.32594Z" fill="#002979"/>
<path d="M39.8128 17.1803L38.9554 18.0002C38.7768 17.4817 38.5647 16.9739 38.3202 16.4796L38.6854 16.1218C39.7926 15.0576 40.4124 13.629 40.4124 12.1413C40.4124 10.6536 39.7926 9.225 38.6854 8.1608L38.5267 8.01172C38.4831 7.96788 38.4352 7.92795 38.3838 7.89245C37.2783 6.98089 35.848 6.49323 34.3771 6.52637C32.9063 6.55952 31.5025 7.11104 30.4449 8.07135C29.9773 7.79958 29.495 7.55077 29 7.32594L29.2223 7.11722C29.9089 6.44726 30.7325 5.9144 31.6438 5.55063C32.5551 5.18685 33.5352 4.99965 34.5255 5.00025C36.3113 4.99778 38.0354 5.61348 39.3682 6.72961C39.4668 6.79436 39.5574 6.86938 39.6381 6.95323L39.781 7.0725C41.1971 8.41672 41.994 10.2296 42 12.1203C42.0059 14.011 41.2204 15.8282 39.8128 17.1803Z" fill="#002979"/>
<path d="M20.3769 31.0002L14 25.1696L15.0446 24.053L20.3138 28.8706L30.8908 18.0002L32 19.0544L20.3769 31.0002Z" fill="#7D91CB"/>
<path d="M21.7696 7.01546C21.5037 7.00024 21.2535 7.00024 20.9876 7.00024C20.7216 7.00024 20.4714 7.00024 20.2055 7.01546C16.6903 7.16233 13.2966 8.30956 10.4452 10.315C7.59376 12.3203 5.40989 15.0957 4.16426 18.2971C2.91864 21.4985 2.66602 24.9851 3.43773 28.3249C4.20944 31.6646 5.97154 34.7106 8.50563 37.0853C8.87391 37.4444 9.26577 37.7799 9.67874 38.0896C11.8897 39.8349 14.4949 41.0447 17.2801 41.6194C20.0653 42.1941 22.951 42.1174 25.6998 41.3956C28.4485 40.6737 30.982 39.3274 33.0916 37.4672C35.2013 35.6071 36.827 33.2863 37.835 30.6957C38.843 28.1051 39.2045 25.3188 38.8898 22.5657C38.5751 19.8127 37.5931 17.1717 36.0247 14.8599C34.4563 12.5481 32.3463 10.6315 29.868 9.26774C27.3898 7.90401 24.6143 7.13209 21.7696 7.01546V7.01546ZM20.9876 40.4788C17.7393 40.4788 14.5639 39.5417 11.8631 37.7859C9.16225 36.0302 7.0572 33.5347 5.81414 30.6151C4.57107 27.6954 4.24583 24.4827 4.87954 21.3832C5.51325 18.2837 7.07744 15.4366 9.37432 13.202C11.6712 10.9673 14.5976 9.44555 17.7835 8.82902C20.9693 8.21249 24.2716 8.52891 27.2726 9.73828C30.2736 10.9476 32.8386 12.9956 34.6433 15.6233C36.4479 18.2509 37.4111 21.3402 37.4111 24.5004C37.4062 28.7366 35.6742 32.798 32.5953 35.7935C29.5164 38.789 25.3418 40.474 20.9876 40.4788Z" fill="#002979"/>
</svg>
