<svg width="72" height="72" viewBox="0 0 72 72" fill="none" xmlns="http://www.w3.org/2000/svg">
<path d="M57.8643 14.6647L49.7642 22.7647L51.037 24.0375L59.1371 15.9375L57.8643 14.6647Z" fill="#002979"/>
<path d="M15.0368 14.6647L13.764 15.9375L21.8641 24.0376L23.1369 22.7648L15.0368 14.6647Z" fill="#002979"/>
<path d="M37.8 10.8002H36V21.6002H37.8V10.8002Z" fill="#002979"/>
<path d="M36 52.2002C33.864 52.2002 31.7759 51.5668 29.9998 50.3801C28.2238 49.1934 26.8395 47.5067 26.0221 45.5332C25.2047 43.5598 24.9908 41.3883 25.4075 39.2933C25.8242 37.1983 26.8528 35.2739 28.3632 33.7635C29.8737 32.2531 31.798 31.2245 33.893 30.8078C35.988 30.391 38.1595 30.6049 40.133 31.4223C42.1064 32.2398 43.7932 33.624 44.9799 35.4001C46.1666 37.1761 46.8 39.2642 46.8 41.4002C46.7967 44.2636 45.6577 47.0086 43.6331 49.0333C41.6084 51.058 38.8633 52.1969 36 52.2002V52.2002ZM36 32.4002C34.22 32.4002 32.4799 32.9281 30.9999 33.917C29.5198 34.906 28.3663 36.3116 27.6851 37.9561C27.0039 39.6006 26.8257 41.4102 27.1729 43.1561C27.5202 44.9019 28.3774 46.5055 29.636 47.7642C30.8947 49.0229 32.4984 49.88 34.2442 50.2273C35.99 50.5746 37.7996 50.3964 39.4442 49.7152C41.0887 49.034 42.4943 47.8804 43.4832 46.4004C44.4722 44.9203 45 43.1803 45 41.4002C44.9971 39.0142 44.048 36.7266 42.3608 35.0394C40.6736 33.3522 38.3861 32.4031 36 32.4002V32.4002Z" fill="#002979"/>
<path d="M36 56.7002H35.5392C30.5844 56.6752 25.7353 55.2659 21.5389 52.6315C17.3425 49.997 13.9659 46.2423 11.79 41.7908L11.6028 41.4002L11.7828 41.0096C13.9607 36.5577 17.3394 32.8031 21.5377 30.1693C25.736 27.5355 30.5868 26.1274 35.5428 26.1038H36.0072C41.0329 26.0741 45.966 27.4555 50.2454 30.0909C54.5247 32.7264 57.9784 36.51 60.2136 41.0114L60.3936 41.4038L60.2136 41.7962C57.975 46.2962 54.5194 50.0782 50.2393 52.7127C45.9591 55.3472 41.0259 56.7287 36 56.7002V56.7002ZM13.6044 41.4002C15.6774 45.4458 18.8217 48.8442 22.6942 51.2249C26.5667 53.6055 31.0187 54.8769 35.5644 54.9002H35.9946C40.6091 54.928 45.142 53.6825 49.0945 51.3007C53.0469 48.9189 56.266 45.4931 58.3974 41.4002C56.2688 37.3062 53.0512 33.8792 49.0992 31.4972C45.1472 29.1151 40.6143 27.8704 36 27.9002H35.5662C31.0201 27.9228 26.5676 29.1939 22.6947 31.5746C18.8217 33.9553 15.6772 37.3541 13.6044 41.4002V41.4002Z" fill="#7D91CB"/>
</svg>
