<svg width="158" height="84" viewBox="0 0 158 84" fill="none" xmlns="http://www.w3.org/2000/svg">
<g clip-path="url(#clip0)">
<rect width="1440" height="2684" transform="translate(-1057 -759)" fill="white"/>
<path d="M394 506.001L-865 506.001L-865 103.41C-865 91.4818 -858.365 80.5435 -847.787 75.0315L-786.312 43.0005L-707.625 84.0005L-628.937 43.0005L-550.25 84.0005L-471.562 43.0005L-392.875 84.0005L-314.187 43.0005L-235.5 84.0006L-156.812 43.0006L-78.125 84.0006L0.56254 43.0006L79.25 84.0006L157.938 43.0006L236.625 84.0006L315.313 43.0006L394 84.0006L394 506.001Z" fill="#F5F5F6"/>
<path opacity="0.5" fill-rule="evenodd" clip-rule="evenodd" d="M474 318H528L422 179.5L405 0.000233388L316 41.0002L237.312 0.000218728L158.625 41.0002L79.9375 0.00020497L1.25 41.0002L-77.4375 0.000191212L-156.125 41.0002L-234.812 0.000177453L-313.5 41.0002L-392.188 0.000163695L-470.875 41.0002L-549.562 0.000149937L-628.25 41.0001L-706.937 0.000136179L-785.625 41.0001L-864.312 0.00012207L-925.787 32.0312C-936.365 37.5431 -943 48.4814 -943 60.4099L-943 290H-997L-891 454L-874 633.5L-785 592.5L-706.312 633.5L-627.625 592.5L-548.938 633.5L-470.25 592.5L-391.562 633.5L-312.875 592.5L-234.188 633.5L-155.5 592.5L-76.8125 633.5L1.875 592.5L80.5625 633.5L159.25 592.5L237.938 633.5L316.625 592.5L395.312 633.5L456.787 601.469C467.365 595.957 474 585.019 474 573.09V318Z" fill="#F5F5F6"/>
</g>
<defs>
<clipPath id="clip0">
<rect width="1440" height="2684" fill="white" transform="translate(-1057 -759)"/>
</clipPath>
</defs>
</svg>
