<svg width="158" height="84" viewBox="0 0 158 84" fill="none" xmlns="http://www.w3.org/2000/svg">
<g clip-path="url(#clip0)">
<rect width="1440" height="2674" transform="translate(-1062 -892)" fill="white"/>
<path fill-rule="evenodd" clip-rule="evenodd" d="M474 319H527L474 249.75V201.5H437.072L421 180.5L404 1.00011L315 42.0001L236.312 1.0001L157.625 42.0001L78.9375 1.00008L0.25 42.0001L-78.4375 1.00007L-157.125 42.0001L-235.812 1.00006L-314.5 42L-393.188 1.00004L-471.875 42L-550.562 1.00003L-629.25 42L-707.937 1.00001L-786.625 42L-865.312 1L-926.787 33.031C-937.365 38.543 -944 49.4813 -944 61.4098L-944 201.5H-997L-944 270.75L-944 319H-907.072L-891 340L-874 519.5L-785 478.5L-706.312 519.5L-627.625 478.5L-548.938 519.5L-470.25 478.5L-391.562 519.5L-312.875 478.5L-234.188 519.5L-155.5 478.5L-76.8125 519.5L1.875 478.5L80.5625 519.5L159.25 478.5L237.938 519.5L316.625 478.5L395.312 519.5L456.787 487.469C467.365 481.957 474 471.019 474 459.09V319Z" fill="#FAFAFA"/>
<path opacity="0.7" fill-rule="evenodd" clip-rule="evenodd" d="M-864 385.001H-865L-865 102.41C-865 90.4813 -858.365 79.543 -847.787 74.031L-786.312 42L-707.625 83L-628.937 42L-550.25 83L-471.562 42L-392.875 83L-314.188 42L-235.5 83L-156.812 42.0001L-78.125 83.0001L0.5625 42.0001L79.25 83.0001L157.938 42.0001L236.625 83.0001L315.312 42.0001L394 83.0001V185H395V418.09C395 430.018 388.365 440.957 377.787 446.469L316.312 478.5L237.625 437.5L158.938 478.5L80.25 437.5L1.5625 478.5L-77.125 437.5L-155.812 478.5L-234.5 437.5L-313.188 478.5L-391.875 437.5L-470.562 478.5L-549.25 437.5L-627.938 478.5L-706.625 437.5L-785.312 478.5L-864 437.5V385.001Z" fill="#F5F5F6"/>
</g>
<defs>
<clipPath id="clip0">
<rect width="1440" height="2674" fill="white" transform="translate(-1062 -892)"/>
</clipPath>
</defs>
</svg>
