<svg width="613" height="572" viewBox="0 0 613 572" fill="none" xmlns="http://www.w3.org/2000/svg">
<rect width="613" height="572" fill="#1E1E1E"/>
<g clip-path="url(#clip0_181_210)">
<rect width="613" height="572" rx="24" fill="url(#paint0_linear_181_210)"/>
<g filter="url(#filter0_f_181_210)">
<path d="M-207.451 480.001C-203.058 489.646 -192.347 496.138 -181.183 495.924L727.653 478.515C744.656 478.189 754.725 462.969 747.559 448.428L742.867 438.906C739.375 431.821 732.365 426.403 724.138 424.431L-304.595 177.841C-324.262 173.127 -339.832 189.374 -332.041 206.479L-207.451 480.001Z" fill="url(#paint1_linear_181_210)"/>
</g>
</g>
<path d="M240.306 120.475C241.684 119.953 242.377 118.414 241.856 117.037C241.335 115.659 239.796 114.965 238.418 115.487C237.041 116.008 236.347 117.547 236.868 118.925C237.389 120.302 238.929 120.996 240.306 120.475ZM467.972 223.122C469.349 222.601 470.043 221.062 469.522 219.684C469.001 218.307 467.462 217.613 466.084 218.134C464.707 218.656 464.013 220.195 464.534 221.572C465.055 222.95 466.595 223.644 467.972 223.122ZM131.615 236.22L132.097 236.353C146.555 184.054 184.906 139.126 239.539 118.448L239.362 117.981L239.185 117.513C184.241 138.308 145.672 183.493 131.133 236.087L131.615 236.22ZM356.398 115.17L356.244 115.645C405.274 131.596 446.89 168.833 466.56 220.805L467.028 220.628L467.496 220.451C447.713 168.184 405.859 130.735 356.553 114.694L356.398 115.17ZM364.38 448.294L364.203 447.827C294.411 474.242 218.327 453.406 171.146 401.185L170.775 401.521L170.404 401.856C217.851 454.372 294.368 475.327 364.557 448.762L364.38 448.294ZM435.807 398.277L435.427 397.952C416.857 419.593 392.754 437.021 364.203 447.827L364.38 448.294L364.557 448.762C393.269 437.895 417.51 420.368 436.186 398.603L435.807 398.277Z" fill="white"/>
<path d="M327.981 126.945C333.083 121.299 335.89 113.985 335.89 106.352C335.89 89.4694 322.245 75.7349 305.471 75.7349C288.697 75.7349 275.052 89.4694 275.052 106.352C275.052 113.985 277.86 121.299 282.958 126.942C290.954 135.822 290.653 143.543 290.638 143.851L290.567 144.92L290.592 144.945L290.016 148.313C289.428 151.76 290.885 155.058 293.511 157.003H293.232C293.232 163.751 298.723 169.243 305.471 169.243C312.219 169.243 317.711 163.751 317.711 157.003H317.468C320.074 155.081 321.551 151.826 321.026 148.43L320.305 143.785C320.278 142.981 320.268 135.512 327.981 126.945ZM286.49 123.756C282.181 118.986 279.807 112.806 279.807 106.352C279.807 92.0913 291.319 80.4895 305.471 80.4895C319.624 80.4895 331.136 92.0913 331.136 106.352C331.136 112.806 328.761 118.986 324.449 123.759C317.017 132.015 315.764 139.692 315.578 142.762C314.312 143.482 311.247 144.765 305.471 144.765C299.67 144.765 296.603 143.471 295.365 142.77C295.182 139.704 293.931 132.021 286.49 123.756ZM316.327 149.158C316.667 151.355 315.237 153.443 313.074 153.911C308.7 154.85 302.329 154.858 297.94 153.926C295.745 153.459 294.321 151.343 294.702 149.113L294.927 147.8C297.162 148.69 300.547 149.52 305.471 149.52C310.458 149.52 313.877 148.67 316.111 147.767L316.327 149.158ZM305.471 164.488C301.955 164.488 299.016 162.041 298.219 158.766C300.425 159.145 302.822 159.38 305.471 159.38C308.123 159.38 310.519 159.143 312.725 158.762C311.928 162.04 308.989 164.488 305.471 164.488Z" fill="url(#paint2_linear_181_210)"/>
<path d="M312.603 109.81C312.603 116.297 307.932 121.765 305.471 124.198C303.01 121.765 298.339 116.297 298.339 109.81H293.585C293.585 119.067 300.553 126.208 303.094 128.505V139.99H307.849V128.505C310.39 126.208 317.358 119.067 317.358 109.81H312.603Z" fill="url(#paint3_linear_181_210)"/>
<path d="M505.535 265.237C506.593 266.732 507.503 268.329 508.229 270.015H516.754V338.498H451.457V270.015H459.981C460.708 268.329 461.618 266.732 462.675 265.237H446.679V343.276H521.532V265.237H505.535Z" fill="url(#paint4_linear_181_210)"/>
<path d="M505.747 279.571H462.463L462.924 276.793C464.101 269.676 468.8 263.679 475.36 260.761C475.618 256.16 479.441 252.496 484.105 252.496C488.77 252.496 492.593 256.16 492.851 260.761C499.411 263.679 504.109 269.676 505.287 276.793L505.747 279.571ZM468.35 274.793H499.86C498.199 270.074 494.446 266.292 489.581 264.599L487.661 263.934L488.012 261.931C488.051 261.71 488.087 261.489 488.087 261.256C488.087 259.059 486.301 257.274 484.105 257.274C481.909 257.274 480.124 259.059 480.124 261.256C480.124 261.489 480.159 261.71 480.198 261.931L480.55 263.934L478.629 264.599C473.764 266.292 470.011 270.074 468.35 274.793Z" fill="url(#paint5_linear_181_210)"/>
<path d="M120.677 293.019L125.265 288.35L119.797 278.107L113.44 279.304C112.738 279.446 111.994 279.295 111.163 278.769C110.558 278.394 110.121 277.807 109.929 277.116L108.198 270.882L96.5936 270.496L94.4562 276.596C94.2165 277.274 93.7399 277.831 92.8955 278.282C92.2517 278.635 91.5105 278.727 90.8054 278.549L84.5378 276.929L78.4013 286.785L82.6679 291.75C83.1417 292.3 83.3869 293.015 83.3591 293.811C83.3368 294.558 83.0414 295.253 82.5314 295.773L77.947 300.441L83.412 310.684L89.7716 309.485C90.4738 309.354 91.2207 309.495 92.0484 310.022C92.6531 310.397 93.0907 310.983 93.283 311.673L95.008 317.909L106.615 318.294L108.758 312.19C108.995 311.514 109.469 310.96 110.319 310.507C110.957 310.153 111.701 310.059 112.406 310.242L118.671 311.861L124.808 302.005L120.544 297.043C120.07 296.49 119.822 295.774 119.819 295.31L119.85 294.978C119.872 294.233 120.167 293.538 120.677 293.019ZM117.297 299.832L119.513 302.412L116.698 306.931L113.474 306.097C111.704 305.645 109.856 305.876 108.089 306.846C106.506 307.686 105.311 309.083 104.717 310.774L103.617 313.911L98.2965 313.734L97.4075 310.529C96.9281 308.8 95.8245 307.328 94.1441 306.283C92.6058 305.299 90.7804 304.937 88.9801 305.28L85.7084 305.896L83.203 301.199L85.5858 298.773C86.8482 297.487 87.5783 295.774 87.6118 294.234L87.6424 293.903C87.701 292.08 87.0878 290.324 85.9146 288.959L83.6963 286.378L86.511 281.859L89.7353 282.693C91.505 283.148 93.3554 282.914 95.1195 281.944C96.6996 281.105 97.898 279.711 98.4944 278.015L99.5924 274.88L104.915 275.057L105.804 278.261C106.284 279.991 107.387 281.462 109.065 282.507C110.606 283.492 112.445 283.855 114.232 283.51L117.501 282.895L120.009 287.592L117.623 290.018C116.361 291.304 115.631 293.016 115.567 294.888C115.508 296.706 116.121 298.461 117.297 299.832ZM158.648 276.091C158.648 275.66 158.804 275.253 159.083 274.945L162.686 271.027L157.921 262.772L152.782 263.919C152.369 264.004 151.951 263.938 151.427 263.629C151.076 263.428 150.817 263.104 150.694 262.714L149.117 257.689H139.586L138.009 262.715C137.886 263.104 137.627 263.428 137.109 263.728C136.749 263.94 136.326 264.005 135.921 263.919L130.783 262.772L126.017 271.027L129.618 274.944C129.899 275.252 130.055 275.659 130.055 276.127C130.055 276.559 129.899 276.966 129.618 277.272L126.017 281.192L130.783 289.446L135.921 288.298C136.317 288.205 136.746 288.276 137.279 288.591C137.627 288.79 137.886 289.115 138.009 289.505L139.586 294.528H149.117L150.694 289.502C150.817 289.115 151.076 288.79 151.595 288.491C151.954 288.276 152.375 288.209 152.782 288.298L157.921 289.446L162.686 281.192L159.083 277.272C158.804 276.966 158.648 276.559 158.648 276.091ZM155.931 280.168L157.408 281.774L155.786 284.583L153.713 284.121C152.236 283.793 150.714 284.039 149.295 284.876C148.008 285.615 147.052 286.805 146.609 288.223L145.974 290.248H142.73L142.094 288.226C141.651 286.805 140.695 285.615 139.293 284.809C137.992 284.037 136.462 283.798 134.991 284.121L132.917 284.583L131.295 281.774L132.77 280.168C133.781 279.07 134.336 277.634 134.336 276.09C134.336 274.584 133.781 273.149 132.77 272.048L131.295 270.444L132.917 267.635L134.991 268.096C136.47 268.422 137.995 268.179 139.411 267.341C140.695 266.601 141.651 265.413 142.094 263.996L142.73 261.97H145.974L146.609 263.994C147.052 265.413 148.008 266.601 149.41 267.409C150.708 268.18 152.238 268.42 153.713 268.096L155.786 267.635L157.408 270.444L155.931 272.051C154.922 273.149 154.367 274.584 154.367 276.127C154.367 277.634 154.922 279.07 155.931 280.168ZM101.919 285.003C99.4363 284.912 97.0201 285.815 95.1863 287.532C93.3498 289.246 92.2936 291.573 92.21 294.082C92.0372 299.26 96.1116 303.615 101.289 303.788C101.398 303.792 101.501 303.793 101.607 303.793C106.646 303.793 110.829 299.781 110.999 294.708C111.082 292.2 110.182 289.809 108.468 287.975C106.754 286.143 104.427 285.086 101.919 285.003ZM101.434 299.51C98.6142 299.415 96.3959 297.045 96.4906 294.225C96.5352 292.859 97.1093 291.592 98.1097 290.657C99.0656 289.764 100.297 289.278 101.602 289.278C101.657 289.278 101.716 289.279 101.774 289.281C103.143 289.327 104.408 289.901 105.342 290.9C106.275 291.898 106.766 293.199 106.718 294.566C106.626 297.386 104.16 299.592 101.434 299.51ZM147.892 276.196C147.828 278.119 146.217 279.625 144.294 279.561C142.372 279.497 140.865 277.886 140.929 275.963C140.993 274.04 142.604 272.533 144.527 272.598C146.45 272.662 147.956 274.273 147.892 276.196Z" fill="url(#paint6_linear_181_210)"/>
<path d="M163.088 321.573C163.099 320.903 163.353 320.272 163.804 319.795L168.107 315.26L162.706 305.546L156.65 306.793C156.015 306.926 155.352 306.807 154.588 306.342C154.039 306.013 153.638 305.493 153.454 304.879L151.704 298.95L140.59 298.769L138.642 304.635C138.438 305.247 138.02 305.752 137.257 306.177C136.688 306.506 136.019 306.604 135.384 306.446L129.37 305.003L123.657 314.537L127.812 319.21C128.247 319.699 128.481 320.337 128.47 321.055C128.459 321.725 128.205 322.356 127.754 322.832L123.451 327.367L128.849 337.082L134.902 335.835C135.548 335.701 136.209 335.822 136.97 336.288C137.516 336.614 137.917 337.134 138.101 337.751L139.857 343.679L150.968 343.86L152.916 337.992C153.119 337.382 153.537 336.875 154.301 336.451C154.872 336.122 155.538 336.032 156.174 336.182L162.185 337.626L167.901 328.092L163.743 323.418C163.311 322.929 163.077 322.291 163.088 321.573ZM160.543 326.262L162.611 328.588L160.128 332.729L157.171 332.018C155.471 331.612 153.696 331.867 152.021 332.822C150.519 333.653 149.396 335.01 148.853 336.643L147.897 339.529L143.067 339.451L142.203 336.536C141.716 334.883 140.634 333.49 139.012 332.52C137.519 331.602 135.752 331.293 134.041 331.642L131.062 332.255L128.718 328.033L130.858 325.779C132.048 324.525 132.722 322.872 132.75 321.079C132.778 319.331 132.16 317.658 131.011 316.366L128.946 314.041L131.427 309.899L134.383 310.609C136.092 311.02 137.859 310.763 139.534 309.807C141.036 308.977 142.161 307.618 142.705 305.984L143.661 303.099L148.488 303.177L149.352 306.092C149.839 307.742 150.918 309.134 152.545 310.108C154.036 311.025 155.797 311.337 157.514 310.986L160.493 310.373L162.84 314.594L160.697 316.851L160.694 316.853C159.507 318.108 158.835 319.759 158.807 321.55C158.779 323.296 159.395 324.968 160.543 326.262ZM146.01 313.95C143.967 313.914 142.167 314.598 140.735 315.944C139.302 317.291 138.477 319.117 138.416 321.084C138.355 323.05 139.063 324.923 140.409 326.357C141.858 327.9 143.817 328.678 145.782 328.677C147.59 328.677 149.402 328.017 150.823 326.684C153.783 323.903 153.93 319.232 151.149 316.271C149.8 314.836 147.978 314.013 146.01 313.95ZM147.891 323.563C146.657 324.728 144.692 324.667 143.53 323.428C142.365 322.186 142.426 320.23 143.666 319.065C144.243 318.523 144.987 318.228 145.776 318.228C145.809 318.228 145.843 318.228 145.876 318.229C146.698 318.254 147.465 318.6 148.028 319.2C149.193 320.442 149.131 322.398 147.891 323.563Z" fill="url(#paint7_linear_181_210)"/>
<path d="M279.475 204.049H266.483V181.649H269.267V201.489H279.475V204.049ZM288.236 204.241C283.34 204.241 280.14 200.881 280.14 195.889C280.14 190.929 283.276 187.537 287.884 187.537C292.492 187.537 295.5 190.449 295.628 195.281C295.628 195.633 295.596 196.017 295.564 196.401H282.892V196.625C282.988 199.729 284.94 201.905 288.044 201.905C290.348 201.905 292.14 200.689 292.684 198.577H295.34C294.7 201.841 292.012 204.241 288.236 204.241ZM283.052 194.225H292.812C292.556 191.409 290.636 189.841 287.916 189.841C285.516 189.841 283.308 191.569 283.052 194.225ZM312.734 201.649H313.566V204.049H312.126C309.95 204.049 309.214 203.121 309.182 201.521C308.158 202.993 306.526 204.241 303.71 204.241C300.126 204.241 297.694 202.449 297.694 199.473C297.694 196.209 299.966 194.385 304.254 194.385H309.054V193.265C309.054 191.153 307.55 189.873 304.99 189.873C302.686 189.873 301.15 190.961 300.83 192.625H298.206C298.59 189.425 301.182 187.537 305.118 187.537C309.278 187.537 311.678 189.617 311.678 193.425V200.561C311.678 201.425 311.998 201.649 312.734 201.649ZM309.054 197.393V196.593H303.998C301.662 196.593 300.35 197.457 300.35 199.313C300.35 200.913 301.726 202.001 303.902 202.001C307.166 202.001 309.054 200.113 309.054 197.393ZM322.816 187.729H323.552V190.289H322.24C318.816 190.289 317.888 193.137 317.888 195.729V204.049H315.264V187.729H317.536L317.888 190.193C318.656 188.945 319.904 187.729 322.816 187.729ZM333.506 187.537C337.186 187.537 340.098 189.553 340.098 194.961V204.049H337.474V195.121C337.474 191.729 335.906 189.937 333.058 189.937C329.986 189.937 328.13 192.209 328.13 195.889V204.049H325.506V187.729H327.778L328.13 189.937C329.09 188.689 330.754 187.537 333.506 187.537Z" fill="white"/>
<path d="M456.542 381.848V359.448H465.15C469.63 359.448 472.574 362.136 472.574 366.328C472.574 370.52 469.63 373.24 465.15 373.24H459.326V381.848H456.542ZM464.926 362.008H459.326V370.68H464.894C467.838 370.68 469.726 368.984 469.726 366.328C469.726 363.672 467.87 362.008 464.926 362.008ZM474.838 381.848V359.448H477.462V381.848H474.838ZM495.169 379.448H496.001V381.848H494.561C492.385 381.848 491.649 380.92 491.617 379.32C490.593 380.792 488.961 382.04 486.145 382.04C482.561 382.04 480.129 380.248 480.129 377.272C480.129 374.008 482.401 372.184 486.689 372.184H491.489V371.064C491.489 368.952 489.985 367.672 487.425 367.672C485.121 367.672 483.585 368.76 483.265 370.424H480.641C481.025 367.224 483.617 365.336 487.553 365.336C491.713 365.336 494.113 367.416 494.113 371.224V378.36C494.113 379.224 494.433 379.448 495.169 379.448ZM491.489 375.192V374.392H486.433C484.097 374.392 482.785 375.256 482.785 377.112C482.785 378.712 484.161 379.8 486.337 379.8C489.601 379.8 491.489 377.912 491.489 375.192ZM505.698 365.336C509.378 365.336 512.29 367.352 512.29 372.76V381.848H509.666V372.92C509.666 369.528 508.098 367.736 505.25 367.736C502.178 367.736 500.322 370.008 500.322 373.688V381.848H497.698V365.528H499.97L500.322 367.736C501.282 366.488 502.946 365.336 505.698 365.336Z" fill="white"/>
<path d="M91.3897 381.848V359.448H99.3257C104.094 359.448 106.75 361.752 106.75 365.368C106.75 367.928 105.342 369.496 103.23 370.232C105.598 370.68 107.678 372.216 107.678 375.448C107.678 379.416 104.862 381.848 99.5497 381.848H91.3897ZM99.4537 361.976H94.1737V369.176H99.4537C102.334 369.176 103.966 367.832 103.966 365.56C103.966 363.32 102.366 361.976 99.4537 361.976ZM99.5497 371.672H94.1737V379.32H99.5497C103.006 379.32 104.83 377.88 104.83 375.576C104.83 373.048 102.878 371.672 99.5497 371.672ZM121.891 373.688V365.528H124.515V381.848H122.243L121.891 379.672C120.931 380.888 119.363 382.04 116.675 382.04C113.091 382.04 110.243 380.024 110.243 374.616V365.528H112.867V374.456C112.867 377.848 114.403 379.64 117.123 379.64C120.099 379.64 121.891 377.368 121.891 373.688ZM129.116 362.776C128.156 362.776 127.42 362.072 127.42 361.08C127.42 360.088 128.156 359.384 129.116 359.384C130.076 359.384 130.812 360.088 130.812 361.08C130.812 362.072 130.076 362.776 129.116 362.776ZM127.772 381.848V365.528H130.396V381.848H127.772ZM133.671 381.848V359.448H136.295V381.848H133.671ZM152.433 368.024V359.448H155.057V381.848H152.785L152.433 379.224C151.345 380.728 149.585 382.04 146.833 382.04C142.321 382.04 138.993 379 138.993 373.688C138.993 368.696 142.321 365.336 146.833 365.336C149.585 365.336 151.441 366.456 152.433 368.024ZM147.089 379.704C150.289 379.704 152.465 377.24 152.465 373.752C152.465 370.168 150.289 367.672 147.089 367.672C143.857 367.672 141.681 370.136 141.681 373.688C141.681 377.24 143.857 379.704 147.089 379.704Z" fill="white"/>
<circle cx="466.943" cy="220.419" r="3.7915" fill="white"/>
<circle cx="168.903" cy="399.053" r="3.7915" fill="white"/>
<circle cx="240.56" cy="116.556" r="3.7915" fill="white"/>
<defs>
<filter id="filter0_f_181_210" x="-645.92" y="-134.815" width="1707.65" height="942.575" filterUnits="userSpaceOnUse" color-interpolation-filters="sRGB">
<feFlood flood-opacity="0" result="BackgroundImageFix"/>
<feBlend mode="normal" in="SourceGraphic" in2="BackgroundImageFix" result="shape"/>
<feGaussianBlur stdDeviation="155.915" result="effect1_foregroundBlur_181_210"/>
</filter>
<linearGradient id="paint0_linear_181_210" x1="67.43" y1="243.158" x2="12.9741" y2="1008.93" gradientUnits="userSpaceOnUse">
<stop offset="0.1875" stop-color="#08050E"/>
<stop offset="0.639423" stop-color="#4016A0"/>
<stop offset="1" stop-color="#3F59E4"/>
</linearGradient>
<linearGradient id="paint1_linear_181_210" x1="25.8212" y1="144.902" x2="569.998" y2="431.398" gradientUnits="userSpaceOnUse">
<stop offset="0.130383" stop-color="#191919"/>
<stop offset="0.27537" stop-color="#4016A0"/>
<stop offset="0.52493" stop-color="#3F59E4"/>
<stop offset="0.712156" stop-color="#4CB7A3"/>
<stop offset="0.994792" stop-color="#F6F1E7"/>
</linearGradient>
<linearGradient id="paint2_linear_181_210" x1="275.052" y1="169.243" x2="341.801" y2="140.859" gradientUnits="userSpaceOnUse">
<stop stop-color="#5523C9"/>
<stop offset="0.264423" stop-color="#3F59E4"/>
<stop offset="0.557692" stop-color="#4CB7A3"/>
<stop offset="0.8125" stop-color="#A1D4C5"/>
<stop offset="1" stop-color="#F6F1E7"/>
</linearGradient>
<linearGradient id="paint3_linear_181_210" x1="293.585" y1="139.99" x2="317.931" y2="127.456" gradientUnits="userSpaceOnUse">
<stop stop-color="#5523C9"/>
<stop offset="0.264423" stop-color="#3F59E4"/>
<stop offset="0.557692" stop-color="#4CB7A3"/>
<stop offset="0.8125" stop-color="#A1D4C5"/>
<stop offset="1" stop-color="#F6F1E7"/>
</linearGradient>
<linearGradient id="paint4_linear_181_210" x1="446.679" y1="343.276" x2="516.295" y2="299.633" gradientUnits="userSpaceOnUse">
<stop stop-color="#5523C9"/>
<stop offset="0.264423" stop-color="#3F59E4"/>
<stop offset="0.557692" stop-color="#4CB7A3"/>
<stop offset="0.8125" stop-color="#A1D4C5"/>
<stop offset="1" stop-color="#F6F1E7"/>
</linearGradient>
<linearGradient id="paint5_linear_181_210" x1="462.463" y1="279.571" x2="489.272" y2="251.56" gradientUnits="userSpaceOnUse">
<stop stop-color="#5523C9"/>
<stop offset="0.264423" stop-color="#3F59E4"/>
<stop offset="0.557692" stop-color="#4CB7A3"/>
<stop offset="0.8125" stop-color="#A1D4C5"/>
<stop offset="1" stop-color="#F6F1E7"/>
</linearGradient>
<linearGradient id="paint6_linear_181_210" x1="77.947" y1="318.294" x2="137.771" y2="263.625" gradientUnits="userSpaceOnUse">
<stop stop-color="#5523C9"/>
<stop offset="0.264423" stop-color="#3F59E4"/>
<stop offset="0.557692" stop-color="#4CB7A3"/>
<stop offset="0.8125" stop-color="#A1D4C5"/>
<stop offset="1" stop-color="#F6F1E7"/>
</linearGradient>
<linearGradient id="paint7_linear_181_210" x1="123.451" y1="343.86" x2="164.223" y2="317.469" gradientUnits="userSpaceOnUse">
<stop stop-color="#5523C9"/>
<stop offset="0.264423" stop-color="#3F59E4"/>
<stop offset="0.557692" stop-color="#4CB7A3"/>
<stop offset="0.8125" stop-color="#A1D4C5"/>
<stop offset="1" stop-color="#F6F1E7"/>
</linearGradient>
<clipPath id="clip0_181_210">
<rect width="613" height="572" rx="24" fill="white"/>
</clipPath>
</defs>
</svg>
