<svg width="611" height="572" viewBox="0 0 611 572" fill="none" xmlns="http://www.w3.org/2000/svg">
<g clip-path="url(#clip0_442_210)">
<g clip-path="url(#clip1_442_210)">
<rect x="-0.327026" width="613" height="572" rx="24" fill="url(#paint0_linear_442_210)"/>
<g filter="url(#filter0_f_442_210)">
<path d="M-207.778 480.001C-203.385 489.645 -192.674 496.138 -181.509 495.924L727.327 478.514C744.329 478.188 754.398 462.969 747.232 448.428L742.54 438.905C739.048 431.82 732.038 426.403 723.811 424.431L-304.922 177.841C-324.588 173.127 -340.159 189.374 -332.368 206.479L-207.778 480.001Z" fill="url(#paint1_linear_442_210)"/>
</g>
</g>
<path d="M239.979 120.475C241.356 119.953 242.05 118.414 241.529 117.037C241.008 115.659 239.468 114.965 238.091 115.487C236.714 116.008 236.02 117.547 236.541 118.925C237.062 120.302 238.602 120.996 239.979 120.475ZM467.645 223.122C469.022 222.601 469.716 221.062 469.195 219.684C468.674 218.307 467.134 217.613 465.757 218.134C464.38 218.656 463.686 220.195 464.207 221.572C464.728 222.95 466.267 223.644 467.645 223.122ZM131.288 236.22L131.77 236.353C146.228 184.054 184.579 139.126 239.212 118.448L239.035 117.981L238.858 117.513C183.914 138.308 145.345 183.493 130.806 236.087L131.288 236.22ZM356.071 115.17L355.916 115.645C404.947 131.596 446.563 168.833 466.233 220.805L466.701 220.628L467.169 220.451C447.386 168.184 405.532 130.735 356.226 114.694L356.071 115.17ZM364.053 448.294L363.876 447.827C294.084 474.242 217.999 453.406 170.819 401.185L170.448 401.521L170.077 401.856C217.524 454.372 294.04 475.327 364.23 448.762L364.053 448.294ZM435.48 398.277L435.1 397.952C416.53 419.593 392.427 437.021 363.876 447.827L364.053 448.294L364.23 448.762C392.941 437.895 417.182 420.368 435.859 398.603L435.48 398.277Z" fill="#FFFEFA"/>
<path d="M329.418 126.945C334.52 121.299 337.327 113.985 337.327 106.352C337.327 89.4694 323.682 75.7349 306.908 75.7349C290.134 75.7349 276.489 89.4694 276.489 106.352C276.489 113.985 279.297 121.299 284.395 126.942C292.391 135.822 292.09 143.543 292.075 143.851L292.004 144.92L292.029 144.945L291.453 148.313C290.865 151.76 292.322 155.058 294.948 157.003H294.669C294.669 163.751 300.16 169.243 306.908 169.243C313.656 169.243 319.148 163.751 319.148 157.003H318.905C321.511 155.081 322.988 151.826 322.463 148.43L321.742 143.785C321.715 142.981 321.705 135.512 329.418 126.945ZM287.927 123.756C283.618 118.986 281.244 112.806 281.244 106.352C281.244 92.0913 292.756 80.4895 306.908 80.4895C321.061 80.4895 332.573 92.0913 332.573 106.352C332.573 112.806 330.198 118.986 325.886 123.759C318.454 132.015 317.201 139.692 317.015 142.762C315.749 143.482 312.684 144.765 306.908 144.765C301.107 144.765 298.04 143.471 296.802 142.77C296.619 139.704 295.368 132.021 287.927 123.756ZM317.764 149.158C318.104 151.355 316.674 153.443 314.511 153.911C310.137 154.85 303.766 154.858 299.377 153.926C297.182 153.459 295.758 151.343 296.139 149.113L296.364 147.8C298.599 148.69 301.984 149.52 306.908 149.52C311.895 149.52 315.314 148.67 317.548 147.767L317.764 149.158ZM306.908 164.488C303.392 164.488 300.453 162.041 299.656 158.766C301.862 159.145 304.259 159.38 306.908 159.38C309.56 159.38 311.956 159.143 314.162 158.762C313.366 162.04 310.426 164.488 306.908 164.488Z" fill="url(#paint2_linear_442_210)"/>
<path d="M314.04 109.81C314.04 116.297 309.369 121.765 306.908 124.198C304.447 121.765 299.776 116.297 299.776 109.81H295.022C295.022 119.067 301.989 126.208 304.531 128.505V139.99H309.285V128.505C311.827 126.208 318.795 119.067 318.795 109.81H314.04Z" fill="url(#paint3_linear_442_210)"/>
<path d="M505.208 265.237C506.265 266.732 507.176 268.329 507.902 270.015H516.427V338.498H451.129V270.015H459.654C460.38 268.329 461.291 266.732 462.348 265.237H446.351V343.276H521.205V265.237H505.208Z" fill="url(#paint4_linear_442_210)"/>
<path d="M505.42 279.571H462.136L462.596 276.793C463.774 269.676 468.472 263.679 475.033 260.761C475.291 256.16 479.114 252.496 483.778 252.496C488.442 252.496 492.265 256.16 492.523 260.761C499.084 263.679 503.782 269.676 504.96 276.793L505.42 279.571ZM468.023 274.793H499.533C497.872 270.074 494.119 266.292 489.254 264.599L487.333 263.934L487.685 261.931C487.724 261.71 487.76 261.489 487.76 261.256C487.76 259.059 485.974 257.274 483.778 257.274C481.582 257.274 479.796 259.059 479.796 261.256C479.796 261.489 479.832 261.71 479.871 261.931L480.223 263.934L478.302 264.599C473.437 266.292 469.684 270.074 468.023 274.793Z" fill="url(#paint5_linear_442_210)"/>
<path d="M122.109 293.019L126.696 288.35L121.228 278.107L114.872 279.304C114.169 279.446 113.425 279.295 112.595 278.769C111.99 278.394 111.552 277.807 111.36 277.116L109.63 270.882L98.0252 270.496L95.8877 276.596C95.648 277.274 95.1715 277.831 94.327 278.282C93.6833 278.635 92.942 278.727 92.2369 278.549L85.9693 276.929L79.8328 286.785L84.0994 291.75C84.5732 292.3 84.8184 293.015 84.7906 293.811C84.7683 294.558 84.4729 295.253 83.9629 295.773L79.3785 300.441L84.8435 310.684L91.2031 309.485C91.9053 309.354 92.6522 309.495 93.4799 310.022C94.0846 310.397 94.5222 310.983 94.7145 311.673L96.4395 317.909L108.047 318.294L110.19 312.19C110.427 311.514 110.9 310.96 111.75 310.507C112.389 310.153 113.133 310.059 113.838 310.242L120.103 311.861L126.239 302.005L121.975 297.043C121.502 296.49 121.253 295.774 121.251 295.31L121.281 294.978C121.304 294.233 121.599 293.538 122.109 293.019ZM118.729 299.832L120.944 302.412L118.129 306.931L114.905 306.097C113.135 305.645 111.288 305.876 109.521 306.846C107.938 307.686 106.742 309.083 106.149 310.774L105.048 313.911L99.728 313.734L98.839 310.529C98.3596 308.8 97.2561 307.328 95.5756 306.283C94.0373 305.299 92.2119 304.937 90.4116 305.28L87.1399 305.896L84.6345 301.199L87.0173 298.773C88.2797 297.487 89.0099 295.774 89.0433 294.234L89.0739 293.903C89.1325 292.08 88.5194 290.324 87.3461 288.959L85.1278 286.378L87.9425 281.859L91.1669 282.693C92.9365 283.148 94.7869 282.914 96.551 281.944C98.1312 281.105 99.3295 279.711 99.9259 278.015L101.024 274.88L106.347 275.057L107.236 278.261C107.715 279.991 108.819 281.462 110.496 282.507C112.037 283.492 113.877 283.855 115.663 283.51L118.932 282.895L121.44 287.592L119.055 290.018C117.792 291.304 117.062 293.016 116.998 294.888C116.939 296.706 117.553 298.461 118.729 299.832ZM160.08 276.091C160.08 275.66 160.236 275.253 160.514 274.945L164.118 271.027L159.352 262.772L154.213 263.919C153.801 264.004 153.383 263.938 152.859 263.629C152.508 263.428 152.249 263.104 152.126 262.714L150.549 257.689H141.018L139.44 262.715C139.318 263.104 139.059 263.428 138.54 263.728C138.181 263.94 137.757 264.005 137.353 263.919L132.214 262.772L127.449 271.027L131.049 274.944C131.331 275.252 131.487 275.659 131.487 276.127C131.487 276.559 131.331 276.966 131.049 277.272L127.449 281.192L132.214 289.446L137.353 288.298C137.749 288.205 138.178 288.276 138.71 288.591C139.059 288.79 139.318 289.115 139.44 289.505L141.018 294.528H150.549L152.126 289.502C152.249 289.115 152.508 288.79 153.026 288.491C153.386 288.276 153.806 288.209 154.213 288.298L159.352 289.446L164.118 281.192L160.514 277.272C160.236 276.966 160.08 276.559 160.08 276.091ZM157.362 280.168L158.839 281.774L157.218 284.583L155.144 284.121C153.667 283.793 152.145 284.039 150.727 284.876C149.439 285.615 148.484 286.805 148.04 288.223L147.405 290.248H144.161L143.526 288.226C143.083 286.805 142.127 285.615 140.725 284.809C139.424 284.037 137.894 283.798 136.422 284.121L134.349 284.583L132.727 281.774L134.201 280.168C135.213 279.07 135.767 277.634 135.767 276.09C135.767 274.584 135.213 273.149 134.201 272.048L132.727 270.444L134.349 267.635L136.422 268.096C137.902 268.422 139.426 268.179 140.842 267.341C142.127 266.601 143.083 265.413 143.526 263.996L144.161 261.97H147.405L148.04 263.994C148.484 265.413 149.439 266.601 150.841 267.409C152.14 268.18 153.67 268.42 155.144 268.096L157.218 267.635L158.839 270.444L157.362 272.051C156.354 273.149 155.799 274.584 155.799 276.127C155.799 277.634 156.354 279.07 157.362 280.168ZM103.351 285.003C100.868 284.912 98.4516 285.815 96.6179 287.532C94.7813 289.246 93.7251 291.573 93.6415 294.082C93.4687 299.26 97.5431 303.615 102.721 303.788C102.83 303.792 102.933 303.793 103.039 303.793C108.077 303.793 112.26 299.781 112.43 294.708C112.514 292.2 111.614 289.809 109.9 287.975C108.186 286.143 105.859 285.086 103.351 285.003ZM102.866 299.51C100.046 299.415 97.8274 297.045 97.9221 294.225C97.9667 292.859 98.5408 291.592 99.5413 290.657C100.497 289.764 101.729 289.278 103.033 289.278C103.089 289.278 103.147 289.279 103.206 289.281C104.574 289.327 105.839 289.901 106.773 290.9C107.707 291.898 108.197 293.199 108.15 294.566C108.058 297.386 105.591 299.592 102.866 299.51ZM149.324 276.196C149.26 278.119 147.649 279.625 145.726 279.561C143.803 279.497 142.296 277.886 142.36 275.963C142.425 274.04 144.035 272.533 145.958 272.598C147.882 272.662 149.388 274.273 149.324 276.196Z" fill="url(#paint6_linear_442_210)"/>
<path d="M164.519 321.573C164.53 320.903 164.784 320.272 165.236 319.795L169.538 315.26L164.137 305.546L158.082 306.793C157.446 306.926 156.783 306.807 156.019 306.342C155.47 306.013 155.069 305.493 154.885 304.879L153.135 298.95L142.021 298.769L140.073 304.635C139.87 305.247 139.452 305.752 138.688 306.177C138.12 306.506 137.451 306.604 136.815 306.446L130.801 305.003L125.088 314.537L129.244 319.21C129.678 319.699 129.912 320.337 129.901 321.055C129.89 321.725 129.637 322.356 129.185 322.832L124.882 327.367L130.28 337.082L136.333 335.835C136.98 335.701 137.64 335.822 138.401 336.288C138.947 336.614 139.349 337.134 139.533 337.751L141.288 343.679L152.399 343.86L154.347 337.992C154.551 337.382 154.969 336.875 155.732 336.451C156.304 336.122 156.97 336.032 157.605 336.182L163.616 337.626L169.332 328.092L165.174 323.418C164.742 322.929 164.508 322.291 164.519 321.573ZM161.975 326.262L164.043 328.588L161.56 332.729L158.603 332.018C156.903 331.612 155.128 331.867 153.453 332.822C151.951 333.653 150.828 335.01 150.284 336.643L149.328 339.529L144.499 339.451L143.635 336.536C143.147 334.883 142.066 333.49 140.444 332.52C138.95 331.602 137.183 331.293 135.472 331.642L132.493 332.255L130.149 328.033L132.29 325.779C133.48 324.525 134.154 322.872 134.182 321.079C134.21 319.331 133.591 317.658 132.443 316.366L130.378 314.041L132.858 309.899L135.815 310.609C137.523 311.02 139.29 310.763 140.965 309.807C142.467 308.977 143.593 307.618 144.136 305.984L145.092 303.099L149.919 303.177L150.783 306.092C151.271 307.742 152.349 309.134 153.977 310.108C155.468 311.025 157.229 311.337 158.946 310.986L161.925 310.373L164.271 314.594L162.128 316.851L162.125 316.853C160.938 318.108 160.267 319.759 160.239 321.55C160.211 323.296 160.827 324.968 161.975 326.262ZM147.442 313.95C145.399 313.914 143.599 314.598 142.166 315.944C140.734 317.291 139.909 319.117 139.848 321.084C139.786 323.05 140.494 324.923 141.84 326.357C143.289 327.9 145.248 328.678 147.213 328.677C149.022 328.677 150.833 328.017 152.254 326.684C155.214 323.903 155.362 319.232 152.581 316.271C151.232 314.836 149.409 314.013 147.442 313.95ZM149.323 323.563C148.088 324.728 146.123 324.667 144.961 323.428C143.796 322.186 143.858 320.23 145.098 319.065C145.675 318.523 146.419 318.228 147.208 318.228C147.241 318.228 147.274 318.228 147.308 318.229C148.13 318.254 148.896 318.6 149.459 319.2C150.624 320.442 150.563 322.398 149.323 323.563Z" fill="url(#paint7_linear_442_210)"/>
<path d="M279.148 204.049H266.156V181.649H268.94V201.489H279.148V204.049ZM287.909 204.241C283.013 204.241 279.813 200.881 279.813 195.889C279.813 190.929 282.949 187.537 287.557 187.537C292.165 187.537 295.173 190.449 295.301 195.281C295.301 195.633 295.269 196.017 295.237 196.401H282.565V196.625C282.661 199.729 284.613 201.905 287.717 201.905C290.021 201.905 291.813 200.689 292.357 198.577H295.013C294.373 201.841 291.685 204.241 287.909 204.241ZM282.725 194.225H292.485C292.229 191.409 290.309 189.841 287.589 189.841C285.189 189.841 282.981 191.569 282.725 194.225ZM312.407 201.649H313.239V204.049H311.799C309.623 204.049 308.887 203.121 308.855 201.521C307.831 202.993 306.199 204.241 303.383 204.241C299.799 204.241 297.367 202.449 297.367 199.473C297.367 196.209 299.639 194.385 303.927 194.385H308.727V193.265C308.727 191.153 307.223 189.873 304.663 189.873C302.359 189.873 300.823 190.961 300.503 192.625H297.879C298.263 189.425 300.855 187.537 304.791 187.537C308.951 187.537 311.351 189.617 311.351 193.425V200.561C311.351 201.425 311.671 201.649 312.407 201.649ZM308.727 197.393V196.593H303.671C301.335 196.593 300.023 197.457 300.023 199.313C300.023 200.913 301.399 202.001 303.575 202.001C306.839 202.001 308.727 200.113 308.727 197.393ZM322.489 187.729H323.225V190.289H321.913C318.489 190.289 317.561 193.137 317.561 195.729V204.049H314.937V187.729H317.209L317.561 190.193C318.329 188.945 319.577 187.729 322.489 187.729ZM333.179 187.537C336.859 187.537 339.771 189.553 339.771 194.961V204.049H337.147V195.121C337.147 191.729 335.579 189.937 332.731 189.937C329.659 189.937 327.803 192.209 327.803 195.889V204.049H325.179V187.729H327.451L327.803 189.937C328.763 188.689 330.427 187.537 333.179 187.537Z" fill="white"/>
<path d="M447.522 381.274V358.874H456.13C460.61 358.874 463.554 361.562 463.554 365.754C463.554 369.946 460.61 372.666 456.13 372.666H450.306V381.274H447.522ZM455.906 361.434H450.306V370.106H455.874C458.818 370.106 460.706 368.41 460.706 365.754C460.706 363.098 458.85 361.434 455.906 361.434ZM465.818 381.274V358.874H468.442V381.274H465.818ZM486.148 378.874H486.98V381.274H485.54C483.364 381.274 482.628 380.346 482.596 378.746C481.572 380.218 479.94 381.466 477.124 381.466C473.54 381.466 471.108 379.674 471.108 376.698C471.108 373.434 473.38 371.61 477.668 371.61H482.468V370.49C482.468 368.378 480.964 367.098 478.404 367.098C476.1 367.098 474.564 368.186 474.244 369.85H471.62C472.004 366.65 474.596 364.762 478.532 364.762C482.692 364.762 485.092 366.842 485.092 370.65V377.786C485.092 378.65 485.412 378.874 486.148 378.874ZM482.468 374.618V373.818H477.412C475.076 373.818 473.764 374.682 473.764 376.538C473.764 378.138 475.14 379.226 477.316 379.226C480.58 379.226 482.468 377.338 482.468 374.618ZM496.678 364.762C500.358 364.762 503.27 366.778 503.27 372.186V381.274H500.646V372.346C500.646 368.954 499.078 367.162 496.23 367.162C493.158 367.162 491.302 369.434 491.302 373.114V381.274H488.678V364.954H490.95L491.302 367.162C492.262 365.914 493.926 364.762 496.678 364.762Z" fill="white"/>
<path d="M91.0627 381.848V359.448H98.9987C103.767 359.448 106.423 361.752 106.423 365.368C106.423 367.928 105.015 369.496 102.903 370.232C105.271 370.68 107.351 372.216 107.351 375.448C107.351 379.416 104.535 381.848 99.2227 381.848H91.0627ZM99.1267 361.976H93.8467V369.176H99.1267C102.007 369.176 103.639 367.832 103.639 365.56C103.639 363.32 102.039 361.976 99.1267 361.976ZM99.2227 371.672H93.8467V379.32H99.2227C102.679 379.32 104.503 377.88 104.503 375.576C104.503 373.048 102.551 371.672 99.2227 371.672ZM121.564 373.688V365.528H124.188V381.848H121.916L121.564 379.672C120.604 380.888 119.036 382.04 116.348 382.04C112.764 382.04 109.916 380.024 109.916 374.616V365.528H112.54V374.456C112.54 377.848 114.076 379.64 116.796 379.64C119.772 379.64 121.564 377.368 121.564 373.688ZM128.789 362.776C127.829 362.776 127.093 362.072 127.093 361.08C127.093 360.088 127.829 359.384 128.789 359.384C129.749 359.384 130.485 360.088 130.485 361.08C130.485 362.072 129.749 362.776 128.789 362.776ZM127.445 381.848V365.528H130.069V381.848H127.445ZM133.344 381.848V359.448H135.968V381.848H133.344ZM152.106 368.024V359.448H154.73V381.848H152.458L152.106 379.224C151.018 380.728 149.258 382.04 146.506 382.04C141.994 382.04 138.666 379 138.666 373.688C138.666 368.696 141.994 365.336 146.506 365.336C149.258 365.336 151.114 366.456 152.106 368.024ZM146.762 379.704C149.962 379.704 152.138 377.24 152.138 373.752C152.138 370.168 149.962 367.672 146.762 367.672C143.53 367.672 141.354 370.136 141.354 373.688C141.354 377.24 143.53 379.704 146.762 379.704Z" fill="white"/>
<circle cx="466.616" cy="220.419" r="3.7915" fill="white"/>
<circle cx="168.576" cy="399.053" r="3.7915" fill="white"/>
<circle cx="240.233" cy="116.556" r="3.7915" fill="white"/>
</g>
<defs>
<filter id="filter0_f_442_210" x="-646.247" y="-134.815" width="1707.65" height="942.575" filterUnits="userSpaceOnUse" color-interpolation-filters="sRGB">
<feFlood flood-opacity="0" result="BackgroundImageFix"/>
<feBlend mode="normal" in="SourceGraphic" in2="BackgroundImageFix" result="shape"/>
<feGaussianBlur stdDeviation="155.915" result="effect1_foregroundBlur_442_210"/>
</filter>
<linearGradient id="paint0_linear_442_210" x1="67.103" y1="243.158" x2="12.6471" y2="1008.93" gradientUnits="userSpaceOnUse">
<stop offset="0.1875" stop-color="#08050E"/>
<stop offset="0.639423" stop-color="#4016A0"/>
<stop offset="1" stop-color="#3F59E4"/>
</linearGradient>
<linearGradient id="paint1_linear_442_210" x1="25.4943" y1="144.901" x2="569.672" y2="431.398" gradientUnits="userSpaceOnUse">
<stop offset="0.130383" stop-color="#191919"/>
<stop offset="0.27537" stop-color="#4016A0"/>
<stop offset="0.52493" stop-color="#3F59E4"/>
<stop offset="0.712156" stop-color="#4CB7A3"/>
<stop offset="0.994792" stop-color="#F6F1E7"/>
</linearGradient>
<linearGradient id="paint2_linear_442_210" x1="276.489" y1="169.243" x2="343.238" y2="140.859" gradientUnits="userSpaceOnUse">
<stop stop-color="#5523C9"/>
<stop offset="0.264423" stop-color="#3F59E4"/>
<stop offset="0.557692" stop-color="#4CB7A3"/>
<stop offset="0.8125" stop-color="#A1D4C5"/>
<stop offset="1" stop-color="#F6F1E7"/>
</linearGradient>
<linearGradient id="paint3_linear_442_210" x1="295.022" y1="139.99" x2="319.368" y2="127.456" gradientUnits="userSpaceOnUse">
<stop stop-color="#5523C9"/>
<stop offset="0.264423" stop-color="#3F59E4"/>
<stop offset="0.557692" stop-color="#4CB7A3"/>
<stop offset="0.8125" stop-color="#A1D4C5"/>
<stop offset="1" stop-color="#F6F1E7"/>
</linearGradient>
<linearGradient id="paint4_linear_442_210" x1="446.351" y1="343.276" x2="515.968" y2="299.633" gradientUnits="userSpaceOnUse">
<stop stop-color="#5523C9"/>
<stop offset="0.264423" stop-color="#3F59E4"/>
<stop offset="0.557692" stop-color="#4CB7A3"/>
<stop offset="0.8125" stop-color="#A1D4C5"/>
<stop offset="1" stop-color="#F6F1E7"/>
</linearGradient>
<linearGradient id="paint5_linear_442_210" x1="462.136" y1="279.571" x2="488.944" y2="251.56" gradientUnits="userSpaceOnUse">
<stop stop-color="#5523C9"/>
<stop offset="0.264423" stop-color="#3F59E4"/>
<stop offset="0.557692" stop-color="#4CB7A3"/>
<stop offset="0.8125" stop-color="#A1D4C5"/>
<stop offset="1" stop-color="#F6F1E7"/>
</linearGradient>
<linearGradient id="paint6_linear_442_210" x1="79.3785" y1="318.294" x2="139.203" y2="263.625" gradientUnits="userSpaceOnUse">
<stop stop-color="#5523C9"/>
<stop offset="0.264423" stop-color="#3F59E4"/>
<stop offset="0.557692" stop-color="#4CB7A3"/>
<stop offset="0.8125" stop-color="#A1D4C5"/>
<stop offset="1" stop-color="#F6F1E7"/>
</linearGradient>
<linearGradient id="paint7_linear_442_210" x1="124.882" y1="343.86" x2="165.654" y2="317.469" gradientUnits="userSpaceOnUse">
<stop stop-color="#5523C9"/>
<stop offset="0.264423" stop-color="#3F59E4"/>
<stop offset="0.557692" stop-color="#4CB7A3"/>
<stop offset="0.8125" stop-color="#A1D4C5"/>
<stop offset="1" stop-color="#F6F1E7"/>
</linearGradient>
<clipPath id="clip0_442_210">
<rect width="610.673" height="572" rx="24" fill="white"/>
</clipPath>
<clipPath id="clip1_442_210">
<rect x="-0.327026" width="613" height="572" rx="24" fill="white"/>
</clipPath>
</defs>
</svg>
