<svg width="12" height="12" viewBox="0 0 12 12" fill="none" xmlns="http://www.w3.org/2000/svg">
<path fill-rule="evenodd" clip-rule="evenodd" d="M7.75739 9.1716C6.96696 9.69512 6.01908 10 5 10C2.23858 10 0 7.76142 0 5C0 2.23858 2.23858 0 5 0C7.76142 0 10 2.23858 10 5C10 6.01908 9.69512 6.96696 9.1716 7.75739L11.6908 10.2766C12.0813 10.6671 12.0813 11.3003 11.6908 11.6908C11.3003 12.0813 10.6671 12.0813 10.2766 11.6908L7.75739 9.1716ZM8 5C8 6.65685 6.65685 8 5 8C3.34315 8 2 6.65685 2 5C2 3.34315 3.34315 2 5 2C6.65685 2 8 3.34315 8 5Z" fill="#00297A"/>
</svg>
