<?xml version="1.0" standalone="no"?>
<!DOCTYPE svg PUBLIC "-//W3C//DTD SVG 1.1//EN" "http://www.w3.org/Graphics/SVG/1.1/DTD/svg11.dtd" >
<svg xmlns="http://www.w3.org/2000/svg" xmlns:xlink="http://www.w3.org/1999/xlink" version="1.1">
<metadata>
Created by FontForge 20170731 at Mon Jul 26 14:51:59 2021
 By Aleksey,,,
Copyright 2020 Dinamo (Johannes Breyer, Fabian Harb) &#38; Erkin Karamemet. All rights reserved.
</metadata>
<defs>
<font id="ABCWhyte-Regular" horiz-adv-x="1269" >
  <font-face 
    font-family="ABC Whyte"
    font-weight="400"
    font-stretch="normal"
    units-per-em="2048"
    panose-1="2 11 0 4 5 1 1 2 1 3"
    ascent="1649"
    descent="-399"
    x-height="1016"
    cap-height="1434"
    bbox="-860 -643 2390 2314"
    underline-thickness="102"
    underline-position="-307"
    unicode-range="U+000D-FB02"
  />
<missing-glyph horiz-adv-x="1431" 
d="M205 0v1436h1022v-1436h-1022zM377 162h680v1112h-680v-1112z" />
    <glyph glyph-name="fi" unicode="fi" horiz-adv-x="1280" 
d="M1114 1016v-1016h-194v856h-467v-856h-193v856h-221v160h221v149q0 269 256 269h236v-166h-199q-53 0 -76.5 -24t-23.5 -77v-151h661zM913 1434h205v-230h-205v230z" />
    <glyph glyph-name="fl" unicode="fl" horiz-adv-x="1280" 
d="M1114 1434v-1434h-194v1268h-367q-53 0 -76.5 -24t-23.5 -77v-151h262v-160h-262v-856h-193v856h-221v160h221v149q0 269 256 269h598z" />
    <glyph glyph-name="f_f" unicode="ff" horiz-adv-x="1406" 
d="M1214 1268q-53 0 -76.5 -24t-23.5 -77v-151h260v-160h-260v-856h-194v856h-467v-856h-193v856h-221v160h221v149q0 269 256 269h236v-166h-199q-53 0 -76.5 -24t-23.5 -77v-151h467v149q0 269 256 269h237v-166h-199z" />
    <glyph glyph-name="f_f_i" unicode="ffi" horiz-adv-x="1939" 
d="M1774 1016v-1016h-195v856h-465v-856h-194v856h-467v-856h-193v856h-221v160h221v149q0 269 256 269h236v-166h-199q-53 0 -76.5 -24t-23.5 -77v-151h467v149q0 269 256 269h237v-166h-199q-53 0 -76.5 -24t-23.5 -77v-151h660zM1573 1434h205v-230h-205v230z" />
    <glyph glyph-name="f_f_l" unicode="ffl" horiz-adv-x="1941" 
d="M1774 1434v-1434h-193v1268h-367q-53 0 -76.5 -24t-23.5 -77v-151h260v-160h-260v-856h-194v856h-467v-856h-193v856h-221v160h221v149q0 269 256 269h236v-166h-199q-53 0 -76.5 -24t-23.5 -77v-151h467v149q0 269 256 269h598z" />
    <glyph glyph-name=".notdef" horiz-adv-x="1431" 
d="M205 0v1436h1022v-1436h-1022zM377 162h680v1112h-680v-1112z" />
    <glyph glyph-name=".null" horiz-adv-x="0" 
 />
    <glyph glyph-name="nonmarkingreturn" horiz-adv-x="682" 
 />
    <glyph glyph-name="CR" unicode="&#xd;" horiz-adv-x="522" 
 />
    <glyph glyph-name="space" unicode=" " horiz-adv-x="522" 
 />
    <glyph glyph-name="exclam" unicode="!" horiz-adv-x="559" 
d="M229 455l-53 553v426h207v-433l-61 -546h-93zM150 0v266h260v-266h-260z" />
    <glyph glyph-name="quotedbl" unicode="&#x22;" horiz-adv-x="817" 
d="M176 868l-51 387v179h203v-179l-52 -387h-100zM541 868l-52 387v179h203v-179l-51 -387h-100z" />
    <glyph glyph-name="numbersign" unicode="#" horiz-adv-x="1464" 
d="M242 0l37 178q8 40 23 110.5t22 102.5h-166h-84v166h282l70 326h-250v172h285l80 379h180l-35 -168l-45 -211h166h151l80 379h183l-35 -168q-23 -117 -45 -211h166h86v-172h-287l-70 -326h254v-166h-286l-82 -391h-183l39 180l43 211h-164h-153l-82 -391h-180zM539 557
h317l70 326h-320z" />
    <glyph glyph-name="dollar" unicode="$" horiz-adv-x="1245" 
d="M547 -213v188q-187 22 -309 127.5t-170 264.5l188 86q35 -112 107.5 -190t183.5 -103v493l-45 11q-174 36 -268.5 128.5t-94.5 264.5q0 159 111 269t297 132v189h160v-189q92 -10 169.5 -45t128.5 -84t83.5 -100t48.5 -103l-183 -86q-71 197 -247 234v-455l59 -16
q180 -44 285.5 -144t105.5 -260q0 -178 -117.5 -293.5t-332.5 -132.5v-186h-160zM547 854v168v258q-101 -13 -158 -70.5t-57 -140.5q0 -88 51 -137.5t164 -77.5zM707 152q119 13 183 74.5t64 156.5q0 180 -247 235v-208v-258z" />
    <glyph glyph-name="percent" unicode="%" horiz-adv-x="1808" 
d="M414 600q-159 0 -249.5 114.5t-90.5 313.5q0 192 93 307t247 115q155 0 246.5 -115t91.5 -307q0 -199 -90 -313.5t-248 -114.5zM293 0l1022 1434h196l-1019 -1434h-199zM414 743q77 0 120.5 74.5t43.5 210.5q0 127 -45.5 204t-118.5 77q-74 0 -120 -77t-46 -204
q0 -135 44 -210t122 -75zM1397 -10q-159 0 -249.5 114.5t-90.5 313.5q0 192 92.5 307t247.5 115q154 0 245 -115t91 -307q0 -198 -90 -313t-246 -115zM1397 133q76 0 119 75t43 210q0 127 -45 203.5t-117 76.5q-75 0 -120.5 -76.5t-45.5 -203.5q0 -135 44 -210t122 -75z" />
    <glyph glyph-name="ampersand" unicode="&#x26;" horiz-adv-x="1355" 
d="M557 -29q-217 0 -342 112t-125 286q0 126 64.5 223.5t193.5 175.5q-88 171 -88 332q0 169 97.5 265.5t254.5 96.5q153 0 244.5 -88t91.5 -217q0 -138 -83.5 -235t-284.5 -205q47 -72 125 -156q98 -106 221 -199q79 134 116 316l183 -57q-50 -211 -146 -361
q132 -79 256 -127l-65 -160q-150 55 -303 152q-164 -154 -410 -154zM500 856l67 39q113 65 156 129t43 133q0 61 -40.5 106.5t-117.5 45.5q-81 0 -124.5 -55t-43.5 -152q0 -117 60 -246zM571 137q137 0 242 94q-144 107 -260 242q-26 28 -123 154q-64 -45 -103.5 -108
t-39.5 -132q0 -107 78 -178.5t206 -71.5z" />
    <glyph glyph-name="quotesingle" unicode="'" horiz-adv-x="450" 
d="M176 868l-51 387v179h203v-179l-52 -387h-100z" />
    <glyph glyph-name="parenleft" unicode="(" horiz-adv-x="657" 
d="M602 -328q-109 22 -196.5 87.5t-143.5 156.5t-93.5 208.5t-53 237.5t-15.5 250q0 131 15.5 253t53 242t93.5 212.5t143.5 159.5t196.5 88v-174q-84 -23 -148 -97.5t-101.5 -183.5t-55.5 -234.5t-18 -265.5q1 -138 19 -261t55 -230t101 -180t148 -97v-172z" />
    <glyph glyph-name="parenright" unicode=")" horiz-adv-x="657" 
d="M55 1567q110 -22 197.5 -87.5t143.5 -156.5t93 -208.5t52.5 -237.5t15.5 -250q0 -131 -15.5 -253t-52.5 -242t-93 -212.5t-143.5 -159.5t-197.5 -88v174q85 23 150 97.5t102 183.5t55 235t17 265t-19 261.5t-55 229.5t-101 180t-149 97v172z" />
    <glyph glyph-name="asterisk" unicode="*" horiz-adv-x="1110" 
d="M406 784l-156 93l47 71q52 84 131 199q-133 -10 -235 -10h-87v172l312 -15l-164 252l154 94l34 -65q24 -48 111 -207q28 50 106 203l35 67l158 -90l-168 -254l320 15v-172h-86q-110 0 -240 10q93 -143 125 -195l51 -75l-162 -89l-139 271z" />
    <glyph glyph-name="plus" unicode="+" horiz-adv-x="1243" 
d="M528 174v455h-452v186h452v455h187v-455h454v-186h-454v-455h-187z" />
    <glyph glyph-name="comma" unicode="," horiz-adv-x="557" 
d="M129 -287l162 287h-139v266h260v-266l-160 -287h-123z" />
    <glyph glyph-name="hyphen" unicode="-" horiz-adv-x="868" 
d="M139 537v198h590v-198h-590z" />
    <glyph glyph-name="period" unicode="." horiz-adv-x="536" 
d="M137 0v266h262v-266h-262z" />
    <glyph glyph-name="slash" unicode="/" horiz-adv-x="872" 
d="M63 -213l551 1862h193l-551 -1862h-193z" />
    <glyph glyph-name="zero" unicode="0" horiz-adv-x="1380" 
d="M692 -29q-263 0 -419 195.5t-156 554.5q0 179 45.5 322.5t124.5 233.5t182 137.5t223 47.5q119 0 221.5 -47.5t181.5 -137.5t124 -233.5t45 -322.5q0 -359 -155.5 -554.5t-416.5 -195.5zM692 154q167 0 262 146.5t95 420.5q0 257 -97.5 408t-259.5 151
q-165 0 -262.5 -151t-97.5 -408q0 -274 95.5 -420.5t264.5 -146.5z" />
    <glyph glyph-name="one" unicode="1" horiz-adv-x="856" 
d="M444 0v967v200q-60 -100 -164.5 -172.5t-220.5 -89.5v213q134 32 245 112t177 204h166v-1434h-203z" />
    <glyph glyph-name="two" unicode="2" horiz-adv-x="1196" 
d="M123 0v225q94 58 166.5 105.5t152 104.5t137 106.5t111.5 107t88 111.5t54 114.5t20 120.5q0 134 -74.5 208.5t-185.5 74.5q-121 0 -198 -83.5t-77 -231.5l-206 28q2 208 132.5 339.5t350.5 131.5q218 0 345.5 -124t127.5 -320q0 -222 -152 -400q-88 -101 -226 -204
t-341 -226h334h401v-188h-960z" />
    <glyph glyph-name="three" unicode="3" horiz-adv-x="1206" 
d="M604 -29q-223 0 -360 119t-152 320l215 45q6 -140 86.5 -222.5t210.5 -82.5q119 0 196 66t77 177q0 115 -77 181.5t-200 66.5h-102v174h102q108 0 181 64.5t73 171.5q0 105 -72 169t-178 64q-114 0 -184.5 -70.5t-81.5 -185.5l-211 35q14 173 141.5 286t335.5 113
q212 0 334.5 -106.5t122.5 -272.5q0 -128 -71.5 -218t-190.5 -128q130 -30 209 -128.5t79 -241.5q0 -168 -131 -282t-352 -114z" />
    <glyph glyph-name="four" unicode="4" horiz-adv-x="1214" 
d="M733 0v389h-674v191l568 854h305v-873h211v-172h-211v-389h-199zM733 561v375v336l-471 -711h277h194z" />
    <glyph glyph-name="five" unicode="5" horiz-adv-x="1220" 
d="M616 -29q-218 0 -354 101.5t-168 261.5l207 67q26 -121 107 -186t200 -65q136 0 215.5 79t79.5 213q0 133 -79.5 213t-213.5 80q-91 0 -159 -42t-111 -113l-217 34l123 820h827v-189h-676l-45 -299l-28 -192q127 151 338 151q206 0 329 -122.5t123 -333.5
q0 -214 -135 -346t-363 -132z" />
    <glyph glyph-name="six" unicode="6" horiz-adv-x="1255" 
d="M657 -29q-249 0 -395.5 183t-146.5 514q0 171 43.5 314.5t127.5 251t218 168t305 60.5q65 0 140 -11.5t126 -31.5v-198q-126 47 -260 47q-107 0 -197 -35.5t-158 -105.5t-106.5 -184.5t-38.5 -262.5q44 114 149.5 182t237.5 68q207 0 333 -131.5t126 -327.5
q0 -138 -57 -250t-173 -181t-274 -69zM657 150q123 0 207 84t84 219t-84 219t-207 84q-125 0 -207.5 -83.5t-82.5 -219.5t82.5 -219.5t207.5 -83.5z" />
    <glyph glyph-name="seven" unicode="7" horiz-adv-x="1067" 
d="M264 0q0 391 154 705t432 540h-311h-488v189h973v-224q-158 -132 -264.5 -272t-164 -293t-80.5 -304.5t-23 -340.5h-228z" />
    <glyph glyph-name="eight" unicode="8" horiz-adv-x="1239" 
d="M621 -29q-244 0 -375 116t-131 296q0 139 80 234.5t200 123.5q-108 37 -174.5 124t-66.5 212q0 171 129 278t338 107q208 0 337 -107t129 -278q0 -126 -66 -212.5t-175 -123.5q123 -29 200.5 -124.5t77.5 -233.5q0 -180 -130.5 -296t-372.5 -116zM621 821q113 0 187.5 64
t74.5 172q0 101 -73 165t-189 64t-189.5 -64t-73.5 -165q0 -108 75 -172t188 -64zM621 150q135 0 212.5 68t77.5 185q0 116 -78.5 187.5t-211.5 71.5t-213 -71.5t-80 -187.5q0 -117 79.5 -185t213.5 -68z" />
    <glyph glyph-name="nine" unicode="9" horiz-adv-x="1236" 
d="M453 -29q-69 0 -149.5 12t-129.5 31v209q132 -51 270 -51q185 0 306 100q170 137 170 484q-43 -104 -147 -168t-232 -64q-133 0 -235 59.5t-155 159t-53 222.5q0 138 55.5 249.5t166.5 179.5t260 68q222 0 364 -145q178 -181 178 -549q0 -176 -41 -320t-121.5 -251.5
t-209.5 -166.5t-297 -59zM590 698q121 0 200.5 80t79.5 211q0 133 -79.5 214t-200.5 81q-119 0 -200 -81.5t-81 -213.5q0 -130 81 -210.5t200 -80.5z" />
    <glyph glyph-name="colon" unicode=":" horiz-adv-x="536" 
d="M137 752v266h262v-266h-262zM137 0v266h262v-266h-262z" />
    <glyph glyph-name="semicolon" unicode=";" horiz-adv-x="567" 
d="M158 752v266h260v-266h-260zM135 -287l160 287h-139v266h260v-266l-158 -287h-123z" />
    <glyph glyph-name="less" unicode="&#x3c;" horiz-adv-x="1316" 
d="M1176 1290v-211l-623 -237q-47 -18 -158.5 -60t-161.5 -61q17 -7 138 -52t182 -69l623 -238v-219l-1094 428v291z" />
    <glyph glyph-name="equal" unicode="=" horiz-adv-x="1388" 
d="M145 848v186h1096v-186h-1096zM145 399v187h1096v-187h-1096z" />
    <glyph glyph-name="greater" unicode="&#x3e;" horiz-adv-x="1318" 
d="M143 143v211l621 238l319 121q-119 43 -319 121l-621 237v219l1094 -428v-291z" />
    <glyph glyph-name="question" unicode="?" horiz-adv-x="1017" 
d="M383 455q0 68 12 120t38.5 94t54 71.5t73.5 68.5q36 31 53.5 47t44.5 45t39.5 51.5t22.5 54.5t10 66q0 97 -61 154t-160 57q-117 0 -180 -75.5t-64 -223.5l-196 31q1 211 119 327.5t321 116.5q185 0 306.5 -104t121.5 -277q0 -113 -57.5 -201.5t-184.5 -193.5
q-73 -61 -99 -109t-26 -120h-188zM348 0v266h260v-266h-260z" />
    <glyph glyph-name="at" unicode="@" horiz-adv-x="1832" 
d="M954 -240q-405 0 -633.5 228t-228.5 622q0 193 63.5 353t176 269t270 169.5t342.5 60.5q180 0 334.5 -58t262.5 -160t169.5 -245.5t61.5 -308.5q0 -237 -112.5 -384.5t-281.5 -147.5q-187 0 -225 149q-46 -69 -116.5 -111t-162.5 -42q-155 0 -248.5 124t-93.5 312
q0 191 96.5 318.5t248.5 127.5q173 0 268 -135v111h166v-623q0 -78 82 -78q88 0 141 105.5t53 277.5q0 271 -175.5 440t-467.5 169q-303 0 -485.5 -185t-182.5 -508q0 -325 180.5 -507.5t497.5 -182.5q283 0 502 131l72 -149q-248 -142 -574 -142zM924 303q103 0 166 87
t63 226q0 125 -60 202t-159 77q-102 0 -162.5 -80t-60.5 -209q0 -136 58 -219.5t155 -83.5z" />
    <glyph glyph-name="A" unicode="A" horiz-adv-x="1415" 
d="M1151 0l-133 379h-631l-135 -379h-221l538 1434h283l528 -1434h-229zM455 567h495l-137 389q-81 240 -108 308q-10 -26 -25 -67t-40 -111.5t-46 -129.5z" />
    <glyph glyph-name="B" unicode="B" horiz-adv-x="1437" 
d="M205 0v1434h626q220 0 334.5 -96t114.5 -257q0 -136 -78.5 -222.5t-189.5 -110.5q61 -11 115.5 -38.5t100 -70.5t72.5 -106t27 -138q0 -98 -37.5 -175t-103 -124.5t-149.5 -71.5t-183 -24h-649zM410 836h399q119 0 188.5 57.5t69.5 155.5q0 97 -68 146.5t-190 49.5h-399
v-409zM410 188h415q132 0 208.5 63t76.5 171t-76 168.5t-209 60.5h-415v-463z" />
    <glyph glyph-name="C" unicode="C" horiz-adv-x="1509" 
d="M805 -29q-164 0 -298.5 59.5t-222 162.5t-135 240.5t-47.5 295.5q0 208 87.5 374.5t249 262.5t366.5 96q132 0 244 -37.5t187.5 -100t125 -135t72.5 -151.5l-205 -73q-14 43 -33.5 81.5t-55 82t-79.5 75t-110.5 52t-145.5 20.5q-219 0 -351 -146t-132 -399
q0 -256 133 -414.5t350 -158.5q97 0 172.5 26t125 74t80 102.5t52.5 124.5l201 -77q-27 -91 -79.5 -168.5t-129.5 -138.5t-185.5 -95.5t-236.5 -34.5z" />
    <glyph glyph-name="D" unicode="D" horiz-adv-x="1505" 
d="M205 0v1434h502q309 0 500.5 -196t191.5 -517q0 -336 -190 -528.5t-513 -192.5h-491zM410 188h256q518 0 518 533q0 244 -128 384t-376 140h-270v-1057z" />
    <glyph glyph-name="E" unicode="E" horiz-adv-x="1318" 
d="M205 0v1434h1014v-189h-809v-409h598v-187h-598v-461h809v-188h-1014z" />
    <glyph glyph-name="F" unicode="F" horiz-adv-x="1296" 
d="M205 0v1434h1042v-189h-837v-454h659v-187h-659v-604h-205z" />
    <glyph glyph-name="G" unicode="G" horiz-adv-x="1597" 
d="M782 -29q-310 0 -494 201.5t-184 544.5q0 161 57.5 301.5t154.5 237t229 151.5t278 55q132 0 243.5 -36t189.5 -98t130.5 -136.5t81.5 -159.5l-208 -84q-121 324 -441 324q-96 0 -184 -36t-158 -103t-111.5 -174.5t-41.5 -239.5q0 -263 134 -412t353 -149q99 0 183 32
t138 84t85 115t36 129h-495v189h706v-707h-198v250q-18 -36 -41 -69t-65 -73t-92 -69t-125 -48.5t-161 -19.5z" />
    <glyph glyph-name="H" unicode="H" horiz-adv-x="1570" 
d="M205 0v1434h205v-598h751v598h205v-1434h-205v647h-751v-647h-205z" />
    <glyph glyph-name="I" unicode="I" horiz-adv-x="614" 
d="M205 0v1434h205v-1434h-205z" />
    <glyph glyph-name="J" unicode="J" horiz-adv-x="1040" 
d="M449 -29q-194 0 -301.5 121.5t-110.5 339.5l211 51q-2 -167 45 -248t153 -81q105 0 153 77.5t48 237.5v965h205v-971q0 -250 -99.5 -371t-303.5 -121z" />
    <glyph glyph-name="K" unicode="K" horiz-adv-x="1398" 
d="M1151 0l-549 696l-192 -194v-502h-205v1434h205v-340v-336l630 676h277l-574 -592l676 -842h-268z" />
    <glyph glyph-name="L" unicode="L" horiz-adv-x="1202" 
d="M205 0v1434h205v-1241h772v-193h-977z" />
    <glyph glyph-name="M" unicode="M" horiz-adv-x="1937" 
d="M205 0v1434h334l329 -822q31 -79 54.5 -137t37.5 -91.5t17 -41.5q2 6 16.5 41.5t37.5 93t54 135.5l322 822h326v-1434h-205v745v480l-484 -1225h-145l-489 1225v-480v-745h-205z" />
    <glyph glyph-name="N" unicode="N" horiz-adv-x="1656" 
d="M205 0v1434h276l766 -1086v326v760h205v-1434h-203l-839 1190v-375v-815h-205z" />
    <glyph glyph-name="O" unicode="O" horiz-adv-x="1642" 
d="M823 -29q-154 0 -287 54.5t-229 151t-150.5 236.5t-54.5 304t55 303.5t151 236t229 151t286 54.5t285.5 -54.5t227 -151t148.5 -236t54 -303.5q0 -165 -54 -304.5t-148.5 -236t-227 -151t-285.5 -54.5zM821 158q153 0 267.5 73.5t173.5 199.5t59 286t-59 286
t-173.5 199.5t-267.5 73.5t-267.5 -73.5t-173 -199.5t-58.5 -286t58.5 -286t173 -199.5t267.5 -73.5z" />
    <glyph glyph-name="P" unicode="P" horiz-adv-x="1327" 
d="M205 0v1434h581q224 0 351 -120t127 -317q0 -198 -128 -318t-352 -120h-374v-559h-205zM410 737h338q146 0 223.5 71.5t77.5 188.5q0 114 -76 181t-225 67h-338v-508z" />
    <glyph glyph-name="Q" unicode="Q" horiz-adv-x="1669" 
d="M823 -29q-154 0 -287 54.5t-229 151t-150.5 236.5t-54.5 304t55 303.5t151 236t229 151t286 54.5t285.5 -54.5t227 -151t148.5 -236t54 -303.5q0 -266 -135 -459q56 -48 110 -73t125 -25v-189q-117 0 -201.5 39t-160.5 113q-195 -152 -453 -152zM821 158q192 0 324 116
l-33 41q-45 57 -77.5 92.5t-79.5 73.5t-100 53t-112 9v194q178 29 326 -100q78 -70 188 -215q64 131 64 295q0 160 -59 286t-173.5 199.5t-267.5 73.5t-267.5 -73.5t-173 -199.5t-58.5 -286t58.5 -286t173 -199.5t267.5 -73.5z" />
    <glyph glyph-name="R" unicode="R" horiz-adv-x="1413" 
d="M205 0v1434h612q216 0 339.5 -110t123.5 -280q0 -157 -96 -254.5t-246 -127.5q139 -22 204 -93.5t93 -208.5l72 -360h-224l-57 342q-25 135 -99 192.5t-220 57.5h-297v-592h-205zM410 776h376q126 0 202.5 59.5t76.5 176.5t-76 175t-203 58h-376v-469z" />
    <glyph glyph-name="S" unicode="S" horiz-adv-x="1282" 
d="M653 -29q-229 0 -378 110t-203 288l198 90q42 -135 140 -219t256 -84q144 0 223.5 62.5t79.5 166.5q0 89 -63.5 144t-196.5 83l-191 43q-180 38 -277.5 132t-97.5 268q0 176 138 291.5t362 115.5q91 0 170.5 -21.5t136 -56t101 -80t70.5 -90.5t40 -90l-192 -88
q-11 33 -26.5 62.5t-44 63.5t-64.5 58.5t-90.5 41t-118.5 16.5q-130 0 -203.5 -59t-73.5 -154q0 -86 54 -134t173 -75l197 -43q189 -40 300.5 -144.5t111.5 -265.5q0 -193 -139 -312.5t-392 -119.5z" />
    <glyph glyph-name="T" unicode="T" horiz-adv-x="1275" 
d="M528 0v1245h-508v189h1235v-189h-522v-1245h-205z" />
    <glyph glyph-name="U" unicode="U" horiz-adv-x="1486" 
d="M743 -29q-264 0 -411.5 146.5t-147.5 435.5v881h205v-850q0 -201 88 -311.5t266 -110.5q179 0 267 111.5t88 310.5v850h205v-881q0 -279 -144.5 -430.5t-415.5 -151.5z" />
    <glyph glyph-name="V" unicode="V" horiz-adv-x="1347" 
d="M522 0l-463 1434h228l293 -947q48 -156 94 -307l96 305l297 949h225l-467 -1434h-303z" />
    <glyph glyph-name="W" unicode="W" horiz-adv-x="2031" 
d="M418 0l-344 1434h217l182 -807q64 -293 88 -389q6 24 15.5 57.5t34 121t51.5 183.5l235 834h250l242 -912q53 -199 77 -284q73 297 97 397l192 799h213l-371 -1434h-262l-231 864q-21 81 -42 157.5t-29 106.5t-13 52q-4 -12 -29.5 -104.5t-58.5 -209.5l-248 -866h-266z
" />
    <glyph glyph-name="X" unicode="X" horiz-adv-x="1341" 
d="M14 0l531 748l-488 686h254l203 -293q112 -160 162 -228q33 49 153 222l207 299h244l-481 -678l532 -756h-258l-248 365q-96 144 -157 225q-22 -30 -75.5 -107t-82.5 -118l-248 -365h-248z" />
    <glyph glyph-name="Y" unicode="Y" horiz-adv-x="1325" 
d="M563 0v600l-520 834h246l258 -428q115 -194 121 -205q12 20 54.5 94t63.5 111l242 428h244l-504 -826v-608h-205z" />
    <glyph glyph-name="Z" unicode="Z" horiz-adv-x="1292" 
d="M84 0v238l862 1007h-233h-592v189h1065v-211l-883 -1035h232h686v-188h-1137z" />
    <glyph glyph-name="bracketleft" unicode="[" horiz-adv-x="690" 
d="M182 -307v1853h451v-155h-271v-1543h271v-155h-451z" />
    <glyph glyph-name="backslash" unicode="\" horiz-adv-x="876" 
d="M616 -213l-550 1862h196l551 -1862h-197z" />
    <glyph glyph-name="bracketright" unicode="]" horiz-adv-x="690" 
d="M508 1546v-1853h-451v155h271v1543h-271v155h451z" />
    <glyph glyph-name="asciicircum" unicode="^" horiz-adv-x="1075" 
d="M88 684l320 750h260l319 -750h-209l-125 313q-53 125 -116 295q-12 -31 -53 -132.5t-64 -162.5l-121 -313h-211z" />
    <glyph glyph-name="underscore" unicode="_" horiz-adv-x="1265" 
d="M111 -305v176h1044v-176h-1044z" />
    <glyph glyph-name="grave" unicode="`" horiz-adv-x="1099" 
d="M489 1161l-225 289h250l102 -289h-127z" />
    <glyph glyph-name="a" unicode="a" horiz-adv-x="1112" 
d="M430 -29q-150 0 -239 78.5t-89 212.5q0 350 639 402v30q0 189 -213 189q-63 0 -111 -16.5t-77.5 -46.5t-45.5 -57.5t-28 -62.5l-184 60q28 116 143.5 200t302.5 84q201 0 303.5 -94t102.5 -262v-465q0 -35 12 -47t47 -12h105v-164h-148q-53 0 -89 11.5t-56 34t-29 47.5
t-14 61q-58 -89 -137 -136t-195 -47zM481 129q50 0 95.5 17.5t83 51.5t59.5 91.5t22 130.5v104q-76 -8 -137.5 -19.5t-119.5 -31t-97 -45.5t-62.5 -64t-23.5 -85q0 -71 45.5 -110.5t134.5 -39.5z" />
    <glyph glyph-name="b" unicode="b" horiz-adv-x="1193" 
d="M684 -29q-121 0 -203.5 53.5t-126.5 129.5v-154h-186v1434h192v-377v-195q42 76 122.5 129t201.5 53q183 0 299.5 -145t116.5 -391q0 -245 -116.5 -391t-299.5 -146zM629 135q127 0 199.5 89.5t72.5 285.5q0 371 -272 371q-126 0 -202.5 -95t-76.5 -276
q0 -182 76.5 -278.5t202.5 -96.5z" />
    <glyph glyph-name="c" unicode="c" horiz-adv-x="1089" 
d="M584 -29q-224 0 -359 146t-135 391q0 237 138.5 386.5t353.5 149.5q165 0 276 -83t152 -211l-181 -62q-67 191 -249 191q-125 0 -207 -96.5t-82 -274.5q0 -181 81.5 -276t209.5 -95q202 0 270 219l182 -63q-53 -147 -168.5 -234.5t-281.5 -87.5z" />
    <glyph glyph-name="d" unicode="d" horiz-adv-x="1193" 
d="M510 -29q-184 0 -301 145t-117 390q0 246 117 392t301 146q82 0 150.5 -30t107 -68t66.5 -86v197v377h192v-1434h-188v154q-44 -76 -125.5 -129.5t-202.5 -53.5zM563 135q128 0 204.5 94.5t76.5 276.5t-77 278.5t-204 96.5q-125 0 -198.5 -90t-73.5 -285q0 -371 272 -371
z" />
    <glyph glyph-name="e" unicode="e" horiz-adv-x="1101" 
d="M561 -29q-216 0 -342.5 140t-126.5 393q0 245 129.5 392.5t331.5 147.5q149 0 257.5 -77t157.5 -210t31 -298h-714q6 -170 85.5 -248t196.5 -78q185 0 264 195l177 -64q-55 -144 -170.5 -218.5t-276.5 -74.5zM289 612h516q-1 131 -73.5 205t-178.5 74q-102 0 -177 -75.5
t-87 -203.5z" />
    <glyph glyph-name="f" unicode="f" horiz-adv-x="745" 
d="M260 0v856h-221v160h221v149q0 269 256 269h236v-166h-199q-53 0 -76.5 -24t-23.5 -77v-151h262v-160h-262v-856h-193z" />
    <glyph glyph-name="g" unicode="g" horiz-adv-x="1212" 
d="M340 -399q-270 0 -270 204q0 70 39 125t92 88q-90 55 -90 166q0 118 151 215q-49 44 -80.5 113t-31.5 154q0 162 115.5 270t293.5 108q128 0 217 -54t131 -126q31 152 168 152h105v-160h-84q-68 0 -94.5 -26.5t-32.5 -110.5l-4 -49q-13 -172 -123.5 -274.5t-280.5 -102.5
q-120 0 -192 39q-42 -17 -66 -42.5t-24 -53.5q0 -66 90 -66h440q149 0 238.5 -78.5t89.5 -206.5q0 -136 -92 -210t-232 -74h-473zM561 444q100 0 159.5 61.5t59.5 162.5q0 100 -60 162.5t-159 62.5t-159 -62.5t-60 -162.5q0 -101 59.5 -162.5t159.5 -61.5zM393 -236h395
q154 0 154 119q0 66 -41.5 91.5t-112.5 25.5h-475q-29 -18 -51 -52t-22 -77q0 -59 38 -83t115 -24z" />
    <glyph glyph-name="h" unicode="h" horiz-adv-x="1191" 
d="M168 0v1434h192v-377v-211q7 18 20 39.5t40.5 51t63.5 52.5t92.5 39t121.5 16q168 0 254 -101.5t86 -276.5v-666h-192v621q0 256 -215 256q-55 0 -98.5 -17.5t-71.5 -43.5t-48 -67.5t-30 -77t-15.5 -85t-6.5 -78.5t-1 -70v-438h-192z" />
    <glyph glyph-name="i" unicode="i" horiz-adv-x="526" 
d="M160 1204v230h205v-230h-205zM166 0v1016h194v-1016h-194z" />
    <glyph glyph-name="j" unicode="j" horiz-adv-x="542" 
d="M178 1204v230h203v-230h-203zM-78 -399v172h162q53 0 76.5 23t23.5 77v1143h191v-1166q0 -249 -256 -249h-197z" />
    <glyph glyph-name="k" unicode="k" horiz-adv-x="1167" 
d="M920 0l-375 467l-185 -172v-295h-192v1434h192v-586v-338l519 506h251l-450 -422l487 -594h-247z" />
    <glyph glyph-name="l" unicode="l" horiz-adv-x="526" 
d="M168 0v1434h192v-1434h-192z" />
    <glyph glyph-name="m" unicode="m" horiz-adv-x="1820" 
d="M168 0v1016h186v-154q19 33 43 61.5t61 57.5t89.5 46t114.5 17q110 0 192.5 -55.5t122.5 -154.5q18 39 43.5 72.5t65.5 66.5t99.5 52t131.5 19q170 0 261 -95t91 -275v-674h-194v621q0 253 -213 253q-50 0 -90.5 -15.5t-66 -38t-44 -59t-28 -68t-14.5 -76t-6 -72
t-1 -66.5v-479h-189v621q0 253 -215 253q-49 0 -88.5 -15t-65 -38t-44 -59t-28 -68.5t-15 -76t-6.5 -72.5t-1 -66v-479h-192z" />
    <glyph glyph-name="n" unicode="n" horiz-adv-x="1191" 
d="M168 0v1016h186v-170q7 18 21.5 40t43 51t64 52t89.5 39t114 16q180 0 266 -100.5t86 -277.5v-666h-192v621q0 256 -215 256q-55 0 -98.5 -17.5t-71.5 -43.5t-48 -67.5t-30 -77t-15.5 -85t-6.5 -78.5t-1 -70v-438h-192z" />
    <glyph glyph-name="o" unicode="o" horiz-adv-x="1140" 
d="M571 -29q-206 0 -344.5 153.5t-138.5 381.5q0 232 136.5 385t346.5 153t346 -152.5t136 -385.5q0 -231 -138.5 -383t-343.5 -152zM571 137q129 0 205 93.5t76 273.5q0 182 -76 278.5t-205 96.5q-130 0 -206 -96t-76 -279q0 -181 76 -274t206 -93z" />
    <glyph glyph-name="p" unicode="p" horiz-adv-x="1193" 
d="M168 -399v1415h186v-154q44 76 126.5 129t203.5 53q183 0 299.5 -145t116.5 -391q0 -245 -116.5 -391t-299.5 -146q-217 0 -324 183v-195v-358h-192zM629 135q127 0 199.5 89.5t72.5 285.5q0 371 -272 371q-126 0 -202.5 -95t-76.5 -276q0 -182 76.5 -278.5t202.5 -96.5z
" />
    <glyph glyph-name="q" unicode="q" horiz-adv-x="1193" 
d="M834 -399v358v195q-28 -48 -66.5 -86t-107 -67.5t-150.5 -29.5q-184 0 -301 145t-117 390q0 246 117 392t301 146q83 0 152.5 -30t108.5 -68t67 -86v156h188v-1415h-192zM563 135q128 0 205.5 95t77.5 276q0 182 -77.5 278.5t-205.5 96.5q-125 0 -198.5 -90t-73.5 -285
q0 -371 272 -371z" />
    <glyph glyph-name="r" unicode="r" horiz-adv-x="821" 
d="M168 0v1016h188v-215q12 27 29 54t47 60t65.5 57.5t87 41t109.5 16.5q56 0 94 -10v-197q-66 8 -108 8q-165 0 -242.5 -95t-77.5 -279v-457h-192z" />
    <glyph glyph-name="s" unicode="s" horiz-adv-x="1015" 
d="M518 -29q-167 0 -291 76t-155 215l182 60q50 -193 266 -193q105 0 161 36.5t56 104.5q0 57 -41 94t-141 56l-123 22q-72 14 -124.5 34t-99 53t-71 85.5t-24.5 122.5q0 134 111 220.5t272 86.5q91 0 164.5 -21.5t122 -59.5t79.5 -82t47 -95l-170 -65q-61 170 -245 170
q-96 0 -146.5 -38.5t-50.5 -96.5q0 -53 35.5 -82.5t136.5 -48.5l121 -23q342 -73 342 -315q0 -146 -109.5 -231t-304.5 -85z" />
    <glyph glyph-name="t" unicode="t" horiz-adv-x="821" 
d="M522 0q-256 0 -256 250v606h-231v160h231v317h193v-317h274v-160h-274v-590q0 -52 23.5 -76t76.5 -24h213v-166h-250z" />
    <glyph glyph-name="u" unicode="u" horiz-adv-x="1181" 
d="M487 -29q-167 0 -250 101.5t-83 277.5v666h192v-621q0 -256 209 -256q53 0 95 16.5t69 41.5t47 64t30.5 74.5t16 83t7 80t1.5 74.5v443h193v-1016h-189v174q-17 -30 -39 -58t-62.5 -64.5t-102 -58.5t-134.5 -22z" />
    <glyph glyph-name="v" unicode="v" horiz-adv-x="1021" 
d="M393 0l-346 1016h203l176 -557q51 -162 88 -285q13 41 88 285l168 557h197l-334 -1016h-240z" />
    <glyph glyph-name="w" unicode="w" horiz-adv-x="1703" 
d="M379 0l-332 1016h201l143 -473l103 -338q8 31 98 327l147 484h226l159 -529l84 -280q40 117 107 342l145 467h203l-342 -1016h-227l-150 489l-96 316q-9 -27 -19.5 -61.5t-33 -105.5t-45.5 -146l-154 -492h-217z" />
    <glyph glyph-name="x" unicode="x" horiz-adv-x="1013" 
d="M35 0l354 520l-336 496h228l106 -164q96 -155 123 -195q41 57 129 195l106 164h213l-340 -498l363 -518h-233l-121 182q-13 19 -129 195q-17 -24 -57.5 -85t-73.5 -110l-123 -182h-209z" />
    <glyph glyph-name="y" unicode="y" horiz-adv-x="1042" 
d="M791 1016h202l-399 -1159q-50 -145 -118.5 -200.5t-201.5 -55.5h-211v172h205q56 0 87.5 19t52.5 75l51 145l-449 1004h215l209 -506q85 -197 105 -252q47 142 77 231z" />
    <glyph glyph-name="z" unicode="z" horiz-adv-x="1003" 
d="M86 0v170l567 680h-227h-322v166h799v-144l-590 -706h242h375v-166h-844z" />
    <glyph glyph-name="braceleft" unicode="{" horiz-adv-x="700" 
d="M512 -307q-139 0 -199.5 85.5t-60.5 244.5v256q0 70 -7 112.5t-28.5 75.5t-62 47t-105.5 14v172q66 0 106 13.5t61.5 46t28.5 74.5t7 112v271q0 160 60 244.5t200 84.5h125v-155h-78q-67 0 -97 -36t-30 -118v-319q0 -93 -25.5 -153.5t-65 -90.5t-110.5 -60q53 -22 86 -43
t61.5 -55t41 -84t12.5 -121v-309q0 -83 29.5 -118.5t97.5 -35.5h78v-155h-125z" />
    <glyph glyph-name="bar" unicode="|" horiz-adv-x="546" 
d="M182 -213v1862h180v-1862h-180z" />
    <glyph glyph-name="braceright" unicode="}" horiz-adv-x="700" 
d="M186 1538q141 0 202 -85.5t61 -244.5v-256q0 -70 7 -112.5t28 -76t61.5 -47.5t105.5 -14v-172q-66 0 -106 -13t-61 -46t-28 -75t-7 -113v-269q0 -160 -61 -244.5t-202 -84.5h-123v155h78q66 0 96.5 36.5t30.5 117.5v319q0 93 25 152.5t64.5 89t111.5 59.5
q-54 23 -87 44.5t-61 55.5t-40.5 84t-12.5 122v309q0 82 -30 117.5t-97 35.5h-78v156h123z" />
    <glyph glyph-name="asciitilde" unicode="~" horiz-adv-x="1323" 
d="M881 561q-45 0 -90.5 12t-118.5 45l-66 31q-111 47 -170 47q-99 0 -194 -102l-111 141q66 78 151.5 119t163.5 41q87 0 207 -55l66 -31q105 -47 172 -47q95 0 194 102l111 -143q-66 -76 -152.5 -118t-162.5 -42z" />
    <glyph glyph-name="uni00A0" unicode="&#xa0;" horiz-adv-x="522" 
 />
    <glyph glyph-name="exclamdown" unicode="&#xa1;" horiz-adv-x="550" 
d="M406 1153v-266h-263v266h263zM326 698l53 -553v-426h-207v433l61 546h93z" />
    <glyph glyph-name="cent" unicode="&#xa2;" horiz-adv-x="1116" 
d="M504 -244v221q-185 30 -294.5 172.5t-109.5 360.5q0 211 112 355t292 175v222h147v-218q130 -17 229 -93t148 -185l-178 -70q-63 147 -199 178v-442v-289q85 16 138.5 75.5t74.5 139.5l183 -63q-47 -133 -149 -219t-247 -103v-217h-147zM504 152v426v290
q-93 -29 -148 -120t-55 -238q0 -148 55 -238.5t148 -119.5z" />
    <glyph glyph-name="sterling" unicode="&#xa3;" horiz-adv-x="1191" 
d="M414 188h225h451v-188h-969v180q24 6 46.5 13t64.5 29t71.5 49.5t52.5 75t23 104.5q0 95 -45 180h-209v160h108q-73 121 -73 239q0 102 39 185t105 136t150 81t177 28q78 0 152.5 -24t140 -70t112 -123.5t60.5 -175.5l-205 -49q-20 135 -97 199.5t-176 64.5
q-107 0 -176 -67.5t-69 -186.5q0 -67 20 -121t58 -116h368v-160h-280q26 -73 26 -158q0 -90 -42 -162.5t-109 -122.5z" />
    <glyph glyph-name="currency" unicode="&#xa4;" horiz-adv-x="1329" 
d="M246 172l-127 127l166 164q-74 115 -74 256q0 138 76 260l-168 168l127 123l170 -164q115 72 252 72q127 0 245 -74l170 166l127 -123l-168 -168q78 -116 78 -258q0 -143 -78 -258l168 -164l-127 -127l-170 170q-115 -78 -247 -78q-134 0 -252 74zM666 442q114 0 190 78
t76 201t-75 200.5t-189 77.5q-116 0 -192.5 -78t-76.5 -202t76 -200.5t191 -76.5z" />
    <glyph glyph-name="yen" unicode="&#xa5;" horiz-adv-x="1357" 
d="M1294 1434l-407 -627h276v-158h-375v-162h375v-157h-375v-330h-204v330h-387v157h387v162h-387v158h282l-416 627h246l244 -402q45 -69 133 -219q21 38 64.5 114t60.5 107l240 400h243z" />
    <glyph glyph-name="brokenbar" unicode="&#xa6;" horiz-adv-x="546" 
d="M182 838v811h180v-811h-180zM182 -213v813h180v-813h-180z" />
    <glyph glyph-name="section" unicode="&#xa7;" horiz-adv-x="1243" 
d="M616 -428q-103 0 -188 27.5t-141.5 75t-91.5 107t-48 128.5l203 76q59 -232 266 -232q109 0 166.5 48t57.5 124q0 75 -41 116.5t-131 68.5l-314 100q-137 44 -207.5 121t-70.5 196q0 104 64 189t163 125q-110 90 -110 264q0 69 26.5 132t77.5 113.5t133.5 80.5t185.5 30
q201 0 318.5 -96t144.5 -240l-202 -75q-56 231 -261 231q-102 0 -156 -49t-54 -123q0 -80 40 -118t134 -68l313 -101q140 -45 209 -120.5t69 -192.5q0 -108 -63 -191.5t-162 -125.5q109 -100 109 -259q0 -72 -28 -136t-81 -115t-138.5 -81t-191.5 -30zM801 272
q155 76 155 211q0 60 -40 99.5t-121 64.5l-232 74q-84 27 -117 41q-155 -76 -155 -215q0 -59 39.5 -95.5t122.5 -64.5l231 -74q55 -15 117 -41z" />
    <glyph glyph-name="dieresis" unicode="&#xa8;" horiz-adv-x="1153" 
d="M270 1202v211h207v-211h-207zM674 1202v211h207v-211h-207z" />
    <glyph glyph-name="copyright" unicode="&#xa9;" horiz-adv-x="1792" 
d="M897 -53q-165 0 -313.5 62t-255 168t-168.5 251.5t-62 306.5t62 307.5t168.5 253t255 169.5t313.5 63q164 0 312.5 -63t255 -169.5t169 -253t62.5 -307.5q0 -215 -106 -396t-290 -286.5t-403 -105.5zM897 88q181 0 329.5 87.5t232 236t83.5 323.5q0 176 -83.5 325
t-232 236.5t-329.5 87.5t-330 -87.5t-233 -236.5t-84 -325q0 -175 84 -323.5t233 -236t330 -87.5zM901 305q-189 0 -295 118.5t-106 328.5q0 186 115 301.5t294 115.5q132 0 223.5 -65t127.5 -180l-140 -35q-58 160 -219 160q-110 0 -179 -85.5t-69 -226.5
q0 -140 66.5 -220.5t179.5 -80.5q84 0 146.5 52t84.5 139l142 -43q-32 -128 -132 -203.5t-239 -75.5z" />
    <glyph glyph-name="ordfeminine" unicode="&#xaa;" horiz-adv-x="1030" 
d="M436 592q-140 0 -239 116t-99 320q0 198 102.5 312t248.5 114q94 0 160 -38.5t104 -98.5v117h166v-822h-166v125q-97 -145 -277 -145zM500 735q94 0 155.5 79.5t61.5 213.5q0 135 -61 209t-156 74t-156 -74t-61 -209q0 -134 61.5 -213.5t155.5 -79.5z" />
    <glyph glyph-name="guillemotleft" unicode="&#xab;" horiz-adv-x="1091" 
d="M565 963l-270 -437l276 -452h-213l-272 444l274 445h205zM727 524l277 -450h-213l-273 444l273 445h206z" />
    <glyph glyph-name="logicalnot" unicode="&#xac;" horiz-adv-x="1380" 
d="M1036 324v309h-901v186h1088v-495h-187z" />
    <glyph glyph-name="uni00AD" unicode="&#xad;" horiz-adv-x="868" 
d="M139 537v198h590v-198h-590z" />
    <glyph glyph-name="registered" unicode="&#xae;" horiz-adv-x="1171" 
d="M586 549q-136 0 -249 65.5t-178 178.5t-65 247q0 133 64 245t177.5 177.5t250.5 65.5q206 0 349.5 -142.5t143.5 -345.5q0 -204 -143.5 -347.5t-349.5 -143.5zM586 659q161 0 265.5 108t104.5 273q0 162 -104.5 268.5t-265.5 106.5q-159 0 -263 -106.5t-104 -268.5
q0 -165 104 -273t263 -108zM408 805v467h235q66 0 110 -32.5t44 -88.5q0 -53 -37.5 -86t-102.5 -41q55 -8 81.5 -32.5t33.5 -78.5l16 -108h-118l-17 106q-6 49 -22 65.5t-62 16.5h-51v-188h-110zM518 1075h86q35 0 56.5 15t21.5 45q0 55 -82 55h-82v-115z" />
    <glyph glyph-name="macron" unicode="&#xaf;" horiz-adv-x="708" 
d="M45 1210v146h629v-146h-629z" />
    <glyph glyph-name="degree" unicode="&#xb0;" horiz-adv-x="878" 
d="M436 895q-153 0 -250.5 99.5t-97.5 244.5q0 146 99 245t251 99q154 0 253.5 -99t99.5 -245q0 -149 -99.5 -246.5t-255.5 -97.5zM438 1047q80 0 128 53t48 141q0 83 -48.5 134.5t-127.5 51.5q-76 0 -126 -52t-50 -134q0 -88 50 -141t126 -53z" />
    <glyph glyph-name="plusminus" unicode="&#xb1;" horiz-adv-x="1409" 
d="M614 498v284h-454v183h454v305h185v-305h454v-183h-454v-284h-185zM156 174v186h1095v-186h-1095z" />
    <glyph glyph-name="uni00B2" unicode="&#xb2;" horiz-adv-x="768" 
d="M98 803v153q74 45 124.5 78t106 76.5t88.5 81t55 82t22 88.5q0 61 -31 97t-84 36q-59 0 -91 -47.5t-28 -126.5l-168 22q-6 129 75 211t214 82q129 0 208 -72.5t79 -189.5q0 -116 -95 -229q-80 -96 -266 -197h268h101v-145h-578z" />
    <glyph glyph-name="uni00B3" unicode="&#xb3;" horiz-adv-x="770" 
d="M387 786q-135 0 -218.5 74.5t-88.5 196.5l170 33q3 -75 37.5 -118.5t97.5 -43.5q53 0 86 30t33 80q0 53 -35.5 82t-103.5 29h-60v137h60q61 0 94 29t33 78q0 46 -29.5 75t-75.5 29q-55 0 -87 -38t-32 -105l-170 28q1 113 82.5 183.5t206.5 70.5q122 0 198.5 -62.5
t76.5 -162.5q0 -128 -136 -186q75 -27 113.5 -78.5t38.5 -120.5q0 -105 -82 -172.5t-209 -67.5z" />
    <glyph glyph-name="acute" unicode="&#xb4;" horiz-adv-x="714" 
d="M262 1161l103 289h253l-231 -289h-125z" />
    <glyph glyph-name="uni00B5" unicode="&#xb5;" horiz-adv-x="1241" 
d="M190 -399v1415h193v-621q0 -256 209 -256q53 0 95 17t69.5 42t47.5 64.5t30 75.5t16 84t7 79.5t1 73.5v441h193v-1016h-191v174q-8 -20 -22.5 -42.5t-42.5 -52.5t-62 -53t-86 -39t-110 -16q-88 0 -154 29v-399h-193z" />
    <glyph glyph-name="paragraph" unicode="&#xb6;" horiz-adv-x="1355" 
d="M569 1434h686v-156h-155v-1677h-182v1677h-197v-1677h-182v956h-39q-182 0 -309.5 124.5t-127.5 305.5q0 140 69.5 243t183 153.5t253.5 50.5z" />
    <glyph glyph-name="periodcentered" unicode="&#xb7;" horiz-adv-x="536" 
d="M137 575v267h262v-267h-262z" />
    <glyph glyph-name="cedilla" unicode="&#xb8;" horiz-adv-x="731" 
d="M322 -444q-82 0 -143 28.5t-97 69.5l80 102q68 -73 151 -73q93 0 93 65q0 28 -25.5 45t-63.5 17q-36 0 -69 -11l-58 74l119 127h135l-55 -49l-51 -51h29q78 0 131 -44.5t53 -119.5q0 -76 -61.5 -128t-167.5 -52z" />
    <glyph glyph-name="uni00B9" unicode="&#xb9;" horiz-adv-x="585" 
d="M274 803v381v225q-41 -57 -96 -86t-112 -29v150q80 15 141 60.5t96 115.5h137v-817h-166z" />
    <glyph glyph-name="ordmasculine" unicode="&#xba;" horiz-adv-x="978" 
d="M489 592q-168 0 -282.5 123t-114.5 307q0 187 114 309.5t283 122.5t283.5 -122.5t114.5 -309.5q0 -184 -115 -307t-283 -123zM489 737q97 0 153 75.5t56 209.5q0 138 -55.5 212.5t-153.5 74.5q-97 0 -152.5 -74.5t-55.5 -212.5q0 -134 56 -209.5t152 -75.5z" />
    <glyph glyph-name="guillemotright" unicode="&#xbb;" horiz-adv-x="1091" 
d="M301 963l274 -445l-274 -444h-207l271 438l-277 451h213zM733 963l273 -445l-273 -444h-207l271 436l-277 453h213z" />
    <glyph glyph-name="onequarter" unicode="&#xbc;" horiz-adv-x="1726" 
d="M281 616v381v226q-41 -57 -96.5 -86t-112.5 -29v149q164 31 237 177h137v-818h-165zM164 0l1022 1434h196l-1020 -1434h-198zM1389 0v211h-375v123l325 483h205v-471h113v-135h-113v-211h-155zM1389 346v88v205l-201 -293h141h60z" />
    <glyph glyph-name="onehalf" unicode="&#xbd;" horiz-adv-x="1701" 
d="M279 616v381v226q-41 -57 -96.5 -86t-112.5 -29v149q164 30 237 177h139v-818h-167zM162 0l1022 1434h196l-1020 -1434h-198zM1040 0v152q74 46 124 79t105.5 76.5t88.5 81t54.5 82t21.5 88.5q0 61 -30 96t-83 35q-59 0 -91 -47.5t-28 -126.5l-170 23q-5 131 76.5 213
t214.5 82q128 0 207.5 -73t79.5 -190q0 -119 -94 -231q-81 -93 -267 -197h269h98v-143h-576z" />
    <glyph glyph-name="threequarters" unicode="&#xbe;" horiz-adv-x="1906" 
d="M385 600q-135 0 -218.5 74t-88.5 196l170 33q3 -75 37.5 -118.5t97.5 -43.5q53 0 86 30t33 81q0 53 -36 82t-104 29h-59v137h59q61 0 94 28.5t33 77.5q0 46 -29 75.5t-75 29.5q-54 0 -86.5 -38.5t-32.5 -105.5l-170 29q1 113 82.5 183.5t206.5 70.5q121 0 197.5 -62.5
t76.5 -162.5q0 -130 -135 -187q152 -55 152 -198q0 -105 -82 -172.5t-209 -67.5zM344 0l1022 1434h197l-1020 -1434h-199zM1569 0v211h-375v123l326 483h204v-471h113v-135h-113v-211h-155zM1569 346v88v205l-201 -293h141h60z" />
    <glyph glyph-name="questiondown" unicode="&#xbf;" horiz-adv-x="1015" 
d="M670 1153v-266h-260v266h260zM635 698q0 -68 -12 -120t-38.5 -94t-54 -71.5t-73.5 -68.5q-42 -34 -66.5 -58t-51.5 -57.5t-39.5 -70t-12.5 -78.5q0 -97 61 -154t160 -57q116 0 179.5 76t64.5 223l196 -31q-1 -211 -119 -327.5t-321 -116.5q-185 0 -307.5 104.5
t-122.5 278.5q0 112 58 200t186 193q73 61 98.5 108.5t25.5 120.5h189z" />
    <glyph glyph-name="Agrave" unicode="&#xc0;" horiz-adv-x="1415" 
d="M786 1577h-139l-248 291h275zM1151 0l-133 379h-631l-135 -379h-221l538 1434h283l528 -1434h-229zM455 567h495l-137 389q-81 240 -108 308q-10 -26 -25 -67t-40 -111.5t-46 -129.5z" />
    <glyph glyph-name="Aacute" unicode="&#xc1;" horiz-adv-x="1415" 
d="M1034 1868l-254 -291h-139l113 291h280zM1151 0l-133 379h-631l-135 -379h-221l538 1434h283l528 -1434h-229zM455 567h495l-137 389q-81 240 -108 308q-10 -26 -25 -67t-40 -111.5t-46 -129.5z" />
    <glyph glyph-name="Acircumflex" unicode="&#xc2;" horiz-adv-x="1415" 
d="M709 1729l-183 -152h-211l242 252h305l242 -252h-211zM1151 0l-133 379h-631l-135 -379h-221l538 1434h283l528 -1434h-229zM455 567h495l-137 389q-81 240 -108 308q-10 -26 -25 -67t-40 -111.5t-46 -129.5z" />
    <glyph glyph-name="Atilde" unicode="&#xc3;" horiz-adv-x="1415" 
d="M569 1683q-42 0 -65 -27.5t-23 -78.5h-166q0 124 67.5 189t178.5 65q89 0 174 -49l62 -37q68 -37 98 -37q41 0 62.5 22.5t27.5 73.5h164q0 -124 -65.5 -187t-176.5 -63q-80 0 -178 56l-65 39q-66 34 -95 34zM1151 0l-133 379h-631l-135 -379h-221l538 1434h283l528 -1434
h-229zM455 567h495l-137 389q-81 240 -108 308q-10 -26 -25 -67t-40 -111.5t-46 -129.5z" />
    <glyph glyph-name="Adieresis" unicode="&#xc4;" horiz-adv-x="1415" 
d="M602 1788v-211h-227v211h227zM1044 1788v-211h-227v211h227zM1151 0l-133 379h-631l-135 -379h-221l538 1434h283l528 -1434h-229zM455 567h495l-137 389q-81 240 -108 308q-10 -26 -25 -67t-40 -111.5t-46 -129.5z" />
    <glyph glyph-name="Aring" unicode="&#xc5;" horiz-adv-x="1415" 
d="M709 1550q-105 0 -177.5 72.5t-72.5 179.5q0 102 73 172t177 70q102 0 175.5 -71.5t73.5 -176.5q0 -104 -73 -175t-176 -71zM709 1919q-49 0 -83 -35t-34 -82q0 -55 32.5 -91t84.5 -36q46 0 81 36t35 85q0 50 -35 86.5t-81 36.5zM1151 0l-133 379h-631l-135 -379h-221
l538 1434h283l528 -1434h-229zM455 567h495l-137 389q-81 240 -108 308q-10 -26 -25 -67t-40 -111.5t-46 -129.5z" />
    <glyph glyph-name="AE" unicode="&#xc6;" horiz-adv-x="1890" 
d="M1786 1245h-684v-397h508v-184h-508v-476h684v-188h-887v391h-475l-213 -391h-246l821 1434h1000v-189zM899 920v348q-34 -67 -199 -369l-174 -321h373v342z" />
    <glyph glyph-name="Ccedilla" unicode="&#xc7;" horiz-adv-x="1509" 
d="M881 -49q-9 -10 -28 -28t-24 -23h31q77 0 130.5 -44.5t53.5 -119.5q0 -76 -61.5 -128t-167.5 -52q-82 0 -144 28.5t-98 69.5l80 102q68 -73 152 -73q94 0 94 65q0 28 -26 45t-64 17q-37 0 -70 -11l-57 74l92 98q-157 6 -285.5 67.5t-212.5 164t-129 237.5t-45 289
q0 208 87.5 374.5t249 262.5t366.5 96q132 0 244 -37.5t187.5 -100t125 -135t72.5 -151.5l-205 -73q-14 43 -33.5 81.5t-55 82t-79.5 75t-110.5 52t-145.5 20.5q-219 0 -351 -146t-132 -399q0 -256 133 -414.5t350 -158.5q97 0 172.5 26t125 74t80 102.5t52.5 124.5l201 -77
q-49 -168 -183.5 -286.5t-341.5 -144.5z" />
    <glyph glyph-name="Egrave" unicode="&#xc8;" horiz-adv-x="1318" 
d="M647 1577l-248 291h275l112 -291h-139zM205 0v1434h1014v-189h-809v-409h598v-187h-598v-461h809v-188h-1014z" />
    <glyph glyph-name="Eacute" unicode="&#xc9;" horiz-adv-x="1318" 
d="M641 1577l113 291h278l-252 -291h-139zM205 0v1434h1014v-189h-809v-409h598v-187h-598v-461h809v-188h-1014z" />
    <glyph glyph-name="Ecircumflex" unicode="&#xca;" horiz-adv-x="1318" 
d="M315 1577l242 252h303l244 -252h-211l-184 152l-185 -152h-209zM205 0v1434h1014v-189h-809v-409h598v-187h-598v-461h809v-188h-1014z" />
    <glyph glyph-name="Edieresis" unicode="&#xcb;" horiz-adv-x="1318" 
d="M375 1577v211h227v-211h-227zM817 1577v211h227v-211h-227zM205 0v1434h1014v-189h-809v-409h598v-187h-598v-461h809v-188h-1014z" />
    <glyph glyph-name="Igrave" unicode="&#xcc;" horiz-adv-x="614" 
d="M244 1577l-248 291h274l113 -291h-139zM205 0v1434h205v-1434h-205z" />
    <glyph glyph-name="Iacute" unicode="&#xcd;" horiz-adv-x="614" 
d="M238 1577l112 291h279l-254 -291h-137zM205 0v1434h205v-1434h-205z" />
    <glyph glyph-name="Icircumflex" unicode="&#xce;" horiz-adv-x="614" 
d="M-90 1577l244 252h303l241 -252h-209l-184 152l-184 -152h-211zM205 0v1434h205v-1434h-205z" />
    <glyph glyph-name="Idieresis" unicode="&#xcf;" horiz-adv-x="614" 
d="M-29 1577v211h228v-211h-228zM414 1577v211h227v-211h-227zM205 0v1434h205v-1434h-205z" />
    <glyph glyph-name="Eth" unicode="&#xd0;" horiz-adv-x="1517" 
d="M721 1434q309 0 499.5 -196t190.5 -517q0 -336 -189.5 -528.5t-512.5 -192.5h-492v666h-160v165h160v603h504zM678 188q518 0 518 533q0 244 -128 384t-376 140h-270v-414h311v-165h-311v-478h256z" />
    <glyph glyph-name="Ntilde" unicode="&#xd1;" horiz-adv-x="1656" 
d="M1036 1554q-80 0 -178 56l-65 39q-66 34 -95 34q-42 0 -65 -27.5t-23 -78.5h-166q0 124 67 189t179 65q89 0 174 -49l62 -37q68 -37 98 -37q41 0 62.5 22.5t27.5 73.5h164q0 -124 -65.5 -187t-176.5 -63zM205 0v1434h276l766 -1086v326v760h205v-1434h-203l-839 1190
v-375v-815h-205z" />
    <glyph glyph-name="Ograve" unicode="&#xd2;" horiz-adv-x="1642" 
d="M760 1577l-248 291h272l113 -291h-137zM823 -29q-154 0 -287 54.5t-229 151t-150.5 236.5t-54.5 304t55 303.5t151 236t229 151t286 54.5t285.5 -54.5t227 -151t148.5 -236t54 -303.5q0 -165 -54 -304.5t-148.5 -236t-227 -151t-285.5 -54.5zM821 158q153 0 267.5 73.5
t173.5 199.5t59 286t-59 286t-173.5 199.5t-267.5 73.5t-267.5 -73.5t-173 -199.5t-58.5 -286t58.5 -286t173 -199.5t267.5 -73.5z" />
    <glyph glyph-name="Oacute" unicode="&#xd3;" horiz-adv-x="1642" 
d="M752 1577l112 291h281l-254 -291h-139zM823 -29q-154 0 -287 54.5t-229 151t-150.5 236.5t-54.5 304t55 303.5t151 236t229 151t286 54.5t285.5 -54.5t227 -151t148.5 -236t54 -303.5q0 -165 -54 -304.5t-148.5 -236t-227 -151t-285.5 -54.5zM821 158q153 0 267.5 73.5
t173.5 199.5t59 286t-59 286t-173.5 199.5t-267.5 73.5t-267.5 -73.5t-173 -199.5t-58.5 -286t58.5 -286t173 -199.5t267.5 -73.5z" />
    <glyph glyph-name="Ocircumflex" unicode="&#xd4;" horiz-adv-x="1642" 
d="M426 1577l242 252h305l241 -252h-210l-183 152l-184 -152h-211zM823 -29q-154 0 -287 54.5t-229 151t-150.5 236.5t-54.5 304t55 303.5t151 236t229 151t286 54.5t285.5 -54.5t227 -151t148.5 -236t54 -303.5q0 -165 -54 -304.5t-148.5 -236t-227 -151t-285.5 -54.5z
M821 158q153 0 267.5 73.5t173.5 199.5t59 286t-59 286t-173.5 199.5t-267.5 73.5t-267.5 -73.5t-173 -199.5t-58.5 -286t58.5 -286t173 -199.5t267.5 -73.5z" />
    <glyph glyph-name="Otilde" unicode="&#xd5;" horiz-adv-x="1642" 
d="M1018 1554q-82 0 -176 56l-66 39q-5 2 -16.5 8t-15.5 8t-13 6t-13.5 5t-11.5 3.5t-13 3t-13 0.5q-40 0 -63.5 -27.5t-24.5 -78.5h-164q0 124 66.5 189t177.5 65q89 0 174 -49l63 -37q65 -37 97 -37q41 0 63.5 22.5t28.5 73.5h164q0 -123 -66 -186.5t-178 -63.5zM823 -29
q-154 0 -287 54.5t-229 151t-150.5 236.5t-54.5 304t55 303.5t151 236t229 151t286 54.5t285.5 -54.5t227 -151t148.5 -236t54 -303.5q0 -165 -54 -304.5t-148.5 -236t-227 -151t-285.5 -54.5zM821 158q153 0 267.5 73.5t173.5 199.5t59 286t-59 286t-173.5 199.5
t-267.5 73.5t-267.5 -73.5t-173 -199.5t-58.5 -286t58.5 -286t173 -199.5t267.5 -73.5z" />
    <glyph glyph-name="Odieresis" unicode="&#xd6;" horiz-adv-x="1642" 
d="M485 1577v211h228v-211h-228zM928 1577v211h227v-211h-227zM823 -29q-154 0 -287 54.5t-229 151t-150.5 236.5t-54.5 304t55 303.5t151 236t229 151t286 54.5t285.5 -54.5t227 -151t148.5 -236t54 -303.5q0 -165 -54 -304.5t-148.5 -236t-227 -151t-285.5 -54.5zM821 158
q153 0 267.5 73.5t173.5 199.5t59 286t-59 286t-173.5 199.5t-267.5 73.5t-267.5 -73.5t-173 -199.5t-58.5 -286t58.5 -286t173 -199.5t267.5 -73.5z" />
    <glyph glyph-name="multiply" unicode="&#xd7;" horiz-adv-x="1230" 
d="M248 223l-127 125l368 369l-370 366l131 129l368 -366l365 364l127 -125l-365 -364l367 -371l-131 -129l-367 369z" />
    <glyph glyph-name="Oslash" unicode="&#xd8;" horiz-adv-x="1650" 
d="M303 -70l-143 113l129 158q-185 208 -185 516q0 164 54.5 303.5t150.5 236t229 151t287 54.5q226 0 400 -114l127 155l145 -117l-133 -159q176 -204 176 -510q0 -165 -54 -305t-148.5 -237t-227 -151.5t-285.5 -54.5q-220 0 -397 113zM420 362l479 586q117 141 201 248
q-124 80 -277 80t-268 -73.5t-174 -199.5t-59 -286q0 -206 98 -355zM823 158q230 0 365 156t135 403q0 196 -92 346l-467 -569q-43 -51 -117.5 -144.5t-93.5 -116.5q118 -75 270 -75z" />
    <glyph glyph-name="Ugrave" unicode="&#xd9;" horiz-adv-x="1486" 
d="M686 1577l-248 291h275l112 -291h-139zM743 -29q-264 0 -411.5 146.5t-147.5 435.5v881h205v-850q0 -201 88 -311.5t266 -110.5q179 0 267 111.5t88 310.5v850h205v-881q0 -279 -144.5 -430.5t-415.5 -151.5z" />
    <glyph glyph-name="Uacute" unicode="&#xda;" horiz-adv-x="1486" 
d="M680 1577l113 291h280l-254 -291h-139zM743 -29q-264 0 -411.5 146.5t-147.5 435.5v881h205v-850q0 -201 88 -311.5t266 -110.5q179 0 267 111.5t88 310.5v850h205v-881q0 -279 -144.5 -430.5t-415.5 -151.5z" />
    <glyph glyph-name="Ucircumflex" unicode="&#xdb;" horiz-adv-x="1486" 
d="M354 1577l242 252h305l242 -252h-211l-184 152l-183 -152h-211zM743 -29q-264 0 -411.5 146.5t-147.5 435.5v881h205v-850q0 -201 88 -311.5t266 -110.5q179 0 267 111.5t88 310.5v850h205v-881q0 -279 -144.5 -430.5t-415.5 -151.5z" />
    <glyph glyph-name="Udieresis" unicode="&#xdc;" horiz-adv-x="1486" 
d="M414 1577v211h227v-211h-227zM856 1577v211h227v-211h-227zM743 -29q-264 0 -411.5 146.5t-147.5 435.5v881h205v-850q0 -201 88 -311.5t266 -110.5q179 0 267 111.5t88 310.5v850h205v-881q0 -279 -144.5 -430.5t-415.5 -151.5z" />
    <glyph glyph-name="Yacute" unicode="&#xdd;" horiz-adv-x="1325" 
d="M594 1577l113 291h280l-254 -291h-139zM563 0v600l-520 834h246l258 -428q115 -194 121 -205q12 20 54.5 94t63.5 111l242 428h244l-504 -826v-608h-205z" />
    <glyph glyph-name="Thorn" unicode="&#xde;" horiz-adv-x="1380" 
d="M817 1174q204 0 340.5 -122.5t136.5 -314.5q0 -187 -137.5 -313.5t-339.5 -126.5h-407v-297h-205v1434h205v-260h407zM784 485q139 0 217 69t78 183q0 115 -76.5 182.5t-218.5 67.5h-374v-502h374z" />
    <glyph glyph-name="germandbls" unicode="&#xdf;" horiz-adv-x="1230" 
d="M676 -14q-81 0 -152 14v172q68 -12 125 -12q136 0 213.5 66.5t77.5 187.5q0 119 -86 188.5t-213 69.5h-94v162h53q116 0 190 66t74 177q0 102 -69.5 161.5t-176.5 59.5q-120 0 -189 -76t-69 -206v-1016h-192v1018q0 207 122.5 325.5t334.5 118.5q199 0 315.5 -99
t116.5 -259q0 -128 -69 -212t-165 -118q137 -35 229.5 -134t92.5 -245q0 -193 -129 -301t-340 -108z" />
    <glyph glyph-name="agrave" unicode="&#xe0;" horiz-adv-x="1112" 
d="M471 1161l-225 289h250l102 -289h-127zM430 -29q-150 0 -239 78.5t-89 212.5q0 350 639 402v30q0 189 -213 189q-63 0 -111 -16.5t-77.5 -46.5t-45.5 -57.5t-28 -62.5l-184 60q28 116 143.5 200t302.5 84q201 0 303.5 -94t102.5 -262v-465q0 -35 12 -47t47 -12h105v-164
h-148q-53 0 -89 11.5t-56 34t-29 47.5t-14 61q-58 -89 -137 -136t-195 -47zM481 129q50 0 95.5 17.5t83 51.5t59.5 91.5t22 130.5v104q-76 -8 -137.5 -19.5t-119.5 -31t-97 -45.5t-62.5 -64t-23.5 -85q0 -71 45.5 -110.5t134.5 -39.5z" />
    <glyph glyph-name="aacute" unicode="&#xe1;" horiz-adv-x="1112" 
d="M473 1161l102 289h252l-229 -289h-125zM430 -29q-150 0 -239 78.5t-89 212.5q0 350 639 402v30q0 189 -213 189q-63 0 -111 -16.5t-77.5 -46.5t-45.5 -57.5t-28 -62.5l-184 60q28 116 143.5 200t302.5 84q201 0 303.5 -94t102.5 -262v-465q0 -35 12 -47t47 -12h105v-164
h-148q-53 0 -89 11.5t-56 34t-29 47.5t-14 61q-58 -89 -137 -136t-195 -47zM481 129q50 0 95.5 17.5t83 51.5t59.5 91.5t22 130.5v104q-76 -8 -137.5 -19.5t-119.5 -31t-97 -45.5t-62.5 -64t-23.5 -85q0 -71 45.5 -110.5t134.5 -39.5z" />
    <glyph glyph-name="acircumflex" unicode="&#xe2;" horiz-adv-x="1112" 
d="M176 1161l221 252h277l219 -252h-191l-167 150l-166 -150h-193zM430 -29q-150 0 -239 78.5t-89 212.5q0 350 639 402v30q0 189 -213 189q-63 0 -111 -16.5t-77.5 -46.5t-45.5 -57.5t-28 -62.5l-184 60q28 116 143.5 200t302.5 84q201 0 303.5 -94t102.5 -262v-465
q0 -35 12 -47t47 -12h105v-164h-148q-53 0 -89 11.5t-56 34t-29 47.5t-14 61q-58 -89 -137 -136t-195 -47zM481 129q50 0 95.5 17.5t83 51.5t59.5 91.5t22 130.5v104q-76 -8 -137.5 -19.5t-119.5 -31t-97 -45.5t-62.5 -64t-23.5 -85q0 -71 45.5 -110.5t134.5 -39.5z" />
    <glyph glyph-name="atilde" unicode="&#xe3;" horiz-adv-x="1112" 
d="M694 1165q-77 0 -162 54l-59 38q-56 35 -86 35q-37 0 -58.5 -28t-21.5 -78h-149q0 124 60 189t161 65q82 0 160 -49l55 -37q61 -37 88 -37q38 0 58 22.5t26 73.5h149q0 -123 -59.5 -185.5t-161.5 -62.5zM430 -29q-150 0 -239 78.5t-89 212.5q0 350 639 402v30
q0 189 -213 189q-63 0 -111 -16.5t-77.5 -46.5t-45.5 -57.5t-28 -62.5l-184 60q28 116 143.5 200t302.5 84q201 0 303.5 -94t102.5 -262v-465q0 -35 12 -47t47 -12h105v-164h-148q-53 0 -89 11.5t-56 34t-29 47.5t-14 61q-58 -89 -137 -136t-195 -47zM481 129
q50 0 95.5 17.5t83 51.5t59.5 91.5t22 130.5v104q-76 -8 -137.5 -19.5t-119.5 -31t-97 -45.5t-62.5 -64t-23.5 -85q0 -71 45.5 -110.5t134.5 -39.5z" />
    <glyph glyph-name="adieresis" unicode="&#xe4;" horiz-adv-x="1112" 
d="M229 1202v211h207v-211h-207zM633 1202v211h207v-211h-207zM430 -29q-150 0 -239 78.5t-89 212.5q0 350 639 402v30q0 189 -213 189q-63 0 -111 -16.5t-77.5 -46.5t-45.5 -57.5t-28 -62.5l-184 60q28 116 143.5 200t302.5 84q201 0 303.5 -94t102.5 -262v-465
q0 -35 12 -47t47 -12h105v-164h-148q-53 0 -89 11.5t-56 34t-29 47.5t-14 61q-58 -89 -137 -136t-195 -47zM481 129q50 0 95.5 17.5t83 51.5t59.5 91.5t22 130.5v104q-76 -8 -137.5 -19.5t-119.5 -31t-97 -45.5t-62.5 -64t-23.5 -85q0 -71 45.5 -110.5t134.5 -39.5z" />
    <glyph glyph-name="aring" unicode="&#xe5;" horiz-adv-x="1112" 
d="M537 1126q-100 0 -170 69t-70 171q0 96 70.5 162.5t169.5 66.5q97 0 167 -67.5t70 -167.5t-70 -167t-167 -67zM537 1245q44 0 77 34.5t33 80.5q0 49 -32.5 83t-77.5 34q-47 0 -79 -33t-32 -78q0 -52 30.5 -86.5t80.5 -34.5zM430 -29q-150 0 -239 78.5t-89 212.5
q0 350 639 402v30q0 189 -213 189q-63 0 -111 -16.5t-77.5 -46.5t-45.5 -57.5t-28 -62.5l-184 60q28 116 143.5 200t302.5 84q201 0 303.5 -94t102.5 -262v-465q0 -35 12 -47t47 -12h105v-164h-148q-53 0 -89 11.5t-56 34t-29 47.5t-14 61q-58 -89 -137 -136t-195 -47z
M481 129q50 0 95.5 17.5t83 51.5t59.5 91.5t22 130.5v104q-76 -8 -137.5 -19.5t-119.5 -31t-97 -45.5t-62.5 -64t-23.5 -85q0 -71 45.5 -110.5t134.5 -39.5z" />
    <glyph glyph-name="ae" unicode="&#xe6;" horiz-adv-x="1734" 
d="M438 -29q-159 0 -247.5 78t-88.5 215q0 345 639 400v30q0 189 -215 189q-199 0 -262 -183l-178 58q15 54 48 103.5t84 91.5t128 66.5t168 24.5q129 0 216.5 -47t129.5 -127q43 76 135 125t193 49q149 0 257.5 -79t156.5 -212t30 -294h-717q4 -88 29 -153.5t65.5 -102
t87.5 -53.5t101 -17q182 0 266 195l176 -64q-55 -144 -171.5 -218.5t-274.5 -74.5q-137 0 -239.5 63t-141.5 148q-48 -95 -145.5 -153t-229.5 -58zM922 606h514q-1 136 -72.5 210.5t-179.5 74.5q-101 0 -176.5 -76.5t-85.5 -208.5zM479 129q108 0 185 74t77 217v106
q-98 -9 -171.5 -24.5t-138 -43t-98.5 -73t-34 -106.5q0 -71 45.5 -110.5t134.5 -39.5z" />
    <glyph glyph-name="ccedilla" unicode="&#xe7;" horiz-adv-x="1089" 
d="M657 -25l-28 -24l-51 -51h28q77 0 131 -44.5t54 -119.5t-62 -127.5t-168 -52.5q-82 0 -143.5 28.5t-95.5 69.5l79 102q68 -73 152 -73q92 0 92 65q0 28 -25 45t-63 17q-35 0 -72 -11l-55 74l94 100q-199 20 -316.5 163.5t-117.5 371.5q0 237 138.5 386.5t353.5 149.5
q165 0 276 -83t152 -211l-181 -62q-67 191 -249 191q-125 0 -207 -96.5t-82 -274.5q0 -181 81.5 -276t209.5 -95q202 0 270 219l182 -63q-46 -130 -142.5 -214t-234.5 -104z" />
    <glyph glyph-name="egrave" unicode="&#xe8;" horiz-adv-x="1101" 
d="M489 1161l-225 289h250l102 -289h-127zM561 -29q-216 0 -342.5 140t-126.5 393q0 245 129.5 392.5t331.5 147.5q149 0 257.5 -77t157.5 -210t31 -298h-714q6 -170 85.5 -248t196.5 -78q185 0 264 195l177 -64q-55 -144 -170.5 -218.5t-276.5 -74.5zM289 612h516
q-1 131 -73.5 205t-178.5 74q-102 0 -177 -75.5t-87 -203.5z" />
    <glyph glyph-name="eacute" unicode="&#xe9;" horiz-adv-x="1101" 
d="M492 1161l102 289h254l-232 -289h-124zM561 -29q-216 0 -342.5 140t-126.5 393q0 245 129.5 392.5t331.5 147.5q149 0 257.5 -77t157.5 -210t31 -298h-714q6 -170 85.5 -248t196.5 -78q185 0 264 195l177 -64q-55 -144 -170.5 -218.5t-276.5 -74.5zM289 612h516
q-1 131 -73.5 205t-178.5 74q-102 0 -177 -75.5t-87 -203.5z" />
    <glyph glyph-name="ecircumflex" unicode="&#xea;" horiz-adv-x="1101" 
d="M197 1161l219 252h276l221 -252h-192l-166 150l-168 -150h-190zM561 -29q-216 0 -342.5 140t-126.5 393q0 245 129.5 392.5t331.5 147.5q149 0 257.5 -77t157.5 -210t31 -298h-714q6 -170 85.5 -248t196.5 -78q185 0 264 195l177 -64q-55 -144 -170.5 -218.5
t-276.5 -74.5zM289 612h516q-1 131 -73.5 205t-178.5 74q-102 0 -177 -75.5t-87 -203.5z" />
    <glyph glyph-name="edieresis" unicode="&#xeb;" horiz-adv-x="1101" 
d="M250 1202v211h207v-211h-207zM651 1202v211h207v-211h-207zM561 -29q-216 0 -342.5 140t-126.5 393q0 245 129.5 392.5t331.5 147.5q149 0 257.5 -77t157.5 -210t31 -298h-714q6 -170 85.5 -248t196.5 -78q185 0 264 195l177 -64q-55 -144 -170.5 -218.5t-276.5 -74.5z
M289 612h516q-1 131 -73.5 205t-178.5 74q-102 0 -177 -75.5t-87 -203.5z" />
    <glyph glyph-name="igrave" unicode="&#xec;" horiz-adv-x="526" 
d="M201 1161l-226 289h248l103 -289h-125zM168 0v1016h192v-1016h-192z" />
    <glyph glyph-name="iacute" unicode="&#xed;" horiz-adv-x="526" 
d="M201 1161l102 289h254l-229 -289h-127zM168 0v1016h192v-1016h-192z" />
    <glyph glyph-name="icircumflex" unicode="&#xee;" horiz-adv-x="526" 
d="M-94 1161l219 252h276l222 -252h-193l-166 150l-168 -150h-190zM168 0v1016h192v-1016h-192z" />
    <glyph glyph-name="idieresis" unicode="&#xef;" horiz-adv-x="526" 
d="M-41 1202v211h207v-211h-207zM360 1202v211h207v-211h-207zM168 0v1016h192v-1016h-192z" />
    <glyph glyph-name="eth" unicode="&#xf0;" horiz-adv-x="1185" 
d="M887 1255q89 -107 135.5 -259t46.5 -328q0 -333 -136.5 -515t-371.5 -182q-113 0 -203 38.5t-147.5 106t-88 156.5t-30.5 191q0 127 49.5 231.5t148 168t228.5 63.5q124 0 224.5 -65t140.5 -169q3 282 -135 449l-164 -135l-82 108l141 115q-107 67 -252 67
q-119 0 -223 -36v163q115 39 254 39q214 0 366 -112l148 120l88 -102zM561 137q124 0 197 84t73 228q0 145 -72.5 229t-197.5 84q-122 0 -195 -84.5t-73 -228.5t73 -228t195 -84z" />
    <glyph glyph-name="ntilde" unicode="&#xf1;" horiz-adv-x="1191" 
d="M768 1165q-77 0 -162 54l-59 38q-56 35 -86 35q-37 0 -58.5 -28t-21.5 -78h-152q0 124 61 189t163 65q81 0 159 -49l56 -37q61 -37 88 -37q38 0 58 22.5t26 73.5h149q0 -123 -60 -185.5t-161 -62.5zM168 0v1016h186v-170q7 18 21.5 40t43 51t64 52t89.5 39t114 16
q180 0 266 -100.5t86 -277.5v-666h-192v621q0 256 -215 256q-55 0 -98.5 -17.5t-71.5 -43.5t-48 -67.5t-30 -77t-15.5 -85t-6.5 -78.5t-1 -70v-438h-192z" />
    <glyph glyph-name="ograve" unicode="&#xf2;" horiz-adv-x="1140" 
d="M506 1161l-225 289h249l103 -289h-127zM571 -29q-206 0 -344.5 153.5t-138.5 381.5q0 232 136.5 385t346.5 153t346 -152.5t136 -385.5q0 -231 -138.5 -383t-343.5 -152zM571 137q129 0 205 93.5t76 273.5q0 182 -76 278.5t-205 96.5q-130 0 -206 -96t-76 -279
q0 -181 76 -274t206 -93z" />
    <glyph glyph-name="oacute" unicode="&#xf3;" horiz-adv-x="1140" 
d="M508 1161l102 289h254l-231 -289h-125zM571 -29q-206 0 -344.5 153.5t-138.5 381.5q0 232 136.5 385t346.5 153t346 -152.5t136 -385.5q0 -231 -138.5 -383t-343.5 -152zM571 137q129 0 205 93.5t76 273.5q0 182 -76 278.5t-205 96.5q-130 0 -206 -96t-76 -279
q0 -181 76 -274t206 -93z" />
    <glyph glyph-name="ocircumflex" unicode="&#xf4;" horiz-adv-x="1140" 
d="M213 1161l219 252h277l221 -252h-193l-166 150l-168 -150h-190zM571 -29q-206 0 -344.5 153.5t-138.5 381.5q0 232 136.5 385t346.5 153t346 -152.5t136 -385.5q0 -231 -138.5 -383t-343.5 -152zM571 137q129 0 205 93.5t76 273.5q0 182 -76 278.5t-205 96.5
q-130 0 -206 -96t-76 -279q0 -181 76 -274t206 -93z" />
    <glyph glyph-name="otilde" unicode="&#xf5;" horiz-adv-x="1140" 
d="M729 1165q-75 0 -160 54l-59 38q-56 35 -88 35q-37 0 -57.5 -27.5t-20.5 -78.5h-151q0 124 60.5 189t162.5 65q79 0 157 -49l58 -37q61 -37 88 -37q38 0 58 22.5t24 73.5h149q0 -123 -59.5 -185.5t-161.5 -62.5zM571 -29q-206 0 -344.5 153.5t-138.5 381.5
q0 232 136.5 385t346.5 153t346 -152.5t136 -385.5q0 -231 -138.5 -383t-343.5 -152zM571 137q129 0 205 93.5t76 273.5q0 182 -76 278.5t-205 96.5q-130 0 -206 -96t-76 -279q0 -181 76 -274t206 -93z" />
    <glyph glyph-name="odieresis" unicode="&#xf6;" horiz-adv-x="1140" 
d="M266 1202v211h207v-211h-207zM668 1202v211h206v-211h-206zM571 -29q-206 0 -344.5 153.5t-138.5 381.5q0 232 136.5 385t346.5 153t346 -152.5t136 -385.5q0 -231 -138.5 -383t-343.5 -152zM571 137q129 0 205 93.5t76 273.5q0 182 -76 278.5t-205 96.5q-130 0 -206 -96
t-76 -279q0 -181 76 -274t206 -93z" />
    <glyph glyph-name="divide" unicode="&#xf7;" horiz-adv-x="1327" 
d="M535 1010v260h260v-260h-260zM117 629v186h1093v-186h-1093zM535 174v262h260v-262h-260z" />
    <glyph glyph-name="oslash" unicode="&#xf8;" horiz-adv-x="1157" 
d="M580 -29q-155 0 -277 92l-78 -96l-108 84l90 111q-109 140 -109 344q0 233 136 385.5t346 152.5q159 0 278 -92l80 97l104 -84l-88 -109q107 -145 107 -350q0 -231 -137.5 -383t-343.5 -152zM330 311l309 375q66 81 111 133q-69 60 -170 60q-129 0 -206 -96.5t-77 -278.5
q0 -109 33 -193zM582 137q128 0 204 93.5t76 273.5q0 117 -35 201l-288 -355q-56 -69 -129 -155q67 -58 172 -58z" />
    <glyph glyph-name="ugrave" unicode="&#xf9;" horiz-adv-x="1181" 
d="M518 1161l-225 289h248l102 -289h-125zM487 -29q-167 0 -250 101.5t-83 277.5v666h192v-621q0 -256 209 -256q53 0 95 16.5t69 41.5t47 64t30.5 74.5t16 83t7 80t1.5 74.5v443h193v-1016h-189v174q-17 -30 -39 -58t-62.5 -64.5t-102 -58.5t-134.5 -22z" />
    <glyph glyph-name="uacute" unicode="&#xfa;" horiz-adv-x="1181" 
d="M518 1161l103 289h253l-231 -289h-125zM487 -29q-167 0 -250 101.5t-83 277.5v666h192v-621q0 -256 209 -256q53 0 95 16.5t69 41.5t47 64t30.5 74.5t16 83t7 80t1.5 74.5v443h193v-1016h-189v174q-17 -30 -39 -58t-62.5 -64.5t-102 -58.5t-134.5 -22z" />
    <glyph glyph-name="ucircumflex" unicode="&#xfb;" horiz-adv-x="1181" 
d="M223 1161l219 252h277l221 -252h-192l-166 150l-168 -150h-191zM487 -29q-167 0 -250 101.5t-83 277.5v666h192v-621q0 -256 209 -256q53 0 95 16.5t69 41.5t47 64t30.5 74.5t16 83t7 80t1.5 74.5v443h193v-1016h-189v174q-17 -30 -39 -58t-62.5 -64.5t-102 -58.5
t-134.5 -22z" />
    <glyph glyph-name="udieresis" unicode="&#xfc;" horiz-adv-x="1181" 
d="M276 1202v211h207v-211h-207zM678 1202v211h207v-211h-207zM487 -29q-167 0 -250 101.5t-83 277.5v666h192v-621q0 -256 209 -256q53 0 95 16.5t69 41.5t47 64t30.5 74.5t16 83t7 80t1.5 74.5v443h193v-1016h-189v174q-17 -30 -39 -58t-62.5 -64.5t-102 -58.5t-134.5 -22
z" />
    <glyph glyph-name="yacute" unicode="&#xfd;" horiz-adv-x="1042" 
d="M801 1450l-230 -289h-127l103 289h254zM791 1016h202l-399 -1159q-50 -145 -118.5 -200.5t-201.5 -55.5h-211v172h205q56 0 87.5 19t52.5 75l51 145l-449 1004h215l209 -506q85 -197 105 -252q47 142 77 231z" />
    <glyph glyph-name="thorn" unicode="&#xfe;" horiz-adv-x="1193" 
d="M168 -399v1833h192v-379v-193q102 182 324 182q183 0 299.5 -145.5t116.5 -390.5t-116.5 -391t-299.5 -146q-217 0 -324 183v-195v-358h-192zM629 135q127 0 199.5 89.5t72.5 285.5q0 371 -272 371q-126 0 -202.5 -95t-76.5 -276q0 -182 76.5 -278.5t202.5 -96.5z" />
    <glyph glyph-name="ydieresis" unicode="&#xff;" horiz-adv-x="1042" 
d="M410 1413v-211h-207v211h207zM811 1413v-211h-207v211h207zM791 1016h202l-399 -1159q-50 -145 -118.5 -200.5t-201.5 -55.5h-211v172h205q56 0 87.5 19t52.5 75l51 145l-449 1004h215l209 -506q85 -197 105 -252q47 142 77 231z" />
    <glyph glyph-name="Amacron" unicode="&#x100;" horiz-adv-x="1415" 
d="M1057 1761v-145h-690v145h690zM1151 0l-133 379h-631l-135 -379h-221l538 1434h283l528 -1434h-229zM455 567h495l-137 389q-81 240 -108 308q-10 -26 -25 -67t-40 -111.5t-46 -129.5z" />
    <glyph glyph-name="amacron" unicode="&#x101;" horiz-adv-x="1112" 
d="M219 1210v146h629v-146h-629zM430 -29q-150 0 -239 78.5t-89 212.5q0 350 639 402v30q0 189 -213 189q-63 0 -111 -16.5t-77.5 -46.5t-45.5 -57.5t-28 -62.5l-184 60q28 116 143.5 200t302.5 84q201 0 303.5 -94t102.5 -262v-465q0 -35 12 -47t47 -12h105v-164h-148
q-53 0 -89 11.5t-56 34t-29 47.5t-14 61q-58 -89 -137 -136t-195 -47zM481 129q50 0 95.5 17.5t83 51.5t59.5 91.5t22 130.5v104q-76 -8 -137.5 -19.5t-119.5 -31t-97 -45.5t-62.5 -64t-23.5 -85q0 -71 45.5 -110.5t134.5 -39.5z" />
    <glyph glyph-name="Abreve" unicode="&#x102;" horiz-adv-x="1415" 
d="M709 1554q-85 0 -152 24.5t-107 64.5t-60.5 87.5t-20.5 98.5h176q6 -59 48.5 -96t115.5 -37t114 37t47 96h177q0 -51 -20 -98.5t-59.5 -88t-106.5 -64.5t-152 -24zM1151 0l-133 379h-631l-135 -379h-221l538 1434h283l528 -1434h-229zM455 567h495l-137 389
q-81 240 -108 308q-10 -26 -25 -67t-40 -111.5t-46 -129.5z" />
    <glyph glyph-name="abreve" unicode="&#x103;" horiz-adv-x="1112" 
d="M535 1139q-77 0 -138.5 24t-98 63.5t-55 87t-18.5 99.5h162q5 -59 43 -97t105 -38t104.5 38t42.5 97h160q0 -111 -78.5 -192.5t-228.5 -81.5zM430 -29q-150 0 -239 78.5t-89 212.5q0 350 639 402v30q0 189 -213 189q-63 0 -111 -16.5t-77.5 -46.5t-45.5 -57.5t-28 -62.5
l-184 60q28 116 143.5 200t302.5 84q201 0 303.5 -94t102.5 -262v-465q0 -35 12 -47t47 -12h105v-164h-148q-53 0 -89 11.5t-56 34t-29 47.5t-14 61q-58 -89 -137 -136t-195 -47zM481 129q50 0 95.5 17.5t83 51.5t59.5 91.5t22 130.5v104q-76 -8 -137.5 -19.5t-119.5 -31
t-97 -45.5t-62.5 -64t-23.5 -85q0 -71 45.5 -110.5t134.5 -39.5z" />
    <glyph glyph-name="Aogonek" unicode="&#x104;" horiz-adv-x="1415" 
d="M1165 -186q0 -84 125 -84q20 0 90 12v-148q-72 -16 -118 -16q-113 0 -180.5 46t-67.5 138q0 140 166 238h-29l-133 379h-631l-135 -379h-221l538 1434h283l528 -1434q-215 -81 -215 -186zM455 567h495l-137 389q-81 240 -108 308q-10 -26 -25 -67t-40 -111.5t-46 -129.5z
" />
    <glyph glyph-name="aogonek" unicode="&#x105;" horiz-adv-x="1112" 
d="M1098 0q-213 -81 -213 -186q0 -84 123 -84q24 0 90 12v-148q-69 -16 -117 -16q-113 0 -181.5 46.5t-68.5 137.5q0 142 172 240q-73 10 -102.5 48t-38.5 104q-58 -89 -137 -136t-195 -47q-150 0 -239 78.5t-89 212.5q0 350 639 402v30q0 189 -213 189q-63 0 -111 -16.5
t-77.5 -46.5t-45.5 -57.5t-28 -62.5l-184 60q28 116 143.5 200t302.5 84q201 0 303.5 -94t102.5 -262v-465q0 -35 12 -47t47 -12h105v-164zM741 420v104q-76 -8 -137.5 -19.5t-119.5 -31t-97 -45.5t-62.5 -64t-23.5 -85q0 -71 45.5 -110.5t134.5 -39.5q50 0 95.5 17.5
t83 51.5t59.5 91.5t22 130.5z" />
    <glyph glyph-name="Cacute" unicode="&#x106;" horiz-adv-x="1509" 
d="M748 1577l112 291h279l-254 -291h-137zM805 -29q-164 0 -298.5 59.5t-222 162.5t-135 240.5t-47.5 295.5q0 208 87.5 374.5t249 262.5t366.5 96q132 0 244 -37.5t187.5 -100t125 -135t72.5 -151.5l-205 -73q-14 43 -33.5 81.5t-55 82t-79.5 75t-110.5 52t-145.5 20.5
q-219 0 -351 -146t-132 -399q0 -256 133 -414.5t350 -158.5q97 0 172.5 26t125 74t80 102.5t52.5 124.5l201 -77q-27 -91 -79.5 -168.5t-129.5 -138.5t-185.5 -95.5t-236.5 -34.5z" />
    <glyph glyph-name="cacute" unicode="&#x107;" horiz-adv-x="1089" 
d="M518 1161l103 289h253l-229 -289h-127zM584 -29q-224 0 -359 146t-135 391q0 237 138.5 386.5t353.5 149.5q165 0 276 -83t152 -211l-181 -62q-67 191 -249 191q-125 0 -207 -96.5t-82 -274.5q0 -181 81.5 -276t209.5 -95q202 0 270 219l182 -63q-53 -147 -168.5 -234.5
t-281.5 -87.5z" />
    <glyph glyph-name="Ccircumflex" unicode="&#x108;" horiz-adv-x="1509" 
d="M420 1577l242 252h305l241 -252h-211l-182 152l-184 -152h-211zM805 -29q-164 0 -298.5 59.5t-222 162.5t-135 240.5t-47.5 295.5q0 208 87.5 374.5t249 262.5t366.5 96q132 0 244 -37.5t187.5 -100t125 -135t72.5 -151.5l-205 -73q-14 43 -33.5 81.5t-55 82t-79.5 75
t-110.5 52t-145.5 20.5q-219 0 -351 -146t-132 -399q0 -256 133 -414.5t350 -158.5q97 0 172.5 26t125 74t80 102.5t52.5 124.5l201 -77q-27 -91 -79.5 -168.5t-129.5 -138.5t-185.5 -95.5t-236.5 -34.5z" />
    <glyph glyph-name="ccircumflex" unicode="&#x109;" horiz-adv-x="1089" 
d="M223 1161l221 252h277l219 -252h-190l-168 150l-166 -150h-193zM584 -29q-224 0 -359 146t-135 391q0 237 138.5 386.5t353.5 149.5q165 0 276 -83t152 -211l-181 -62q-67 191 -249 191q-125 0 -207 -96.5t-82 -274.5q0 -181 81.5 -276t209.5 -95q202 0 270 219l182 -63
q-53 -147 -168.5 -234.5t-281.5 -87.5z" />
    <glyph glyph-name="Cdotaccent" unicode="&#x10a;" horiz-adv-x="1509" 
d="M715 1577v229h205v-229h-205zM805 -29q-164 0 -298.5 59.5t-222 162.5t-135 240.5t-47.5 295.5q0 208 87.5 374.5t249 262.5t366.5 96q132 0 244 -37.5t187.5 -100t125 -135t72.5 -151.5l-205 -73q-14 43 -33.5 81.5t-55 82t-79.5 75t-110.5 52t-145.5 20.5
q-219 0 -351 -146t-132 -399q0 -256 133 -414.5t350 -158.5q97 0 172.5 26t125 74t80 102.5t52.5 124.5l201 -77q-27 -91 -79.5 -168.5t-129.5 -138.5t-185.5 -95.5t-236.5 -34.5z" />
    <glyph glyph-name="cdotaccent" unicode="&#x10b;" horiz-adv-x="1089" 
d="M479 1204v230h205v-230h-205zM584 -29q-224 0 -359 146t-135 391q0 237 138.5 386.5t353.5 149.5q165 0 276 -83t152 -211l-181 -62q-67 191 -249 191q-125 0 -207 -96.5t-82 -274.5q0 -181 81.5 -276t209.5 -95q202 0 270 219l182 -63q-53 -147 -168.5 -234.5
t-281.5 -87.5z" />
    <glyph glyph-name="Ccaron" unicode="&#x10c;" horiz-adv-x="1509" 
d="M1208 1825l-241 -252h-303l-244 252h211l184 -152l184 152h209zM805 -29q-164 0 -298.5 59.5t-222 162.5t-135 240.5t-47.5 295.5q0 208 87.5 374.5t249 262.5t366.5 96q132 0 244 -37.5t187.5 -100t125 -135t72.5 -151.5l-205 -73q-14 43 -33.5 81.5t-55 82t-79.5 75
t-110.5 52t-145.5 20.5q-219 0 -351 -146t-132 -399q0 -256 133 -414.5t350 -158.5q97 0 172.5 26t125 74t80 102.5t52.5 124.5l201 -77q-27 -91 -79.5 -168.5t-129.5 -138.5t-185.5 -95.5t-236.5 -34.5z" />
    <glyph glyph-name="ccaron" unicode="&#x10d;" horiz-adv-x="1089" 
d="M442 1161l-221 252h193l166 -151l168 151h190l-219 -252h-277zM584 -29q-224 0 -359 146t-135 391q0 237 138.5 386.5t353.5 149.5q165 0 276 -83t152 -211l-181 -62q-67 191 -249 191q-125 0 -207 -96.5t-82 -274.5q0 -181 81.5 -276t209.5 -95q202 0 270 219l182 -63
q-53 -147 -168.5 -234.5t-281.5 -87.5z" />
    <glyph glyph-name="Dcaron" unicode="&#x10e;" horiz-adv-x="1505" 
d="M1040 1825l-241 -252h-305l-242 252h211l182 -152l184 152h211zM205 0v1434h502q309 0 500.5 -196t191.5 -517q0 -336 -190 -528.5t-513 -192.5h-491zM410 188h256q518 0 518 533q0 244 -128 384t-376 140h-270v-1057z" />
    <glyph glyph-name="dcaron" unicode="&#x10f;" horiz-adv-x="1271" 
d="M510 -29q-184 0 -301 145t-117 390q0 246 117 392t301 146q82 0 150.5 -30t107 -68t66.5 -86v197v377h192v-1434h-188v154q-44 -76 -125.5 -129.5t-202.5 -53.5zM1141 965l135 241h-117v228h221v-228l-135 -241h-104zM563 135q128 0 204.5 94.5t76.5 276.5t-77 278.5
t-204 96.5q-125 0 -198.5 -90t-73.5 -285q0 -371 272 -371z" />
    <glyph glyph-name="Dcroat" unicode="&#x110;" horiz-adv-x="1517" 
d="M721 1434q309 0 499.5 -196t190.5 -517q0 -336 -189.5 -528.5t-512.5 -192.5h-492v666h-160v165h160v603h504zM678 188q518 0 518 533q0 244 -128 384t-376 140h-270v-414h311v-165h-311v-478h256z" />
    <glyph glyph-name="dcroat" unicode="&#x111;" horiz-adv-x="1193" 
d="M1186 1278v-135h-160v-1143h-188v154q-44 -76 -125.5 -129.5t-202.5 -53.5q-184 0 -301 145t-117 390q0 246 117 392t301 146q82 0 150.5 -30t107 -68t66.5 -86v197v86h-347v135h347v156h192v-156h160zM563 135q128 0 204.5 94.5t76.5 276.5t-77 278.5t-204 96.5
q-125 0 -198.5 -90t-73.5 -285q0 -371 272 -371z" />
    <glyph glyph-name="Emacron" unicode="&#x112;" horiz-adv-x="1318" 
d="M367 1616v145h690v-145h-690zM205 0v1434h1014v-189h-809v-409h598v-187h-598v-461h809v-188h-1014z" />
    <glyph glyph-name="emacron" unicode="&#x113;" horiz-adv-x="1101" 
d="M240 1210v146h628v-146h-628zM561 -29q-216 0 -342.5 140t-126.5 393q0 245 129.5 392.5t331.5 147.5q149 0 257.5 -77t157.5 -210t31 -298h-714q6 -170 85.5 -248t196.5 -78q185 0 264 195l177 -64q-55 -144 -170.5 -218.5t-276.5 -74.5zM289 612h516q-1 131 -73.5 205
t-178.5 74q-102 0 -177 -75.5t-87 -203.5z" />
    <glyph glyph-name="Ebreve" unicode="&#x114;" horiz-adv-x="1318" 
d="M709 1554q-86 0 -153 24t-106.5 64.5t-60 88t-20.5 98.5h176q5 -59 47 -96t117 -37q73 0 113.5 37t45.5 96h179q0 -51 -20 -98.5t-59.5 -88t-106.5 -64.5t-152 -24zM205 0v1434h1014v-189h-809v-409h598v-187h-598v-461h809v-188h-1014z" />
    <glyph glyph-name="ebreve" unicode="&#x115;" horiz-adv-x="1101" 
d="M555 1139q-77 0 -138 24t-97.5 63.5t-55 87t-18.5 99.5h160q5 -59 43.5 -97t105.5 -38q66 0 103 38t42 97h162q-1 -52 -19.5 -99.5t-54.5 -87t-96 -63.5t-137 -24zM561 -29q-216 0 -342.5 140t-126.5 393q0 245 129.5 392.5t331.5 147.5q149 0 257.5 -77t157.5 -210
t31 -298h-714q6 -170 85.5 -248t196.5 -78q185 0 264 195l177 -64q-55 -144 -170.5 -218.5t-276.5 -74.5zM289 612h516q-1 131 -73.5 205t-178.5 74q-102 0 -177 -75.5t-87 -203.5z" />
    <glyph glyph-name="Edotaccent" unicode="&#x116;" horiz-adv-x="1318" 
d="M608 1577v229h205v-229h-205zM205 0v1434h1014v-189h-809v-409h598v-187h-598v-461h809v-188h-1014z" />
    <glyph glyph-name="edotaccent" unicode="&#x117;" horiz-adv-x="1101" 
d="M453 1204v230h204v-230h-204zM561 -29q-216 0 -342.5 140t-126.5 393q0 245 129.5 392.5t331.5 147.5q149 0 257.5 -77t157.5 -210t31 -298h-714q6 -170 85.5 -248t196.5 -78q185 0 264 195l177 -64q-55 -144 -170.5 -218.5t-276.5 -74.5zM289 612h516q-1 131 -73.5 205
t-178.5 74q-102 0 -177 -75.5t-87 -203.5z" />
    <glyph glyph-name="Eogonek" unicode="&#x118;" horiz-adv-x="1318" 
d="M1219 1245h-809v-409h598v-187h-598v-461h809v-188q-215 -81 -215 -186q0 -84 124 -84q21 0 91 12v-148q-72 -16 -119 -16q-113 0 -181.5 46.5t-68.5 137.5q0 139 168 238h-813v1434h1014v-189z" />
    <glyph glyph-name="eogonek" unicode="&#x119;" horiz-adv-x="1101" 
d="M92 504q0 245 129.5 392.5t331.5 147.5q149 0 257.5 -77t157.5 -210t31 -298h-714q6 -170 85.5 -248t196.5 -78q185 0 264 195l177 -64q-74 -199 -271 -268q-207 -74 -207 -178q0 -88 123 -88q24 0 90 12v-148q-69 -16 -116 -16q-114 0 -182 47t-68 139q0 117 119 211
q-189 22 -296.5 160t-107.5 369zM289 612h516q-1 131 -73.5 205t-178.5 74q-102 0 -177 -75.5t-87 -203.5z" />
    <glyph glyph-name="Ecaron" unicode="&#x11a;" horiz-adv-x="1318" 
d="M1104 1825l-242 -252h-305l-242 252h211l183 -152l184 152h211zM205 0v1434h1014v-189h-809v-409h598v-187h-598v-461h809v-188h-1014z" />
    <glyph glyph-name="ecaron" unicode="&#x11b;" horiz-adv-x="1101" 
d="M414 1161l-219 252h190l168 -151l166 151h192l-221 -252h-276zM561 -29q-216 0 -342.5 140t-126.5 393q0 245 129.5 392.5t331.5 147.5q149 0 257.5 -77t157.5 -210t31 -298h-714q6 -170 85.5 -248t196.5 -78q185 0 264 195l177 -64q-55 -144 -170.5 -218.5t-276.5 -74.5
zM289 612h516q-1 131 -73.5 205t-178.5 74q-102 0 -177 -75.5t-87 -203.5z" />
    <glyph glyph-name="Gcircumflex" unicode="&#x11c;" horiz-adv-x="1597" 
d="M440 1577l242 252h305l242 -252h-211l-182 152l-185 -152h-211zM782 -29q-310 0 -494 201.5t-184 544.5q0 161 57.5 301.5t154.5 237t229 151.5t278 55q132 0 243.5 -36t189.5 -98t130.5 -136.5t81.5 -159.5l-208 -84q-121 324 -441 324q-96 0 -184 -36t-158 -103
t-111.5 -174.5t-41.5 -239.5q0 -263 134 -412t353 -149q99 0 183 32t138 84t85 115t36 129h-495v189h706v-707h-198v250q-18 -36 -41 -69t-65 -73t-92 -69t-125 -48.5t-161 -19.5z" />
    <glyph glyph-name="gcircumflex" unicode="&#x11d;" horiz-adv-x="1212" 
d="M199 1161l219 252h276l221 -252h-192l-166 150l-168 -150h-190zM340 -399q-270 0 -270 204q0 70 39 125t92 88q-90 55 -90 166q0 118 151 215q-49 44 -80.5 113t-31.5 154q0 162 115.5 270t293.5 108q128 0 217 -54t131 -126q31 152 168 152h105v-160h-84
q-68 0 -94.5 -26.5t-32.5 -110.5l-4 -49q-13 -172 -123.5 -274.5t-280.5 -102.5q-120 0 -192 39q-42 -17 -66 -42.5t-24 -53.5q0 -66 90 -66h440q149 0 238.5 -78.5t89.5 -206.5q0 -136 -92 -210t-232 -74h-473zM561 444q100 0 159.5 61.5t59.5 162.5q0 100 -60 162.5
t-159 62.5t-159 -62.5t-60 -162.5q0 -101 59.5 -162.5t159.5 -61.5zM393 -236h395q154 0 154 119q0 66 -41.5 91.5t-112.5 25.5h-475q-29 -18 -51 -52t-22 -77q0 -59 38 -83t115 -24z" />
    <glyph glyph-name="Gbreve" unicode="&#x11e;" horiz-adv-x="1597" 
d="M834 1554q-85 0 -152 24.5t-107 64.5t-60.5 87.5t-20.5 98.5h178q5 -58 47 -95.5t115 -37.5q74 0 115 37t46 96h179q-1 -51 -21 -98.5t-59.5 -88t-106.5 -64.5t-153 -24zM782 -29q-310 0 -494 201.5t-184 544.5q0 161 57.5 301.5t154.5 237t229 151.5t278 55
q132 0 243.5 -36t189.5 -98t130.5 -136.5t81.5 -159.5l-208 -84q-121 324 -441 324q-96 0 -184 -36t-158 -103t-111.5 -174.5t-41.5 -239.5q0 -263 134 -412t353 -149q99 0 183 32t138 84t85 115t36 129h-495v189h706v-707h-198v250q-18 -36 -41 -69t-65 -73t-92 -69
t-125 -48.5t-161 -19.5z" />
    <glyph glyph-name="gbreve" unicode="&#x11f;" horiz-adv-x="1212" 
d="M557 1139q-77 0 -138 24t-97.5 63.5t-55 87t-18.5 99.5h160q5 -59 43.5 -97t105.5 -38q66 0 103 38t42 97h162q-1 -52 -19.5 -99.5t-54.5 -87t-96 -63.5t-137 -24zM340 -399q-270 0 -270 204q0 70 39 125t92 88q-90 55 -90 166q0 118 151 215q-49 44 -80.5 113t-31.5 154
q0 162 115.5 270t293.5 108q128 0 217 -54t131 -126q31 152 168 152h105v-160h-84q-68 0 -94.5 -26.5t-32.5 -110.5l-4 -49q-13 -172 -123.5 -274.5t-280.5 -102.5q-120 0 -192 39q-42 -17 -66 -42.5t-24 -53.5q0 -66 90 -66h440q149 0 238.5 -78.5t89.5 -206.5
q0 -136 -92 -210t-232 -74h-473zM561 444q100 0 159.5 61.5t59.5 162.5q0 100 -60 162.5t-159 62.5t-159 -62.5t-60 -162.5q0 -101 59.5 -162.5t159.5 -61.5zM393 -236h395q154 0 154 119q0 66 -41.5 91.5t-112.5 25.5h-475q-29 -18 -51 -52t-22 -77q0 -59 38 -83t115 -24z
" />
    <glyph glyph-name="Gdotaccent" unicode="&#x120;" horiz-adv-x="1597" 
d="M735 1577v229h205v-229h-205zM782 -29q-310 0 -494 201.5t-184 544.5q0 161 57.5 301.5t154.5 237t229 151.5t278 55q132 0 243.5 -36t189.5 -98t130.5 -136.5t81.5 -159.5l-208 -84q-121 324 -441 324q-96 0 -184 -36t-158 -103t-111.5 -174.5t-41.5 -239.5
q0 -263 134 -412t353 -149q99 0 183 32t138 84t85 115t36 129h-495v189h706v-707h-198v250q-18 -36 -41 -69t-65 -73t-92 -69t-125 -48.5t-161 -19.5z" />
    <glyph glyph-name="gdotaccent" unicode="&#x121;" horiz-adv-x="1212" 
d="M455 1204v230h204v-230h-204zM340 -399q-270 0 -270 204q0 70 39 125t92 88q-90 55 -90 166q0 118 151 215q-49 44 -80.5 113t-31.5 154q0 162 115.5 270t293.5 108q128 0 217 -54t131 -126q31 152 168 152h105v-160h-84q-68 0 -94.5 -26.5t-32.5 -110.5l-4 -49
q-13 -172 -123.5 -274.5t-280.5 -102.5q-120 0 -192 39q-42 -17 -66 -42.5t-24 -53.5q0 -66 90 -66h440q149 0 238.5 -78.5t89.5 -206.5q0 -136 -92 -210t-232 -74h-473zM561 444q100 0 159.5 61.5t59.5 162.5q0 100 -60 162.5t-159 62.5t-159 -62.5t-60 -162.5
q0 -101 59.5 -162.5t159.5 -61.5zM393 -236h395q154 0 154 119q0 66 -41.5 91.5t-112.5 25.5h-475q-29 -18 -51 -52t-22 -77q0 -59 38 -83t115 -24z" />
    <glyph glyph-name="uni0122" unicode="&#x122;" horiz-adv-x="1597" 
d="M782 -29q-310 0 -494 201.5t-184 544.5q0 161 57.5 301.5t154.5 237t229 151.5t278 55q132 0 243.5 -36t189.5 -98t130.5 -136.5t81.5 -159.5l-208 -84q-121 324 -441 324q-96 0 -184 -36t-158 -103t-111.5 -174.5t-41.5 -239.5q0 -263 134 -412t353 -149q99 0 183 32
t138 84t85 115t36 129h-495v189h706v-707h-198v250q-18 -36 -41 -69t-65 -73t-92 -69t-125 -48.5t-161 -19.5zM694 -643l135 244h-116v227h221v-227l-135 -244h-105z" />
    <glyph glyph-name="uni0123" unicode="&#x123;" horiz-adv-x="1212" 
d="M688 1673l-135 -243h117v-226h-221v226l135 243h104zM340 -399q-270 0 -270 204q0 70 39 125t92 88q-90 55 -90 166q0 118 151 215q-49 44 -80.5 113t-31.5 154q0 162 115.5 270t293.5 108q128 0 217 -54t131 -126q31 152 168 152h105v-160h-84q-68 0 -94.5 -26.5
t-32.5 -110.5l-4 -49q-13 -172 -123.5 -274.5t-280.5 -102.5q-120 0 -192 39q-42 -17 -66 -42.5t-24 -53.5q0 -66 90 -66h440q149 0 238.5 -78.5t89.5 -206.5q0 -136 -92 -210t-232 -74h-473zM561 444q100 0 159.5 61.5t59.5 162.5q0 100 -60 162.5t-159 62.5t-159 -62.5
t-60 -162.5q0 -101 59.5 -162.5t159.5 -61.5zM393 -236h395q154 0 154 119q0 66 -41.5 91.5t-112.5 25.5h-475q-29 -18 -51 -52t-22 -77q0 -59 38 -83t115 -24z" />
    <glyph glyph-name="Hcircumflex" unicode="&#x124;" horiz-adv-x="1570" 
d="M389 1577l244 252h303l242 -252h-209l-185 152l-184 -152h-211zM205 0v1434h205v-598h751v598h205v-1434h-205v647h-751v-647h-205z" />
    <glyph glyph-name="hcircumflex" unicode="&#x125;" horiz-adv-x="1191" 
d="M256 1579l219 252h277l221 -252h-193l-166 152l-168 -152h-190zM168 0v1434h192v-377v-211q7 18 20 39.5t40.5 51t63.5 52.5t92.5 39t121.5 16q168 0 254 -101.5t86 -276.5v-666h-192v621q0 256 -215 256q-55 0 -98.5 -17.5t-71.5 -43.5t-48 -67.5t-30 -77t-15.5 -85
t-6.5 -78.5t-1 -70v-438h-192z" />
    <glyph glyph-name="Hbar" unicode="&#x126;" horiz-adv-x="1617" 
d="M1563 1249v-157h-174v-1092h-205v647h-752v-647h-205v1092h-174v157h174v185h205v-185h752v185h205v-185h174zM1184 836v256h-752v-256h752z" />
    <glyph glyph-name="hbar" unicode="&#x127;" horiz-adv-x="1191" 
d="M698 1044q168 0 254 -101.5t86 -276.5v-666h-192v621q0 256 -215 256q-55 0 -98.5 -17.5t-71.5 -43.5t-48 -67.5t-30 -77t-15.5 -85t-6.5 -78.5t-1 -70v-438h-192v1143h-148v135h148v156h192v-156h361v-135h-361v-86v-211q7 18 20 39.5t40.5 51t63.5 52.5t92.5 39
t121.5 16z" />
    <glyph glyph-name="Itilde" unicode="&#x128;" horiz-adv-x="614" 
d="M502 1554q-78 0 -176 56l-66 39q-5 2 -16.5 8t-15.5 8t-13 6t-13.5 5t-11.5 3.5t-13 3t-13 0.5q-40 0 -63 -27.5t-23 -78.5h-166q0 124 66.5 189t177.5 65q91 0 176 -49l61 -37q68 -37 96 -37q42 0 64.5 22.5t28.5 73.5h163q0 -123 -66 -186.5t-177 -63.5zM205 0v1434
h205v-1434h-205z" />
    <glyph glyph-name="itilde" unicode="&#x129;" horiz-adv-x="526" 
d="M424 1165q-77 0 -162 54l-59 38q-56 35 -86 35q-37 0 -58.5 -28t-21.5 -78h-152q0 124 61 189t163 65q79 0 157 -49l58 -37q61 -37 88 -37q38 0 58 22.5t26 73.5h147q0 -123 -59 -185.5t-160 -62.5zM168 0v1016h192v-1016h-192z" />
    <glyph glyph-name="Imacron" unicode="&#x12a;" horiz-adv-x="614" 
d="M-37 1616v145h690v-145h-690zM205 0v1434h205v-1434h-205z" />
    <glyph glyph-name="imacron" unicode="&#x12b;" horiz-adv-x="526" 
d="M-51 1210v146h629v-146h-629zM168 0v1016h192v-1016h-192z" />
    <glyph glyph-name="Ibreve" unicode="&#x12c;" horiz-adv-x="614" 
d="M305 1554q-86 0 -153 24t-107 64.5t-60.5 88t-21.5 98.5h178q5 -59 47 -96t117 -37q73 0 114 37t46 96h178q-1 -51 -21 -98.5t-59.5 -88t-106 -64.5t-151.5 -24zM205 0v1434h205v-1434h-205z" />
    <glyph glyph-name="ibreve" unicode="&#x12d;" horiz-adv-x="526" 
d="M264 1139q-77 0 -138 24t-97.5 63.5t-55 87t-18.5 99.5h160q5 -59 43.5 -97t105.5 -38t104 38t42 97h161q0 -111 -78.5 -192.5t-228.5 -81.5zM168 0v1016h192v-1016h-192z" />
    <glyph glyph-name="Iogonek" unicode="&#x12e;" horiz-adv-x="614" 
d="M410 0q-213 -81 -213 -186q0 -84 122 -84q25 0 91 12v-148q-69 -16 -117 -16q-113 0 -181.5 46.5t-68.5 137.5q0 139 168 238h-6v1434h205v-1434z" />
    <glyph glyph-name="iogonek" unicode="&#x12f;" horiz-adv-x="530" 
d="M164 1434h205v-230h-205v230zM170 4v1012h192v-1016q-212 -81 -212 -186q0 -84 122 -84q24 0 90 12v-148q-69 -16 -116 -16q-114 0 -182 46t-68 138q0 140 174 242z" />
    <glyph glyph-name="Idotaccent" unicode="&#x130;" horiz-adv-x="614" 
d="M205 1577v229h205v-229h-205zM205 0v1434h205v-1434h-205z" />
    <glyph glyph-name="dotlessi" unicode="&#x131;" horiz-adv-x="526" 
d="M168 0v1016h192v-1016h-192z" />
    <glyph glyph-name="IJ" unicode="&#x132;" horiz-adv-x="1654" 
d="M205 0v1434h205v-1434h-205zM1065 -29q-195 0 -302 121t-112 340l211 51q0 -167 47.5 -248t153.5 -81q104 0 151.5 77t47.5 238v965h204v-971q0 -250 -99 -371t-302 -121z" />
    <glyph glyph-name="ij" unicode="&#x133;" horiz-adv-x="1069" 
d="M160 1204v230h205v-230h-205zM705 1204v230h202v-230h-202zM166 0v1016h194v-1016h-194zM449 -399v172h159q54 0 77.5 23t23.5 77v1143h192v-1166q0 -249 -256 -249h-196z" />
    <glyph glyph-name="Jcircumflex" unicode="&#x134;" horiz-adv-x="1040" 
d="M352 1577l242 252h303l244 -252h-211l-185 152l-184 -152h-209zM449 -29q-194 0 -301.5 121.5t-110.5 339.5l211 51q-2 -167 45 -248t153 -81q105 0 153 77.5t48 237.5v965h205v-971q0 -250 -99.5 -371t-303.5 -121z" />
    <glyph glyph-name="jcircumflex" unicode="&#x135;" horiz-adv-x="542" 
d="M-78 1161l219 252h277l221 -252h-193l-165 150l-168 -150h-191zM-78 -399v172h160q54 0 78 23t24 77v1143h193v-1166q0 -249 -258 -249h-197z" />
    <glyph glyph-name="uni0136" unicode="&#x136;" horiz-adv-x="1398" 
d="M743 842l676 -842h-268l-549 696l-192 -194v-502h-205v1434h205v-340v-336l630 676h277zM672 -399v227h221v-227l-135 -244h-105l135 244h-116z" />
    <glyph glyph-name="uni0137" unicode="&#x137;" horiz-adv-x="1167" 
d="M680 594l487 -594h-247l-375 467l-185 -172v-295h-192v1434h192v-586v-338l519 506h251zM530 -399v227h222v-227l-136 -244h-104l137 244h-119z" />
    <glyph glyph-name="Lacute" unicode="&#x139;" horiz-adv-x="1202" 
d="M236 1577l112 291h281l-254 -291h-139zM205 0v1434h205v-1241h772v-193h-977z" />
    <glyph glyph-name="lacute" unicode="&#x13a;" horiz-adv-x="526" 
d="M201 1579l102 289h252l-229 -289h-125zM168 0v1434h192v-1434h-192z" />
    <glyph glyph-name="uni013B" unicode="&#x13b;" horiz-adv-x="1202" 
d="M205 0v1434h205v-1241h772v-193h-977zM559 -643l135 244h-116v227h221v-227l-135 -244h-105z" />
    <glyph glyph-name="uni013C" unicode="&#x13c;" horiz-adv-x="526" 
d="M168 0v1434h192v-1434h-192zM133 -643l137 244h-118v227h223v-227l-135 -244h-107z" />
    <glyph glyph-name="Lcaron" unicode="&#x13d;" horiz-adv-x="1204" 
d="M205 0v1434h205v-1241h772v-193h-977zM631 918l151 266h-131v250h244v-250l-147 -266h-117z" />
    <glyph glyph-name="lcaron" unicode="&#x13e;" horiz-adv-x="606" 
d="M168 0v1434h192v-1434h-192zM475 965l135 241h-118v228h223v-228l-135 -241h-105z" />
    <glyph glyph-name="Ldot" unicode="&#x13f;" horiz-adv-x="1208" 
d="M205 0v1434h205v-1241h772v-193h-977zM745 635v268h261v-268h-261z" />
    <glyph glyph-name="ldot" unicode="&#x140;" horiz-adv-x="808" 
d="M168 0v1434h192v-1434h-192zM537 594v266h262v-266h-262z" />
    <glyph glyph-name="Lslash" unicode="&#x141;" 
d="M475 193h772v-193h-977v518l-184 -104v188l184 105v727h205v-611l453 258v-188l-453 -258v-442z" />
    <glyph glyph-name="lslash" unicode="&#x142;" horiz-adv-x="663" 
d="M610 1040v-176l-176 -112v-752h-192v627l-162 -105v174l162 105v633h192v-508z" />
    <glyph glyph-name="Nacute" unicode="&#x143;" horiz-adv-x="1656" 
d="M770 1577l113 291h278l-252 -291h-139zM205 0v1434h276l766 -1086v326v760h205v-1434h-203l-839 1190v-375v-815h-205z" />
    <glyph glyph-name="nacute" unicode="&#x144;" horiz-adv-x="1191" 
d="M545 1161l102 289h254l-229 -289h-127zM168 0v1016h186v-170q7 18 21.5 40t43 51t64 52t89.5 39t114 16q180 0 266 -100.5t86 -277.5v-666h-192v621q0 256 -215 256q-55 0 -98.5 -17.5t-71.5 -43.5t-48 -67.5t-30 -77t-15.5 -85t-6.5 -78.5t-1 -70v-438h-192z" />
    <glyph glyph-name="uni0145" unicode="&#x145;" horiz-adv-x="1656" 
d="M205 0v1434h276l766 -1086v326v760h205v-1434h-203l-839 1190v-375v-815h-205zM700 -643l138 244h-119v227h221v-227l-135 -244h-105z" />
    <glyph glyph-name="uni0146" unicode="&#x146;" horiz-adv-x="1191" 
d="M168 0v1016h186v-170q7 18 21.5 40t43 51t64 52t89.5 39t114 16q180 0 266 -100.5t86 -277.5v-666h-192v621q0 256 -215 256q-55 0 -98.5 -17.5t-71.5 -43.5t-48 -67.5t-30 -77t-15.5 -85t-6.5 -78.5t-1 -70v-438h-192zM475 -643l135 244h-116v227h221v-227l-135 -244
h-105z" />
    <glyph glyph-name="Ncaron" unicode="&#x147;" horiz-adv-x="1656" 
d="M1233 1825l-242 -252h-305l-242 252h211l183 -152l184 152h211zM205 0v1434h276l766 -1086v326v760h205v-1434h-203l-839 1190v-375v-815h-205z" />
    <glyph glyph-name="ncaron" unicode="&#x148;" horiz-adv-x="1191" 
d="M469 1161l-221 252h192l166 -151l168 151h191l-220 -252h-276zM168 0v1016h186v-170q7 18 21.5 40t43 51t64 52t89.5 39t114 16q180 0 266 -100.5t86 -277.5v-666h-192v621q0 256 -215 256q-55 0 -98.5 -17.5t-71.5 -43.5t-48 -67.5t-30 -77t-15.5 -85t-6.5 -78.5t-1 -70
v-438h-192z" />
    <glyph glyph-name="Eng" unicode="&#x14a;" horiz-adv-x="1656" 
d="M997 -399v184h109q67 0 104 40t37 105v68l-837 1192v-86v-289v-815h-205v1434h276l766 -1094v86v240v768h205v-1508q0 -159 -86 -242t-231 -83h-138z" />
    <glyph glyph-name="eng" unicode="&#x14b;" horiz-adv-x="1191" 
d="M584 -399v172h161q53 0 77 24t24 76v748q0 256 -215 256q-55 0 -98.5 -17.5t-71.5 -43.5t-48 -67.5t-30 -77t-15.5 -85t-6.5 -78.5t-1 -70v-438h-192v1016h186v-170q7 18 21.5 40t43 51t64 52t89.5 39t114 16q180 0 266 -100.5t86 -277.5v-816q0 -249 -256 -249h-198z
" />
    <glyph glyph-name="Omacron" unicode="&#x14c;" horiz-adv-x="1642" 
d="M477 1616v145h692v-145h-692zM823 -29q-154 0 -287 54.5t-229 151t-150.5 236.5t-54.5 304t55 303.5t151 236t229 151t286 54.5t285.5 -54.5t227 -151t148.5 -236t54 -303.5q0 -165 -54 -304.5t-148.5 -236t-227 -151t-285.5 -54.5zM821 158q153 0 267.5 73.5
t173.5 199.5t59 286t-59 286t-173.5 199.5t-267.5 73.5t-267.5 -73.5t-173 -199.5t-58.5 -286t58.5 -286t173 -199.5t267.5 -73.5z" />
    <glyph glyph-name="omacron" unicode="&#x14d;" horiz-adv-x="1140" 
d="M256 1210v146h629v-146h-629zM571 -29q-206 0 -344.5 153.5t-138.5 381.5q0 232 136.5 385t346.5 153t346 -152.5t136 -385.5q0 -231 -138.5 -383t-343.5 -152zM571 137q129 0 205 93.5t76 273.5q0 182 -76 278.5t-205 96.5q-130 0 -206 -96t-76 -279q0 -181 76 -274
t206 -93z" />
    <glyph glyph-name="Obreve" unicode="&#x14e;" horiz-adv-x="1642" 
d="M819 1554q-85 0 -152 24.5t-107 64.5t-60.5 87.5t-20.5 98.5h178q5 -58 47 -95.5t115 -37.5q75 0 116 37t46 96h178q-1 -51 -21 -98.5t-59.5 -88t-106.5 -64.5t-153 -24zM823 -29q-154 0 -287 54.5t-229 151t-150.5 236.5t-54.5 304t55 303.5t151 236t229 151t286 54.5
t285.5 -54.5t227 -151t148.5 -236t54 -303.5q0 -165 -54 -304.5t-148.5 -236t-227 -151t-285.5 -54.5zM821 158q153 0 267.5 73.5t173.5 199.5t59 286t-59 286t-173.5 199.5t-267.5 73.5t-267.5 -73.5t-173 -199.5t-58.5 -286t58.5 -286t173 -199.5t267.5 -73.5z" />
    <glyph glyph-name="obreve" unicode="&#x14f;" horiz-adv-x="1140" 
d="M571 1139q-77 0 -138 24t-97.5 63.5t-55 87t-18.5 99.5h160q5 -59 43.5 -97t105.5 -38q66 0 103.5 38t42.5 97h162q-1 -52 -19.5 -99.5t-54.5 -87t-96.5 -63.5t-137.5 -24zM571 -29q-206 0 -344.5 153.5t-138.5 381.5q0 232 136.5 385t346.5 153t346 -152.5t136 -385.5
q0 -231 -138.5 -383t-343.5 -152zM571 137q129 0 205 93.5t76 273.5q0 182 -76 278.5t-205 96.5q-130 0 -206 -96t-76 -279q0 -181 76 -274t206 -93z" />
    <glyph glyph-name="Ohungarumlaut" unicode="&#x150;" horiz-adv-x="1642" 
d="M584 1577l112 291h279l-252 -291h-139zM944 1577l113 291h280l-254 -291h-139zM823 -29q-154 0 -287 54.5t-229 151t-150.5 236.5t-54.5 304t55 303.5t151 236t229 151t286 54.5t285.5 -54.5t227 -151t148.5 -236t54 -303.5q0 -165 -54 -304.5t-148.5 -236t-227 -151
t-285.5 -54.5zM821 158q153 0 267.5 73.5t173.5 199.5t59 286t-59 286t-173.5 199.5t-267.5 73.5t-267.5 -73.5t-173 -199.5t-58.5 -286t58.5 -286t173 -199.5t267.5 -73.5z" />
    <glyph glyph-name="ohungarumlaut" unicode="&#x151;" horiz-adv-x="1140" 
d="M344 1161l102 289h254l-231 -289h-125zM672 1161l102 289h254l-229 -289h-127zM571 -29q-206 0 -344.5 153.5t-138.5 381.5q0 232 136.5 385t346.5 153t346 -152.5t136 -385.5q0 -231 -138.5 -383t-343.5 -152zM571 137q129 0 205 93.5t76 273.5q0 182 -76 278.5
t-205 96.5q-130 0 -206 -96t-76 -279q0 -181 76 -274t206 -93z" />
    <glyph glyph-name="OE" unicode="&#x152;" horiz-adv-x="2467" 
d="M795 -29q-145 0 -272 54.5t-219.5 150.5t-146 236t-53.5 303q0 164 53.5 304.5t146 237t219.5 151t272 54.5q156 0 279.5 -62t203.5 -173v207h1089v-189h-884v-393h639v-182h-639v-482h884v-188h-1089v211q-77 -113 -201.5 -176.5t-281.5 -63.5zM805 158q223 0 353 155.5
t130 403.5t-130 403.5t-353 155.5t-353 -155.5t-130 -403.5t130 -403.5t353 -155.5z" />
    <glyph glyph-name="oe" unicode="&#x153;" horiz-adv-x="1865" 
d="M563 -29q-96 0 -182.5 38.5t-151 107t-102 169.5t-37.5 220q0 154 59.5 276t169.5 192t252 70q117 0 219.5 -61t155.5 -166q114 227 373 227q114 0 205.5 -47t148 -127t81 -186.5t9.5 -224.5h-716q7 -158 79.5 -242t190.5 -84q64 0 114.5 19t82.5 53t49 61t32 62l174 -64
q-58 -145 -173.5 -219t-280.5 -74q-128 0 -227 59t-146 163q-57 -102 -160 -162t-219 -60zM1053 606h514q-1 137 -72.5 211t-187.5 74q-101 0 -172.5 -76t-81.5 -209zM575 137q123 0 201 94t78 273q0 181 -78 278t-201 97q-131 0 -208.5 -96t-77.5 -279q0 -181 77 -274
t209 -93z" />
    <glyph glyph-name="Racute" unicode="&#x154;" horiz-adv-x="1413" 
d="M629 1577l112 291h281l-254 -291h-139zM205 0v1434h612q216 0 339.5 -110t123.5 -280q0 -157 -96 -254.5t-246 -127.5q139 -22 204 -93.5t93 -208.5l72 -360h-224l-57 342q-25 135 -99 192.5t-220 57.5h-297v-592h-205zM410 776h376q126 0 202.5 59.5t76.5 176.5t-76 175
t-203 58h-376v-469z" />
    <glyph glyph-name="racute" unicode="&#x155;" horiz-adv-x="821" 
d="M414 1161l102 289h254l-231 -289h-125zM168 0v1016h188v-215q12 27 29 54t47 60t65.5 57.5t87 41t109.5 16.5q56 0 94 -10v-197q-66 8 -108 8q-165 0 -242.5 -95t-77.5 -279v-457h-192z" />
    <glyph glyph-name="uni0156" unicode="&#x156;" horiz-adv-x="1413" 
d="M205 0v1434h612q216 0 339.5 -110t123.5 -280q0 -157 -96 -254.5t-246 -127.5q139 -22 204 -93.5t93 -208.5l72 -360h-224l-57 342q-25 135 -99 192.5t-220 57.5h-297v-592h-205zM410 776h376q126 0 202.5 59.5t76.5 176.5t-76 175t-203 58h-376v-469zM600 -643l137 244
h-119v227h222v-227l-135 -244h-105z" />
    <glyph glyph-name="uni0157" unicode="&#x157;" horiz-adv-x="821" 
d="M168 0v1016h188v-215q12 27 29 54t47 60t65.5 57.5t87 41t109.5 16.5q56 0 94 -10v-197q-66 8 -108 8q-165 0 -242.5 -95t-77.5 -279v-457h-192zM139 -643l135 244h-116v227h221v-227l-135 -244h-105z" />
    <glyph glyph-name="Rcaron" unicode="&#x158;" horiz-adv-x="1413" 
d="M1092 1825l-242 -252h-305l-242 252h211l184 -152l183 152h211zM205 0v1434h612q216 0 339.5 -110t123.5 -280q0 -157 -96 -254.5t-246 -127.5q139 -22 204 -93.5t93 -208.5l72 -360h-224l-57 342q-25 135 -99 192.5t-220 57.5h-297v-592h-205zM410 776h376
q126 0 202.5 59.5t76.5 176.5t-76 175t-203 58h-376v-469z" />
    <glyph glyph-name="rcaron" unicode="&#x159;" horiz-adv-x="821" 
d="M336 1161l-219 252h190l168 -151l166 151h193l-222 -252h-276zM168 0v1016h188v-215q12 27 29 54t47 60t65.5 57.5t87 41t109.5 16.5q56 0 94 -10v-197q-66 8 -108 8q-165 0 -242.5 -95t-77.5 -279v-457h-192z" />
    <glyph glyph-name="Sacute" unicode="&#x15a;" horiz-adv-x="1282" 
d="M561 1577l113 291h278l-254 -291h-137zM653 -29q-229 0 -378 110t-203 288l198 90q42 -135 140 -219t256 -84q144 0 223.5 62.5t79.5 166.5q0 89 -63.5 144t-196.5 83l-191 43q-180 38 -277.5 132t-97.5 268q0 176 138 291.5t362 115.5q91 0 170.5 -21.5t136 -56t101 -80
t70.5 -90.5t40 -90l-192 -88q-11 33 -26.5 62.5t-44 63.5t-64.5 58.5t-90.5 41t-118.5 16.5q-130 0 -203.5 -59t-73.5 -154q0 -86 54 -134t173 -75l197 -43q189 -40 300.5 -144.5t111.5 -265.5q0 -193 -139 -312.5t-392 -119.5z" />
    <glyph glyph-name="sacute" unicode="&#x15b;" horiz-adv-x="1015" 
d="M463 1161l102 289h254l-231 -289h-125zM518 -29q-167 0 -291 76t-155 215l182 60q50 -193 266 -193q105 0 161 36.5t56 104.5q0 57 -41 94t-141 56l-123 22q-72 14 -124.5 34t-99 53t-71 85.5t-24.5 122.5q0 134 111 220.5t272 86.5q91 0 164.5 -21.5t122 -59.5t79.5 -82
t47 -95l-170 -65q-61 170 -245 170q-96 0 -146.5 -38.5t-50.5 -96.5q0 -53 35.5 -82.5t136.5 -48.5l121 -23q342 -73 342 -315q0 -146 -109.5 -231t-304.5 -85z" />
    <glyph glyph-name="Scircumflex" unicode="&#x15c;" horiz-adv-x="1282" 
d="M233 1577l244 252h303l244 -252h-211l-184 152l-185 -152h-211zM653 -29q-229 0 -378 110t-203 288l198 90q42 -135 140 -219t256 -84q144 0 223.5 62.5t79.5 166.5q0 89 -63.5 144t-196.5 83l-191 43q-180 38 -277.5 132t-97.5 268q0 176 138 291.5t362 115.5
q91 0 170.5 -21.5t136 -56t101 -80t70.5 -90.5t40 -90l-192 -88q-11 33 -26.5 62.5t-44 63.5t-64.5 58.5t-90.5 41t-118.5 16.5q-130 0 -203.5 -59t-73.5 -154q0 -86 54 -134t173 -75l197 -43q189 -40 300.5 -144.5t111.5 -265.5q0 -193 -139 -312.5t-392 -119.5z" />
    <glyph glyph-name="scircumflex" unicode="&#x15d;" horiz-adv-x="1015" 
d="M166 1161l221 252h277l219 -252h-191l-168 150l-166 -150h-192zM518 -29q-167 0 -291 76t-155 215l182 60q50 -193 266 -193q105 0 161 36.5t56 104.5q0 57 -41 94t-141 56l-123 22q-72 14 -124.5 34t-99 53t-71 85.5t-24.5 122.5q0 134 111 220.5t272 86.5
q91 0 164.5 -21.5t122 -59.5t79.5 -82t47 -95l-170 -65q-61 170 -245 170q-96 0 -146.5 -38.5t-50.5 -96.5q0 -53 35.5 -82.5t136.5 -48.5l121 -23q342 -73 342 -315q0 -146 -109.5 -231t-304.5 -85z" />
    <glyph glyph-name="Scedilla" unicode="&#x15e;" horiz-adv-x="1282" 
d="M715 -27l-25 -22l-51 -51h29q77 0 130.5 -44.5t53.5 -119.5q0 -76 -61.5 -128t-167.5 -52q-82 0 -144 28.5t-96 69.5l80 102q68 -73 151 -73q41 0 67 16t26 49q0 28 -25.5 45t-63.5 17q-34 0 -71 -11l-55 74l94 100q-201 17 -332.5 124t-181.5 272l198 90
q42 -135 140 -219t256 -84q144 0 223.5 62.5t79.5 166.5q0 89 -63.5 144t-196.5 83l-191 43q-180 38 -277.5 132t-97.5 268q0 176 138 291.5t362 115.5q91 0 170.5 -21.5t136 -56t101 -80t70.5 -90.5t40 -90l-192 -88q-11 33 -26.5 62.5t-44 63.5t-64.5 58.5t-90.5 41
t-118.5 16.5q-130 0 -203.5 -59t-73.5 -154q0 -86 54 -134t173 -75l197 -43q189 -40 300.5 -144.5t111.5 -265.5q0 -182 -122 -298.5t-347 -131.5z" />
    <glyph glyph-name="scedilla" unicode="&#x15f;" horiz-adv-x="1015" 
d="M565 -49q-23 -26 -51 -51h31q77 0 130.5 -44.5t53.5 -119.5q0 -76 -61.5 -128t-167.5 -52q-82 0 -144 28.5t-98 69.5l80 102q68 -73 151 -73q95 0 95 65q0 28 -25.5 45t-62.5 17q-35 0 -72 -11l-57 74l96 100q-149 13 -256 87.5t-135 201.5l182 60q50 -193 266 -193
q105 0 161 36.5t56 104.5q0 57 -41 94t-141 56l-123 22q-72 14 -124.5 34t-99 53t-71 85.5t-24.5 122.5q0 134 111 220.5t272 86.5q91 0 164.5 -21.5t122 -59.5t79.5 -82t47 -95l-170 -65q-61 170 -245 170q-96 0 -146.5 -38.5t-50.5 -96.5q0 -53 35.5 -82.5t136.5 -48.5
l121 -23q342 -73 342 -315q0 -131 -89 -214t-251 -98z" />
    <glyph glyph-name="Scaron" unicode="&#x160;" horiz-adv-x="1282" 
d="M1024 1825l-244 -252h-303l-241 252h208l185 -152l184 152h211zM653 -29q-229 0 -378 110t-203 288l198 90q42 -135 140 -219t256 -84q144 0 223.5 62.5t79.5 166.5q0 89 -63.5 144t-196.5 83l-191 43q-180 38 -277.5 132t-97.5 268q0 176 138 291.5t362 115.5
q91 0 170.5 -21.5t136 -56t101 -80t70.5 -90.5t40 -90l-192 -88q-11 33 -26.5 62.5t-44 63.5t-64.5 58.5t-90.5 41t-118.5 16.5q-130 0 -203.5 -59t-73.5 -154q0 -86 54 -134t173 -75l197 -43q189 -40 300.5 -144.5t111.5 -265.5q0 -193 -139 -312.5t-392 -119.5z" />
    <glyph glyph-name="scaron" unicode="&#x161;" horiz-adv-x="1015" 
d="M385 1161l-219 252h190l168 -151l166 151h193l-221 -252h-277zM518 -29q-167 0 -291 76t-155 215l182 60q50 -193 266 -193q105 0 161 36.5t56 104.5q0 57 -41 94t-141 56l-123 22q-72 14 -124.5 34t-99 53t-71 85.5t-24.5 122.5q0 134 111 220.5t272 86.5
q91 0 164.5 -21.5t122 -59.5t79.5 -82t47 -95l-170 -65q-61 170 -245 170q-96 0 -146.5 -38.5t-50.5 -96.5q0 -53 35.5 -82.5t136.5 -48.5l121 -23q342 -73 342 -315q0 -146 -109.5 -231t-304.5 -85z" />
    <glyph glyph-name="uni0162" unicode="&#x162;" horiz-adv-x="1275" 
d="M733 0l-55 -49l-51 -51h28q77 0 131 -44.5t54 -119.5t-62 -127.5t-168 -52.5q-82 0 -143.5 28.5t-95.5 69.5l80 102q68 -73 151 -73q92 0 92 65q0 28 -25 45t-63 17q-34 0 -71 -11l-56 74l119 127h-70v1245h-508v189h1235v-189h-522v-1245z" />
    <glyph glyph-name="uni0163" unicode="&#x163;" horiz-adv-x="821" 
d="M584 -49q-9 -10 -28 -28t-24 -23h31q77 0 129.5 -44.5t52.5 -119.5q0 -76 -60.5 -128t-168.5 -52q-82 0 -143 28.5t-97 69.5l80 102q68 -73 152 -73q94 0 94 65q0 28 -26 45t-64 17q-37 0 -70 -11l-57 74l119 127h18q-256 0 -256 250v606h-231v160h231v317h193v-317h274
v-160h-274v-590q0 -52 23.5 -76t76.5 -24h213v-166h-133z" />
    <glyph glyph-name="Tcaron" unicode="&#x164;" horiz-adv-x="1275" 
d="M1022 1825l-242 -252h-305l-242 252h211l185 -152l182 152h211zM528 0v1245h-508v189h1235v-189h-522v-1245h-205z" />
    <glyph glyph-name="tcaron" unicode="&#x165;" horiz-adv-x="821" 
d="M641 1102l135 244h-117v225h222v-225l-136 -244h-104zM522 0q-256 0 -256 250v606h-231v160h231v317h193v-317h274v-160h-274v-590q0 -52 23.5 -76t76.5 -24h213v-166h-250z" />
    <glyph glyph-name="Tbar" unicode="&#x166;" horiz-adv-x="1312" 
d="M1276 1245h-524v-377h323v-163h-323v-705h-205v705h-326v163h326v377h-508v189h1237v-189z" />
    <glyph glyph-name="tbar" unicode="&#x167;" horiz-adv-x="845" 
d="M580 166h213v-166h-252q-254 0 -254 250v276h-234v154h234v176h-234v160h234v317h192v-317h275v-160h-275v-176h275v-154h-275v-260q0 -52 24 -76t77 -24z" />
    <glyph glyph-name="Utilde" unicode="&#x168;" horiz-adv-x="1486" 
d="M946 1554q-80 0 -178 56l-66 39q-66 34 -94 34q-42 0 -65 -27.5t-23 -78.5h-166q0 124 67.5 189t178.5 65q89 0 174 -49l62 -37q68 -37 98 -37q41 0 62.5 22.5t27.5 73.5h164q0 -124 -65.5 -187t-176.5 -63zM743 -29q-264 0 -411.5 146.5t-147.5 435.5v881h205v-850
q0 -201 88 -311.5t266 -110.5q179 0 267 111.5t88 310.5v850h205v-881q0 -279 -144.5 -430.5t-415.5 -151.5z" />
    <glyph glyph-name="utilde" unicode="&#x169;" horiz-adv-x="1181" 
d="M739 1165q-74 0 -159 54l-60 38q-56 35 -88 35q-37 0 -57.5 -27.5t-20.5 -78.5h-151q0 124 60.5 189t162.5 65q80 0 158 -49l57 -37q61 -37 88 -37q38 0 58 22.5t24 73.5h150q0 -123 -60 -185.5t-162 -62.5zM487 -29q-167 0 -250 101.5t-83 277.5v666h192v-621
q0 -256 209 -256q53 0 95 16.5t69 41.5t47 64t30.5 74.5t16 83t7 80t1.5 74.5v443h193v-1016h-189v174q-17 -30 -39 -58t-62.5 -64.5t-102 -58.5t-134.5 -22z" />
    <glyph glyph-name="Umacron" unicode="&#x16a;" horiz-adv-x="1486" 
d="M406 1616v145h690v-145h-690zM743 -29q-264 0 -411.5 146.5t-147.5 435.5v881h205v-850q0 -201 88 -311.5t266 -110.5q179 0 267 111.5t88 310.5v850h205v-881q0 -279 -144.5 -430.5t-415.5 -151.5z" />
    <glyph glyph-name="umacron" unicode="&#x16b;" horiz-adv-x="1181" 
d="M266 1210v146h629v-146h-629zM487 -29q-167 0 -250 101.5t-83 277.5v666h192v-621q0 -256 209 -256q53 0 95 16.5t69 41.5t47 64t30.5 74.5t16 83t7 80t1.5 74.5v443h193v-1016h-189v174q-17 -30 -39 -58t-62.5 -64.5t-102 -58.5t-134.5 -22z" />
    <glyph glyph-name="Ubreve" unicode="&#x16c;" horiz-adv-x="1486" 
d="M748 1554q-85 0 -152 24.5t-107 64.5t-60.5 87.5t-20.5 98.5h176q6 -59 48.5 -96t115.5 -37t114 37t47 96h176q0 -51 -20 -98.5t-59.5 -88t-106 -64.5t-151.5 -24zM743 -29q-264 0 -411.5 146.5t-147.5 435.5v881h205v-850q0 -201 88 -311.5t266 -110.5q179 0 267 111.5
t88 310.5v850h205v-881q0 -279 -144.5 -430.5t-415.5 -151.5z" />
    <glyph glyph-name="ubreve" unicode="&#x16d;" horiz-adv-x="1181" 
d="M582 1139q-77 0 -138.5 24t-98 63.5t-55 87t-18.5 99.5h160q5 -59 44 -97t106 -38q66 0 103 38t42 97h162q-1 -52 -19.5 -99.5t-54.5 -87t-96 -63.5t-137 -24zM487 -29q-167 0 -250 101.5t-83 277.5v666h192v-621q0 -256 209 -256q53 0 95 16.5t69 41.5t47 64t30.5 74.5
t16 83t7 80t1.5 74.5v443h193v-1016h-189v174q-17 -30 -39 -58t-62.5 -64.5t-102 -58.5t-134.5 -22z" />
    <glyph glyph-name="Uring" unicode="&#x16e;" horiz-adv-x="1486" 
d="M748 1550q-105 0 -177.5 72.5t-72.5 179.5q0 102 73 172t177 70q102 0 175.5 -71.5t73.5 -176.5q0 -104 -73 -175t-176 -71zM748 1675q46 0 81 36t35 85q0 50 -35 86.5t-81 36.5q-49 0 -83 -35t-34 -82q0 -55 32.5 -91t84.5 -36zM743 -29q-264 0 -411.5 146.5
t-147.5 435.5v881h205v-850q0 -201 88 -311.5t266 -110.5q179 0 267 111.5t88 310.5v850h205v-881q0 -279 -144.5 -430.5t-415.5 -151.5z" />
    <glyph glyph-name="uring" unicode="&#x16f;" horiz-adv-x="1181" 
d="M584 1126q-102 0 -171 69t-69 171q0 96 70 162.5t170 66.5q97 0 167 -67.5t70 -167.5t-70 -167t-167 -67zM584 1245q43 0 75.5 34.5t32.5 80.5q0 49 -32.5 83t-75.5 34q-47 0 -80 -33t-33 -78q0 -52 31.5 -86.5t81.5 -34.5zM487 -29q-167 0 -250 101.5t-83 277.5v666h192
v-621q0 -256 209 -256q53 0 95 16.5t69 41.5t47 64t30.5 74.5t16 83t7 80t1.5 74.5v443h193v-1016h-189v174q-17 -30 -39 -58t-62.5 -64.5t-102 -58.5t-134.5 -22z" />
    <glyph glyph-name="Uhungarumlaut" unicode="&#x170;" horiz-adv-x="1486" 
d="M512 1577l113 291h278l-254 -291h-137zM872 1577l113 291h279l-252 -291h-140zM743 -29q-264 0 -411.5 146.5t-147.5 435.5v881h205v-850q0 -201 88 -311.5t266 -110.5q179 0 267 111.5t88 310.5v850h205v-881q0 -279 -144.5 -430.5t-415.5 -151.5z" />
    <glyph glyph-name="uhungarumlaut" unicode="&#x171;" horiz-adv-x="1181" 
d="M354 1161l103 289h254l-232 -289h-125zM682 1161l102 289h254l-229 -289h-127zM487 -29q-167 0 -250 101.5t-83 277.5v666h192v-621q0 -256 209 -256q53 0 95 16.5t69 41.5t47 64t30.5 74.5t16 83t7 80t1.5 74.5v443h193v-1016h-189v174q-17 -30 -39 -58t-62.5 -64.5
t-102 -58.5t-134.5 -22z" />
    <glyph glyph-name="Uogonek" unicode="&#x172;" horiz-adv-x="1486" 
d="M836 -422q-112 0 -180 47.5t-68 136.5q0 114 112 209q-245 12 -380.5 158.5t-135.5 423.5v881h205v-850q0 -201 88 -311.5t266 -110.5q179 0 267 111.5t88 310.5v850h205v-881q0 -219 -89.5 -359.5t-263.5 -197.5q-110 -34 -159.5 -81t-49.5 -97q0 -88 123 -88
q20 0 90 12v-148q-72 -16 -118 -16z" />
    <glyph glyph-name="uogonek" unicode="&#x173;" horiz-adv-x="1181" 
d="M1014 0q-213 -81 -213 -186q0 -84 123 -84q24 0 90 12v-148q-69 -16 -117 -16q-113 0 -181.5 46.5t-68.5 137.5q0 143 178 244v168q-17 -30 -39 -58t-62.5 -64.5t-102 -58.5t-134.5 -22q-167 0 -250 101.5t-83 277.5v666h192v-621q0 -256 209 -256q53 0 95 16.5t69 41.5
t47 64t30.5 74.5t16 83t7 80t1.5 74.5v443h193v-1016z" />
    <glyph glyph-name="Wcircumflex" unicode="&#x174;" horiz-adv-x="2031" 
d="M627 1577l241 252h303l244 -252h-211l-184 152l-184 -152h-209zM418 0l-344 1434h217l182 -807q64 -293 88 -389q6 24 15.5 57.5t34 121t51.5 183.5l235 834h250l242 -912q53 -199 77 -284q73 297 97 397l192 799h213l-371 -1434h-262l-231 864q-21 81 -42 157.5
t-29 106.5t-13 52q-4 -12 -29.5 -104.5t-58.5 -209.5l-248 -866h-266z" />
    <glyph glyph-name="wcircumflex" unicode="&#x175;" horiz-adv-x="1703" 
d="M494 1161l219 252h276l221 -252h-192l-166 150l-168 -150h-190zM379 0l-332 1016h201l143 -473l103 -338q8 31 98 327l147 484h226l159 -529l84 -280q40 117 107 342l145 467h203l-342 -1016h-227l-150 489l-96 316q-9 -27 -19.5 -61.5t-33 -105.5t-45.5 -146l-154 -492
h-217z" />
    <glyph glyph-name="Ycircumflex" unicode="&#x176;" horiz-adv-x="1325" 
d="M268 1577l242 252h305l242 -252h-211l-182 152l-185 -152h-211zM563 0v600l-520 834h246l258 -428q115 -194 121 -205q12 20 54.5 94t63.5 111l242 428h244l-504 -826v-608h-205z" />
    <glyph glyph-name="ycircumflex" unicode="&#x177;" horiz-adv-x="1042" 
d="M508 1311l-168 -150h-190l219 252h278l219 -252h-190zM791 1016h202l-399 -1159q-50 -145 -118.5 -200.5t-201.5 -55.5h-211v172h205q56 0 87.5 19t52.5 75l51 145l-449 1004h215l209 -506q85 -197 105 -252q47 142 77 231z" />
    <glyph glyph-name="Ydieresis" unicode="&#x178;" horiz-adv-x="1325" 
d="M328 1577v211h227v-211h-227zM770 1577v211h227v-211h-227zM563 0v600l-520 834h246l258 -428q115 -194 121 -205q12 20 54.5 94t63.5 111l242 428h244l-504 -826v-608h-205z" />
    <glyph glyph-name="Zacute" unicode="&#x179;" horiz-adv-x="1292" 
d="M584 1577l112 291h279l-252 -291h-139zM84 0v238l862 1007h-233h-592v189h1065v-211l-883 -1035h232h686v-188h-1137z" />
    <glyph glyph-name="zacute" unicode="&#x17a;" horiz-adv-x="1003" 
d="M440 1161l103 289h254l-230 -289h-127zM86 0v170l567 680h-227h-322v166h799v-144l-590 -706h242h375v-166h-844z" />
    <glyph glyph-name="Zdotaccent" unicode="&#x17b;" horiz-adv-x="1292" 
d="M551 1577v229h205v-229h-205zM84 0v238l862 1007h-233h-592v189h1065v-211l-883 -1035h232h686v-188h-1137z" />
    <glyph glyph-name="zdotaccent" unicode="&#x17c;" horiz-adv-x="1003" 
d="M401 1204v230h205v-230h-205zM86 0v170l567 680h-227h-322v166h799v-144l-590 -706h242h375v-166h-844z" />
    <glyph glyph-name="Zcaron" unicode="&#x17d;" horiz-adv-x="1292" 
d="M1047 1825l-242 -252h-305l-242 252h211l182 -152l185 152h211zM84 0v238l862 1007h-233h-592v189h1065v-211l-883 -1035h232h686v-188h-1137z" />
    <glyph glyph-name="zcaron" unicode="&#x17e;" horiz-adv-x="1003" 
d="M365 1161l-222 252h193l166 -151l168 151h190l-219 -252h-276zM86 0v170l567 680h-227h-322v166h799v-144l-590 -706h242h375v-166h-844z" />
    <glyph glyph-name="florin" unicode="&#x192;" horiz-adv-x="956" 
d="M57 -420q-94 0 -174 27v170q71 -25 140 -25q79 0 132.5 49.5t71.5 155.5l76 436q36 220 57 324h-153h-109v157h289l43 250q29 168 113.5 250t230.5 82q63 0 148 -16v-174q-56 10 -113 10q-89 0 -126.5 -42t-55.5 -147l-37 -213h256v-157h-283l-137 -780
q-33 -181 -130.5 -269t-238.5 -88z" />
    <glyph glyph-name="uni01E2" unicode="&#x1e2;" horiz-adv-x="1890" 
d="M1552 1761v-145h-690v145h690zM1786 1245h-684v-397h508v-184h-508v-476h684v-188h-887v391h-475l-213 -391h-246l821 1434h1000v-189zM899 920v348q-34 -67 -199 -369l-174 -321h373v342z" />
    <glyph glyph-name="uni01E3" unicode="&#x1e3;" horiz-adv-x="1734" 
d="M555 1210v146h629v-146h-629zM438 -29q-159 0 -247.5 78t-88.5 215q0 345 639 400v30q0 189 -215 189q-199 0 -262 -183l-178 58q15 54 48 103.5t84 91.5t128 66.5t168 24.5q129 0 216.5 -47t129.5 -127q43 76 135 125t193 49q149 0 257.5 -79t156.5 -212t30 -294h-717
q4 -88 29 -153.5t65.5 -102t87.5 -53.5t101 -17q182 0 266 195l176 -64q-55 -144 -171.5 -218.5t-274.5 -74.5q-137 0 -239.5 63t-141.5 148q-48 -95 -145.5 -153t-229.5 -58zM922 606h514q-1 136 -72.5 210.5t-179.5 74.5q-101 0 -176.5 -76.5t-85.5 -208.5zM479 129
q108 0 185 74t77 217v106q-98 -9 -171.5 -24.5t-138 -43t-98.5 -73t-34 -106.5q0 -71 45.5 -110.5t134.5 -39.5z" />
    <glyph glyph-name="Aringacute" unicode="&#x1fa;" horiz-adv-x="1415" 
d="M1008 2314l-232 -280h-125l103 280h254zM715 1524q-102 0 -171 68.5t-69 170.5q0 96 70 163t170 67q95 0 165 -68t70 -168q0 -99 -69.5 -166t-165.5 -67zM715 1874q-48 0 -80.5 -33t-32.5 -78q0 -52 31.5 -86.5t81.5 -34.5q43 0 75.5 34.5t32.5 80.5q0 49 -32.5 83
t-75.5 34zM1151 0l-133 379h-631l-135 -379h-221l538 1434h283l528 -1434h-229zM455 567h495l-137 389q-81 240 -108 308q-10 -26 -25 -67t-40 -111.5t-46 -129.5z" />
    <glyph glyph-name="aringacute" unicode="&#x1fb;" horiz-adv-x="1112" 
d="M475 1636l103 281h253l-231 -281h-125zM537 1126q-100 0 -170 69t-70 171q0 96 70.5 162.5t169.5 66.5q97 0 167 -67.5t70 -167.5t-70 -167t-167 -67zM537 1245q44 0 77 34.5t33 80.5q0 49 -32.5 83t-77.5 34q-47 0 -79 -33t-32 -78q0 -52 30.5 -86.5t80.5 -34.5z
M430 -29q-150 0 -239 78.5t-89 212.5q0 350 639 402v30q0 189 -213 189q-63 0 -111 -16.5t-77.5 -46.5t-45.5 -57.5t-28 -62.5l-184 60q28 116 143.5 200t302.5 84q201 0 303.5 -94t102.5 -262v-465q0 -35 12 -47t47 -12h105v-164h-148q-53 0 -89 11.5t-56 34t-29 47.5
t-14 61q-58 -89 -137 -136t-195 -47zM481 129q50 0 95.5 17.5t83 51.5t59.5 91.5t22 130.5v104q-76 -8 -137.5 -19.5t-119.5 -31t-97 -45.5t-62.5 -64t-23.5 -85q0 -71 45.5 -110.5t134.5 -39.5z" />
    <glyph glyph-name="AEacute" unicode="&#x1fc;" horiz-adv-x="1890" 
d="M1528 1868l-254 -291h-137l112 291h279zM1786 1245h-684v-397h508v-184h-508v-476h684v-188h-887v391h-475l-213 -391h-246l821 1434h1000v-189zM899 920v348q-34 -67 -199 -369l-174 -321h373v342z" />
    <glyph glyph-name="aeacute" unicode="&#x1fd;" horiz-adv-x="1734" 
d="M807 1161l102 289h254l-229 -289h-127zM438 -29q-159 0 -247.5 78t-88.5 215q0 345 639 400v30q0 189 -215 189q-199 0 -262 -183l-178 58q15 54 48 103.5t84 91.5t128 66.5t168 24.5q129 0 216.5 -47t129.5 -127q43 76 135 125t193 49q149 0 257.5 -79t156.5 -212
t30 -294h-717q4 -88 29 -153.5t65.5 -102t87.5 -53.5t101 -17q182 0 266 195l176 -64q-55 -144 -171.5 -218.5t-274.5 -74.5q-137 0 -239.5 63t-141.5 148q-48 -95 -145.5 -153t-229.5 -58zM922 606h514q-1 136 -72.5 210.5t-179.5 74.5q-101 0 -176.5 -76.5t-85.5 -208.5z
M479 129q108 0 185 74t77 217v106q-98 -9 -171.5 -24.5t-138 -43t-98.5 -73t-34 -106.5q0 -71 45.5 -110.5t134.5 -39.5z" />
    <glyph glyph-name="Oslashacute" unicode="&#x1fe;" horiz-adv-x="1650" 
d="M754 1577l112 291h281l-254 -291h-139zM303 -70l-143 113l129 158q-185 208 -185 516q0 164 54.5 303.5t150.5 236t229 151t287 54.5q226 0 400 -114l127 155l145 -117l-133 -159q176 -204 176 -510q0 -165 -54 -305t-148.5 -237t-227 -151.5t-285.5 -54.5
q-220 0 -397 113zM420 362l479 586q117 141 201 248q-124 80 -277 80t-268 -73.5t-174 -199.5t-59 -286q0 -206 98 -355zM823 158q230 0 365 156t135 403q0 196 -92 346l-467 -569q-43 -51 -117.5 -144.5t-93.5 -116.5q118 -75 270 -75z" />
    <glyph glyph-name="oslashacute" unicode="&#x1ff;" horiz-adv-x="1157" 
d="M526 1161l103 289h252l-230 -289h-125zM580 -29q-155 0 -277 92l-78 -96l-108 84l90 111q-109 140 -109 344q0 233 136 385.5t346 152.5q159 0 278 -92l80 97l104 -84l-88 -109q107 -145 107 -350q0 -231 -137.5 -383t-343.5 -152zM330 311l309 375q66 81 111 133
q-69 60 -170 60q-129 0 -206 -96.5t-77 -278.5q0 -109 33 -193zM582 137q128 0 204 93.5t76 273.5q0 117 -35 201l-288 -355q-56 -69 -129 -155q67 -58 172 -58z" />
    <glyph glyph-name="uni0218" unicode="&#x218;" horiz-adv-x="1282" 
d="M653 -29q-229 0 -378 110t-203 288l198 90q42 -135 140 -219t256 -84q144 0 223.5 62.5t79.5 166.5q0 89 -63.5 144t-196.5 83l-191 43q-180 38 -277.5 132t-97.5 268q0 176 138 291.5t362 115.5q91 0 170.5 -21.5t136 -56t101 -80t70.5 -90.5t40 -90l-192 -88
q-11 33 -26.5 62.5t-44 63.5t-64.5 58.5t-90.5 41t-118.5 16.5q-130 0 -203.5 -59t-73.5 -154q0 -86 54 -134t173 -75l197 -43q189 -40 300.5 -144.5t111.5 -265.5q0 -193 -139 -312.5t-392 -119.5zM514 -643l135 244h-117v227h222v-227l-136 -244h-104z" />
    <glyph glyph-name="uni0219" unicode="&#x219;" horiz-adv-x="1015" 
d="M518 -29q-167 0 -291 76t-155 215l182 60q50 -193 266 -193q105 0 161 36.5t56 104.5q0 57 -41 94t-141 56l-123 22q-72 14 -124.5 34t-99 53t-71 85.5t-24.5 122.5q0 134 111 220.5t272 86.5q91 0 164.5 -21.5t122 -59.5t79.5 -82t47 -95l-170 -65q-61 170 -245 170
q-96 0 -146.5 -38.5t-50.5 -96.5q0 -53 35.5 -82.5t136.5 -48.5l121 -23q342 -73 342 -315q0 -146 -109.5 -231t-304.5 -85zM389 -643l137 244h-118v227h223v-227l-135 -244h-107z" />
    <glyph glyph-name="uni021A" unicode="&#x21a;" horiz-adv-x="1275" 
d="M528 0v1245h-508v189h1235v-189h-522v-1245h-205zM502 -643l135 244h-117v227h221v-227l-135 -244h-104z" />
    <glyph glyph-name="uni021B" unicode="&#x21b;" horiz-adv-x="821" 
d="M522 0q-256 0 -256 250v606h-231v160h231v317h193v-317h274v-160h-274v-590q0 -52 23.5 -76t76.5 -24h213v-166h-250zM408 -643l137 244h-119v227h221v-227l-135 -244h-104z" />
    <glyph glyph-name="uni0226" unicode="&#x226;" horiz-adv-x="1415" 
d="M813 1806v-229h-203v229h203zM1151 0l-133 379h-631l-135 -379h-221l538 1434h283l528 -1434h-229zM455 567h495l-137 389q-81 240 -108 308q-10 -26 -25 -67t-40 -111.5t-46 -129.5z" />
    <glyph glyph-name="uni0227" unicode="&#x227;" horiz-adv-x="1112" 
d="M432 1204v230h205v-230h-205zM430 -29q-150 0 -239 78.5t-89 212.5q0 350 639 402v30q0 189 -213 189q-63 0 -111 -16.5t-77.5 -46.5t-45.5 -57.5t-28 -62.5l-184 60q28 116 143.5 200t302.5 84q201 0 303.5 -94t102.5 -262v-465q0 -35 12 -47t47 -12h105v-164h-148
q-53 0 -89 11.5t-56 34t-29 47.5t-14 61q-58 -89 -137 -136t-195 -47zM481 129q50 0 95.5 17.5t83 51.5t59.5 91.5t22 130.5v104q-76 -8 -137.5 -19.5t-119.5 -31t-97 -45.5t-62.5 -64t-23.5 -85q0 -71 45.5 -110.5t134.5 -39.5z" />
    <glyph glyph-name="uni0232" unicode="&#x232;" horiz-adv-x="1325" 
d="M319 1616v145h693v-145h-693zM563 0v600l-520 834h246l258 -428q115 -194 121 -205q12 20 54.5 94t63.5 111l242 428h244l-504 -826v-608h-205z" />
    <glyph glyph-name="uni0233" unicode="&#x233;" horiz-adv-x="1042" 
d="M821 1356v-146h-628v146h628zM791 1016h202l-399 -1159q-50 -145 -118.5 -200.5t-201.5 -55.5h-211v172h205q56 0 87.5 19t52.5 75l51 145l-449 1004h215l209 -506q85 -197 105 -252q47 142 77 231z" />
    <glyph glyph-name="uni0237" unicode="&#x237;" horiz-adv-x="542" 
d="M-78 -399v172h160q54 0 78 23t24 77v1143h193v-1166q0 -249 -258 -249h-197z" />
    <glyph glyph-name="circumflex" unicode="&#x2c6;" horiz-adv-x="874" 
d="M16 1161l222 252h276l221 -252h-192l-166 150l-168 -150h-193z" />
    <glyph glyph-name="caron" unicode="&#x2c7;" horiz-adv-x="874" 
d="M221 1161l-219 252h191l167 -151l166 151h193l-221 -252h-277z" />
    <glyph glyph-name="breve" unicode="&#x2d8;" horiz-adv-x="757" 
d="M375 1139q-77 0 -138 24t-97.5 63.5t-55 87t-18.5 99.5h159q5 -59 44 -97t106 -38q66 0 103 38t42 97h162q0 -111 -78.5 -192.5t-228.5 -81.5z" />
    <glyph glyph-name="dotaccent" unicode="&#x2d9;" horiz-adv-x="645" 
d="M180 1204v230h205v-230h-205z" />
    <glyph glyph-name="ring" unicode="&#x2da;" horiz-adv-x="722" 
d="M365 1126q-102 0 -171 69t-69 171q0 96 70 162.5t170 66.5q97 0 167 -67.5t70 -167.5t-70 -167t-167 -67zM365 1245q43 0 75.5 34.5t32.5 80.5q0 49 -32.5 83t-75.5 34q-47 0 -80 -33t-33 -78q0 -52 31.5 -86.5t81.5 -34.5z" />
    <glyph glyph-name="ogonek" unicode="&#x2db;" horiz-adv-x="704" 
d="M336 -422q-113 0 -181.5 46.5t-68.5 137.5t75 169t261 145l31 -76q-213 -81 -213 -186q0 -84 122 -84q25 0 91 12v-148q-69 -16 -117 -16z" />
    <glyph glyph-name="tilde" unicode="&#x2dc;" horiz-adv-x="765" 
d="M569 1165q-74 0 -159 54l-62 38q-53 35 -86 35q-37 0 -58.5 -28t-21.5 -78h-149q0 124 60.5 189t160.5 65q82 0 160 -49l55 -37q65 -37 90 -37q38 0 58 22.5t24 73.5h150q0 -123 -60 -185.5t-162 -62.5z" />
    <glyph glyph-name="hungarumlaut" unicode="&#x2dd;" horiz-adv-x="1341" 
d="M293 1161l102 289h254l-231 -289h-125zM621 1161l102 289h254l-229 -289h-127z" />
    <glyph glyph-name="gravecomb" unicode="&#x300;" horiz-adv-x="0" 
d="M-174 1161l-225 289h249l103 -289h-127z" />
    <glyph glyph-name="acutecomb" unicode="&#x301;" horiz-adv-x="0" 
d="M-395 1161l102 289h254l-229 -289h-127z" />
    <glyph glyph-name="uni0302" unicode="&#x302;" horiz-adv-x="0" 
d="M-799 1161l219 252h279l219 -252h-190l-168 150l-168 -150h-191z" />
    <glyph glyph-name="tildecomb" unicode="&#x303;" horiz-adv-x="0" 
d="M-268 1165q-77 0 -162 54l-59 38q-56 35 -86 35q-37 0 -58.5 -28t-21.5 -78h-150q0 124 60 189t161 65q82 0 160 -49l55 -37q61 -37 88 -37q38 0 58 22.5t26 73.5h150q0 -123 -59.5 -185.5t-161.5 -62.5z" />
    <glyph glyph-name="uni0304" unicode="&#x304;" horiz-adv-x="0" 
d="M-705 1210v146h627v-146h-627z" />
    <glyph glyph-name="uni0306" unicode="&#x306;" horiz-adv-x="0" 
d="M-391 1139q-150 0 -228.5 81.5t-80.5 192.5h161q5 -59 43.5 -97t104.5 -38q67 0 104.5 38t42.5 97h162q-2 -111 -80.5 -192.5t-228.5 -81.5z" />
    <glyph glyph-name="uni0307" unicode="&#x307;" horiz-adv-x="0" 
d="M-248 1204v230h205v-230h-205z" />
    <glyph glyph-name="uni0308" unicode="&#x308;" horiz-adv-x="0" 
d="M-680 1202v211h207v-211h-207zM-276 1202v211h204v-211h-204z" />
    <glyph glyph-name="uni030A" unicode="&#x30a;" horiz-adv-x="0" 
d="M-279 1126q-100 0 -169.5 69t-69.5 171q0 96 70 162.5t169 66.5q97 0 167.5 -67.5t70.5 -167.5t-70.5 -167t-167.5 -67zM-279 1245q44 0 77.5 34.5t33.5 80.5q0 49 -33 83t-78 34q-47 0 -79.5 -33t-32.5 -78q0 -52 31 -86.5t81 -34.5z" />
    <glyph glyph-name="uni030B" unicode="&#x30b;" horiz-adv-x="0" 
d="M-756 1161l103 289h254l-232 -289h-125zM-428 1161l102 289h254l-229 -289h-127z" />
    <glyph glyph-name="uni030C" unicode="&#x30c;" horiz-adv-x="0" 
d="M-612 1161l-219 252h190l168 -151l168 151h190l-219 -252h-278z" />
    <glyph glyph-name="uni0312" unicode="&#x312;" horiz-adv-x="0" 
d="M16 1673l-137 -243h119v-226h-223v226l135 243h106z" />
    <glyph glyph-name="dotbelowcomb" unicode="&#x323;" horiz-adv-x="0" 
d="M-244 -399v229h205v-229h-205z" />
    <glyph glyph-name="uni0326" unicode="&#x326;" horiz-adv-x="0" 
d="M-283 -643l136 244h-117v227h221v-227l-135 -244h-105z" />
    <glyph glyph-name="uni0327" unicode="&#x327;" horiz-adv-x="0" 
d="M-305 -444q-82 0 -144 28.5t-98 69.5l80 102q68 -73 152 -73q94 0 94 65q0 28 -25.5 45t-62.5 17q-35 0 -72 -11l-57 74l121 127h133l-56 -49q-23 -26 -51 -51h31q77 0 130.5 -44.5t53.5 -119.5q0 -76 -61.5 -128t-167.5 -52z" />
    <glyph glyph-name="uni0328" unicode="&#x328;" horiz-adv-x="0" 
d="M-205 -422q-114 0 -182 46t-68 138q0 91 74 169t260 145l33 -76q-213 -81 -213 -186q0 -84 123 -84q24 0 90 12v-148q-69 -16 -117 -16z" />
    <glyph glyph-name="uni0394" unicode="&#x394;" horiz-adv-x="1413" 
d="M852 1434l528 -1434h-1349l538 1434h283zM319 188h764l-270 768q-81 240 -108 308q-10 -26 -25 -67t-40 -111.5t-46 -129.5z" />
    <glyph glyph-name="uni03A9" unicode="&#x3a9;" horiz-adv-x="1654" 
d="M145 0v188h109h254q-175 66 -278 212.5t-103 361.5q0 147 53.5 277t146 223t222.5 146.5t278 53.5q147 0 276.5 -53.5t221 -146.5t144.5 -223t53 -277q0 -216 -100.5 -362.5t-274.5 -211.5h250h104v-188h-581v225q181 32 283 174.5t102 354.5q0 108 -33.5 203t-94 166
t-152 112t-200.5 41q-145 0 -256 -71t-168 -189t-57 -262q0 -211 101 -353.5t280 -175.5v-225h-580z" />
    <glyph glyph-name="uni03BC" unicode="&#x3bc;" horiz-adv-x="1196" 
d="M168 -399v1415h192v-621q0 -256 209 -256q53 0 95.5 16.5t69.5 42t47 64.5t30.5 74.5t16.5 83.5t7 80t1 73v443h192v-1016h-190v174q-8 -20 -22.5 -42.5t-42.5 -52.5t-62.5 -53t-86.5 -39t-110 -16q-98 0 -154 33v-403h-192z" />
    <glyph glyph-name="pi" unicode="&#x3c0;" horiz-adv-x="1304" 
d="M254 0v850h-213v166h1159v-166h-213v-586q0 -53 24 -75.5t81 -22.5h129v-166h-160q-133 0 -200.5 53t-67.5 168v629h-347v-850h-192z" />
    <glyph glyph-name="Wgrave" unicode="&#x1e80;" horiz-adv-x="2031" 
d="M958 1577l-247 291h274l113 -291h-140zM418 0l-344 1434h217l182 -807q64 -293 88 -389q6 24 15.5 57.5t34 121t51.5 183.5l235 834h250l242 -912q53 -199 77 -284q73 297 97 397l192 799h213l-371 -1434h-262l-231 864q-21 81 -42 157.5t-29 106.5t-13 52
q-4 -12 -29.5 -104.5t-58.5 -209.5l-248 -866h-266z" />
    <glyph glyph-name="wgrave" unicode="&#x1e81;" horiz-adv-x="1703" 
d="M788 1161l-225 289h248l102 -289h-125zM379 0l-332 1016h201l143 -473l103 -338q8 31 98 327l147 484h226l159 -529l84 -280q40 117 107 342l145 467h203l-342 -1016h-227l-150 489l-96 316q-9 -27 -19.5 -61.5t-33 -105.5t-45.5 -146l-154 -492h-217z" />
    <glyph glyph-name="Wacute" unicode="&#x1e82;" horiz-adv-x="2031" 
d="M952 1577l113 291h278l-251 -291h-140zM418 0l-344 1434h217l182 -807q64 -293 88 -389q6 24 15.5 57.5t34 121t51.5 183.5l235 834h250l242 -912q53 -199 77 -284q73 297 97 397l192 799h213l-371 -1434h-262l-231 864q-21 81 -42 157.5t-29 106.5t-13 52
q-4 -12 -29.5 -104.5t-58.5 -209.5l-248 -866h-266z" />
    <glyph glyph-name="wacute" unicode="&#x1e83;" horiz-adv-x="1703" 
d="M788 1161l103 289h254l-230 -289h-127zM379 0l-332 1016h201l143 -473l103 -338q8 31 98 327l147 484h226l159 -529l84 -280q40 117 107 342l145 467h203l-342 -1016h-227l-150 489l-96 316q-9 -27 -19.5 -61.5t-33 -105.5t-45.5 -146l-154 -492h-217z" />
    <glyph glyph-name="Wdieresis" unicode="&#x1e84;" horiz-adv-x="2031" 
d="M686 1577v211h227v-211h-227zM1128 1577v211h228v-211h-228zM418 0l-344 1434h217l182 -807q64 -293 88 -389q6 24 15.5 57.5t34 121t51.5 183.5l235 834h250l242 -912q53 -199 77 -284q73 297 97 397l192 799h213l-371 -1434h-262l-231 864q-21 81 -42 157.5t-29 106.5
t-13 52q-4 -12 -29.5 -104.5t-58.5 -209.5l-248 -866h-266z" />
    <glyph glyph-name="wdieresis" unicode="&#x1e85;" horiz-adv-x="1703" 
d="M547 1202v211h207v-211h-207zM948 1202v211h207v-211h-207zM379 0l-332 1016h201l143 -473l103 -338q8 31 98 327l147 484h226l159 -529l84 -280q40 117 107 342l145 467h203l-342 -1016h-227l-150 489l-96 316q-9 -27 -19.5 -61.5t-33 -105.5t-45.5 -146l-154 -492h-217
z" />
    <glyph glyph-name="uni1E9E" unicode="&#x1e9e;" horiz-adv-x="1460" 
d="M862 -29q-194 0 -319 64v194q77 -40 138 -56.5t169 -16.5q126 0 209.5 68t83.5 184q0 105 -78 173t-223 68h-224v187h191q118 0 188 57.5t70 157.5q0 96 -69.5 145t-188.5 49h-399v-1245h-205v1434h626q222 0 335.5 -96t113.5 -259q0 -127 -78 -215t-182 -110
q140 -24 239 -120.5t99 -246.5q0 -177 -136 -296.5t-360 -119.5z" />
    <glyph glyph-name="uni1EA0" unicode="&#x1ea0;" horiz-adv-x="1415" 
d="M1380 0h-229l-133 379h-631l-135 -379h-221l538 1434h283zM455 567h495l-137 389q-81 240 -108 308q-10 -26 -25 -67t-40 -111.5t-46 -129.5zM600 -399v229h205v-229h-205z" />
    <glyph glyph-name="uni1EA1" unicode="&#x1ea1;" horiz-adv-x="1112" 
d="M430 -29q-150 0 -239 78.5t-89 212.5q0 350 639 402v30q0 189 -213 189q-63 0 -111 -16.5t-77.5 -46.5t-45.5 -57.5t-28 -62.5l-184 60q28 116 143.5 200t302.5 84q201 0 303.5 -94t102.5 -262v-465q0 -35 12 -47t47 -12h105v-164h-148q-53 0 -89 11.5t-56 34t-29 47.5
t-14 61q-58 -89 -137 -136t-195 -47zM481 129q50 0 95.5 17.5t83 51.5t59.5 91.5t22 130.5v104q-76 -8 -137.5 -19.5t-119.5 -31t-97 -45.5t-62.5 -64t-23.5 -85q0 -71 45.5 -110.5t134.5 -39.5zM434 -399v229h205v-229h-205z" />
    <glyph glyph-name="uni1EB8" unicode="&#x1eb8;" horiz-adv-x="1318" 
d="M205 0v1434h1014v-189h-809v-409h598v-187h-598v-461h809v-188h-1014zM608 -399v229h205v-229h-205z" />
    <glyph glyph-name="uni1EB9" unicode="&#x1eb9;" horiz-adv-x="1101" 
d="M561 -29q-216 0 -342.5 140t-126.5 393q0 245 129.5 392.5t331.5 147.5q149 0 257.5 -77t157.5 -210t31 -298h-714q6 -170 85.5 -248t196.5 -78q185 0 264 195l177 -64q-55 -144 -170.5 -218.5t-276.5 -74.5zM289 612h516q-1 131 -73.5 205t-178.5 74q-102 0 -177 -75.5
t-87 -203.5zM463 -399v229h205v-229h-205z" />
    <glyph glyph-name="uni1ECA" unicode="&#x1eca;" horiz-adv-x="614" 
d="M205 0v1434h205v-1434h-205zM205 -399v229h205v-229h-205z" />
    <glyph glyph-name="uni1ECB" unicode="&#x1ecb;" horiz-adv-x="526" 
d="M160 1204v230h205v-230h-205zM168 0v1016h190v-1016h-190zM160 -399v229h205v-229h-205z" />
    <glyph glyph-name="uni1ECC" unicode="&#x1ecc;" horiz-adv-x="1642" 
d="M823 -29q-154 0 -287 54.5t-229 151t-150.5 236.5t-54.5 304t55 303.5t151 236t229 151t286 54.5t285.5 -54.5t227 -151t148.5 -236t54 -303.5q0 -165 -54 -304.5t-148.5 -236t-227 -151t-285.5 -54.5zM821 158q153 0 267.5 73.5t173.5 199.5t59 286t-59 286
t-173.5 199.5t-267.5 73.5t-267.5 -73.5t-173 -199.5t-58.5 -286t58.5 -286t173 -199.5t267.5 -73.5zM723 -399v229h205v-229h-205z" />
    <glyph glyph-name="uni1ECD" unicode="&#x1ecd;" horiz-adv-x="1140" 
d="M571 -29q-206 0 -344.5 153.5t-138.5 381.5q0 232 136.5 385t346.5 153t346 -152.5t136 -385.5q0 -231 -138.5 -383t-343.5 -152zM571 137q129 0 205 93.5t76 273.5q0 182 -76 278.5t-205 96.5q-130 0 -206 -96t-76 -279q0 -181 76 -274t206 -93zM469 -399v229h205v-229
h-205z" />
    <glyph glyph-name="uni1EE4" unicode="&#x1ee4;" horiz-adv-x="1486" 
d="M743 -29q-264 0 -411.5 146.5t-147.5 435.5v881h205v-850q0 -201 88 -311.5t266 -110.5q179 0 267 111.5t88 310.5v850h205v-881q0 -279 -144.5 -430.5t-415.5 -151.5zM647 -399v229h205v-229h-205z" />
    <glyph glyph-name="uni1EE5" unicode="&#x1ee5;" horiz-adv-x="1181" 
d="M487 -29q-167 0 -250 101.5t-83 277.5v666h192v-621q0 -256 209 -256q53 0 95 16.5t69 41.5t47 64t30.5 74.5t16 83t7 80t1.5 74.5v443h193v-1016h-189v174q-17 -30 -39 -58t-62.5 -64.5t-102 -58.5t-134.5 -22zM481 -399v229h203v-229h-203z" />
    <glyph glyph-name="Ygrave" unicode="&#x1ef2;" horiz-adv-x="1325" 
d="M602 1577l-248 291h273l112 -291h-137zM563 0v600l-520 834h246l258 -428q115 -194 121 -205q12 20 54.5 94t63.5 111l242 428h244l-504 -826v-608h-205z" />
    <glyph glyph-name="ygrave" unicode="&#x1ef3;" horiz-adv-x="1042" 
d="M569 1161h-125l-225 289h248zM791 1016h202l-399 -1159q-50 -145 -118.5 -200.5t-201.5 -55.5h-211v172h205q56 0 87.5 19t52.5 75l51 145l-449 1004h215l209 -506q85 -197 105 -252q47 142 77 231z" />
    <glyph glyph-name="uni2002" unicode="&#x2002;" horiz-adv-x="1024" 
 />
    <glyph glyph-name="uni2003" unicode="&#x2003;" horiz-adv-x="2048" 
 />
    <glyph glyph-name="uni2009" unicode="&#x2009;" horiz-adv-x="256" 
 />
    <glyph glyph-name="endash" unicode="&#x2013;" horiz-adv-x="1282" 
d="M147 547v174h988v-174h-988z" />
    <glyph glyph-name="emdash" unicode="&#x2014;" horiz-adv-x="1925" 
d="M147 547v174h1633v-174h-1633z" />
    <glyph glyph-name="quoteleft" unicode="&#x2018;" horiz-adv-x="518" 
d="M395 1434l-153 -273h133v-252h-248v252l152 273h116z" />
    <glyph glyph-name="quoteright" unicode="&#x2019;" horiz-adv-x="501" 
d="M131 909l152 273h-131v254h247v-254l-151 -273h-117z" />
    <glyph glyph-name="quotesinglbase" unicode="&#x201a;" horiz-adv-x="536" 
d="M127 -272l152 272h-132v254h248v-254l-151 -272h-117z" />
    <glyph glyph-name="quotedblleft" unicode="&#x201c;" horiz-adv-x="894" 
d="M395 1434l-153 -273h133v-252h-248v252l152 273h116zM772 1434l-154 -273h134v-252h-248v252l151 273h117z" />
    <glyph glyph-name="quotedblright" unicode="&#x201d;" horiz-adv-x="878" 
d="M131 909l152 273h-131v254h247v-254l-151 -273h-117zM508 909l151 273h-131v254h248v-254l-151 -273h-117z" />
    <glyph glyph-name="quotedblbase" unicode="&#x201e;" horiz-adv-x="913" 
d="M127 -272l152 272h-132v254h248v-254l-151 -272h-117zM504 -272l151 272h-131v254h248v-254l-151 -272h-117z" />
    <glyph glyph-name="dagger" unicode="&#x2020;" horiz-adv-x="1153" 
d="M473 -213v1042h-410v189h410v416h205v-416h412v-189h-412v-1042h-205z" />
    <glyph glyph-name="daggerdbl" unicode="&#x2021;" horiz-adv-x="1234" 
d="M516 -213v416h-412v188h412v438h-412v189h412v416h205v-416h409v-189h-409v-438h409v-188h-409v-416h-205z" />
    <glyph glyph-name="bullet" unicode="&#x2022;" horiz-adv-x="1075" 
d="M537 330q-159 0 -273 114t-114 271q0 162 113.5 276.5t273.5 114.5t274.5 -114.5t114.5 -276.5q0 -157 -115 -271t-274 -114z" />
    <glyph glyph-name="ellipsis" unicode="&#x2026;" horiz-adv-x="1499" 
d="M137 0v266h262v-266h-262zM618 0v266h261v-266h-261zM1100 0v266h260v-266h-260z" />
    <glyph glyph-name="perthousand" unicode="&#x2030;" horiz-adv-x="2306" 
d="M752 1028q0 -199 -90 -313.5t-248 -114.5q-159 0 -249.5 114.5t-90.5 313.5q0 192 93 307t247 115q155 0 246.5 -115t91.5 -307zM1315 1434h196l-1019 -1434h-199zM248 1028q0 -135 44 -210t122 -75q77 0 120.5 74.5t43.5 210.5q0 127 -45.5 204t-118.5 77
q-74 0 -120 -77t-46 -204zM1905 840q154 0 246 -115t92 -307q0 -199 -90 -313.5t-248 -114.5q-165 0 -256 123q-88 -123 -252 -123q-159 0 -249.5 114.5t-90.5 313.5q0 192 92.5 307t247.5 115q163 0 252 -125q92 125 256 125zM1397 133q76 0 119 75t43 210q0 127 -45 203.5
t-117 76.5q-75 0 -120.5 -76.5t-45.5 -203.5q0 -135 44 -210t122 -75zM1905 133q76 0 119.5 75t43.5 210q0 127 -45 203.5t-118 76.5q-75 0 -120.5 -76.5t-45.5 -203.5q0 -135 44 -210t122 -75z" />
    <glyph glyph-name="guilsinglleft" unicode="&#x2039;" horiz-adv-x="659" 
d="M295 526l276 -452h-213l-272 444l274 445h205z" />
    <glyph glyph-name="guilsinglright" unicode="&#x203a;" horiz-adv-x="659" 
d="M301 963l274 -445l-274 -444h-207l271 438l-277 451h213z" />
    <glyph glyph-name="fraction" unicode="&#x2044;" horiz-adv-x="374" 
d="M-424 0l1022 1434h197l-1020 -1434h-199z" />
    <glyph glyph-name="uni2070" unicode="&#x2070;" horiz-adv-x="860" 
d="M432 786q-160 0 -250 114.5t-90 313.5q0 192 92.5 307t247.5 115q154 0 245 -115t91 -307q0 -198 -90 -313t-246 -115zM432 930q76 0 119 74.5t43 209.5q0 127 -45 204t-117 77q-75 0 -121.5 -77t-46.5 -204q0 -134 45 -209t123 -75z" />
    <glyph glyph-name="uni2074" unicode="&#x2074;" horiz-adv-x="776" 
d="M436 803v211h-375v123l328 483h203v-471h113v-135h-113v-211h-156zM436 1149v88v205l-198 -293h139h59z" />
    <glyph glyph-name="uni2075" unicode="&#x2075;" horiz-adv-x="786" 
d="M395 786q-129 0 -214.5 63t-98.5 169l164 43q10 -64 48 -98.5t97 -34.5q60 0 95.5 38.5t35.5 100.5t-35.5 97.5t-93.5 35.5q-83 0 -121 -86l-174 27l72 479h504v-143h-369l-12 -91q-6 -47 -14 -116q56 65 161 65q113 0 184.5 -73.5t71.5 -194.5q0 -126 -83 -203.5
t-218 -77.5z" />
    <glyph glyph-name="uni2076" unicode="&#x2076;" horiz-adv-x="796" 
d="M414 786q-151 0 -237.5 106.5t-86.5 291.5q0 210 108.5 331t297.5 121q52 0 101 -11t71 -23v-154q-86 41 -172 41q-96 0 -158.5 -58t-75.5 -174q30 46 80 68.5t102 22.5q120 0 194.5 -75.5t74.5 -193.5q0 -129 -83 -211t-216 -82zM414 928q56 0 91.5 39t35.5 102
t-35.5 103t-91.5 40q-57 0 -93 -40t-36 -103q0 -64 36 -102.5t93 -38.5z" />
    <glyph glyph-name="uni2077" unicode="&#x2077;" horiz-adv-x="706" 
d="M178 803q0 424 287 674h-109h-293v143h586v-150q-88 -71 -146.5 -146.5t-89 -159.5t-42.5 -168.5t-11 -192.5h-182z" />
    <glyph glyph-name="uni2078" unicode="&#x2078;" horiz-adv-x="786" 
d="M393 786q-138 0 -219.5 65t-81.5 177q0 67 39.5 120t110.5 79q-129 58 -129 182q0 101 77.5 164t202.5 63q124 0 201.5 -63t77.5 -164q0 -60 -33 -108t-94 -74q71 -26 109 -78.5t38 -120.5q0 -112 -81 -177t-218 -65zM393 1272q48 0 79.5 37t31.5 86q0 46 -30.5 74
t-80.5 28q-51 0 -80.5 -28t-29.5 -74q0 -50 30.5 -86.5t79.5 -36.5zM393 928q60 0 93.5 30t33.5 84t-34.5 86.5t-92.5 32.5q-59 0 -93 -32t-34 -87q0 -54 33.5 -84t93.5 -30z" />
    <glyph glyph-name="uni2079" unicode="&#x2079;" horiz-adv-x="788" 
d="M307 786q-98 0 -180 35v162q90 -43 174 -43q95 0 154 51q72 61 75 185q-62 -91 -178 -91q-117 0 -192.5 74t-75.5 187q0 129 81.5 209.5t209.5 80.5q134 0 217 -86q106 -106 106 -311q0 -214 -103.5 -333.5t-287.5 -119.5zM379 1225q56 0 90.5 37t34.5 98t-34.5 99
t-90.5 38q-53 0 -87 -38.5t-34 -98.5q0 -61 34 -98t87 -37z" />
    <glyph glyph-name="uni20A9" unicode="&#x20a9;" horiz-adv-x="2224" 
d="M2148 799h-252l-38 -150h227v-147h-266l-129 -502h-263l-133 502h-379l-139 -502h-268l-119 502h-248v147h211l-35 150h-241v147h207l-117 488h217l109 -488h360l137 488h248l129 -488h365l114 488h215l-127 -488h215v-147zM1178 946l-68 248q-64 -234 -68 -248h136z
M526 799l33 -150h209l43 150h-285zM956 649h299l-38 150h-218zM1659 649l35 150h-289l41 -150h213zM651 225q8 30 34.5 126.5t41.5 150.5h-137q29 -135 61 -277zM1556 225l68 277h-139q16 -55 40.5 -155t30.5 -122z" />
    <glyph glyph-name="Euro" unicode="&#x20ac;" horiz-adv-x="1456" 
d="M831 -29q-227 0 -371 134.5t-186 373.5h-188v160h166q-6 89 0 164h-166v160h188q53 237 200.5 368t367.5 131q108 0 199.5 -32t155 -87t105 -124t60.5 -148l-201 -70q-10 41 -24.5 78t-42 75.5t-62.5 66t-87.5 45.5t-115.5 18q-120 0 -209 -81.5t-128 -239.5h272h162
v-160h-457q-6 -89 0 -164h457v-160h-160h-279q35 -163 124 -246t218 -83q79 0 138 23.5t97 68t61 92.5t42 115l201 -76q-48 -177 -188.5 -289.5t-348.5 -112.5z" />
    <glyph glyph-name="uni20B9" unicode="&#x20b9;" horiz-adv-x="1169" 
d="M1081 1270h-114h-232q37 -12 74.5 -45t62.5 -84h209v-162h-180q-3 -56 -21 -105t-54.5 -93.5t-100 -77t-150.5 -46.5q146 -17 212.5 -84t103.5 -213l88 -360h-223l-78 342q-31 136 -107 193t-229 57h-225v184h307q112 0 186.5 52.5t87.5 150.5h-581v162h563
q-62 129 -256 129h-307v164h964v-164z" />
    <glyph glyph-name="uni20BA" unicode="&#x20ba;" horiz-adv-x="1259" 
d="M311 0v311v193q-58 -31 -129 -72l-57 -33v183l186 106v141l-186 -104v182l186 109v420h205v-152v-158q36 23 178 105l273 155v-184l-451 -258v-141l451 260v-186l-451 -259v-423l31 2q48 3 96.5 16.5t102 45t98 78t83.5 121.5t60 169l207 -78q-149 -549 -784 -549h-99z
" />
    <glyph glyph-name="uni20BD" unicode="&#x20bd;" horiz-adv-x="1294" 
d="M733 567h-272v-137h393v-164h-393v-266h-203v266h-154v164h154v137h-154v176h154v691h477q222 0 349.5 -120t127.5 -317q0 -193 -128 -311.5t-351 -118.5zM461 1245v-502h237q145 0 222 70t77 184q0 115 -75 181.5t-224 66.5h-237z" />
    <glyph glyph-name="uni20BF" unicode="&#x20bf;" horiz-adv-x="1380" 
d="M1286 395q0 -173 -108 -272t-283 -119v-219h-156v215h-123v-215h-155v215h-256v1434h256v213h155v-213h123v213h156v-220q170 -23 257 -115t87 -231q0 -136 -78.5 -222.5t-189.5 -110.5q61 -11 115.5 -38.5t100 -70.5t72.5 -106t27 -138zM410 1245v-409h358
q119 0 188.5 57.5t69.5 155.5q0 97 -68 146.5t-190 49.5h-358zM784 188q131 0 207 63t76 171t-75 168.5t-208 60.5h-374v-463h374z" />
    <glyph glyph-name="uni2113" unicode="&#x2113;" horiz-adv-x="966" 
d="M532 -29q-139 0 -228 80t-89 236v127q-82 -10 -147 -13v166q69 3 147 13v561q0 134 84 227.5t233 93.5q180 0 275.5 -108.5t95.5 -288.5q0 -70 -15.5 -139t-52 -140.5t-91 -132t-139 -113t-189.5 -85.5v-172q0 -66 32 -101t84 -35q123 0 162 193l174 -92
q-30 -135 -120 -206t-216 -71zM416 635q276 122 276 428q0 105 -42 165t-118 60q-116 0 -116 -164v-182v-307z" />
    <glyph glyph-name="uni2116" unicode="&#x2116;" horiz-adv-x="2457" 
d="M1993 592q-168 0 -283 123t-115 307q0 187 114.5 309.5t283.5 122.5q168 0 282.5 -122.5t114.5 -309.5q0 -183 -115 -306.5t-282 -123.5zM213 0v1434h274l768 -1086v326v760h205v-1434h-203l-839 1190v-375v-815h-205zM1993 737q96 0 152.5 75.5t56.5 209.5
q0 137 -56 212t-153 75q-98 0 -153.5 -74.5t-55.5 -212.5q0 -134 56 -209.5t153 -75.5z" />
    <glyph glyph-name="uni2117" unicode="&#x2117;" horiz-adv-x="1792" 
d="M897 -53q-165 0 -313.5 62t-255 168t-168.5 251.5t-62 306.5t62 307.5t168.5 253t255 169.5t313.5 63q164 0 312.5 -63t255 -169.5t169 -253t62.5 -307.5q0 -215 -106 -396t-290 -286.5t-403 -105.5zM897 88q181 0 329.5 87.5t232 236t83.5 323.5q0 176 -83.5 325
t-232 236.5t-329.5 87.5t-330 -87.5t-233 -236.5t-84 -325q0 -175 84 -323.5t233 -236t330 -87.5zM645 336v825h342q51 0 101 -15t93.5 -45t70 -81.5t26.5 -116.5t-26.5 -116.5t-69.5 -81.5t-93.5 -46t-103.5 -16h-197v-307h-143zM788 764h158q182 0 182 139q0 68 -45 99.5
t-137 31.5h-158v-270z" />
    <glyph glyph-name="trademark" unicode="&#x2122;" horiz-adv-x="1886" 
d="M319 662v632h-249v140h661v-140h-254v-632h-158zM829 662v772h254l121 -361l76 -229q28 86 72 229l118 361h246v-772h-155v278v350l-207 -628h-152l-215 624v-346v-278h-158z" />
    <glyph glyph-name="uni2126" unicode="&#x2126;" horiz-adv-x="1632" 
d="M135 0v188h107h256q-176 66 -278.5 212.5t-102.5 361.5q0 147 53.5 277t145.5 223t222 146.5t277 53.5q197 0 357 -91.5t249.5 -251.5t89.5 -357q0 -216 -101 -362t-275 -212h251h107v-188h-584v225q181 32 283 174.5t102 354.5q0 145 -56.5 262.5t-167 188.5t-255.5 71
t-256 -71t-168 -189t-57 -262q0 -211 100.5 -353.5t280.5 -175.5v-225h-580z" />
    <glyph glyph-name="uni2153" unicode="&#x2153;" horiz-adv-x="1703" 
d="M281 616v381v226q-41 -57 -96.5 -86t-112.5 -29v149q164 31 237 177h137v-818h-165zM164 0l1022 1434h196l-1020 -1434h-198zM1329 -16q-135 0 -219 73.5t-88 196.5l170 31q3 -75 38 -118.5t97 -43.5q54 0 86.5 30t32.5 80q0 54 -34.5 83.5t-102.5 29.5h-62v135h62
q60 0 92.5 30t32.5 77t-29.5 75.5t-75.5 28.5q-54 0 -86.5 -37.5t-32.5 -103.5l-170 29q3 112 83.5 183t205.5 71q121 0 198 -63t77 -163q0 -61 -34 -110t-100 -76q150 -56 150 -201q0 -104 -82.5 -170.5t-208.5 -66.5z" />
    <glyph glyph-name="uni2154" unicode="&#x2154;" horiz-adv-x="1886" 
d="M102 616v154q73 44 124 77.5t106 77t88 81t54.5 82t21.5 88.5q0 62 -30.5 97.5t-82.5 35.5q-59 0 -91 -47.5t-28 -126.5l-170 22q-5 129 76.5 211t214.5 82q128 0 207.5 -72.5t79.5 -189.5q0 -118 -94 -230q-77 -93 -267 -196h269h98v-146h-576zM348 0l1022 1434h199
l-1022 -1434h-199zM1516 -16q-135 0 -219.5 73.5t-88.5 196.5l170 31q3 -75 37.5 -118.5t97.5 -43.5q53 0 86 30.5t33 79.5q0 53 -35.5 83t-103.5 30h-59v135h59q61 0 94 29.5t33 77.5q0 47 -29 75.5t-75 28.5q-56 0 -87.5 -37.5t-31.5 -103.5l-170 29q1 112 82.5 183
t206.5 71q121 0 197.5 -63t76.5 -163q0 -62 -34 -110.5t-101 -75.5q149 -54 149 -201q0 -104 -81 -170.5t-207 -66.5z" />
    <glyph glyph-name="uni2155" unicode="&#x2155;" horiz-adv-x="1724" 
d="M281 616v381v226q-41 -57 -96.5 -86t-112.5 -29v149q164 31 237 177h137v-818h-165zM164 0l1022 1434h196l-1020 -1434h-198zM1329 -16q-129 0 -214 62.5t-99 166.5l164 45q10 -64 48 -99.5t95 -35.5q61 0 97 38.5t36 102.5q0 62 -35.5 96.5t-93.5 34.5q-86 0 -123 -84
l-172 27l72 479h502v-145h-367l-14 -88q-13 -104 -15 -119q58 67 162 67q113 0 185.5 -74.5t72.5 -195.5q0 -125 -83 -201.5t-218 -76.5z" />
    <glyph glyph-name="uni2156" unicode="&#x2156;" horiz-adv-x="1904" 
d="M100 616v154q73 44 124.5 77.5t106.5 76.5t88.5 81t55 82.5t21.5 88.5q0 61 -31 97t-82 36q-59 0 -92 -47.5t-27 -126.5l-170 22q-5 129 76 211t213 82q129 0 209 -72.5t80 -189.5q0 -115 -97 -230q-72 -90 -264 -196h269h98v-146h-578zM348 0l1022 1434h197l-1020 -1434
h-199zM1513 -16q-129 0 -214 62.5t-99 166.5l166 45q10 -64 48 -99.5t95 -35.5q61 0 96 38.5t35 102.5q0 62 -35.5 96.5t-93.5 34.5q-83 0 -120 -84l-172 27l71 479h502v-145h-369l-12 -88q-8 -62 -14 -119q58 67 162 67q113 0 184.5 -74.5t71.5 -195.5q0 -124 -83.5 -201
t-218.5 -77z" />
    <glyph glyph-name="uni2157" unicode="&#x2157;" horiz-adv-x="1898" 
d="M381 600q-135 0 -218.5 74t-88.5 196l170 33q3 -75 38 -118.5t97 -43.5q53 0 86 30t33 81q0 53 -35.5 82t-104.5 29h-59v137h59q61 0 94 28.5t33 77.5q0 46 -29 75.5t-75 29.5q-54 0 -86.5 -38.5t-32.5 -105.5l-170 29q1 113 82.5 183.5t206.5 70.5q121 0 197.5 -62.5
t76.5 -162.5q0 -129 -133 -187q150 -56 150 -198q0 -105 -82 -172.5t-209 -67.5zM340 0l1022 1434h197l-1020 -1434h-199zM1505 -16q-129 0 -214 62.5t-99 166.5l164 45q10 -64 48 -99.5t97 -35.5q60 0 95.5 39t35.5 102q0 62 -35.5 96.5t-93.5 34.5q-84 0 -121 -84l-174 27
l72 479h504v-145h-369l-14 -88q-1 -13 -12 -119q55 67 161 67q113 0 184.5 -74.5t71.5 -195.5q0 -125 -83 -201.5t-218 -76.5z" />
    <glyph glyph-name="uni2158" unicode="&#x2158;" horiz-adv-x="1910" 
d="M440 616v211h-374v123l327 484h203v-471h113v-136h-113v-211h-156zM342 0l1022 1434h197l-1020 -1434h-199zM440 963v88v204l-198 -292h139h59zM1507 -16q-129 0 -214 62.5t-99 166.5l166 45q11 -65 48 -100t95 -35q61 0 96 38.5t35 102.5q0 62 -35.5 96.5t-93.5 34.5
q-84 0 -121 -84l-172 27l72 479h502v-145h-369l-12 -88q-8 -62 -14 -119q58 67 161 67q113 0 184.5 -74.5t71.5 -195.5q0 -125 -83 -201.5t-218 -76.5z" />
    <glyph glyph-name="uni2159" unicode="&#x2159;" horiz-adv-x="1708" 
d="M281 616v381v226q-41 -57 -96.5 -86t-112.5 -29v149q164 31 237 177h137v-818h-165zM164 0l1022 1434h196l-1020 -1434h-198zM1358 -16q-151 0 -237.5 105.5t-86.5 291.5q0 208 109 330.5t297 122.5q52 0 101 -11.5t71 -23.5v-156q-86 41 -172 41q-97 0 -159 -57
t-75 -174q57 90 183 90q121 0 194.5 -74.5t73.5 -192.5q0 -130 -82.5 -211t-216.5 -81zM1358 123q55 0 91 39.5t36 101.5q0 64 -35.5 104t-91.5 40q-57 0 -93 -40t-36 -104q0 -63 36 -102t93 -39z" />
    <glyph glyph-name="uni215A" unicode="&#x215a;" horiz-adv-x="1925" 
d="M385 600q-129 0 -214.5 62.5t-98.5 168.5l166 43q10 -64 47 -98.5t96 -34.5q61 0 96 38.5t35 101.5q0 62 -35.5 97.5t-93.5 35.5q-83 0 -121 -86l-172 26l72 480h502v-144h-369l-12 -90q-11 -78 -15 -117q57 66 162 66q113 0 184.5 -73.5t71.5 -194.5q0 -126 -83 -203.5
t-218 -77.5zM350 0l1022 1434h197l-1020 -1434h-199zM1544 -16q-151 0 -236 105.5t-85 291.5q0 208 108 330.5t295 122.5q52 0 101 -11.5t71 -23.5v-156q-83 41 -170 41q-98 0 -159.5 -57t-73.5 -174q57 90 180 90q121 0 195.5 -74.5t74.5 -192.5q0 -130 -83.5 -211
t-217.5 -81zM1544 123q57 0 92 39.5t35 101.5q0 65 -35 104.5t-92 39.5t-93 -40t-36 -104q0 -63 36 -102t93 -39z" />
    <glyph glyph-name="oneeighth" unicode="&#x215b;" horiz-adv-x="1716" 
d="M281 616v381v226q-41 -57 -96.5 -86t-112.5 -29v149q164 31 237 177h137v-818h-165zM164 0l1022 1434h196l-1020 -1434h-198zM1333 -16q-137 0 -218 64.5t-81 174.5q0 67 39.5 120t108.5 81q-127 59 -127 182q0 100 77 164t201 64t202.5 -64t78.5 -164
q0 -61 -33.5 -108.5t-93.5 -73.5q70 -28 108.5 -80.5t38.5 -120.5q0 -110 -81.5 -174.5t-219.5 -64.5zM1335 469q48 0 78.5 36t30.5 87q0 46 -30 74t-79 28q-51 0 -80.5 -28t-29.5 -74q0 -51 30.5 -87t79.5 -36zM1333 123q61 0 94 30.5t33 86.5q0 54 -33.5 86t-93.5 32
q-58 0 -92.5 -32t-34.5 -86q0 -55 33.5 -86t93.5 -31z" />
    <glyph glyph-name="threeeighths" unicode="&#x215c;" horiz-adv-x="1890" 
d="M381 600q-135 0 -218.5 74t-88.5 196l170 33q3 -75 38 -118.5t97 -43.5q53 0 86 30t33 81q0 53 -35.5 82t-104.5 29h-59v137h59q61 0 94 28.5t33 77.5q0 46 -29 75.5t-75 29.5q-54 0 -86.5 -38.5t-32.5 -105.5l-170 29q1 113 82.5 183.5t206.5 70.5q121 0 197.5 -62.5
t76.5 -162.5q0 -129 -133 -187q150 -56 150 -198q0 -105 -82 -172.5t-209 -67.5zM340 0l1022 1434h197l-1020 -1434h-199zM1511 -16q-138 0 -219.5 64.5t-81.5 174.5q0 67 39.5 120t110.5 81q-129 58 -129 182q0 100 77.5 164t202.5 64q124 0 201.5 -64t77.5 -164
q0 -62 -33 -109t-94 -73q71 -27 109 -80t38 -121q0 -110 -81 -174.5t-218 -64.5zM1511 469q48 0 78.5 36t30.5 87q0 46 -30 74t-79 28q-51 0 -80.5 -28t-29.5 -74q0 -51 30.5 -87t79.5 -36zM1511 123q60 0 93.5 31t33.5 86q0 54 -34.5 86t-92.5 32q-60 0 -93.5 -32
t-33.5 -86q0 -56 33 -86.5t94 -30.5z" />
    <glyph glyph-name="fiveeighths" unicode="&#x215d;" horiz-adv-x="1902" 
d="M385 600q-129 0 -214.5 62.5t-98.5 168.5l166 43q10 -64 47 -98.5t96 -34.5q61 0 96 38.5t35 101.5q0 62 -35.5 97.5t-93.5 35.5q-83 0 -121 -86l-172 26l72 480h502v-144h-369l-12 -90q-11 -78 -15 -117q57 66 162 66q113 0 184.5 -73.5t71.5 -194.5q0 -126 -83 -203.5
t-218 -77.5zM350 0l1022 1434h197l-1020 -1434h-199zM1522 -16q-138 0 -219.5 64.5t-81.5 174.5q0 67 39 120t110 81q-129 58 -129 182q0 100 78 164t203 64q124 0 201 -64t77 -164q0 -62 -33 -109t-94 -73q71 -28 109.5 -80.5t38.5 -120.5q0 -110 -81 -174.5t-218 -64.5z
M1522 469q48 0 78 36t30 87q0 46 -29.5 74t-78.5 28q-51 0 -81 -28t-30 -74q0 -51 30.5 -87t80.5 -36zM1522 123q60 0 93.5 31t33.5 86q0 54 -34.5 86t-92.5 32q-60 0 -93.5 -32t-33.5 -86q0 -56 33 -86.5t94 -30.5z" />
    <glyph glyph-name="seveneighths" unicode="&#x215e;" horiz-adv-x="1697" 
d="M188 616q0 424 287 674h-108h-293v144h585v-150q-169 -136 -229.5 -291.5t-58.5 -376.5h-183zM145 0l1022 1434h197l-1020 -1434h-199zM1317 -16q-138 0 -219.5 64.5t-81.5 174.5q0 67 39 120t110 81q-127 57 -127 182q0 100 77.5 164t201.5 64t202 -64t78 -164
q0 -61 -33.5 -108.5t-95.5 -73.5q71 -28 109.5 -80.5t38.5 -120.5q0 -110 -81 -174.5t-218 -64.5zM1317 469q49 0 79.5 36t30.5 87q0 46 -29.5 74t-80.5 28t-81 -28t-30 -74q0 -51 30.5 -87t80.5 -36zM1317 123q60 0 93.5 31t33.5 86q0 54 -34.5 86t-92.5 32t-92.5 -32
t-34.5 -86q0 -55 33.5 -86t93.5 -31z" />
    <glyph glyph-name="uni215F" unicode="&#x215f;" horiz-adv-x="757" 
d="M270 616v381v226q-41 -57 -96.5 -86t-112.5 -29v149q165 30 238 177h139v-818h-168zM154 0l1022 1434h196l-1020 -1434h-198z" />
    <glyph glyph-name="arrowleft" unicode="&#x2190;" horiz-adv-x="1712" 
d="M1620 618h-1192q83 -84 172 -169l211 -209l-139 -138l-615 615l615 614l139 -137l-211 -209l-172 -170h1192v-197z" />
    <glyph glyph-name="arrowup" unicode="&#x2191;" horiz-adv-x="1335" 
d="M569 0v1192q-57 -59 -170 -172l-209 -211l-137 139l615 615l614 -615l-137 -139l-207 211q-87 85 -172 172v-1192h-197z" />
    <glyph glyph-name="arrowright" unicode="&#x2192;" horiz-adv-x="1712" 
d="M92 815h1192q-59 57 -172 170l-211 209l139 137l615 -614l-615 -615l-139 138l211 206q19 19 53.5 54t63.5 64t55 54h-1192v197z" />
    <glyph glyph-name="arrowdown" unicode="&#x2193;" horiz-adv-x="1335" 
d="M766 1434v-1192q57 59 170 172l209 211l137 -140l-614 -614l-615 614l137 140l207 -211q87 -85 172 -172v1192h197z" />
    <glyph glyph-name="uni2196" unicode="&#x2196;" horiz-adv-x="1357" 
d="M1294 434l-137 -137l-805 807v-266v-273h-196v869h868v-195h-270h-267z" />
    <glyph glyph-name="uni2197" unicode="&#x2197;" horiz-adv-x="1355" 
d="M201 295l-138 137l807 807h-266h-272v195h868v-869h-194v271v266z" />
    <glyph glyph-name="uni2198" unicode="&#x2198;" horiz-adv-x="1343" 
d="M53 999l137 138l805 -807v266v272h197v-868h-868v195h270h266z" />
    <glyph glyph-name="uni2199" unicode="&#x2199;" horiz-adv-x="1343" 
d="M1151 1139l137 -138l-805 -806h265h274v-195h-868v868h194v-270v-266z" />
    <glyph glyph-name="uni21A4" unicode="&#x21a4;" horiz-adv-x="1847" 
d="M1434 1247h188v-1061h-188v432h-1004q72 -74 191 -188l192 -190l-141 -138l-613 615l613 614l141 -137l-195 -190l-188 -189h1004v432z" />
    <glyph glyph-name="uni21A5" unicode="&#x21a5;" horiz-adv-x="1359" 
d="M774 1192v-1004h432v-188h-1061v188h433v1004q-65 -65 -187 -191l-192 -192l-138 139l615 615l614 -615l-137 -139l-190 192z" />
    <glyph glyph-name="uni21A6" unicode="&#x21a6;" horiz-adv-x="1843" 
d="M1176 1331l612 -614l-612 -615l-142 138l195 190l188 188h-1003v-432h-189v1061h189v-432h1003q-96 99 -190 189l-193 190z" />
    <glyph glyph-name="uni21A7" unicode="&#x21a7;" horiz-adv-x="1359" 
d="M1161 625l137 -140l-614 -614l-614 614l137 140l192 -193q91 -94 187 -190v1003h-432v189h1060v-189h-432v-1003l189 190z" />
    <glyph glyph-name="uni21B0" unicode="&#x21b0;" horiz-adv-x="1761" 
d="M430 815h1192v-815h-203v618h-989l170 -169l213 -209l-141 -138l-613 615l613 614l141 -137l-211 -207z" />
    <glyph glyph-name="uni21B1" unicode="&#x21b1;" horiz-adv-x="1761" 
d="M1090 1331l612 -614l-612 -615l-142 138l211 206l172 172h-989v-618h-203v815h1192l-170 170l-213 209z" />
    <glyph glyph-name="uni21B2" unicode="&#x21b2;" horiz-adv-x="1761" 
d="M1419 1434h201v-816h-1190l170 -169l211 -209l-139 -138l-613 615l613 614l139 -137l-211 -207q-57 -59 -170 -172h989v619z" />
    <glyph glyph-name="uni21B3" unicode="&#x21b3;" horiz-adv-x="1761" 
d="M1090 1331l612 -614l-612 -615l-142 138l211 206l172 172h-1192v816h203v-619h989l-170 170l-213 209z" />
    <glyph glyph-name="partialdiff" unicode="&#x2202;" horiz-adv-x="1247" 
d="M594 -29q-158 0 -273.5 69t-172 181t-56.5 250q0 196 125.5 327.5t333.5 131.5q132 0 236.5 -68t148.5 -182q1 148 -37.5 262.5t-107.5 184.5t-160 105.5t-201 35.5q-138 0 -256 -47v202q119 39 272 39q167 0 300 -60.5t217.5 -168t129 -251t44.5 -314.5
q0 -331 -147 -514t-396 -183zM594 150q126 0 209.5 83t83.5 218q0 136 -84 220.5t-209 84.5q-123 0 -207 -84t-84 -219q0 -136 84 -219.5t207 -83.5z" />
    <glyph glyph-name="uni2206" unicode="&#x2206;" horiz-adv-x="1458" 
d="M874 1434l529 -1434h-1350l539 1434h282zM342 188h766l-270 768q-84 239 -111 308l-109 -308z" />
    <glyph glyph-name="product" unicode="&#x220f;" horiz-adv-x="1509" 
d="M1434 1434v-189h-189v-1458h-205v1458h-571v-1458h-205v1458h-188v189h1358z" />
    <glyph glyph-name="summation" unicode="&#x2211;" horiz-adv-x="1196" 
d="M82 -213v184l536 635l-528 625v203h1008v-189h-416h-338l535 -635l-539 -635h342h436v-188h-1036z" />
    <glyph glyph-name="minus" unicode="&#x2212;" horiz-adv-x="1386" 
d="M147 631v186h1094v-186h-1094z" />
    <glyph glyph-name="uni2215" unicode="&#x2215;" horiz-adv-x="714" 
d="M-14 -213l551 1862h190l-551 -1862h-190z" />
    <glyph glyph-name="radical" unicode="&#x221a;" horiz-adv-x="1286" 
d="M492 -213l-283 836h-178v186h323l174 -557q65 -212 93 -291q20 72 90 291l366 1182h217l-546 -1647h-256z" />
    <glyph glyph-name="infinity" unicode="&#x221e;" horiz-adv-x="1736" 
d="M487 338q-154 0 -267.5 112.5t-113.5 272.5t113.5 272.5t267.5 112.5q234 0 383 -219q149 219 381 219q154 0 265.5 -112.5t111.5 -272.5t-111.5 -272.5t-265.5 -112.5q-119 0 -213 52.5t-170 164.5q-75 -109 -174.5 -163t-206.5 -54zM504 510q71 0 128.5 46.5
t141.5 170.5q-73 111 -135.5 160t-134.5 49q-89 0 -149 -62.5t-60 -150.5t60 -150.5t149 -62.5zM1233 510q89 0 149 62.5t60 150.5t-60 150.5t-149 62.5q-72 0 -133.5 -48.5t-136.5 -160.5q84 -124 141.5 -170.5t128.5 -46.5z" />
    <glyph glyph-name="integral" unicode="&#x222b;" horiz-adv-x="751" 
d="M18 -399v180h154q47 0 74.5 31.5t27.5 87.5v1265q0 118 64 193.5t194 75.5h197v-179h-151q-47 0 -75 -31t-28 -87v-1268q0 -118 -64 -193t-196 -75h-197z" />
    <glyph glyph-name="approxequal" unicode="&#x2248;" horiz-adv-x="1337" 
d="M887 762q-81 0 -209 55l-66 31q-105 47 -172 47q-98 0 -194 -102l-109 143q65 76 151.5 118t162.5 42q82 0 208 -58l66 -28q109 -49 172 -49q98 0 195 104l110 -143q-66 -78 -152 -119t-163 -41zM887 311q-79 0 -209 56l-66 30q-105 47 -172 47q-98 0 -194 -102l-109 143
q65 76 151.5 118t162.5 42q84 0 208 -57l66 -29q109 -49 172 -49q98 0 195 104l110 -143q-66 -78 -152 -119t-163 -41z" />
    <glyph glyph-name="notequal" unicode="&#x2260;" horiz-adv-x="1388" 
d="M258 174l139 225h-252v187h363l67 110q35 55 93 152h-201h-322v186h635l146 236h202l-143 -236h256v-186h-369l-65 -111l-94 -151h198h330v-187h-641l-137 -225h-205z" />
    <glyph glyph-name="lessequal" unicode="&#x2264;" horiz-adv-x="1406" 
d="M1243 418l-1096 278v305l1096 281v-197l-616 -147q-269 -63 -371 -84q184 -44 371 -84l616 -147v-205zM147 174v186h1096v-186h-1096z" />
    <glyph glyph-name="greaterequal" unicode="&#x2265;" horiz-adv-x="1406" 
d="M164 418v196l616 148q259 62 371 84q-184 44 -371 84l-616 147v205l1096 -278v-306zM164 174v186h1096v-186h-1096z" />
    <glyph glyph-name="angleleft" unicode="&#x2329;" horiz-adv-x="700" 
d="M657 1487l-424 -866l422 -879l-159 -78l-457 950l459 953z" />
    <glyph glyph-name="angleright" unicode="&#x232a;" horiz-adv-x="692" 
d="M203 1569l456 -953l-458 -950l-160 80l424 864l-422 881z" />
    <glyph glyph-name="uni2460" unicode="&#x2460;" horiz-adv-x="1746" 
d="M872 -37q-162 0 -307.5 60.5t-249 163.5t-164.5 246t-61 302q0 158 61 301t164.5 247t249 165t307.5 61t307.5 -61t249.5 -165t165 -247t61 -301q0 -159 -61 -302t-165 -246t-249.5 -163.5t-307.5 -60.5zM872 106q178 0 322.5 84t225.5 228t81 317q0 174 -81 319
t-225.5 229.5t-322.5 84.5q-133 0 -250.5 -49.5t-200 -134.5t-130 -202t-47.5 -247t47.5 -246t130 -200t200 -133.5t250.5 -49.5zM823 330v381v223q-79 -111 -209 -115v152q165 27 238 176h137v-817h-166z" />
    <glyph glyph-name="uni2461" unicode="&#x2461;" horiz-adv-x="1746" 
d="M872 -37q-162 0 -307.5 60.5t-249 163.5t-164.5 246t-61 302q0 158 61 301t164.5 247t249 165t307.5 61t307.5 -61t249.5 -165t165 -247t61 -301q0 -159 -61 -302t-165 -246t-249.5 -163.5t-307.5 -60.5zM872 106q178 0 322.5 84t225.5 228t81 317q0 174 -81 319
t-225.5 229.5t-322.5 84.5q-133 0 -250.5 -49.5t-200 -134.5t-130 -202t-47.5 -247t47.5 -246t130 -200t200 -133.5t250.5 -49.5zM586 330v151q93 57 154.5 99.5t121.5 95t89.5 105.5t29.5 108q0 61 -31 96t-82 35q-59 0 -91.5 -47.5t-26.5 -126.5l-170 22q-5 131 75.5 213
t212.5 82q129 0 209 -72.5t80 -189.5t-96 -231q-80 -95 -264 -197h268h98v-143h-577z" />
    <glyph glyph-name="uni2462" unicode="&#x2462;" horiz-adv-x="1746" 
d="M872 -37q-162 0 -307.5 60.5t-249 163.5t-164.5 246t-61 302q0 158 61 301t164.5 247t249 165t307.5 61t307.5 -61t249.5 -165t165 -247t61 -301q0 -159 -61 -302t-165 -246t-249.5 -163.5t-307.5 -60.5zM872 106q178 0 322.5 84t225.5 228t81 317q0 174 -81 319
t-225.5 229.5t-322.5 84.5q-133 0 -250.5 -49.5t-200 -134.5t-130 -202t-47.5 -247t47.5 -246t130 -200t200 -133.5t250.5 -49.5zM870 313q-136 0 -219 74t-88 197l170 30q3 -75 37.5 -118t97.5 -43q53 0 86 30t33 80q0 53 -35.5 83t-103.5 30h-60v135h60q61 0 94 29.5
t33 77.5q0 46 -29.5 75t-75.5 29q-55 0 -86.5 -37.5t-31.5 -103.5l-170 28q1 112 82 183t206 71q122 0 198.5 -62.5t76.5 -162.5q0 -62 -34 -110.5t-101 -75.5q149 -54 149 -201q0 -104 -81.5 -171t-207.5 -67z" />
    <glyph glyph-name="uni2463" unicode="&#x2463;" horiz-adv-x="1746" 
d="M872 -37q-162 0 -307.5 60.5t-249 163.5t-164.5 246t-61 302q0 158 61 301t164.5 247t249 165t307.5 61t307.5 -61t249.5 -165t165 -247t61 -301q0 -159 -61 -302t-165 -246t-249.5 -163.5t-307.5 -60.5zM872 106q178 0 322.5 84t225.5 228t81 317q0 174 -81 319
t-225.5 229.5t-322.5 84.5q-133 0 -250.5 -49.5t-200 -134.5t-130 -202t-47.5 -247t47.5 -246t130 -200t200 -133.5t250.5 -49.5zM883 330v209h-375v125l328 483h202v-471h113v-137h-113v-209h-155zM883 676v88v205l-199 -293h139h60z" />
    <glyph glyph-name="uni2464" unicode="&#x2464;" horiz-adv-x="1746" 
d="M872 -37q-162 0 -307.5 60.5t-249 163.5t-164.5 246t-61 302q0 158 61 301t164.5 247t249 165t307.5 61t307.5 -61t249.5 -165t165 -247t61 -301q0 -159 -61 -302t-165 -246t-249.5 -163.5t-307.5 -60.5zM872 106q178 0 322.5 84t225.5 228t81 317q0 174 -81 319
t-225.5 229.5t-322.5 84.5q-133 0 -250.5 -49.5t-200 -134.5t-130 -202t-47.5 -247t47.5 -246t130 -200t200 -133.5t250.5 -49.5zM860 313q-129 0 -214 63t-99 167l166 45q11 -65 48 -100t95 -35q61 0 96 38.5t35 102.5q0 62 -35.5 96.5t-93.5 34.5q-84 0 -121 -84l-172 27
l72 479h502v-146h-369l-12 -88q-14 -109 -15 -118q58 67 162 67q113 0 184.5 -74.5t71.5 -195.5q0 -125 -83 -202t-218 -77z" />
    <glyph glyph-name="uni2465" unicode="&#x2465;" horiz-adv-x="1746" 
d="M872 -37q-162 0 -307.5 60.5t-249 163.5t-164.5 246t-61 302q0 158 61 301t164.5 247t249 165t307.5 61t307.5 -61t249.5 -165t165 -247t61 -301q0 -159 -61 -302t-165 -246t-249.5 -163.5t-307.5 -60.5zM872 106q178 0 322.5 84t225.5 228t81 317q0 174 -81 319
t-225.5 229.5t-322.5 84.5q-133 0 -250.5 -49.5t-200 -134.5t-130 -202t-47.5 -247t47.5 -246t130 -200t200 -133.5t250.5 -49.5zM854 313q-151 0 -236.5 105.5t-85.5 290.5q0 210 108.5 332t297.5 122q51 0 99.5 -11.5t70.5 -23.5v-155q-83 41 -170 41q-98 0 -159.5 -57.5
t-73.5 -174.5q57 90 180 90q121 0 195.5 -74t74.5 -192q0 -130 -83.5 -211.5t-217.5 -81.5zM854 453q57 0 93 39.5t36 101.5q0 63 -36 103t-93 40t-93 -40t-36 -103t36 -102t93 -39z" />
    <glyph glyph-name="uni2466" unicode="&#x2466;" horiz-adv-x="1746" 
d="M872 -37q-162 0 -307.5 60.5t-249 163.5t-164.5 246t-61 302q0 158 61 301t164.5 247t249 165t307.5 61t307.5 -61t249.5 -165t165 -247t61 -301q0 -159 -61 -302t-165 -246t-249.5 -163.5t-307.5 -60.5zM872 106q178 0 322.5 84t225.5 228t81 317q0 174 -81 319
t-225.5 229.5t-322.5 84.5q-133 0 -250.5 -49.5t-200 -134.5t-130 -202t-47.5 -247t47.5 -246t130 -200t200 -133.5t250.5 -49.5zM715 330q-3 419 286 671h-110h-291v146h584v-150q-170 -138 -230.5 -292.5t-58.5 -374.5h-180z" />
    <glyph glyph-name="uni2467" unicode="&#x2467;" horiz-adv-x="1746" 
d="M872 -37q-162 0 -307.5 60.5t-249 163.5t-164.5 246t-61 302q0 158 61 301t164.5 247t249 165t307.5 61t307.5 -61t249.5 -165t165 -247t61 -301q0 -159 -61 -302t-165 -246t-249.5 -163.5t-307.5 -60.5zM872 106q178 0 322.5 84t225.5 228t81 317q0 174 -81 319
t-225.5 229.5t-322.5 84.5q-133 0 -250.5 -49.5t-200 -134.5t-130 -202t-47.5 -247t47.5 -246t130 -200t200 -133.5t250.5 -49.5zM870 313q-137 0 -218 65t-81 175q0 67 39.5 120t108.5 81q-127 59 -127 182q0 100 77 163.5t201 63.5q125 0 203 -63.5t78 -163.5
q0 -61 -33.5 -108.5t-93.5 -73.5q71 -27 109 -80t38 -121q0 -110 -81.5 -175t-219.5 -65zM872 799q48 0 78.5 36t30.5 87q0 45 -30 73.5t-79 28.5q-51 0 -80.5 -28t-29.5 -74q0 -51 30.5 -87t79.5 -36zM870 453q61 0 95 30t34 84q0 56 -34.5 88.5t-94.5 32.5
q-58 0 -91.5 -32.5t-33.5 -88.5q0 -54 32.5 -84t92.5 -30z" />
    <glyph glyph-name="uni2468" unicode="&#x2468;" horiz-adv-x="1746" 
d="M872 -37q-162 0 -307.5 60.5t-249 163.5t-164.5 246t-61 302q0 158 61 301t164.5 247t249 165t307.5 61t307.5 -61t249.5 -165t165 -247t61 -301q0 -159 -61 -302t-165 -246t-249.5 -163.5t-307.5 -60.5zM872 106q178 0 322.5 84t225.5 228t81 317q0 174 -81 319
t-225.5 229.5t-322.5 84.5q-133 0 -250.5 -49.5t-200 -134.5t-130 -202t-47.5 -247t47.5 -246t130 -200t200 -133.5t250.5 -49.5zM809 313q-90 0 -180 33v164q89 -45 176 -45q91 0 151 51q76 64 76 184q-60 -88 -176 -88q-117 0 -192.5 73t-75.5 187q0 128 81 209.5
t210 81.5q132 0 215 -86q106 -106 106 -311q0 -214 -102.5 -333.5t-288.5 -119.5zM883 750q54 0 88.5 37.5t34.5 97.5q0 61 -34.5 99t-88.5 38q-53 0 -87 -38t-34 -99q0 -60 34 -97.5t87 -37.5z" />
    <glyph glyph-name="uni24EA" unicode="&#x24ea;" horiz-adv-x="1746" 
d="M872 -37q-162 0 -307.5 60.5t-249 163.5t-164.5 246t-61 302q0 158 61 301t164.5 247t249 165t307.5 61t307.5 -61t249.5 -165t165 -247t61 -301q0 -159 -61 -302t-165 -246t-249.5 -163.5t-307.5 -60.5zM872 106q178 0 322.5 84t225.5 228t81 317q0 174 -81 319
t-225.5 229.5t-322.5 84.5q-133 0 -250.5 -49.5t-200 -134.5t-130 -202t-47.5 -247t47.5 -246t130 -200t200 -133.5t250.5 -49.5zM874 313q-159 0 -249 114t-90 314q0 191 92 306.5t247 115.5q153 0 245.5 -115.5t92.5 -306.5q0 -200 -90 -314t-248 -114zM874 455
q77 0 120.5 75t43.5 211q0 126 -45.5 202.5t-118.5 76.5q-74 0 -119.5 -76t-45.5 -203q0 -136 43.5 -211t121.5 -75z" />
    <glyph glyph-name="uni24FF" unicode="&#x24ff;" horiz-adv-x="1746" 
d="M872 -37q162 0 307.5 60.5t249.5 163.5t165 246t61 302q0 158 -61 301t-165 247t-249.5 165t-307.5 61t-307.5 -61t-249 -165t-164.5 -247t-61 -301q0 -159 61 -302t164.5 -246t249 -163.5t307.5 -60.5zM874 313q-159 0 -249 114t-90 314q0 191 92 306.5t247 115.5
q153 0 245.5 -115.5t92.5 -306.5q0 -200 -90 -314t-248 -114zM874 455q77 0 120.5 75t43.5 211q0 126 -45.5 202.5t-118.5 76.5q-74 0 -119.5 -76t-45.5 -203q0 -136 43.5 -211t121.5 -75z" />
    <glyph glyph-name="lozenge" unicode="&#x25ca;" horiz-adv-x="1327" 
d="M510 -2l-440 711l448 725h299l440 -715l-446 -721h-301zM1022 717l-234 385q-65 104 -122 198l-125 -198l-240 -385l236 -379q64 -107 129 -207l122 201z" />
    <glyph glyph-name="uni274C" unicode="&#x274c;" horiz-adv-x="1589" 
d="M193 -29l-134 131l603 613l-605 610l140 139l602 -612l602 612l133 -131l-602 -614l600 -610l-139 -138l-600 611z" />
    <glyph glyph-name="uni2776" unicode="&#x2776;" horiz-adv-x="1746" 
d="M872 -37q162 0 307.5 60.5t249.5 163.5t165 246t61 302q0 158 -61 301t-165 247t-249.5 165t-307.5 61t-307.5 -61t-249 -165t-164.5 -247t-61 -301q0 -159 61 -302t164.5 -246t249 -163.5t307.5 -60.5zM823 330v381v223q-79 -111 -209 -115v152q165 27 238 176h137v-817
h-166z" />
    <glyph glyph-name="uni2777" unicode="&#x2777;" horiz-adv-x="1746" 
d="M872 -37q162 0 307.5 60.5t249.5 163.5t165 246t61 302q0 158 -61 301t-165 247t-249.5 165t-307.5 61t-307.5 -61t-249 -165t-164.5 -247t-61 -301q0 -159 61 -302t164.5 -246t249 -163.5t307.5 -60.5zM586 330v151q93 57 154.5 99.5t121.5 95t89.5 105.5t29.5 108
q0 61 -31 96t-82 35q-59 0 -91.5 -47.5t-26.5 -126.5l-170 22q-5 131 75.5 213t212.5 82q129 0 209 -72.5t80 -189.5t-96 -231q-80 -95 -264 -197h268h98v-143h-577z" />
    <glyph glyph-name="uni2778" unicode="&#x2778;" horiz-adv-x="1746" 
d="M872 -37q162 0 307.5 60.5t249.5 163.5t165 246t61 302q0 158 -61 301t-165 247t-249.5 165t-307.5 61t-307.5 -61t-249 -165t-164.5 -247t-61 -301q0 -159 61 -302t164.5 -246t249 -163.5t307.5 -60.5zM870 313q-136 0 -219 74t-88 197l170 30q3 -75 37.5 -118t97.5 -43
q53 0 86 30t33 80q0 53 -35.5 83t-103.5 30h-60v135h60q61 0 94 29.5t33 77.5q0 46 -29.5 75t-75.5 29q-55 0 -86.5 -37.5t-31.5 -103.5l-170 28q1 112 82 183t206 71q122 0 198.5 -62.5t76.5 -162.5q0 -62 -34 -110.5t-101 -75.5q149 -54 149 -201q0 -104 -81.5 -171
t-207.5 -67z" />
    <glyph glyph-name="uni2779" unicode="&#x2779;" horiz-adv-x="1746" 
d="M872 -37q162 0 307.5 60.5t249.5 163.5t165 246t61 302q0 158 -61 301t-165 247t-249.5 165t-307.5 61t-307.5 -61t-249 -165t-164.5 -247t-61 -301q0 -159 61 -302t164.5 -246t249 -163.5t307.5 -60.5zM883 330v209h-375v125l328 483h202v-471h113v-137h-113v-209h-155z
M883 676v88v205l-199 -293h139h60z" />
    <glyph glyph-name="uni277A" unicode="&#x277a;" horiz-adv-x="1746" 
d="M872 -37q162 0 307.5 60.5t249.5 163.5t165 246t61 302q0 158 -61 301t-165 247t-249.5 165t-307.5 61t-307.5 -61t-249 -165t-164.5 -247t-61 -301q0 -159 61 -302t164.5 -246t249 -163.5t307.5 -60.5zM860 313q-129 0 -214 63t-99 167l166 45q11 -65 48 -100t95 -35
q61 0 96 38.5t35 102.5q0 62 -35.5 96.5t-93.5 34.5q-84 0 -121 -84l-172 27l72 479h502v-146h-369l-12 -88q-14 -109 -15 -118q58 67 162 67q113 0 184.5 -74.5t71.5 -195.5q0 -125 -83 -202t-218 -77z" />
    <glyph glyph-name="uni277B" unicode="&#x277b;" horiz-adv-x="1746" 
d="M872 -37q162 0 307.5 60.5t249.5 163.5t165 246t61 302q0 158 -61 301t-165 247t-249.5 165t-307.5 61t-307.5 -61t-249 -165t-164.5 -247t-61 -301q0 -159 61 -302t164.5 -246t249 -163.5t307.5 -60.5zM854 313q-151 0 -236.5 105.5t-85.5 290.5q0 210 108.5 332
t297.5 122q51 0 99.5 -11.5t70.5 -23.5v-155q-83 41 -170 41q-98 0 -159.5 -57.5t-73.5 -174.5q57 90 180 90q121 0 195.5 -74t74.5 -192q0 -130 -83.5 -211.5t-217.5 -81.5zM854 453q57 0 93 39.5t36 101.5q0 63 -36 103t-93 40t-93 -40t-36 -103t36 -102t93 -39z" />
    <glyph glyph-name="uni277C" unicode="&#x277c;" horiz-adv-x="1746" 
d="M872 -37q162 0 307.5 60.5t249.5 163.5t165 246t61 302q0 158 -61 301t-165 247t-249.5 165t-307.5 61t-307.5 -61t-249 -165t-164.5 -247t-61 -301q0 -159 61 -302t164.5 -246t249 -163.5t307.5 -60.5zM715 330q-3 419 286 671h-110h-291v146h584v-150
q-170 -138 -230.5 -292.5t-58.5 -374.5h-180z" />
    <glyph glyph-name="uni277D" unicode="&#x277d;" horiz-adv-x="1746" 
d="M872 -37q162 0 307.5 60.5t249.5 163.5t165 246t61 302q0 158 -61 301t-165 247t-249.5 165t-307.5 61t-307.5 -61t-249 -165t-164.5 -247t-61 -301q0 -159 61 -302t164.5 -246t249 -163.5t307.5 -60.5zM870 313q-137 0 -218 65t-81 175q0 67 39.5 120t108.5 81
q-127 59 -127 182q0 100 77 163.5t201 63.5q125 0 203 -63.5t78 -163.5q0 -61 -33.5 -108.5t-93.5 -73.5q71 -27 109 -80t38 -121q0 -110 -81.5 -175t-219.5 -65zM872 799q48 0 78.5 36t30.5 87q0 45 -30 73.5t-79 28.5q-51 0 -80.5 -28t-29.5 -74q0 -51 30.5 -87t79.5 -36z
M870 453q61 0 95 30t34 84q0 56 -34.5 88.5t-94.5 32.5q-58 0 -91.5 -32.5t-33.5 -88.5q0 -54 32.5 -84t92.5 -30z" />
    <glyph glyph-name="uni277E" unicode="&#x277e;" horiz-adv-x="1746" 
d="M872 -37q162 0 307.5 60.5t249.5 163.5t165 246t61 302q0 158 -61 301t-165 247t-249.5 165t-307.5 61t-307.5 -61t-249 -165t-164.5 -247t-61 -301q0 -159 61 -302t164.5 -246t249 -163.5t307.5 -60.5zM813 313q-90 0 -180 33v164q89 -45 176 -45q92 0 152 51
q72 61 75 184q-60 -88 -178 -88q-116 0 -192 73t-76 187q0 128 82 209.5t209 81.5q134 0 217 -86q106 -106 106 -311q0 -214 -102.5 -333.5t-288.5 -119.5zM887 750q54 0 88.5 37.5t34.5 97.5q0 61 -34.5 99t-88.5 38t-88.5 -38t-34.5 -99q0 -60 34.5 -97.5t88.5 -37.5z" />
    <glyph glyph-name="uni300A" unicode="&#x300a;" horiz-adv-x="1140" 
d="M657 1487l-424 -864l422 -881l-159 -78l-457 950l459 953zM1098 1487l-422 -864l422 -881l-162 -78l-455 950l457 953z" />
    <glyph glyph-name="uni300B" unicode="&#x300b;" horiz-adv-x="1132" 
d="M203 1567l456 -953l-458 -950l-160 80l422 866l-420 879zM645 1567l455 -953l-457 -950l-160 80l422 864l-422 881z" />
    <glyph glyph-name="uni300C" unicode="&#x300c;" horiz-adv-x="739" 
d="M176 639v907h533v-160h-353v-747h-180z" />
    <glyph glyph-name="uni300D" unicode="&#x300d;" horiz-adv-x="698" 
d="M553 600v-907h-533v160h353v747h180z" />
    <glyph glyph-name="uni300E" unicode="&#x300e;" horiz-adv-x="1015" 
d="M182 449v1097h760v-430h-334v-667h-426zM340 602h125v649h326v142h-451v-791z" />
    <glyph glyph-name="uni300F" unicode="&#x300f;" horiz-adv-x="991" 
d="M829 791v-1098h-759v430h333v668h426zM672 637h-125v-649h-326v-142h451v791z" />
    <glyph glyph-name="uni3010" unicode="&#x3010;" horiz-adv-x="739" 
d="M182 -307v1853h555q-198 -226 -290.5 -451.5t-92.5 -478.5q0 -251 91 -472t292 -451h-555z" />
    <glyph glyph-name="uni3011" unicode="&#x3011;" horiz-adv-x="739" 
d="M557 1546v-1853h-555q198 226 290.5 451.5t92.5 478.5q0 251 -91 472t-292 451h555z" />
    <glyph glyph-name="uni3014" unicode="&#x3014;" horiz-adv-x="636" 
d="M309 113l297 -328l-135 -121l-342 381v1139l344 383l125 -119l-289 -320v-1015z" />
    <glyph glyph-name="uni3015" unicode="&#x3015;" horiz-adv-x="636" 
d="M166 1569l342 -383v-1139l-342 -383l-125 121l287 317v1018l-297 328z" />
    <glyph glyph-name="plus.alt" unicode="&#xe000;" horiz-adv-x="1550" 
d="M676 0v625h-606v184h606v627h198v-627h609v-184h-609v-625h-198z" />
    <glyph glyph-name="minus.alt" unicode="&#xe001;" horiz-adv-x="1705" 
d="M145 625v184h1414v-184h-1414z" />
    <glyph glyph-name="multiply.alt" unicode="&#xe002;" horiz-adv-x="1617" 
d="M207 -29l-133 131l600 613l-602 610l139 139l602 -612l602 612l133 -131l-602 -614l600 -610l-139 -138l-600 611z" />
    <glyph glyph-name="uniE003" unicode="&#xe003;" horiz-adv-x="1845" 
d="M739 -31l-659 848l158 125l510 -653l878 1153l152 -123z" />
    <glyph glyph-name="uniE004" unicode="&#xe004;" horiz-adv-x="1918" 
d="M166 1194v186h1585v-186h-1585zM166 627v188h1585v-188h-1585zM166 61v187h1585v-187h-1585z" />
    <glyph glyph-name="uniE005" unicode="&#xe005;" horiz-adv-x="1845" 
d="M205 0v1432h1433v-1432h-1433zM403 176h1039v1079h-1039v-1079z" />
    <glyph glyph-name="uniE006" unicode="&#xe006;" horiz-adv-x="1845" 
d="M924 326l-367 594l158 100l121 -199l104 -174q72 96 127 174l463 643l149 -112zM205 0v1432h928v-177h-730v-1079h1039v496h196v-672h-1433z" />
    <glyph glyph-name="uniE007" unicode="&#xe007;" horiz-adv-x="1845" 
d="M205 0v1432h1433v-1432h-1433zM403 176h1039v1079h-1039v-1079zM793 584v266h260v-266h-260z" />
    <glyph glyph-name="uniE008" unicode="&#xe008;" horiz-adv-x="1556" 
d="M778 197l-559 555l139 137l140 -144q60 -60 182 -186v1028h199v-1028q83 88 178 184l145 146l137 -137zM61 0v197h1434v-197h-1434z" />
    <glyph glyph-name="uniE009" unicode="&#xe009;" horiz-adv-x="1556" 
d="M778 395l-559 555l139 135l140 -141q122 -126 182 -186v1026h199v-1026q30 33 91 95t87 89l145 143l137 -135zM61 0v197h1434v-197h-1434z" />
    <glyph glyph-name="uniF8FF" unicode="&#xf8ff;" horiz-adv-x="1603" 
d="M1466 256q35 -120 35 -227l-78 -11q-72 69 -104 103q13 -106 24 -174l-32 -25q-107 0 -165 61t-83 195q-8 46 -27 133q-29 -103 -86 -172q-49 23 -100 96.5t-82.5 148.5t-40.5 124q-36 207 -68 252q-27 34 -66.5 56.5t-105.5 43.5q-61 22 -96.5 51t-81.5 88l148 109
l-60 59q-52 -10 -86 -10q-87 0 -148 37t-61 96q0 57 30.5 91t86.5 34q107 0 172 -41q-14 32 -19 45.5t-10.5 39t-5.5 52.5q0 41 29.5 67t81.5 26q59 0 90 -38.5t31 -101.5q0 -89 -43 -174l63 -67l90 67q69 -32 139.5 -99t124 -143.5t90 -139.5t56.5 -109q278 -270 358 -543z
" />
    <glyph glyph-name="G.ss03" horiz-adv-x="1568" 
d="M797 -29q-318 0 -505.5 202t-187.5 544q0 161 57.5 301.5t154.5 237t229 151.5t278 55q131 0 242 -36t189 -98t131 -136.5t83 -159.5l-208 -84q-121 324 -443 324q-95 0 -182.5 -36t-157.5 -103t-111.5 -174.5t-41.5 -239.5q0 -258 132.5 -409.5t338.5 -151.5
q193 0 300.5 97t127.5 263h-465v189h694q14 -215 -59 -381t-227 -260.5t-369 -94.5z" />
    <glyph glyph-name="Gbreve.ss03" horiz-adv-x="1568" 
d="M827 1554q-85 0 -152 24.5t-107 64.5t-60.5 87.5t-20.5 98.5h179q5 -59 46.5 -96t114.5 -37q75 0 116 37t46 96h178q-1 -51 -21 -98.5t-59.5 -88t-106.5 -64.5t-153 -24zM797 -29q-318 0 -505.5 202t-187.5 544q0 161 57.5 301.5t154.5 237t229 151.5t278 55
q131 0 242 -36t189 -98t131 -136.5t83 -159.5l-208 -84q-121 324 -443 324q-95 0 -182.5 -36t-157.5 -103t-111.5 -174.5t-41.5 -239.5q0 -258 132.5 -409.5t338.5 -151.5q193 0 300.5 97t127.5 263h-465v189h694q14 -215 -59 -381t-227 -260.5t-369 -94.5z" />
    <glyph glyph-name="Gcircumflex.ss03" horiz-adv-x="1568" 
d="M434 1577l242 252h305l242 -252h-211l-183 152l-184 -152h-211zM797 -29q-318 0 -505.5 202t-187.5 544q0 161 57.5 301.5t154.5 237t229 151.5t278 55q131 0 242 -36t189 -98t131 -136.5t83 -159.5l-208 -84q-121 324 -443 324q-95 0 -182.5 -36t-157.5 -103
t-111.5 -174.5t-41.5 -239.5q0 -258 132.5 -409.5t338.5 -151.5q193 0 300.5 97t127.5 263h-465v189h694q14 -215 -59 -381t-227 -260.5t-369 -94.5z" />
    <glyph glyph-name="uni0122.ss03" horiz-adv-x="1568" 
d="M797 -29q-318 0 -505.5 202t-187.5 544q0 161 57.5 301.5t154.5 237t229 151.5t278 55q131 0 242 -36t189 -98t131 -136.5t83 -159.5l-208 -84q-121 324 -443 324q-95 0 -182.5 -36t-157.5 -103t-111.5 -174.5t-41.5 -239.5q0 -258 132.5 -409.5t338.5 -151.5
q193 0 300.5 97t127.5 263h-465v189h694q14 -215 -59 -381t-227 -260.5t-369 -94.5zM694 -643l135 244h-116v227h221v-227l-135 -244h-105z" />
    <glyph glyph-name="Gdotaccent.ss03" horiz-adv-x="1568" 
d="M729 1577v229h205v-229h-205zM797 -29q-318 0 -505.5 202t-187.5 544q0 161 57.5 301.5t154.5 237t229 151.5t278 55q131 0 242 -36t189 -98t131 -136.5t83 -159.5l-208 -84q-121 324 -443 324q-95 0 -182.5 -36t-157.5 -103t-111.5 -174.5t-41.5 -239.5
q0 -258 132.5 -409.5t338.5 -151.5q193 0 300.5 97t127.5 263h-465v189h694q14 -215 -59 -381t-227 -260.5t-369 -94.5z" />
    <glyph glyph-name="a.ss01" horiz-adv-x="1193" 
d="M510 -29q-184 0 -301 145t-117 390q0 246 117 392t301 146q82 0 150.5 -30t107 -68t66.5 -86v156h192v-1016h-188v154q-44 -76 -125.5 -129.5t-202.5 -53.5zM563 135q128 0 204.5 94.5t76.5 276.5t-77 278.5t-204 96.5q-125 0 -198.5 -90t-73.5 -285q0 -371 272 -371z
" />
    <glyph glyph-name="aacute.ss01" horiz-adv-x="1193" 
d="M508 1161l102 289h254l-231 -289h-125zM510 -29q-184 0 -301 145t-117 390q0 246 117 392t301 146q82 0 150.5 -30t107 -68t66.5 -86v156h192v-1016h-188v154q-44 -76 -125.5 -129.5t-202.5 -53.5zM563 135q128 0 204.5 94.5t76.5 276.5t-77 278.5t-204 96.5
q-125 0 -198.5 -90t-73.5 -285q0 -371 272 -371z" />
    <glyph glyph-name="abreve.ss01" horiz-adv-x="1193" 
d="M569 1139q-77 0 -137.5 24t-96.5 63.5t-55 87t-20 99.5h162q5 -59 43 -97t104 -38q67 0 105 38t43 97h162q-2 -111 -81 -192.5t-229 -81.5zM510 -29q-184 0 -301 145t-117 390q0 246 117 392t301 146q82 0 150.5 -30t107 -68t66.5 -86v156h192v-1016h-188v154
q-44 -76 -125.5 -129.5t-202.5 -53.5zM563 135q128 0 204.5 94.5t76.5 276.5t-77 278.5t-204 96.5q-125 0 -198.5 -90t-73.5 -285q0 -371 272 -371z" />
    <glyph glyph-name="acircumflex.ss01" horiz-adv-x="1193" 
d="M213 1161l219 252h277l221 -252h-193l-166 150l-168 -150h-190zM510 -29q-184 0 -301 145t-117 390q0 246 117 392t301 146q82 0 150.5 -30t107 -68t66.5 -86v156h192v-1016h-188v154q-44 -76 -125.5 -129.5t-202.5 -53.5zM563 135q128 0 204.5 94.5t76.5 276.5
t-77 278.5t-204 96.5q-125 0 -198.5 -90t-73.5 -285q0 -371 272 -371z" />
    <glyph glyph-name="adieresis.ss01" horiz-adv-x="1193" 
d="M264 1202v211h207v-211h-207zM668 1202v211h206v-211h-206zM510 -29q-184 0 -301 145t-117 390q0 246 117 392t301 146q82 0 150.5 -30t107 -68t66.5 -86v156h192v-1016h-188v154q-44 -76 -125.5 -129.5t-202.5 -53.5zM563 135q128 0 204.5 94.5t76.5 276.5t-77 278.5
t-204 96.5q-125 0 -198.5 -90t-73.5 -285q0 -371 272 -371z" />
    <glyph glyph-name="uni0227.ss01" horiz-adv-x="1193" 
d="M469 1204v230h203v-230h-203zM510 -29q-184 0 -301 145t-117 390q0 246 117 392t301 146q82 0 150.5 -30t107 -68t66.5 -86v156h192v-1016h-188v154q-44 -76 -125.5 -129.5t-202.5 -53.5zM563 135q128 0 204.5 94.5t76.5 276.5t-77 278.5t-204 96.5q-125 0 -198.5 -90
t-73.5 -285q0 -371 272 -371z" />
    <glyph glyph-name="uni1EA1.ss01" horiz-adv-x="1193" 
d="M510 -29q-184 0 -301 145t-117 390q0 246 117 392t301 146q82 0 150.5 -30t107 -68t66.5 -86v156h192v-1016h-188v154q-44 -76 -125.5 -129.5t-202.5 -53.5zM563 135q128 0 204.5 94.5t76.5 276.5t-77 278.5t-204 96.5q-125 0 -198.5 -90t-73.5 -285q0 -371 272 -371z
M461 -399v229h205v-229h-205z" />
    <glyph glyph-name="agrave.ss01" horiz-adv-x="1193" 
d="M506 1161l-225 289h249l103 -289h-127zM510 -29q-184 0 -301 145t-117 390q0 246 117 392t301 146q82 0 150.5 -30t107 -68t66.5 -86v156h192v-1016h-188v154q-44 -76 -125.5 -129.5t-202.5 -53.5zM563 135q128 0 204.5 94.5t76.5 276.5t-77 278.5t-204 96.5
q-125 0 -198.5 -90t-73.5 -285q0 -371 272 -371z" />
    <glyph glyph-name="amacron.ss01" horiz-adv-x="1193" 
d="M256 1210v146h629v-146h-629zM510 -29q-184 0 -301 145t-117 390q0 246 117 392t301 146q82 0 150.5 -30t107 -68t66.5 -86v156h192v-1016h-188v154q-44 -76 -125.5 -129.5t-202.5 -53.5zM563 135q128 0 204.5 94.5t76.5 276.5t-77 278.5t-204 96.5q-125 0 -198.5 -90
t-73.5 -285q0 -371 272 -371z" />
    <glyph glyph-name="aogonek.ss01" horiz-adv-x="1193" 
d="M1026 0q-213 -81 -213 -186q0 -84 123 -84q24 0 90 12v-148q-69 -16 -117 -16q-114 0 -182 46t-68 138q0 142 179 244v148q-44 -76 -125.5 -129.5t-202.5 -53.5q-184 0 -301 145t-117 390q0 246 117 392t301 146q82 0 150.5 -30t107 -68t66.5 -86v156h192v-1016zM563 135
q128 0 204.5 94.5t76.5 276.5t-77 278.5t-204 96.5q-125 0 -198.5 -90t-73.5 -285q0 -371 272 -371z" />
    <glyph glyph-name="aring.ss01" horiz-adv-x="1193" 
d="M573 1126q-101 0 -170 69t-69 171q0 96 69.5 162.5t169.5 66.5q97 0 166.5 -67.5t69.5 -167.5t-69.5 -167t-166.5 -67zM573 1245q43 0 76 34.5t33 80.5q0 49 -32.5 83t-76.5 34q-48 0 -80 -33t-32 -78q0 -52 31 -86.5t81 -34.5zM510 -29q-184 0 -301 145t-117 390
q0 246 117 392t301 146q82 0 150.5 -30t107 -68t66.5 -86v156h192v-1016h-188v154q-44 -76 -125.5 -129.5t-202.5 -53.5zM563 135q128 0 204.5 94.5t76.5 276.5t-77 278.5t-204 96.5q-125 0 -198.5 -90t-73.5 -285q0 -371 272 -371z" />
    <glyph glyph-name="aringacute.ss01" horiz-adv-x="1193" 
d="M516 1632l102 281h254l-231 -281h-125zM580 1124q-102 0 -171 68t-69 170q0 98 69.5 163.5t170.5 65.5q96 0 165.5 -67t69.5 -166q0 -100 -69 -167t-166 -67zM580 1241q43 0 75.5 35t32.5 82t-32.5 81t-75.5 34q-48 0 -80.5 -33t-32.5 -78q0 -52 31.5 -86.5t81.5 -34.5z
M510 -29q-184 0 -301 145t-117 390q0 246 117 392t301 146q82 0 150.5 -30t107 -68t66.5 -86v156h192v-1016h-188v154q-44 -76 -125.5 -129.5t-202.5 -53.5zM563 135q128 0 204.5 94.5t76.5 276.5t-77 278.5t-204 96.5q-125 0 -198.5 -90t-73.5 -285q0 -371 272 -371z" />
    <glyph glyph-name="atilde.ss01" horiz-adv-x="1193" 
d="M729 1165q-75 0 -160 54l-59 38q-56 35 -88 35q-37 0 -58 -27.5t-22 -78.5h-149q0 124 60.5 189t160.5 65q81 0 159 -49l58 -37q61 -37 88 -37q38 0 58 22.5t24 73.5h149q0 -123 -59.5 -185.5t-161.5 -62.5zM510 -29q-184 0 -301 145t-117 390q0 246 117 392t301 146
q82 0 150.5 -30t107 -68t66.5 -86v156h192v-1016h-188v154q-44 -76 -125.5 -129.5t-202.5 -53.5zM563 135q128 0 204.5 94.5t76.5 276.5t-77 278.5t-204 96.5q-125 0 -198.5 -90t-73.5 -285q0 -371 272 -371z" />
    <glyph glyph-name="g.ss02" horiz-adv-x="1191" 
d="M541 -426q-196 0 -322.5 80.5t-159.5 234.5l189 64q50 -215 293 -215q137 0 217 81t80 218v147q-40 -69 -123.5 -116.5t-204.5 -47.5q-185 0 -301.5 138t-116.5 368q0 233 116 375.5t302 142.5q83 0 152.5 -30t108.5 -68t67 -86v156h186v-981q0 -215 -130 -338t-353 -123
zM563 176q127 0 204 91.5t77 258.5q0 168 -77.5 261.5t-203.5 93.5q-125 0 -198.5 -86.5t-73.5 -268.5t73.5 -266t198.5 -84z" />
    <glyph glyph-name="gbreve.ss02" horiz-adv-x="1191" 
d="M571 1139q-77 0 -137.5 24t-96.5 63.5t-55 87t-20 99.5h162q5 -59 43 -97t104 -38q67 0 105 38t43 97h162q-2 -111 -81 -192.5t-229 -81.5zM541 -426q-196 0 -322.5 80.5t-159.5 234.5l189 64q50 -215 293 -215q137 0 217 81t80 218v147q-40 -69 -123.5 -116.5
t-204.5 -47.5q-185 0 -301.5 138t-116.5 368q0 233 116 375.5t302 142.5q83 0 152.5 -30t108.5 -68t67 -86v156h186v-981q0 -215 -130 -338t-353 -123zM563 176q127 0 204 91.5t77 258.5q0 168 -77.5 261.5t-203.5 93.5q-125 0 -198.5 -86.5t-73.5 -268.5t73.5 -266
t198.5 -84z" />
    <glyph glyph-name="gcircumflex.ss02" horiz-adv-x="1191" 
d="M215 1161l219 252h277l221 -252h-193l-166 150l-167 -150h-191zM541 -426q-196 0 -322.5 80.5t-159.5 234.5l189 64q50 -215 293 -215q137 0 217 81t80 218v147q-40 -69 -123.5 -116.5t-204.5 -47.5q-185 0 -301.5 138t-116.5 368q0 233 116 375.5t302 142.5
q83 0 152.5 -30t108.5 -68t67 -86v156h186v-981q0 -215 -130 -338t-353 -123zM563 176q127 0 204 91.5t77 258.5q0 168 -77.5 261.5t-203.5 93.5q-125 0 -198.5 -86.5t-73.5 -268.5t73.5 -266t198.5 -84z" />
    <glyph glyph-name="uni0123.ss02" horiz-adv-x="1191" 
d="M705 1673l-136 -243h117v-226h-221v226l135 243h105zM541 -426q-196 0 -322.5 80.5t-159.5 234.5l189 64q50 -215 293 -215q137 0 217 81t80 218v147q-40 -69 -123.5 -116.5t-204.5 -47.5q-185 0 -301.5 138t-116.5 368q0 233 116 375.5t302 142.5q83 0 152.5 -30
t108.5 -68t67 -86v156h186v-981q0 -215 -130 -338t-353 -123zM563 176q127 0 204 91.5t77 258.5q0 168 -77.5 261.5t-203.5 93.5q-125 0 -198.5 -86.5t-73.5 -268.5t73.5 -266t198.5 -84z" />
    <glyph glyph-name="gdotaccent.ss02" horiz-adv-x="1191" 
d="M471 1204v230h203v-230h-203zM541 -426q-196 0 -322.5 80.5t-159.5 234.5l189 64q50 -215 293 -215q137 0 217 81t80 218v147q-40 -69 -123.5 -116.5t-204.5 -47.5q-185 0 -301.5 138t-116.5 368q0 233 116 375.5t302 142.5q83 0 152.5 -30t108.5 -68t67 -86v156h186
v-981q0 -215 -130 -338t-353 -123zM563 176q127 0 204 91.5t77 258.5q0 168 -77.5 261.5t-203.5 93.5q-125 0 -198.5 -86.5t-73.5 -268.5t73.5 -266t198.5 -84z" />
    <glyph glyph-name="i.loclTRK" horiz-adv-x="526" 
d="M160 1204v230h205v-230h-205zM166 0v1016h194v-1016h-194z" />
    <glyph glyph-name="zero.osf" horiz-adv-x="1294" 
d="M647 -29q-153 0 -278 69t-197 192t-72 276t72 276t197 191.5t278 68.5q235 0 390 -151.5t155 -384.5t-155 -385t-390 -152zM647 137q157 0 251.5 100.5t94.5 270.5t-94.5 270.5t-251.5 100.5q-156 0 -251 -101t-95 -270t95 -270t251 -101z" />
    <glyph glyph-name="one.osf" horiz-adv-x="772" 
d="M412 0v481v264q-55 -92 -143 -161t-189 -90v206q118 25 213.5 107t148.5 209h158v-1016h-188z" />
    <glyph glyph-name="two.osf" horiz-adv-x="1050" 
d="M121 0v195q109 52 182 88.5t149 79.5t122 78t84.5 75t55.5 80t17 84q0 91 -57.5 145t-149.5 54q-91 0 -149.5 -55t-65.5 -154l-200 28q17 157 129.5 251.5t287.5 94.5q95 0 173.5 -28.5t128.5 -75.5t77 -106t27 -123q0 -99 -43.5 -176t-126.5 -146q-115 -96 -391 -225
q72 2 295 2h280v-166h-825z" />
    <glyph glyph-name="three.osf" horiz-adv-x="1132" 
d="M565 -428q-212 0 -344 117t-147 309l200 45q6 -139 79.5 -222t211.5 -83q126 0 195 67t69 183q0 114 -75 179.5t-195 65.5h-102v173h100q106 0 180 66t74 173q0 105 -71 169.5t-175 64.5q-112 0 -181.5 -72t-80.5 -186l-190 26q12 172 133 284.5t319 112.5
q197 0 320 -106.5t123 -269.5q0 -123 -71.5 -214t-180.5 -128q115 -29 194.5 -125.5t79.5 -225.5q0 -175 -124 -289t-341 -114z" />
    <glyph glyph-name="four.osf" horiz-adv-x="1200" 
d="M739 -399v399h-676v170l588 846h279v-850h209v-166h-209v-399h-191zM264 166h287h188v373v313z" />
    <glyph glyph-name="five.osf" horiz-adv-x="1140" 
d="M584 -428q-208 0 -330 96t-160 256l191 60q24 -108 101 -177t185 -69q132 0 208.5 82t76.5 217q0 133 -76 213t-209 80q-90 0 -161 -45.5t-113 -120.5l-205 33l125 819h780v-172h-635l-47 -287l-32 -215q124 154 340 154q180 0 307 -125.5t127 -325.5
q0 -210 -133.5 -341.5t-339.5 -131.5z" />
    <glyph glyph-name="six.osf" horiz-adv-x="1230" 
d="M639 -29q-246 0 -388 176.5t-142 505.5q0 170 43.5 316t126 256.5t213 173.5t294.5 63q151 0 273 -39v-192q-126 49 -258 49q-227 0 -365.5 -148t-138.5 -417q50 98 153.5 156.5t235.5 58.5q200 0 327.5 -133.5t127.5 -327.5q0 -102 -33 -192t-95 -158.5t-158.5 -108
t-215.5 -39.5zM639 137q128 0 215.5 86.5t87.5 227.5q0 139 -87.5 225t-215.5 86q-129 0 -215 -87t-86 -224q0 -142 86 -228t215 -86z" />
    <glyph glyph-name="seven.osf" horiz-adv-x="1054" 
d="M274 -399q0 405 135 706.5t425 536.5h-324h-471v172h973v-201q-159 -133 -266 -274t-165 -294.5t-81 -305.5t-23 -340h-203z" />
    <glyph glyph-name="eight.osf" horiz-adv-x="1193" 
d="M598 -29q-232 0 -359.5 116.5t-127.5 295.5q0 136 74 229t188 129q-103 38 -165.5 129.5t-62.5 206.5q0 167 125 276t328 109t328 -109t125 -276q0 -115 -62.5 -206.5t-165.5 -129.5q118 -37 190 -130t72 -228q0 -179 -127.5 -295.5t-359.5 -116.5zM598 821
q111 0 184.5 66t73.5 176q0 102 -72 167.5t-186 65.5t-186 -65.5t-72 -167.5q0 -110 73.5 -176t184.5 -66zM598 137q133 0 211 70.5t78 189.5q0 117 -79 191t-210 74t-210 -74t-79 -191q0 -119 78.5 -189.5t210.5 -70.5z" />
    <glyph glyph-name="nine.osf" horiz-adv-x="1230" 
d="M449 -428q-151 0 -273 39v196q130 -47 258 -47q111 0 201 32.5t159 99t107 178t37 260.5q-44 -114 -148.5 -178t-238.5 -64q-198 0 -322.5 132t-124.5 327q0 136 57 247.5t170 180.5t263 69q250 0 394.5 -179.5t144.5 -506.5q0 -173 -43 -316t-127 -248t-215 -163.5
t-299 -58.5zM594 262q127 0 210 83.5t83 219.5t-83.5 220.5t-209.5 84.5q-123 0 -207 -85t-84 -220t84 -219t207 -84z" />
    <glyph glyph-name="zero.tf" 
d="M637 -29q-263 0 -419.5 195.5t-156.5 554.5q0 179 45.5 322.5t124.5 233.5t182.5 137.5t223.5 47.5q119 0 221.5 -47.5t181 -137.5t123.5 -233t45 -323q0 -359 -155 -554.5t-416 -195.5zM637 154q167 0 261.5 146.5t94.5 420.5q0 257 -96.5 408t-259.5 151
q-165 0 -263 -151t-98 -408q0 -273 96.5 -420t264.5 -147z" />
    <glyph glyph-name="one.tf" 
d="M815 188h336v-188h-958v188h419v779v200q-60 -100 -164.5 -172.5t-220.5 -89.5v213q135 32 245.5 111.5t178.5 204.5h164v-1246z" />
    <glyph glyph-name="two.tf" 
d="M160 0v225q94 58 166 105t151 104.5t136.5 107t111.5 107t88 111.5t54 114.5t20 120.5q0 134 -74 208.5t-186 74.5q-119 0 -196.5 -83.5t-78.5 -231.5l-205 28q0 208 130.5 339.5t351.5 131.5q220 0 347.5 -124t127.5 -320q0 -218 -152 -400q-161 -185 -569 -430h334h403
v-188h-960z" />
    <glyph glyph-name="three.tf" 
d="M635 -29q-224 0 -361.5 119t-152.5 320l217 45q6 -140 86 -222.5t211 -82.5q117 0 193.5 66t76.5 177q0 115 -76.5 181.5t-197.5 66.5h-103v174h103q107 0 180.5 64.5t73.5 171.5q0 104 -72.5 168.5t-177.5 64.5q-114 0 -185 -70.5t-83 -185.5l-209 35q14 173 141 286
t336 113q210 0 332.5 -106.5t122.5 -272.5q0 -128 -71.5 -218t-189.5 -128q130 -30 209.5 -128.5t79.5 -241.5q0 -168 -131 -282t-352 -114z" />
    <glyph glyph-name="four.tf" 
d="M758 0v389h-666v191l559 854h303v-873h207v-172h-207v-389h-196zM758 561v375v336l-467 -711h274h193z" />
    <glyph glyph-name="five.tf" 
d="M641 -29q-218 0 -354 101.5t-168 261.5l207 67q26 -121 106 -186t199 -65q137 0 217 79t80 213q0 133 -79.5 213t-213.5 80q-91 0 -161 -42.5t-112 -112.5l-215 34l123 820h826v-189h-676l-43 -299l-29 -192q127 151 338 151q206 0 329.5 -122.5t123.5 -333.5
q0 -214 -135 -346t-363 -132z" />
    <glyph glyph-name="six.tf" 
d="M664 -29q-248 0 -395.5 183t-147.5 514q0 171 44 314.5t128.5 251t218.5 168t305 60.5q64 0 138.5 -11.5t125.5 -31.5v-198q-126 47 -260 47q-223 0 -360.5 -148.5t-136.5 -439.5q44 114 148.5 182t236.5 68q207 0 332.5 -131.5t125.5 -327.5q0 -138 -56.5 -250
t-172.5 -181t-274 -69zM664 150q124 0 208 84t84 219t-84 219t-208 84q-125 0 -208 -83.5t-83 -219.5t83 -219.5t208 -83.5z" />
    <glyph glyph-name="seven.tf" 
d="M369 0q0 390 154 704.5t433 540.5h-313h-485v189h972v-224q-159 -132 -265.5 -272t-164 -293t-80 -304.5t-22.5 -340.5h-229z" />
    <glyph glyph-name="eight.tf" 
d="M635 -29q-244 0 -375 116t-131 296q0 139 80.5 234.5t200.5 123.5q-107 37 -174.5 124t-67.5 212q0 171 129 278t338 107t338 -107t129 -278q0 -126 -66.5 -212.5t-175.5 -123.5q124 -29 202.5 -125t78.5 -233q0 -180 -131 -296t-375 -116zM635 821q113 0 187.5 64
t74.5 172q0 101 -73 165t-189 64t-189 -64t-73 -165q0 -108 74.5 -172t187.5 -64zM635 150q135 0 214 68t79 185q0 116 -80 187.5t-213 71.5t-213 -71.5t-80 -187.5q0 -117 79.5 -185t213.5 -68z" />
    <glyph glyph-name="nine.tf" 
d="M469 -29q-69 0 -149.5 12t-129.5 31v209q132 -51 271 -51q184 0 305 100q170 137 170 484q-43 -104 -147 -168t-232 -64q-200 0 -321 126.5t-121 314.5q0 102 32.5 192t92.5 158t152 107.5t204 39.5q223 0 365 -145q178 -181 178 -549q0 -176 -41 -320t-121.5 -251.5
t-210 -166.5t-297.5 -59zM606 698q121 0 201 80t80 211q0 133 -80 214t-201 81q-119 0 -199.5 -81.5t-80.5 -213.5q0 -130 80.5 -210.5t199.5 -80.5z" />
    <glyph glyph-name="zero.subs" horiz-adv-x="860" 
d="M432 -238q-161 0 -250.5 114t-89.5 314q0 191 92.5 306.5t247.5 115.5q153 0 244.5 -115.5t91.5 -306.5q0 -200 -89.5 -314t-246.5 -114zM432 -96q76 0 119 75t43 211q0 127 -45 203t-117 76q-75 0 -121.5 -76t-46.5 -203q0 -136 44.5 -211t123.5 -75z" />
    <glyph glyph-name="one.subs" horiz-adv-x="585" 
d="M274 -221v381v225q-79 -113 -208 -117v152q80 14 141 59t96 117h137v-817h-166z" />
    <glyph glyph-name="two.subs" horiz-adv-x="768" 
d="M98 -221v151q74 45 124 78.5t105.5 77.5t88.5 81.5t54.5 82t21.5 88.5q0 61 -30 96t-83 35q-59 0 -91 -47.5t-28 -126.5l-170 22q-5 131 76.5 213t214.5 82q129 0 208 -72.5t79 -189.5q0 -118 -95 -231q-82 -94 -266 -197h268h101v-143h-578z" />
    <glyph glyph-name="three.subs" horiz-adv-x="770" 
d="M387 -238q-135 0 -218.5 74t-88.5 197l170 30q3 -75 37.5 -118t97.5 -43q53 0 86 30.5t33 79.5q0 53 -35.5 83t-103.5 30h-60v135h60q61 0 94 29.5t33 77.5q0 47 -29.5 75.5t-75.5 28.5q-54 0 -86.5 -37.5t-32.5 -103.5l-170 28q1 112 82.5 183t206.5 71
q122 0 198.5 -62.5t76.5 -162.5q0 -62 -34.5 -110.5t-101.5 -75.5q152 -55 152 -201q0 -104 -82.5 -171t-208.5 -67z" />
    <glyph glyph-name="four.subs" horiz-adv-x="776" 
d="M389 -238q-135 0 -218.5 74t-88.5 197l170 30q3 -75 38 -118t97 -43q54 0 87.5 30.5t33.5 79.5q0 53 -35.5 83t-103.5 30h-62v135h62q61 0 93 29.5t32 77.5q0 47 -29 75.5t-76 28.5q-54 0 -86.5 -37.5t-32.5 -103.5l-170 28q3 112 83.5 183t205.5 71q123 0 200 -62.5
t77 -162.5q0 -61 -35 -110t-101 -76q74 -27 112 -79t38 -122q0 -104 -82.5 -171t-208.5 -67z" />
    <glyph glyph-name="five.subs" horiz-adv-x="786" 
d="M397 -238q-129 0 -214 63t-99 167l164 45q10 -64 48 -99.5t95 -35.5q61 0 97 38.5t36 102.5q0 62 -35.5 96.5t-93.5 34.5q-84 0 -121 -84l-174 27l72 479h504v-145h-369l-14 -89q-1 -10 -12 -118q55 67 161 67q113 0 184.5 -74.5t71.5 -195.5q0 -125 -83 -202t-218 -77z
" />
    <glyph glyph-name="six.subs" horiz-adv-x="796" 
d="M414 -238q-151 0 -237.5 106t-86.5 292q0 208 109 330t297 122q52 0 101 -11t71 -23v-156q-86 41 -172 41q-97 0 -159 -57.5t-75 -174.5q58 91 182 91q121 0 195 -74.5t74 -192.5q0 -131 -83 -212t-216 -81zM414 -98q55 0 91 39.5t36 101.5q0 64 -35.5 103.5t-91.5 39.5
q-57 0 -93 -39.5t-36 -103.5q0 -63 36 -102t93 -39z" />
    <glyph glyph-name="seven.subs" horiz-adv-x="706" 
d="M178 -221q0 422 287 672h-109h-293v145h586v-150q-88 -71 -146.5 -146.5t-89 -159.5t-42.5 -168.5t-11 -192.5h-182z" />
    <glyph glyph-name="eight.subs" horiz-adv-x="786" 
d="M393 -238q-138 0 -219.5 65t-81.5 175q0 67 39.5 120t110.5 81q-129 58 -129 182q0 100 78 163.5t202 63.5t201.5 -63.5t77.5 -163.5q0 -62 -33 -109t-94 -73q71 -27 109 -80t38 -121q0 -110 -81 -175t-218 -65zM393 248q48 0 79.5 36t31.5 87q0 46 -30.5 74t-80.5 28
q-51 0 -80.5 -28t-29.5 -74q0 -51 30.5 -87t79.5 -36zM393 -98q60 0 93.5 30.5t33.5 85.5q0 54 -34.5 86.5t-92.5 32.5q-59 0 -93 -32t-34 -87t33.5 -85.5t93.5 -30.5z" />
    <glyph glyph-name="nine.subs" horiz-adv-x="788" 
d="M307 -238q-94 0 -180 33v164q89 -45 174 -45q91 0 154 51q72 61 75 185q-64 -89 -178 -89q-117 0 -192.5 73.5t-75.5 187.5q0 127 81.5 208.5t209.5 81.5q134 0 217 -86q106 -109 106 -311q0 -214 -103.5 -333.5t-287.5 -119.5zM379 199q56 0 90.5 38t34.5 99t-34.5 98
t-90.5 37q-53 0 -87 -37.5t-34 -97.5q0 -61 34 -99t87 -38z" />
    <glyph glyph-name="zero.dnom" horiz-adv-x="860" 
d="M432 -16q-161 0 -250.5 114t-89.5 314q0 191 92.5 306.5t247.5 115.5q153 0 244.5 -115.5t91.5 -306.5q0 -200 -89.5 -314t-246.5 -114zM432 125q76 0 119 75.5t43 211.5q0 127 -44.5 202.5t-117.5 75.5q-75 0 -121.5 -75.5t-46.5 -202.5q0 -136 45 -211.5t123 -75.5z
" />
    <glyph glyph-name="one.dnom" horiz-adv-x="585" 
d="M274 0v381v225q-79 -113 -208 -117v152q80 14 141 59t96 117h137v-817h-166z" />
    <glyph glyph-name="two.dnom" horiz-adv-x="768" 
d="M98 0v152q75 46 124.5 78.5t106 76.5t89 81.5t54.5 82t22 88.5q0 61 -31 96t-84 35q-59 0 -91 -47.5t-28 -126.5l-168 23q-6 130 74.5 212.5t214.5 82.5q129 0 208 -73t79 -190q0 -118 -95 -231q-82 -94 -266 -197h268h101v-143h-578z" />
    <glyph glyph-name="three.dnom" horiz-adv-x="770" 
d="M387 -16q-135 0 -219 73.5t-88 196.5l170 31q3 -75 37.5 -118.5t97.5 -43.5q53 0 86 30.5t33 79.5q0 53 -35.5 83t-103.5 30h-60v135h60q61 0 94 29.5t33 77.5q0 47 -29.5 75.5t-75.5 28.5q-54 0 -86.5 -37.5t-32.5 -103.5l-170 29q1 112 82.5 183t206.5 71
q121 0 198 -63t77 -163q0 -62 -34.5 -110.5t-101.5 -75.5q152 -55 152 -201q0 -104 -82.5 -170.5t-208.5 -66.5z" />
    <glyph glyph-name="four.dnom" horiz-adv-x="776" 
d="M436 0v211h-375v123l328 483h203v-471h113v-135h-113v-211h-156zM436 346v88v205l-198 -293h139h59z" />
    <glyph glyph-name="five.dnom" horiz-adv-x="786" 
d="M397 -16q-129 0 -214 62.5t-99 166.5l164 45q10 -64 48 -99.5t95 -35.5q61 0 97 38.5t36 102.5q0 62 -35.5 96.5t-93.5 34.5q-84 0 -121 -84l-174 27l72 479h504v-145h-369l-14 -88q-1 -13 -12 -119q55 67 161 67q113 0 184.5 -74.5t71.5 -195.5q0 -125 -83 -201.5
t-218 -76.5z" />
    <glyph glyph-name="six.dnom" horiz-adv-x="796" 
d="M414 -16q-151 0 -237.5 105.5t-86.5 291.5q0 208 109 330.5t297 122.5q52 0 101 -11.5t71 -23.5v-156q-86 41 -172 41q-97 0 -159 -57t-75 -174q57 90 182 90q121 0 195 -74.5t74 -192.5q0 -130 -82.5 -211t-216.5 -81zM414 123q55 0 91 39.5t36 101.5q0 64 -35.5 104
t-91.5 40q-57 0 -93 -40t-36 -104q0 -63 36 -102t93 -39z" />
    <glyph glyph-name="seven.dnom" horiz-adv-x="706" 
d="M178 0q0 422 287 672h-109h-293v145h586v-149q-88 -71 -146.5 -146.5t-89 -160t-42.5 -169t-11 -192.5h-182z" />
    <glyph glyph-name="eight.dnom" horiz-adv-x="786" 
d="M393 -16q-138 0 -219.5 64.5t-81.5 174.5q0 67 39.5 120t110.5 81q-129 58 -129 182q0 100 78 164t202 64t201.5 -64t77.5 -164q0 -62 -33 -109t-94 -73q71 -27 109 -80t38 -121q0 -110 -81 -174.5t-218 -64.5zM393 469q48 0 79.5 36t31.5 87q0 46 -30.5 74t-80.5 28
q-51 0 -80.5 -28t-29.5 -74q0 -51 30.5 -87t79.5 -36zM393 123q60 0 93.5 31t33.5 86q0 54 -34.5 86t-92.5 32q-60 0 -93.5 -32t-33.5 -86q0 -55 33.5 -86t93.5 -31z" />
    <glyph glyph-name="nine.dnom" horiz-adv-x="788" 
d="M307 -16q-96 0 -180 32v164q89 -45 174 -45q91 0 154 51q72 61 75 185q-63 -88 -178 -88q-117 0 -192.5 73t-75.5 187q0 127 82 209t209 82q134 0 217 -86q106 -109 106 -312q0 -214 -103 -333t-288 -119zM379 420q56 0 90.5 38t34.5 99t-34.5 98t-90.5 37
q-53 0 -87 -37.5t-34 -97.5q0 -61 34 -99t87 -38z" />
    <glyph glyph-name="zero.numr" horiz-adv-x="860" 
d="M432 600q-160 0 -250 114.5t-90 313.5q0 192 92.5 307t247.5 115q154 0 245 -115t91 -307q0 -198 -90 -313t-246 -115zM432 743q76 0 119 75t43 210q0 127 -45 204t-117 77q-75 0 -121.5 -77t-46.5 -204q0 -134 45 -209.5t123 -75.5z" />
    <glyph glyph-name="one.numr" horiz-adv-x="585" 
d="M274 616v381v226q-41 -57 -96 -86t-112 -29v149q164 31 237 177h137v-818h-166z" />
    <glyph glyph-name="two.numr" horiz-adv-x="768" 
d="M98 616v154q74 45 124.5 78t106 76.5t88.5 81t55 82t22 88.5q0 61 -31 97t-84 36q-59 0 -91 -47.5t-28 -126.5l-168 22q-6 129 75 211t214 82q129 0 208 -72.5t79 -189.5t-95 -230q-78 -94 -266 -196h268h101v-146h-578z" />
    <glyph glyph-name="three.numr" horiz-adv-x="770" 
d="M387 600q-135 0 -218.5 74t-88.5 196l170 33q3 -75 37.5 -118.5t97.5 -43.5q53 0 86 30t33 81q0 53 -35.5 82t-103.5 29h-60v137h60q61 0 94 28.5t33 77.5q0 46 -29.5 75.5t-75.5 29.5q-54 0 -86.5 -38.5t-32.5 -105.5l-170 29q1 113 82.5 183.5t206.5 70.5
q122 0 198.5 -62.5t76.5 -162.5q0 -129 -136 -187q152 -55 152 -198q0 -105 -82 -172.5t-209 -67.5z" />
    <glyph glyph-name="four.numr" horiz-adv-x="776" 
d="M436 616v211h-375v123l328 484h203v-471h113v-136h-113v-211h-156zM436 963v88v204l-198 -292h139h59z" />
    <glyph glyph-name="five.numr" horiz-adv-x="786" 
d="M397 600q-129 0 -214.5 62.5t-98.5 168.5l164 43q10 -64 48 -98.5t95 -34.5q61 0 97 39t36 101t-35.5 97.5t-93.5 35.5q-83 0 -121 -86l-174 26l72 480h504v-144h-369l-14 -90q-1 -19 -12 -117q54 66 161 66q113 0 184.5 -73.5t71.5 -194.5q0 -126 -83 -203.5t-218 -77.5
z" />
    <glyph glyph-name="six.numr" horiz-adv-x="796" 
d="M414 600q-151 0 -237.5 106t-86.5 291q0 210 108.5 331.5t297.5 121.5q52 0 101 -11.5t71 -23.5v-153q-86 41 -172 41q-96 0 -158.5 -58t-75.5 -174q30 46 79.5 68t102.5 22q121 0 195 -75t74 -193q0 -129 -83 -211t-216 -82zM414 741q56 0 91.5 39.5t35.5 102.5
t-35.5 103t-91.5 40q-57 0 -93 -40t-36 -103q0 -64 36 -103t93 -39z" />
    <glyph glyph-name="seven.numr" horiz-adv-x="706" 
d="M178 616q0 424 287 674h-109h-293v144h586v-150q-88 -71 -146.5 -146.5t-89 -160t-42.5 -169t-11 -192.5h-182z" />
    <glyph glyph-name="eight.numr" horiz-adv-x="786" 
d="M393 600q-138 0 -219.5 65t-81.5 177q0 67 39.5 119.5t110.5 78.5q-129 58 -129 183q0 101 77.5 164t202.5 63q124 0 201.5 -63t77.5 -164q0 -61 -33 -109t-94 -74q71 -26 109 -78t38 -120q0 -112 -81 -177t-218 -65zM393 1085q48 0 79.5 37t31.5 86q0 46 -31 74.5
t-80 28.5q-50 0 -80 -28.5t-30 -74.5q0 -50 30.5 -86.5t79.5 -36.5zM393 741q60 0 93.5 30.5t33.5 84.5t-34.5 86.5t-92.5 32.5q-59 0 -93 -32t-34 -87q0 -54 33.5 -84.5t93.5 -30.5z" />
    <glyph glyph-name="nine.numr" horiz-adv-x="788" 
d="M307 600q-98 0 -180 35v162q90 -43 174 -43q95 0 154 51q72 61 75 184q-61 -90 -178 -90t-192.5 73.5t-75.5 186.5q0 129 81.5 210t209.5 81q134 0 217 -86q106 -106 106 -311q0 -214 -103.5 -333.5t-287.5 -119.5zM379 1038q56 0 90.5 37.5t34.5 98.5t-34.5 99t-90.5 38
q-53 0 -87 -38.5t-34 -98.5q0 -61 34 -98.5t87 -37.5z" />
    <glyph glyph-name="exclamdown.case" horiz-adv-x="602" 
d="M430 1434v-267h-260v267h260zM350 979l53 -553v-426h-206v432l61 547h92z" />
    <glyph glyph-name="questiondown.case" horiz-adv-x="1015" 
d="M670 1434v-267h-260v267h260zM635 979q0 -68 -12 -120t-38.5 -94t-54 -71.5t-73.5 -68.5q-44 -37 -67.5 -59.5t-51.5 -57t-40.5 -70.5t-12.5 -78q0 -97 61 -153.5t162 -56.5q116 0 179.5 76t64.5 223l194 -31q-1 -212 -119 -328.5t-321 -116.5q-183 0 -305.5 104
t-122.5 277q0 113 58 202.5t186 193.5q73 61 98.5 108.5t25.5 120.5h189z" />
    <glyph glyph-name="period.tf" 
d="M477 0v319h314v-319h-314z" />
    <glyph glyph-name="comma.tf" 
d="M455 -344l192 344h-166v319h312v-319l-191 -344h-147z" />
    <glyph glyph-name="colon.tf" 
d="M477 786v322h314v-322h-314zM477 0v319h314v-319h-314z" />
    <glyph glyph-name="semicolon.tf" 
d="M483 786v322h314v-322h-314zM459 -344l192 344h-168v319h314v-319l-191 -344h-147z" />
    <glyph glyph-name="numbersign.tf" 
d="M182 0l39 176q19 100 45 215h-160h-45v166h238l70 326h-246v172h280l80 379h181l-35 -170q-27 -116 -45 -209h147h92l80 379h180l-34 -170q-24 -101 -45 -209h157h47v-172h-239l-70 -326h248v-166h-281l-82 -391h-182l37 178q20 103 47 213h-147h-93l-81 -391h-183z
M479 557h240l69 326h-239z" />
    <glyph glyph-name="parenleft.case" horiz-adv-x="671" 
d="M610 -225q-110 22 -197.5 87.5t-144 156.5t-94 208.5t-53 237.5t-15.5 250q0 131 15.5 253t53 241.5t94 212.5t144 159.5t197.5 87.5v-174q-85 -23 -149.5 -97t-101.5 -183t-55 -234.5t-17 -265.5q0 -138 18 -261t54.5 -230t101 -180t149.5 -97v-172z" />
    <glyph glyph-name="parenright.case" horiz-adv-x="671" 
d="M61 1669q110 -22 197.5 -87.5t143.5 -156.5t93 -208.5t52.5 -237.5t15.5 -250q0 -131 -15.5 -253t-52.5 -241.5t-93 -212.5t-143.5 -159.5t-197.5 -87.5v174q85 23 150 97t102 183t55 235t17 265t-19 261.5t-55 229.5t-101 180t-149 97v172z" />
    <glyph glyph-name="braceleft.case" horiz-adv-x="729" 
d="M535 -205q-140 0 -201.5 86t-61.5 244v256q0 71 -6.5 113t-27.5 75.5t-61.5 47.5t-106.5 14v172q53 0 89.5 9.5t58.5 27t34 49.5t16 68t4 92v270q0 159 61.5 244.5t201.5 85.5h124v-156h-79q-66 0 -96.5 -36.5t-30.5 -117.5v-319q0 -71 -12.5 -121t-40.5 -84t-61.5 -55
t-86.5 -43q53 -22 86.5 -43t61.5 -55t40.5 -84t12.5 -121v-310q0 -82 30 -117.5t97 -35.5h79v-156h-124z" />
    <glyph glyph-name="braceright.case" horiz-adv-x="729" 
d="M195 1651q139 0 199.5 -85.5t60.5 -244.5v-256q0 -70 7 -112.5t28 -76t61.5 -47.5t105.5 -14v-172q-66 0 -106 -13.5t-61 -46t-28 -74.5t-7 -112v-270q0 -160 -60 -245t-200 -85h-125v156h77q68 0 97.5 35.5t29.5 117.5v320q0 71 12.5 120.5t41 83t61.5 54.5t86 43
q-53 23 -86 44t-61.5 55t-41 84.5t-12.5 121.5v309q0 83 -29.5 118.5t-97.5 35.5h-77v156h125z" />
    <glyph glyph-name="bracketleft.case" horiz-adv-x="718" 
d="M205 -205v1854h450v-156h-270v-1542h270v-156h-450z" />
    <glyph glyph-name="bracketright.case" horiz-adv-x="718" 
d="M514 1649v-1854h-451v156h271v1542h-271v156h451z" />
    <glyph glyph-name="angleleft.case" horiz-adv-x="718" 
d="M672 1589l-422 -866l420 -879l-160 -77l-455 950l457 952z" />
    <glyph glyph-name="angleright.case" horiz-adv-x="720" 
d="M211 1671l457 -952l-459 -950l-160 79l422 867l-420 878z" />
    <glyph glyph-name="uni3010.case" horiz-adv-x="768" 
d="M205 -205v1854h555q-198 -226 -290.5 -451.5t-92.5 -478.5q0 -251 91 -472.5t292 -451.5h-555z" />
    <glyph glyph-name="uni3011.case" horiz-adv-x="768" 
d="M561 1649v-1854h-555q198 226 290.5 451.5t92.5 478.5q0 251 -91 472.5t-292 451.5h555z" />
    <glyph glyph-name="uni300C.case" horiz-adv-x="727" 
d="M160 741v908h532v-160h-352v-748h-180z" />
    <glyph glyph-name="uni300D.case" horiz-adv-x="733" 
d="M571 705v-908h-532v160h352v748h180z" />
    <glyph glyph-name="uni300A.case" horiz-adv-x="1161" 
d="M672 1589l-422 -864l420 -881l-160 -77l-455 950l457 952zM1114 1589l-424 -864l422 -881l-162 -77l-454 950l456 952z" />
    <glyph glyph-name="uni300B.case" horiz-adv-x="1163" 
d="M211 1671l457 -952l-459 -950l-160 79l422 867l-420 878zM653 1671l455 -952l-457 -950l-159 79l421 865l-421 880z" />
    <glyph glyph-name="uni3014.case" horiz-adv-x="653" 
d="M317 215l297 -328l-135 -120l-342 380v1139l344 383l125 -119l-289 -319v-1016z" />
    <glyph glyph-name="uni3015.case" horiz-adv-x="651" 
d="M172 1671l342 -383v-1138l-342 -381l-125 118l287 318v1018l-297 327z" />
    <glyph glyph-name="uni300E.case" horiz-adv-x="1007" 
d="M168 551v1098h760v-430h-334v-668h-426zM324 705h125v649h325v141h-450v-790z" />
    <glyph glyph-name="uni300F.case" horiz-adv-x="1026" 
d="M838 895v-1098h-760v428h334v670h426zM680 741h-125v-649h-326v-141h451v790z" />
    <glyph glyph-name="hyphen.case" horiz-adv-x="884" 
d="M147 639v197h590v-197h-590z" />
    <glyph glyph-name="uni00AD.case" horiz-adv-x="884" 
d="M147 639v197h590v-197h-590z" />
    <glyph glyph-name="endash.case" horiz-adv-x="1288" 
d="M152 649v174h987v-174h-987z" />
    <glyph glyph-name="emdash.case" horiz-adv-x="1933" 
d="M152 649v176h1630v-176h-1630z" />
    <glyph glyph-name="guillemotleft.case" horiz-adv-x="1150" 
d="M582 1163l-271 -438l277 -451h-211l-275 445l275 444h205zM743 727l277 -453h-213l-272 445l272 444h207z" />
    <glyph glyph-name="guillemotright.case" horiz-adv-x="1150" 
d="M344 1163l274 -444l-274 -445h-205l271 439l-279 450h213zM776 1163l273 -444l-273 -445h-207l271 437l-277 452h213z" />
    <glyph glyph-name="guilsinglleft.case" horiz-adv-x="720" 
d="M311 725l277 -451h-211l-275 445l275 444h205z" />
    <glyph glyph-name="guilsinglright.case" horiz-adv-x="720" 
d="M344 1163l274 -444l-274 -445h-205l271 439l-279 450h213z" />
    <glyph glyph-name="space.tf" 
 />
    <glyph glyph-name="uni20BF.tf" 
d="M1231 395q0 -173 -108 -272t-283 -119v-219h-156v215h-123v-215h-155v215h-254v1434h254v213h155v-213h123v213h156v-220q170 -23 257 -115t87 -231q0 -136 -79 -222.5t-190 -110.5q61 -11 115.5 -38.5t100.5 -70.5t73 -106t27 -138zM356 1245v-409h357q119 0 188.5 57.5
t69.5 155.5q0 97 -68 146.5t-190 49.5h-357zM729 188q132 0 208.5 63t76.5 171t-76 168.5t-209 60.5h-373v-463h373z" />
    <glyph glyph-name="cent.tf" 
d="M580 -244v221q-185 30 -294.5 172.5t-109.5 360.5q0 211 112 355t292 175v222h147v-218q130 -17 229 -93t148 -185l-178 -70q-59 147 -199 178v-442v-289q85 16 138.5 75.5t74.5 139.5l182 -63q-47 -134 -148.5 -219.5t-246.5 -102.5v-217h-147zM580 152v426v290
q-93 -29 -148 -120t-55 -238q0 -148 55 -238.5t148 -119.5z" />
    <glyph glyph-name="currency.tf" 
d="M217 172l-129 127l166 164q-74 115 -74 256q0 138 76 260l-168 168l127 123l170 -164q118 72 254 72q128 0 246 -74l170 166l127 -123l-170 -168q80 -114 80 -258q0 -143 -78 -258l168 -164l-127 -127l-170 170q-115 -78 -248 -78q-132 0 -254 74zM637 442q114 0 190 78
t76 201t-75 200.5t-189 77.5q-117 0 -193.5 -77.5t-76.5 -202.5q0 -124 76 -200.5t192 -76.5z" />
    <glyph glyph-name="dollar.tf" 
d="M559 -213v188q-187 22 -309 127.5t-170 264.5l188 86q35 -112 107.5 -190t183.5 -103v493l-45 11q-174 36 -268 128.5t-94 264.5q0 159 110.5 269t296.5 132v189h160v-189q92 -10 169.5 -45t128.5 -84t83.5 -100t48.5 -103l-182 -86q-71 197 -248 234v-455l59 -16
q180 -44 285.5 -144t105.5 -260q0 -178 -117 -293.5t-333 -132.5v-186h-160zM559 854v168v258q-101 -13 -158 -70.5t-57 -140.5q0 -88 51 -137.5t164 -77.5zM719 152q119 13 183.5 74.5t64.5 156.5q0 180 -248 235v-208v-258z" />
    <glyph glyph-name="Euro.tf" 
d="M725 -29q-203 0 -332 134.5t-166 373.5h-168v160h146q-6 89 0 164h-146v160h166q48 237 180 368t328 131q189 0 311 -112.5t158 -282.5l-192 -59q-10 50 -30 94t-53 86t-86 67t-120 25q-103 0 -178.5 -81.5t-110.5 -235.5h236h137v-160h-393q-7 -82 0 -164h393v-160h-135
h-240q29 -161 105 -243t186 -82q68 0 119 22.5t84 65t53.5 89.5t36.5 111l192 -67q-43 -180 -169 -292t-312 -112z" />
    <glyph glyph-name="liraturkish.tf" 
d="M319 0v311v193q-41 -23 -126 -72l-58 -33v183l184 106v141l-184 -104v182l184 109v420h203v-152v-158q70 43 178 105l271 155v-184l-449 -258v-141l449 260v-186l-449 -259v-423l33 2q47 3 94.5 16.5t101 45t98 78t83 121.5t59.5 169l205 -78q-149 -549 -778 -549h-99z
" />
    <glyph glyph-name="uni20BD.tf" 
d="M721 567h-270v-137h391v-164h-391v-266h-203v266h-150v164h150v137h-150v176h150v691h473q222 0 348.5 -120t126.5 -317q0 -194 -127 -312t-348 -118zM451 1245v-502h235q144 0 220.5 70.5t76.5 183.5q0 115 -75 181.5t-222 66.5h-235z" />
    <glyph glyph-name="rupeeindian.tf" 
d="M1130 1270h-114h-232q38 -11 76.5 -44.5t63.5 -84.5h206v-162h-178q-3 -56 -21 -105t-54 -94t-99.5 -77t-150.5 -46q75 -9 127 -30t88 -59t58 -86.5t40 -121.5l90 -360h-223l-80 342q-31 136 -106.5 193t-227.5 57h-227v184h307q113 0 188.5 52.5t88.5 150.5h-584v162
h565q-62 129 -258 129h-307v164h964v-164z" />
    <glyph glyph-name="sterling.tf" 
d="M453 188h225h450v-188h-968v180q24 6 46.5 13t64.5 29t71.5 49.5t52.5 75t23 104.5q0 95 -45 180h-209v160h108q-73 121 -73 239q0 102 39 185t105.5 136t151 81t177.5 28q77 0 151.5 -24t139.5 -70t111.5 -123.5t60.5 -175.5l-205 -49q-14 92 -57.5 153.5t-97.5 86
t-116 24.5q-108 0 -177.5 -67.5t-69.5 -186.5q0 -67 20.5 -121.5t59.5 -115.5h366v-160h-278q26 -73 26 -158q0 -90 -42.5 -162.5t-110.5 -122.5z" />
    <glyph glyph-name="uni20A9.tf" 
d="M1231 795h-160l-18 -152h178v-151h-197l-59 -492h-254l-43 381q-25 223 -43 379l-49 -379l-49 -381h-258l-54 492h-184v151h168l-16 152h-152v149h137l-53 490h197l34 -439q9 -131 31.5 -418t26.5 -352l49 381l55 412h236l49 -414q20 -189 45 -379q18 231 65 787l37 422
h197l-60 -490h144v-149z" />
    <glyph glyph-name="yen.tf" 
d="M1249 1434l-407 -627h276v-158h-373v-162h373v-157h-373v-330h-204v330h-387v157h387v162h-387v158h282l-416 627h244l246 -402q46 -74 131 -219q75 134 127 221l238 400h243z" />
    <glyph glyph-name="multiply.case.tf" 
d="M266 223l-127 125l367 369l-369 366l131 129l369 -366l364 364l127 -125l-366 -364l368 -371l-131 -129l-366 369z" />
    <glyph glyph-name="plus.tf" 
d="M541 174v455h-455v186h455v455h186v-455h455v-186h-455v-455h-186z" />
    <glyph glyph-name="minus.tf" 
d="M141 631v186h985v-186h-985z" />
    <glyph glyph-name="multiply.tf" 
d="M266 223l-127 125l367 369l-369 366l131 129l369 -366l364 364l127 -125l-366 -364l368 -371l-131 -129l-366 369z" />
    <glyph glyph-name="divide.tf" 
d="M520 1010v260h234v-260h-234zM143 629v186h985v-186h-985zM520 174v262h234v-262h-234z" />
    <glyph glyph-name="equal.tf" 
d="M141 848v186h985v-186h-985zM141 399v187h985v-187h-985z" />
    <glyph glyph-name="notequal.tf" 
d="M242 174l125 225h-226v187h324l63 110q43 78 82 152h-180h-289v186h572l129 236h182l-129 -236h231v-186h-331l-60 -111l-86 -151h180h297v-187h-577l-123 -225h-184z" />
    <glyph glyph-name="greater.tf" 
d="M172 143v211l559 238q56 23 163.5 68.5t125.5 52.5q-98 40 -289 121l-559 237v219l985 -428v-291z" />
    <glyph glyph-name="less.tf" 
d="M1096 1290v-211l-559 -237q-126 -52 -287 -121q28 -12 130.5 -55t156.5 -66l559 -238v-219l-985 428v291z" />
    <glyph glyph-name="greaterequal.tf" 
d="M152 418v196l555 148q231 61 331 84q-177 47 -331 84l-555 147v205l985 -278v-306zM152 174v186h985v-186h-985z" />
    <glyph glyph-name="lessequal.tf" 
d="M1118 418l-985 278v305l985 281v-197l-553 -147q-247 -64 -334 -84q178 -48 334 -84l553 -147v-205zM133 174v186h985v-186h-985z" />
    <glyph glyph-name="plusminus.tf" 
d="M553 498v284h-410v183h410v305h166v-305h409v-183h-409v-284h-166zM139 174v186h987v-186h-987z" />
    <glyph glyph-name="approxequal.tf" 
d="M852 762q-81 0 -209 55l-65 31q-105 47 -170 47q-103 0 -195 -102l-111 143q65 76 152 118t164 42q81 0 207 -58l65 -28q109 -49 172 -49q98 0 195 104l110 -143q-66 -78 -152 -119t-163 -41zM852 311q-79 0 -209 56l-65 30q-105 47 -170 47q-103 0 -195 -102l-111 143
q65 76 152 118t164 42q83 0 207 -57l65 -29q109 -49 172 -49q98 0 195 104l110 -143q-66 -78 -152 -119t-163 -41z" />
    <glyph glyph-name="logicalnot.tf" 
d="M944 324v309h-811v186h979v-495h-168z" />
    <glyph glyph-name="percent.tf" 
d="M326 786q-122 0 -199.5 93.5t-77.5 246.5q0 151 75.5 243.5t201.5 92.5q125 0 198.5 -93.5t73.5 -242.5q0 -153 -73 -246.5t-199 -93.5zM182 0l742 1434h163l-739 -1434h-166zM324 922q112 0 112 204q0 98 -29 149.5t-81 51.5q-53 0 -84 -52t-31 -149q0 -204 113 -204z
M952 -29q-124 0 -201 94t-77 248q0 150 74.5 242t203.5 92q125 0 198 -93t73 -241q0 -154 -72.5 -248t-198.5 -94zM950 106q111 0 111 207q0 97 -28.5 148t-80.5 51q-55 0 -85.5 -51t-30.5 -148q0 -104 27.5 -155.5t86.5 -51.5z" />
    <glyph glyph-name="perthousand.tf" 
d="M250 786q-109 0 -172.5 92.5t-63.5 247.5q0 154 61 245t175 91q112 0 170.5 -92t58.5 -244q0 -156 -58.5 -248t-170.5 -92zM788 1434h158l-743 -1434h-160zM250 1327q-80 0 -80 -201q0 -106 17 -155t61 -49q41 0 58.5 49.5t17.5 154.5q0 201 -74 201zM1038 647
q105 0 161 -92t56 -242q0 -157 -55.5 -249.5t-161.5 -92.5q-96 0 -153 82q-59 -82 -152 -82q-102 0 -162.5 93t-60.5 249q0 151 59 242.5t164 91.5q96 0 152 -72q56 72 153 72zM739 106q43 0 59.5 49.5t16.5 157.5q0 102 -17 150.5t-57 48.5q-42 0 -59.5 -49t-17.5 -150
q0 -108 16 -157.5t59 -49.5zM1026 106q43 0 59.5 49.5t16.5 157.5q0 102 -17 150.5t-57 48.5q-43 0 -61.5 -49t-18.5 -150q0 -108 17 -157.5t61 -49.5z" />
    <glyph glyph-name="at.case" horiz-adv-x="1847" 
d="M963 -137q-405 0 -634 228t-229 622q0 193 63.5 353t176 269t270 169.5t342.5 60.5q180 0 334.5 -58t262.5 -160t169.5 -245.5t61.5 -308.5q0 -237 -112.5 -385t-281.5 -148q-186 0 -225 150q-102 -154 -278 -154q-155 0 -248.5 124t-93.5 312q0 192 96 319.5t248 127.5
q173 0 268 -135v110h166v-622q0 -78 82 -78q88 0 141 105.5t53 277.5q0 271 -175.5 439.5t-467.5 168.5q-303 0 -485 -184.5t-182 -507.5q0 -325 180.5 -507.5t497.5 -182.5q282 0 501 131l72 -150q-247 -141 -573 -141zM932 406q103 0 166 87t63 226q0 125 -60 201.5
t-159 76.5q-102 0 -162.5 -79.5t-60.5 -208.5q0 -136 58 -219.5t155 -83.5z" />
    <glyph glyph-name="registered.case" horiz-adv-x="1792" 
d="M897 -53q-165 0 -313.5 62t-255 168t-168.5 251.5t-62 306.5t62 307.5t168.5 253t255 169.5t313.5 63q164 0 312.5 -63t255 -169.5t169 -253t62.5 -307.5q0 -215 -106 -396t-290 -286.5t-403 -105.5zM897 88q181 0 329.5 87.5t232 236t83.5 323.5q0 176 -83.5 325
t-232 236.5t-329.5 87.5t-330 -87.5t-233 -236.5t-84 -325q0 -175 84 -323.5t233 -236t330 -87.5zM592 336v825h358q125 0 204 -58t79 -165q0 -90 -58.5 -141.5t-148.5 -71.5q69 -13 108.5 -61t59.5 -142l41 -186h-158l-35 190q-17 89 -56 120.5t-120 31.5h-131v-342h-143z
M735 799h189q159 0 159 121q0 61 -39 88.5t-120 27.5h-189v-237z" />
    <glyph glyph-name="section.tf" 
d="M629 -428q-97 0 -177 27.5t-133 75t-86 107t-45 128.5l191 76q53 -232 250 -232q103 0 158 48t55 124q0 75 -39 116t-125 69l-295 100q-129 44 -195.5 121t-66.5 196q0 104 60.5 189t154.5 125q-107 90 -107 264q0 69 25.5 132t74 113.5t126.5 80.5t174 30
q97 0 176 -27.5t131.5 -75t84.5 -106.5t44 -127l-191 -75q-53 231 -245 231q-95 0 -147 -49.5t-52 -122.5q0 -80 38 -118t128 -68l295 -101q131 -45 195.5 -120.5t64.5 -192.5q0 -108 -58.5 -191.5t-152.5 -125.5q102 -99 102 -259q0 -72 -26.5 -136t-76 -115t-130 -81
t-180.5 -30zM803 272q147 75 147 211q0 60 -37 99.5t-114 64.5l-219 74q-68 23 -111 41q-145 -76 -145 -215q0 -59 36.5 -96t114.5 -64l219 -74q54 -17 109 -41z" />
    <glyph glyph-name="degree.tf" 
d="M633 895q-153 0 -251.5 99.5t-98.5 244.5q0 146 100 245t252 99t252 -99t100 -245q0 -148 -99.5 -246t-254.5 -98zM635 1047q80 0 128 53t48 141q0 83 -48.5 134.5t-127.5 51.5q-77 0 -126.5 -51.5t-49.5 -134.5q0 -88 49 -141t127 -53z" />
    <glyph glyph-name="uni030C.alt" horiz-adv-x="0" 
d="M-272 965l135 241h-117v228h221v-228l-135 -241h-104z" />
    </font>
</defs>
</svg>
