<svg width="1231" height="77" viewBox="0 0 1231 77" fill="none" xmlns="http://www.w3.org/2000/svg">
<path fill-rule="evenodd" clip-rule="evenodd" d="M0 5.91061e-05H1230.38V25.9138C1230.38 53.2979 1208.35 75.5872 1180.97 75.9102L1088.87 76.9966C1080.8 77.0918 1072.82 75.2303 1065.62 71.5712L945.442 10.4747C931.203 3.23627 914.363 3.2362 900.124 10.4747L779.943 71.5712C772.745 75.2303 764.768 77.0918 756.695 76.9966L615.189 75.3273L473.683 76.9966C465.609 77.0918 457.632 75.2303 450.434 71.5712L330.253 10.4747C316.014 3.23627 299.174 3.2362 284.936 10.4747L164.754 71.5712C157.557 75.2303 149.58 77.0918 141.506 76.9966L49.4103 75.9102C22.028 75.5872 0 53.2979 0 25.9136V5.91061e-05Z" fill="#F8F8F9"/>
</svg>
