<svg width="1231" height="77" viewBox="0 0 1231 77" fill="none" xmlns="http://www.w3.org/2000/svg">
<path fill-rule="evenodd" clip-rule="evenodd" d="M0 0H1230.38V25.9137C1230.38 53.2978 1208.35 75.5871 1180.97 75.9101L1088.87 76.9965C1080.8 77.0917 1072.82 75.2302 1065.62 71.5711L945.442 10.4746C931.203 3.23621 914.363 3.23614 900.124 10.4746L779.943 71.5711C772.745 75.2302 764.768 77.0917 756.695 76.9965L615.189 75.3272L473.683 76.9965C465.609 77.0917 457.632 75.2302 450.434 71.5711L330.253 10.4746C316.014 3.23621 299.174 3.23614 284.936 10.4746L164.754 71.5711C157.557 75.2302 149.58 77.0917 141.506 76.9965L49.4103 75.9101C22.028 75.5871 0 53.2978 0 25.9135V0Z" fill="#17171B"/>
</svg>
