<svg width="69" height="69" viewBox="0 0 69 69" fill="none" xmlns="http://www.w3.org/2000/svg">
<path d="M15.6661 35.2289C16.2053 34.9626 16.786 34.7901 17.3831 34.7189C17.4959 32.3169 18.1163 29.966 19.2034 27.8212C20.2905 25.6763 21.8196 23.786 23.6901 22.2749L23.7241 22.1049C23.9165 21.1388 24.2978 20.2202 24.8461 19.4019C22.0906 21.0352 19.7999 23.3478 18.1928 26.1186C16.5856 28.8895 15.7157 32.0261 15.6661 35.2289ZM34.8591 52.4839C34.6952 52.4981 34.5307 52.5037 34.3661 52.5009C34.1621 52.4839 33.9751 52.5009 33.7541 52.4839C31.7957 52.4202 29.8631 52.0175 28.0421 51.2939L28.4331 53.2489C30.1285 53.8178 31.8986 54.1329 33.6861 54.1839C33.8901 54.2009 34.1281 54.2009 34.3661 54.2009C34.5701 54.2009 34.7911 54.2009 34.9441 54.1839C36.1348 54.1572 37.3196 54.0091 38.4801 53.7419L38.8541 51.9059C37.5507 52.2535 36.2111 52.4475 34.8625 52.4839H34.8591ZM40.9961 18.0249C41.8381 18.7978 42.4948 19.7508 42.9171 20.8129C45.4436 22.2894 47.5478 24.391 49.0275 26.9156C50.5071 29.4403 51.3125 32.3031 51.3661 35.2289C51.9957 35.5259 52.5659 35.9349 53.0491 36.4359C53.0661 36.1299 53.0661 35.8239 53.0661 35.5009C53.0643 31.7075 51.9087 28.0043 49.753 24.883C47.5972 21.7617 44.5431 19.3698 40.9961 18.0249Z" fill="#7D91CB"/>
<path d="M56.9283 51.3281C56.6545 49.9825 55.9249 48.7725 54.8627 47.9023C53.8004 47.032 52.4705 46.5548 51.0973 46.5511H48.8159C49.9431 46.5511 51.0241 46.1033 51.8212 45.3063C52.6182 44.5093 53.0659 43.4282 53.0659 42.3011V40.6011C53.0659 39.4739 52.6182 38.3929 51.8212 37.5959C51.0241 36.7988 49.9431 36.3511 48.8159 36.3511C47.6888 36.3511 46.6078 36.7988 45.8107 37.5959C45.0137 38.3929 44.5659 39.4739 44.5659 40.6011V42.3011C44.5659 43.4282 45.0137 44.5093 45.8107 45.3063C46.6078 46.1033 47.6888 46.5511 48.8159 46.5511H46.5413C45.1791 46.5497 43.8578 47.017 42.7991 47.8744C41.7405 48.7318 41.009 49.9272 40.7273 51.2601C40.7273 51.2771 40.7103 51.3111 40.7103 51.3281L40.3363 53.2321L39.2823 58.4511H58.3563L56.9283 51.3281ZM46.2659 42.3011V40.6011C46.2659 39.9248 46.5346 39.2762 47.0128 38.798C47.491 38.3197 48.1396 38.0511 48.8159 38.0511C49.4923 38.0511 50.1409 38.3197 50.6191 38.798C51.0973 39.2762 51.3659 39.9248 51.3659 40.6011V42.3011C51.3659 42.9774 51.0973 43.626 50.6191 44.1042C50.1409 44.5824 49.4923 44.8511 48.8159 44.8511C48.1396 44.8511 47.491 44.5824 47.0128 44.1042C46.5346 43.626 46.2659 42.9774 46.2659 42.3011ZM41.3563 56.7511L42.2233 52.4671L42.3763 51.6681C42.4871 51.1066 42.7129 50.5741 43.0393 50.1041C43.5816 49.2859 44.4036 48.6935 45.3513 48.4381C45.7362 48.3154 46.1375 48.2524 46.5413 48.2511H51.0973C52.0795 48.2517 53.0311 48.5924 53.7904 49.2153C54.5497 49.8383 55.0698 50.705 55.2623 51.6681L56.2823 56.7511H41.3563Z" fill="#002979"/>
<path d="M26.5667 52.5178L26.3287 51.3278C26.2605 50.9841 26.158 50.6481 26.0227 50.3248C25.6493 49.3796 25.0413 48.5449 24.2561 47.8995C23.471 47.2541 22.5344 46.8193 21.5347 46.6358H21.5177C21.1803 46.5822 20.8394 46.5538 20.4977 46.5508H18.2163C19.3435 46.5508 20.4245 46.1031 21.2215 45.306C22.0186 44.509 22.4663 43.428 22.4663 42.3008V40.6008C22.4663 39.4737 22.0186 38.3927 21.2215 37.5956C20.4245 36.7986 19.3435 36.3508 18.2163 36.3508C17.0892 36.3508 16.0082 36.7986 15.2111 37.5956C14.4141 38.3927 13.9663 39.4737 13.9663 40.6008V42.3008C13.9663 43.428 14.4141 44.509 15.2111 45.306C16.0082 46.1031 17.0892 46.5508 18.2163 46.5508H15.9417C14.5677 46.5513 13.2362 47.0274 12.1733 47.8982C11.1104 48.769 10.3816 49.9808 10.1107 51.3278L8.68274 58.4508H27.7567L26.5667 52.5178ZM15.6663 42.3008V40.6008C15.6663 39.9245 15.935 39.2759 16.4132 38.7977C16.8914 38.3195 17.54 38.0508 18.2163 38.0508C18.8926 38.0508 19.5412 38.3195 20.0195 38.7977C20.4977 39.2759 20.7663 39.9245 20.7663 40.6008V42.3008C20.7663 42.9771 20.4977 43.6257 20.0195 44.104C19.5412 44.5822 18.8926 44.8508 18.2163 44.8508C17.54 44.8508 16.8914 44.5822 16.4132 44.104C15.935 43.6257 15.6663 42.9771 15.6663 42.3008ZM10.7567 56.7508L11.7767 51.6678C11.9692 50.7047 12.4894 49.838 13.2487 49.2151C14.008 48.5922 14.9596 48.2514 15.9417 48.2508H20.4977C21.4799 48.2514 22.4315 48.5922 23.1908 49.2151C23.9501 49.838 24.4702 50.7047 24.6627 51.6678L25.6827 56.7508H10.7567Z" fill="#002979"/>
<path d="M41.6285 22.4277C41.352 21.0834 40.6217 19.875 39.5601 19.0053C38.4984 18.1355 37.17 17.6573 35.7975 17.6507H33.5161C34.6433 17.6507 35.7243 17.2029 36.5213 16.4059C37.3184 15.6089 37.7661 14.5279 37.7661 13.4007V11.7007C37.7661 10.5735 37.3184 9.49251 36.5213 8.69548C35.7243 7.89845 34.6433 7.45068 33.5161 7.45068C32.389 7.45068 31.308 7.89845 30.5109 8.69548C29.7139 9.49251 29.2661 10.5735 29.2661 11.7007V13.4007C29.2661 14.5279 29.7139 15.6089 30.5109 16.4059C31.308 17.2029 32.389 17.6507 33.5161 17.6507H31.2415C30.1877 17.6555 29.1538 17.9378 28.2436 18.4689C27.3334 19.0001 26.5791 19.7615 26.0565 20.6767C25.7439 21.2197 25.5255 21.8117 25.4105 22.4277L23.9825 29.5507H43.0565L41.6285 22.4277ZM30.9661 13.4007V11.7007C30.9661 11.0244 31.2348 10.3758 31.713 9.89756C32.1912 9.41934 32.8398 9.15068 33.5161 9.15068C34.1924 9.15068 34.841 9.41934 35.3193 9.89756C35.7975 10.3758 36.0661 11.0244 36.0661 11.7007V13.4007C36.0661 14.077 35.7975 14.7256 35.3193 15.2038C34.841 15.682 34.1924 15.9507 33.5161 15.9507C32.8398 15.9507 32.1912 15.682 31.713 15.2038C31.2348 14.7256 30.9661 14.077 30.9661 13.4007ZM26.0565 27.8507L27.0765 22.7677C27.269 21.8046 27.7892 20.9379 28.5485 20.315C29.3078 19.692 30.2594 19.3513 31.2415 19.3507H35.7975C36.7797 19.3513 37.7313 19.692 38.4906 20.315C39.2499 20.9379 39.77 21.8046 39.9625 22.7677L40.9825 27.8507H26.0565Z" fill="#002979"/>
</svg>
