<svg viewBox="0 0 113 113" fill="none" xmlns="http://www.w3.org/2000/svg"><circle cx="56.564" cy="56.506" r="56" fill="#F2F5FF"/><path d="M61.128 60.782c.004-.554.048-1.107.13-1.656a10.771 10.771 0 0 1-6.63.574 10.612 10.612 0 0 1-5.666-3.423 10.262 10.262 0 0 1-2.46-6.064 10.22 10.22 0 0 1 1.721-6.304 10.546 10.546 0 0 1 5.22-4.049 10.775 10.775 0 0 1 6.653-.19 10.58 10.58 0 0 1 5.45 3.744 10.239 10.239 0 0 1 2.093 6.195c0 .206-.02.406-.032.608a12.245 12.245 0 0 1 1.654-.706 11.857 11.857 0 0 0-2.395-7.079 12.247 12.247 0 0 0-6.195-4.328 12.481 12.481 0 0 0-7.606.092 12.23 12.23 0 0 0-6.084 4.476 11.849 11.849 0 0 0-2.217 7.134 11.864 11.864 0 0 0 2.504 7.043 12.257 12.257 0 0 0 6.261 4.235 12.48 12.48 0 0 0 7.604-.205c0-.032-.005-.064-.005-.097Z" fill="#00297A"/><path d="M64.52 68.866v9.038l-5.634-2.723a4.266 4.266 0 0 0-3.722 0l-5.62 2.721V64.66a17.815 17.815 0 0 0 7.487 1.653 17.644 17.644 0 0 0 5.208-.805c-.217-.484-.402-.98-.551-1.487a16.293 16.293 0 0 1-9.65-.09c-3.128-1.003-5.854-2.929-7.797-5.507a14.998 14.998 0 0 1-3.04-8.872 14.98 14.98 0 0 1 2.851-8.931c1.888-2.617 4.573-4.596 7.679-5.662a16.292 16.292 0 0 1 9.645-.282c3.167.883 5.97 2.702 8.018 5.203a15.034 15.034 0 0 1 3.4 8.748c.29-.02.578-.043.872-.043.268 0 .529.023.792.04a16.538 16.538 0 0 0-2.638-8.22 17.24 17.24 0 0 0-6.474-5.897 17.909 17.909 0 0 0-8.63-2.045 17.88 17.88 0 0 0-8.552 2.335 17.187 17.187 0 0 0-6.258 6.111 16.51 16.51 0 0 0-2.341 8.304 16.496 16.496 0 0 0 2.181 8.344 17.157 17.157 0 0 0 6.139 6.223v16.728l8.018-3.882a2.56 2.56 0 0 1 2.24-.003l8.037 3.885V70.322a12.384 12.384 0 0 1-1.66-1.456Z" fill="#00297A"/><path d="M73.345 71.044c-2.13 0-4.21-.62-5.981-1.78a10.604 10.604 0 0 1-3.965-4.737 10.367 10.367 0 0 1-.613-6.099 10.495 10.495 0 0 1 2.947-5.405 10.833 10.833 0 0 1 5.512-2.889 10.963 10.963 0 0 1 6.22.601 10.721 10.721 0 0 1 4.83 3.888 10.41 10.41 0 0 1 1.815 5.865 10.465 10.465 0 0 1-3.157 7.46 10.886 10.886 0 0 1-7.608 3.096Zm0-19.488a9.237 9.237 0 0 0-5.06 1.505 8.971 8.971 0 0 0-3.356 4.009 8.77 8.77 0 0 0-.518 5.16 8.88 8.88 0 0 0 2.493 4.574 9.166 9.166 0 0 0 4.664 2.444 9.277 9.277 0 0 0 5.263-.508 9.073 9.073 0 0 0 4.088-3.29 8.81 8.81 0 0 0 1.535-4.962 8.856 8.856 0 0 0-2.672-6.313 9.212 9.212 0 0 0-6.437-2.62Z" fill="#7D91CB"/><path d="M71.707 64.492a.884.884 0 0 1-.314-.057.824.824 0 0 1-.265-.163l-4.094-3.74 1.157-1.057 3.516 3.211 6.79-6.203 1.158 1.058-7.37 6.732a.826.826 0 0 1-.265.162.886.886 0 0 1-.313.056Z" fill="#7D91CB"/></svg>