<svg width="46" height="49" viewBox="0 0 46 49" fill="none" xmlns="http://www.w3.org/2000/svg">
<path d="M22.1279 28.9267C22.1322 28.3727 22.1757 27.8196 22.2582 27.2714C20.1688 28.157 17.8438 28.358 15.6286 27.8446C13.4134 27.3312 11.4263 26.1307 9.96233 24.4216C8.49838 22.7125 7.63575 20.5859 7.50262 18.3577C7.36948 16.1295 7.97292 13.9187 9.2233 12.0536C10.4737 10.1886 12.3043 8.76879 14.4432 8.00522C16.582 7.24165 18.915 7.17503 21.0956 7.81527C23.2762 8.4555 25.1879 9.76841 26.5469 11.559C27.9058 13.3495 28.6394 15.5222 28.6387 17.7542C28.6387 17.9596 28.6192 18.1601 28.6073 18.3624C29.14 18.0872 29.6928 17.8512 30.2612 17.6565C30.2491 15.1074 29.4102 12.6281 27.8659 10.5774C26.3217 8.52672 24.1521 7.01093 21.6712 6.24932C19.1903 5.48771 16.5266 5.51979 14.0654 6.3409C11.6043 7.16201 9.47341 8.72958 7.98098 10.8168C6.48855 12.9041 5.71199 15.4028 5.76365 17.9515C5.81531 20.5001 6.6925 22.9666 8.26833 24.9941C9.84416 27.0215 12.0369 28.5048 14.5294 29.2294C17.0218 29.954 19.6847 29.8822 22.1328 29.0246C22.1327 28.992 22.1279 28.9602 22.1279 28.9267Z" fill="#00297A"/>
<path d="M25.5201 37.0108V46.0488L19.8862 43.3262C19.3085 43.046 18.6714 42.9001 18.0253 42.9001C17.3793 42.9001 16.7421 43.046 16.1644 43.3262L10.5443 46.0474V32.8036C12.8811 33.8897 15.4393 34.4548 18.0311 34.4574C19.7995 34.4507 21.5563 34.1789 23.2389 33.6516C23.0215 33.1685 22.8373 32.672 22.6875 32.1653C19.54 33.1104 16.1664 33.0789 13.0383 32.0754C9.91016 31.0718 7.184 29.1463 5.24098 26.5681C3.29795 23.9899 2.23521 20.8878 2.20136 17.6958C2.16751 14.5037 3.16424 11.3812 5.05217 8.7648C6.94011 6.14844 9.62486 4.16907 12.731 3.10347C15.8372 2.03786 19.2094 1.93929 22.3763 2.82155C25.5431 3.7038 28.3461 5.52277 30.3935 8.0241C32.4408 10.5254 33.63 13.5841 33.7949 16.7723C34.084 16.7525 34.3721 16.7293 34.6664 16.7293C34.9336 16.7293 35.1949 16.7522 35.4579 16.7683C35.3251 13.8538 34.4162 11.0222 32.8196 8.54869C31.223 6.07516 28.9931 4.04385 26.3464 2.65217C23.6998 1.26049 20.7265 0.555794 17.7156 0.606566C14.7047 0.657337 11.7586 1.46185 9.16357 2.94192C6.56854 4.42198 4.4129 6.52725 2.90614 9.05311C1.39939 11.579 0.592785 14.4395 0.564723 17.3567C0.536661 20.2739 1.2881 23.1485 2.746 25.7011C4.2039 28.2537 6.31867 30.3975 8.88477 31.9242V48.6523L16.903 44.7699C17.2503 44.6002 17.6337 44.5115 18.0227 44.5109C18.4116 44.5104 18.7953 44.598 19.1431 44.7667L27.1797 48.652V38.4669C26.5827 38.0305 26.0273 37.5432 25.5201 37.0108Z" fill="#00297A"/>
<path d="M34.3447 39.1888C32.2156 39.1888 30.1343 38.5697 28.3639 37.4098C26.5936 36.2499 25.2138 34.6012 24.399 32.6724C23.5843 30.7435 23.3711 28.621 23.7864 26.5733C24.2018 24.5257 25.2271 22.6448 26.7326 21.1685C28.2382 19.6922 30.1563 18.6868 32.2446 18.2795C34.3328 17.8722 36.4973 18.0812 38.4644 18.8802C40.4315 19.6792 42.1127 21.0322 43.2956 22.7681C44.4785 24.504 45.1099 26.5449 45.1099 28.6327C45.1066 31.4314 43.9714 34.1145 41.9532 36.0934C39.9351 38.0724 37.1988 39.1856 34.3447 39.1888ZM34.3447 19.7007C32.5432 19.7007 30.782 20.2245 29.2841 21.206C27.7861 22.1875 26.6186 23.5825 25.9292 25.2146C25.2397 26.8467 25.0593 28.6426 25.4108 30.3753C25.7623 32.1079 26.6298 33.6995 27.9037 34.9487C29.1776 36.1978 30.8007 37.0485 32.5677 37.3932C34.3346 37.7378 36.1661 37.5609 37.8306 36.8849C39.495 36.2088 40.9177 35.064 41.9186 33.5951C42.9195 32.1262 43.4537 30.3993 43.4537 28.6327C43.4507 26.2647 42.49 23.9945 40.7824 22.3201C39.0748 20.6456 36.7597 19.7036 34.3447 19.7007Z" fill="#7D91CB"/>
<path d="M32.7067 32.6365C32.5991 32.6366 32.4927 32.6173 32.3933 32.5797C32.294 32.5421 32.2037 32.487 32.1278 32.4175L28.0337 28.6777L29.1915 27.6199L32.7067 30.8312L39.4971 24.6284L40.6549 25.6862L33.2856 32.4178C33.2096 32.4873 33.1194 32.5423 33.02 32.5799C32.9207 32.6174 32.8142 32.6366 32.7067 32.6365Z" fill="#7D91CB"/>
</svg>
