<svg viewBox="0 0 113 113" fill="none" xmlns="http://www.w3.org/2000/svg"><circle cx="56.366" cy="56.506" r="56" fill="#F2F5FF"/><g style="mix-blend-mode:multiply"><path fill="#fff" d="M32.366 32.506h48v48h-48z"/><path fill-rule="evenodd" clip-rule="evenodd" d="M67.21 55.104c.059.46.092.927.092 1.402 0 6.04-4.896 10.936-10.936 10.936s-10.935-4.896-10.935-10.936S50.327 45.57 56.366 45.57c3.184 0 6.05 1.362 8.048 3.533l-8.048 8.012-3.917-3.9c-.589-.585-1.615-.586-2.205 0a1.539 1.539 0 0 0-.457 1.098c0 .415.162.805.457 1.098l5.02 4.997c.294.294.686.455 1.102.455.41 0 .812-.166 1.102-.455l16.786-16.71a22.106 22.106 0 0 0-1.996-2.405 21.936 21.936 0 0 0-15.892-6.787c-12.15 0-22 9.85-22 22s9.85 22 22 22 22-9.85 22-22c0-3.633-.882-7.059-2.442-10.078l-8.714 8.676Z" fill="#00297A"/></g></svg>