<svg width="45" height="45" viewBox="0 0 45 45" fill="none" xmlns="http://www.w3.org/2000/svg">
<path fill-rule="evenodd" clip-rule="evenodd" d="M33.2096 21.2491C33.2685 21.7084 33.302 22.1757 33.302 22.6509C33.302 28.6905 28.4059 33.5866 22.3662 33.5866C16.3266 33.5866 11.4307 28.6905 11.4307 22.6509C11.4307 16.6113 16.3266 11.7152 22.3662 11.7152C25.55 11.7152 28.4151 13.0767 30.4137 15.2481L22.3662 23.2598L18.449 19.3608C17.8604 18.7748 16.8335 18.7738 16.2439 19.3608C15.9493 19.654 15.7872 20.0438 15.7872 20.4584C15.7872 20.8736 15.9493 21.2633 16.2439 21.5561L21.2632 26.5535C21.5582 26.8468 21.9497 27.0083 22.3662 27.0083C22.7764 27.0083 23.1781 26.8424 23.4685 26.5535L40.2541 9.8423C39.6456 8.99395 38.9785 8.19049 38.2582 7.43819C34.2535 3.2558 28.6144 0.650879 22.3662 0.650879C10.2161 0.650879 0.366211 10.5005 0.366211 22.6509C0.366211 34.801 10.2161 44.6509 22.3662 44.6509C34.5165 44.6509 44.3662 34.801 44.3662 22.6509C44.3662 19.0183 43.4835 15.5925 41.9242 12.5732L33.2096 21.2491Z" fill="#00297A"/>
</svg>
