<svg width="73" height="73" viewBox="0 0 73 73" fill="none" xmlns="http://www.w3.org/2000/svg">
<path d="M58.731 15.3155L50.631 23.4155L51.9038 24.6883L60.0038 16.5883L58.731 15.3155Z" fill="#002979"/>
<path d="M15.9028 15.3156L14.63 16.5884L22.7301 24.6884L24.0028 23.4156L15.9028 15.3156Z" fill="#002979"/>
<path d="M38.6663 11.4509H36.8663V22.2509H38.6663V11.4509Z" fill="#002979"/>
<path d="M36.8665 52.8505C34.7305 52.8505 32.6424 52.2171 30.8664 51.0304C29.0903 49.8436 27.7061 48.1569 26.8886 46.1835C26.0712 44.21 25.8573 42.0385 26.2741 39.9435C26.6908 37.8485 27.7194 35.9241 29.2298 34.4137C30.7402 32.9033 32.6646 31.8747 34.7596 31.458C36.8546 31.0413 39.0261 31.2552 40.9995 32.0726C42.973 32.89 44.6597 34.2743 45.8464 36.0503C47.0331 37.8264 47.6665 39.9145 47.6665 42.0505C47.6632 44.9138 46.5243 47.6589 44.4996 49.6836C42.4749 51.7082 39.7298 52.8472 36.8665 52.8505ZM36.8665 33.0505C35.0865 33.0505 33.3464 33.5783 31.8664 34.5673C30.3864 35.5562 29.2328 36.9618 28.5516 38.6063C27.8704 40.2509 27.6922 42.0605 28.0395 43.8063C28.3867 45.5521 29.2439 47.1558 30.5026 48.4145C31.7612 49.6731 33.3649 50.5303 35.1107 50.8776C36.8565 51.2248 38.6661 51.0466 40.3107 50.3654C41.9552 49.6842 43.3608 48.5307 44.3498 47.0506C45.3387 45.5706 45.8665 43.8305 45.8665 42.0505C45.8637 39.6644 44.9145 37.3769 43.2273 35.6897C41.5401 34.0025 39.2526 33.0534 36.8665 33.0505Z" fill="#002979"/>
<path d="M36.8661 57.3513H36.4053C31.4505 57.3262 26.6014 55.917 22.405 53.2825C18.2086 50.6481 14.832 46.8933 12.6561 42.4419L12.4689 42.0513L12.6489 41.6607C14.8268 37.2088 18.2055 33.4541 22.4038 30.8203C26.6021 28.1865 31.4529 26.7784 36.4089 26.7549H36.8733C41.899 26.7251 46.8321 28.1065 51.1114 30.742C55.3908 33.3774 58.8445 37.1611 61.0797 41.6625L61.2597 42.0549L61.0797 42.4473C58.8411 46.9472 55.3855 50.7292 51.1053 53.3638C46.8252 55.9983 41.892 57.3798 36.8661 57.3513ZM14.4705 42.0513C16.5435 46.0968 19.6878 49.4953 23.5603 51.8759C27.4328 54.2566 31.8848 55.5279 36.4305 55.5513H36.8607C41.4752 55.579 46.0081 54.3335 49.9606 51.9517C53.913 49.5699 57.132 46.1442 59.2635 42.0513C57.1349 37.9572 53.9172 34.5303 49.9653 32.1482C46.0133 29.7662 41.4803 28.5215 36.8661 28.5513H36.4323C31.8862 28.5739 27.4337 29.8449 23.5608 32.2256C19.6878 34.6063 16.5433 38.0052 14.4705 42.0513Z" fill="#7D91CB"/>
</svg>
