<svg viewBox="0 0 113 113" fill="none" xmlns="http://www.w3.org/2000/svg"><circle cx="56.366" cy="56.506" r="56" fill="#F2F5FF"/><path d="M37.666 57.084a5.293 5.293 0 0 1 1.717-.51A17.025 17.025 0 0 1 45.69 44.13l.034-.17a7.48 7.48 0 0 1 1.122-2.703 18.734 18.734 0 0 0-9.18 15.827ZM56.86 74.339c-.164.014-.328.02-.493.017-.204-.017-.39 0-.612-.017a16.964 16.964 0 0 1-5.712-1.19l.391 1.955c1.696.569 3.466.884 5.253.935.204.017.442.017.68.017.204 0 .425 0 .578-.017a17.509 17.509 0 0 0 3.536-.442l.374-1.836a17.302 17.302 0 0 1-3.992.578h-.003Zm6.137-34.46a7.592 7.592 0 0 1 1.921 2.789 17.06 17.06 0 0 1 8.45 14.416c.629.297 1.199.706 1.682 1.207.017-.306.017-.612.017-.935a18.7 18.7 0 0 0-12.07-17.476Z" fill="#7D91CB"/><path d="M78.928 73.183a5.967 5.967 0 0 0-5.83-4.777h-2.282a4.25 4.25 0 0 0 4.25-4.25v-1.7a4.25 4.25 0 1 0-8.5 0v1.7a4.25 4.25 0 0 0 4.25 4.25H68.54a5.936 5.936 0 0 0-5.814 4.71c0 .016-.017.05-.017.067l-.374 1.904-1.054 5.22h19.074l-1.428-7.124Zm-10.662-9.027v-1.7a2.55 2.55 0 0 1 5.1 0v1.7a2.55 2.55 0 1 1-5.1 0Zm-4.91 14.45.867-4.284.153-.799a4.15 4.15 0 0 1 .663-1.564 4.032 4.032 0 0 1 2.312-1.666 3.96 3.96 0 0 1 1.19-.187h4.556a4.25 4.25 0 0 1 4.165 3.417l1.02 5.083H63.356ZM48.567 74.373l-.238-1.19a5.24 5.24 0 0 0-.306-1.003 5.986 5.986 0 0 0-4.488-3.69h-.017a6.886 6.886 0 0 0-1.02-.084h-2.282a4.25 4.25 0 0 0 4.25-4.25v-1.7a4.25 4.25 0 1 0-8.5 0v1.7a4.25 4.25 0 0 0 4.25 4.25h-2.274a5.95 5.95 0 0 0-5.831 4.777l-1.428 7.123h19.074l-1.19-5.933Zm-10.9-10.217v-1.7a2.55 2.55 0 0 1 5.1 0v1.7a2.55 2.55 0 1 1-5.1 0Zm-4.91 14.45 1.02-5.083a4.25 4.25 0 0 1 4.165-3.417h4.556a4.25 4.25 0 0 1 4.165 3.417l1.02 5.083H32.757ZM63.629 44.283a5.982 5.982 0 0 0-5.831-4.777h-2.282a4.25 4.25 0 0 0 4.25-4.25v-1.7a4.25 4.25 0 1 0-8.5 0v1.7a4.25 4.25 0 0 0 4.25 4.25h-2.274a6.002 6.002 0 0 0-5.185 3.026 5.551 5.551 0 0 0-.647 1.75l-1.427 7.124h19.074l-1.428-7.123Zm-10.663-9.027v-1.7a2.55 2.55 0 0 1 5.1 0v1.7a2.55 2.55 0 1 1-5.1 0Zm-4.91 14.45 1.02-5.083a4.25 4.25 0 0 1 4.166-3.417h4.556a4.25 4.25 0 0 1 4.164 3.417l1.02 5.083H48.058Z" fill="#002979"/></svg>