<svg viewBox="0 0 113 113" fill="none" xmlns="http://www.w3.org/2000/svg"><circle cx="56.866" cy="56.506" r="56" fill="#F2F5FF"/><path d="m78.731 35.17-8.1 8.1 1.273 1.273 8.1-8.1-1.273-1.273ZM35.903 35.17l-1.273 1.273 8.1 8.1 1.273-1.272-8.1-8.1ZM58.666 31.306h-1.8v10.8h1.8v-10.8ZM56.867 72.706a10.8 10.8 0 1 1 10.8-10.8 10.812 10.812 0 0 1-10.8 10.8Zm0-19.8a9 9 0 1 0 9 9 9.01 9.01 0 0 0-9-9Z" fill="#002979"/><path d="M56.866 77.206h-.46a26.584 26.584 0 0 1-23.75-14.91l-.187-.39.18-.39a26.592 26.592 0 0 1 23.76-14.906h.464A26.849 26.849 0 0 1 81.08 61.517l.18.393-.18.392a26.874 26.874 0 0 1-24.214 14.904Zm-22.395-15.3a24.818 24.818 0 0 0 21.96 13.5h.43a25.088 25.088 0 0 0 22.402-13.5 25.063 25.063 0 0 0-22.397-13.5h-.434a24.816 24.816 0 0 0-21.962 13.5Z" fill="#7D91CB"/></svg>