<?xml version="1.0" encoding="UTF-8"?><svg id="Layer_2" xmlns="http://www.w3.org/2000/svg" viewBox="0 0 29.46 30.96"><g id="Layer_1-2"><g><path d="M27.89,28.87l-1.4-.55c1.03-2.64,1.31-4.47,1.46-6.92,.17-2.77-2.23-5.18-5.34-5.37-1.63-.1-3.22,.43-4.35,1.44-.97,.86-1.54,2.01-1.61,3.25-.14,2.42-1.6,3.14-2.47,3.56-.1,.05-.19,.09-.28,.14l-.7-1.33c.1-.05,.21-.11,.32-.16,.79-.39,1.54-.75,1.63-2.3,.09-1.63,.84-3.15,2.11-4.28,1.43-1.28,3.42-1.94,5.44-1.81,3.94,.24,6.97,3.36,6.75,6.96-.16,2.6-.45,4.54-1.56,7.37Zm-1.68-6.94c.06-1.05-.29-2.07-.99-2.86-.7-.79-1.67-1.26-2.72-1.32-1.06-.06-2.07,.29-2.86,.98-.79,.7-1.27,1.67-1.33,2.72-.15,2.44-2.36,3.84-3.66,4.47l.65,1.35c1.6-.76,4.32-2.52,4.51-5.73,.04-.65,.33-1.25,.82-1.69,.49-.44,1.13-.65,1.78-.61,.65,.04,1.25,.33,1.69,.82s.65,1.12,.61,1.78c-.12,1.94-.89,5.53-4.71,7.84l.78,1.28c4.41-2.66,5.3-6.8,5.43-9.03Zm-3.2-.19l-1.5-.09c-.15,2.42-1.75,4.86-4.1,6.2l.75,1.3c2.77-1.59,4.67-4.5,4.85-7.41Z"/><g><path d="M16.21,15.28s.04-.04,.06-.05c.37-.33,.78-.62,1.21-.88-.57-.44-1.18-.82-1.88-1.14-1.45-.69-3.13-1.04-5-1.04-2.08,0-3.96,.42-5.6,1.24C2.04,14.95,.86,17.79,0,21.58l1.46,.33c.79-3.48,1.77-5.9,4.22-7.18,1.42-.72,3.07-1.08,4.91-1.08,1.65,0,3.11,.3,4.36,.9,.46,.21,.86,.46,1.24,.72Z"/><path d="M10.71,10.34c2.85,0,5.17-2.32,5.17-5.17S13.56,0,10.71,0,5.54,2.32,5.54,5.17s2.32,5.17,5.17,5.17Zm0-8.84c2.02,0,3.67,1.65,3.67,3.67s-1.65,3.67-3.67,3.67-3.67-1.65-3.67-3.67,1.65-3.67,3.67-3.67Z"/></g></g></g></svg>