<svg viewBox="0 0 31 31" fill="none" xmlns="http://www.w3.org/2000/svg"><circle cx="15.5" cy="15.855" r="15" fill="#8D6E97"/><path d="m14.964 25.015-2.94-2.08a13.258 13.258 0 0 1-3.948-4.294 12.762 12.762 0 0 1-1.667-5.51l-.21-3.477 8.765-2.935 8.766 2.935-.21 3.476a12.76 12.76 0 0 1-1.666 5.514 13.258 13.258 0 0 1-3.95 4.296l-2.94 2.075ZM6.9 10.106l.18 2.985c.121 1.84.663 3.63 1.587 5.243a12.617 12.617 0 0 0 3.756 4.083l2.542 1.794 2.542-1.794a12.613 12.613 0 0 0 3.756-4.083 12.141 12.141 0 0 0 1.587-5.243l.194-2.985-8.079-2.698L6.9 10.106Z" fill="#fff"/><path d="M18.952 18.53a.303.303 0 0 1-.067 0 .341.341 0 0 1-.218-.136.317.317 0 0 1-.051-.246c.31-1.477.284-3.002-.076-4.47a3.567 3.567 0 0 0-.628-1.275 3.708 3.708 0 0 0-1.086-.947 3.865 3.865 0 0 0-2.84-.4 3.74 3.74 0 0 0-2.3 1.654 3.513 3.513 0 0 0-.416 2.742c.075.359.161 1.352-.288 1.82a.336.336 0 0 1-.24.123.349.349 0 0 1-.256-.088.326.326 0 0 1-.105-.241.315.315 0 0 1 .113-.239c.17-.174.205-.81.119-1.224a4.14 4.14 0 0 1 .493-3.23 4.408 4.408 0 0 1 2.714-1.947 4.554 4.554 0 0 1 3.345.476 4.282 4.282 0 0 1 2.016 2.62c.384 1.56.416 3.18.092 4.751a.321.321 0 0 1-.114.183.342.342 0 0 1-.207.074Z" fill="#fff"/><path d="M16.65 19.147a.344.344 0 0 1-.276-.136.316.316 0 0 1-.042-.296c.514-1.465.6-3.038.248-4.547a1.62 1.62 0 0 0-.28-.594 1.681 1.681 0 0 0-.498-.441 1.743 1.743 0 0 0-1.31-.185 1.73 1.73 0 0 0-.608.286c-.18.133-.332.3-.444.49a1.606 1.606 0 0 0-.159 1.27c0 .019.558 2.234-.789 3.614a.343.343 0 0 1-.476.013.319.319 0 0 1-.013-.46c1.076-1.1.63-2.99.627-3.008a2.23 2.23 0 0 1 .316-1.67c.323-.498.83-.857 1.419-1.004a2.453 2.453 0 0 1 1.745.212c.532.284.932.754 1.116 1.313a8.833 8.833 0 0 1-.269 4.94.322.322 0 0 1-.121.147.34.34 0 0 1-.186.056Z" fill="#fff"/><path d="M13.726 20.062a.345.345 0 0 1-.184-.054.329.329 0 0 1-.123-.142.314.314 0 0 1 .062-.35c1.871-1.919 1.125-4.826 1.117-4.854a.315.315 0 0 1 .037-.246.336.336 0 0 1 .205-.15.342.342 0 0 1 .354.117.316.316 0 0 1 .056.115c.037.135.85 3.281-1.28 5.46a.335.335 0 0 1-.244.104Z" fill="#fff"/></svg>