<svg viewBox="0 0 30 30" fill="none" xmlns="http://www.w3.org/2000/svg"><circle cx="15" cy="15" r="15" fill="#8D6E97"/><path d="M17.695 24.65h-4.39v-3.24a7.43 7.43 0 0 1-2.561-1.4L7.96 21.721l-2.32-3.689 2.772-1.714a7.05 7.05 0 0 1-.029-3.512l-2.807-1.67L7.838 7.41l2.807 1.667a7.365 7.365 0 0 1 2.66-1.488V4.35h4.39v3.24a7.404 7.404 0 0 1 2.561 1.4l2.784-1.711 2.32 3.689-2.772 1.714a7.052 7.052 0 0 1 .029 3.512l2.807 1.667-2.262 3.73-2.807-1.67a7.33 7.33 0 0 1-2.66 1.49v3.239Zm-3.665-.725h2.94V20.86l.267-.073a6.593 6.593 0 0 0 2.822-1.577l.2-.189 2.656 1.569 1.511-2.488-2.653-1.572.075-.27c.166-.572.25-1.164.252-1.76a6.505 6.505 0 0 0-.29-1.88l-.08-.266 2.61-1.621-1.555-2.46-2.628 1.625-.203-.186A6.67 6.67 0 0 0 17.24 8.21l-.267-.073V5.075H14.03v3.062l-.267.073a6.646 6.646 0 0 0-2.822 1.58l-.2.189L8.085 8.41l-1.511 2.485 2.653 1.575-.075.27a6.354 6.354 0 0 0 .029 3.642l.081.27-2.61 1.618 1.554 2.462 2.628-1.624.203.183a6.615 6.615 0 0 0 2.723 1.496l.267.073.003 3.065Z" fill="#fff"/><path d="M15.5 18.125a3.625 3.625 0 1 1 0-7.25 3.625 3.625 0 0 1 0 7.25Zm0-6.525a2.9 2.9 0 1 0 0 5.801 2.9 2.9 0 0 0 0-5.801Z" fill="#fff"/></svg>