<svg viewBox="0 0 30 30" fill="none" xmlns="http://www.w3.org/2000/svg"><circle cx="15" cy="15" r="15" fill="#8D6E97"/><path d="M24.074 11.568c-4.94-4.94-12.948-4.94-17.914 0l-.468-.468c5.2-5.2 13.624-5.2 18.824 0l-.442.468Z" fill="#fff"/><path d="M21.188 14.922a8.584 8.584 0 0 0-12.142 0l-.468-.442a9.259 9.259 0 0 1 13.052 0l-.442.442ZM18.198 17.574a4.331 4.331 0 0 0-6.162 0l-.468-.468c1.95-1.95 5.122-1.95 7.098 0l-.468.468ZM15.104 22.774c-.91 0-1.612-.728-1.612-1.638 0-.91.728-1.612 1.638-1.612.91 0 1.612.728 1.612 1.638 0 .442-.182.832-.468 1.144a1.745 1.745 0 0 1-1.17.468Zm0-2.6c-.546 0-.988.442-.988.962 0 .546.442.988.962.988.26 0 .52-.104.702-.286a.958.958 0 0 0 0-1.378c-.156-.182-.416-.286-.676-.286Z" fill="#fff"/></svg>