<?xml version="1.0" encoding="UTF-8"?>
<svg id="Layer_1" data-name="Layer 1" xmlns="http://www.w3.org/2000/svg" width="32" height="32" viewBox="0 0 32 32">
  <defs>
    <style>
      .cls-1 {
        fill: #3f59e4;
      }
    </style>
  </defs>
  <path class="cls-1" d="M29.21973,29.11621l-1.39648-.5459c1.03223-2.64111,1.30957-4.46826,1.45801-6.91553,.16797-2.77344-2.22852-5.18359-5.3418-5.37256-1.63281-.09619-3.21582,.42529-4.35449,1.43799-.9668,.85986-1.53711,2.0127-1.60645,3.24512-.13574,2.42139-1.5957,3.13525-2.46777,3.56201-.09814,.04785-.19287,.09375-.28125,.14062l-.70215-1.3252c.10205-.0542,.21094-.10742,.32422-.16309,.79346-.38818,1.54248-.75439,1.62891-2.29834,.09229-1.63428,.84082-3.15479,2.1084-4.28174,1.43359-1.27637,3.41504-1.93799,5.44141-1.81445,3.93945,.23877,6.9668,3.36133,6.74902,6.96045-.15918,2.6001-.4541,4.54492-1.55957,7.37061Zm-1.67676-6.93945c.06348-1.05469-.28711-2.07129-.98926-2.8623-.70117-.79004-1.66699-1.26025-2.71875-1.32422-1.06348-.0625-2.07227,.28516-2.86426,.98486-.79297,.7002-1.26562,1.66699-1.3291,2.72168-.14746,2.43848-2.35547,3.84424-3.65869,4.46533l.64551,1.35449c1.60107-.76318,4.31592-2.52246,4.51123-5.72949,.03906-.65381,.33203-1.25293,.82324-1.6875,.49316-.43506,1.13184-.64893,1.78027-.6123,.65332,.03955,1.25293,.33203,1.68848,.82275s.65332,1.12158,.61328,1.77588c-.11719,1.9375-.88672,5.53223-4.71094,7.83984l.77539,1.28418c4.41113-2.66162,5.29688-6.80176,5.43359-9.0332Zm-3.19824-.19434l-1.49805-.09082c-.14648,2.42188-1.75488,4.85742-4.0957,6.20459l.74805,1.2998c2.7666-1.5918,4.66895-4.50195,4.8457-7.41357Z"/>
  <g>
    <path d="M17.53625,15.53333c.01935-.01752,.03601-.03693,.05554-.05432,.37384-.33246,.78302-.62323,1.21149-.88458-.56927-.44495-1.18439-.82391-1.87506-1.14081-1.44531-.69238-3.12793-1.04346-5.00146-1.04346-2.07959,0-3.96045,.41748-5.59961,1.24463-2.9624,1.5459-4.14062,4.38818-4.99854,8.17969l1.46289,.33105c.7876-3.48145,1.77002-5.89746,4.2207-7.17627,1.41846-.71582,3.07178-1.0791,4.91455-1.0791,1.64746,0,3.11182,.30127,4.36475,.90137,.45715,.20972,.8609,.45538,1.24475,.7218Z"/>
    <path d="M12.03809,10.59229c2.85107,0,5.1709-2.31982,5.1709-5.17139C17.20898,2.56982,14.88916,.25,12.03809,.25c-2.85156,0-5.17139,2.31982-5.17139,5.1709,0,2.85156,2.31982,5.17139,5.17139,5.17139Zm0-8.84229c2.02393,0,3.6709,1.64697,3.6709,3.6709,0,2.02441-1.64697,3.67139-3.6709,3.67139-2.02441,0-3.67139-1.64697-3.67139-3.67139,0-2.02393,1.64697-3.6709,3.67139-3.6709Z"/>
  </g>
</svg>