<svg xmlns="http://www.w3.org/2000/svg" xmlns:xlink="http://www.w3.org/1999/xlink" contentStyleType="text/css" data-diagram-type="SEQUENCE" height="1157px" preserveAspectRatio="none" style="width:1286px;height:1157px;background:#FFFFFF;" version="1.1" viewBox="0 0 1286 1157" width="1286px" zoomAndPan="magnify"><?plantuml 1.2026.3beta6?><defs/><g><g class="participant-lifeline" data-entity-uid="part1" data-qualified-name="ISV" data-source-line="5" id="part1-lifeline"><g><title>ISV .app integrator.</title><rect fill="#000000" fill-opacity="0.00000" height="993.4531" width="8" x="73.3335" y="81.2969"/><line style="stroke:#181818;stroke-width:0.5;stroke-dasharray:5,5;" x1="77" x2="77" y1="81.2969" y2="1074.75"/></g></g><g class="participant-lifeline" data-entity-uid="part2" data-qualified-name="OINW" data-source-line="7" id="part2-lifeline"><g><title>OIN Wizard</title><rect fill="#000000" fill-opacity="0.00000" height="993.4531" width="8" x="497.0654" y="81.2969"/><line style="stroke:#181818;stroke-width:0.5;stroke-dasharray:5,5;" x1="500.8784" x2="500.8784" y1="81.2969" y2="1074.75"/></g></g><g class="participant-lifeline" data-entity-uid="part3" data-qualified-name="IB" data-source-line="9" id="part3-lifeline"><g><title>Integration Builder</title><rect fill="#000000" fill-opacity="0.00000" height="993.4531" width="8" x="843.3345" y="81.2969"/><line style="stroke:#181818;stroke-width:0.5;stroke-dasharray:5,5;" x1="846.7813" x2="846.7813" y1="81.2969" y2="1074.75"/></g></g><g class="participant participant-head" data-entity-uid="part1" data-qualified-name="ISV" data-source-line="5" id="part1-head"><text fill="#000000" font-family="sans-serif" font-size="14" lengthAdjust="spacing" textLength="138.667" x="5" y="77.9951">ISV (app integrator)</text><ellipse cx="77.3335" cy="13.5" fill="#E2E2F0" rx="8" ry="8" style="stroke:#181818;stroke-width:0.5;"/><path d="M77.3335,21.5 L77.3335,48.5 M64.3335,29.5 L90.3335,29.5 M77.3335,48.5 L64.3335,63.5 M77.3335,48.5 L90.3335,63.5" fill="none" style="stroke:#181818;stroke-width:0.5;"/></g><g class="participant participant-tail" data-entity-uid="part1" data-qualified-name="ISV" data-source-line="5" id="part1-tail"><text fill="#000000" font-family="sans-serif" font-size="14" lengthAdjust="spacing" textLength="138.667" x="5" y="1086.7451">ISV (app integrator)</text><ellipse cx="77.3335" cy="1098.5469" fill="#E2E2F0" rx="8" ry="8" style="stroke:#181818;stroke-width:0.5;"/><path d="M77.3335,1106.5469 L77.3335,1133.5469 M64.3335,1114.5469 L90.3335,1114.5469 M77.3335,1133.5469 L64.3335,1148.5469 M77.3335,1133.5469 L90.3335,1148.5469" fill="none" style="stroke:#181818;stroke-width:0.5;"/></g><g class="participant participant-head" data-entity-uid="part2" data-qualified-name="OINW" data-source-line="7" id="part2-head"><rect fill="#E2E2F0" height="30.2969" rx="2.5" ry="2.5" style="stroke:#181818;stroke-width:0.5;" width="92.374" x="454.8784" y="50"/><text fill="#000000" font-family="sans-serif" font-size="14" lengthAdjust="spacing" textLength="78.374" x="461.8784" y="69.9951">OIN Wizard</text></g><g class="participant participant-tail" data-entity-uid="part2" data-qualified-name="OINW" data-source-line="7" id="part2-tail"><rect fill="#E2E2F0" height="30.2969" rx="2.5" ry="2.5" style="stroke:#181818;stroke-width:0.5;" width="92.374" x="454.8784" y="1073.75"/><text fill="#000000" font-family="sans-serif" font-size="14" lengthAdjust="spacing" textLength="78.374" x="461.8784" y="1093.7451">OIN Wizard</text></g><g class="participant participant-head" data-entity-uid="part3" data-qualified-name="IB" data-source-line="9" id="part3-head"><rect fill="#E2E2F0" height="30.2969" rx="2.5" ry="2.5" style="stroke:#181818;stroke-width:0.5;" width="145.1064" x="774.7813" y="50"/><text fill="#000000" font-family="sans-serif" font-size="14" lengthAdjust="spacing" textLength="131.1064" x="781.7813" y="69.9951">Integration Builder</text></g><g class="participant participant-tail" data-entity-uid="part3" data-qualified-name="IB" data-source-line="9" id="part3-tail"><rect fill="#E2E2F0" height="30.2969" rx="2.5" ry="2.5" style="stroke:#181818;stroke-width:0.5;" width="145.1064" x="774.7813" y="1073.75"/><text fill="#000000" font-family="sans-serif" font-size="14" lengthAdjust="spacing" textLength="131.1064" x="781.7813" y="1093.7451">Integration Builder</text></g><rect fill="#EEEEEE" height="3" style="stroke:#EEEEEE;stroke-width:1;" width="1280.2935" x="0" y="111.8633"/><line style="stroke:#000000;stroke-width:1;" x1="0" x2="1280.2935" y1="111.8633" y2="111.8633"/><line style="stroke:#000000;stroke-width:1;" x1="0" x2="1280.2935" y1="114.8633" y2="114.8633"/><rect fill="#EEEEEE" height="23.1328" style="stroke:#000000;stroke-width:2;" width="177.0776" x="551.6079" y="101.2969"/><text fill="#000000" font-family="sans-serif" font-size="13" font-weight="700" lengthAdjust="spacing" textLength="154.0259" x="557.6079" y="117.3638">1. Create submission</text><g class="message" data-entity-1="part1" data-entity-2="part2" data-source-line="12" id="msg1"><polygon fill="#181818" points="489.0654,151.5625,499.0654,155.5625,489.0654,159.5625,493.0654,155.5625" style="stroke:#181818;stroke-width:1;"/><line style="stroke:#181818;stroke-width:1;" x1="77.3335" x2="495.0654" y1="155.5625" y2="155.5625"/><text fill="#000000" font-family="sans-serif" font-size="13" font-weight="700" lengthAdjust="spacing" textLength="9.0454" x="84.3335" y="150.4966">1</text><text fill="#000000" font-family="sans-serif" font-size="13" lengthAdjust="spacing" textLength="108.7798" x="97.3789" y="150.4966">Start submission</text></g><path d="M82,168.5625 L82,193.5625 L341,193.5625 L341,178.5625 L331,168.5625 L82,168.5625" fill="#FEFFDD" style="stroke:#181818;stroke-width:0.5;"/><path d="M331,168.5625 L331,178.5625 L341,178.5625 L331,168.5625" fill="#FEFFDD" style="stroke:#181818;stroke-width:0.5;"/><text fill="#000000" font-family="sans-serif" font-size="13" lengthAdjust="spacing" textLength="238.5068" x="88" y="185.6294">Applications &gt; Your OIN Integrations</text><g class="message" data-entity-1="part2" data-entity-2="part2" data-source-line="14" id="msg2"><line style="stroke:#181818;stroke-width:1;" x1="501.0654" x2="543.0654" y1="234.9609" y2="234.9609"/><line style="stroke:#181818;stroke-width:1;" x1="543.0654" x2="543.0654" y1="234.9609" y2="247.9609"/><line style="stroke:#181818;stroke-width:1;" x1="502.0654" x2="543.0654" y1="247.9609" y2="247.9609"/><polygon fill="#181818" points="512.0654,243.9609,502.0654,247.9609,512.0654,251.9609,508.0654,247.9609" style="stroke:#181818;stroke-width:1;"/><text fill="#000000" font-family="sans-serif" font-size="13" font-weight="700" lengthAdjust="spacing" textLength="9.0454" x="508.0654" y="222.3286">2</text><text fill="#000000" font-family="sans-serif" font-size="13" lengthAdjust="spacing" textLength="207.0288" x="521.1108" y="214.7622">Selects capability and protocols</text><text fill="#000000" font-family="sans-serif" font-size="13" lengthAdjust="spacing" textLength="242.5693" x="521.1108" y="229.895">(SSO, Universal Logout, provisioning)</text></g><g class="message" data-entity-1="part2" data-entity-2="part2" data-source-line="15" id="msg3"><line style="stroke:#181818;stroke-width:1;" x1="501.0654" x2="543.0654" y1="277.0938" y2="277.0938"/><line style="stroke:#181818;stroke-width:1;" x1="543.0654" x2="543.0654" y1="277.0938" y2="290.0938"/><line style="stroke:#181818;stroke-width:1;" x1="502.0654" x2="543.0654" y1="290.0938" y2="290.0938"/><polygon fill="#181818" points="512.0654,286.0938,502.0654,290.0938,512.0654,294.0938,508.0654,290.0938" style="stroke:#181818;stroke-width:1;"/><text fill="#000000" font-family="sans-serif" font-size="13" font-weight="700" lengthAdjust="spacing" textLength="9.0454" x="508.0654" y="272.0278">3</text><text fill="#000000" font-family="sans-serif" font-size="13" lengthAdjust="spacing" textLength="148.3828" x="521.1108" y="272.0278">Add integration details</text></g><path d="M506,303.0938 L506,328.0938 L861,328.0938 L861,313.0938 L851,303.0938 L506,303.0938" fill="#FEFFDD" style="stroke:#181818;stroke-width:0.5;"/><path d="M851,303.0938 L851,313.0938 L861,313.0938 L851,303.0938" fill="#FEFFDD" style="stroke:#181818;stroke-width:0.5;"/><text fill="#000000" font-family="sans-serif" font-size="13" lengthAdjust="spacing" textLength="334.3882" x="512" y="320.1606">App properties, tenant, and authentication settings</text><rect fill="#EEEEEE" height="3" style="stroke:#EEEEEE;stroke-width:1;" width="1280.2935" x="0" y="353.793"/><line style="stroke:#000000;stroke-width:1;" x1="0" x2="1280.2935" y1="353.793" y2="353.793"/><line style="stroke:#000000;stroke-width:1;" x1="0" x2="1280.2935" y1="356.793" y2="356.793"/><rect fill="#EEEEEE" height="23.1328" style="stroke:#000000;stroke-width:2;" width="161.0308" x="559.6313" y="343.2266"/><text fill="#000000" font-family="sans-serif" font-size="13" font-weight="700" lengthAdjust="spacing" textLength="142.5049" x="565.6313" y="359.2935">2. Build integration</text><g class="message" data-entity-1="part2" data-entity-2="part3" data-source-line="19" id="msg4"><polygon fill="#181818" points="835.3345,393.4922,845.3345,397.4922,835.3345,401.4922,839.3345,397.4922" style="stroke:#181818;stroke-width:1;"/><line style="stroke:#181818;stroke-width:1;" x1="501.0654" x2="841.3345" y1="397.4922" y2="397.4922"/><text fill="#000000" font-family="sans-serif" font-size="13" font-weight="700" lengthAdjust="spacing" textLength="9.0454" x="508.0654" y="392.4263">4</text><text fill="#000000" font-family="sans-serif" font-size="13" lengthAdjust="spacing" textLength="274.0981" x="521.1108" y="392.4263">Save integration details and start building</text></g><g class="message" data-entity-1="part3" data-entity-2="part3" data-source-line="20" id="msg5"><line style="stroke:#181818;stroke-width:1;" x1="847.3345" x2="889.3345" y1="426.625" y2="426.625"/><line style="stroke:#181818;stroke-width:1;" x1="889.3345" x2="889.3345" y1="426.625" y2="439.625"/><line style="stroke:#181818;stroke-width:1;" x1="848.3345" x2="889.3345" y1="439.625" y2="439.625"/><polygon fill="#181818" points="858.3345,435.625,848.3345,439.625,858.3345,443.625,854.3345,439.625" style="stroke:#181818;stroke-width:1;"/><text fill="#000000" font-family="sans-serif" font-size="13" font-weight="700" lengthAdjust="spacing" textLength="9.0454" x="854.3345" y="421.5591">5</text><text fill="#000000" font-family="sans-serif" font-size="13" lengthAdjust="spacing" textLength="405.9136" x="867.3799" y="421.5591">Verify that integrtion details were transferred to the IB project</text></g><g class="message" data-entity-1="part3" data-entity-2="part3" data-source-line="21" id="msg6"><line style="stroke:#0000FF;stroke-width:1;" x1="847.3345" x2="889.3345" y1="468.7578" y2="468.7578"/><line style="stroke:#0000FF;stroke-width:1;" x1="889.3345" x2="889.3345" y1="468.7578" y2="481.7578"/><line style="stroke:#0000FF;stroke-width:1;" x1="848.3345" x2="889.3345" y1="481.7578" y2="481.7578"/><polygon fill="#0000FF" points="858.3345,477.7578,848.3345,481.7578,858.3345,485.7578,854.3345,481.7578" style="stroke:#0000FF;stroke-width:1;"/><text fill="#000000" font-family="sans-serif" font-size="13" font-weight="700" lengthAdjust="spacing" textLength="9.0454" x="854.3345" y="463.6919">6</text><text fill="#000000" font-family="sans-serif" font-size="13" lengthAdjust="spacing" textLength="217.9023" x="867.3799" y="463.6919">Configure authentication settings</text></g><g class="message" data-entity-1="part3" data-entity-2="part3" data-source-line="22" id="msg7"><line style="stroke:#181818;stroke-width:1;" x1="847.3345" x2="889.3345" y1="510.8906" y2="510.8906"/><line style="stroke:#181818;stroke-width:1;" x1="889.3345" x2="889.3345" y1="510.8906" y2="523.8906"/><line style="stroke:#181818;stroke-width:1;" x1="848.3345" x2="889.3345" y1="523.8906" y2="523.8906"/><polygon fill="#181818" points="858.3345,519.8906,848.3345,523.8906,858.3345,527.8906,854.3345,523.8906" style="stroke:#181818;stroke-width:1;"/><text fill="#000000" font-family="sans-serif" font-size="13" font-weight="700" lengthAdjust="spacing" textLength="9.0454" x="854.3345" y="505.8247">7</text><text fill="#000000" font-family="sans-serif" font-size="13" lengthAdjust="spacing" textLength="166.0356" x="867.3799" y="505.8247">Configure tenant settings</text></g><g class="message" data-entity-1="part3" data-entity-2="part3" data-source-line="23" id="msg8"><line style="stroke:#181818;stroke-width:1;" x1="847.3345" x2="889.3345" y1="553.0234" y2="553.0234"/><line style="stroke:#181818;stroke-width:1;" x1="889.3345" x2="889.3345" y1="553.0234" y2="566.0234"/><line style="stroke:#181818;stroke-width:1;" x1="848.3345" x2="889.3345" y1="566.0234" y2="566.0234"/><polygon fill="#181818" points="858.3345,562.0234,848.3345,566.0234,858.3345,570.0234,854.3345,566.0234" style="stroke:#181818;stroke-width:1;"/><text fill="#000000" font-family="sans-serif" font-size="13" font-weight="700" lengthAdjust="spacing" textLength="9.0454" x="854.3345" y="547.9575">8</text><text fill="#000000" font-family="sans-serif" font-size="13" lengthAdjust="spacing" textLength="189.1982" x="867.3799" y="547.9575">Add Actions and create flows</text></g><g class="message" data-entity-1="part3" data-entity-2="part3" data-source-line="24" id="msg9"><line style="stroke:#0000FF;stroke-width:1;" x1="847.3345" x2="889.3345" y1="595.1563" y2="595.1563"/><line style="stroke:#0000FF;stroke-width:1;" x1="889.3345" x2="889.3345" y1="595.1563" y2="608.1563"/><line style="stroke:#0000FF;stroke-width:1;" x1="848.3345" x2="889.3345" y1="608.1563" y2="608.1563"/><polygon fill="#0000FF" points="858.3345,604.1563,848.3345,608.1563,858.3345,612.1563,854.3345,608.1563" style="stroke:#0000FF;stroke-width:1;"/><text fill="#000000" font-family="sans-serif" font-size="13" font-weight="700" lengthAdjust="spacing" textLength="9.0454" x="854.3345" y="590.0903">9</text><text fill="#000000" font-family="sans-serif" font-size="13" lengthAdjust="spacing" textLength="84.3032" x="867.3799" y="590.0903">Validate flow</text></g><g class="message" data-entity-1="part3" data-entity-2="part2" data-source-line="25" id="msg10"><polygon fill="#181818" points="512.0654,633.2891,502.0654,637.2891,512.0654,641.2891,508.0654,637.2891" style="stroke:#181818;stroke-width:1;"/><line style="stroke:#181818;stroke-width:1;" x1="506.0654" x2="846.3345" y1="637.2891" y2="637.2891"/><text fill="#000000" font-family="sans-serif" font-size="13" font-weight="700" lengthAdjust="spacing" textLength="18.0908" x="518.0654" y="632.2231">10</text><text fill="#000000" font-family="sans-serif" font-size="13" lengthAdjust="spacing" textLength="138.0425" x="540.1563" y="632.2231">Return to OIN Wizard</text></g><g class="message" data-entity-1="part2" data-entity-2="part2" data-source-line="26" id="msg11"><line style="stroke:#181818;stroke-width:1;" x1="501.0654" x2="543.0654" y1="666.4219" y2="666.4219"/><line style="stroke:#181818;stroke-width:1;" x1="543.0654" x2="543.0654" y1="666.4219" y2="679.4219"/><line style="stroke:#181818;stroke-width:1;" x1="502.0654" x2="543.0654" y1="679.4219" y2="679.4219"/><polygon fill="#181818" points="512.0654,675.4219,502.0654,679.4219,512.0654,683.4219,508.0654,679.4219" style="stroke:#181818;stroke-width:1;"/><text fill="#000000" font-family="sans-serif" font-size="13" font-weight="700" lengthAdjust="spacing" textLength="18.0908" x="508.0654" y="661.356">11</text><text fill="#000000" font-family="sans-serif" font-size="13" lengthAdjust="spacing" textLength="310.1782" x="530.1563" y="661.356">Connect integration capability with action flows</text></g><rect fill="#EEEEEE" height="3" style="stroke:#EEEEEE;stroke-width:1;" width="1280.2935" x="0" y="707.9883"/><line style="stroke:#000000;stroke-width:1;" x1="0" x2="1280.2935" y1="707.9883" y2="707.9883"/><line style="stroke:#000000;stroke-width:1;" x1="0" x2="1280.2935" y1="710.9883" y2="710.9883"/><rect fill="#EEEEEE" height="23.1328" style="stroke:#000000;stroke-width:2;" width="89.6196" x="595.3369" y="697.4219"/><text fill="#000000" font-family="sans-serif" font-size="13" font-weight="700" lengthAdjust="spacing" textLength="71.0938" x="601.3369" y="713.4888">3. Review</text><g class="message" data-entity-1="part2" data-entity-2="part2" data-source-line="29" id="msg12"><line style="stroke:#181818;stroke-width:1;" x1="501.0654" x2="543.0654" y1="751.6875" y2="751.6875"/><line style="stroke:#181818;stroke-width:1;" x1="543.0654" x2="543.0654" y1="751.6875" y2="764.6875"/><line style="stroke:#181818;stroke-width:1;" x1="502.0654" x2="543.0654" y1="764.6875" y2="764.6875"/><polygon fill="#181818" points="512.0654,760.6875,502.0654,764.6875,512.0654,768.6875,508.0654,764.6875" style="stroke:#181818;stroke-width:1;"/><text fill="#000000" font-family="sans-serif" font-size="13" font-weight="700" lengthAdjust="spacing" textLength="18.0908" x="508.0654" y="746.6216">12</text><text fill="#000000" font-family="sans-serif" font-size="13" lengthAdjust="spacing" textLength="131.5361" x="530.1563" y="746.6216">Enter testing details</text></g><g class="message" data-entity-1="part2" data-entity-2="part2" data-source-line="30" id="msg13"><line style="stroke:#181818;stroke-width:1;" x1="501.0654" x2="543.0654" y1="793.8203" y2="793.8203"/><line style="stroke:#181818;stroke-width:1;" x1="543.0654" x2="543.0654" y1="793.8203" y2="806.8203"/><line style="stroke:#181818;stroke-width:1;" x1="502.0654" x2="543.0654" y1="806.8203" y2="806.8203"/><polygon fill="#181818" points="512.0654,802.8203,502.0654,806.8203,512.0654,810.8203,508.0654,806.8203" style="stroke:#181818;stroke-width:1;"/><text fill="#000000" font-family="sans-serif" font-size="13" font-weight="700" lengthAdjust="spacing" textLength="18.0908" x="508.0654" y="788.7544">13</text><text fill="#000000" font-family="sans-serif" font-size="13" lengthAdjust="spacing" textLength="197.9009" x="530.1563" y="788.7544">Generate instances for testing</text></g><g class="message" data-entity-1="part2" data-entity-2="part2" data-source-line="31" id="msg14"><line style="stroke:#181818;stroke-width:1;" x1="501.0654" x2="543.0654" y1="835.9531" y2="835.9531"/><line style="stroke:#181818;stroke-width:1;" x1="543.0654" x2="543.0654" y1="835.9531" y2="848.9531"/><line style="stroke:#181818;stroke-width:1;" x1="502.0654" x2="543.0654" y1="848.9531" y2="848.9531"/><polygon fill="#181818" points="512.0654,844.9531,502.0654,848.9531,512.0654,852.9531,508.0654,848.9531" style="stroke:#181818;stroke-width:1;"/><text fill="#000000" font-family="sans-serif" font-size="13" font-weight="700" lengthAdjust="spacing" textLength="18.0908" x="508.0654" y="830.8872">14</text><text fill="#000000" font-family="sans-serif" font-size="13" lengthAdjust="spacing" textLength="141.0322" x="530.1563" y="830.8872">Test integration flows</text></g><rect fill="#EEEEEE" height="3" style="stroke:#EEEEEE;stroke-width:1;" width="1280.2935" x="0" y="877.5195"/><line style="stroke:#000000;stroke-width:1;" x1="0" x2="1280.2935" y1="877.5195" y2="877.5195"/><line style="stroke:#000000;stroke-width:1;" x1="0" x2="1280.2935" y1="880.5195" y2="880.5195"/><rect fill="#EEEEEE" height="23.1328" style="stroke:#000000;stroke-width:2;" width="179.3311" x="550.4812" y="866.9531"/><text fill="#000000" font-family="sans-serif" font-size="13" font-weight="700" lengthAdjust="spacing" textLength="160.8052" x="556.4812" y="883.02">4. Submit and publish</text><g class="message" data-entity-1="part1" data-entity-2="part2" data-source-line="34" id="msg15"><polygon fill="#181818" points="489.0654,917.2188,499.0654,921.2188,489.0654,925.2188,493.0654,921.2188" style="stroke:#181818;stroke-width:1;"/><line style="stroke:#181818;stroke-width:1;" x1="77.3335" x2="495.0654" y1="921.2188" y2="921.2188"/><text fill="#000000" font-family="sans-serif" font-size="13" font-weight="700" lengthAdjust="spacing" textLength="18.0908" x="84.3335" y="916.1528">15</text><text fill="#000000" font-family="sans-serif" font-size="13" lengthAdjust="spacing" textLength="312.1523" x="106.4243" y="916.1528">Verify that app integration passed all test cases</text></g><g class="message" data-entity-1="part1" data-entity-2="part2" data-source-line="35" id="msg16"><polygon fill="#181818" points="489.0654,946.3516,499.0654,950.3516,489.0654,954.3516,493.0654,950.3516" style="stroke:#181818;stroke-width:1;"/><line style="stroke:#181818;stroke-width:1;" x1="77.3335" x2="495.0654" y1="950.3516" y2="950.3516"/><text fill="#000000" font-family="sans-serif" font-size="13" font-weight="700" lengthAdjust="spacing" textLength="18.0908" x="84.3335" y="945.2856">16</text><text fill="#000000" font-family="sans-serif" font-size="13" lengthAdjust="spacing" textLength="147.126" x="106.4243" y="945.2856">Submit the integration</text></g><g class="message" data-entity-1="part2" data-entity-2="part2" data-source-line="36" id="msg17"><line style="stroke:#0000FF;stroke-width:1;" x1="501.0654" x2="543.0654" y1="979.4844" y2="979.4844"/><line style="stroke:#0000FF;stroke-width:1;" x1="543.0654" x2="543.0654" y1="979.4844" y2="992.4844"/><line style="stroke:#0000FF;stroke-width:1;" x1="502.0654" x2="543.0654" y1="992.4844" y2="992.4844"/><polygon fill="#0000FF" points="512.0654,988.4844,502.0654,992.4844,512.0654,996.4844,508.0654,992.4844" style="stroke:#0000FF;stroke-width:1;"/><text fill="#000000" font-family="sans-serif" font-size="13" font-weight="700" lengthAdjust="spacing" textLength="18.0908" x="508.0654" y="974.4185">17</text><text fill="#000000" font-family="sans-serif" font-size="13" lengthAdjust="spacing" textLength="283.0674" x="530.1563" y="974.4185">OIN team reviews and validates integration</text></g><path d="M506,1005.4844 L506,1030.4844 L905,1030.4844 L905,1015.4844 L895,1005.4844 L506,1005.4844" fill="#FEFFDD" style="stroke:#181818;stroke-width:0.5;"/><path d="M895,1005.4844 L895,1015.4844 L905,1015.4844 L895,1005.4844" fill="#FEFFDD" style="stroke:#181818;stroke-width:0.5;"/><text fill="#000000" font-family="sans-serif" font-size="13" lengthAdjust="spacing" textLength="378.644" x="512" y="1022.5513">OIN team publishes the app integration in the OIN catalog</text><g class="message" data-entity-1="part2" data-entity-2="part1" data-source-line="38" id="msg18"><polygon fill="#0000FF" points="88.3335,1052.75,78.3335,1056.75,88.3335,1060.75,84.3335,1056.75" style="stroke:#0000FF;stroke-width:1;"/><line style="stroke:#0000FF;stroke-width:1;" x1="82.3335" x2="500.0654" y1="1056.75" y2="1056.75"/><text fill="#000000" font-family="sans-serif" font-size="13" font-weight="700" lengthAdjust="spacing" textLength="18.0908" x="94.3335" y="1051.6841">18</text><text fill="#000000" font-family="sans-serif" font-size="13" lengthAdjust="spacing" textLength="377.6411" x="116.4243" y="1051.6841">OIN team notifies the ISV that the integration is published</text></g><?plantuml-src TLJ1RjD04BtxAqRbqaeXei2fKYeb5KAHK5iHI5K1XuqzJWOskzREEA5yFRDhrx5DENhtlJTltioQVv6hJ31xk3T1AAVAEBatHK5k2vTlCkxk5_vtxzpKubszts38CfEB3t2sNAtXt5GLa1FS1gE75sTW6FGYowgJF9pTBM_XWVwOK2I0VZwC4CjMWxo3HKssmD1eBR9iDeFBATm4D8B0zMPFp147iraMJRo-JefNAr757Y2xzKe8jDq9-3BQke9vLLdAKns6QtZqTOXawDNdBAgTLD5YBWovgSo6BCaJ65T05Rput5l-xivNgxi9V7LqmC36mYU_zRLC8kH0qOXcU34KXNbHTBd5NWeKGvP7bbkiPgnQ5MfUo1CGT9hP9DdGkUpGITiIC8feDKwXlPqsKGuAQMRFJfQBArYP0xva98bp2dGJDLGqMowUMMiCL3w1x8oqv07tY051Wd5SOWXOW7Z5eb9Z7pyrpgJrxTN6rlYZaRpnhgHjhSJ_jNGgVy8sKRo4YG7FysREiPUyMP_I-YF_MtrjB1NFzwrA4_vdb3gusC5fYKUpL3jEUnh4sDkM8yaEJBBIbe_3UJTLwGFXiJ-HHk-3wWHjZMDFtMOCCH_HOOY6oUcKN8uCfUz88_0NFHsuEzbuFuLLV33IB7MziSIxySCQpBl_ugDMPPXrnCRQL5qxP-GXlQqGLw37R4rsSsYmCML1_V-4b4upl4Cx7XxmNteh7RrjHIcnxDWqkNGSqRfcnlhjs4twMtHgpWkLr8h5tb8KeuQ0k2jR_0K0?></g></svg>