<svg xmlns="http://www.w3.org/2000/svg" xmlns:xlink="http://www.w3.org/1999/xlink" contentStyleType="text/css" data-diagram-type="SEQUENCE" height="972px" preserveAspectRatio="none" style="width:961px;height:972px;background:#FFFFFF;" version="1.1" viewBox="0 0 961 972" width="961px" zoomAndPan="magnify"><?plantuml 1.2026.3beta6?><defs/><g><rect fill="#F0F8FF" height="959.0469" style="stroke:#181818;stroke-width:0.5;" width="465.8984" x="323.396" y="6"/><text fill="#000000" font-family="sans-serif" font-size="13" font-weight="700" lengthAdjust="spacing" textLength="217.5405" x="447.575" y="18.0669">Otka Integrator Free Plan org</text><g class="participant-lifeline" data-entity-uid="part1" data-qualified-name="ISV" data-source-line="5" id="part1-lifeline"><g><title>ISV .app integrator.</title><rect fill="#000000" fill-opacity="0.00000" height="804.4531" width="8" x="73.3335" y="81.2969"/><line style="stroke:#181818;stroke-width:0.5;stroke-dasharray:5,5;" x1="77" x2="77" y1="81.2969" y2="885.75"/></g></g><g class="participant-lifeline" data-entity-uid="part2" data-qualified-name="OINW" data-source-line="8" id="part2-lifeline"><g><title>OIN Wizard</title><rect fill="#000000" fill-opacity="0.00000" height="804.4531" width="8" x="379.583" y="81.2969"/><line style="stroke:#181818;stroke-width:0.5;stroke-dasharray:5,5;" x1="383.396" x2="383.396" y1="81.2969" y2="885.75"/></g></g><g class="participant-lifeline" data-entity-uid="part3" data-qualified-name="IB" data-source-line="9" id="part3-lifeline"><g><title>Integration Builder</title><rect fill="#000000" fill-opacity="0.00000" height="804.4531" width="8" x="698.7412" y="81.2969"/><line style="stroke:#181818;stroke-width:0.5;stroke-dasharray:5,5;" x1="702.188" x2="702.188" y1="81.2969" y2="885.75"/></g></g><g class="participant participant-head" data-entity-uid="part1" data-qualified-name="ISV" data-source-line="5" id="part1-head"><text fill="#000000" font-family="sans-serif" font-size="14" lengthAdjust="spacing" textLength="138.667" x="5" y="77.9951">ISV (app integrator)</text><ellipse cx="77.3335" cy="13.5" fill="#E2E2F0" rx="8" ry="8" style="stroke:#181818;stroke-width:0.5;"/><path d="M77.3335,21.5 L77.3335,48.5 M64.3335,29.5 L90.3335,29.5 M77.3335,48.5 L64.3335,63.5 M77.3335,48.5 L90.3335,63.5" fill="none" style="stroke:#181818;stroke-width:0.5;"/></g><g class="participant participant-tail" data-entity-uid="part1" data-qualified-name="ISV" data-source-line="5" id="part1-tail"><text fill="#000000" font-family="sans-serif" font-size="14" lengthAdjust="spacing" textLength="138.667" x="5" y="897.7451">ISV (app integrator)</text><ellipse cx="77.3335" cy="909.5469" fill="#E2E2F0" rx="8" ry="8" style="stroke:#181818;stroke-width:0.5;"/><path d="M77.3335,917.5469 L77.3335,944.5469 M64.3335,925.5469 L90.3335,925.5469 M77.3335,944.5469 L64.3335,959.5469 M77.3335,944.5469 L90.3335,959.5469" fill="none" style="stroke:#181818;stroke-width:0.5;"/></g><g class="participant participant-head" data-entity-uid="part2" data-qualified-name="OINW" data-source-line="8" id="part2-head"><rect fill="#E2E2F0" height="30.2969" rx="2.5" ry="2.5" style="stroke:#181818;stroke-width:0.5;" width="92.374" x="337.396" y="50"/><text fill="#000000" font-family="sans-serif" font-size="14" lengthAdjust="spacing" textLength="78.374" x="344.396" y="69.9951">OIN Wizard</text></g><g class="participant participant-tail" data-entity-uid="part2" data-qualified-name="OINW" data-source-line="8" id="part2-tail"><rect fill="#E2E2F0" height="30.2969" rx="2.5" ry="2.5" style="stroke:#181818;stroke-width:0.5;" width="92.374" x="337.396" y="884.75"/><text fill="#000000" font-family="sans-serif" font-size="14" lengthAdjust="spacing" textLength="78.374" x="344.396" y="904.7451">OIN Wizard</text></g><g class="participant participant-head" data-entity-uid="part3" data-qualified-name="IB" data-source-line="9" id="part3-head"><rect fill="#E2E2F0" height="30.2969" rx="2.5" ry="2.5" style="stroke:#181818;stroke-width:0.5;" width="145.1064" x="630.188" y="50"/><text fill="#000000" font-family="sans-serif" font-size="14" lengthAdjust="spacing" textLength="131.1064" x="637.188" y="69.9951">Integration Builder</text></g><g class="participant participant-tail" data-entity-uid="part3" data-qualified-name="IB" data-source-line="9" id="part3-tail"><rect fill="#E2E2F0" height="30.2969" rx="2.5" ry="2.5" style="stroke:#181818;stroke-width:0.5;" width="145.1064" x="630.188" y="884.75"/><text fill="#000000" font-family="sans-serif" font-size="14" lengthAdjust="spacing" textLength="131.1064" x="637.188" y="904.7451">Integration Builder</text></g><rect fill="#EEEEEE" height="3" style="stroke:#EEEEEE;stroke-width:1;" width="955.9536" x="0" y="111.8633"/><line style="stroke:#000000;stroke-width:1;" x1="0" x2="955.9536" y1="111.8633" y2="111.8633"/><line style="stroke:#000000;stroke-width:1;" x1="0" x2="955.9536" y1="114.8633" y2="114.8633"/><rect fill="#EEEEEE" height="23.1328" style="stroke:#000000;stroke-width:2;" width="177.0776" x="389.438" y="101.2969"/><text fill="#000000" font-family="sans-serif" font-size="13" font-weight="700" lengthAdjust="spacing" textLength="154.0259" x="395.438" y="117.3638">1. Create submission</text><g class="message" data-entity-1="part1" data-entity-2="part2" data-source-line="13" id="msg1"><polygon fill="#181818" points="371.583,151.5625,381.583,155.5625,371.583,159.5625,375.583,155.5625" style="stroke:#181818;stroke-width:1;"/><line style="stroke:#181818;stroke-width:1;" x1="77.3335" x2="377.583" y1="155.5625" y2="155.5625"/><text fill="#000000" font-family="sans-serif" font-size="13" font-weight="700" lengthAdjust="spacing" textLength="9.0454" x="84.3335" y="150.4966">1</text><text fill="#000000" font-family="sans-serif" font-size="13" lengthAdjust="spacing" textLength="108.7798" x="97.3789" y="150.4966">Start submission</text></g><path d="M82,168.5625 L82,193.5625 L341,193.5625 L341,178.5625 L331,168.5625 L82,168.5625" fill="#FEFFDD" style="stroke:#181818;stroke-width:0.5;"/><path d="M331,168.5625 L331,178.5625 L341,178.5625 L331,168.5625" fill="#FEFFDD" style="stroke:#181818;stroke-width:0.5;"/><text fill="#000000" font-family="sans-serif" font-size="13" lengthAdjust="spacing" textLength="238.5068" x="88" y="185.6294">Applications &gt; Your OIN Integrations</text><g class="message" data-entity-1="part2" data-entity-2="part2" data-source-line="15" id="msg2"><line style="stroke:#181818;stroke-width:1;" x1="383.583" x2="425.583" y1="234.9609" y2="234.9609"/><line style="stroke:#181818;stroke-width:1;" x1="425.583" x2="425.583" y1="234.9609" y2="247.9609"/><line style="stroke:#181818;stroke-width:1;" x1="384.583" x2="425.583" y1="247.9609" y2="247.9609"/><polygon fill="#181818" points="394.583,243.9609,384.583,247.9609,394.583,251.9609,390.583,247.9609" style="stroke:#181818;stroke-width:1;"/><text fill="#000000" font-family="sans-serif" font-size="13" font-weight="700" lengthAdjust="spacing" textLength="9.0454" x="390.583" y="222.3286">2</text><text fill="#000000" font-family="sans-serif" font-size="13" lengthAdjust="spacing" textLength="146.7261" x="403.6284" y="214.7622">Select capabilities and</text><text fill="#000000" font-family="sans-serif" font-size="13" lengthAdjust="spacing" textLength="147.4561" x="407.7607" y="229.895">add integration details</text></g><path d="M388,260.9609 L388,300.9609 L746,300.9609 L746,270.9609 L736,260.9609 L388,260.9609" fill="#FEFFDD" style="stroke:#181818;stroke-width:0.5;"/><path d="M736,260.9609 L736,270.9609 L746,270.9609 L736,260.9609" fill="#FEFFDD" style="stroke:#181818;stroke-width:0.5;"/><text fill="#000000" font-family="sans-serif" font-size="13" lengthAdjust="spacing" textLength="236.5581" x="394" y="278.0278">SSO, Universal Logout, provisioning,</text><text fill="#000000" font-family="sans-serif" font-size="13" lengthAdjust="spacing" textLength="333.4614" x="398.1323" y="293.1606">app properties, tenant, and authentication settings</text><g class="message" data-entity-1="part2" data-entity-2="part3" data-source-line="17" id="msg3"><polygon fill="#181818" points="690.7412,323.3594,700.7412,327.3594,690.7412,331.3594,694.7412,327.3594" style="stroke:#181818;stroke-width:1;"/><line style="stroke:#181818;stroke-width:1;" x1="383.583" x2="696.7412" y1="327.3594" y2="327.3594"/><text fill="#000000" font-family="sans-serif" font-size="13" font-weight="700" lengthAdjust="spacing" textLength="9.0454" x="390.583" y="322.2935">3</text><text fill="#000000" font-family="sans-serif" font-size="13" lengthAdjust="spacing" textLength="274.0981" x="403.6284" y="322.2935">Save integration details and start building</text></g><rect fill="#EEEEEE" height="3" style="stroke:#EEEEEE;stroke-width:1;" width="955.9536" x="0" y="355.9258"/><line style="stroke:#000000;stroke-width:1;" x1="0" x2="955.9536" y1="355.9258" y2="355.9258"/><line style="stroke:#000000;stroke-width:1;" x1="0" x2="955.9536" y1="358.9258" y2="358.9258"/><rect fill="#EEEEEE" height="23.1328" style="stroke:#000000;stroke-width:2;" width="161.0308" x="397.4614" y="345.3594"/><text fill="#000000" font-family="sans-serif" font-size="13" font-weight="700" lengthAdjust="spacing" textLength="142.5049" x="403.4614" y="361.4263">2. Build integration</text><g class="message" data-entity-1="part3" data-entity-2="part3" data-source-line="20" id="msg4"><line style="stroke:#181818;stroke-width:1;" x1="702.7412" x2="744.7412" y1="414.7578" y2="414.7578"/><line style="stroke:#181818;stroke-width:1;" x1="744.7412" x2="744.7412" y1="414.7578" y2="427.7578"/><line style="stroke:#181818;stroke-width:1;" x1="703.7412" x2="744.7412" y1="427.7578" y2="427.7578"/><polygon fill="#181818" points="713.7412,423.7578,703.7412,427.7578,713.7412,431.7578,709.7412,427.7578" style="stroke:#181818;stroke-width:1;"/><text fill="#000000" font-family="sans-serif" font-size="13" font-weight="700" lengthAdjust="spacing" textLength="9.0454" x="709.7412" y="402.1255">4</text><text fill="#000000" font-family="sans-serif" font-size="13" lengthAdjust="spacing" textLength="222.0347" x="722.7866" y="394.5591">Configure authentication settings,</text><text fill="#000000" font-family="sans-serif" font-size="13" lengthAdjust="spacing" textLength="202.1221" x="726.9189" y="409.6919">add actions, and validate flows</text></g><g class="message" data-entity-1="part3" data-entity-2="part2" data-source-line="21" id="msg5"><polygon fill="#181818" points="394.583,452.8906,384.583,456.8906,394.583,460.8906,390.583,456.8906" style="stroke:#181818;stroke-width:1;"/><line style="stroke:#181818;stroke-width:1;" x1="388.583" x2="701.7412" y1="456.8906" y2="456.8906"/><text fill="#000000" font-family="sans-serif" font-size="13" font-weight="700" lengthAdjust="spacing" textLength="9.0454" x="400.583" y="451.8247">5</text><text fill="#000000" font-family="sans-serif" font-size="13" lengthAdjust="spacing" textLength="138.0425" x="413.6284" y="451.8247">Return to OIN Wizard</text></g><rect fill="#EEEEEE" height="3" style="stroke:#EEEEEE;stroke-width:1;" width="955.9536" x="0" y="485.457"/><line style="stroke:#000000;stroke-width:1;" x1="0" x2="955.9536" y1="485.457" y2="485.457"/><line style="stroke:#000000;stroke-width:1;" x1="0" x2="955.9536" y1="488.457" y2="488.457"/><rect fill="#EEEEEE" height="23.1328" style="stroke:#000000;stroke-width:2;" width="154.9878" x="400.4829" y="474.8906"/><text fill="#000000" font-family="sans-serif" font-size="13" font-weight="700" lengthAdjust="spacing" textLength="136.4619" x="406.4829" y="490.9575">3. Review and test</text><g class="message" data-entity-1="part2" data-entity-2="part2" data-source-line="24" id="msg6"><line style="stroke:#181818;stroke-width:1;" x1="383.583" x2="425.583" y1="544.2891" y2="544.2891"/><line style="stroke:#181818;stroke-width:1;" x1="425.583" x2="425.583" y1="544.2891" y2="557.2891"/><line style="stroke:#181818;stroke-width:1;" x1="384.583" x2="425.583" y1="557.2891" y2="557.2891"/><polygon fill="#181818" points="394.583,553.2891,384.583,557.2891,394.583,561.2891,390.583,557.2891" style="stroke:#181818;stroke-width:1;"/><text fill="#000000" font-family="sans-serif" font-size="13" font-weight="700" lengthAdjust="spacing" textLength="9.0454" x="390.583" y="531.6567">6</text><text fill="#000000" font-family="sans-serif" font-size="13" lengthAdjust="spacing" textLength="207.3271" x="403.6284" y="524.0903">Connect integration capabilities</text><text fill="#000000" font-family="sans-serif" font-size="13" lengthAdjust="spacing" textLength="109.4082" x="407.7607" y="539.2231">with action flows</text></g><g class="message" data-entity-1="part2" data-entity-2="part2" data-source-line="25" id="msg7"><line style="stroke:#181818;stroke-width:1;" x1="383.583" x2="425.583" y1="601.5547" y2="601.5547"/><line style="stroke:#181818;stroke-width:1;" x1="425.583" x2="425.583" y1="601.5547" y2="614.5547"/><line style="stroke:#181818;stroke-width:1;" x1="384.583" x2="425.583" y1="614.5547" y2="614.5547"/><polygon fill="#181818" points="394.583,610.5547,384.583,614.5547,394.583,618.5547,390.583,614.5547" style="stroke:#181818;stroke-width:1;"/><text fill="#000000" font-family="sans-serif" font-size="13" font-weight="700" lengthAdjust="spacing" textLength="9.0454" x="390.583" y="588.9224">7</text><text fill="#000000" font-family="sans-serif" font-size="13" lengthAdjust="spacing" textLength="135.6685" x="403.6284" y="581.356">Enter testing details,</text><text fill="#000000" font-family="sans-serif" font-size="13" lengthAdjust="spacing" textLength="220.2383" x="407.7607" y="596.4888">generate instances and test flows</text></g><rect fill="#EEEEEE" height="3" style="stroke:#EEEEEE;stroke-width:1;" width="955.9536" x="0" y="643.1211"/><line style="stroke:#000000;stroke-width:1;" x1="0" x2="955.9536" y1="643.1211" y2="643.1211"/><line style="stroke:#000000;stroke-width:1;" x1="0" x2="955.9536" y1="646.1211" y2="646.1211"/><rect fill="#EEEEEE" height="23.1328" style="stroke:#000000;stroke-width:2;" width="179.3311" x="388.3113" y="632.5547"/><text fill="#000000" font-family="sans-serif" font-size="13" font-weight="700" lengthAdjust="spacing" textLength="160.8052" x="394.3113" y="648.6216">4. Submit and publish</text><g class="message" data-entity-1="part1" data-entity-2="part2" data-source-line="29" id="msg8"><polygon fill="#181818" points="371.583,697.9531,381.583,701.9531,371.583,705.9531,375.583,701.9531" style="stroke:#181818;stroke-width:1;"/><line style="stroke:#181818;stroke-width:1;" x1="77.3335" x2="377.583" y1="701.9531" y2="701.9531"/><text fill="#000000" font-family="sans-serif" font-size="13" font-weight="700" lengthAdjust="spacing" textLength="9.0454" x="84.3335" y="689.3208">8</text><text fill="#000000" font-family="sans-serif" font-size="13" lengthAdjust="spacing" textLength="177.5566" x="97.3789" y="681.7544">Verify that your integration</text><text fill="#000000" font-family="sans-serif" font-size="13" lengthAdjust="spacing" textLength="160.3799" x="101.5112" y="696.8872">passed all required tests</text></g><g class="message" data-entity-1="part1" data-entity-2="part2" data-source-line="30" id="msg9"><polygon fill="#181818" points="371.583,727.0859,381.583,731.0859,371.583,735.0859,375.583,731.0859" style="stroke:#181818;stroke-width:1;"/><line style="stroke:#181818;stroke-width:1;" x1="77.3335" x2="377.583" y1="731.0859" y2="731.0859"/><text fill="#000000" font-family="sans-serif" font-size="13" font-weight="700" lengthAdjust="spacing" textLength="9.0454" x="84.3335" y="726.02">9</text><text fill="#000000" font-family="sans-serif" font-size="13" lengthAdjust="spacing" textLength="155.0225" x="97.3789" y="726.02">Submit your integration</text></g><g class="message" data-entity-1="part2" data-entity-2="part2" data-source-line="31" id="msg10"><line style="stroke:#0000FF;stroke-width:1;" x1="383.583" x2="425.583" y1="760.2188" y2="760.2188"/><line style="stroke:#0000FF;stroke-width:1;" x1="425.583" x2="425.583" y1="760.2188" y2="773.2188"/><line style="stroke:#0000FF;stroke-width:1;" x1="384.583" x2="425.583" y1="773.2188" y2="773.2188"/><polygon fill="#0000FF" points="394.583,769.2188,384.583,773.2188,394.583,777.2188,390.583,773.2188" style="stroke:#0000FF;stroke-width:1;"/><text fill="#000000" font-family="sans-serif" font-size="13" font-weight="700" lengthAdjust="spacing" textLength="18.0908" x="390.583" y="755.1528">10</text><text fill="#000000" font-family="sans-serif" font-size="13" lengthAdjust="spacing" textLength="283.0674" x="412.6738" y="755.1528">OIN team reviews and validates integration</text></g><path d="M388,786.2188 L388,826.2188 L670,826.2188 L670,796.2188 L660,786.2188 L388,786.2188" fill="#FEFFDD" style="stroke:#181818;stroke-width:0.5;"/><path d="M660,786.2188 L660,796.2188 L670,796.2188 L660,786.2188" fill="#FEFFDD" style="stroke:#181818;stroke-width:0.5;"/><text fill="#000000" font-family="sans-serif" font-size="13" lengthAdjust="spacing" textLength="257.1436" x="394" y="803.2856">OIN team publishes the app integration</text><text fill="#000000" font-family="sans-serif" font-size="13" lengthAdjust="spacing" textLength="117.3682" x="398.1323" y="818.4185">in the OIN catalog</text><g class="message" data-entity-1="part2" data-entity-2="part1" data-source-line="33" id="msg11"><polygon fill="#0000FF" points="88.3335,863.75,78.3335,867.75,88.3335,871.75,84.3335,867.75" style="stroke:#0000FF;stroke-width:1;"/><line style="stroke:#0000FF;stroke-width:1;" x1="82.3335" x2="382.583" y1="867.75" y2="867.75"/><text fill="#000000" font-family="sans-serif" font-size="13" font-weight="700" lengthAdjust="spacing" textLength="18.0908" x="94.3335" y="855.1177">11</text><text fill="#000000" font-family="sans-serif" font-size="13" lengthAdjust="spacing" textLength="172.1929" x="116.4243" y="847.5513">OIN team notifies you that</text><text fill="#000000" font-family="sans-serif" font-size="13" lengthAdjust="spacing" textLength="256.0264" x="120.5566" y="862.6841">your integration is published in the OIN</text></g><?plantuml-src TPH1RzD048Nl_XMZz09IY5hWW2gb4gb0YeJQY8XM23Yiux4pwcRNx8xJbb_FpDfnx52EsTbvxzituyG7ShK9PWSh4vWsL1l7ArCKv2guECzYNr_ufy6vQTYxPfTZo3ApOHzWibpVmIjJrq2EiGf63bzFm4IGGfRb_Wacj_nWODcNuND0X9Kr3doe9d1MdfSVoZAhZoZIixo1U_fZGf74vEVz-C91Zxo3HKEsmD3QBZ9q1OXnbitdS363wu264MAJxoX6lG_pUQRSRwwIy2MiMQG7Dx8RBns1gYs3B_Kfb_2nhYrjac64A_Zkcw3TC029cSeDPD7YXc5ZQfEJ9IQCO5pnqu54sWUcH0Mo8HjFV3kLzUqKlZdQOuZ6mXTV-OQdK0U_9uMLsKn1DMK8SbXZKACfC3f9QggE88FRekEE7o8oIzkHTxaG7xF7bw2IG4m9vHgqDAPetyxQu4SzckpYe7ZjNKbL4_1__YstP27BfFcri7jZgT2HbTO_nawlpU8hSXCSi8VZWYIOTpEfxGaVam9ZP4KPZqDmdCvZo3kQZS0y4cyxciv-hF59UaFIrq-YIoWzeqA7GQd9ILXkqywwHMcLbFFz3DQwPfoATPDRYbj57I_a7GOgdu6tXk5PDst8B6QrYH4bDciXuE-60hPEyMIlMwjJXUvDFyvos-2lmsLDb56--P22ZADPn57_IslQjtUFaXQPEGp_6ZfuSgcY3R8Fnlhg52XzSBsWyqobpaVUqKOY8l-aGh5tBWOMVm40?></g></svg>