<svg width="1513" height="1648" viewBox="0 0 1513 1648" fill="none" xmlns="http://www.w3.org/2000/svg">
<g id="expression_submission_workflow_new_submission">
<rect width="1513" height="1648" rx="12" fill="#F2F3FD"/>
<g id="Group 22490">
<g id="User Bar">
<rect x="978.375" y="86" width="214" height="51" rx="4" fill="#9DAAF1"/>
<text id="Okta environment" fill="black" style="white-space: pre" xml:space="preserve" font-family="Inter" font-size="16" font-weight="600" letter-spacing="0em"><tspan x="1016.28" y="117.318">Okta environment</tspan></text>
</g>
<path id="Vector 93" d="M1085.38 137L1085.37 171.13" stroke="#9DAAF1" stroke-width="2"/>
<g id="Group 22486">
<circle id="Ellipse 48" cx="1085.38" cy="215.403" r="43.7272" fill="white"/>
<g id="Okta_Aura Logomark">
<path id="Vector" fill-rule="evenodd" clip-rule="evenodd" d="M1087.98 190.265L1086.91 203.182L1086.92 203.183C1086.41 203.122 1085.9 203.088 1085.38 203.088C1084.73 203.088 1084.09 203.136 1083.47 203.23L1082.86 196.966C1082.84 196.77 1083 196.599 1083.2 196.602H1084.29L1083.77 190.265C1083.75 190.07 1083.91 189.903 1084.11 189.903H1087.64C1087.84 189.903 1088 190.07 1087.98 190.265H1087.98ZM1079.06 190.906C1079 190.718 1078.8 190.614 1078.61 190.681L1075.29 191.868C1075.1 191.935 1075.01 192.144 1075.1 192.322L1077.8 198.1L1076.77 198.463C1076.58 198.53 1076.49 198.743 1076.58 198.922L1079.33 204.605C1080.33 204.066 1081.42 203.66 1082.56 203.403L1079.06 190.907L1079.06 190.906ZM1070.9 194.504L1078.54 205.07L1078.55 205.072C1077.58 205.69 1076.7 206.435 1075.94 207.285L1071.37 202.866C1071.22 202.728 1071.23 202.497 1071.39 202.372L1072.22 201.685L1067.67 197.162C1067.53 197.024 1067.54 196.797 1067.69 196.671L1070.4 194.441C1070.55 194.315 1070.78 194.345 1070.9 194.503V194.504ZM1064.48 200.621C1064.32 200.511 1064.09 200.56 1063.99 200.728L1062.23 203.732C1062.13 203.902 1062.2 204.117 1062.37 204.201L1068.23 206.925L1067.68 207.85C1067.58 208.021 1067.65 208.24 1067.84 208.322L1073.67 210.939C1074.1 209.875 1074.66 208.883 1075.35 207.987L1064.48 200.621V200.621ZM1060.17 208.786C1060.2 208.593 1060.4 208.471 1060.59 208.52L1073.37 211.795C1073.04 212.854 1072.85 213.974 1072.83 215.134L1066.43 214.631C1066.23 214.616 1066.08 214.433 1066.12 214.239L1066.31 213.186L1059.86 212.593C1059.66 212.574 1059.52 212.394 1059.55 212.201L1060.17 208.785L1060.17 208.786ZM1059.68 217.251C1059.49 217.27 1059.35 217.45 1059.38 217.642L1059.99 221.058C1060.03 221.251 1060.22 221.373 1060.42 221.324L1066.69 219.717L1066.87 220.77C1066.91 220.964 1067.11 221.087 1067.3 221.034L1073.49 219.36C1073.12 218.309 1072.9 217.196 1072.84 216.039L1059.69 217.252L1059.68 217.251ZM1061.73 226.228C1061.63 226.058 1061.7 225.843 1061.88 225.759L1073.81 220.209C1074.27 221.259 1074.87 222.233 1075.59 223.109L1070.36 226.757C1070.19 226.872 1069.96 226.822 1069.86 226.652L1069.32 225.725L1063.99 229.339C1063.82 229.451 1063.6 229.401 1063.5 229.231L1061.73 226.227L1061.73 226.228ZM1076.19 223.794L1066.91 233.017C1066.77 233.155 1066.78 233.382 1066.93 233.508L1069.64 235.737C1069.79 235.862 1070.02 235.833 1070.14 235.675L1073.89 230.49L1074.72 231.18C1074.88 231.307 1075.11 231.276 1075.22 231.114L1078.86 225.934C1077.87 225.344 1076.98 224.621 1076.19 223.797L1076.19 223.794V223.794ZM1074.36 238.603C1074.17 238.537 1074.08 238.327 1074.16 238.15H1074.16L1079.67 226.37C1080.68 226.878 1081.78 227.257 1082.93 227.481L1081.31 233.571C1081.26 233.762 1081.05 233.869 1080.86 233.801L1079.84 233.432L1078.12 239.563C1078.07 239.751 1077.87 239.855 1077.68 239.788L1074.36 238.602V238.603ZM1083.84 227.623L1082.77 240.541C1082.75 240.735 1082.91 240.903 1083.11 240.903H1086.65C1086.84 240.903 1087 240.735 1086.98 240.541L1086.46 234.204H1087.55C1087.75 234.207 1087.91 234.036 1087.89 233.841L1087.28 227.577C1086.66 227.669 1086.02 227.718 1085.37 227.718C1084.85 227.718 1084.34 227.684 1083.84 227.623L1083.84 227.623ZM1096.59 192.654C1096.67 192.477 1096.58 192.268 1096.4 192.2L1093.07 191.015C1092.89 190.948 1092.68 191.052 1092.63 191.24L1090.91 197.37L1089.89 197.002C1089.7 196.934 1089.49 197.04 1089.44 197.231L1087.83 203.322C1088.98 203.545 1090.07 203.924 1091.08 204.432L1096.59 192.653L1096.59 192.654ZM1103.84 197.787L1094.56 207.011L1094.56 207.007C1093.77 206.182 1092.88 205.46 1091.89 204.87L1095.53 199.69C1095.64 199.529 1095.87 199.497 1096.03 199.625L1096.86 200.314L1100.61 195.13C1100.73 194.971 1100.96 194.941 1101.11 195.068L1103.82 197.296C1103.97 197.422 1103.98 197.649 1103.84 197.787L1103.84 197.787ZM1108.87 205.046C1109.05 204.962 1109.12 204.746 1109.02 204.577L1107.25 201.572C1107.15 201.403 1106.93 201.353 1106.76 201.465L1101.43 205.079L1100.89 204.152C1100.79 203.981 1100.56 203.932 1100.4 204.047L1095.17 207.696C1095.88 208.572 1096.48 209.546 1096.94 210.596L1108.87 205.046H1108.87ZM1110.75 209.747L1111.37 213.163L1111.37 213.165C1111.4 213.357 1111.26 213.538 1111.07 213.556L1097.91 214.768C1097.85 213.61 1097.63 212.498 1097.26 211.447L1103.45 209.772C1103.64 209.719 1103.84 209.842 1103.87 210.036L1104.06 211.089L1110.33 209.482C1110.52 209.432 1110.72 209.554 1110.75 209.747H1110.75ZM1110.16 222.284C1110.35 222.333 1110.55 222.211 1110.58 222.018L1111.19 218.603C1111.23 218.41 1111.09 218.23 1110.89 218.211L1104.44 217.618L1104.63 216.565C1104.66 216.37 1104.52 216.189 1104.32 216.173L1097.92 215.669C1097.9 216.829 1097.71 217.95 1097.38 219.009L1110.16 222.282V222.283L1110.16 222.284ZM1106.76 230.076C1106.66 230.244 1106.43 230.294 1106.27 230.184L1106.27 230.182L1095.4 222.818C1096.09 221.922 1096.65 220.93 1097.08 219.866L1102.91 222.483C1103.09 222.565 1103.17 222.784 1103.06 222.955L1102.52 223.881L1108.37 226.604C1108.55 226.688 1108.62 226.903 1108.52 227.073L1106.76 230.077V230.076ZM1092.2 225.733L1099.85 236.301C1099.97 236.46 1100.2 236.49 1100.35 236.364L1103.06 234.133C1103.21 234.007 1103.22 233.781 1103.08 233.642L1098.53 229.118L1099.36 228.432C1099.52 228.306 1099.53 228.076 1099.38 227.938L1094.81 223.519C1094.05 224.368 1093.17 225.114 1092.2 225.732H1092.2V225.733ZM1092.14 240.123C1091.95 240.189 1091.75 240.085 1091.69 239.898L1088.19 227.402C1089.33 227.145 1090.42 226.738 1091.41 226.2L1094.17 231.883C1094.26 232.062 1094.17 232.275 1093.98 232.342L1092.95 232.705L1095.65 238.483C1095.74 238.66 1095.65 238.869 1095.46 238.936L1092.14 240.123H1092.14Z" fill="#2E40A5"/>
</g>
</g>
<path id="Rectangle 12782" d="M1070.67 254.5H1100.08V1596.46L1085.38 1613.39L1070.67 1596.46V254.5Z" fill="white"/>
</g>
<g id="Group 22489">
<g id="User Bar_2">
<rect x="544.625" y="86" width="214" height="51" rx="4" fill="#9DAAF1"/>
<text id="Auth0 environment" fill="black" style="white-space: pre" xml:space="preserve" font-family="Inter" font-size="16" font-weight="600" letter-spacing="0em"><tspan x="576.883" y="117.318">Auth0 environment</tspan></text>
</g>
<path id="Vector 94" d="M651.625 137L651.625 171.13" stroke="#9DAAF1" stroke-width="2"/>
<g id="Group 22487">
<circle id="Ellipse 47" cx="651.625" cy="215.403" r="43.7272" fill="white"/>
<g id="Auth0_Shield Logomark">
<path id="Vector_2" d="M632.445 213.538C641.205 212.108 648.07 205.297 649.513 196.608L650.214 192.382C650.349 191.565 649.673 190.844 648.839 190.907C642.17 191.419 635.885 193.609 632.413 195.021C630.728 195.707 629.625 197.332 629.625 199.141V212.498C629.625 213.283 630.333 213.881 631.115 213.754L632.445 213.538V213.538Z" fill="#2E40A5"/>
<path id="Vector_3" d="M653.737 196.608C655.179 205.298 662.045 212.108 670.805 213.539L672.135 213.755C672.917 213.882 673.625 213.285 673.625 212.499V199.142C673.625 197.333 672.522 195.708 670.837 195.022C667.365 193.607 661.077 191.42 654.411 190.908C653.577 190.844 652.898 191.563 653.036 192.383L653.737 196.609V196.608Z" fill="#2E40A5"/>
<path id="Vector_4" d="M670.804 217.726C662.044 219.156 655.179 225.967 653.737 234.656L652.862 242.903C652.781 243.647 653.615 244.172 654.243 243.756C654.249 243.752 654.253 243.749 654.259 243.746C659.752 240.07 672.284 230.449 673.524 218.431C673.585 217.84 673.056 217.357 672.466 217.452L670.806 217.722L670.802 217.726H670.804Z" fill="#2E40A5"/>
<path id="Vector_5" d="M649.512 234.656C648.071 225.967 641.205 219.157 632.445 217.726L630.66 217.433C630.134 217.347 629.663 217.78 629.714 218.307C630.89 230.393 643.595 240.074 649.137 243.756C649.711 244.134 650.47 243.679 650.397 242.999L649.512 234.656H649.512Z" fill="#2E40A5"/>
</g>
</g>
<path id="Rectangle 12783" d="M636.924 254.5H666.325V1596.46L651.625 1613.39L636.924 1596.46V254.5Z" fill="white"/>
</g>
<path id="Vector 9" d="M41.5 75.5H1465" stroke="#E1E1E1" stroke-linecap="round"/>
<text id="Expression submission workflow" fill="#272727" style="white-space: pre" xml:space="preserve" font-family="DM Sans" font-size="32" font-weight="500" letter-spacing="0.01em"><tspan x="37" y="56.912">Expression submission workflow</tspan></text>
<g id="Group 22488">
<g id="User Bar_3">
<rect x="91.5" y="86" width="214" height="51" rx="4" fill="#9DAAF1"/>
<text id="ISV User" fill="black" style="white-space: pre" xml:space="preserve" font-family="Inter" font-size="16" font-weight="600" letter-spacing="0em"><tspan x="165.164" y="117.318">ISV User</tspan></text>
</g>
<path id="Vector 68" d="M198.528 137L198.528 171.13" stroke="#9DAAF1" stroke-width="2"/>
<g id="End user flows / Icons / Users">
<rect id="Rectangle 290" x="154.528" y="171.13" width="88" height="88" rx="44" fill="white"/>
<g id="Icon Set 2/User">
<path id="Vector_6" d="M198.5 209.771C192.356 209.771 187.359 204.773 187.359 198.63C187.359 192.487 192.356 187.49 198.5 187.49C204.644 187.49 209.641 192.487 209.641 198.63C209.641 204.773 204.644 209.771 198.5 209.771ZM198.5 190.396C193.959 190.396 190.266 194.09 190.266 198.63C190.266 203.17 193.959 206.865 198.5 206.865C203.041 206.865 206.734 203.17 206.734 198.63C206.734 194.09 203.041 190.396 198.5 190.396Z" fill="#9DAAF1"/>
<path id="Vector_7" d="M198.5 209.771C192.356 209.771 187.359 204.773 187.359 198.63C187.359 192.487 192.356 187.49 198.5 187.49C204.644 187.49 209.641 192.487 209.641 198.63C209.641 204.773 204.644 209.771 198.5 209.771ZM198.5 190.396C193.959 190.396 190.266 194.09 190.266 198.63C190.266 203.17 193.959 206.865 198.5 206.865C203.041 206.865 206.734 203.17 206.734 198.63C206.734 194.09 203.041 190.396 198.5 190.396Z" fill="#9DAAF1"/>
<path id="Vector_8" d="M221.328 237.554C219.309 228.379 217.631 222.576 211.328 219.376C207.662 217.55 203.351 216.621 198.528 216.621C193.705 216.621 189.395 217.55 185.717 219.382C179.426 222.576 177.748 228.379 175.729 237.554L172.891 236.93C175.029 227.21 176.985 220.558 184.412 216.786C188.506 214.746 193.251 213.715 198.528 213.715C203.805 213.715 208.551 214.746 212.634 216.78C220.072 220.558 222.028 227.21 224.166 236.93L221.328 237.554ZM213.366 240.905C212.755 235.292 212.157 231.68 211.366 228.827L208.566 229.603C209.313 232.297 209.885 235.771 210.479 241.219L213.366 240.905ZM188.797 229.644L186.02 228.785C184.951 232.246 184.355 236.573 183.789 241.074L186.673 241.436C187.221 237.068 187.796 232.88 188.797 229.644Z" fill="#9DAAF1"/>
</g>
</g>
<path id="Rectangle 12781" d="M183.8 254.5H213.2V1593.39L198.5 1613.39L183.8 1593.39V254.5Z" fill="white"/>
</g>
<text id="Auth0 OIN dashboard" fill="#2E40A5" style="white-space: pre" xml:space="preserve" font-family="Inter" font-size="16" font-weight="300" letter-spacing="0em"><tspan x="707.625" y="221.221">Auth0 OIN dashboard</tspan></text>
<text id="OIN Wizard" fill="#2E40A5" style="white-space: pre" xml:space="preserve" font-family="Inter" font-size="16" font-weight="300" letter-spacing="0em"><tspan x="1144.45" y="221.221">OIN Wizard</tspan></text>
<path id="Vector 89" d="M647.684 396C647.684 393.054 650.072 390.667 653.018 390.667C655.963 390.667 658.351 393.054 658.351 396C658.351 398.945 655.963 401.333 653.018 401.333C650.072 401.333 647.684 398.945 647.684 396ZM198.848 368.98L198.848 367.98L633.018 367.98L633.018 368.98L633.018 369.98L198.848 369.98L198.848 368.98ZM653.018 388.98L654.018 388.98L654.018 396L653.018 396L652.018 396L652.018 388.98L653.018 388.98ZM633.018 368.98L633.018 367.98C644.616 367.98 654.018 377.382 654.018 388.98L653.018 388.98L652.018 388.98C652.018 378.487 643.511 369.98 633.018 369.98L633.018 368.98Z" fill="#F9C503"/>
<path id="Vector 91" d="M1080.04 655.02C1080.04 652.074 1082.43 649.687 1085.38 649.687C1088.32 649.687 1090.71 652.074 1090.71 655.02C1090.71 657.965 1088.32 660.353 1085.38 660.353C1082.43 660.353 1080.04 657.965 1080.04 655.02ZM198.848 620.91L198.848 619.91L1065.38 619.91L1065.38 620.91L1065.38 621.91L198.848 621.91L198.848 620.91ZM1085.38 640.91L1086.38 640.91L1086.38 655.02L1085.38 655.02L1084.38 655.02L1084.38 640.91L1085.38 640.91ZM1065.38 620.91L1065.38 619.91C1076.97 619.91 1086.38 629.312 1086.38 640.91L1085.38 640.91L1084.38 640.91C1084.38 630.417 1075.87 621.91 1065.38 621.91L1065.38 620.91Z" fill="#F9C503"/>
<path id="Vector 92" d="M1080.04 709.257C1080.04 706.312 1082.43 703.924 1085.38 703.924C1088.32 703.924 1090.71 706.312 1090.71 709.257C1090.71 712.203 1088.32 714.591 1085.38 714.591C1082.43 714.591 1080.04 712.203 1080.04 709.257ZM198.848 676.016L198.848 675.016L1065.38 675.016L1065.38 676.016L1065.38 677.016L198.848 677.016L198.848 676.016ZM1085.38 696.016L1086.38 696.016L1086.38 709.257L1085.38 709.257L1084.38 709.257L1084.38 696.016L1085.38 696.016ZM1065.38 676.016L1065.38 675.016C1076.97 675.016 1086.38 684.418 1086.38 696.016L1085.38 696.016L1084.38 696.016C1084.38 685.523 1075.87 677.016 1065.38 677.016L1065.38 676.016Z" fill="#F9C503"/>
<path id="Vector 95" d="M1080.04 879.159C1080.04 876.214 1082.43 873.826 1085.38 873.826C1088.32 873.826 1090.71 876.214 1090.71 879.159C1090.71 882.105 1088.32 884.493 1085.38 884.493C1082.43 884.493 1080.04 882.105 1080.04 879.159ZM198.848 857.607L198.848 856.607L1065.38 856.607L1065.38 857.607L1065.38 858.607L198.848 858.607L198.848 857.607ZM1085.38 877.607L1086.38 877.607L1086.38 879.159L1085.38 879.159L1084.38 879.159L1084.38 877.607L1085.38 877.607ZM1065.38 857.607L1065.38 856.607C1076.97 856.607 1086.38 866.009 1086.38 877.607L1085.38 877.607L1084.38 877.607C1084.38 867.114 1075.87 858.607 1065.38 858.607L1065.38 857.607Z" fill="#F9C503"/>
<path id="Vector 97" d="M1080.04 1052.78C1080.04 1049.83 1082.43 1047.45 1085.38 1047.45C1088.32 1047.45 1090.71 1049.83 1090.71 1052.78C1090.71 1055.72 1088.32 1058.11 1085.38 1058.11C1082.43 1058.11 1080.04 1055.72 1080.04 1052.78ZM198.848 1031.23L198.848 1030.23L1065.38 1030.23L1065.38 1031.23L1065.38 1032.23L198.848 1032.23L198.848 1031.23ZM1085.38 1051.23L1086.38 1051.23L1086.38 1052.78L1085.38 1052.78L1084.38 1052.78L1084.38 1051.23L1085.38 1051.23ZM1065.38 1031.23L1065.38 1030.23C1076.97 1030.23 1086.38 1039.63 1086.38 1051.23L1085.38 1051.23L1084.38 1051.23C1084.38 1040.73 1075.87 1032.23 1065.38 1032.23L1065.38 1031.23Z" fill="#F9C503"/>
<path id="Vector 110" d="M646.118 1581.09C646.118 1578.15 648.506 1575.76 651.452 1575.76C654.397 1575.76 656.785 1578.15 656.785 1581.09C656.785 1584.04 654.397 1586.43 651.452 1586.43C648.506 1586.43 646.118 1584.04 646.118 1581.09ZM198.848 1559.54L198.848 1558.54L631.452 1558.54L631.452 1559.54L631.452 1560.54L198.848 1560.54L198.848 1559.54ZM651.452 1579.54L652.452 1579.54L652.452 1581.09L651.452 1581.09L650.452 1581.09L650.452 1579.54L651.452 1579.54ZM631.452 1559.54L631.452 1558.54C643.05 1558.54 652.452 1567.94 652.452 1579.54L651.452 1579.54L650.452 1579.54C650.452 1569.05 641.945 1560.54 631.452 1560.54L631.452 1559.54Z" fill="#F9C503"/>
<path id="Vector 105" d="M646.118 1304.35C646.118 1301.41 648.506 1299.02 651.452 1299.02C654.397 1299.02 656.785 1301.41 656.785 1304.35C656.785 1307.3 654.397 1309.69 651.452 1309.69C648.506 1309.69 646.118 1307.3 646.118 1304.35ZM198.848 1282.8L198.848 1281.8L631.452 1281.8L631.452 1282.8L631.452 1283.8L198.848 1283.8L198.848 1282.8ZM651.452 1302.8L652.452 1302.8L652.452 1304.35L651.452 1304.35L650.452 1304.35L650.452 1302.8L651.452 1302.8ZM631.452 1282.8L631.452 1281.8C643.05 1281.8 652.452 1291.2 652.452 1302.8L651.452 1302.8L650.452 1302.8C650.452 1292.31 641.945 1283.8 631.452 1283.8L631.452 1282.8Z" fill="#F9C503"/>
<path id="Vector 109" d="M204.181 1532.82C204.181 1529.87 201.794 1527.49 198.848 1527.49C195.903 1527.49 193.515 1529.87 193.515 1532.82C193.515 1535.77 195.903 1538.15 198.848 1538.15C201.794 1538.15 204.181 1535.77 204.181 1532.82ZM651.452 1511.27L651.452 1510.27L218.848 1510.27L218.848 1511.27L218.848 1512.27L651.452 1512.27L651.452 1511.27ZM198.848 1531.27L197.848 1531.27L197.848 1532.82L198.848 1532.82L199.848 1532.82L199.848 1531.27L198.848 1531.27ZM218.848 1511.27L218.848 1510.27C207.25 1510.27 197.848 1519.67 197.848 1531.27L198.848 1531.27L199.848 1531.27C199.848 1520.77 208.355 1512.27 218.848 1512.27L218.848 1511.27Z" fill="#F9C503"/>
<path id="Vector 99" d="M1080.04 1138C1080.04 1135.05 1082.43 1132.67 1085.38 1132.67C1088.32 1132.67 1090.71 1135.05 1090.71 1138C1090.71 1140.94 1088.32 1143.33 1085.38 1143.33C1082.43 1143.33 1080.04 1140.94 1080.04 1138ZM198.848 1138L198.848 1137L1085.38 1137L1085.38 1138L1085.38 1139L198.848 1139L198.848 1138Z" fill="#F9C503"/>
<path id="Vector 102" d="M1080.04 907.769C1080.04 904.824 1082.43 902.436 1085.38 902.436C1088.32 902.436 1090.71 904.824 1090.71 907.769C1090.71 910.715 1088.32 913.102 1085.38 913.102C1082.43 913.102 1080.04 910.715 1080.04 907.769ZM198.848 907.769L198.848 906.769L1085.38 906.769L1085.38 907.769L1085.38 908.769L198.848 908.769L198.848 907.769Z" fill="#F9C503"/>
<path id="Vector 90" d="M647.684 492.98C647.684 490.034 650.072 487.647 653.018 487.647C655.963 487.647 658.351 490.034 658.351 492.98C658.351 495.925 655.963 498.313 653.018 498.313C650.072 498.313 647.684 495.925 647.684 492.98ZM198.848 492.979L198.848 491.979L653.018 491.98L653.018 492.98L653.018 493.98L198.848 493.979L198.848 492.979Z" fill="#F9C503"/>
<text id="Contains Auth0 metadata &#226;&#128;&#168;(Client ID, issuer, etc.)" fill="#2E40A5" style="white-space: pre" xml:space="preserve" font-family="Inter" font-size="16" font-weight="300" letter-spacing="0em"><tspan x="855.533" y="456.818">Contains Auth0 metadata &#x2028;</tspan><tspan x="871.768" y="475.818">(Client ID, issuer, etc.)</tspan></text>
<path id="Vector 88" d="M654.291 416.534H653.291V418.534H654.291V417.534V416.534ZM659.624 454C659.624 451.054 657.236 448.667 654.291 448.667C651.345 448.667 648.957 451.054 648.957 454C648.957 456.946 651.345 459.333 654.291 459.333C657.236 459.333 659.624 456.946 659.624 454ZM656.349 455C656.901 455 657.349 454.552 657.349 454C657.349 453.448 656.901 453 656.349 453V454V455ZM660.466 453C659.913 453 659.466 453.448 659.466 454C659.466 454.552 659.913 455 660.466 455V454V453ZM664.582 455C665.135 455 665.582 454.552 665.582 454C665.582 453.448 665.135 453 664.582 453V454V455ZM668.699 453C668.147 453 667.699 453.448 667.699 454C667.699 454.552 668.147 455 668.699 455V454V453ZM672.816 455C673.368 455 673.816 454.552 673.816 454C673.816 453.448 673.368 453 672.816 453V454V455ZM676.933 453C676.38 453 675.933 453.448 675.933 454C675.933 454.552 676.38 455 676.933 455V454V453ZM681.049 455C681.602 455 682.049 454.552 682.049 454C682.049 453.448 681.602 453 681.049 453V454V455ZM685.166 453C684.614 453 684.166 453.448 684.166 454C684.166 454.552 684.614 455 685.166 455V454V453ZM689.283 455C689.835 455 690.283 454.552 690.283 454C690.283 453.448 689.835 453 689.283 453V454V455ZM693.4 453C692.847 453 692.4 453.448 692.4 454C692.4 454.552 692.847 455 693.4 455V454V453ZM697.516 455C698.069 455 698.516 454.552 698.516 454C698.516 453.448 698.069 453 697.516 453V454V455ZM701.633 453C701.081 453 700.633 453.448 700.633 454C700.633 454.552 701.081 455 701.633 455V454V453ZM705.75 455C706.302 455 706.75 454.552 706.75 454C706.75 453.448 706.302 453 705.75 453V454V455ZM709.867 453C709.314 453 708.867 453.448 708.867 454C708.867 454.552 709.314 455 709.867 455V454V453ZM713.983 455C714.536 455 714.983 454.552 714.983 454C714.983 453.448 714.536 453 713.983 453V454V455ZM718.1 453C717.548 453 717.1 453.448 717.1 454C717.1 454.552 717.548 455 718.1 455V454V453ZM722.217 455C722.769 455 723.217 454.552 723.217 454C723.217 453.448 722.769 453 722.217 453V454V455ZM726.334 453C725.781 453 725.334 453.448 725.334 454C725.334 454.552 725.781 455 726.334 455V454V453ZM730.277 454.909C730.826 454.855 731.229 454.366 731.175 453.817C731.122 453.267 730.633 452.865 730.083 452.918L730.18 453.913L730.277 454.909ZM733.397 452.262C732.868 452.422 732.569 452.981 732.729 453.509C732.89 454.038 733.448 454.337 733.976 454.176L733.687 453.219L733.397 452.262ZM737.461 452.732C737.947 452.471 738.131 451.865 737.87 451.378C737.609 450.891 737.003 450.708 736.516 450.969L736.988 451.85L737.461 452.732ZM739.324 449.089C738.898 449.44 738.836 450.07 739.186 450.497C739.537 450.923 740.167 450.985 740.594 450.634L739.959 449.862L739.324 449.089ZM743.259 447.969C743.61 447.542 743.548 446.912 743.122 446.561C742.695 446.211 742.065 446.273 741.714 446.699L742.487 447.334L743.259 447.969ZM743.594 443.891C743.333 444.378 743.516 444.984 744.003 445.245C744.49 445.506 745.096 445.322 745.357 444.836L744.475 444.363L743.594 443.891ZM746.801 441.351C746.962 440.823 746.663 440.265 746.134 440.104C745.606 439.944 745.047 440.243 744.887 440.772L745.844 441.062L746.801 441.351ZM745.543 437.458C745.49 438.008 745.892 438.497 746.442 438.55C746.991 438.604 747.48 438.201 747.534 437.652L746.538 437.555L745.543 437.458ZM747.534 433.882C747.48 433.333 746.991 432.93 746.442 432.984C745.892 433.037 745.49 433.526 745.543 434.076L746.538 433.979L747.534 433.882ZM744.887 430.762C745.047 431.291 745.606 431.59 746.134 431.429C746.663 431.269 746.962 430.711 746.801 430.182L745.844 430.472L744.887 430.762ZM745.357 426.698C745.096 426.211 744.49 426.028 744.003 426.289C743.516 426.55 743.333 427.156 743.594 427.643L744.475 427.17L745.357 426.698ZM741.714 424.835C742.065 425.261 742.695 425.323 743.122 424.973C743.548 424.622 743.61 423.992 743.259 423.565L742.487 424.2L741.714 424.835ZM740.594 420.899C740.167 420.549 739.537 420.611 739.186 421.037C738.836 421.464 738.898 422.094 739.324 422.445L739.959 421.672L740.594 420.899ZM736.516 420.565C737.003 420.826 737.609 420.643 737.87 420.156C738.131 419.669 737.947 419.063 737.461 418.802L736.988 419.684L736.516 420.565ZM733.976 417.358C733.448 417.197 732.89 417.496 732.729 418.025C732.569 418.553 732.868 419.111 733.397 419.272L733.687 418.315L733.976 417.358ZM730.083 418.616C730.633 418.669 731.122 418.267 731.175 417.717C731.229 417.168 730.826 416.679 730.277 416.625L730.18 417.62L730.083 418.616ZM726.334 416.534C725.781 416.534 725.334 416.982 725.334 417.534C725.334 418.086 725.781 418.534 726.334 418.534V417.534V416.534ZM722.217 418.534C722.769 418.534 723.217 418.086 723.217 417.534C723.217 416.982 722.769 416.534 722.217 416.534V417.534V418.534ZM718.1 416.534C717.548 416.534 717.1 416.982 717.1 417.534C717.1 418.086 717.548 418.534 718.1 418.534V417.534V416.534ZM713.983 418.534C714.536 418.534 714.983 418.086 714.983 417.534C714.983 416.982 714.536 416.534 713.983 416.534V417.534V418.534ZM709.867 416.534C709.314 416.534 708.867 416.982 708.867 417.534C708.867 418.086 709.314 418.534 709.867 418.534V417.534V416.534ZM705.75 418.534C706.302 418.534 706.75 418.086 706.75 417.534C706.75 416.982 706.302 416.534 705.75 416.534V417.534V418.534ZM701.633 416.534C701.081 416.534 700.633 416.982 700.633 417.534C700.633 418.086 701.081 418.534 701.633 418.534V417.534V416.534ZM697.516 418.534C698.069 418.534 698.516 418.086 698.516 417.534C698.516 416.982 698.069 416.534 697.516 416.534V417.534V418.534ZM693.4 416.534C692.847 416.534 692.4 416.982 692.4 417.534C692.4 418.086 692.847 418.534 693.4 418.534V417.534V416.534ZM689.283 418.534C689.835 418.534 690.283 418.086 690.283 417.534C690.283 416.982 689.835 416.534 689.283 416.534V417.534V418.534ZM685.166 416.534C684.614 416.534 684.166 416.982 684.166 417.534C684.166 418.086 684.614 418.534 685.166 418.534V417.534V416.534ZM681.049 418.534C681.602 418.534 682.049 418.086 682.049 417.534C682.049 416.982 681.602 416.534 681.049 416.534V417.534V418.534ZM676.933 416.534C676.38 416.534 675.933 416.982 675.933 417.534C675.933 418.086 676.38 418.534 676.933 418.534V417.534V416.534ZM672.816 418.534C673.368 418.534 673.816 418.086 673.816 417.534C673.816 416.982 673.368 416.534 672.816 416.534V417.534V418.534ZM668.699 416.534C668.147 416.534 667.699 416.982 667.699 417.534C667.699 418.086 668.147 418.534 668.699 418.534V417.534V416.534ZM664.582 418.534C665.135 418.534 665.582 418.086 665.582 417.534C665.582 416.982 665.135 416.534 664.582 416.534V417.534V418.534ZM660.466 416.534C659.913 416.534 659.466 416.982 659.466 417.534C659.466 418.086 659.913 418.534 660.466 418.534V417.534V416.534ZM656.349 418.534C656.901 418.534 657.349 418.086 657.349 417.534C657.349 416.982 656.901 416.534 656.349 416.534V417.534V418.534ZM654.291 454V455H656.349V454V453H654.291V454ZM660.466 454V455H664.582V454V453H660.466V454ZM668.699 454V455H672.816V454V453H668.699V454ZM676.933 454V455H681.049V454V453H676.933V454ZM685.166 454V455H689.283V454V453H685.166V454ZM693.4 454V455H697.516V454V453H693.4V454ZM701.633 454V455H705.75V454V453H701.633V454ZM709.867 454V455H713.983V454V453H709.867V454ZM718.1 454V455H722.217V454V453H718.1V454ZM726.334 454V455H728.392V454V453H726.334V454ZM728.392 454V455C729.028 455 729.656 454.969 730.277 454.909L730.18 453.913L730.083 452.918C729.527 452.972 728.963 453 728.392 453V454ZM733.687 453.219L733.976 454.176C735.193 453.808 736.359 453.322 737.461 452.732L736.988 451.85L736.516 450.969C735.53 451.497 734.486 451.932 733.397 452.262L733.687 453.219ZM739.959 449.862L740.594 450.634C741.567 449.835 742.46 448.942 743.259 447.969L742.487 447.334L741.714 446.699C740.997 447.572 740.197 448.372 739.324 449.089L739.959 449.862ZM744.475 444.363L745.357 444.836C745.947 443.734 746.433 442.568 746.801 441.351L745.844 441.062L744.887 440.772C744.557 441.861 744.122 442.905 743.594 443.891L744.475 444.363ZM746.538 437.555L747.534 437.652C747.594 437.031 747.625 436.403 747.625 435.767H746.625H745.625C745.625 436.338 745.597 436.902 745.543 437.458L746.538 437.555ZM746.625 435.767H747.625C747.625 435.131 747.594 434.503 747.534 433.882L746.538 433.979L745.543 434.076C745.597 434.632 745.625 435.196 745.625 435.767H746.625ZM745.844 430.472L746.801 430.182C746.433 428.966 745.947 427.8 745.357 426.698L744.475 427.17L743.594 427.643C744.122 428.629 744.557 429.673 744.887 430.762L745.844 430.472ZM742.487 424.2L743.259 423.565C742.46 422.592 741.567 421.699 740.594 420.899L739.959 421.672L739.324 422.445C740.197 423.162 740.997 423.962 741.714 424.835L742.487 424.2ZM736.988 419.684L737.461 418.802C736.359 418.212 735.193 417.726 733.976 417.358L733.687 418.315L733.397 419.272C734.486 419.602 735.53 420.037 736.516 420.565L736.988 419.684ZM730.18 417.62L730.277 416.625C729.656 416.565 729.028 416.534 728.392 416.534V417.534V418.534C728.963 418.534 729.527 418.562 730.083 418.616L730.18 417.62ZM728.392 417.534V416.534H726.334V417.534V418.534H728.392V417.534ZM722.217 417.534V416.534H718.1V417.534V418.534H722.217V417.534ZM713.983 417.534V416.534H709.867V417.534V418.534H713.983V417.534ZM705.75 417.534V416.534H701.633V417.534V418.534H705.75V417.534ZM697.516 417.534V416.534H693.4V417.534V418.534H697.516V417.534ZM689.283 417.534V416.534H685.166V417.534V418.534H689.283V417.534ZM681.049 417.534V416.534H676.933V417.534V418.534H681.049V417.534ZM672.816 417.534V416.534H668.699V417.534V418.534H672.816V417.534ZM664.582 417.534V416.534H660.466V417.534V418.534H664.582V417.534ZM656.349 417.534V416.534H654.291V417.534V418.534H656.349V417.534Z" fill="#9DAAF1"/>
<path id="Vector 93_2" d="M1085.38 719.433H1084.38V721.433H1085.38V720.433V719.433ZM1090.71 756.899C1090.71 753.954 1088.32 751.566 1085.38 751.566C1082.43 751.566 1080.04 753.954 1080.04 756.899C1080.04 759.845 1082.43 762.233 1085.38 762.233C1088.32 762.233 1090.71 759.845 1090.71 756.899ZM1087.43 757.899C1087.99 757.899 1088.43 757.451 1088.43 756.899C1088.43 756.347 1087.99 755.899 1087.43 755.899V756.899V757.899ZM1091.55 755.899C1091 755.899 1090.55 756.347 1090.55 756.899C1090.55 757.451 1091 757.899 1091.55 757.899V756.899V755.899ZM1095.67 757.899C1096.22 757.899 1096.67 757.451 1096.67 756.899C1096.67 756.347 1096.22 755.899 1095.67 755.899V756.899V757.899ZM1099.78 755.899C1099.23 755.899 1098.78 756.347 1098.78 756.899C1098.78 757.451 1099.23 757.899 1099.78 757.899V756.899V755.899ZM1103.9 757.899C1104.45 757.899 1104.9 757.451 1104.9 756.899C1104.9 756.347 1104.45 755.899 1103.9 755.899V756.899V757.899ZM1108.02 755.899C1107.46 755.899 1107.02 756.347 1107.02 756.899C1107.02 757.451 1107.46 757.899 1108.02 757.899V756.899V755.899ZM1112.13 757.899C1112.69 757.899 1113.13 757.451 1113.13 756.899C1113.13 756.347 1112.69 755.899 1112.13 755.899V756.899V757.899ZM1116.25 755.899C1115.7 755.899 1115.25 756.347 1115.25 756.899C1115.25 757.451 1115.7 757.899 1116.25 757.899V756.899V755.899ZM1120.37 757.899C1120.92 757.899 1121.37 757.451 1121.37 756.899C1121.37 756.347 1120.92 755.899 1120.37 755.899V756.899V757.899ZM1124.48 755.899C1123.93 755.899 1123.48 756.347 1123.48 756.899C1123.48 757.451 1123.93 757.899 1124.48 757.899V756.899V755.899ZM1128.6 757.899C1129.15 757.899 1129.6 757.451 1129.6 756.899C1129.6 756.347 1129.15 755.899 1128.6 755.899V756.899V757.899ZM1132.72 755.899C1132.17 755.899 1131.72 756.347 1131.72 756.899C1131.72 757.451 1132.17 757.899 1132.72 757.899V756.899V755.899ZM1136.83 757.899C1137.39 757.899 1137.83 757.451 1137.83 756.899C1137.83 756.347 1137.39 755.899 1136.83 755.899V756.899V757.899ZM1140.95 755.899C1140.4 755.899 1139.95 756.347 1139.95 756.899C1139.95 757.451 1140.4 757.899 1140.95 757.899V756.899V755.899ZM1145.07 757.899C1145.62 757.899 1146.07 757.451 1146.07 756.899C1146.07 756.347 1145.62 755.899 1145.07 755.899V756.899V757.899ZM1149.18 755.899C1148.63 755.899 1148.18 756.347 1148.18 756.899C1148.18 757.451 1148.63 757.899 1149.18 757.899V756.899V755.899ZM1153.3 757.899C1153.85 757.899 1154.3 757.451 1154.3 756.899C1154.3 756.347 1153.85 755.899 1153.3 755.899V756.899V757.899ZM1157.42 755.899C1156.87 755.899 1156.42 756.347 1156.42 756.899C1156.42 757.451 1156.87 757.899 1157.42 757.899V756.899V755.899ZM1161.36 757.808C1161.91 757.754 1162.31 757.265 1162.26 756.716C1162.21 756.166 1161.72 755.764 1161.17 755.817L1161.26 756.813L1161.36 757.808ZM1164.48 755.162C1163.95 755.322 1163.65 755.88 1163.81 756.409C1163.97 756.937 1164.53 757.236 1165.06 757.076L1164.77 756.119L1164.48 755.162ZM1168.54 755.631C1169.03 755.37 1169.22 754.764 1168.95 754.277C1168.69 753.79 1168.09 753.607 1167.6 753.868L1168.07 754.749L1168.54 755.631ZM1170.41 751.988C1169.98 752.339 1169.92 752.969 1170.27 753.396C1170.62 753.823 1171.25 753.884 1171.68 753.534L1171.04 752.761L1170.41 751.988ZM1174.34 750.868C1174.69 750.441 1174.63 749.811 1174.21 749.461C1173.78 749.11 1173.15 749.172 1172.8 749.598L1173.57 750.233L1174.34 750.868ZM1174.68 746.791C1174.42 747.277 1174.6 747.883 1175.09 748.144C1175.57 748.405 1176.18 748.222 1176.44 747.735L1175.56 747.263L1174.68 746.791ZM1177.89 744.251C1178.05 743.722 1177.75 743.164 1177.22 743.004C1176.69 742.844 1176.13 743.142 1175.97 743.671L1176.93 743.961L1177.89 744.251ZM1176.63 740.357C1176.57 740.907 1176.98 741.396 1177.53 741.449C1178.08 741.503 1178.56 741.101 1178.62 740.551L1177.62 740.454L1176.63 740.357ZM1178.62 736.781C1178.56 736.232 1178.08 735.83 1177.53 735.883C1176.98 735.936 1176.57 736.425 1176.63 736.975L1177.62 736.878L1178.62 736.781ZM1175.97 733.662C1176.13 734.19 1176.69 734.489 1177.22 734.329C1177.75 734.168 1178.05 733.61 1177.89 733.082L1176.93 733.372L1175.97 733.662ZM1176.44 729.597C1176.18 729.111 1175.57 728.927 1175.09 729.188C1174.6 729.449 1174.42 730.055 1174.68 730.542L1175.56 730.07L1176.44 729.597ZM1172.8 727.734C1173.15 728.161 1173.78 728.222 1174.21 727.872C1174.63 727.521 1174.69 726.891 1174.34 726.464L1173.57 727.099L1172.8 727.734ZM1171.68 723.799C1171.25 723.448 1170.62 723.51 1170.27 723.936C1169.92 724.363 1169.98 724.993 1170.41 725.344L1171.04 724.571L1171.68 723.799ZM1167.6 723.464C1168.09 723.725 1168.69 723.542 1168.95 723.055C1169.22 722.568 1169.03 721.962 1168.54 721.701L1168.07 722.583L1167.6 723.464ZM1165.06 720.257C1164.53 720.097 1163.97 720.395 1163.81 720.924C1163.65 721.452 1163.95 722.011 1164.48 722.171L1164.77 721.214L1165.06 720.257ZM1161.17 721.515C1161.72 721.568 1162.21 721.166 1162.26 720.617C1162.31 720.067 1161.91 719.578 1161.36 719.524L1161.26 720.52L1161.17 721.515ZM1157.42 719.433C1156.87 719.433 1156.42 719.881 1156.42 720.433C1156.42 720.985 1156.87 721.433 1157.42 721.433V720.433V719.433ZM1153.3 721.433C1153.85 721.433 1154.3 720.985 1154.3 720.433C1154.3 719.881 1153.85 719.433 1153.3 719.433V720.433V721.433ZM1149.18 719.433C1148.63 719.433 1148.18 719.881 1148.18 720.433C1148.18 720.985 1148.63 721.433 1149.18 721.433V720.433V719.433ZM1145.07 721.433C1145.62 721.433 1146.07 720.985 1146.07 720.433C1146.07 719.881 1145.62 719.433 1145.07 719.433V720.433V721.433ZM1140.95 719.433C1140.4 719.433 1139.95 719.881 1139.95 720.433C1139.95 720.985 1140.4 721.433 1140.95 721.433V720.433V719.433ZM1136.83 721.433C1137.39 721.433 1137.83 720.985 1137.83 720.433C1137.83 719.881 1137.39 719.433 1136.83 719.433V720.433V721.433ZM1132.72 719.433C1132.17 719.433 1131.72 719.881 1131.72 720.433C1131.72 720.985 1132.17 721.433 1132.72 721.433V720.433V719.433ZM1128.6 721.433C1129.15 721.433 1129.6 720.985 1129.6 720.433C1129.6 719.881 1129.15 719.433 1128.6 719.433V720.433V721.433ZM1124.48 719.433C1123.93 719.433 1123.48 719.881 1123.48 720.433C1123.48 720.985 1123.93 721.433 1124.48 721.433V720.433V719.433ZM1120.37 721.433C1120.92 721.433 1121.37 720.985 1121.37 720.433C1121.37 719.881 1120.92 719.433 1120.37 719.433V720.433V721.433ZM1116.25 719.433C1115.7 719.433 1115.25 719.881 1115.25 720.433C1115.25 720.985 1115.7 721.433 1116.25 721.433V720.433V719.433ZM1112.13 721.433C1112.69 721.433 1113.13 720.985 1113.13 720.433C1113.13 719.881 1112.69 719.433 1112.13 719.433V720.433V721.433ZM1108.02 719.433C1107.46 719.433 1107.02 719.881 1107.02 720.433C1107.02 720.985 1107.46 721.433 1108.02 721.433V720.433V719.433ZM1103.9 721.433C1104.45 721.433 1104.9 720.985 1104.9 720.433C1104.9 719.881 1104.45 719.433 1103.9 719.433V720.433V721.433ZM1099.78 719.433C1099.23 719.433 1098.78 719.881 1098.78 720.433C1098.78 720.985 1099.23 721.433 1099.78 721.433V720.433V719.433ZM1095.67 721.433C1096.22 721.433 1096.67 720.985 1096.67 720.433C1096.67 719.881 1096.22 719.433 1095.67 719.433V720.433V721.433ZM1091.55 719.433C1091 719.433 1090.55 719.881 1090.55 720.433C1090.55 720.985 1091 721.433 1091.55 721.433V720.433V719.433ZM1087.43 721.433C1087.99 721.433 1088.43 720.985 1088.43 720.433C1088.43 719.881 1087.99 719.433 1087.43 719.433V720.433V721.433ZM1085.38 756.899V757.899H1087.43V756.899V755.899H1085.38V756.899ZM1091.55 756.899V757.899H1095.67V756.899V755.899H1091.55V756.899ZM1099.78 756.899V757.899H1103.9V756.899V755.899H1099.78V756.899ZM1108.02 756.899V757.899H1112.13V756.899V755.899H1108.02V756.899ZM1116.25 756.899V757.899H1120.37V756.899V755.899H1116.25V756.899ZM1124.48 756.899V757.899H1128.6V756.899V755.899H1124.48V756.899ZM1132.72 756.899V757.899H1136.83V756.899V755.899H1132.72V756.899ZM1140.95 756.899V757.899H1145.07V756.899V755.899H1140.95V756.899ZM1149.18 756.899V757.899H1153.3V756.899V755.899H1149.18V756.899ZM1157.42 756.899V757.899H1159.48V756.899V755.899H1157.42V756.899ZM1159.48 756.899V757.899C1160.11 757.899 1160.74 757.868 1161.36 757.808L1161.26 756.813L1161.17 755.817C1160.61 755.871 1160.05 755.899 1159.48 755.899V756.899ZM1164.77 756.119L1165.06 757.076C1166.28 756.707 1167.44 756.221 1168.54 755.631L1168.07 754.749L1167.6 753.868C1166.61 754.396 1165.57 754.831 1164.48 755.162L1164.77 756.119ZM1171.04 752.761L1171.68 753.534C1172.65 752.734 1173.54 751.841 1174.34 750.868L1173.57 750.233L1172.8 749.598C1172.08 750.471 1171.28 751.272 1170.41 751.988L1171.04 752.761ZM1175.56 747.263L1176.44 747.735C1177.03 746.633 1177.52 745.468 1177.89 744.251L1176.93 743.961L1175.97 743.671C1175.64 744.76 1175.21 745.804 1174.68 746.791L1175.56 747.263ZM1177.62 740.454L1178.62 740.551C1178.68 739.93 1178.71 739.302 1178.71 738.666H1177.71H1176.71C1176.71 739.237 1176.68 739.801 1176.63 740.357L1177.62 740.454ZM1177.71 738.666H1178.71C1178.71 738.031 1178.68 737.402 1178.62 736.781L1177.62 736.878L1176.63 736.975C1176.68 737.531 1176.71 738.095 1176.71 738.666H1177.71ZM1176.93 733.372L1177.89 733.082C1177.52 731.865 1177.03 730.699 1176.44 729.597L1175.56 730.07L1174.68 730.542C1175.21 731.528 1175.64 732.572 1175.97 733.662L1176.93 733.372ZM1173.57 727.099L1174.34 726.464C1173.54 725.491 1172.65 724.598 1171.68 723.799L1171.04 724.571L1170.41 725.344C1171.28 726.061 1172.08 726.861 1172.8 727.734L1173.57 727.099ZM1168.07 722.583L1168.54 721.701C1167.44 721.111 1166.28 720.625 1165.06 720.257L1164.77 721.214L1164.48 722.171C1165.57 722.501 1166.61 722.936 1167.6 723.464L1168.07 722.583ZM1161.26 720.52L1161.36 719.524C1160.74 719.464 1160.11 719.433 1159.48 719.433V720.433V721.433C1160.05 721.433 1160.61 721.461 1161.17 721.515L1161.26 720.52ZM1159.48 720.433V719.433H1157.42V720.433V721.433H1159.48V720.433ZM1153.3 720.433V719.433H1149.18V720.433V721.433H1153.3V720.433ZM1145.07 720.433V719.433H1140.95V720.433V721.433H1145.07V720.433ZM1136.83 720.433V719.433H1132.72V720.433V721.433H1136.83V720.433ZM1128.6 720.433V719.433H1124.48V720.433V721.433H1128.6V720.433ZM1120.37 720.433V719.433H1116.25V720.433V721.433H1120.37V720.433ZM1112.13 720.433V719.433H1108.02V720.433V721.433H1112.13V720.433ZM1103.9 720.433V719.433H1099.78V720.433V721.433H1103.9V720.433ZM1095.67 720.433V719.433H1091.55V720.433V721.433H1095.67V720.433ZM1087.43 720.433V719.433H1085.38V720.433V721.433H1087.43V720.433Z" fill="#9DAAF1"/>
<path id="Vector 98" d="M1085.38 1066.71H1084.38V1068.71H1085.38V1067.71V1066.71ZM1090.71 1104.17C1090.71 1101.23 1088.32 1098.84 1085.38 1098.84C1082.43 1098.84 1080.04 1101.23 1080.04 1104.17C1080.04 1107.12 1082.43 1109.51 1085.38 1109.51C1088.32 1109.51 1090.71 1107.12 1090.71 1104.17ZM1087.43 1105.17C1087.99 1105.17 1088.43 1104.73 1088.43 1104.17C1088.43 1103.62 1087.99 1103.17 1087.43 1103.17V1104.17V1105.17ZM1091.55 1103.17C1091 1103.17 1090.55 1103.62 1090.55 1104.17C1090.55 1104.73 1091 1105.17 1091.55 1105.17V1104.17V1103.17ZM1095.67 1105.17C1096.22 1105.17 1096.67 1104.73 1096.67 1104.17C1096.67 1103.62 1096.22 1103.17 1095.67 1103.17V1104.17V1105.17ZM1099.78 1103.17C1099.23 1103.17 1098.78 1103.62 1098.78 1104.17C1098.78 1104.73 1099.23 1105.17 1099.78 1105.17V1104.17V1103.17ZM1103.9 1105.17C1104.45 1105.17 1104.9 1104.73 1104.9 1104.17C1104.9 1103.62 1104.45 1103.17 1103.9 1103.17V1104.17V1105.17ZM1108.02 1103.17C1107.46 1103.17 1107.02 1103.62 1107.02 1104.17C1107.02 1104.73 1107.46 1105.17 1108.02 1105.17V1104.17V1103.17ZM1112.13 1105.17C1112.69 1105.17 1113.13 1104.73 1113.13 1104.17C1113.13 1103.62 1112.69 1103.17 1112.13 1103.17V1104.17V1105.17ZM1116.25 1103.17C1115.7 1103.17 1115.25 1103.62 1115.25 1104.17C1115.25 1104.73 1115.7 1105.17 1116.25 1105.17V1104.17V1103.17ZM1120.37 1105.17C1120.92 1105.17 1121.37 1104.73 1121.37 1104.17C1121.37 1103.62 1120.92 1103.17 1120.37 1103.17V1104.17V1105.17ZM1124.48 1103.17C1123.93 1103.17 1123.48 1103.62 1123.48 1104.17C1123.48 1104.73 1123.93 1105.17 1124.48 1105.17V1104.17V1103.17ZM1128.6 1105.17C1129.15 1105.17 1129.6 1104.73 1129.6 1104.17C1129.6 1103.62 1129.15 1103.17 1128.6 1103.17V1104.17V1105.17ZM1132.72 1103.17C1132.17 1103.17 1131.72 1103.62 1131.72 1104.17C1131.72 1104.73 1132.17 1105.17 1132.72 1105.17V1104.17V1103.17ZM1136.83 1105.17C1137.39 1105.17 1137.83 1104.73 1137.83 1104.17C1137.83 1103.62 1137.39 1103.17 1136.83 1103.17V1104.17V1105.17ZM1140.95 1103.17C1140.4 1103.17 1139.95 1103.62 1139.95 1104.17C1139.95 1104.73 1140.4 1105.17 1140.95 1105.17V1104.17V1103.17ZM1145.07 1105.17C1145.62 1105.17 1146.07 1104.73 1146.07 1104.17C1146.07 1103.62 1145.62 1103.17 1145.07 1103.17V1104.17V1105.17ZM1149.18 1103.17C1148.63 1103.17 1148.18 1103.62 1148.18 1104.17C1148.18 1104.73 1148.63 1105.17 1149.18 1105.17V1104.17V1103.17ZM1153.3 1105.17C1153.85 1105.17 1154.3 1104.73 1154.3 1104.17C1154.3 1103.62 1153.85 1103.17 1153.3 1103.17V1104.17V1105.17ZM1157.42 1103.17C1156.87 1103.17 1156.42 1103.62 1156.42 1104.17C1156.42 1104.73 1156.87 1105.17 1157.42 1105.17V1104.17V1103.17ZM1161.36 1105.08C1161.91 1105.03 1162.31 1104.54 1162.26 1103.99C1162.21 1103.44 1161.72 1103.04 1161.17 1103.09L1161.26 1104.09L1161.36 1105.08ZM1164.48 1102.44C1163.95 1102.6 1163.65 1103.15 1163.81 1103.68C1163.97 1104.21 1164.53 1104.51 1165.06 1104.35L1164.77 1103.39L1164.48 1102.44ZM1168.54 1102.91C1169.03 1102.64 1169.22 1102.04 1168.95 1101.55C1168.69 1101.07 1168.09 1100.88 1167.6 1101.14L1168.07 1102.02L1168.54 1102.91ZM1170.41 1099.26C1169.98 1099.61 1169.92 1100.24 1170.27 1100.67C1170.62 1101.1 1171.25 1101.16 1171.68 1100.81L1171.04 1100.04L1170.41 1099.26ZM1174.34 1098.14C1174.69 1097.72 1174.63 1097.09 1174.21 1096.74C1173.78 1096.38 1173.15 1096.45 1172.8 1096.87L1173.57 1097.51L1174.34 1098.14ZM1174.68 1094.07C1174.42 1094.55 1174.6 1095.16 1175.09 1095.42C1175.57 1095.68 1176.18 1095.5 1176.44 1095.01L1175.56 1094.54L1174.68 1094.07ZM1177.89 1091.53C1178.05 1091 1177.75 1090.44 1177.22 1090.28C1176.69 1090.12 1176.13 1090.42 1175.97 1090.95L1176.93 1091.24L1177.89 1091.53ZM1176.63 1087.63C1176.57 1088.18 1176.98 1088.67 1177.53 1088.72C1178.08 1088.78 1178.56 1088.38 1178.62 1087.83L1177.62 1087.73L1176.63 1087.63ZM1178.62 1084.06C1178.56 1083.51 1178.08 1083.1 1177.53 1083.16C1176.98 1083.21 1176.57 1083.7 1176.63 1084.25L1177.62 1084.15L1178.62 1084.06ZM1175.97 1080.94C1176.13 1081.46 1176.69 1081.76 1177.22 1081.6C1177.75 1081.44 1178.05 1080.88 1177.89 1080.36L1176.93 1080.65L1175.97 1080.94ZM1176.44 1076.87C1176.18 1076.39 1175.57 1076.2 1175.09 1076.46C1174.6 1076.72 1174.42 1077.33 1174.68 1077.82L1175.56 1077.34L1176.44 1076.87ZM1172.8 1075.01C1173.15 1075.44 1173.78 1075.5 1174.21 1075.15C1174.63 1074.8 1174.69 1074.17 1174.34 1073.74L1173.57 1074.37L1172.8 1075.01ZM1171.68 1071.07C1171.25 1070.72 1170.62 1070.78 1170.27 1071.21C1169.92 1071.64 1169.98 1072.27 1170.41 1072.62L1171.04 1071.85L1171.68 1071.07ZM1167.6 1070.74C1168.09 1071 1168.69 1070.82 1168.95 1070.33C1169.22 1069.84 1169.03 1069.24 1168.54 1068.98L1168.07 1069.86L1167.6 1070.74ZM1165.06 1067.53C1164.53 1067.37 1163.97 1067.67 1163.81 1068.2C1163.65 1068.73 1163.95 1069.29 1164.48 1069.45L1164.77 1068.49L1165.06 1067.53ZM1161.17 1068.79C1161.72 1068.84 1162.21 1068.44 1162.26 1067.89C1162.31 1067.34 1161.91 1066.85 1161.36 1066.8L1161.26 1067.79L1161.17 1068.79ZM1157.42 1066.71C1156.87 1066.71 1156.42 1067.16 1156.42 1067.71C1156.42 1068.26 1156.87 1068.71 1157.42 1068.71V1067.71V1066.71ZM1153.3 1068.71C1153.85 1068.71 1154.3 1068.26 1154.3 1067.71C1154.3 1067.16 1153.85 1066.71 1153.3 1066.71V1067.71V1068.71ZM1149.18 1066.71C1148.63 1066.71 1148.18 1067.16 1148.18 1067.71C1148.18 1068.26 1148.63 1068.71 1149.18 1068.71V1067.71V1066.71ZM1145.07 1068.71C1145.62 1068.71 1146.07 1068.26 1146.07 1067.71C1146.07 1067.16 1145.62 1066.71 1145.07 1066.71V1067.71V1068.71ZM1140.95 1066.71C1140.4 1066.71 1139.95 1067.16 1139.95 1067.71C1139.95 1068.26 1140.4 1068.71 1140.95 1068.71V1067.71V1066.71ZM1136.83 1068.71C1137.39 1068.71 1137.83 1068.26 1137.83 1067.71C1137.83 1067.16 1137.39 1066.71 1136.83 1066.71V1067.71V1068.71ZM1132.72 1066.71C1132.17 1066.71 1131.72 1067.16 1131.72 1067.71C1131.72 1068.26 1132.17 1068.71 1132.72 1068.71V1067.71V1066.71ZM1128.6 1068.71C1129.15 1068.71 1129.6 1068.26 1129.6 1067.71C1129.6 1067.16 1129.15 1066.71 1128.6 1066.71V1067.71V1068.71ZM1124.48 1066.71C1123.93 1066.71 1123.48 1067.16 1123.48 1067.71C1123.48 1068.26 1123.93 1068.71 1124.48 1068.71V1067.71V1066.71ZM1120.37 1068.71C1120.92 1068.71 1121.37 1068.26 1121.37 1067.71C1121.37 1067.16 1120.92 1066.71 1120.37 1066.71V1067.71V1068.71ZM1116.25 1066.71C1115.7 1066.71 1115.25 1067.16 1115.25 1067.71C1115.25 1068.26 1115.7 1068.71 1116.25 1068.71V1067.71V1066.71ZM1112.13 1068.71C1112.69 1068.71 1113.13 1068.26 1113.13 1067.71C1113.13 1067.16 1112.69 1066.71 1112.13 1066.71V1067.71V1068.71ZM1108.02 1066.71C1107.46 1066.71 1107.02 1067.16 1107.02 1067.71C1107.02 1068.26 1107.46 1068.71 1108.02 1068.71V1067.71V1066.71ZM1103.9 1068.71C1104.45 1068.71 1104.9 1068.26 1104.9 1067.71C1104.9 1067.16 1104.45 1066.71 1103.9 1066.71V1067.71V1068.71ZM1099.78 1066.71C1099.23 1066.71 1098.78 1067.16 1098.78 1067.71C1098.78 1068.26 1099.23 1068.71 1099.78 1068.71V1067.71V1066.71ZM1095.67 1068.71C1096.22 1068.71 1096.67 1068.26 1096.67 1067.71C1096.67 1067.16 1096.22 1066.71 1095.67 1066.71V1067.71V1068.71ZM1091.55 1066.71C1091 1066.71 1090.55 1067.16 1090.55 1067.71C1090.55 1068.26 1091 1068.71 1091.55 1068.71V1067.71V1066.71ZM1087.43 1068.71C1087.99 1068.71 1088.43 1068.26 1088.43 1067.71C1088.43 1067.16 1087.99 1066.71 1087.43 1066.71V1067.71V1068.71ZM1085.38 1104.17V1105.17H1087.43V1104.17V1103.17H1085.38V1104.17ZM1091.55 1104.17V1105.17H1095.67V1104.17V1103.17H1091.55V1104.17ZM1099.78 1104.17V1105.17H1103.9V1104.17V1103.17H1099.78V1104.17ZM1108.02 1104.17V1105.17H1112.13V1104.17V1103.17H1108.02V1104.17ZM1116.25 1104.17V1105.17H1120.37V1104.17V1103.17H1116.25V1104.17ZM1124.48 1104.17V1105.17H1128.6V1104.17V1103.17H1124.48V1104.17ZM1132.72 1104.17V1105.17H1136.83V1104.17V1103.17H1132.72V1104.17ZM1140.95 1104.17V1105.17H1145.07V1104.17V1103.17H1140.95V1104.17ZM1149.18 1104.17V1105.17H1153.3V1104.17V1103.17H1149.18V1104.17ZM1157.42 1104.17V1105.17H1159.48V1104.17V1103.17H1157.42V1104.17ZM1159.48 1104.17V1105.17C1160.11 1105.17 1160.74 1105.14 1161.36 1105.08L1161.26 1104.09L1161.17 1103.09C1160.61 1103.15 1160.05 1103.17 1159.48 1103.17V1104.17ZM1164.77 1103.39L1165.06 1104.35C1166.28 1103.98 1167.44 1103.5 1168.54 1102.91L1168.07 1102.02L1167.6 1101.14C1166.61 1101.67 1165.57 1102.11 1164.48 1102.44L1164.77 1103.39ZM1171.04 1100.04L1171.68 1100.81C1172.65 1100.01 1173.54 1099.12 1174.34 1098.14L1173.57 1097.51L1172.8 1096.87C1172.08 1097.75 1171.28 1098.55 1170.41 1099.26L1171.04 1100.04ZM1175.56 1094.54L1176.44 1095.01C1177.03 1093.91 1177.52 1092.74 1177.89 1091.53L1176.93 1091.24L1175.97 1090.95C1175.64 1092.03 1175.21 1093.08 1174.68 1094.07L1175.56 1094.54ZM1177.62 1087.73L1178.62 1087.83C1178.68 1087.21 1178.71 1086.58 1178.71 1085.94H1177.71H1176.71C1176.71 1086.51 1176.68 1087.08 1176.63 1087.63L1177.62 1087.73ZM1177.71 1085.94H1178.71C1178.71 1085.31 1178.68 1084.68 1178.62 1084.06L1177.62 1084.15L1176.63 1084.25C1176.68 1084.81 1176.71 1085.37 1176.71 1085.94H1177.71ZM1176.93 1080.65L1177.89 1080.36C1177.52 1079.14 1177.03 1077.97 1176.44 1076.87L1175.56 1077.34L1174.68 1077.82C1175.21 1078.8 1175.64 1079.85 1175.97 1080.94L1176.93 1080.65ZM1173.57 1074.37L1174.34 1073.74C1173.54 1072.77 1172.65 1071.87 1171.68 1071.07L1171.04 1071.85L1170.41 1072.62C1171.28 1073.34 1172.08 1074.14 1172.8 1075.01L1173.57 1074.37ZM1168.07 1069.86L1168.54 1068.98C1167.44 1068.39 1166.28 1067.9 1165.06 1067.53L1164.77 1068.49L1164.48 1069.45C1165.57 1069.78 1166.61 1070.21 1167.6 1070.74L1168.07 1069.86ZM1161.26 1067.79L1161.36 1066.8C1160.74 1066.74 1160.11 1066.71 1159.48 1066.71V1067.71V1068.71C1160.05 1068.71 1160.61 1068.74 1161.17 1068.79L1161.26 1067.79ZM1159.48 1067.71V1066.71H1157.42V1067.71V1068.71H1159.48V1067.71ZM1153.3 1067.71V1066.71H1149.18V1067.71V1068.71H1153.3V1067.71ZM1145.07 1067.71V1066.71H1140.95V1067.71V1068.71H1145.07V1067.71ZM1136.83 1067.71V1066.71H1132.72V1067.71V1068.71H1136.83V1067.71ZM1128.6 1067.71V1066.71H1124.48V1067.71V1068.71H1128.6V1067.71ZM1120.37 1067.71V1066.71H1116.25V1067.71V1068.71H1120.37V1067.71ZM1112.13 1067.71V1066.71H1108.02V1067.71V1068.71H1112.13V1067.71ZM1103.9 1067.71V1066.71H1099.78V1067.71V1068.71H1103.9V1067.71ZM1095.67 1067.71V1066.71H1091.55V1067.71V1068.71H1095.67V1067.71ZM1087.43 1067.71V1066.71H1085.38V1067.71V1068.71H1087.43V1067.71Z" fill="#9DAAF1"/>
<path id="Vector 106" d="M651.452 1321.19H650.452V1323.19H651.452V1322.19V1321.19ZM656.785 1358.66C656.785 1355.71 654.397 1353.33 651.452 1353.33C648.506 1353.33 646.118 1355.71 646.118 1358.66C646.118 1361.61 648.506 1363.99 651.452 1363.99C654.397 1363.99 656.785 1361.61 656.785 1358.66ZM653.51 1359.66C654.062 1359.66 654.51 1359.21 654.51 1358.66C654.51 1358.11 654.062 1357.66 653.51 1357.66V1358.66V1359.66ZM657.627 1357.66C657.074 1357.66 656.627 1358.11 656.627 1358.66C656.627 1359.21 657.074 1359.66 657.627 1359.66V1358.66V1357.66ZM661.743 1359.66C662.296 1359.66 662.743 1359.21 662.743 1358.66C662.743 1358.11 662.296 1357.66 661.743 1357.66V1358.66V1359.66ZM665.86 1357.66C665.308 1357.66 664.86 1358.11 664.86 1358.66C664.86 1359.21 665.308 1359.66 665.86 1359.66V1358.66V1357.66ZM669.977 1359.66C670.529 1359.66 670.977 1359.21 670.977 1358.66C670.977 1358.11 670.529 1357.66 669.977 1357.66V1358.66V1359.66ZM674.094 1357.66C673.541 1357.66 673.094 1358.11 673.094 1358.66C673.094 1359.21 673.541 1359.66 674.094 1359.66V1358.66V1357.66ZM678.21 1359.66C678.763 1359.66 679.21 1359.21 679.21 1358.66C679.21 1358.11 678.763 1357.66 678.21 1357.66V1358.66V1359.66ZM682.327 1357.66C681.775 1357.66 681.327 1358.11 681.327 1358.66C681.327 1359.21 681.775 1359.66 682.327 1359.66V1358.66V1357.66ZM686.444 1359.66C686.996 1359.66 687.444 1359.21 687.444 1358.66C687.444 1358.11 686.996 1357.66 686.444 1357.66V1358.66V1359.66ZM690.561 1357.66C690.008 1357.66 689.561 1358.11 689.561 1358.66C689.561 1359.21 690.008 1359.66 690.561 1359.66V1358.66V1357.66ZM694.677 1359.66C695.23 1359.66 695.677 1359.21 695.677 1358.66C695.677 1358.11 695.23 1357.66 694.677 1357.66V1358.66V1359.66ZM698.794 1357.66C698.242 1357.66 697.794 1358.11 697.794 1358.66C697.794 1359.21 698.242 1359.66 698.794 1359.66V1358.66V1357.66ZM702.911 1359.66C703.463 1359.66 703.911 1359.21 703.911 1358.66C703.911 1358.11 703.463 1357.66 702.911 1357.66V1358.66V1359.66ZM707.028 1357.66C706.475 1357.66 706.028 1358.11 706.028 1358.66C706.028 1359.21 706.475 1359.66 707.028 1359.66V1358.66V1357.66ZM711.144 1359.66C711.697 1359.66 712.144 1359.21 712.144 1358.66C712.144 1358.11 711.697 1357.66 711.144 1357.66V1358.66V1359.66ZM715.261 1357.66C714.709 1357.66 714.261 1358.11 714.261 1358.66C714.261 1359.21 714.709 1359.66 715.261 1359.66V1358.66V1357.66ZM719.378 1359.66C719.93 1359.66 720.378 1359.21 720.378 1358.66C720.378 1358.11 719.93 1357.66 719.378 1357.66V1358.66V1359.66ZM723.495 1357.66C722.942 1357.66 722.495 1358.11 722.495 1358.66C722.495 1359.21 722.942 1359.66 723.495 1359.66V1358.66V1357.66ZM727.438 1359.57C727.987 1359.51 728.39 1359.03 728.336 1358.48C728.283 1357.93 727.794 1357.52 727.244 1357.58L727.341 1358.57L727.438 1359.57ZM730.558 1356.92C730.029 1357.08 729.73 1357.64 729.89 1358.17C730.051 1358.7 730.609 1359 731.137 1358.84L730.847 1357.88L730.558 1356.92ZM734.622 1357.39C735.108 1357.13 735.292 1356.52 735.031 1356.04C734.77 1355.55 734.164 1355.37 733.677 1355.63L734.149 1356.51L734.622 1357.39ZM736.485 1353.75C736.058 1354.1 735.997 1354.73 736.347 1355.16C736.698 1355.58 737.328 1355.64 737.755 1355.29L737.12 1354.52L736.485 1353.75ZM740.42 1352.63C740.771 1352.2 740.709 1351.57 740.283 1351.22C739.856 1350.87 739.226 1350.93 738.875 1351.36L739.648 1351.99L740.42 1352.63ZM740.755 1348.55C740.494 1349.04 740.677 1349.64 741.164 1349.9C741.651 1350.17 742.257 1349.98 742.518 1349.5L741.636 1349.02L740.755 1348.55ZM743.962 1346.01C744.123 1345.48 743.824 1344.92 743.295 1344.76C742.767 1344.6 742.208 1344.9 742.048 1345.43L743.005 1345.72L743.962 1346.01ZM742.704 1342.12C742.651 1342.67 743.053 1343.16 743.603 1343.21C744.152 1343.26 744.641 1342.86 744.695 1342.31L743.699 1342.21L742.704 1342.12ZM744.695 1338.54C744.641 1337.99 744.152 1337.59 743.603 1337.64C743.053 1337.7 742.651 1338.19 742.704 1338.74L743.699 1338.64L744.695 1338.54ZM742.048 1335.42C742.208 1335.95 742.767 1336.25 743.295 1336.09C743.824 1335.93 744.123 1335.37 743.962 1334.84L743.005 1335.13L742.048 1335.42ZM742.518 1331.36C742.257 1330.87 741.651 1330.69 741.164 1330.95C740.677 1331.21 740.494 1331.82 740.755 1332.3L741.636 1331.83L742.518 1331.36ZM738.875 1329.49C739.226 1329.92 739.856 1329.98 740.283 1329.63C740.709 1329.28 740.771 1328.65 740.42 1328.22L739.648 1328.86L738.875 1329.49ZM737.755 1325.56C737.328 1325.21 736.698 1325.27 736.347 1325.7C735.997 1326.12 736.058 1326.75 736.485 1327.1L737.12 1326.33L737.755 1325.56ZM733.677 1325.22C734.164 1325.49 734.77 1325.3 735.031 1324.82C735.292 1324.33 735.108 1323.72 734.622 1323.46L734.149 1324.34L733.677 1325.22ZM731.137 1322.02C730.609 1321.86 730.051 1322.16 729.89 1322.68C729.73 1323.21 730.029 1323.77 730.558 1323.93L730.847 1322.97L731.137 1322.02ZM727.244 1323.28C727.794 1323.33 728.283 1322.93 728.336 1322.38C728.39 1321.83 727.987 1321.34 727.438 1321.28L727.341 1322.28L727.244 1323.28ZM723.495 1321.19C722.942 1321.19 722.495 1321.64 722.495 1322.19C722.495 1322.75 722.942 1323.19 723.495 1323.19V1322.19V1321.19ZM719.378 1323.19C719.93 1323.19 720.378 1322.75 720.378 1322.19C720.378 1321.64 719.93 1321.19 719.378 1321.19V1322.19V1323.19ZM715.261 1321.19C714.709 1321.19 714.261 1321.64 714.261 1322.19C714.261 1322.75 714.709 1323.19 715.261 1323.19V1322.19V1321.19ZM711.144 1323.19C711.697 1323.19 712.144 1322.75 712.144 1322.19C712.144 1321.64 711.697 1321.19 711.144 1321.19V1322.19V1323.19ZM707.028 1321.19C706.475 1321.19 706.028 1321.64 706.028 1322.19C706.028 1322.75 706.475 1323.19 707.028 1323.19V1322.19V1321.19ZM702.911 1323.19C703.463 1323.19 703.911 1322.75 703.911 1322.19C703.911 1321.64 703.463 1321.19 702.911 1321.19V1322.19V1323.19ZM698.794 1321.19C698.242 1321.19 697.794 1321.64 697.794 1322.19C697.794 1322.75 698.242 1323.19 698.794 1323.19V1322.19V1321.19ZM694.677 1323.19C695.23 1323.19 695.677 1322.75 695.677 1322.19C695.677 1321.64 695.23 1321.19 694.677 1321.19V1322.19V1323.19ZM690.561 1321.19C690.008 1321.19 689.561 1321.64 689.561 1322.19C689.561 1322.75 690.008 1323.19 690.561 1323.19V1322.19V1321.19ZM686.444 1323.19C686.996 1323.19 687.444 1322.75 687.444 1322.19C687.444 1321.64 686.996 1321.19 686.444 1321.19V1322.19V1323.19ZM682.327 1321.19C681.775 1321.19 681.327 1321.64 681.327 1322.19C681.327 1322.75 681.775 1323.19 682.327 1323.19V1322.19V1321.19ZM678.21 1323.19C678.763 1323.19 679.21 1322.75 679.21 1322.19C679.21 1321.64 678.763 1321.19 678.21 1321.19V1322.19V1323.19ZM674.094 1321.19C673.541 1321.19 673.094 1321.64 673.094 1322.19C673.094 1322.75 673.541 1323.19 674.094 1323.19V1322.19V1321.19ZM669.977 1323.19C670.529 1323.19 670.977 1322.75 670.977 1322.19C670.977 1321.64 670.529 1321.19 669.977 1321.19V1322.19V1323.19ZM665.86 1321.19C665.308 1321.19 664.86 1321.64 664.86 1322.19C664.86 1322.75 665.308 1323.19 665.86 1323.19V1322.19V1321.19ZM661.743 1323.19C662.296 1323.19 662.743 1322.75 662.743 1322.19C662.743 1321.64 662.296 1321.19 661.743 1321.19V1322.19V1323.19ZM657.627 1321.19C657.074 1321.19 656.627 1321.64 656.627 1322.19C656.627 1322.75 657.074 1323.19 657.627 1323.19V1322.19V1321.19ZM653.51 1323.19C654.062 1323.19 654.51 1322.75 654.51 1322.19C654.51 1321.64 654.062 1321.19 653.51 1321.19V1322.19V1323.19ZM651.452 1358.66V1359.66H653.51V1358.66V1357.66H651.452V1358.66ZM657.627 1358.66V1359.66H661.743V1358.66V1357.66H657.627V1358.66ZM665.86 1358.66V1359.66H669.977V1358.66V1357.66H665.86V1358.66ZM674.094 1358.66V1359.66H678.21V1358.66V1357.66H674.094V1358.66ZM682.327 1358.66V1359.66H686.444V1358.66V1357.66H682.327V1358.66ZM690.561 1358.66V1359.66H694.677V1358.66V1357.66H690.561V1358.66ZM698.794 1358.66V1359.66H702.911V1358.66V1357.66H698.794V1358.66ZM707.028 1358.66V1359.66H711.144V1358.66V1357.66H707.028V1358.66ZM715.261 1358.66V1359.66H719.378V1358.66V1357.66H715.261V1358.66ZM723.495 1358.66V1359.66H725.553V1358.66V1357.66H723.495V1358.66ZM725.553 1358.66V1359.66C726.189 1359.66 726.817 1359.63 727.438 1359.57L727.341 1358.57L727.244 1357.58C726.688 1357.63 726.124 1357.66 725.553 1357.66V1358.66ZM730.847 1357.88L731.137 1358.84C732.354 1358.47 733.52 1357.98 734.622 1357.39L734.149 1356.51L733.677 1355.63C732.691 1356.16 731.647 1356.59 730.558 1356.92L730.847 1357.88ZM737.12 1354.52L737.755 1355.29C738.728 1354.49 739.621 1353.6 740.42 1352.63L739.648 1351.99L738.875 1351.36C738.158 1352.23 737.358 1353.03 736.485 1353.75L737.12 1354.52ZM741.636 1349.02L742.518 1349.5C743.108 1348.39 743.594 1347.23 743.962 1346.01L743.005 1345.72L742.048 1345.43C741.718 1346.52 741.283 1347.56 740.755 1348.55L741.636 1349.02ZM743.699 1342.21L744.695 1342.31C744.755 1341.69 744.786 1341.06 744.786 1340.43H743.786H742.786C742.786 1341 742.758 1341.56 742.704 1342.12L743.699 1342.21ZM743.786 1340.43H744.786C744.786 1339.79 744.755 1339.16 744.695 1338.54L743.699 1338.64L742.704 1338.74C742.758 1339.29 742.786 1339.86 742.786 1340.43H743.786ZM743.005 1335.13L743.962 1334.84C743.594 1333.63 743.108 1332.46 742.518 1331.36L741.636 1331.83L740.755 1332.3C741.283 1333.29 741.718 1334.33 742.048 1335.42L743.005 1335.13ZM739.648 1328.86L740.42 1328.22C739.621 1327.25 738.728 1326.36 737.755 1325.56L737.12 1326.33L736.485 1327.1C737.358 1327.82 738.158 1328.62 738.875 1329.49L739.648 1328.86ZM734.149 1324.34L734.622 1323.46C733.52 1322.87 732.354 1322.39 731.137 1322.02L730.847 1322.97L730.558 1323.93C731.647 1324.26 732.691 1324.7 733.677 1325.22L734.149 1324.34ZM727.341 1322.28L727.438 1321.28C726.817 1321.22 726.189 1321.19 725.553 1321.19V1322.19V1323.19C726.124 1323.19 726.688 1323.22 727.244 1323.28L727.341 1322.28ZM725.553 1322.19V1321.19H723.495V1322.19V1323.19H725.553V1322.19ZM719.378 1322.19V1321.19H715.261V1322.19V1323.19H719.378V1322.19ZM711.144 1322.19V1321.19H707.028V1322.19V1323.19H711.144V1322.19ZM702.911 1322.19V1321.19H698.794V1322.19V1323.19H702.911V1322.19ZM694.677 1322.19V1321.19H690.561V1322.19V1323.19H694.677V1322.19ZM686.444 1322.19V1321.19H682.327V1322.19V1323.19H686.444V1322.19ZM678.21 1322.19V1321.19H674.094V1322.19V1323.19H678.21V1322.19ZM669.977 1322.19V1321.19H665.86V1322.19V1323.19H669.977V1322.19ZM661.743 1322.19V1321.19H657.627V1322.19V1323.19H661.743V1322.19ZM653.51 1322.19V1321.19H651.452V1322.19V1323.19H653.51V1322.19Z" fill="#9DAAF1"/>
<path id="Vector 107" d="M651.452 1387.9H650.452V1389.9H651.452V1388.9V1387.9ZM656.785 1425.37C656.785 1422.42 654.397 1420.03 651.452 1420.03C648.506 1420.03 646.118 1422.42 646.118 1425.37C646.118 1428.31 648.506 1430.7 651.452 1430.7C654.397 1430.7 656.785 1428.31 656.785 1425.37ZM653.51 1426.37C654.062 1426.37 654.51 1425.92 654.51 1425.37C654.51 1424.82 654.062 1424.37 653.51 1424.37V1425.37V1426.37ZM657.627 1424.37C657.074 1424.37 656.627 1424.82 656.627 1425.37C656.627 1425.92 657.074 1426.37 657.627 1426.37V1425.37V1424.37ZM661.743 1426.37C662.296 1426.37 662.743 1425.92 662.743 1425.37C662.743 1424.82 662.296 1424.37 661.743 1424.37V1425.37V1426.37ZM665.86 1424.37C665.308 1424.37 664.86 1424.82 664.86 1425.37C664.86 1425.92 665.308 1426.37 665.86 1426.37V1425.37V1424.37ZM669.977 1426.37C670.529 1426.37 670.977 1425.92 670.977 1425.37C670.977 1424.82 670.529 1424.37 669.977 1424.37V1425.37V1426.37ZM674.094 1424.37C673.541 1424.37 673.094 1424.82 673.094 1425.37C673.094 1425.92 673.541 1426.37 674.094 1426.37V1425.37V1424.37ZM678.21 1426.37C678.763 1426.37 679.21 1425.92 679.21 1425.37C679.21 1424.82 678.763 1424.37 678.21 1424.37V1425.37V1426.37ZM682.327 1424.37C681.775 1424.37 681.327 1424.82 681.327 1425.37C681.327 1425.92 681.775 1426.37 682.327 1426.37V1425.37V1424.37ZM686.444 1426.37C686.996 1426.37 687.444 1425.92 687.444 1425.37C687.444 1424.82 686.996 1424.37 686.444 1424.37V1425.37V1426.37ZM690.561 1424.37C690.008 1424.37 689.561 1424.82 689.561 1425.37C689.561 1425.92 690.008 1426.37 690.561 1426.37V1425.37V1424.37ZM694.677 1426.37C695.23 1426.37 695.677 1425.92 695.677 1425.37C695.677 1424.82 695.23 1424.37 694.677 1424.37V1425.37V1426.37ZM698.794 1424.37C698.242 1424.37 697.794 1424.82 697.794 1425.37C697.794 1425.92 698.242 1426.37 698.794 1426.37V1425.37V1424.37ZM702.911 1426.37C703.463 1426.37 703.911 1425.92 703.911 1425.37C703.911 1424.82 703.463 1424.37 702.911 1424.37V1425.37V1426.37ZM707.028 1424.37C706.475 1424.37 706.028 1424.82 706.028 1425.37C706.028 1425.92 706.475 1426.37 707.028 1426.37V1425.37V1424.37ZM711.144 1426.37C711.697 1426.37 712.144 1425.92 712.144 1425.37C712.144 1424.82 711.697 1424.37 711.144 1424.37V1425.37V1426.37ZM715.261 1424.37C714.709 1424.37 714.261 1424.82 714.261 1425.37C714.261 1425.92 714.709 1426.37 715.261 1426.37V1425.37V1424.37ZM719.378 1426.37C719.93 1426.37 720.378 1425.92 720.378 1425.37C720.378 1424.82 719.93 1424.37 719.378 1424.37V1425.37V1426.37ZM723.495 1424.37C722.942 1424.37 722.495 1424.82 722.495 1425.37C722.495 1425.92 722.942 1426.37 723.495 1426.37V1425.37V1424.37ZM727.438 1426.28C727.987 1426.22 728.39 1425.73 728.336 1425.18C728.283 1424.63 727.794 1424.23 727.244 1424.29L727.341 1425.28L727.438 1426.28ZM730.558 1423.63C730.029 1423.79 729.73 1424.35 729.89 1424.88C730.051 1425.41 730.609 1425.7 731.137 1425.54L730.847 1424.59L730.558 1423.63ZM734.622 1424.1C735.108 1423.84 735.292 1423.23 735.031 1422.75C734.77 1422.26 734.164 1422.08 733.677 1422.34L734.149 1423.22L734.622 1424.1ZM736.485 1420.46C736.058 1420.81 735.997 1421.44 736.347 1421.86C736.698 1422.29 737.328 1422.35 737.755 1422L737.12 1421.23L736.485 1420.46ZM740.42 1419.34C740.771 1418.91 740.709 1418.28 740.283 1417.93C739.856 1417.58 739.226 1417.64 738.875 1418.07L739.648 1418.7L740.42 1419.34ZM740.755 1415.26C740.494 1415.75 740.677 1416.35 741.164 1416.61C741.651 1416.87 742.257 1416.69 742.518 1416.2L741.636 1415.73L740.755 1415.26ZM743.962 1412.72C744.123 1412.19 743.824 1411.63 743.295 1411.47C742.767 1411.31 742.208 1411.61 742.048 1412.14L743.005 1412.43L743.962 1412.72ZM742.704 1408.83C742.651 1409.38 743.053 1409.86 743.603 1409.92C744.152 1409.97 744.641 1409.57 744.695 1409.02L743.699 1408.92L742.704 1408.83ZM744.695 1405.25C744.641 1404.7 744.152 1404.3 743.603 1404.35C743.053 1404.41 742.651 1404.89 742.704 1405.44L743.699 1405.35L744.695 1405.25ZM742.048 1402.13C742.208 1402.66 742.767 1402.96 743.295 1402.8C743.824 1402.64 744.123 1402.08 743.962 1401.55L743.005 1401.84L742.048 1402.13ZM742.518 1398.07C742.257 1397.58 741.651 1397.4 741.164 1397.66C740.677 1397.92 740.494 1398.52 740.755 1399.01L741.636 1398.54L742.518 1398.07ZM738.875 1396.2C739.226 1396.63 739.856 1396.69 740.283 1396.34C740.709 1395.99 740.771 1395.36 740.42 1394.93L739.648 1395.57L738.875 1396.2ZM737.755 1392.27C737.328 1391.92 736.698 1391.98 736.347 1392.4C735.997 1392.83 736.058 1393.46 736.485 1393.81L737.12 1393.04L737.755 1392.27ZM733.677 1391.93C734.164 1392.19 734.77 1392.01 735.031 1391.52C735.292 1391.04 735.108 1390.43 734.622 1390.17L734.149 1391.05L733.677 1391.93ZM731.137 1388.73C730.609 1388.57 730.051 1388.86 729.89 1389.39C729.73 1389.92 730.029 1390.48 730.558 1390.64L730.847 1389.68L731.137 1388.73ZM727.244 1389.98C727.794 1390.04 728.283 1389.63 728.336 1389.09C728.39 1388.54 727.987 1388.05 727.438 1387.99L727.341 1388.99L727.244 1389.98ZM723.495 1387.9C722.942 1387.9 722.495 1388.35 722.495 1388.9C722.495 1389.45 722.942 1389.9 723.495 1389.9V1388.9V1387.9ZM719.378 1389.9C719.93 1389.9 720.378 1389.45 720.378 1388.9C720.378 1388.35 719.93 1387.9 719.378 1387.9V1388.9V1389.9ZM715.261 1387.9C714.709 1387.9 714.261 1388.35 714.261 1388.9C714.261 1389.45 714.709 1389.9 715.261 1389.9V1388.9V1387.9ZM711.144 1389.9C711.697 1389.9 712.144 1389.45 712.144 1388.9C712.144 1388.35 711.697 1387.9 711.144 1387.9V1388.9V1389.9ZM707.028 1387.9C706.475 1387.9 706.028 1388.35 706.028 1388.9C706.028 1389.45 706.475 1389.9 707.028 1389.9V1388.9V1387.9ZM702.911 1389.9C703.463 1389.9 703.911 1389.45 703.911 1388.9C703.911 1388.35 703.463 1387.9 702.911 1387.9V1388.9V1389.9ZM698.794 1387.9C698.242 1387.9 697.794 1388.35 697.794 1388.9C697.794 1389.45 698.242 1389.9 698.794 1389.9V1388.9V1387.9ZM694.677 1389.9C695.23 1389.9 695.677 1389.45 695.677 1388.9C695.677 1388.35 695.23 1387.9 694.677 1387.9V1388.9V1389.9ZM690.561 1387.9C690.008 1387.9 689.561 1388.35 689.561 1388.9C689.561 1389.45 690.008 1389.9 690.561 1389.9V1388.9V1387.9ZM686.444 1389.9C686.996 1389.9 687.444 1389.45 687.444 1388.9C687.444 1388.35 686.996 1387.9 686.444 1387.9V1388.9V1389.9ZM682.327 1387.9C681.775 1387.9 681.327 1388.35 681.327 1388.9C681.327 1389.45 681.775 1389.9 682.327 1389.9V1388.9V1387.9ZM678.21 1389.9C678.763 1389.9 679.21 1389.45 679.21 1388.9C679.21 1388.35 678.763 1387.9 678.21 1387.9V1388.9V1389.9ZM674.094 1387.9C673.541 1387.9 673.094 1388.35 673.094 1388.9C673.094 1389.45 673.541 1389.9 674.094 1389.9V1388.9V1387.9ZM669.977 1389.9C670.529 1389.9 670.977 1389.45 670.977 1388.9C670.977 1388.35 670.529 1387.9 669.977 1387.9V1388.9V1389.9ZM665.86 1387.9C665.308 1387.9 664.86 1388.35 664.86 1388.9C664.86 1389.45 665.308 1389.9 665.86 1389.9V1388.9V1387.9ZM661.743 1389.9C662.296 1389.9 662.743 1389.45 662.743 1388.9C662.743 1388.35 662.296 1387.9 661.743 1387.9V1388.9V1389.9ZM657.627 1387.9C657.074 1387.9 656.627 1388.35 656.627 1388.9C656.627 1389.45 657.074 1389.9 657.627 1389.9V1388.9V1387.9ZM653.51 1389.9C654.062 1389.9 654.51 1389.45 654.51 1388.9C654.51 1388.35 654.062 1387.9 653.51 1387.9V1388.9V1389.9ZM651.452 1425.37V1426.37H653.51V1425.37V1424.37H651.452V1425.37ZM657.627 1425.37V1426.37H661.743V1425.37V1424.37H657.627V1425.37ZM665.86 1425.37V1426.37H669.977V1425.37V1424.37H665.86V1425.37ZM674.094 1425.37V1426.37H678.21V1425.37V1424.37H674.094V1425.37ZM682.327 1425.37V1426.37H686.444V1425.37V1424.37H682.327V1425.37ZM690.561 1425.37V1426.37H694.677V1425.37V1424.37H690.561V1425.37ZM698.794 1425.37V1426.37H702.911V1425.37V1424.37H698.794V1425.37ZM707.028 1425.37V1426.37H711.144V1425.37V1424.37H707.028V1425.37ZM715.261 1425.37V1426.37H719.378V1425.37V1424.37H715.261V1425.37ZM723.495 1425.37V1426.37H725.553V1425.37V1424.37H723.495V1425.37ZM725.553 1425.37V1426.37C726.189 1426.37 726.817 1426.34 727.438 1426.28L727.341 1425.28L727.244 1424.29C726.688 1424.34 726.124 1424.37 725.553 1424.37V1425.37ZM730.847 1424.59L731.137 1425.54C732.354 1425.18 733.52 1424.69 734.622 1424.1L734.149 1423.22L733.677 1422.34C732.691 1422.86 731.647 1423.3 730.558 1423.63L730.847 1424.59ZM737.12 1421.23L737.755 1422C738.728 1421.2 739.621 1420.31 740.42 1419.34L739.648 1418.7L738.875 1418.07C738.158 1418.94 737.358 1419.74 736.485 1420.46L737.12 1421.23ZM741.636 1415.73L742.518 1416.2C743.108 1415.1 743.594 1413.94 743.962 1412.72L743.005 1412.43L742.048 1412.14C741.718 1413.23 741.283 1414.27 740.755 1415.26L741.636 1415.73ZM743.699 1408.92L744.695 1409.02C744.755 1408.4 744.786 1407.77 744.786 1407.13H743.786H742.786C742.786 1407.71 742.758 1408.27 742.704 1408.83L743.699 1408.92ZM743.786 1407.13H744.786C744.786 1406.5 744.755 1405.87 744.695 1405.25L743.699 1405.35L742.704 1405.44C742.758 1406 742.786 1406.56 742.786 1407.13H743.786ZM743.005 1401.84L743.962 1401.55C743.594 1400.33 743.108 1399.17 742.518 1398.07L741.636 1398.54L740.755 1399.01C741.283 1400 741.718 1401.04 742.048 1402.13L743.005 1401.84ZM739.648 1395.57L740.42 1394.93C739.621 1393.96 738.728 1393.07 737.755 1392.27L737.12 1393.04L736.485 1393.81C737.358 1394.53 738.158 1395.33 738.875 1396.2L739.648 1395.57ZM734.149 1391.05L734.622 1390.17C733.52 1389.58 732.354 1389.09 731.137 1388.73L730.847 1389.68L730.558 1390.64C731.647 1390.97 732.691 1391.4 733.677 1391.93L734.149 1391.05ZM727.341 1388.99L727.438 1387.99C726.817 1387.93 726.189 1387.9 725.553 1387.9V1388.9V1389.9C726.124 1389.9 726.688 1389.93 727.244 1389.98L727.341 1388.99ZM725.553 1388.9V1387.9H723.495V1388.9V1389.9H725.553V1388.9ZM719.378 1388.9V1387.9H715.261V1388.9V1389.9H719.378V1388.9ZM711.144 1388.9V1387.9H707.028V1388.9V1389.9H711.144V1388.9ZM702.911 1388.9V1387.9H698.794V1388.9V1389.9H702.911V1388.9ZM694.677 1388.9V1387.9H690.561V1388.9V1389.9H694.677V1388.9ZM686.444 1388.9V1387.9H682.327V1388.9V1389.9H686.444V1388.9ZM678.21 1388.9V1387.9H674.094V1388.9V1389.9H678.21V1388.9ZM669.977 1388.9V1387.9H665.86V1388.9V1389.9H669.977V1388.9ZM661.743 1388.9V1387.9H657.627V1388.9V1389.9H661.743V1388.9ZM653.51 1388.9V1387.9H651.452V1388.9V1389.9H653.51V1388.9Z" fill="#9DAAF1"/>
<path id="Vector 108" d="M657.434 1462.92H656.434V1464.92H657.434V1463.92V1462.92ZM662.767 1500.38C662.767 1497.44 660.379 1495.05 657.434 1495.05C654.488 1495.05 652.1 1497.44 652.1 1500.38C652.1 1503.33 654.488 1505.72 657.434 1505.72C660.379 1505.72 662.767 1503.33 662.767 1500.38ZM659.492 1501.38C660.044 1501.38 660.492 1500.94 660.492 1500.38C660.492 1499.83 660.044 1499.38 659.492 1499.38V1500.38V1501.38ZM663.609 1499.38C663.057 1499.38 662.609 1499.83 662.609 1500.38C662.609 1500.94 663.057 1501.38 663.609 1501.38V1500.38V1499.38ZM667.726 1501.38C668.278 1501.38 668.726 1500.94 668.726 1500.38C668.726 1499.83 668.278 1499.38 667.726 1499.38V1500.38V1501.38ZM671.842 1499.38C671.29 1499.38 670.842 1499.83 670.842 1500.38C670.842 1500.94 671.29 1501.38 671.842 1501.38V1500.38V1499.38ZM675.959 1501.38C676.511 1501.38 676.959 1500.94 676.959 1500.38C676.959 1499.83 676.511 1499.38 675.959 1499.38V1500.38V1501.38ZM680.076 1499.38C679.523 1499.38 679.076 1499.83 679.076 1500.38C679.076 1500.94 679.523 1501.38 680.076 1501.38V1500.38V1499.38ZM684.193 1501.38C684.745 1501.38 685.193 1500.94 685.193 1500.38C685.193 1499.83 684.745 1499.38 684.193 1499.38V1500.38V1501.38ZM688.309 1499.38C687.757 1499.38 687.309 1499.83 687.309 1500.38C687.309 1500.94 687.757 1501.38 688.309 1501.38V1500.38V1499.38ZM692.426 1501.38C692.978 1501.38 693.426 1500.94 693.426 1500.38C693.426 1499.83 692.978 1499.38 692.426 1499.38V1500.38V1501.38ZM696.543 1499.38C695.99 1499.38 695.543 1499.83 695.543 1500.38C695.543 1500.94 695.99 1501.38 696.543 1501.38V1500.38V1499.38ZM700.659 1501.38C701.212 1501.38 701.659 1500.94 701.659 1500.38C701.659 1499.83 701.212 1499.38 700.659 1499.38V1500.38V1501.38ZM704.776 1499.38C704.224 1499.38 703.776 1499.83 703.776 1500.38C703.776 1500.94 704.224 1501.38 704.776 1501.38V1500.38V1499.38ZM708.893 1501.38C709.445 1501.38 709.893 1500.94 709.893 1500.38C709.893 1499.83 709.445 1499.38 708.893 1499.38V1500.38V1501.38ZM713.01 1499.38C712.457 1499.38 712.01 1499.83 712.01 1500.38C712.01 1500.94 712.457 1501.38 713.01 1501.38V1500.38V1499.38ZM717.126 1501.38C717.679 1501.38 718.126 1500.94 718.126 1500.38C718.126 1499.83 717.679 1499.38 717.126 1499.38V1500.38V1501.38ZM721.243 1499.38C720.691 1499.38 720.243 1499.83 720.243 1500.38C720.243 1500.94 720.691 1501.38 721.243 1501.38V1500.38V1499.38ZM725.36 1501.38C725.912 1501.38 726.36 1500.94 726.36 1500.38C726.36 1499.83 725.912 1499.38 725.36 1499.38V1500.38V1501.38ZM729.477 1499.38C728.924 1499.38 728.477 1499.83 728.477 1500.38C728.477 1500.94 728.924 1501.38 729.477 1501.38V1500.38V1499.38ZM733.42 1501.29C733.969 1501.24 734.372 1500.75 734.318 1500.2C734.265 1499.65 733.776 1499.25 733.226 1499.3L733.323 1500.3L733.42 1501.29ZM736.54 1498.65C736.011 1498.81 735.712 1499.36 735.873 1499.89C736.033 1500.42 736.591 1500.72 737.12 1500.56L736.83 1499.6L736.54 1498.65ZM740.604 1499.12C741.091 1498.85 741.274 1498.25 741.013 1497.76C740.752 1497.27 740.146 1497.09 739.659 1497.35L740.132 1498.23L740.604 1499.12ZM742.467 1495.47C742.041 1495.82 741.979 1496.45 742.329 1496.88C742.68 1497.31 743.31 1497.37 743.737 1497.02L743.102 1496.25L742.467 1495.47ZM746.403 1494.35C746.753 1493.93 746.691 1493.3 746.265 1492.94C745.838 1492.59 745.208 1492.66 744.857 1493.08L745.63 1493.72L746.403 1494.35ZM746.737 1490.27C746.476 1490.76 746.659 1491.37 747.146 1491.63C747.633 1491.89 748.239 1491.71 748.5 1491.22L747.618 1490.75L746.737 1490.27ZM749.944 1487.73C750.105 1487.21 749.806 1486.65 749.277 1486.49C748.749 1486.33 748.191 1486.63 748.03 1487.15L748.987 1487.44L749.944 1487.73ZM748.686 1483.84C748.633 1484.39 749.035 1484.88 749.585 1484.93C750.134 1484.99 750.623 1484.58 750.677 1484.03L749.682 1483.94L748.686 1483.84ZM750.677 1480.27C750.623 1479.72 750.134 1479.31 749.585 1479.37C749.035 1479.42 748.633 1479.91 748.686 1480.46L749.682 1480.36L750.677 1480.27ZM748.03 1477.15C748.191 1477.67 748.749 1477.97 749.277 1477.81C749.806 1477.65 750.105 1477.09 749.944 1476.57L748.987 1476.86L748.03 1477.15ZM748.5 1473.08C748.239 1472.59 747.633 1472.41 747.146 1472.67C746.659 1472.93 746.476 1473.54 746.737 1474.03L747.618 1473.55L748.5 1473.08ZM744.857 1471.22C745.208 1471.64 745.838 1471.71 746.265 1471.36C746.691 1471.01 746.753 1470.38 746.403 1469.95L745.63 1470.58L744.857 1471.22ZM743.737 1467.28C743.31 1466.93 742.68 1466.99 742.329 1467.42C741.979 1467.85 742.041 1468.48 742.467 1468.83L743.102 1468.06L743.737 1467.28ZM739.659 1466.95C740.146 1467.21 740.752 1467.03 741.013 1466.54C741.274 1466.05 741.091 1465.45 740.604 1465.19L740.132 1466.07L739.659 1466.95ZM737.12 1463.74C736.591 1463.58 736.033 1463.88 735.873 1464.41C735.712 1464.94 736.011 1465.49 736.54 1465.65L736.83 1464.7L737.12 1463.74ZM733.226 1465C733.776 1465.05 734.265 1464.65 734.318 1464.1C734.372 1463.55 733.969 1463.06 733.42 1463.01L733.323 1464L733.226 1465ZM729.477 1462.92C728.924 1462.92 728.477 1463.36 728.477 1463.92C728.477 1464.47 728.924 1464.92 729.477 1464.92V1463.92V1462.92ZM725.36 1464.92C725.912 1464.92 726.36 1464.47 726.36 1463.92C726.36 1463.36 725.912 1462.92 725.36 1462.92V1463.92V1464.92ZM721.243 1462.92C720.691 1462.92 720.243 1463.36 720.243 1463.92C720.243 1464.47 720.691 1464.92 721.243 1464.92V1463.92V1462.92ZM717.126 1464.92C717.679 1464.92 718.126 1464.47 718.126 1463.92C718.126 1463.36 717.679 1462.92 717.126 1462.92V1463.92V1464.92ZM713.01 1462.92C712.457 1462.92 712.01 1463.36 712.01 1463.92C712.01 1464.47 712.457 1464.92 713.01 1464.92V1463.92V1462.92ZM708.893 1464.92C709.445 1464.92 709.893 1464.47 709.893 1463.92C709.893 1463.36 709.445 1462.92 708.893 1462.92V1463.92V1464.92ZM704.776 1462.92C704.224 1462.92 703.776 1463.36 703.776 1463.92C703.776 1464.47 704.224 1464.92 704.776 1464.92V1463.92V1462.92ZM700.659 1464.92C701.212 1464.92 701.659 1464.47 701.659 1463.92C701.659 1463.36 701.212 1462.92 700.659 1462.92V1463.92V1464.92ZM696.543 1462.92C695.99 1462.92 695.543 1463.36 695.543 1463.92C695.543 1464.47 695.99 1464.92 696.543 1464.92V1463.92V1462.92ZM692.426 1464.92C692.978 1464.92 693.426 1464.47 693.426 1463.92C693.426 1463.36 692.978 1462.92 692.426 1462.92V1463.92V1464.92ZM688.309 1462.92C687.757 1462.92 687.309 1463.36 687.309 1463.92C687.309 1464.47 687.757 1464.92 688.309 1464.92V1463.92V1462.92ZM684.193 1464.92C684.745 1464.92 685.193 1464.47 685.193 1463.92C685.193 1463.36 684.745 1462.92 684.193 1462.92V1463.92V1464.92ZM680.076 1462.92C679.523 1462.92 679.076 1463.36 679.076 1463.92C679.076 1464.47 679.523 1464.92 680.076 1464.92V1463.92V1462.92ZM675.959 1464.92C676.511 1464.92 676.959 1464.47 676.959 1463.92C676.959 1463.36 676.511 1462.92 675.959 1462.92V1463.92V1464.92ZM671.842 1462.92C671.29 1462.92 670.842 1463.36 670.842 1463.92C670.842 1464.47 671.29 1464.92 671.842 1464.92V1463.92V1462.92ZM667.726 1464.92C668.278 1464.92 668.726 1464.47 668.726 1463.92C668.726 1463.36 668.278 1462.92 667.726 1462.92V1463.92V1464.92ZM663.609 1462.92C663.057 1462.92 662.609 1463.36 662.609 1463.92C662.609 1464.47 663.057 1464.92 663.609 1464.92V1463.92V1462.92ZM659.492 1464.92C660.044 1464.92 660.492 1464.47 660.492 1463.92C660.492 1463.36 660.044 1462.92 659.492 1462.92V1463.92V1464.92ZM657.434 1500.38V1501.38H659.492V1500.38V1499.38H657.434V1500.38ZM663.609 1500.38V1501.38H667.726V1500.38V1499.38H663.609V1500.38ZM671.842 1500.38V1501.38H675.959V1500.38V1499.38H671.842V1500.38ZM680.076 1500.38V1501.38H684.193V1500.38V1499.38H680.076V1500.38ZM688.309 1500.38V1501.38H692.426V1500.38V1499.38H688.309V1500.38ZM696.543 1500.38V1501.38H700.659V1500.38V1499.38H696.543V1500.38ZM704.776 1500.38V1501.38H708.893V1500.38V1499.38H704.776V1500.38ZM713.01 1500.38V1501.38H717.126V1500.38V1499.38H713.01V1500.38ZM721.243 1500.38V1501.38H725.36V1500.38V1499.38H721.243V1500.38ZM729.477 1500.38V1501.38H731.535V1500.38V1499.38H729.477V1500.38ZM731.535 1500.38V1501.38C732.171 1501.38 732.799 1501.35 733.42 1501.29L733.323 1500.3L733.226 1499.3C732.67 1499.36 732.106 1499.38 731.535 1499.38V1500.38ZM736.83 1499.6L737.12 1500.56C738.336 1500.19 739.502 1499.71 740.604 1499.12L740.132 1498.23L739.659 1497.35C738.673 1497.88 737.629 1498.32 736.54 1498.65L736.83 1499.6ZM743.102 1496.25L743.737 1497.02C744.71 1496.22 745.603 1495.33 746.403 1494.35L745.63 1493.72L744.857 1493.08C744.14 1493.95 743.34 1494.76 742.467 1495.47L743.102 1496.25ZM747.618 1490.75L748.5 1491.22C749.09 1490.12 749.576 1488.95 749.944 1487.73L748.987 1487.44L748.03 1487.15C747.7 1488.24 747.265 1489.29 746.737 1490.27L747.618 1490.75ZM749.682 1483.94L750.677 1484.03C750.737 1483.41 750.768 1482.79 750.768 1482.15H749.768H748.768C748.768 1482.72 748.74 1483.29 748.686 1483.84L749.682 1483.94ZM749.768 1482.15H750.768C750.768 1481.51 750.737 1480.89 750.677 1480.27L749.682 1480.36L748.686 1480.46C748.74 1481.02 748.768 1481.58 748.768 1482.15H749.768ZM748.987 1476.86L749.944 1476.57C749.576 1475.35 749.09 1474.18 748.5 1473.08L747.618 1473.55L746.737 1474.03C747.265 1475.01 747.7 1476.06 748.03 1477.15L748.987 1476.86ZM745.63 1470.58L746.403 1469.95C745.603 1468.98 744.71 1468.08 743.737 1467.28L743.102 1468.06L742.467 1468.83C743.34 1469.54 744.14 1470.35 744.857 1471.22L745.63 1470.58ZM740.132 1466.07L740.604 1465.19C739.502 1464.6 738.336 1464.11 737.12 1463.74L736.83 1464.7L736.54 1465.65C737.629 1465.98 738.673 1466.42 739.659 1466.95L740.132 1466.07ZM733.323 1464L733.42 1463.01C732.799 1462.95 732.171 1462.92 731.535 1462.92V1463.92V1464.92C732.106 1464.92 732.67 1464.94 733.226 1465L733.323 1464ZM731.535 1463.92V1462.92H729.477V1463.92V1464.92H731.535V1463.92ZM725.36 1463.92V1462.92H721.243V1463.92V1464.92H725.36V1463.92ZM717.126 1463.92V1462.92H713.01V1463.92V1464.92H717.126V1463.92ZM708.893 1463.92V1462.92H704.776V1463.92V1464.92H708.893V1463.92ZM700.659 1463.92V1462.92H696.543V1463.92V1464.92H700.659V1463.92ZM692.426 1463.92V1462.92H688.309V1463.92V1464.92H692.426V1463.92ZM684.193 1463.92V1462.92H680.076V1463.92V1464.92H684.193V1463.92ZM675.959 1463.92V1462.92H671.842V1463.92V1464.92H675.959V1463.92ZM667.726 1463.92V1462.92H663.609V1463.92V1464.92H667.726V1463.92ZM659.492 1463.92V1462.92H657.434V1463.92V1464.92H659.492V1463.92Z" fill="#9DAAF1"/>
<path id="Vector 94_2" d="M1085.38 815.979H1084.38V817.979H1085.38V816.979V815.979ZM1090.71 853.445C1090.71 850.499 1088.32 848.111 1085.38 848.111C1082.43 848.111 1080.04 850.499 1080.04 853.445C1080.04 856.39 1082.43 858.778 1085.38 858.778C1088.32 858.778 1090.71 856.39 1090.71 853.445ZM1087.43 854.445C1087.99 854.445 1088.43 853.997 1088.43 853.445C1088.43 852.892 1087.99 852.445 1087.43 852.445V853.445V854.445ZM1091.55 852.445C1091 852.445 1090.55 852.892 1090.55 853.445C1090.55 853.997 1091 854.445 1091.55 854.445V853.445V852.445ZM1095.67 854.445C1096.22 854.445 1096.67 853.997 1096.67 853.445C1096.67 852.892 1096.22 852.445 1095.67 852.445V853.445V854.445ZM1099.78 852.445C1099.23 852.445 1098.78 852.892 1098.78 853.445C1098.78 853.997 1099.23 854.445 1099.78 854.445V853.445V852.445ZM1103.9 854.445C1104.45 854.445 1104.9 853.997 1104.9 853.445C1104.9 852.892 1104.45 852.445 1103.9 852.445V853.445V854.445ZM1108.02 852.445C1107.46 852.445 1107.02 852.892 1107.02 853.445C1107.02 853.997 1107.46 854.445 1108.02 854.445V853.445V852.445ZM1112.13 854.445C1112.69 854.445 1113.13 853.997 1113.13 853.445C1113.13 852.892 1112.69 852.445 1112.13 852.445V853.445V854.445ZM1116.25 852.445C1115.7 852.445 1115.25 852.892 1115.25 853.445C1115.25 853.997 1115.7 854.445 1116.25 854.445V853.445V852.445ZM1120.37 854.445C1120.92 854.445 1121.37 853.997 1121.37 853.445C1121.37 852.892 1120.92 852.445 1120.37 852.445V853.445V854.445ZM1124.48 852.445C1123.93 852.445 1123.48 852.892 1123.48 853.445C1123.48 853.997 1123.93 854.445 1124.48 854.445V853.445V852.445ZM1128.6 854.445C1129.15 854.445 1129.6 853.997 1129.6 853.445C1129.6 852.892 1129.15 852.445 1128.6 852.445V853.445V854.445ZM1132.72 852.445C1132.17 852.445 1131.72 852.892 1131.72 853.445C1131.72 853.997 1132.17 854.445 1132.72 854.445V853.445V852.445ZM1136.83 854.445C1137.39 854.445 1137.83 853.997 1137.83 853.445C1137.83 852.892 1137.39 852.445 1136.83 852.445V853.445V854.445ZM1140.95 852.445C1140.4 852.445 1139.95 852.892 1139.95 853.445C1139.95 853.997 1140.4 854.445 1140.95 854.445V853.445V852.445ZM1145.07 854.445C1145.62 854.445 1146.07 853.997 1146.07 853.445C1146.07 852.892 1145.62 852.445 1145.07 852.445V853.445V854.445ZM1149.18 852.445C1148.63 852.445 1148.18 852.892 1148.18 853.445C1148.18 853.997 1148.63 854.445 1149.18 854.445V853.445V852.445ZM1153.3 854.445C1153.85 854.445 1154.3 853.997 1154.3 853.445C1154.3 852.892 1153.85 852.445 1153.3 852.445V853.445V854.445ZM1157.42 852.445C1156.87 852.445 1156.42 852.892 1156.42 853.445C1156.42 853.997 1156.87 854.445 1157.42 854.445V853.445V852.445ZM1161.36 854.353C1161.91 854.3 1162.31 853.811 1162.26 853.261C1162.21 852.711 1161.72 852.309 1161.17 852.363L1161.26 853.358L1161.36 854.353ZM1164.48 851.707C1163.95 851.867 1163.65 852.425 1163.81 852.954C1163.97 853.482 1164.53 853.781 1165.06 853.621L1164.77 852.664L1164.48 851.707ZM1168.54 852.176C1169.03 851.916 1169.22 851.31 1168.95 850.823C1168.69 850.336 1168.09 850.153 1167.6 850.413L1168.07 851.295L1168.54 852.176ZM1170.41 848.534C1169.98 848.884 1169.92 849.515 1170.27 849.941C1170.62 850.368 1171.25 850.43 1171.68 850.079L1171.04 849.306L1170.41 848.534ZM1174.34 847.413C1174.69 846.987 1174.63 846.357 1174.21 846.006C1173.78 845.655 1173.15 845.717 1172.8 846.144L1173.57 846.779L1174.34 847.413ZM1174.68 843.336C1174.42 843.823 1174.6 844.429 1175.09 844.69C1175.57 844.95 1176.18 844.767 1176.44 844.28L1175.56 843.808L1174.68 843.336ZM1177.89 840.796C1178.05 840.268 1177.75 839.709 1177.22 839.549C1176.69 839.389 1176.13 839.688 1175.97 840.216L1176.93 840.506L1177.89 840.796ZM1176.63 836.903C1176.57 837.452 1176.98 837.941 1177.53 837.995C1178.08 838.048 1178.56 837.646 1178.62 837.096L1177.62 836.999L1176.63 836.903ZM1178.62 833.327C1178.56 832.777 1178.08 832.375 1177.53 832.428C1176.98 832.482 1176.57 832.971 1176.63 833.521L1177.62 833.424L1178.62 833.327ZM1175.97 830.207C1176.13 830.735 1176.69 831.034 1177.22 830.874C1177.75 830.714 1178.05 830.156 1177.89 829.627L1176.93 829.917L1175.97 830.207ZM1176.44 826.143C1176.18 825.656 1175.57 825.473 1175.09 825.734C1174.6 825.994 1174.42 826.6 1174.68 827.087L1175.56 826.615L1176.44 826.143ZM1172.8 824.279C1173.15 824.706 1173.78 824.768 1174.21 824.417C1174.63 824.067 1174.69 823.436 1174.34 823.01L1173.57 823.644L1172.8 824.279ZM1171.68 820.344C1171.25 819.993 1170.62 820.055 1170.27 820.482C1169.92 820.909 1169.98 821.539 1170.41 821.889L1171.04 821.117L1171.68 820.344ZM1167.6 820.01C1168.09 820.27 1168.69 820.087 1168.95 819.6C1169.22 819.114 1169.03 818.507 1168.54 818.247L1168.07 819.128L1167.6 820.01ZM1165.06 816.802C1164.53 816.642 1163.97 816.941 1163.81 817.469C1163.65 817.998 1163.95 818.556 1164.48 818.716L1164.77 817.759L1165.06 816.802ZM1161.17 818.06C1161.72 818.114 1162.21 817.712 1162.26 817.162C1162.31 816.612 1161.91 816.123 1161.36 816.07L1161.26 817.065L1161.17 818.06ZM1157.42 815.979C1156.87 815.979 1156.42 816.426 1156.42 816.979C1156.42 817.531 1156.87 817.979 1157.42 817.979V816.979V815.979ZM1153.3 817.979C1153.85 817.979 1154.3 817.531 1154.3 816.979C1154.3 816.426 1153.85 815.979 1153.3 815.979V816.979V817.979ZM1149.18 815.979C1148.63 815.979 1148.18 816.426 1148.18 816.979C1148.18 817.531 1148.63 817.979 1149.18 817.979V816.979V815.979ZM1145.07 817.979C1145.62 817.979 1146.07 817.531 1146.07 816.979C1146.07 816.426 1145.62 815.979 1145.07 815.979V816.979V817.979ZM1140.95 815.979C1140.4 815.979 1139.95 816.426 1139.95 816.979C1139.95 817.531 1140.4 817.979 1140.95 817.979V816.979V815.979ZM1136.83 817.979C1137.39 817.979 1137.83 817.531 1137.83 816.979C1137.83 816.426 1137.39 815.979 1136.83 815.979V816.979V817.979ZM1132.72 815.979C1132.17 815.979 1131.72 816.426 1131.72 816.979C1131.72 817.531 1132.17 817.979 1132.72 817.979V816.979V815.979ZM1128.6 817.979C1129.15 817.979 1129.6 817.531 1129.6 816.979C1129.6 816.426 1129.15 815.979 1128.6 815.979V816.979V817.979ZM1124.48 815.979C1123.93 815.979 1123.48 816.426 1123.48 816.979C1123.48 817.531 1123.93 817.979 1124.48 817.979V816.979V815.979ZM1120.37 817.979C1120.92 817.979 1121.37 817.531 1121.37 816.979C1121.37 816.426 1120.92 815.979 1120.37 815.979V816.979V817.979ZM1116.25 815.979C1115.7 815.979 1115.25 816.426 1115.25 816.979C1115.25 817.531 1115.7 817.979 1116.25 817.979V816.979V815.979ZM1112.13 817.979C1112.69 817.979 1113.13 817.531 1113.13 816.979C1113.13 816.426 1112.69 815.979 1112.13 815.979V816.979V817.979ZM1108.02 815.979C1107.46 815.979 1107.02 816.426 1107.02 816.979C1107.02 817.531 1107.46 817.979 1108.02 817.979V816.979V815.979ZM1103.9 817.979C1104.45 817.979 1104.9 817.531 1104.9 816.979C1104.9 816.426 1104.45 815.979 1103.9 815.979V816.979V817.979ZM1099.78 815.979C1099.23 815.979 1098.78 816.426 1098.78 816.979C1098.78 817.531 1099.23 817.979 1099.78 817.979V816.979V815.979ZM1095.67 817.979C1096.22 817.979 1096.67 817.531 1096.67 816.979C1096.67 816.426 1096.22 815.979 1095.67 815.979V816.979V817.979ZM1091.55 815.979C1091 815.979 1090.55 816.426 1090.55 816.979C1090.55 817.531 1091 817.979 1091.55 817.979V816.979V815.979ZM1087.43 817.979C1087.99 817.979 1088.43 817.531 1088.43 816.979C1088.43 816.426 1087.99 815.979 1087.43 815.979V816.979V817.979ZM1085.38 853.445V854.445H1087.43V853.445V852.445H1085.38V853.445ZM1091.55 853.445V854.445H1095.67V853.445V852.445H1091.55V853.445ZM1099.78 853.445V854.445H1103.9V853.445V852.445H1099.78V853.445ZM1108.02 853.445V854.445H1112.13V853.445V852.445H1108.02V853.445ZM1116.25 853.445V854.445H1120.37V853.445V852.445H1116.25V853.445ZM1124.48 853.445V854.445H1128.6V853.445V852.445H1124.48V853.445ZM1132.72 853.445V854.445H1136.83V853.445V852.445H1132.72V853.445ZM1140.95 853.445V854.445H1145.07V853.445V852.445H1140.95V853.445ZM1149.18 853.445V854.445H1153.3V853.445V852.445H1149.18V853.445ZM1157.42 853.445V854.445H1159.48V853.445V852.445H1157.42V853.445ZM1159.48 853.445V854.445C1160.11 854.445 1160.74 854.414 1161.36 854.353L1161.26 853.358L1161.17 852.363C1160.61 852.417 1160.05 852.445 1159.48 852.445V853.445ZM1164.77 852.664L1165.06 853.621C1166.28 853.252 1167.44 852.766 1168.54 852.176L1168.07 851.295L1167.6 850.413C1166.61 850.942 1165.57 851.377 1164.48 851.707L1164.77 852.664ZM1171.04 849.306L1171.68 850.079C1172.65 849.28 1173.54 848.386 1174.34 847.413L1173.57 846.779L1172.8 846.144C1172.08 847.016 1171.28 847.817 1170.41 848.534L1171.04 849.306ZM1175.56 843.808L1176.44 844.28C1177.03 843.179 1177.52 842.013 1177.89 840.796L1176.93 840.506L1175.97 840.216C1175.64 841.305 1175.21 842.349 1174.68 843.336L1175.56 843.808ZM1177.62 836.999L1178.62 837.096C1178.68 836.476 1178.71 835.847 1178.71 835.212H1177.71H1176.71C1176.71 835.782 1176.68 836.346 1176.63 836.903L1177.62 836.999ZM1177.71 835.212H1178.71C1178.71 834.576 1178.68 833.947 1178.62 833.327L1177.62 833.424L1176.63 833.521C1176.68 834.077 1176.71 834.641 1176.71 835.212H1177.71ZM1176.93 829.917L1177.89 829.627C1177.52 828.41 1177.03 827.244 1176.44 826.143L1175.56 826.615L1174.68 827.087C1175.21 828.074 1175.64 829.118 1175.97 830.207L1176.93 829.917ZM1173.57 823.644L1174.34 823.01C1173.54 822.037 1172.65 821.143 1171.68 820.344L1171.04 821.117L1170.41 821.889C1171.28 822.606 1172.08 823.407 1172.8 824.279L1173.57 823.644ZM1168.07 819.128L1168.54 818.247C1167.44 817.657 1166.28 817.171 1165.06 816.802L1164.77 817.759L1164.48 818.716C1165.57 819.046 1166.61 819.481 1167.6 820.01L1168.07 819.128ZM1161.26 817.065L1161.36 816.07C1160.74 816.009 1160.11 815.979 1159.48 815.979V816.979V817.979C1160.05 817.979 1160.61 818.006 1161.17 818.06L1161.26 817.065ZM1159.48 816.979V815.979H1157.42V816.979V817.979H1159.48V816.979ZM1153.3 816.979V815.979H1149.18V816.979V817.979H1153.3V816.979ZM1145.07 816.979V815.979H1140.95V816.979V817.979H1145.07V816.979ZM1136.83 816.979V815.979H1132.72V816.979V817.979H1136.83V816.979ZM1128.6 816.979V815.979H1124.48V816.979V817.979H1128.6V816.979ZM1120.37 816.979V815.979H1116.25V816.979V817.979H1120.37V816.979ZM1112.13 816.979V815.979H1108.02V816.979V817.979H1112.13V816.979ZM1103.9 816.979V815.979H1099.78V816.979V817.979H1103.9V816.979ZM1095.67 816.979V815.979H1091.55V816.979V817.979H1095.67V816.979ZM1087.43 816.979V815.979H1085.38V816.979V817.979H1087.43V816.979Z" fill="#9DAAF1"/>
<rect id="Rectangle 12785" opacity="0.3" x="780.188" y="433.034" width="347.915" height="58.9461" rx="9" stroke="#20938D" stroke-width="2"/>
<path id="Vector 72" opacity="0.3" d="M747.477 435H754.704C760.441 435 765.092 439.651 765.092 445.389C765.092 451.126 769.744 455.778 775.481 455.778L780.589 455.778" stroke="#20938D" stroke-width="2" stroke-linecap="round"/>
<text id="Generate Express Configuration information" fill="#2E40A5" style="white-space: pre" xml:space="preserve" font-family="Inter" font-size="16" font-weight="300" letter-spacing="0em"><tspan x="677.491" y="406.939">Generate Express Configuration information</tspan></text>
<text id="Process key and link connection" fill="#2E40A5" style="white-space: pre" xml:space="preserve" font-family="Inter" font-size="16" font-weight="300" letter-spacing="0em"><tspan x="1110.68" y="1058.4">Process key and link connection</tspan></text>
<text id="OIN Wizard populates config details automatically" fill="#2E40A5" style="white-space: pre" xml:space="preserve" font-family="Inter" font-size="16" font-weight="300" letter-spacing="0em"><tspan x="1110.68" y="711.13">OIN Wizard populates config details automatically</tspan></text>
<text id="Create app instance" fill="#2E40A5" style="white-space: pre" xml:space="preserve" font-family="Inter" font-size="16" font-weight="300" letter-spacing="0em"><tspan x="676.76" y="1312.89">Create app instance</tspan></text>
<text id="Test integration" fill="#2E40A5" style="white-space: pre" xml:space="preserve" font-family="Inter" font-size="16" font-weight="300" letter-spacing="0em"><tspan x="683.353" y="1454.61">Test integration</tspan></text>
<text id="OIN Wizard generates secure PEM key" fill="#2E40A5" style="white-space: pre" xml:space="preserve" font-family="Inter" font-size="16" font-weight="300" letter-spacing="0em"><tspan x="1110.68" y="807.675">OIN Wizard generates secure PEM key</tspan></text>
<text id="Selects app and protocol (OIDC, SCIM, etc.)" fill="#2E40A5" style="white-space: pre" xml:space="preserve" font-family="Inter" font-size="16" font-weight="300" letter-spacing="0em"><tspan x="223.475" y="356.319">Selects app and protocol (OIDC, SCIM, etc.)</tspan></text>
<text id="Upload downloaded PEM key" fill="#2E40A5" style="white-space: pre" xml:space="preserve" font-family="Inter" font-size="16" font-weight="300" letter-spacing="0em"><tspan x="224.166" y="1017.24">Upload downloaded PEM key</tspan></text>
<g id="Click Submit Integration">
<text fill="#2E40A5" style="white-space: pre" xml:space="preserve" font-family="Inter" font-size="16" font-weight="300" letter-spacing="0em"><tspan x="264.979" y="1545.56">Submit Integration</tspan></text>
<text fill="#2E40A5" style="white-space: pre" xml:space="preserve" font-family="Inter" font-size="16" font-weight="300" letter-spacing="0em"><tspan x="224.166" y="1545.56">Click </tspan></text>
</g>
<text id="Show green checks (Success)" fill="#2E40A5" style="white-space: pre" xml:space="preserve" font-family="Inter" font-size="16" font-weight="300" letter-spacing="0em"><tspan x="400.197" y="1496.47">Show green checks (Success)</tspan></text>
<g id="Click Test your integration">
<text fill="#2E40A5" style="white-space: pre" xml:space="preserve" font-family="Inter" font-size="16" font-weight="300" letter-spacing="0em"><tspan x="264.979" y="1268.82">Test your integration</tspan></text>
<text fill="#2E40A5" style="white-space: pre" xml:space="preserve" font-family="Inter" font-size="16" font-weight="300" letter-spacing="0em"><tspan x="224.166" y="1268.82">Click </tspan></text>
</g>
<text id="Click Finish" fill="#2E40A5" style="white-space: pre" xml:space="preserve" font-family="Inter" font-size="16" font-weight="300" letter-spacing="0em"><tspan x="224.166" y="1124.01">Click Finish</tspan></text>
<text id="Click Finish_2" fill="#2E40A5" style="white-space: pre" xml:space="preserve" font-family="Inter" font-size="16" font-weight="300" letter-spacing="0em"><tspan x="224.166" y="893.785">Click Finish</tspan></text>
<text id="Copy Express Configuration information to clipboard" fill="#2E40A5" style="white-space: pre" xml:space="preserve" font-family="Inter" font-size="16" font-weight="300" letter-spacing="0em"><tspan x="224.166" y="479.318">Copy Express Configuration information to clipboard</tspan></text>
<text id="Login and start new submission" fill="#2E40A5" style="white-space: pre" xml:space="preserve" font-family="Inter" font-size="16" font-weight="300" letter-spacing="0em"><tspan x="224.166" y="608.248">Login and start new submission</tspan></text>
<rect id="Rectangle 12784" x="41.5" y="259.068" width="1413.24" height="59.932" rx="6" fill="#B1E4DE"/>
<rect id="Rectangle 12786" x="41.5" y="511" width="1413.24" height="59.93" rx="6" fill="#B1E4DE"/>
<rect id="Rectangle 12796" x="41.5" y="923.015" width="1413.24" height="59.93" rx="6" fill="#B1E4DE"/>
<rect id="Rectangle 12804" x="41.5" y="1171.82" width="1413.24" height="59.93" rx="6" fill="#B1E4DE"/>
<text id="Initiate configuration" fill="#2E40A5" style="white-space: pre" xml:space="preserve" font-family="Inter" font-size="16" letter-spacing="0em"><tspan x="61.5" y="294.352">Initiate configuration</tspan></text>
<text id="OIN Wizard set up and metadata exchange" fill="#2E40A5" style="white-space: pre" xml:space="preserve" font-family="Inter" font-size="16" letter-spacing="0em"><tspan x="61.5" y="546.783">OIN Wizard set up and metadata exchange </tspan></text>
<text id="Finalize secure connection" fill="#2E40A5" style="white-space: pre" xml:space="preserve" font-family="Inter" font-size="16" letter-spacing="0em"><tspan x="61.5" y="958.799">Finalize secure connection</tspan></text>
<text id="Test and submission" fill="#2E40A5" style="white-space: pre" xml:space="preserve" font-family="Inter" font-size="16" letter-spacing="0em"><tspan x="61.5" y="1207.61">Test and submission</tspan></text>
<rect id="Rectangle 12809" x="172.891" y="640.964" width="897.784" height="29.3571" fill="#9DAAF1" fill-opacity="0.25"/>
<rect id="Rectangle 12810" x="172.891" y="821.979" width="550.789" height="29.3571" fill="#9DAAF1" fill-opacity="0.25"/>
<rect id="Rectangle 12812" x="666.325" y="1359.54" width="537.633" height="29.3571" fill="#9DAAF1" fill-opacity="0.25"/>
<text id="Paste Express Configuration information and click Continue" fill="#2E40A5" style="white-space: pre" xml:space="preserve" font-family="Inter" font-size="16" font-weight="bold" letter-spacing="0em"><tspan x="224.166" y="663.759">Paste Express Configuration information and click Continue</tspan></text>
<text id="Download .pem file" fill="#2E40A5" style="white-space: pre" xml:space="preserve" font-family="Inter" font-size="16" font-weight="bold" letter-spacing="0em"><tspan x="224.166" y="843.623">Download .pem file</tspan></text>
<text id="Run Express Configuration" fill="#2E40A5" style="white-space: pre" xml:space="preserve" font-family="Inter" font-size="16" font-weight="bold" letter-spacing="0em"><tspan x="676.76" y="1379.6">Run Express Configuration</tspan></text>
</g>
</svg>
