<svg width="1513" height="1293" viewBox="0 0 1513 1293" fill="none" xmlns="http://www.w3.org/2000/svg">
<g id="expression_submission_workflow_update">
<rect width="1513" height="1293" rx="12" fill="#F2F3FD"/>
<g id="Group 22490">
<g id="User Bar">
<rect x="978.375" y="86" width="214" height="51" rx="4" fill="#9DAAF1"/>
<text id="Okta environment" fill="black" style="white-space: pre" xml:space="preserve" font-family="Inter" font-size="16" font-weight="600" letter-spacing="0em"><tspan x="1016.28" y="117.318">Okta environment</tspan></text>
</g>
<path id="Vector 93" d="M1085.38 137L1085.37 171.13" stroke="#9DAAF1" stroke-width="2"/>
<g id="Group 22486">
<circle id="Ellipse 48" cx="1085.38" cy="215.403" r="43.7272" fill="white"/>
<g id="Okta_Aura Logomark">
<path id="Vector" fill-rule="evenodd" clip-rule="evenodd" d="M1087.98 190.265L1086.91 203.182L1086.92 203.183C1086.41 203.122 1085.9 203.088 1085.38 203.088C1084.73 203.088 1084.09 203.136 1083.47 203.23L1082.86 196.966C1082.84 196.77 1083 196.599 1083.2 196.602H1084.29L1083.77 190.265C1083.75 190.07 1083.91 189.903 1084.11 189.903H1087.64C1087.84 189.903 1088 190.07 1087.98 190.265H1087.98ZM1079.06 190.906C1079 190.718 1078.8 190.614 1078.61 190.681L1075.29 191.868C1075.1 191.935 1075.01 192.144 1075.1 192.322L1077.8 198.1L1076.77 198.463C1076.58 198.53 1076.49 198.743 1076.58 198.922L1079.33 204.605C1080.33 204.066 1081.42 203.66 1082.56 203.403L1079.06 190.907L1079.06 190.906ZM1070.9 194.504L1078.54 205.07L1078.55 205.072C1077.58 205.69 1076.7 206.435 1075.94 207.285L1071.37 202.866C1071.22 202.728 1071.23 202.497 1071.39 202.372L1072.22 201.685L1067.67 197.162C1067.53 197.024 1067.54 196.797 1067.69 196.671L1070.4 194.441C1070.55 194.315 1070.78 194.345 1070.9 194.503V194.504ZM1064.48 200.621C1064.32 200.511 1064.09 200.56 1063.99 200.728L1062.23 203.732C1062.13 203.902 1062.2 204.117 1062.37 204.201L1068.23 206.925L1067.68 207.85C1067.58 208.021 1067.65 208.24 1067.84 208.322L1073.67 210.939C1074.1 209.875 1074.66 208.883 1075.35 207.987L1064.48 200.621V200.621ZM1060.17 208.786C1060.2 208.593 1060.4 208.471 1060.59 208.52L1073.37 211.795C1073.04 212.854 1072.85 213.974 1072.83 215.134L1066.43 214.631C1066.23 214.616 1066.08 214.433 1066.12 214.239L1066.31 213.186L1059.86 212.593C1059.66 212.574 1059.52 212.394 1059.55 212.201L1060.17 208.785L1060.17 208.786ZM1059.68 217.251C1059.49 217.27 1059.35 217.45 1059.38 217.642L1059.99 221.058C1060.03 221.251 1060.22 221.373 1060.42 221.324L1066.69 219.717L1066.87 220.77C1066.91 220.964 1067.11 221.087 1067.3 221.034L1073.49 219.36C1073.12 218.309 1072.9 217.196 1072.84 216.039L1059.69 217.252L1059.68 217.251ZM1061.73 226.228C1061.63 226.058 1061.7 225.843 1061.88 225.759L1073.81 220.209C1074.27 221.259 1074.87 222.233 1075.59 223.109L1070.36 226.757C1070.19 226.872 1069.96 226.822 1069.86 226.652L1069.32 225.725L1063.99 229.339C1063.82 229.451 1063.6 229.401 1063.5 229.231L1061.73 226.227L1061.73 226.228ZM1076.19 223.794L1066.91 233.017C1066.77 233.155 1066.78 233.382 1066.93 233.508L1069.64 235.737C1069.79 235.862 1070.02 235.833 1070.14 235.675L1073.89 230.49L1074.72 231.18C1074.88 231.307 1075.11 231.276 1075.22 231.114L1078.86 225.934C1077.87 225.344 1076.98 224.621 1076.19 223.797L1076.19 223.794V223.794ZM1074.36 238.603C1074.17 238.537 1074.08 238.327 1074.16 238.15H1074.16L1079.67 226.37C1080.68 226.878 1081.78 227.257 1082.93 227.481L1081.31 233.571C1081.26 233.762 1081.05 233.869 1080.86 233.801L1079.84 233.432L1078.12 239.563C1078.07 239.751 1077.87 239.855 1077.68 239.788L1074.36 238.602V238.603ZM1083.84 227.623L1082.77 240.541C1082.75 240.735 1082.91 240.903 1083.11 240.903H1086.65C1086.84 240.903 1087 240.735 1086.98 240.541L1086.46 234.204H1087.55C1087.75 234.207 1087.91 234.036 1087.89 233.841L1087.28 227.577C1086.66 227.669 1086.02 227.718 1085.37 227.718C1084.85 227.718 1084.34 227.684 1083.84 227.623L1083.84 227.623ZM1096.59 192.654C1096.67 192.477 1096.58 192.268 1096.4 192.2L1093.07 191.015C1092.89 190.948 1092.68 191.052 1092.63 191.24L1090.91 197.37L1089.89 197.002C1089.7 196.934 1089.49 197.04 1089.44 197.231L1087.83 203.322C1088.98 203.545 1090.07 203.924 1091.08 204.432L1096.59 192.653L1096.59 192.654ZM1103.84 197.787L1094.56 207.011L1094.56 207.007C1093.77 206.182 1092.88 205.46 1091.89 204.87L1095.53 199.69C1095.64 199.529 1095.87 199.497 1096.03 199.625L1096.86 200.314L1100.61 195.13C1100.73 194.971 1100.96 194.941 1101.11 195.068L1103.82 197.296C1103.97 197.422 1103.98 197.649 1103.84 197.787L1103.84 197.787ZM1108.87 205.046C1109.05 204.962 1109.12 204.746 1109.02 204.577L1107.25 201.572C1107.15 201.403 1106.93 201.353 1106.76 201.465L1101.43 205.079L1100.89 204.152C1100.79 203.981 1100.56 203.932 1100.4 204.047L1095.17 207.696C1095.88 208.572 1096.48 209.546 1096.94 210.596L1108.87 205.046H1108.87ZM1110.75 209.747L1111.37 213.163L1111.37 213.165C1111.4 213.357 1111.26 213.538 1111.07 213.556L1097.91 214.768C1097.85 213.61 1097.63 212.498 1097.26 211.447L1103.45 209.772C1103.64 209.719 1103.84 209.842 1103.87 210.036L1104.06 211.089L1110.33 209.482C1110.52 209.432 1110.72 209.554 1110.75 209.747H1110.75ZM1110.16 222.284C1110.35 222.333 1110.55 222.211 1110.58 222.018L1111.19 218.603C1111.23 218.41 1111.09 218.23 1110.89 218.211L1104.44 217.618L1104.63 216.565C1104.66 216.37 1104.52 216.189 1104.32 216.173L1097.92 215.669C1097.9 216.829 1097.71 217.95 1097.38 219.009L1110.16 222.282V222.283L1110.16 222.284ZM1106.76 230.076C1106.66 230.244 1106.43 230.294 1106.27 230.184L1106.27 230.182L1095.4 222.818C1096.09 221.922 1096.65 220.93 1097.08 219.866L1102.91 222.483C1103.09 222.565 1103.17 222.784 1103.06 222.955L1102.52 223.881L1108.37 226.604C1108.55 226.688 1108.62 226.903 1108.52 227.073L1106.76 230.077V230.076ZM1092.2 225.733L1099.85 236.301C1099.97 236.46 1100.2 236.49 1100.35 236.364L1103.06 234.133C1103.21 234.007 1103.22 233.781 1103.08 233.642L1098.53 229.118L1099.36 228.432C1099.52 228.306 1099.53 228.076 1099.38 227.938L1094.81 223.519C1094.05 224.368 1093.17 225.114 1092.2 225.732H1092.2V225.733ZM1092.14 240.123C1091.95 240.189 1091.75 240.085 1091.69 239.898L1088.19 227.402C1089.33 227.145 1090.42 226.738 1091.41 226.2L1094.17 231.883C1094.26 232.062 1094.17 232.275 1093.98 232.342L1092.95 232.705L1095.65 238.483C1095.74 238.66 1095.65 238.869 1095.46 238.936L1092.14 240.123H1092.14Z" fill="#2E40A5"/>
</g>
</g>
<path id="Rectangle 12782" d="M1070.67 254.5H1100.08V1248.41L1085.38 1268.76L1070.67 1248.41L1070.67 254.5Z" fill="white"/>
</g>
<g id="Group 22489">
<g id="User Bar_2">
<rect x="544.625" y="86" width="214" height="51" rx="4" fill="#9DAAF1"/>
<text id="Auth0 environment" fill="black" style="white-space: pre" xml:space="preserve" font-family="Inter" font-size="16" font-weight="600" letter-spacing="0em"><tspan x="576.883" y="117.318">Auth0 environment</tspan></text>
</g>
<path id="Vector 94" d="M651.625 137L651.625 171.13" stroke="#9DAAF1" stroke-width="2"/>
<g id="Group 22487">
<circle id="Ellipse 47" cx="651.625" cy="215.403" r="43.7272" fill="white"/>
<g id="Auth0_Shield Logomark">
<path id="Vector_2" d="M632.445 213.538C641.205 212.108 648.07 205.297 649.513 196.608L650.214 192.382C650.349 191.565 649.673 190.844 648.839 190.907C642.17 191.419 635.885 193.609 632.413 195.021C630.728 195.707 629.625 197.332 629.625 199.141V212.498C629.625 213.283 630.333 213.881 631.115 213.754L632.445 213.538V213.538Z" fill="#2E40A5"/>
<path id="Vector_3" d="M653.737 196.609C655.179 205.298 662.045 212.108 670.805 213.539L672.135 213.755C672.917 213.883 673.625 213.285 673.625 212.499V199.142C673.625 197.333 672.522 195.709 670.837 195.022C667.365 193.608 661.077 191.42 654.411 190.908C653.577 190.845 652.898 191.564 653.036 192.384L653.737 196.609V196.609Z" fill="#2E40A5"/>
<path id="Vector_4" d="M670.804 217.726C662.044 219.156 655.179 225.967 653.737 234.656L652.862 242.903C652.781 243.647 653.615 244.172 654.243 243.756C654.249 243.752 654.253 243.749 654.259 243.746C659.752 240.07 672.284 230.449 673.524 218.431C673.585 217.84 673.056 217.357 672.466 217.452L670.806 217.722L670.802 217.726H670.804Z" fill="#2E40A5"/>
<path id="Vector_5" d="M649.512 234.656C648.071 225.967 641.205 219.157 632.445 217.726L630.66 217.433C630.134 217.347 629.663 217.78 629.714 218.307C630.89 230.393 643.595 240.074 649.137 243.756C649.711 244.134 650.47 243.679 650.397 242.999L649.512 234.656H649.512Z" fill="#2E40A5"/>
</g>
</g>
<path id="Rectangle 12783" d="M636.924 254.5H666.325V1249.39L651.625 1269.39L636.924 1249.39V254.5Z" fill="white"/>
</g>
<path id="Vector 9" d="M41.5 75.5H1465" stroke="#E1E1E1" stroke-linecap="round"/>
<text id="Expression submission workflow" fill="#272727" style="white-space: pre" xml:space="preserve" font-family="DM Sans" font-size="32" font-weight="500" letter-spacing="0.01em"><tspan x="37" y="56.912">Expression submission workflow</tspan></text>
<g id="Group 22488">
<g id="User Bar_3">
<rect x="91.5" y="86" width="214" height="51" rx="4" fill="#9DAAF1"/>
<text id="ISV User" fill="black" style="white-space: pre" xml:space="preserve" font-family="Inter" font-size="16" font-weight="600" letter-spacing="0em"><tspan x="165.164" y="117.318">ISV User</tspan></text>
</g>
<path id="Vector 68" d="M198.528 137L198.528 171.13" stroke="#9DAAF1" stroke-width="2"/>
<g id="End user flows / Icons / Users">
<rect id="Rectangle 290" x="154.528" y="171.13" width="88" height="88" rx="44" fill="white"/>
<g id="Icon Set 2/User">
<path id="Vector_6" d="M198.5 209.771C192.356 209.771 187.359 204.773 187.359 198.63C187.359 192.487 192.356 187.489 198.5 187.489C204.644 187.489 209.641 192.487 209.641 198.63C209.641 204.773 204.644 209.771 198.5 209.771ZM198.5 190.396C193.959 190.396 190.266 194.09 190.266 198.63C190.266 203.17 193.959 206.864 198.5 206.864C203.041 206.864 206.734 203.17 206.734 198.63C206.734 194.09 203.041 190.396 198.5 190.396Z" fill="#9DAAF1"/>
<path id="Vector_7" d="M198.5 209.771C192.356 209.771 187.359 204.773 187.359 198.63C187.359 192.487 192.356 187.489 198.5 187.489C204.644 187.489 209.641 192.487 209.641 198.63C209.641 204.773 204.644 209.771 198.5 209.771ZM198.5 190.396C193.959 190.396 190.266 194.09 190.266 198.63C190.266 203.17 193.959 206.864 198.5 206.864C203.041 206.864 206.734 203.17 206.734 198.63C206.734 194.09 203.041 190.396 198.5 190.396Z" fill="#9DAAF1"/>
<path id="Vector_8" d="M221.328 237.554C219.309 228.378 217.631 222.576 211.328 219.376C207.662 217.55 203.351 216.621 198.528 216.621C193.705 216.621 189.395 217.55 185.717 219.381C179.426 222.576 177.748 228.378 175.729 237.554L172.891 236.929C175.029 227.21 176.985 220.557 184.412 216.785C188.506 214.746 193.251 213.714 198.528 213.714C203.805 213.714 208.551 214.746 212.634 216.78C220.072 220.557 222.028 227.21 224.166 236.929L221.328 237.554ZM213.366 240.905C212.755 235.292 212.157 231.68 211.366 228.826L208.566 229.602C209.313 232.297 209.885 235.77 210.479 241.219L213.366 240.905ZM188.797 229.644L186.02 228.785C184.951 232.245 184.355 236.573 183.789 241.074L186.673 241.435C187.221 237.067 187.796 232.879 188.797 229.644Z" fill="#9DAAF1"/>
</g>
</g>
<path id="Rectangle 12781" d="M183.8 254.5H213.2V1249.39L198.5 1269.39L183.8 1249.39V254.5Z" fill="white"/>
</g>
<text id="Auth0 OIN dashboard" fill="#2E40A5" style="white-space: pre" xml:space="preserve" font-family="Inter" font-size="16" font-weight="300" letter-spacing="0em"><tspan x="707.625" y="221.221">Auth0 OIN dashboard</tspan></text>
<text id="OIN Wizard" fill="#2E40A5" style="white-space: pre" xml:space="preserve" font-family="Inter" font-size="16" font-weight="300" letter-spacing="0em"><tspan x="1144.45" y="221.221">OIN Wizard</tspan></text>
<path id="Vector 89" d="M647.684 396C647.684 393.054 650.072 390.667 653.018 390.667C655.963 390.667 658.351 393.054 658.351 396C658.351 398.945 655.963 401.333 653.018 401.333C650.072 401.333 647.684 398.945 647.684 396ZM198.848 368.98L198.848 367.98L633.018 367.98L633.018 368.98L633.018 369.98L198.848 369.98L198.848 368.98ZM653.018 388.98L654.018 388.98L654.018 396L653.018 396L652.018 396L652.018 388.98L653.018 388.98ZM633.018 368.98L633.018 367.98C644.616 367.98 654.018 377.382 654.018 388.98L653.018 388.98L652.018 388.98C652.018 378.487 643.511 369.98 633.018 369.98L633.018 368.98Z" fill="#F9C503"/>
<path id="Vector 110" d="M646.118 1226.82C646.118 1223.88 648.506 1221.49 651.452 1221.49C654.397 1221.49 656.785 1223.88 656.785 1226.82C656.785 1229.77 654.397 1232.16 651.452 1232.16C648.506 1232.16 646.118 1229.77 646.118 1226.82ZM198.848 1205.27L198.848 1204.27L631.452 1204.27L631.452 1205.27L631.452 1206.27L198.848 1206.27L198.848 1205.27ZM651.452 1225.27L652.452 1225.27L652.452 1226.82L651.452 1226.82L650.452 1226.82L650.452 1225.27L651.452 1225.27ZM631.452 1205.27L631.452 1204.27C643.05 1204.27 652.452 1213.67 652.452 1225.27L651.452 1225.27L650.452 1225.27C650.452 1214.78 641.945 1206.27 631.452 1206.27L631.452 1205.27Z" fill="#F9C503"/>
<path id="Vector 100" d="M646.118 661.489C646.118 658.544 648.506 656.156 651.452 656.156C654.397 656.156 656.785 658.544 656.785 661.489C656.785 664.435 654.397 666.823 651.452 666.823C648.506 666.823 646.118 664.435 646.118 661.489ZM198.848 639.937L198.848 638.937L631.452 638.937L631.452 639.937L631.452 640.937L198.848 640.937L198.848 639.937ZM651.452 659.937L652.452 659.937L652.452 661.489L651.452 661.489L650.452 661.489L650.452 659.937L651.452 659.937ZM631.452 639.937L631.452 638.937C643.05 638.937 652.452 648.339 652.452 659.937L651.452 659.937L650.452 659.937C650.452 649.444 641.945 640.937 631.452 640.937L631.452 639.937Z" fill="#F9C503"/>
<path id="Vector 105" d="M646.118 950.084C646.118 947.138 648.506 944.751 651.452 944.751C654.397 944.751 656.785 947.138 656.785 950.084C656.785 953.029 654.397 955.417 651.452 955.417C648.506 955.417 646.118 953.029 646.118 950.084ZM198.848 928.531L198.848 927.531L631.452 927.532L631.452 928.532L631.452 929.532L198.848 929.531L198.848 928.531ZM651.452 948.532L652.452 948.532L652.452 950.084L651.452 950.084L650.452 950.084L650.452 948.532L651.452 948.532ZM631.452 928.532L631.452 927.532C643.05 927.532 652.452 936.934 652.452 948.532L651.452 948.532L650.452 948.532C650.452 938.038 641.945 929.532 631.452 929.532L631.452 928.532Z" fill="#F9C503"/>
<path id="Vector 109" d="M204.181 1178.55C204.181 1175.61 201.794 1173.22 198.848 1173.22C195.903 1173.22 193.515 1175.61 193.515 1178.55C193.515 1181.5 195.903 1183.88 198.848 1183.88C201.794 1183.88 204.181 1181.5 204.181 1178.55ZM651.452 1157L651.452 1156L218.848 1156L218.848 1157L218.848 1158L651.452 1158L651.452 1157ZM198.848 1177L197.848 1177L197.848 1178.55L198.848 1178.55L199.848 1178.55L199.848 1177L198.848 1177ZM218.848 1157L218.848 1156C207.25 1156 197.848 1165.4 197.848 1177L198.848 1177L199.848 1177C199.848 1166.51 208.355 1158 218.848 1158L218.848 1157Z" fill="#F9C503"/>
<path id="Vector 101" d="M646.118 725.397C646.118 722.452 648.506 720.064 651.452 720.064C654.397 720.064 656.785 722.452 656.785 725.397C656.785 728.343 654.397 730.731 651.452 730.731C648.506 730.731 646.118 728.343 646.118 725.397ZM198.848 703.845L198.848 702.845L631.452 702.845L631.452 703.845L631.452 704.845L198.848 704.845L198.848 703.845ZM651.452 723.845L652.452 723.845L652.452 725.397L651.452 725.397L650.452 725.397L650.452 723.845L651.452 723.845ZM631.452 703.845L631.452 702.845C643.05 702.845 652.452 712.247 652.452 723.845L651.452 723.845L650.452 723.845C650.452 713.352 641.945 704.845 631.452 704.845L631.452 703.845Z" fill="#F9C503"/>
<path id="Vector 104" d="M646.042 748.931C646.042 745.986 648.43 743.598 651.375 743.598C654.321 743.598 656.708 745.986 656.708 748.931C656.708 751.877 654.321 754.264 651.375 754.264C648.43 754.264 646.042 751.877 646.042 748.931ZM198.848 748.931L198.848 747.931L651.375 747.931L651.375 748.931L651.375 749.931L198.848 749.931L198.848 748.931Z" fill="#F9C503"/>
<path id="Vector 90" d="M647.684 492.98C647.684 490.034 650.072 487.647 653.018 487.647C655.963 487.647 658.351 490.034 658.351 492.98C658.351 495.925 655.963 498.313 653.018 498.313C650.072 498.313 647.684 495.925 647.684 492.98ZM198.848 492.979L198.848 491.979L653.018 491.98L653.018 492.98L653.018 493.98L198.848 493.979L198.848 492.979Z" fill="#F9C503"/>
<text id="Contains Auth0 metadata &#226;&#128;&#168;(Client ID, issuer, etc.)" fill="#2E40A5" style="white-space: pre" xml:space="preserve" font-family="Inter" font-size="16" font-weight="300" letter-spacing="0em"><tspan x="855.533" y="456.818">Contains Auth0 metadata &#x2028;</tspan><tspan x="871.768" y="475.818">(Client ID, issuer, etc.)</tspan></text>
<path id="Vector 88" d="M654.291 416.534H653.291V418.534H654.291V417.534V416.534ZM659.624 454C659.624 451.054 657.236 448.667 654.291 448.667C651.345 448.667 648.957 451.054 648.957 454C648.957 456.946 651.345 459.333 654.291 459.333C657.236 459.333 659.624 456.946 659.624 454ZM656.349 455C656.901 455 657.349 454.552 657.349 454C657.349 453.448 656.901 453 656.349 453V454V455ZM660.466 453C659.913 453 659.466 453.448 659.466 454C659.466 454.552 659.913 455 660.466 455V454V453ZM664.582 455C665.135 455 665.582 454.552 665.582 454C665.582 453.448 665.135 453 664.582 453V454V455ZM668.699 453C668.147 453 667.699 453.448 667.699 454C667.699 454.552 668.147 455 668.699 455V454V453ZM672.816 455C673.368 455 673.816 454.552 673.816 454C673.816 453.448 673.368 453 672.816 453V454V455ZM676.933 453C676.38 453 675.933 453.448 675.933 454C675.933 454.552 676.38 455 676.933 455V454V453ZM681.049 455C681.602 455 682.049 454.552 682.049 454C682.049 453.448 681.602 453 681.049 453V454V455ZM685.166 453C684.614 453 684.166 453.448 684.166 454C684.166 454.552 684.614 455 685.166 455V454V453ZM689.283 455C689.835 455 690.283 454.552 690.283 454C690.283 453.448 689.835 453 689.283 453V454V455ZM693.4 453C692.847 453 692.4 453.448 692.4 454C692.4 454.552 692.847 455 693.4 455V454V453ZM697.516 455C698.069 455 698.516 454.552 698.516 454C698.516 453.448 698.069 453 697.516 453V454V455ZM701.633 453C701.081 453 700.633 453.448 700.633 454C700.633 454.552 701.081 455 701.633 455V454V453ZM705.75 455C706.302 455 706.75 454.552 706.75 454C706.75 453.448 706.302 453 705.75 453V454V455ZM709.867 453C709.314 453 708.867 453.448 708.867 454C708.867 454.552 709.314 455 709.867 455V454V453ZM713.983 455C714.536 455 714.983 454.552 714.983 454C714.983 453.448 714.536 453 713.983 453V454V455ZM718.1 453C717.548 453 717.1 453.448 717.1 454C717.1 454.552 717.548 455 718.1 455V454V453ZM722.217 455C722.769 455 723.217 454.552 723.217 454C723.217 453.448 722.769 453 722.217 453V454V455ZM726.334 453C725.781 453 725.334 453.448 725.334 454C725.334 454.552 725.781 455 726.334 455V454V453ZM730.277 454.909C730.826 454.855 731.229 454.366 731.175 453.817C731.122 453.267 730.633 452.865 730.083 452.918L730.18 453.913L730.277 454.909ZM733.397 452.262C732.868 452.422 732.569 452.981 732.729 453.509C732.89 454.038 733.448 454.337 733.976 454.176L733.687 453.219L733.397 452.262ZM737.461 452.732C737.947 452.471 738.131 451.865 737.87 451.378C737.609 450.891 737.003 450.708 736.516 450.969L736.988 451.85L737.461 452.732ZM739.324 449.089C738.898 449.44 738.836 450.07 739.186 450.497C739.537 450.923 740.167 450.985 740.594 450.634L739.959 449.862L739.324 449.089ZM743.259 447.969C743.61 447.542 743.548 446.912 743.122 446.561C742.695 446.211 742.065 446.273 741.714 446.699L742.487 447.334L743.259 447.969ZM743.594 443.891C743.333 444.378 743.516 444.984 744.003 445.245C744.49 445.506 745.096 445.322 745.357 444.836L744.475 444.363L743.594 443.891ZM746.801 441.351C746.962 440.823 746.663 440.265 746.134 440.104C745.606 439.944 745.047 440.243 744.887 440.772L745.844 441.062L746.801 441.351ZM745.543 437.458C745.49 438.008 745.892 438.497 746.442 438.55C746.991 438.604 747.48 438.201 747.534 437.652L746.538 437.555L745.543 437.458ZM747.534 433.882C747.48 433.333 746.991 432.93 746.442 432.984C745.892 433.037 745.49 433.526 745.543 434.076L746.538 433.979L747.534 433.882ZM744.887 430.762C745.047 431.291 745.606 431.59 746.134 431.429C746.663 431.269 746.962 430.711 746.801 430.182L745.844 430.472L744.887 430.762ZM745.357 426.698C745.096 426.211 744.49 426.028 744.003 426.289C743.516 426.55 743.333 427.156 743.594 427.643L744.475 427.17L745.357 426.698ZM741.714 424.835C742.065 425.261 742.695 425.323 743.122 424.973C743.548 424.622 743.61 423.992 743.259 423.565L742.487 424.2L741.714 424.835ZM740.594 420.899C740.167 420.549 739.537 420.611 739.186 421.037C738.836 421.464 738.898 422.094 739.324 422.445L739.959 421.672L740.594 420.899ZM736.516 420.565C737.003 420.826 737.609 420.643 737.87 420.156C738.131 419.669 737.947 419.063 737.461 418.802L736.988 419.684L736.516 420.565ZM733.976 417.358C733.448 417.197 732.89 417.496 732.729 418.025C732.569 418.553 732.868 419.111 733.397 419.272L733.687 418.315L733.976 417.358ZM730.083 418.616C730.633 418.669 731.122 418.267 731.175 417.717C731.229 417.168 730.826 416.679 730.277 416.625L730.18 417.62L730.083 418.616ZM726.334 416.534C725.781 416.534 725.334 416.982 725.334 417.534C725.334 418.086 725.781 418.534 726.334 418.534V417.534V416.534ZM722.217 418.534C722.769 418.534 723.217 418.086 723.217 417.534C723.217 416.982 722.769 416.534 722.217 416.534V417.534V418.534ZM718.1 416.534C717.548 416.534 717.1 416.982 717.1 417.534C717.1 418.086 717.548 418.534 718.1 418.534V417.534V416.534ZM713.983 418.534C714.536 418.534 714.983 418.086 714.983 417.534C714.983 416.982 714.536 416.534 713.983 416.534V417.534V418.534ZM709.867 416.534C709.314 416.534 708.867 416.982 708.867 417.534C708.867 418.086 709.314 418.534 709.867 418.534V417.534V416.534ZM705.75 418.534C706.302 418.534 706.75 418.086 706.75 417.534C706.75 416.982 706.302 416.534 705.75 416.534V417.534V418.534ZM701.633 416.534C701.081 416.534 700.633 416.982 700.633 417.534C700.633 418.086 701.081 418.534 701.633 418.534V417.534V416.534ZM697.516 418.534C698.069 418.534 698.516 418.086 698.516 417.534C698.516 416.982 698.069 416.534 697.516 416.534V417.534V418.534ZM693.4 416.534C692.847 416.534 692.4 416.982 692.4 417.534C692.4 418.086 692.847 418.534 693.4 418.534V417.534V416.534ZM689.283 418.534C689.835 418.534 690.283 418.086 690.283 417.534C690.283 416.982 689.835 416.534 689.283 416.534V417.534V418.534ZM685.166 416.534C684.614 416.534 684.166 416.982 684.166 417.534C684.166 418.086 684.614 418.534 685.166 418.534V417.534V416.534ZM681.049 418.534C681.602 418.534 682.049 418.086 682.049 417.534C682.049 416.982 681.602 416.534 681.049 416.534V417.534V418.534ZM676.933 416.534C676.38 416.534 675.933 416.982 675.933 417.534C675.933 418.086 676.38 418.534 676.933 418.534V417.534V416.534ZM672.816 418.534C673.368 418.534 673.816 418.086 673.816 417.534C673.816 416.982 673.368 416.534 672.816 416.534V417.534V418.534ZM668.699 416.534C668.147 416.534 667.699 416.982 667.699 417.534C667.699 418.086 668.147 418.534 668.699 418.534V417.534V416.534ZM664.582 418.534C665.135 418.534 665.582 418.086 665.582 417.534C665.582 416.982 665.135 416.534 664.582 416.534V417.534V418.534ZM660.466 416.534C659.913 416.534 659.466 416.982 659.466 417.534C659.466 418.086 659.913 418.534 660.466 418.534V417.534V416.534ZM656.349 418.534C656.901 418.534 657.349 418.086 657.349 417.534C657.349 416.982 656.901 416.534 656.349 416.534V417.534V418.534ZM654.291 454V455H656.349V454V453H654.291V454ZM660.466 454V455H664.582V454V453H660.466V454ZM668.699 454V455H672.816V454V453H668.699V454ZM676.933 454V455H681.049V454V453H676.933V454ZM685.166 454V455H689.283V454V453H685.166V454ZM693.4 454V455H697.516V454V453H693.4V454ZM701.633 454V455H705.75V454V453H701.633V454ZM709.867 454V455H713.983V454V453H709.867V454ZM718.1 454V455H722.217V454V453H718.1V454ZM726.334 454V455H728.392V454V453H726.334V454ZM728.392 454V455C729.028 455 729.656 454.969 730.277 454.909L730.18 453.913L730.083 452.918C729.527 452.972 728.963 453 728.392 453V454ZM733.687 453.219L733.976 454.176C735.193 453.808 736.359 453.322 737.461 452.732L736.988 451.85L736.516 450.969C735.53 451.497 734.486 451.932 733.397 452.262L733.687 453.219ZM739.959 449.862L740.594 450.634C741.567 449.835 742.46 448.942 743.259 447.969L742.487 447.334L741.714 446.699C740.997 447.572 740.197 448.372 739.324 449.089L739.959 449.862ZM744.475 444.363L745.357 444.836C745.947 443.734 746.433 442.568 746.801 441.351L745.844 441.062L744.887 440.772C744.557 441.861 744.122 442.905 743.594 443.891L744.475 444.363ZM746.538 437.555L747.534 437.652C747.594 437.031 747.625 436.403 747.625 435.767H746.625H745.625C745.625 436.338 745.597 436.902 745.543 437.458L746.538 437.555ZM746.625 435.767H747.625C747.625 435.131 747.594 434.503 747.534 433.882L746.538 433.979L745.543 434.076C745.597 434.632 745.625 435.196 745.625 435.767H746.625ZM745.844 430.472L746.801 430.182C746.433 428.966 745.947 427.8 745.357 426.698L744.475 427.17L743.594 427.643C744.122 428.629 744.557 429.673 744.887 430.762L745.844 430.472ZM742.487 424.2L743.259 423.565C742.46 422.592 741.567 421.699 740.594 420.899L739.959 421.672L739.324 422.445C740.197 423.162 740.997 423.962 741.714 424.835L742.487 424.2ZM736.988 419.684L737.461 418.802C736.359 418.212 735.193 417.726 733.976 417.358L733.687 418.315L733.397 419.272C734.486 419.602 735.53 420.037 736.516 420.565L736.988 419.684ZM730.18 417.62L730.277 416.625C729.656 416.565 729.028 416.534 728.392 416.534V417.534V418.534C728.963 418.534 729.527 418.562 730.083 418.616L730.18 417.62ZM728.392 417.534V416.534H726.334V417.534V418.534H728.392V417.534ZM722.217 417.534V416.534H718.1V417.534V418.534H722.217V417.534ZM713.983 417.534V416.534H709.867V417.534V418.534H713.983V417.534ZM705.75 417.534V416.534H701.633V417.534V418.534H705.75V417.534ZM697.516 417.534V416.534H693.4V417.534V418.534H697.516V417.534ZM689.283 417.534V416.534H685.166V417.534V418.534H689.283V417.534ZM681.049 417.534V416.534H676.933V417.534V418.534H681.049V417.534ZM672.816 417.534V416.534H668.699V417.534V418.534H672.816V417.534ZM664.582 417.534V416.534H660.466V417.534V418.534H664.582V417.534ZM656.349 417.534V416.534H654.291V417.534V418.534H656.349V417.534Z" fill="#9DAAF1"/>
<path id="Vector 103" d="M651.452 762.243H650.452V764.243H651.452V763.243V762.243ZM656.785 799.709C656.785 796.763 654.397 794.376 651.452 794.376C648.506 794.376 646.118 796.763 646.118 799.709C646.118 802.655 648.506 805.042 651.452 805.042C654.397 805.042 656.785 802.655 656.785 799.709ZM653.51 800.709C654.062 800.709 654.51 800.261 654.51 799.709C654.51 799.157 654.062 798.709 653.51 798.709V799.709V800.709ZM657.627 798.709C657.074 798.709 656.627 799.157 656.627 799.709C656.627 800.261 657.074 800.709 657.627 800.709V799.709V798.709ZM661.743 800.709C662.296 800.709 662.743 800.261 662.743 799.709C662.743 799.157 662.296 798.709 661.743 798.709V799.709V800.709ZM665.86 798.709C665.308 798.709 664.86 799.157 664.86 799.709C664.86 800.261 665.308 800.709 665.86 800.709V799.709V798.709ZM669.977 800.709C670.529 800.709 670.977 800.261 670.977 799.709C670.977 799.157 670.529 798.709 669.977 798.709V799.709V800.709ZM674.094 798.709C673.541 798.709 673.094 799.157 673.094 799.709C673.094 800.261 673.541 800.709 674.094 800.709V799.709V798.709ZM678.21 800.709C678.763 800.709 679.21 800.261 679.21 799.709C679.21 799.157 678.763 798.709 678.21 798.709V799.709V800.709ZM682.327 798.709C681.775 798.709 681.327 799.157 681.327 799.709C681.327 800.261 681.775 800.709 682.327 800.709V799.709V798.709ZM686.444 800.709C686.996 800.709 687.444 800.261 687.444 799.709C687.444 799.157 686.996 798.709 686.444 798.709V799.709V800.709ZM690.561 798.709C690.008 798.709 689.561 799.157 689.561 799.709C689.561 800.261 690.008 800.709 690.561 800.709V799.709V798.709ZM694.677 800.709C695.23 800.709 695.677 800.261 695.677 799.709C695.677 799.157 695.23 798.709 694.677 798.709V799.709V800.709ZM698.794 798.709C698.242 798.709 697.794 799.157 697.794 799.709C697.794 800.261 698.242 800.709 698.794 800.709V799.709V798.709ZM702.911 800.709C703.463 800.709 703.911 800.261 703.911 799.709C703.911 799.157 703.463 798.709 702.911 798.709V799.709V800.709ZM707.028 798.709C706.475 798.709 706.028 799.157 706.028 799.709C706.028 800.261 706.475 800.709 707.028 800.709V799.709V798.709ZM711.144 800.709C711.697 800.709 712.144 800.261 712.144 799.709C712.144 799.157 711.697 798.709 711.144 798.709V799.709V800.709ZM715.261 798.709C714.709 798.709 714.261 799.157 714.261 799.709C714.261 800.261 714.709 800.709 715.261 800.709V799.709V798.709ZM719.378 800.709C719.93 800.709 720.378 800.261 720.378 799.709C720.378 799.157 719.93 798.709 719.378 798.709V799.709V800.709ZM723.495 798.709C722.942 798.709 722.495 799.157 722.495 799.709C722.495 800.261 722.942 800.709 723.495 800.709V799.709V798.709ZM727.438 800.618C727.987 800.564 728.39 800.075 728.336 799.526C728.283 798.976 727.794 798.574 727.244 798.627L727.341 799.622L727.438 800.618ZM730.558 797.971C730.029 798.131 729.73 798.69 729.89 799.218C730.051 799.747 730.609 800.046 731.137 799.885L730.847 798.928L730.558 797.971ZM734.622 798.441C735.108 798.18 735.292 797.574 735.031 797.087C734.77 796.6 734.164 796.417 733.677 796.678L734.149 797.559L734.622 798.441ZM736.485 794.798C736.058 795.149 735.997 795.779 736.347 796.206C736.698 796.632 737.328 796.694 737.755 796.343L737.12 795.571L736.485 794.798ZM740.42 793.678C740.771 793.251 740.709 792.621 740.283 792.27C739.856 791.92 739.226 791.981 738.875 792.408L739.648 793.043L740.42 793.678ZM740.755 789.6C740.494 790.087 740.677 790.693 741.164 790.954C741.651 791.215 742.257 791.031 742.518 790.545L741.636 790.072L740.755 789.6ZM743.962 787.06C744.123 786.532 743.824 785.974 743.295 785.813C742.767 785.653 742.208 785.952 742.048 786.481L743.005 786.771L743.962 787.06ZM742.704 783.167C742.651 783.717 743.053 784.206 743.603 784.259C744.152 784.313 744.641 783.91 744.695 783.361L743.699 783.264L742.704 783.167ZM744.695 779.591C744.641 779.042 744.152 778.639 743.603 778.693C743.053 778.746 742.651 779.235 742.704 779.785L743.699 779.688L744.695 779.591ZM742.048 776.471C742.208 777 742.767 777.299 743.295 777.138C743.824 776.978 744.123 776.42 743.962 775.891L743.005 776.181L742.048 776.471ZM742.518 772.407C742.257 771.92 741.651 771.737 741.164 771.998C740.677 772.259 740.494 772.865 740.755 773.352L741.636 772.879L742.518 772.407ZM738.875 770.544C739.226 770.97 739.856 771.032 740.283 770.682C740.709 770.331 740.771 769.701 740.42 769.274L739.648 769.909L738.875 770.544ZM737.755 766.608C737.328 766.258 736.698 766.32 736.347 766.746C735.997 767.173 736.058 767.803 736.485 768.154L737.12 767.381L737.755 766.608ZM733.677 766.274C734.164 766.535 734.77 766.352 735.031 765.865C735.292 765.378 735.108 764.772 734.622 764.511L734.149 765.393L733.677 766.274ZM731.137 763.066C730.609 762.906 730.051 763.205 729.89 763.734C729.73 764.262 730.029 764.82 730.558 764.981L730.847 764.024L731.137 763.066ZM727.244 764.325C727.794 764.378 728.283 763.976 728.336 763.426C728.39 762.877 727.987 762.388 727.438 762.334L727.341 763.329L727.244 764.325ZM723.495 762.243C722.942 762.243 722.495 762.691 722.495 763.243C722.495 763.795 722.942 764.243 723.495 764.243V763.243V762.243ZM719.378 764.243C719.93 764.243 720.378 763.795 720.378 763.243C720.378 762.691 719.93 762.243 719.378 762.243V763.243V764.243ZM715.261 762.243C714.709 762.243 714.261 762.691 714.261 763.243C714.261 763.795 714.709 764.243 715.261 764.243V763.243V762.243ZM711.144 764.243C711.697 764.243 712.144 763.795 712.144 763.243C712.144 762.691 711.697 762.243 711.144 762.243V763.243V764.243ZM707.028 762.243C706.475 762.243 706.028 762.691 706.028 763.243C706.028 763.795 706.475 764.243 707.028 764.243V763.243V762.243ZM702.911 764.243C703.463 764.243 703.911 763.795 703.911 763.243C703.911 762.691 703.463 762.243 702.911 762.243V763.243V764.243ZM698.794 762.243C698.242 762.243 697.794 762.691 697.794 763.243C697.794 763.795 698.242 764.243 698.794 764.243V763.243V762.243ZM694.677 764.243C695.23 764.243 695.677 763.795 695.677 763.243C695.677 762.691 695.23 762.243 694.677 762.243V763.243V764.243ZM690.561 762.243C690.008 762.243 689.561 762.691 689.561 763.243C689.561 763.795 690.008 764.243 690.561 764.243V763.243V762.243ZM686.444 764.243C686.996 764.243 687.444 763.795 687.444 763.243C687.444 762.691 686.996 762.243 686.444 762.243V763.243V764.243ZM682.327 762.243C681.775 762.243 681.327 762.691 681.327 763.243C681.327 763.795 681.775 764.243 682.327 764.243V763.243V762.243ZM678.21 764.243C678.763 764.243 679.21 763.795 679.21 763.243C679.21 762.691 678.763 762.243 678.21 762.243V763.243V764.243ZM674.094 762.243C673.541 762.243 673.094 762.691 673.094 763.243C673.094 763.795 673.541 764.243 674.094 764.243V763.243V762.243ZM669.977 764.243C670.529 764.243 670.977 763.795 670.977 763.243C670.977 762.691 670.529 762.243 669.977 762.243V763.243V764.243ZM665.86 762.243C665.308 762.243 664.86 762.691 664.86 763.243C664.86 763.795 665.308 764.243 665.86 764.243V763.243V762.243ZM661.743 764.243C662.296 764.243 662.743 763.795 662.743 763.243C662.743 762.691 662.296 762.243 661.743 762.243V763.243V764.243ZM657.627 762.243C657.074 762.243 656.627 762.691 656.627 763.243C656.627 763.795 657.074 764.243 657.627 764.243V763.243V762.243ZM653.51 764.243C654.062 764.243 654.51 763.795 654.51 763.243C654.51 762.691 654.062 762.243 653.51 762.243V763.243V764.243ZM651.452 799.709V800.709H653.51V799.709V798.709H651.452V799.709ZM657.627 799.709V800.709H661.743V799.709V798.709H657.627V799.709ZM665.86 799.709V800.709H669.977V799.709V798.709H665.86V799.709ZM674.094 799.709V800.709H678.21V799.709V798.709H674.094V799.709ZM682.327 799.709V800.709H686.444V799.709V798.709H682.327V799.709ZM690.561 799.709V800.709H694.677V799.709V798.709H690.561V799.709ZM698.794 799.709V800.709H702.911V799.709V798.709H698.794V799.709ZM707.028 799.709V800.709H711.144V799.709V798.709H707.028V799.709ZM715.261 799.709V800.709H719.378V799.709V798.709H715.261V799.709ZM723.495 799.709V800.709H725.553V799.709V798.709H723.495V799.709ZM725.553 799.709V800.709C726.189 800.709 726.817 800.678 727.438 800.618L727.341 799.622L727.244 798.627C726.688 798.681 726.124 798.709 725.553 798.709V799.709ZM730.847 798.928L731.137 799.885C732.354 799.517 733.52 799.031 734.622 798.441L734.149 797.559L733.677 796.678C732.691 797.206 731.647 797.641 730.558 797.971L730.847 798.928ZM737.12 795.571L737.755 796.343C738.728 795.544 739.621 794.651 740.42 793.678L739.648 793.043L738.875 792.408C738.158 793.281 737.358 794.081 736.485 794.798L737.12 795.571ZM741.636 790.072L742.518 790.545C743.108 789.443 743.594 788.277 743.962 787.06L743.005 786.771L742.048 786.481C741.718 787.57 741.283 788.614 740.755 789.6L741.636 790.072ZM743.699 783.264L744.695 783.361C744.755 782.74 744.786 782.112 744.786 781.476H743.786H742.786C742.786 782.047 742.758 782.611 742.704 783.167L743.699 783.264ZM743.786 781.476H744.786C744.786 780.84 744.755 780.212 744.695 779.591L743.699 779.688L742.704 779.785C742.758 780.341 742.786 780.905 742.786 781.476H743.786ZM743.005 776.181L743.962 775.891C743.594 774.675 743.108 773.509 742.518 772.407L741.636 772.879L740.755 773.352C741.283 774.338 741.718 775.382 742.048 776.471L743.005 776.181ZM739.648 769.909L740.42 769.274C739.621 768.301 738.728 767.408 737.755 766.608L737.12 767.381L736.485 768.154C737.358 768.871 738.158 769.671 738.875 770.544L739.648 769.909ZM734.149 765.393L734.622 764.511C733.52 763.921 732.354 763.435 731.137 763.066L730.847 764.024L730.558 764.981C731.647 765.311 732.691 765.746 733.677 766.274L734.149 765.393ZM727.341 763.329L727.438 762.334C726.817 762.274 726.189 762.243 725.553 762.243V763.243V764.243C726.124 764.243 726.688 764.271 727.244 764.325L727.341 763.329ZM725.553 763.243V762.243H723.495V763.243V764.243H725.553V763.243ZM719.378 763.243V762.243H715.261V763.243V764.243H719.378V763.243ZM711.144 763.243V762.243H707.028V763.243V764.243H711.144V763.243ZM702.911 763.243V762.243H698.794V763.243V764.243H702.911V763.243ZM694.677 763.243V762.243H690.561V763.243V764.243H694.677V763.243ZM686.444 763.243V762.243H682.327V763.243V764.243H686.444V763.243ZM678.21 763.243V762.243H674.094V763.243V764.243H678.21V763.243ZM669.977 763.243V762.243H665.86V763.243V764.243H669.977V763.243ZM661.743 763.243V762.243H657.627V763.243V764.243H661.743V763.243ZM653.51 763.243V762.243H651.452V763.243V764.243H653.51V763.243Z" fill="#9DAAF1"/>
<path id="Vector 106" d="M651.452 966.925H650.452V968.925H651.452V967.925V966.925ZM656.785 1004.39C656.785 1001.45 654.397 999.057 651.452 999.057C648.506 999.057 646.118 1001.45 646.118 1004.39C646.118 1007.34 648.506 1009.72 651.452 1009.72C654.397 1009.72 656.785 1007.34 656.785 1004.39ZM653.51 1005.39C654.062 1005.39 654.51 1004.94 654.51 1004.39C654.51 1003.84 654.062 1003.39 653.51 1003.39V1004.39V1005.39ZM657.627 1003.39C657.074 1003.39 656.627 1003.84 656.627 1004.39C656.627 1004.94 657.074 1005.39 657.627 1005.39V1004.39V1003.39ZM661.743 1005.39C662.296 1005.39 662.743 1004.94 662.743 1004.39C662.743 1003.84 662.296 1003.39 661.743 1003.39V1004.39V1005.39ZM665.86 1003.39C665.308 1003.39 664.86 1003.84 664.86 1004.39C664.86 1004.94 665.308 1005.39 665.86 1005.39V1004.39V1003.39ZM669.977 1005.39C670.529 1005.39 670.977 1004.94 670.977 1004.39C670.977 1003.84 670.529 1003.39 669.977 1003.39V1004.39V1005.39ZM674.094 1003.39C673.541 1003.39 673.094 1003.84 673.094 1004.39C673.094 1004.94 673.541 1005.39 674.094 1005.39V1004.39V1003.39ZM678.21 1005.39C678.763 1005.39 679.21 1004.94 679.21 1004.39C679.21 1003.84 678.763 1003.39 678.21 1003.39V1004.39V1005.39ZM682.327 1003.39C681.775 1003.39 681.327 1003.84 681.327 1004.39C681.327 1004.94 681.775 1005.39 682.327 1005.39V1004.39V1003.39ZM686.444 1005.39C686.996 1005.39 687.444 1004.94 687.444 1004.39C687.444 1003.84 686.996 1003.39 686.444 1003.39V1004.39V1005.39ZM690.561 1003.39C690.008 1003.39 689.561 1003.84 689.561 1004.39C689.561 1004.94 690.008 1005.39 690.561 1005.39V1004.39V1003.39ZM694.677 1005.39C695.23 1005.39 695.677 1004.94 695.677 1004.39C695.677 1003.84 695.23 1003.39 694.677 1003.39V1004.39V1005.39ZM698.794 1003.39C698.242 1003.39 697.794 1003.84 697.794 1004.39C697.794 1004.94 698.242 1005.39 698.794 1005.39V1004.39V1003.39ZM702.911 1005.39C703.463 1005.39 703.911 1004.94 703.911 1004.39C703.911 1003.84 703.463 1003.39 702.911 1003.39V1004.39V1005.39ZM707.028 1003.39C706.475 1003.39 706.028 1003.84 706.028 1004.39C706.028 1004.94 706.475 1005.39 707.028 1005.39V1004.39V1003.39ZM711.144 1005.39C711.697 1005.39 712.144 1004.94 712.144 1004.39C712.144 1003.84 711.697 1003.39 711.144 1003.39V1004.39V1005.39ZM715.261 1003.39C714.709 1003.39 714.261 1003.84 714.261 1004.39C714.261 1004.94 714.709 1005.39 715.261 1005.39V1004.39V1003.39ZM719.378 1005.39C719.93 1005.39 720.378 1004.94 720.378 1004.39C720.378 1003.84 719.93 1003.39 719.378 1003.39V1004.39V1005.39ZM723.495 1003.39C722.942 1003.39 722.495 1003.84 722.495 1004.39C722.495 1004.94 722.942 1005.39 723.495 1005.39V1004.39V1003.39ZM727.438 1005.3C727.987 1005.25 728.39 1004.76 728.336 1004.21C728.283 1003.66 727.794 1003.26 727.244 1003.31L727.341 1004.3L727.438 1005.3ZM730.558 1002.65C730.029 1002.81 729.73 1003.37 729.89 1003.9C730.051 1004.43 730.609 1004.73 731.137 1004.57L730.847 1003.61L730.558 1002.65ZM734.622 1003.12C735.108 1002.86 735.292 1002.26 735.031 1001.77C734.77 1001.28 734.164 1001.1 733.677 1001.36L734.149 1002.24L734.622 1003.12ZM736.485 999.48C736.058 999.83 735.997 1000.46 736.347 1000.89C736.698 1001.31 737.328 1001.38 737.755 1001.03L737.12 1000.25L736.485 999.48ZM740.42 998.36C740.771 997.933 740.709 997.303 740.283 996.952C739.856 996.601 739.226 996.663 738.875 997.09L739.648 997.725L740.42 998.36ZM740.755 994.282C740.494 994.769 740.677 995.375 741.164 995.636C741.651 995.896 742.257 995.713 742.518 995.226L741.636 994.754L740.755 994.282ZM743.962 991.742C744.123 991.214 743.824 990.655 743.295 990.495C742.767 990.335 742.208 990.634 742.048 991.162L743.005 991.452L743.962 991.742ZM742.704 987.849C742.651 988.398 743.053 988.887 743.603 988.941C744.152 988.994 744.641 988.592 744.695 988.042L743.699 987.945L742.704 987.849ZM744.695 984.273C744.641 983.723 744.152 983.321 743.603 983.374C743.053 983.428 742.651 983.917 742.704 984.467L743.699 984.37L744.695 984.273ZM742.048 981.153C742.208 981.682 742.767 981.98 743.295 981.82C743.824 981.66 744.123 981.102 743.962 980.573L743.005 980.863L742.048 981.153ZM742.518 977.089C742.257 976.602 741.651 976.419 741.164 976.68C740.677 976.94 740.494 977.546 740.755 978.033L741.636 977.561L742.518 977.089ZM738.875 975.225C739.226 975.652 739.856 975.714 740.283 975.363C740.709 975.013 740.771 974.382 740.42 973.956L739.648 974.591L738.875 975.225ZM737.755 971.29C737.328 970.939 736.698 971.001 736.347 971.428C735.997 971.855 736.058 972.485 736.485 972.835L737.12 972.063L737.755 971.29ZM733.677 970.956C734.164 971.217 734.77 971.033 735.031 970.546C735.292 970.06 735.108 969.454 734.622 969.193L734.149 970.074L733.677 970.956ZM731.137 967.748C730.609 967.588 730.051 967.887 729.89 968.415C729.73 968.944 730.029 969.502 730.558 969.662L730.847 968.705L731.137 967.748ZM727.244 969.006C727.794 969.06 728.283 968.658 728.336 968.108C728.39 967.558 727.987 967.069 727.438 967.016L727.341 968.011L727.244 969.006ZM723.495 966.925C722.942 966.925 722.495 967.372 722.495 967.925C722.495 968.477 722.942 968.925 723.495 968.925V967.925V966.925ZM719.378 968.925C719.93 968.925 720.378 968.477 720.378 967.925C720.378 967.372 719.93 966.925 719.378 966.925V967.925V968.925ZM715.261 966.925C714.709 966.925 714.261 967.372 714.261 967.925C714.261 968.477 714.709 968.925 715.261 968.925V967.925V966.925ZM711.144 968.925C711.697 968.925 712.144 968.477 712.144 967.925C712.144 967.372 711.697 966.925 711.144 966.925V967.925V968.925ZM707.028 966.925C706.475 966.925 706.028 967.372 706.028 967.925C706.028 968.477 706.475 968.925 707.028 968.925V967.925V966.925ZM702.911 968.925C703.463 968.925 703.911 968.477 703.911 967.925C703.911 967.372 703.463 966.925 702.911 966.925V967.925V968.925ZM698.794 966.925C698.242 966.925 697.794 967.372 697.794 967.925C697.794 968.477 698.242 968.925 698.794 968.925V967.925V966.925ZM694.677 968.925C695.23 968.925 695.677 968.477 695.677 967.925C695.677 967.372 695.23 966.925 694.677 966.925V967.925V968.925ZM690.561 966.925C690.008 966.925 689.561 967.372 689.561 967.925C689.561 968.477 690.008 968.925 690.561 968.925V967.925V966.925ZM686.444 968.925C686.996 968.925 687.444 968.477 687.444 967.925C687.444 967.372 686.996 966.925 686.444 966.925V967.925V968.925ZM682.327 966.925C681.775 966.925 681.327 967.372 681.327 967.925C681.327 968.477 681.775 968.925 682.327 968.925V967.925V966.925ZM678.21 968.925C678.763 968.925 679.21 968.477 679.21 967.925C679.21 967.372 678.763 966.925 678.21 966.925V967.925V968.925ZM674.094 966.925C673.541 966.925 673.094 967.372 673.094 967.925C673.094 968.477 673.541 968.925 674.094 968.925V967.925V966.925ZM669.977 968.925C670.529 968.925 670.977 968.477 670.977 967.925C670.977 967.372 670.529 966.925 669.977 966.925V967.925V968.925ZM665.86 966.925C665.308 966.925 664.86 967.372 664.86 967.925C664.86 968.477 665.308 968.925 665.86 968.925V967.925V966.925ZM661.743 968.925C662.296 968.925 662.743 968.477 662.743 967.925C662.743 967.372 662.296 966.925 661.743 966.925V967.925V968.925ZM657.627 966.925C657.074 966.925 656.627 967.372 656.627 967.925C656.627 968.477 657.074 968.925 657.627 968.925V967.925V966.925ZM653.51 968.925C654.062 968.925 654.51 968.477 654.51 967.925C654.51 967.372 654.062 966.925 653.51 966.925V967.925V968.925ZM651.452 1004.39V1005.39H653.51V1004.39V1003.39H651.452V1004.39ZM657.627 1004.39V1005.39H661.743V1004.39V1003.39H657.627V1004.39ZM665.86 1004.39V1005.39H669.977V1004.39V1003.39H665.86V1004.39ZM674.094 1004.39V1005.39H678.21V1004.39V1003.39H674.094V1004.39ZM682.327 1004.39V1005.39H686.444V1004.39V1003.39H682.327V1004.39ZM690.561 1004.39V1005.39H694.677V1004.39V1003.39H690.561V1004.39ZM698.794 1004.39V1005.39H702.911V1004.39V1003.39H698.794V1004.39ZM707.028 1004.39V1005.39H711.144V1004.39V1003.39H707.028V1004.39ZM715.261 1004.39V1005.39H719.378V1004.39V1003.39H715.261V1004.39ZM723.495 1004.39V1005.39H725.553V1004.39V1003.39H723.495V1004.39ZM725.553 1004.39V1005.39C726.189 1005.39 726.817 1005.36 727.438 1005.3L727.341 1004.3L727.244 1003.31C726.688 1003.36 726.124 1003.39 725.553 1003.39V1004.39ZM730.847 1003.61L731.137 1004.57C732.354 1004.2 733.52 1003.71 734.622 1003.12L734.149 1002.24L733.677 1001.36C732.691 1001.89 731.647 1002.32 730.558 1002.65L730.847 1003.61ZM737.12 1000.25L737.755 1001.03C738.728 1000.23 739.621 999.333 740.42 998.36L739.648 997.725L738.875 997.09C738.158 997.962 737.358 998.763 736.485 999.48L737.12 1000.25ZM741.636 994.754L742.518 995.226C743.108 994.125 743.594 992.959 743.962 991.742L743.005 991.452L742.048 991.162C741.718 992.252 741.283 993.295 740.755 994.282L741.636 994.754ZM743.699 987.945L744.695 988.042C744.755 987.422 744.786 986.793 744.786 986.158H743.786H742.786C742.786 986.728 742.758 987.293 742.704 987.849L743.699 987.945ZM743.786 986.158H744.786C744.786 985.522 744.755 984.893 744.695 984.273L743.699 984.37L742.704 984.467C742.758 985.023 742.786 985.587 742.786 986.158H743.786ZM743.005 980.863L743.962 980.573C743.594 979.356 743.108 978.19 742.518 977.089L741.636 977.561L740.755 978.033C741.283 979.02 741.718 980.064 742.048 981.153L743.005 980.863ZM739.648 974.591L740.42 973.956C739.621 972.983 738.728 972.09 737.755 971.29L737.12 972.063L736.485 972.835C737.358 973.552 738.158 974.353 738.875 975.225L739.648 974.591ZM734.149 970.074L734.622 969.193C733.52 968.603 732.354 968.117 731.137 967.748L730.847 968.705L730.558 969.662C731.647 969.992 732.691 970.427 733.677 970.956L734.149 970.074ZM727.341 968.011L727.438 967.016C726.817 966.955 726.189 966.925 725.553 966.925V967.925V968.925C726.124 968.925 726.688 968.952 727.244 969.006L727.341 968.011ZM725.553 967.925V966.925H723.495V967.925V968.925H725.553V967.925ZM719.378 967.925V966.925H715.261V967.925V968.925H719.378V967.925ZM711.144 967.925V966.925H707.028V967.925V968.925H711.144V967.925ZM702.911 967.925V966.925H698.794V967.925V968.925H702.911V967.925ZM694.677 967.925V966.925H690.561V967.925V968.925H694.677V967.925ZM686.444 967.925V966.925H682.327V967.925V968.925H686.444V967.925ZM678.21 967.925V966.925H674.094V967.925V968.925H678.21V967.925ZM669.977 967.925V966.925H665.86V967.925V968.925H669.977V967.925ZM661.743 967.925V966.925H657.627V967.925V968.925H661.743V967.925ZM653.51 967.925V966.925H651.452V967.925V968.925H653.51V967.925Z" fill="#9DAAF1"/>
<path id="Vector 107" d="M651.452 1033.63H650.452V1035.63H651.452V1034.63V1033.63ZM656.785 1071.1C656.785 1068.15 654.397 1065.77 651.452 1065.77C648.506 1065.77 646.118 1068.15 646.118 1071.1C646.118 1074.04 648.506 1076.43 651.452 1076.43C654.397 1076.43 656.785 1074.04 656.785 1071.1ZM653.51 1072.1C654.062 1072.1 654.51 1071.65 654.51 1071.1C654.51 1070.55 654.062 1070.1 653.51 1070.1V1071.1V1072.1ZM657.627 1070.1C657.074 1070.1 656.627 1070.55 656.627 1071.1C656.627 1071.65 657.074 1072.1 657.627 1072.1V1071.1V1070.1ZM661.743 1072.1C662.296 1072.1 662.743 1071.65 662.743 1071.1C662.743 1070.55 662.296 1070.1 661.743 1070.1V1071.1V1072.1ZM665.86 1070.1C665.308 1070.1 664.86 1070.55 664.86 1071.1C664.86 1071.65 665.308 1072.1 665.86 1072.1V1071.1V1070.1ZM669.977 1072.1C670.529 1072.1 670.977 1071.65 670.977 1071.1C670.977 1070.55 670.529 1070.1 669.977 1070.1V1071.1V1072.1ZM674.094 1070.1C673.541 1070.1 673.094 1070.55 673.094 1071.1C673.094 1071.65 673.541 1072.1 674.094 1072.1V1071.1V1070.1ZM678.21 1072.1C678.763 1072.1 679.21 1071.65 679.21 1071.1C679.21 1070.55 678.763 1070.1 678.21 1070.1V1071.1V1072.1ZM682.327 1070.1C681.775 1070.1 681.327 1070.55 681.327 1071.1C681.327 1071.65 681.775 1072.1 682.327 1072.1V1071.1V1070.1ZM686.444 1072.1C686.996 1072.1 687.444 1071.65 687.444 1071.1C687.444 1070.55 686.996 1070.1 686.444 1070.1V1071.1V1072.1ZM690.561 1070.1C690.008 1070.1 689.561 1070.55 689.561 1071.1C689.561 1071.65 690.008 1072.1 690.561 1072.1V1071.1V1070.1ZM694.677 1072.1C695.23 1072.1 695.677 1071.65 695.677 1071.1C695.677 1070.55 695.23 1070.1 694.677 1070.1V1071.1V1072.1ZM698.794 1070.1C698.242 1070.1 697.794 1070.55 697.794 1071.1C697.794 1071.65 698.242 1072.1 698.794 1072.1V1071.1V1070.1ZM702.911 1072.1C703.463 1072.1 703.911 1071.65 703.911 1071.1C703.911 1070.55 703.463 1070.1 702.911 1070.1V1071.1V1072.1ZM707.028 1070.1C706.475 1070.1 706.028 1070.55 706.028 1071.1C706.028 1071.65 706.475 1072.1 707.028 1072.1V1071.1V1070.1ZM711.144 1072.1C711.697 1072.1 712.144 1071.65 712.144 1071.1C712.144 1070.55 711.697 1070.1 711.144 1070.1V1071.1V1072.1ZM715.261 1070.1C714.709 1070.1 714.261 1070.55 714.261 1071.1C714.261 1071.65 714.709 1072.1 715.261 1072.1V1071.1V1070.1ZM719.378 1072.1C719.93 1072.1 720.378 1071.65 720.378 1071.1C720.378 1070.55 719.93 1070.1 719.378 1070.1V1071.1V1072.1ZM723.495 1070.1C722.942 1070.1 722.495 1070.55 722.495 1071.1C722.495 1071.65 722.942 1072.1 723.495 1072.1V1071.1V1070.1ZM727.438 1072.01C727.987 1071.95 728.39 1071.46 728.336 1070.92C728.283 1070.37 727.794 1069.96 727.244 1070.02L727.341 1071.01L727.438 1072.01ZM730.558 1069.36C730.029 1069.52 729.73 1070.08 729.89 1070.61C730.051 1071.14 730.609 1071.44 731.137 1071.28L730.847 1070.32L730.558 1069.36ZM734.622 1069.83C735.108 1069.57 735.292 1068.96 735.031 1068.48C734.77 1067.99 734.164 1067.81 733.677 1068.07L734.149 1068.95L734.622 1069.83ZM736.485 1066.19C736.058 1066.54 735.997 1067.17 736.347 1067.6C736.698 1068.02 737.328 1068.08 737.755 1067.73L737.12 1066.96L736.485 1066.19ZM740.42 1065.07C740.771 1064.64 740.709 1064.01 740.283 1063.66C739.856 1063.31 739.226 1063.37 738.875 1063.8L739.648 1064.43L740.42 1065.07ZM740.755 1060.99C740.494 1061.48 740.677 1062.08 741.164 1062.34C741.651 1062.6 742.257 1062.42 742.518 1061.93L741.636 1061.46L740.755 1060.99ZM743.962 1058.45C744.123 1057.92 743.824 1057.36 743.295 1057.2C742.767 1057.04 742.208 1057.34 742.048 1057.87L743.005 1058.16L743.962 1058.45ZM742.704 1054.56C742.651 1055.11 743.053 1055.6 743.603 1055.65C744.152 1055.7 744.641 1055.3 744.695 1054.75L743.699 1054.65L742.704 1054.56ZM744.695 1050.98C744.641 1050.43 744.152 1050.03 743.603 1050.08C743.053 1050.14 742.651 1050.62 742.704 1051.17L743.699 1051.08L744.695 1050.98ZM742.048 1047.86C742.208 1048.39 742.767 1048.69 743.295 1048.53C743.824 1048.37 744.123 1047.81 743.962 1047.28L743.005 1047.57L742.048 1047.86ZM742.518 1043.8C742.257 1043.31 741.651 1043.13 741.164 1043.39C740.677 1043.65 740.494 1044.25 740.755 1044.74L741.636 1044.27L742.518 1043.8ZM738.875 1041.93C739.226 1042.36 739.856 1042.42 740.283 1042.07C740.709 1041.72 740.771 1041.09 740.42 1040.66L739.648 1041.3L738.875 1041.93ZM737.755 1038C737.328 1037.65 736.698 1037.71 736.347 1038.14C735.997 1038.56 736.058 1039.19 736.485 1039.54L737.12 1038.77L737.755 1038ZM733.677 1037.66C734.164 1037.92 734.77 1037.74 735.031 1037.25C735.292 1036.77 735.108 1036.16 734.622 1035.9L734.149 1036.78L733.677 1037.66ZM731.137 1034.46C730.609 1034.3 730.051 1034.59 729.89 1035.12C729.73 1035.65 730.029 1036.21 730.558 1036.37L730.847 1035.41L731.137 1034.46ZM727.244 1035.71C727.794 1035.77 728.283 1035.37 728.336 1034.82C728.39 1034.27 727.987 1033.78 727.438 1033.72L727.341 1034.72L727.244 1035.71ZM723.495 1033.63C722.942 1033.63 722.495 1034.08 722.495 1034.63C722.495 1035.18 722.942 1035.63 723.495 1035.63V1034.63V1033.63ZM719.378 1035.63C719.93 1035.63 720.378 1035.18 720.378 1034.63C720.378 1034.08 719.93 1033.63 719.378 1033.63V1034.63V1035.63ZM715.261 1033.63C714.709 1033.63 714.261 1034.08 714.261 1034.63C714.261 1035.18 714.709 1035.63 715.261 1035.63V1034.63V1033.63ZM711.144 1035.63C711.697 1035.63 712.144 1035.18 712.144 1034.63C712.144 1034.08 711.697 1033.63 711.144 1033.63V1034.63V1035.63ZM707.028 1033.63C706.475 1033.63 706.028 1034.08 706.028 1034.63C706.028 1035.18 706.475 1035.63 707.028 1035.63V1034.63V1033.63ZM702.911 1035.63C703.463 1035.63 703.911 1035.18 703.911 1034.63C703.911 1034.08 703.463 1033.63 702.911 1033.63V1034.63V1035.63ZM698.794 1033.63C698.242 1033.63 697.794 1034.08 697.794 1034.63C697.794 1035.18 698.242 1035.63 698.794 1035.63V1034.63V1033.63ZM694.677 1035.63C695.23 1035.63 695.677 1035.18 695.677 1034.63C695.677 1034.08 695.23 1033.63 694.677 1033.63V1034.63V1035.63ZM690.561 1033.63C690.008 1033.63 689.561 1034.08 689.561 1034.63C689.561 1035.18 690.008 1035.63 690.561 1035.63V1034.63V1033.63ZM686.444 1035.63C686.996 1035.63 687.444 1035.18 687.444 1034.63C687.444 1034.08 686.996 1033.63 686.444 1033.63V1034.63V1035.63ZM682.327 1033.63C681.775 1033.63 681.327 1034.08 681.327 1034.63C681.327 1035.18 681.775 1035.63 682.327 1035.63V1034.63V1033.63ZM678.21 1035.63C678.763 1035.63 679.21 1035.18 679.21 1034.63C679.21 1034.08 678.763 1033.63 678.21 1033.63V1034.63V1035.63ZM674.094 1033.63C673.541 1033.63 673.094 1034.08 673.094 1034.63C673.094 1035.18 673.541 1035.63 674.094 1035.63V1034.63V1033.63ZM669.977 1035.63C670.529 1035.63 670.977 1035.18 670.977 1034.63C670.977 1034.08 670.529 1033.63 669.977 1033.63V1034.63V1035.63ZM665.86 1033.63C665.308 1033.63 664.86 1034.08 664.86 1034.63C664.86 1035.18 665.308 1035.63 665.86 1035.63V1034.63V1033.63ZM661.743 1035.63C662.296 1035.63 662.743 1035.18 662.743 1034.63C662.743 1034.08 662.296 1033.63 661.743 1033.63V1034.63V1035.63ZM657.627 1033.63C657.074 1033.63 656.627 1034.08 656.627 1034.63C656.627 1035.18 657.074 1035.63 657.627 1035.63V1034.63V1033.63ZM653.51 1035.63C654.062 1035.63 654.51 1035.18 654.51 1034.63C654.51 1034.08 654.062 1033.63 653.51 1033.63V1034.63V1035.63ZM651.452 1071.1V1072.1H653.51V1071.1V1070.1H651.452V1071.1ZM657.627 1071.1V1072.1H661.743V1071.1V1070.1H657.627V1071.1ZM665.86 1071.1V1072.1H669.977V1071.1V1070.1H665.86V1071.1ZM674.094 1071.1V1072.1H678.21V1071.1V1070.1H674.094V1071.1ZM682.327 1071.1V1072.1H686.444V1071.1V1070.1H682.327V1071.1ZM690.561 1071.1V1072.1H694.677V1071.1V1070.1H690.561V1071.1ZM698.794 1071.1V1072.1H702.911V1071.1V1070.1H698.794V1071.1ZM707.028 1071.1V1072.1H711.144V1071.1V1070.1H707.028V1071.1ZM715.261 1071.1V1072.1H719.378V1071.1V1070.1H715.261V1071.1ZM723.495 1071.1V1072.1H725.553V1071.1V1070.1H723.495V1071.1ZM725.553 1071.1V1072.1C726.189 1072.1 726.817 1072.07 727.438 1072.01L727.341 1071.01L727.244 1070.02C726.688 1070.07 726.124 1070.1 725.553 1070.1V1071.1ZM730.847 1070.32L731.137 1071.28C732.354 1070.91 733.52 1070.42 734.622 1069.83L734.149 1068.95L733.677 1068.07C732.691 1068.6 731.647 1069.03 730.558 1069.36L730.847 1070.32ZM737.12 1066.96L737.755 1067.73C738.728 1066.93 739.621 1066.04 740.42 1065.07L739.648 1064.43L738.875 1063.8C738.158 1064.67 737.358 1065.47 736.485 1066.19L737.12 1066.96ZM741.636 1061.46L742.518 1061.93C743.108 1060.83 743.594 1059.67 743.962 1058.45L743.005 1058.16L742.048 1057.87C741.718 1058.96 741.283 1060 740.755 1060.99L741.636 1061.46ZM743.699 1054.65L744.695 1054.75C744.755 1054.13 744.786 1053.5 744.786 1052.87H743.786H742.786C742.786 1053.44 742.758 1054 742.704 1054.56L743.699 1054.65ZM743.786 1052.87H744.786C744.786 1052.23 744.755 1051.6 744.695 1050.98L743.699 1051.08L742.704 1051.17C742.758 1051.73 742.786 1052.29 742.786 1052.87H743.786ZM743.005 1047.57L743.962 1047.28C743.594 1046.06 743.108 1044.9 742.518 1043.8L741.636 1044.27L740.755 1044.74C741.283 1045.73 741.718 1046.77 742.048 1047.86L743.005 1047.57ZM739.648 1041.3L740.42 1040.66C739.621 1039.69 738.728 1038.8 737.755 1038L737.12 1038.77L736.485 1039.54C737.358 1040.26 738.158 1041.06 738.875 1041.93L739.648 1041.3ZM734.149 1036.78L734.622 1035.9C733.52 1035.31 732.354 1034.82 731.137 1034.46L730.847 1035.41L730.558 1036.37C731.647 1036.7 732.691 1037.14 733.677 1037.66L734.149 1036.78ZM727.341 1034.72L727.438 1033.72C726.817 1033.66 726.189 1033.63 725.553 1033.63V1034.63V1035.63C726.124 1035.63 726.688 1035.66 727.244 1035.71L727.341 1034.72ZM725.553 1034.63V1033.63H723.495V1034.63V1035.63H725.553V1034.63ZM719.378 1034.63V1033.63H715.261V1034.63V1035.63H719.378V1034.63ZM711.144 1034.63V1033.63H707.028V1034.63V1035.63H711.144V1034.63ZM702.911 1034.63V1033.63H698.794V1034.63V1035.63H702.911V1034.63ZM694.677 1034.63V1033.63H690.561V1034.63V1035.63H694.677V1034.63ZM686.444 1034.63V1033.63H682.327V1034.63V1035.63H686.444V1034.63ZM678.21 1034.63V1033.63H674.094V1034.63V1035.63H678.21V1034.63ZM669.977 1034.63V1033.63H665.86V1034.63V1035.63H669.977V1034.63ZM661.743 1034.63V1033.63H657.627V1034.63V1035.63H661.743V1034.63ZM653.51 1034.63V1033.63H651.452V1034.63V1035.63H653.51V1034.63Z" fill="#9DAAF1"/>
<path id="Vector 108" d="M657.434 1108.65H656.434V1110.65H657.434V1109.65V1108.65ZM662.767 1146.11C662.767 1143.17 660.379 1140.78 657.434 1140.78C654.488 1140.78 652.1 1143.17 652.1 1146.11C652.1 1149.06 654.488 1151.45 657.434 1151.45C660.379 1151.45 662.767 1149.06 662.767 1146.11ZM659.492 1147.11C660.044 1147.11 660.492 1146.67 660.492 1146.11C660.492 1145.56 660.044 1145.11 659.492 1145.11V1146.11V1147.11ZM663.609 1145.11C663.057 1145.11 662.609 1145.56 662.609 1146.11C662.609 1146.67 663.057 1147.11 663.609 1147.11V1146.11V1145.11ZM667.726 1147.11C668.278 1147.11 668.726 1146.67 668.726 1146.11C668.726 1145.56 668.278 1145.11 667.726 1145.11V1146.11V1147.11ZM671.842 1145.11C671.29 1145.11 670.842 1145.56 670.842 1146.11C670.842 1146.67 671.29 1147.11 671.842 1147.11V1146.11V1145.11ZM675.959 1147.11C676.511 1147.11 676.959 1146.67 676.959 1146.11C676.959 1145.56 676.511 1145.11 675.959 1145.11V1146.11V1147.11ZM680.076 1145.11C679.523 1145.11 679.076 1145.56 679.076 1146.11C679.076 1146.67 679.523 1147.11 680.076 1147.11V1146.11V1145.11ZM684.193 1147.11C684.745 1147.11 685.193 1146.67 685.193 1146.11C685.193 1145.56 684.745 1145.11 684.193 1145.11V1146.11V1147.11ZM688.309 1145.11C687.757 1145.11 687.309 1145.56 687.309 1146.11C687.309 1146.67 687.757 1147.11 688.309 1147.11V1146.11V1145.11ZM692.426 1147.11C692.978 1147.11 693.426 1146.67 693.426 1146.11C693.426 1145.56 692.978 1145.11 692.426 1145.11V1146.11V1147.11ZM696.543 1145.11C695.99 1145.11 695.543 1145.56 695.543 1146.11C695.543 1146.67 695.99 1147.11 696.543 1147.11V1146.11V1145.11ZM700.659 1147.11C701.212 1147.11 701.659 1146.67 701.659 1146.11C701.659 1145.56 701.212 1145.11 700.659 1145.11V1146.11V1147.11ZM704.776 1145.11C704.224 1145.11 703.776 1145.56 703.776 1146.11C703.776 1146.67 704.224 1147.11 704.776 1147.11V1146.11V1145.11ZM708.893 1147.11C709.445 1147.11 709.893 1146.67 709.893 1146.11C709.893 1145.56 709.445 1145.11 708.893 1145.11V1146.11V1147.11ZM713.01 1145.11C712.457 1145.11 712.01 1145.56 712.01 1146.11C712.01 1146.67 712.457 1147.11 713.01 1147.11V1146.11V1145.11ZM717.126 1147.11C717.679 1147.11 718.126 1146.67 718.126 1146.11C718.126 1145.56 717.679 1145.11 717.126 1145.11V1146.11V1147.11ZM721.243 1145.11C720.691 1145.11 720.243 1145.56 720.243 1146.11C720.243 1146.67 720.691 1147.11 721.243 1147.11V1146.11V1145.11ZM725.36 1147.11C725.912 1147.11 726.36 1146.67 726.36 1146.11C726.36 1145.56 725.912 1145.11 725.36 1145.11V1146.11V1147.11ZM729.477 1145.11C728.924 1145.11 728.477 1145.56 728.477 1146.11C728.477 1146.67 728.924 1147.11 729.477 1147.11V1146.11V1145.11ZM733.42 1147.02C733.969 1146.97 734.372 1146.48 734.318 1145.93C734.265 1145.38 733.776 1144.98 733.226 1145.03L733.323 1146.03L733.42 1147.02ZM736.54 1144.38C736.011 1144.54 735.712 1145.1 735.873 1145.62C736.033 1146.15 736.591 1146.45 737.12 1146.29L736.83 1145.33L736.54 1144.38ZM740.604 1144.85C741.091 1144.59 741.274 1143.98 741.013 1143.49C740.752 1143.01 740.146 1142.82 739.659 1143.08L740.132 1143.96L740.604 1144.85ZM742.467 1141.2C742.041 1141.55 741.979 1142.18 742.329 1142.61C742.68 1143.04 743.31 1143.1 743.737 1142.75L743.102 1141.98L742.467 1141.2ZM746.403 1140.08C746.753 1139.66 746.691 1139.03 746.265 1138.68C745.838 1138.33 745.208 1138.39 744.857 1138.81L745.63 1139.45L746.403 1140.08ZM746.737 1136.01C746.476 1136.49 746.659 1137.1 747.146 1137.36C747.633 1137.62 748.239 1137.44 748.5 1136.95L747.618 1136.48L746.737 1136.01ZM749.944 1133.47C750.105 1132.94 749.806 1132.38 749.277 1132.22C748.749 1132.06 748.191 1132.36 748.03 1132.89L748.987 1133.18L749.944 1133.47ZM748.686 1129.57C748.633 1130.12 749.035 1130.61 749.585 1130.66C750.134 1130.72 750.623 1130.32 750.677 1129.77L749.682 1129.67L748.686 1129.57ZM750.677 1126C750.623 1125.45 750.134 1125.04 749.585 1125.1C749.035 1125.15 748.633 1125.64 748.686 1126.19L749.682 1126.09L750.677 1126ZM748.03 1122.88C748.191 1123.41 748.749 1123.7 749.277 1123.54C749.806 1123.38 750.105 1122.83 749.944 1122.3L748.987 1122.59L748.03 1122.88ZM748.5 1118.81C748.239 1118.33 747.633 1118.14 747.146 1118.4C746.659 1118.66 746.476 1119.27 746.737 1119.76L747.618 1119.28L748.5 1118.81ZM744.857 1116.95C745.208 1117.38 745.838 1117.44 746.265 1117.09C746.691 1116.74 746.753 1116.11 746.403 1115.68L745.63 1116.31L744.857 1116.95ZM743.737 1113.01C743.31 1112.66 742.68 1112.72 742.329 1113.15C741.979 1113.58 742.041 1114.21 742.467 1114.56L743.102 1113.79L743.737 1113.01ZM739.659 1112.68C740.146 1112.94 740.752 1112.76 741.013 1112.27C741.274 1111.78 741.091 1111.18 740.604 1110.92L740.132 1111.8L739.659 1112.68ZM737.12 1109.47C736.591 1109.31 736.033 1109.61 735.873 1110.14C735.712 1110.67 736.011 1111.23 736.54 1111.39L736.83 1110.43L737.12 1109.47ZM733.226 1110.73C733.776 1110.78 734.265 1110.38 734.318 1109.83C734.372 1109.28 733.969 1108.79 733.42 1108.74L733.323 1109.73L733.226 1110.73ZM729.477 1108.65C728.924 1108.65 728.477 1109.1 728.477 1109.65C728.477 1110.2 728.924 1110.65 729.477 1110.65V1109.65V1108.65ZM725.36 1110.65C725.912 1110.65 726.36 1110.2 726.36 1109.65C726.36 1109.1 725.912 1108.65 725.36 1108.65V1109.65V1110.65ZM721.243 1108.65C720.691 1108.65 720.243 1109.1 720.243 1109.65C720.243 1110.2 720.691 1110.65 721.243 1110.65V1109.65V1108.65ZM717.126 1110.65C717.679 1110.65 718.126 1110.2 718.126 1109.65C718.126 1109.1 717.679 1108.65 717.126 1108.65V1109.65V1110.65ZM713.01 1108.65C712.457 1108.65 712.01 1109.1 712.01 1109.65C712.01 1110.2 712.457 1110.65 713.01 1110.65V1109.65V1108.65ZM708.893 1110.65C709.445 1110.65 709.893 1110.2 709.893 1109.65C709.893 1109.1 709.445 1108.65 708.893 1108.65V1109.65V1110.65ZM704.776 1108.65C704.224 1108.65 703.776 1109.1 703.776 1109.65C703.776 1110.2 704.224 1110.65 704.776 1110.65V1109.65V1108.65ZM700.659 1110.65C701.212 1110.65 701.659 1110.2 701.659 1109.65C701.659 1109.1 701.212 1108.65 700.659 1108.65V1109.65V1110.65ZM696.543 1108.65C695.99 1108.65 695.543 1109.1 695.543 1109.65C695.543 1110.2 695.99 1110.65 696.543 1110.65V1109.65V1108.65ZM692.426 1110.65C692.978 1110.65 693.426 1110.2 693.426 1109.65C693.426 1109.1 692.978 1108.65 692.426 1108.65V1109.65V1110.65ZM688.309 1108.65C687.757 1108.65 687.309 1109.1 687.309 1109.65C687.309 1110.2 687.757 1110.65 688.309 1110.65V1109.65V1108.65ZM684.193 1110.65C684.745 1110.65 685.193 1110.2 685.193 1109.65C685.193 1109.1 684.745 1108.65 684.193 1108.65V1109.65V1110.65ZM680.076 1108.65C679.523 1108.65 679.076 1109.1 679.076 1109.65C679.076 1110.2 679.523 1110.65 680.076 1110.65V1109.65V1108.65ZM675.959 1110.65C676.511 1110.65 676.959 1110.2 676.959 1109.65C676.959 1109.1 676.511 1108.65 675.959 1108.65V1109.65V1110.65ZM671.842 1108.65C671.29 1108.65 670.842 1109.1 670.842 1109.65C670.842 1110.2 671.29 1110.65 671.842 1110.65V1109.65V1108.65ZM667.726 1110.65C668.278 1110.65 668.726 1110.2 668.726 1109.65C668.726 1109.1 668.278 1108.65 667.726 1108.65V1109.65V1110.65ZM663.609 1108.65C663.057 1108.65 662.609 1109.1 662.609 1109.65C662.609 1110.2 663.057 1110.65 663.609 1110.65V1109.65V1108.65ZM659.492 1110.65C660.044 1110.65 660.492 1110.2 660.492 1109.65C660.492 1109.1 660.044 1108.65 659.492 1108.65V1109.65V1110.65ZM657.434 1146.11V1147.11H659.492V1146.11V1145.11H657.434V1146.11ZM663.609 1146.11V1147.11H667.726V1146.11V1145.11H663.609V1146.11ZM671.842 1146.11V1147.11H675.959V1146.11V1145.11H671.842V1146.11ZM680.076 1146.11V1147.11H684.193V1146.11V1145.11H680.076V1146.11ZM688.309 1146.11V1147.11H692.426V1146.11V1145.11H688.309V1146.11ZM696.543 1146.11V1147.11H700.659V1146.11V1145.11H696.543V1146.11ZM704.776 1146.11V1147.11H708.893V1146.11V1145.11H704.776V1146.11ZM713.01 1146.11V1147.11H717.126V1146.11V1145.11H713.01V1146.11ZM721.243 1146.11V1147.11H725.36V1146.11V1145.11H721.243V1146.11ZM729.477 1146.11V1147.11H731.535V1146.11V1145.11H729.477V1146.11ZM731.535 1146.11V1147.11C732.171 1147.11 732.799 1147.08 733.42 1147.02L733.323 1146.03L733.226 1145.03C732.67 1145.09 732.106 1145.11 731.535 1145.11V1146.11ZM736.83 1145.33L737.12 1146.29C738.336 1145.92 739.502 1145.44 740.604 1144.85L740.132 1143.96L739.659 1143.08C738.673 1143.61 737.629 1144.05 736.54 1144.38L736.83 1145.33ZM743.102 1141.98L743.737 1142.75C744.71 1141.95 745.603 1141.06 746.403 1140.08L745.63 1139.45L744.857 1138.81C744.14 1139.69 743.34 1140.49 742.467 1141.2L743.102 1141.98ZM747.618 1136.48L748.5 1136.95C749.09 1135.85 749.576 1134.68 749.944 1133.47L748.987 1133.18L748.03 1132.89C747.7 1133.98 747.265 1135.02 746.737 1136.01L747.618 1136.48ZM749.682 1129.67L750.677 1129.77C750.737 1129.15 750.768 1128.52 750.768 1127.88H749.768H748.768C748.768 1128.45 748.74 1129.02 748.686 1129.57L749.682 1129.67ZM749.768 1127.88H750.768C750.768 1127.25 750.737 1126.62 750.677 1126L749.682 1126.09L748.686 1126.19C748.74 1126.75 748.768 1127.31 748.768 1127.88H749.768ZM748.987 1122.59L749.944 1122.3C749.576 1121.08 749.09 1119.91 748.5 1118.81L747.618 1119.28L746.737 1119.76C747.265 1120.74 747.7 1121.79 748.03 1122.88L748.987 1122.59ZM745.63 1116.31L746.403 1115.68C745.603 1114.71 744.71 1113.81 743.737 1113.01L743.102 1113.79L742.467 1114.56C743.34 1115.28 744.14 1116.08 744.857 1116.95L745.63 1116.31ZM740.132 1111.8L740.604 1110.92C739.502 1110.33 738.336 1109.84 737.12 1109.47L736.83 1110.43L736.54 1111.39C737.629 1111.72 738.673 1112.15 739.659 1112.68L740.132 1111.8ZM733.323 1109.73L733.42 1108.74C732.799 1108.68 732.171 1108.65 731.535 1108.65V1109.65V1110.65C732.106 1110.65 732.67 1110.68 733.226 1110.73L733.323 1109.73ZM731.535 1109.65V1108.65H729.477V1109.65V1110.65H731.535V1109.65ZM725.36 1109.65V1108.65H721.243V1109.65V1110.65H725.36V1109.65ZM717.126 1109.65V1108.65H713.01V1109.65V1110.65H717.126V1109.65ZM708.893 1109.65V1108.65H704.776V1109.65V1110.65H708.893V1109.65ZM700.659 1109.65V1108.65H696.543V1109.65V1110.65H700.659V1109.65ZM692.426 1109.65V1108.65H688.309V1109.65V1110.65H692.426V1109.65ZM684.193 1109.65V1108.65H680.076V1109.65V1110.65H684.193V1109.65ZM675.959 1109.65V1108.65H671.842V1109.65V1110.65H675.959V1109.65ZM667.726 1109.65V1108.65H663.609V1109.65V1110.65H667.726V1109.65ZM659.492 1109.65V1108.65H657.434V1109.65V1110.65H659.492V1109.65Z" fill="#9DAAF1"/>
<rect id="Rectangle 12785" opacity="0.3" x="780.188" y="433.034" width="347.915" height="58.9461" rx="9" stroke="#20938D" stroke-width="2"/>
<path id="Vector 72" opacity="0.3" d="M747.477 435H754.704C760.441 435 765.092 439.651 765.092 445.389C765.092 451.126 769.744 455.778 775.481 455.778L780.589 455.778" stroke="#20938D" stroke-width="2" stroke-linecap="round"/>
<text id="Generate Express Configuration information" fill="#2E40A5" style="white-space: pre" xml:space="preserve" font-family="Inter" font-size="16" font-weight="300" letter-spacing="0em"><tspan x="677.491" y="406.939">Generate Express Configuration information</tspan></text>
<text id="OIN Wizard populates config details automatically" fill="#2E40A5" style="white-space: pre" xml:space="preserve" font-family="Inter" font-size="16" font-weight="300" letter-spacing="0em"><tspan x="676.76" y="753.939">OIN Wizard populates config details automatically</tspan></text>
<text id="Create app instance" fill="#2E40A5" style="white-space: pre" xml:space="preserve" font-family="Inter" font-size="16" font-weight="300" letter-spacing="0em"><tspan x="676.76" y="958.621">Create app instance</tspan></text>
<text id="Test integration" fill="#2E40A5" style="white-space: pre" xml:space="preserve" font-family="Inter" font-size="16" font-weight="300" letter-spacing="0em"><tspan x="683.353" y="1100.35">Test integration</tspan></text>
<text id="Select app and protocol (OIDC, SCIM, etc.)" fill="#2E40A5" style="white-space: pre" xml:space="preserve" font-family="Inter" font-size="16" font-weight="300" letter-spacing="0em"><tspan x="223.475" y="356.319">Select app and protocol (OIDC, SCIM, etc.)</tspan></text>
<g id="Click Submit Integration">
<text fill="#2E40A5" style="white-space: pre" xml:space="preserve" font-family="Inter" font-size="16" font-weight="300" letter-spacing="0em"><tspan x="264.979" y="1191.29">Submit Integration</tspan></text>
<text fill="#2E40A5" style="white-space: pre" xml:space="preserve" font-family="Inter" font-size="16" font-weight="300" letter-spacing="0em"><tspan x="224.166" y="1191.29">Click </tspan></text>
</g>
<text id="Show green checks (Success)" fill="#2E40A5" style="white-space: pre" xml:space="preserve" font-family="Inter" font-size="16" font-weight="300" letter-spacing="0em"><tspan x="400.197" y="1142.2">Show green checks (Success)</tspan></text>
<text id="Edit published app and add new protocol capability" fill="#2E40A5" style="white-space: pre" xml:space="preserve" font-family="Inter" font-size="16" font-weight="300" letter-spacing="0em"><tspan x="224.166" y="625.953">Edit published app and add new protocol capability</tspan></text>
<g id="Click Test your integration">
<text fill="#2E40A5" style="white-space: pre" xml:space="preserve" font-family="Inter" font-size="16" font-weight="300" letter-spacing="0em"><tspan x="264.979" y="914.547">Test your integration</tspan></text>
<text fill="#2E40A5" style="white-space: pre" xml:space="preserve" font-family="Inter" font-size="16" font-weight="300" letter-spacing="0em"><tspan x="224.166" y="914.547">Click </tspan></text>
</g>
<g id="Click Finish">
<text fill="#2E40A5" style="white-space: pre" xml:space="preserve" font-family="Inter" font-size="16" font-weight="300" letter-spacing="0em"><tspan x="264.979" y="734.946">Finish</tspan></text>
<text fill="#2E40A5" style="white-space: pre" xml:space="preserve" font-family="Inter" font-size="16" font-weight="300" letter-spacing="0em"><tspan x="224.166" y="734.946">Click </tspan></text>
</g>
<text id="Copy Express Configuration information to clipboard" fill="#2E40A5" style="white-space: pre" xml:space="preserve" font-family="Inter" font-size="16" font-weight="300" letter-spacing="0em"><tspan x="224.166" y="479.318">Copy Express Configuration information to clipboard</tspan></text>
<rect id="Rectangle 12784" x="41.5" y="259.068" width="1413.24" height="59.932" rx="6" fill="#B1E4DE"/>
<rect id="Rectangle 12797" x="41.5" y="531.959" width="1413.24" height="59.93" rx="6" fill="#B1E4DE"/>
<rect id="Rectangle 12804" x="41.5" y="817.554" width="1413.24" height="59.93" rx="6" fill="#B1E4DE"/>
<text id="Initiate configuration" fill="#2E40A5" style="white-space: pre" xml:space="preserve" font-family="Inter" font-size="16" letter-spacing="0em"><tspan x="61.5" y="294.352">Initiate configuration</tspan></text>
<text id="OIN Wizard setup and metadata exchange" fill="#2E40A5" style="white-space: pre" xml:space="preserve" font-family="Inter" font-size="16" letter-spacing="0em"><tspan x="61.5" y="567.242">OIN Wizard setup and metadata exchange</tspan></text>
<text id="Test and submission" fill="#2E40A5" style="white-space: pre" xml:space="preserve" font-family="Inter" font-size="16" letter-spacing="0em"><tspan x="61.5" y="853.337">Test and submission</tspan></text>
<rect id="Rectangle 12811" x="172.891" y="668.388" width="879.245" height="29.3571" fill="#9DAAF1" fill-opacity="0.25"/>
<rect id="Rectangle 12812" x="666.325" y="1005.28" width="537.633" height="29.3571" fill="#9DAAF1" fill-opacity="0.25"/>
<text id="Click Reconfigure and paste Express Configuration info" fill="#2E40A5" style="white-space: pre" xml:space="preserve" font-family="Inter" font-size="16" font-weight="bold" letter-spacing="0em"><tspan x="224.166" y="689.861">Click Reconfigure and paste Express Configuration info</tspan></text>
<text id="Run Express Configuration" fill="#2E40A5" style="white-space: pre" xml:space="preserve" font-family="Inter" font-size="16" font-weight="bold" letter-spacing="0em"><tspan x="676.76" y="1025.33">Run Express Configuration</tspan></text>
</g>
</svg>
