<?xml version="1.0" encoding="utf-8"?>
<!-- Generator: Adobe Illustrator 26.0.1, SVG Export Plug-In . SVG Version: 6.00 Build 0)  -->
<svg version="1.1" id="Layer_1" xmlns="http://www.w3.org/2000/svg" xmlns:xlink="http://www.w3.org/1999/xlink" x="0px" y="0px"
	 viewBox="0 0 425 100" style="enable-background:new 0 0 425 100;" xml:space="preserve">
<style type="text/css">
	.st0{display:none;}
	.st1{display:inline;}
	.st2{fill:none;}
	.st3{fill:#263574;}
	.st4{font-family:'ABCWhyte-Light';}
	.st5{font-size:45px;}
	.st6{fill:#00297A;}
</style>
<g id="Guides" class="st0">
</g>
<g id="Live_Type" class="st0">
	<g class="st1">
		<rect x="-0.1" class="st2" width="652" height="100"/>
		<g>
			<g id="Logo">
				<g id="Logo_11_">
					<g>
						<path class="st3" d="M22.1,18.8c-5.1,0-9.3,4.2-9.3,9.3s4.2,9.3,9.3,9.3s9.3-4.2,9.3-9.3S27.2,18.8,22.1,18.8z M22.1,32.8
							c-2.6,0-4.6-2.1-4.6-4.6s2.1-4.6,4.6-4.6s4.6,2.1,4.6,4.6S24.6,32.8,22.1,32.8z"/>
						<path class="st3" d="M38.4,31.3c0-0.7,0.9-1.1,1.4-0.6c2.3,2.4,6.2,6.4,6.2,6.5c0,0,0.1,0.2,0.3,0.2c0.1,0,0.2,0,0.4,0H51
							c0.7,0,1-0.9,0.6-1.3l-7-7.2l-0.3-0.4c-0.8-0.9-0.7-1.3,0.2-2.3l5.5-6.1c0.3-0.4,0.2-1.3-0.6-1.3h-3.8c-0.2,0-0.2,0-0.3,0
							c-0.2,0-0.3,0.1-0.3,0.2c0,0-3.1,3.3-4.9,5.3c-0.5,0.5-1.4,0.2-1.4-0.5V13.3c0-0.5-0.4-0.7-0.8-0.7h-3.1
							c-0.5,0-0.8,0.3-0.8,0.7v23.5c0,0.5,0.4,0.7,0.8,0.7h3c0.5,0,0.8-0.3,0.8-0.7v-0.2L38.4,31.3L38.4,31.3z"/>
						<path class="st3" d="M63.8,36.6l-0.3-3.1c0-0.4-0.4-0.7-0.8-0.6c-0.2,0-0.5,0-0.7,0c-2.5,0-4.5-1.9-4.6-4.4c0-0.1,0-0.1,0-0.2
							v-3.8c0-0.5,0.3-0.9,0.8-0.9h4.2c0.3,0,0.7-0.2,0.7-0.8v-2.9c0-0.5-0.3-0.9-0.7-0.9h-4.2c-0.5,0-0.9-0.3-0.9-0.8v-4.7
							c0-0.3-0.2-0.7-0.8-0.7h-3.1c-0.4,0-0.7,0.2-0.7,0.7c0,0,0,15.1,0,15.2c0.2,5,4.2,9.1,9.3,9.1c0.4,0,0.8,0,1.2-0.1
							C63.6,37.4,63.9,37,63.8,36.6z"/>
						<path class="st3" d="M86.3,32.7c-2.6,0-3-0.9-3-4.5c0,0,0,0,0,0v-8.5c0-0.3-0.2-0.8-0.8-0.8h-3.1c-0.4,0-0.8,0.3-0.8,0.8V20
							c-1.3-0.7-2.9-1.2-4.6-1.2c-5.1,0-9.3,4.2-9.3,9.3s4.2,9.3,9.3,9.3c2.3,0,4.4-0.8,6-2.2c0.9,1.3,2.3,2.2,4.5,2.2
							c0.4,0,2.3,0,2.3-0.8v-3.3C86.9,33,86.6,32.7,86.3,32.7z M73.9,32.8c-2.6,0-4.6-2.1-4.6-4.6c0-2.6,2.1-4.6,4.6-4.6
							c2.6,0,4.6,2.1,4.6,4.6C78.6,30.7,76.5,32.8,73.9,32.8z"/>
					</g>
				</g>
			</g>
		</g>
		<g>
			<g>
				<text transform="matrix(1 0 0 1 469.0057 87.4995)" class="st3 st4 st5">Program</text>
			</g>
		</g>
		<g>
			<g>
				<g>
					<text transform="matrix(1 0 0 1 7.8383 87.4999)" class="st3 st4 st5">Executive</text>
				</g>
			</g>
		</g>
		<g>
			<g>
				<text transform="matrix(1 0 0 1 212.4764 87.4994)" class="st3 st4 st5">Sponsorship</text>
			</g>
		</g>
	</g>
</g>
<g id="Logo_4_">
	<g>
		<path class="st6" d="M21.8,18.9c-5.2,0-9.5,4.2-9.5,9.5s4.2,9.5,9.5,9.5s9.5-4.2,9.5-9.5S27,18.9,21.8,18.9z M21.8,33.1
			c-2.6,0-4.7-2.1-4.7-4.7s2.1-4.7,4.7-4.7s4.7,2.1,4.7,4.7S24.4,33.1,21.8,33.1z"/>
		<path class="st6" d="M38.4,31.5c0-0.8,0.9-1.1,1.4-0.6c2.4,2.4,6.3,6.5,6.3,6.6c0.1,0.1,0.1,0.2,0.4,0.2c0.1,0.1,0.3,0.1,0.4,0.1
			h4.2c0.8,0,1-0.9,0.7-1.3l-7.1-7.3l-0.4-0.4c-0.8-1-0.7-1.3,0.2-2.3l5.6-6.2c0.4-0.5,0.2-1.3-0.7-1.3h-3.8c-0.2,0-0.3,0-0.4,0.1
			C45,19,45,19.1,44.9,19.1c0,0-3.1,3.3-5,5.4c-0.5,0.6-1.5,0.2-1.5-0.6V13.3c0-0.6-0.5-0.8-0.8-0.8h-3.1c-0.6,0-0.8,0.4-0.8,0.7V37
			c0,0.6,0.5,0.7,0.8,0.7h3.1c0.5,0,0.8-0.4,0.8-0.7v-0.3V31.5z"/>
		<path class="st6" d="M64.1,36.9l-0.4-3.2c-0.1-0.5-0.5-0.7-0.9-0.7c-0.3,0.1-0.5,0.1-0.7,0.1c-2.5,0-4.6-2-4.7-4.5
			c0-0.1,0-0.2,0-0.3v-3.8c0-0.5,0.4-0.9,0.9-0.9h4.2c0.3,0,0.8-0.3,0.8-0.8v-3c0-0.6-0.4-0.9-0.7-0.9h-4.2c-0.5,0-0.9-0.4-0.9-0.9
			v-4.8c0-0.3-0.2-0.8-0.8-0.8h-3.1c-0.4,0-0.8,0.3-0.8,0.7c0,0,0,15.3,0,15.4c0.2,5.1,4.3,9.2,9.5,9.2c0.4,0,0.9-0.1,1.3-0.1
			C63.9,37.7,64.2,37.3,64.1,36.9z"/>
		<path class="st6" d="M86.9,33c-2.7,0-3.1-1-3.1-4.6c0,0,0,0,0-0.1v-8.6c0-0.3-0.2-0.8-0.8-0.8h-3.1c-0.4,0-0.8,0.3-0.8,0.8v0.4
			c-1.4-0.8-3-1.2-4.7-1.2c-5.2,0-9.5,4.2-9.5,9.5s4.2,9.5,9.5,9.5c2.3,0,4.5-0.9,6.1-2.3c0.9,1.4,2.3,2.2,4.6,2.3
			c0.4,0,2.4,0.1,2.4-0.9v-3.3C87.4,33.3,87.2,33,86.9,33z M74.3,33.1c-2.6,0-4.7-2.1-4.7-4.7c0-2.6,2.1-4.7,4.7-4.7
			c2.6,0,4.7,2.1,4.7,4.7C79.1,30.9,77,33.1,74.3,33.1z"/>
	</g>
</g>
<g>
	<path class="st6" d="M12.4,56h3.1v31.5h-3.1V56z"/>
	<path class="st6" d="M23.8,65.3h2.9v4.1c0.3-1.2,2.6-4.8,7.5-4.8c5.6,0,7.9,3.7,7.9,8.6v14.2h-3V74c0-4.6-2.2-6.7-5.6-6.7
		c-6.3,0-6.8,6.6-6.8,10v10.1h-3V65.3z"/>
	<path class="st6" d="M51.2,82V67.9h-5.4v-2.6h5.4v-6.8h3v6.8h6.3v2.6h-6.3v13.9c0,2.1,0.9,3.1,3.1,3.1h4v2.7H57
		C53,87.5,51.2,85.6,51.2,82z"/>
	<path class="st6" d="M63.6,76.2c0-7.2,4.2-11.6,9.6-11.6c6.2,0,10.1,5.2,9.4,12.3H66.6c0.2,6.4,3.5,8.5,6.9,8.5
		c3.9,0,5.8-2.9,6.4-4.7l2.8,1c-1.4,3.8-4.9,6.3-9.3,6.3C67.6,88.1,63.6,84.1,63.6,76.2z M79.7,74.5c0-4.9-3.1-7.2-6.4-7.2
		c-3.6,0-6.3,3-6.6,7.2H79.7z"/>
	<path class="st6" d="M86.1,91.9c0-2.3,1.7-4,3.1-4.8c-1.2-0.6-2-1.7-2-3.4c0-2.1,1.8-3.7,3.4-4.8c-1.5-1.2-2.7-3.3-2.7-6.1
		c0-4.5,3.5-8.2,8.6-8.2c3.7,0,6.4,2,7.4,4.1c0.3-2,1.6-3.5,3.7-3.5h2.1v2.6h-1.4c-1.9,0-3.1,0.4-3.2,3.4l-0.1,1.4
		c-0.2,5-3.7,8.3-8.5,8.3c-1.5,0-2.9-0.2-4.1-0.9C91,80.8,90,81.9,90,83c0,1,0.6,1.8,2.2,1.8h9.9c4,0,6.8,2.2,6.8,5.8
		c0,4-3.1,5.8-6.6,5.8H91.9C87.5,96.3,86.1,94.4,86.1,91.9z M101.9,93.6c2.2,0,3.9-0.7,3.9-3.1c0-2.3-1.8-3-4.1-3H91.2
		c-0.9,0.5-2.2,1.8-2.2,3.5c0,1.8,1.1,2.6,3.9,2.6H101.9z M102.2,72.9c0-3.3-2.3-5.7-5.6-5.7c-3.4,0-5.6,2.3-5.6,5.7
		c0,3.3,2.2,5.7,5.6,5.7C99.9,78.5,102.2,76.2,102.2,72.9z"/>
	<path class="st6" d="M113.8,65.3h3v4.9c0.7-2.1,3.1-5.2,7.2-5.2c1.3,0,2.1,0.2,2.7,0.3v3.1c-0.7-0.1-1.6-0.3-2.7-0.3
		c-5.1,0-7.2,3.8-7.2,9.2v10.2h-3V65.3z"/>
	<path class="st6" d="M129.1,82c0-6,6.8-8.4,14.3-8.9v-0.9c0-2.8-1.6-4.7-5.4-4.7c-4.2,0-5.7,2.2-6.4,4.2l-2.9-1.1
		c0.8-2.7,3.6-5.9,9.4-5.9c5.9,0,8.4,3.2,8.4,7.5V83c0,1.4,0.5,1.8,1.7,1.8h2.2v2.7h-2.5c-3,0-3.9-1.3-4-3.9
		c-1.6,2.8-3.9,4.5-7.6,4.5C131.8,88.1,129.1,85.8,129.1,82z M143.4,78v-2.6c-6.1,0.5-11.2,2.3-11.2,6.3c0,2.3,1.5,3.8,4.5,3.8
		C139.9,85.5,143.4,83.4,143.4,78z"/>
	<path class="st6" d="M155.7,82V67.9h-5.4v-2.6h5.4v-6.8h3v6.8h6.3v2.6h-6.3v13.9c0,2.1,0.9,3.1,3.1,3.1h4v2.7h-4.2
		C157.6,87.5,155.7,85.6,155.7,82z"/>
	<path class="st6" d="M170,56h3.1v4.5H170V56z M170.1,65.3h3v22.2h-3V65.3z"/>
	<path class="st6" d="M178.7,76.4c0-7.1,4.6-11.7,10.3-11.7c5.6,0,10.3,4.6,10.3,11.7c0,7.1-4.8,11.7-10.3,11.7
		C183.4,88.1,178.7,83.5,178.7,76.4z M196.1,76.5c0-6-3.2-9.1-7.2-9.1s-7.2,3.1-7.2,9.1c0,6,3.2,9,7.2,9S196.1,82.5,196.1,76.5z"/>
	<path class="st6" d="M204.8,65.3h2.9v4.1c0.3-1.2,2.6-4.8,7.5-4.8c5.6,0,7.9,3.7,7.9,8.6v14.2h-3V74c0-4.6-2.2-6.7-5.6-6.7
		c-6.3,0-6.8,6.6-6.8,10v10.1h-3V65.3z"/>
</g>
<g>
	<path class="st6" d="M240.7,56h4.1l18.5,26.3v-6.7V56h3.1v31.5h-3.3L243.9,60v7.4v20.1h-3.1V56z"/>
	<path class="st6" d="M272.7,76.2c0-7.2,4.2-11.6,9.6-11.6c6.2,0,10.1,5.2,9.4,12.3h-16.1c0.2,6.4,3.5,8.5,6.9,8.5
		c3.9,0,5.8-2.9,6.4-4.7l2.8,1c-1.4,3.8-4.9,6.3-9.3,6.3C276.6,88.1,272.7,84.1,272.7,76.2z M288.7,74.5c0-4.9-3.1-7.2-6.4-7.2
		c-3.6,0-6.3,3-6.6,7.2H288.7z"/>
	<path class="st6" d="M299.5,82V67.9h-5.4v-2.6h5.4v-6.8h3v6.8h6.3v2.6h-6.3v13.9c0,2.1,0.9,3.1,3.1,3.1h4v2.7h-4.2
		C301.4,87.5,299.5,85.6,299.5,82z"/>
	<path class="st6" d="M311.3,65.3h3.2l3.7,11.6l2.4,7.4c0.6-1.8,1-3.1,2.3-7.4l3.6-11.6h3.5l3.9,12.4c0.9,2.9,1.6,5,2.1,6.6l2.4-7.4
		l3.8-11.6h3.2l-7.6,22.2h-3.6l-3.8-12.2c-1.1-3.4-1.6-5.1-2.1-6.6c-0.5,1.6-1,3.2-2.1,6.6l-3.9,12.2h-3.5L311.3,65.3z"/>
	<path class="st6" d="M348.2,76.4c0-7.1,4.6-11.7,10.3-11.7c5.6,0,10.3,4.6,10.3,11.7c0,7.1-4.8,11.7-10.3,11.7
		C353,88.1,348.2,83.5,348.2,76.4z M365.6,76.5c0-6-3.2-9.1-7.2-9.1s-7.2,3.1-7.2,9.1c0,6,3.2,9,7.2,9S365.6,82.5,365.6,76.5z"/>
	<path class="st6" d="M374.3,65.3h3v4.9c0.7-2.1,3.1-5.2,7.2-5.2c1.3,0,2.1,0.2,2.7,0.3v3.1c-0.7-0.1-1.6-0.3-2.7-0.3
		c-5.1,0-7.2,3.8-7.2,9.2v10.2h-3V65.3z"/>
	<path class="st6" d="M398.9,76.4l-4.5,4.1v6.9h-3V56h3v14.3v6.9L407,65.3h4L401,74.5l11,13h-3.9L398.9,76.4z"/>
</g>
<rect x="-0.1" class="st2" width="425.1" height="100"/>
</svg>
