<svg width="32" height="32" viewBox="0 0 32 32" fill="none" xmlns="http://www.w3.org/2000/svg">
<path d="M26.2673 7.25067C26.2706 7.31543 26.2798 7.37884 26.2798 7.44433C26.2796 7.93139 26.185 8.39935 26.008 8.82842L27.5657 9.71349L16 16.2827L4.43432 9.7135L5.99188 8.82843C5.81469 8.39874 5.72021 7.93018 5.72021 7.44238C5.72021 7.37756 5.7293 7.31482 5.73266 7.25067L2.17578 9.27148V21.8687C2.17578 23.1782 2.89551 24.4102 4.06201 25.0889L14.1172 30.7817C14.6987 31.1196 15.3511 31.2886 16.002 31.2886C16.6514 31.2886 17.2993 31.1206 17.8755 30.7861L27.9453 25.0845C29.1045 24.4102 29.8242 23.1782 29.8242 21.8687V9.27148L26.2673 7.25067ZM15.25 29.6412C15.119 29.5947 14.9867 29.552 14.8638 29.4805L4.80858 23.7876C4.10985 23.3814 3.67577 22.646 3.67577 21.8687V11.0082L15.25 17.5814V29.6412ZM28.3242 21.8687C28.3242 22.646 27.8901 23.3814 27.1987 23.7832L17.1289 29.4849C17.0088 29.5548 16.8786 29.5965 16.75 29.6423V17.5814L28.3242 11.0083V21.8687Z" fill="#3F59E4"/>
<path d="M15.999 13.1909C15.4023 13.1909 14.8062 13.0376 14.2749 12.731L8.27295 9.26562C7.61426 8.88525 7.2207 8.20361 7.2207 7.44287C7.22119 6.68213 7.61425 6.00098 8.27343 5.6206L14.271 2.15771C15.3394 1.5415 16.6636 1.5415 17.7261 2.15576L23.728 5.62109C24.3867 6.00097 24.7798 6.68213 24.7803 7.44287C24.7803 8.20361 24.3872 8.88525 23.728 9.26562L17.73 12.7285C17.1958 13.0371 16.5972 13.1909 15.999 13.1909ZM16.0015 3.19433C15.6631 3.19433 15.3237 3.28173 15.021 3.45654L9.02343 6.91943C8.75048 7.07714 8.7207 7.33838 8.7207 7.44336C8.7207 7.54834 8.75049 7.80908 9.02295 7.9668L15.0249 11.4321C15.627 11.7783 16.376 11.7788 16.98 11.4297L22.978 7.9668C23.251 7.80909 23.2803 7.54785 23.2803 7.44287C23.2803 7.33838 23.2505 7.07715 22.978 6.91992L16.9761 3.45459C16.6758 3.28125 16.3389 3.19433 16.0015 3.19433Z" fill="#191919"/>
</svg>
