<svg width="126" height="57" viewBox="0 0 126 57" fill="none" xmlns="http://www.w3.org/2000/svg">
<path fill-rule="evenodd" clip-rule="evenodd" d="M29.7319 11.2584L29.033 19.8715L29.0343 19.8724C28.7036 19.8319 28.3684 19.8092 28.0274 19.8092C27.6021 19.8092 27.184 19.8413 26.7766 19.9036L26.3795 15.7268C26.367 15.5964 26.4708 15.4824 26.6028 15.4842H27.3173L26.9732 11.2584C26.9616 11.1289 27.0646 11.0172 27.1952 11.0172H29.5113C29.641 11.0172 29.7435 11.1289 29.7332 11.2584H29.7319ZM23.8873 11.6861C23.853 11.5606 23.7184 11.4912 23.5958 11.5361L21.4197 12.3274C21.2971 12.3719 21.2392 12.5117 21.2931 12.6301L23.0636 16.4829L22.3914 16.7254C22.2679 16.77 22.2086 16.9119 22.2657 17.0312L24.0692 20.8208C24.7235 20.4612 25.4323 20.1902 26.1798 20.0193L23.8864 11.687L23.8873 11.6861ZM18.5429 14.085L23.5512 21.131L23.5521 21.1319C22.9174 21.544 22.3428 22.0412 21.8449 22.6077L18.8495 19.661C18.755 19.5689 18.7626 19.4153 18.8629 19.3317L19.4107 18.8737L16.4278 15.8576C16.3364 15.7655 16.344 15.6142 16.4434 15.5305L18.217 14.0431C18.3178 13.9595 18.4671 13.979 18.5429 14.0845V14.085ZM14.3413 18.1639C14.2343 18.0904 14.0863 18.1234 14.0208 18.2355L12.8632 20.2387C12.7977 20.3517 12.8436 20.4955 12.9608 20.5516L16.7973 22.3674L16.4385 22.9847C16.3721 23.0986 16.4189 23.2446 16.5392 23.2993L20.361 25.0444C20.6378 24.335 21.0083 23.6732 21.4602 23.0755L14.3413 18.1643V18.1639ZM11.5153 23.6082C11.538 23.4796 11.6646 23.3981 11.7912 23.431L20.1622 25.6145C19.9456 26.3208 19.8239 27.0676 19.8074 27.8411L15.6161 27.5055C15.4842 27.4953 15.391 27.3738 15.4137 27.2443L15.5394 26.542L11.3129 26.1463C11.1832 26.1339 11.0909 26.0137 11.1137 25.8851L11.5148 23.6073L11.5153 23.6082ZM11.1988 29.2532C11.0691 29.2657 10.9768 29.3858 10.9995 29.514L11.402 31.7918C11.4248 31.92 11.5523 32.0019 11.678 31.9689L15.785 30.8972L15.9076 31.5995C15.9304 31.729 16.0601 31.8109 16.1867 31.7758L20.238 30.6591C19.9995 29.9582 19.852 29.2163 19.8128 28.4446L11.1992 29.2537L11.1988 29.2532ZM12.5387 35.2383C12.4732 35.1252 12.5177 34.9815 12.6363 34.9254L20.4524 31.2248C20.7502 31.9249 21.1433 32.5746 21.614 33.1586L18.1885 35.5912C18.0815 35.6678 17.9313 35.6348 17.8658 35.5209L17.5101 34.9027L14.0181 37.3127C13.9102 37.3874 13.7632 37.3541 13.6976 37.241L12.5391 35.2378L12.5387 35.2383ZM22.009 33.6156L15.929 39.7658C15.8376 39.8579 15.8452 40.0092 15.9446 40.0934L17.7191 41.5794C17.8185 41.6631 17.9692 41.6435 18.045 41.538L20.501 38.0808L21.0475 38.5406C21.1482 38.6256 21.3007 38.6047 21.3751 38.497L23.7594 35.0429C23.1122 34.6495 22.5242 34.1675 22.0098 33.6178L22.009 33.6161V33.6156ZM20.8081 43.4909C20.6855 43.4464 20.6276 43.3066 20.6815 43.1882H20.6824L24.2885 35.3335C24.9522 35.6722 25.6681 35.925 26.4209 36.0741L25.3632 40.1352C25.3302 40.2625 25.1942 40.3341 25.0708 40.2883L24.3999 40.0426L23.2758 44.1304C23.2414 44.2559 23.1068 44.3254 22.9842 44.2804L20.8081 43.49V43.4909ZM27.0187 36.1684L26.3197 44.7824C26.3095 44.9119 26.412 45.0236 26.5417 45.0236H28.8578C28.9884 45.0236 29.0914 44.9119 29.0798 44.7824L28.7357 40.5567H29.4502C29.5817 40.5589 29.6855 40.4449 29.6731 40.3145L29.2759 36.1377C28.8685 36.1996 28.4504 36.2321 28.0251 36.2321C27.6842 36.2321 27.3494 36.2094 27.0191 36.1689L27.0187 36.1684ZM35.3701 12.8513C35.424 12.7333 35.3661 12.5936 35.2435 12.5486L33.0674 11.7582C32.9453 11.7137 32.8102 11.7831 32.7759 11.9082L31.6517 15.996L30.9809 15.7503C30.8574 15.7049 30.7214 15.7762 30.6885 15.9034L29.6307 19.9645C30.3836 20.1136 31.0994 20.3664 31.7631 20.7051L35.3705 12.8504L35.3701 12.8513ZM40.1222 16.2746L34.0422 22.4248L34.0409 22.4226C33.5265 21.8725 32.9386 21.3909 32.2914 20.9975L34.6756 17.5435C34.7505 17.4358 34.9025 17.4148 35.0033 17.4998L35.5497 17.9596L38.0058 14.5024C38.0816 14.3969 38.2318 14.3769 38.3316 14.461L40.1061 15.9471C40.2055 16.0312 40.2131 16.182 40.1217 16.2742L40.1222 16.2746ZM43.4153 21.1146C43.5339 21.0585 43.578 20.9147 43.5129 20.8017L42.3545 18.7985C42.2889 18.6855 42.1418 18.6525 42.034 18.7268L38.542 21.1368L38.1863 20.5186C38.1212 20.4047 37.9706 20.3718 37.8636 20.4483L34.4381 22.8814C34.9092 23.4658 35.3019 24.1151 35.5997 24.8152L43.4158 21.1146H43.4153ZM44.6482 24.2495L45.0508 26.5273L45.0516 26.5282C45.0744 26.6568 44.9821 26.777 44.8524 26.7894L36.238 27.5972C36.1987 26.8255 36.0512 26.084 35.8127 25.3826L39.8636 24.266C39.9902 24.2308 40.1199 24.3127 40.1427 24.4422L40.2648 25.1445L44.3719 24.0724C44.4976 24.0394 44.6251 24.1209 44.6478 24.2495H44.6482ZM44.2596 32.6089C44.3862 32.6418 44.5127 32.5604 44.5355 32.4318L44.9371 30.1545C44.9598 30.0258 44.8675 29.9057 44.7378 29.8932L40.5113 29.4976L40.637 28.7953C40.6597 28.6658 40.5666 28.5447 40.4346 28.534L36.2438 28.1984C36.2273 28.9719 36.1047 29.7192 35.8889 30.425L44.26 32.6076V32.6085L44.2596 32.6089ZM42.0295 37.8049C41.9644 37.9166 41.816 37.95 41.709 37.8766L41.7099 37.8757L34.5901 32.9654C35.042 32.3677 35.4124 31.7059 35.6893 30.9965L39.5111 32.742C39.6314 32.7967 39.6782 32.9427 39.6118 33.0566L39.253 33.6739L43.0895 35.4893C43.2067 35.5454 43.2522 35.6891 43.1871 35.8022L42.0295 37.8053V37.8049ZM32.4991 34.9089L37.5074 41.9559C37.5832 42.0618 37.7325 42.0814 37.8333 41.9973L39.6069 40.5099C39.7063 40.4263 39.7134 40.2749 39.6225 40.1824L36.6396 37.1662L37.1874 36.7083C37.2881 36.6246 37.2953 36.4711 37.2008 36.379L34.2054 33.4323C33.7075 33.9988 33.1329 34.4959 32.4982 34.9081H32.4991V34.9089ZM32.4554 44.5038C32.3333 44.5483 32.1982 44.4789 32.1639 44.3538L29.871 36.0216C30.6185 35.8507 31.3272 35.5792 31.9816 35.22L33.785 39.0097C33.8421 39.1289 33.7833 39.2709 33.6593 39.3154L32.9872 39.5575L34.7577 43.4103C34.8116 43.5283 34.7536 43.668 34.6311 43.7125L32.4549 44.5038H32.4554Z" fill="black"/>
<path d="M105.42 33.1177C102.563 33.1177 100.542 30.8987 100.542 27.9881C100.542 25.0774 102.563 22.8584 105.42 22.8584C108.277 22.8584 110.24 25.0774 110.24 27.9881C110.24 30.8987 108.248 33.1177 105.42 33.1177ZM104.958 36.1726C107.267 36.1726 109.23 35.2794 110.471 33.4061C110.702 35.2215 112.029 35.8846 113.703 35.8846H115.031V33.0029H114.454C113.501 33.0029 113.27 32.5419 113.27 31.4755V20.0929H110.211V22.4272C109.172 20.7845 107.209 19.8049 104.958 19.8049C100.946 19.8049 97.2517 23.1477 97.2517 27.989C97.2517 32.8302 100.946 36.173 104.958 36.173L104.958 36.1726ZM89.1994 32.2245C89.1994 34.8183 90.8157 35.8842 92.7493 35.8842H96.4726V33.0025H93.7593C92.6338 33.0025 92.4029 32.5703 92.4029 31.4751V22.9741H96.4726V20.0924H92.4029V14.7901H89.1994V32.2245ZM74.6245 35.8842H77.828V29.1123H78.896L84.351 35.8842H88.3917L81.4359 27.2965L86.7754 20.092H83.1676L78.8096 26.1723H77.828V14.7896H74.6245V35.8837V35.8842ZM64.2342 19.8045C59.7607 19.8045 56.0664 23.1472 56.0664 27.9885C56.0664 32.8298 59.7607 36.1726 64.2342 36.1726C68.7077 36.1726 72.402 32.8298 72.402 27.9885C72.402 23.1472 68.7077 19.8045 64.2342 19.8045ZM64.2342 33.1177C61.377 33.1177 59.3564 30.8987 59.3564 27.9881C59.3564 25.0774 61.377 22.8584 64.2342 22.8584C67.0914 22.8584 69.112 25.0774 69.112 27.9881C69.112 30.8987 67.0914 33.1177 64.2342 33.1177Z" fill="black"/>
</svg>
