<svg width="32" height="32" viewBox="0 0 32 32" fill="none" xmlns="http://www.w3.org/2000/svg">
<path d="M30.458 4.38379L24.001 0.638184L17.5439 4.38379C16.7793 4.82666 16.3047 5.65088 16.3047 6.53516V12.5225C16.3047 13.4067 16.7793 14.231 17.5439 14.6738L24.001 18.4194L30.458 14.6738C31.2227 14.231 31.6973 13.4067 31.6973 12.5225V6.53516C31.6973 5.65088 31.2227 4.82666 30.458 4.38379ZM30.1973 12.5225C30.1973 12.8735 30.0088 13.2002 29.7061 13.376L24.001 16.6851L18.2959 13.376C17.9932 13.2002 17.8047 12.8735 17.8047 12.5225V6.53516C17.8047 6.18409 17.9932 5.85743 18.2959 5.68164L24.001 2.37256L29.7061 5.68164C30.0088 5.85742 30.1973 6.18408 30.1973 6.53516V12.5225ZM25.6291 8.47925C25.6291 9.10639 25.2705 9.64435 24.751 9.91626V12.9292H23.251V9.91626C22.7314 9.64435 22.3728 9.10638 22.3728 8.47925C22.3728 7.58008 23.1018 6.85114 24.001 6.85114C24.9001 6.85114 25.6291 7.58008 25.6291 8.47925Z" fill="#FFFEFA"/>
<path d="M0.0390625 23.25L0.893552 26.667C1.20019 27.8936 2.29687 28.75 3.56152 28.75H28.4385C29.7031 28.75 30.7998 27.8936 31.1065 26.6665L31.9609 23.25H0.0390625ZM29.6514 26.3027C29.5117 26.8603 29.0127 27.25 28.4385 27.25H3.56152C2.9873 27.25 2.48828 26.8604 2.34863 26.3032L1.96093 24.75H13V25.75H19V24.75H30.0391L29.6514 26.3027ZM28.75 21.75H27.25V18.2681L28.75 17.398V21.75ZM4.74999 21.75H3.24999V8C3.24999 6.4834 4.48339 5.25 5.99999 5.25H14.8037V6.75H6C5.31055 6.75 4.75 7.31055 4.75 8L4.74999 21.75Z" fill="#3F59E4"/>
</svg>
