<?xml version="1.0" encoding="utf-8"?>
<!-- Generator: Adobe Illustrator 16.0.0, SVG Export Plug-In . SVG Version: 6.00 Build 0)  -->
<!DOCTYPE svg PUBLIC "-//W3C//DTD SVG 1.1//EN" "http://www.w3.org/Graphics/SVG/1.1/DTD/svg11.dtd">
<svg version="1.1" id="Layer_1" xmlns="http://www.w3.org/2000/svg" xmlns:xlink="http://www.w3.org/1999/xlink" x="0px" y="0px"
	 width="444.892px" height="245.414px" viewBox="0 0 444.892 245.414" enable-background="new 0 0 444.892 245.414"
	 xml:space="preserve">
<g>
	<path fill="#FFFFFF" d="M239.037,72.43c-33.08,0-61.805,18.6-76.321,45.904c-14.516-27.305-43.24-45.902-76.32-45.902
		c-19.443,0-37.385,6.424-51.821,17.266V16.925h-0.008C34.365,7.547,26.713,0,17.286,0C7.858,0,0.208,7.547,0.008,16.925H0v143.333
		h0.036c0.768,47.051,39.125,84.967,86.359,84.967c33.08,0,61.805-18.603,76.32-45.908c14.517,27.306,43.241,45.906,76.321,45.906
		c47.714,0,86.396-38.684,86.396-86.396C325.433,111.109,286.75,72.43,239.037,72.43z M86.395,210.648
		c-28.621,0-51.821-23.2-51.821-51.82c0-28.623,23.201-51.823,51.821-51.823c28.621,0,51.822,23.2,51.822,51.823
		C138.217,187.448,115.016,210.648,86.395,210.648z M239.037,210.648c-28.621,0-51.82-23.201-51.82-51.822
		c0-28.623,23.2-51.821,51.82-51.821c28.62,0,51.823,23.198,51.823,51.821C290.859,187.447,267.657,210.648,239.037,210.648z"/>
	<path fill="#FFFFFF" d="M441.651,218.034l-44.246-59.144l44.246-59.143l-0.008-0.007c5.472-7.62,3.887-18.249-3.653-23.913
		c-7.537-5.658-18.186-4.221-23.979,3.157l-0.005-0.002l-38.188,51.048l-38.188-51.048l-0.007,0.009
		c-5.793-7.385-16.441-8.822-23.981-3.16c-7.539,5.664-9.125,16.293-3.649,23.911l-0.008,0.005l44.245,59.143l-44.245,59.144
		l0.008,0.004c-5.477,7.62-3.89,18.247,3.649,23.909c7.54,5.664,18.188,4.225,23.981-3.155l0.007,0.007l38.188-51.049l38.188,51.049
		l0.005-0.002c5.793,7.377,16.442,8.814,23.979,3.154c7.54-5.662,9.125-16.291,3.653-23.91L441.651,218.034z"/>
</g>
</svg>
