<svg xmlns="http://www.w3.org/2000/svg" width="2176px" height="520px" viewBox="0 0 2176 520"><path fill="#FFFFFF" d="M527 30.7c0-15.8-12.7-28.5-28.4-28.5h-468C14.8 2.2 2 15 2 30.7v457c0 15.8 12.8 28.5 28.6 28.5h468c15.7 0 28.5-12.8 28.5-28.5v-457zM253 358c18.8 0 38.2-6.8 45-9.2 3-1.2 4.5 1.8 4.5 1.8 13 27.7 30.3 40.5 34.4 46 2 3-2 5-2 5-21 12.7-54.3 19.7-81.8 20-96.2.6-171-74.6-171-163.2 0-96.7 76-167.2 167.8-164 37.5 0 72.5 13.3 97 29 6.3 4.2 6.2 6.2 4.8 8-5.4 7.6-20 29.4-27.5 44.6 0 0-2 4-6 1.4-15.7-10.3-37-20.3-72-20.3-54.3 0-95.6 42.5-95.6 100.2S198.7 358 253 358zm145.8 5c-25.8 0-46.7-21-46.7-46.7 0-25.8 21-46.6 46.8-46.6 25.7 0 46.6 20.8 46.6 46.6 0 25.7-21 46.6-46.6 46.6z"/><g fill="#FFFFFF"><path d="M620.3 258c0-71.2 54-119.8 123.2-119.8 51 0 80.6 27.8 97 56.6L798 215.6c-9.7-18.8-30.5-33.7-54.5-33.7-42 0-72.5 32.2-72.5 76 0 43.7 30.5 76 72.5 76 24 0 44.8-14.6 54.6-33.7l42.4 20.5c-16.6 28.8-45.8 57-97 57-69.2 0-123-48.7-123-119.8M861.3 258c0-70 51-119.8 121-119.8s121 50 121 119.8c0 69.7-51 119.7-121 119.7s-121-50-121-119.7m191.4 0c0-43.4-27.8-76-70.5-76S912 214.5 912 258c0 43 27.5 76 70.2 76s70.5-33 70.5-76M1304.6 373.6l-110.5-151v151h-49V142h50.6l107.2 145.4V142h49.3v231.6M1393.6 258c0-71.2 53.8-119.8 123.2-119.8 51 0 80.6 27.8 97 56.6l-42.5 20.8c-9.7-18.8-30.5-33.7-54.5-33.7-42 0-72.5 32.2-72.5 76 0 43.7 30.6 76 72.5 76 24 0 44.8-14.6 54.5-33.7l42.4 20.5c-16.6 28.8-45.8 57-97 57-69.3 0-123-48.7-123-119.8M1646 281.2V142h50.2v137.5c0 32.2 18.7 54.5 54.5 54.5 35.7 0 54-22.3 54-54.5V142h50.5v139c0 57.4-34 96.7-104.5 96.7S1646 338.2 1646 281.2M2034.7 373.6l-45.5-82.3h-36v82.3h-49.4V142H2012c48.3 0 77.8 31.5 77.8 74.6 0 41-25.7 63-50.6 68.7l52 88.3h-56.5zm4.8-157c0-19.5-15-31.2-34.7-31.2H1953V248h51.8c19.8 0 34.7-12 34.7-31.4"/></g><path fill="#FFFFFF" d="M2172 349c0 16.2-12.6 29-29.3 29-16.4 0-29.5-12.8-29.5-29 0-16 13-28.7 29.5-28.7 16.7 0 29.4 12.7 29.4 28.7zm-51.5 0c0 12.7 9.5 23 22.4 23 12.5 0 21.8-10.3 21.8-23 0-12.6-9.3-23-22-23-12.8 0-22.3 10.4-22.3 23zm17.7 15h-6.7v-28.7c2.7-.5 6.3-1 11-1 5.5 0 8 1 10 2.2 1.6 1.3 2.8 3.5 2.8 6.3 0 3.2-2.4 5.6-6 6.7v.3c3 1 4.5 3.2 5.3 7 1 4.4 1.4 6.2 2 7.2h-7c-1-1-1.4-3.7-2.3-7-.5-3-2.3-4.5-6-4.5h-3V364zm.2-16.3h3c3.8 0 6.8-1.2 6.8-4.2 0-2.6-2-4.3-6.2-4.3-1.7 0-3 0-3.6.3v8.2z"/><path fill="none" d="M251 94.7c37.5 0 72.5 13.3 97 29 6.4 4.2 6.3 6.2 5 8-5.5 7.7-20.2 29.5-27.7 44.8 0 0-2 4-6 1.3-15.7-10.3-37-20.4-72.2-20.4-54.2 0-95.6 42.5-95.6 100.4 0 57.8 48.3 101 102.6 100.8 18.7 0 38.2-6.7 45-9 3-1.3 4.5 1.7 4.5 1.7 13 27.8 30.4 40.6 34.4 46.2 2 2.8-2 4.8-2 4.8-21 12.8-54.4 19.8-82 20C157.8 423 83 347.7 83 259c0-97 76.2-167.5 168-164.3M446.6 317c0 25.7-21 46.6-46.7 46.6-26 0-46.8-21-46.8-46.7 0-25.8 21-46.7 46.7-46.7 25.7 0 46.6 21 46.6 46.6"/><path fill="none" d="M251 94.7c37.5 0 72.5 13.3 97 29 6.4 4.2 6.3 6.2 5 8-5.5 7.7-20.2 29.5-27.7 44.8 0 0-2 4-6 1.3-15.7-10.3-37-20.4-72.2-20.4-54.2 0-95.6 42.5-95.6 100.4 0 57.8 48.3 101 102.6 100.8 18.7 0 38.2-6.7 45-9 3-1.3 4.5 1.7 4.5 1.7 13 27.8 30.4 40.6 34.4 46.2 2 2.8-2 4.8-2 4.8-21 12.8-54.4 19.8-82 20C157.8 423 83 347.7 83 259c0-97 76.2-167.5 168-164.3M446.6 317c0 25.7-21 46.6-46.7 46.6-26 0-46.8-21-46.8-46.7 0-25.8 21-46.7 46.7-46.7 25.7 0 46.6 21 46.6 46.6"/></svg>