<svg xmlns="http://www.w3.org/2000/svg" xmlns:xlink="http://www.w3.org/1999/xlink" version="1.1" x="0px" y="0px" width="363.17px" height="102.177px" viewBox="0 0 363.17 102.177" enable-background="new 0 0 363.17 102.177" xml:space="preserve"><g><rect x="217.6" y="68.1" fill="#FFFFFF" width="17.5" height="3.6"></rect><rect x="345.7" y="68.1" fill="#FFFFFF" width="17.5" height="3.6"></rect><path fill="#FFFFFF" d="M17.207 19.125H0v52.043h18.746c15.525 0 29.264-9.049 29.264-25.881 C48.01 26.3 34 19.1 17.2 19.125z M17.441 60.59h-5.966V29.703h6.767c9.705 0 17.9 4.8 17.9 15 C36.115 56.5 28.1 60.6 17.4 60.59z"></path><path fill="#FFFFFF" d="M70.352 34.551c-11.02 0-19.834 7.355-19.834 18.746c0 11.4 8.8 18.8 19.8 18.8 c11.033 0 19.857-7.352 19.857-18.758C90.209 41.9 81.4 34.6 70.4 34.551z M70.352 62.352c-5.502 0-8.819-3.68-8.819-9.055 c0-5.357 3.317-9.039 8.819-9.039c5.525 0 8.8 3.7 8.8 9.039C79.176 58.7 75.9 62.4 70.4 62.352z"></path><path fill="#FFFFFF" d="M113.217 44.26c2.275 0 4.3 1.2 5.4 2.713l7.278-7.641c-3.451-3.523-8.528-4.781-12.713-4.781 c-11.031 0-19.844 7.355-19.844 18.744c0 11.4 8.8 18.8 19.8 18.76c4.185 0 9.262-1.254 12.713-4.782l-7.278-7.65 c-1.25 1.469-3.007 2.723-5.435 2.723c-5.514 0-8.819-3.674-8.819-9.051C104.398 47.9 107.7 44.3 113.2 44.26z"></path><path fill="#FFFFFF" d="M152.545 53.227c0 4.644-0.877 9.125-6.625 9.125c-5.654 0-5.721-5.301-5.721-9.415v-17.49h-11.027v19.701 c0 9.6 2 16.9 13.2 16.906c5.367 0 8.971-2.933 10.438-5.738h0.14v4.852h10.6V35.447h-11.039V53.227z"></path><path fill="#FFFFFF" d="M286.588 69.119c2.553-3.369 9.881-21.215 9.881-23.771c0-4.307-3.92-6.575-8.147-6.575 c-13.863 0-36.264 23.661-40.996 23.661c-5.34 0 2.85-11.344 2.85-15.77c0-2.941-2.625-5.98-4.737-5.98 c-4.097 0-17.026 12.293-25.536 15.129c1.895-3.153 2.842-6.626 2.842-8.506c0-15.143-42.889-9.471-42.889-17.975 c0-7.633 26.842-20.812 42.573-20.812c2.207 0 16.7 0.9 16.7 5.984c0 1.889-3.15 2.525-3.15 4.4 c0 1.9 1.6 2.2 3.5 2.203c2.838 0 4.729-2.531 4.729-5.68C244.184 2.6 233 0 224 0 c-23.195 0-50.771 20.184-50.771 29.332c0 12 39.1 9.8 39.1 20.496c0 8.031-16.205 15.579-28.467 20.899v-2.623H166.4v3.6 h15.203C175.227 74.5 170.4 76.5 170.4 77.568c0 3.2 2.2 2.9 4.7 2.85c6.194 0 16.056-3.755 26.281-8.714h8.084v-3.6 h-0.977c15.517-8.172 30.112-17.766 32.206-19.858c0.312 6.613-2.478 12.898-2.478 15.725c0 2.8 2 6.4 5 6.647v1.086 h17.469v-3.6h-11.638c2.537-1.696 5.598-3.972 9.288-5.983c-0.312 2.2 1.6 5.7 4.1 5.7 c5.357 0 21.76-13.252 24.92-15.453c-0.748 5.955-4.58 12.922-6.756 15.644c-1.49-0.469-3.748-0.699-5.32-0.699 c-0.803 0-1.781 0.292-2.876 0.815h-3.571v2.208c-7.827 5.736-18.057 18.227-18.057 24.919c0 3.5 1.9 6.9 5.4 6.9 c4.816 0 22.178-14.379 28.549-28.915c2.828 0.3 7.4 2.4 7.4 0.203C292.113 71.3 289.1 69.7 286.6 69.119z M264.047 62.746c-1.889-1.887 17.27-17.217 23.022-16.398C284.861 53 265.9 64.6 264 62.746z M257.566 94.7 c-1.109 0-1.832-0.477-1.832-3.01c0-8.104 16.883-19.573 22.76-19.573C275.078 79.5 260.7 94.7 257.6 94.661z"></path><path fill="#FFFFFF" d="M256.016 27.434c2.176 0 3.936-1.911 3.936-4.262c0-2.348-1.76-4.246-3.936-4.246 c-2.197 0-3.957 1.898-3.957 4.246C252.059 25.5 253.8 27.4 256 27.434z"></path><path fill="#FFFFFF" d="M354.291 55.578c0-0.949-1-2.601-2.258-2.601c-0.756 0-10.418 11.666-14.516 11.7 c-3.473 0 0-7.252 0-11.983c0-4.918-0.766-9.144-5.68-9.144c-6.617 0-16.074 8.517-18.287 9.775c0.955-1.891 1.27-2.84 1.27-4.104 c0-2.523-3.16-5.363-5.689-5.363c-2.186 0-13.842 5.985-13.842 13.645c0 1.9 6.918-4.809 9.75-3.867 c-2.201 2.843-7.887 9.472-7.887 11.988c0 1 0.2 1.9 0.6 2.514h-3.241v3.6h17.473v-3.6h-8.186 c6.536-4.481 18.021-17.014 23.977-17.014c4.226 0-0.362 12 3.2 17.014h-10.89v3.6h17.469v-1.675 C342.949 68.4 354.3 60.4 354.3 55.578z"></path><path fill="#FFFFFF" d="M356.038 79.384c-3.565 0-6.469 2.901-6.469 6.465c0 3.6 2.9 6.5 6.5 6.5 c3.576 0 6.483-2.914 6.483-6.496C362.521 82.3 359.6 79.4 356 79.384z M356.038 91.188c-2.936 0-5.318-2.383-5.318-5.34 c0-2.926 2.383-5.32 5.318-5.32c2.952 0 5.3 2.4 5.3 5.32C361.37 88.8 359 91.2 356 91.188z"></path><path fill="#FFFFFF" d="M359.021 84.349c0-1.426-0.834-2.238-2.613-2.238h-2.853v7.402h1.365v-3.029h0.987l1.845 3.029h1.435 l-1.935-3.133C358.257 86.3 359 85.6 359 84.349z M354.921 85.333v-2.066h0.987c0.832-0.022 1.8 0 1.8 1 c0 1-0.923 1.045-1.755 1.045H354.921z"></path></g></svg>