<?xml version="1.0" standalone="no"?>
<!DOCTYPE svg PUBLIC "-//W3C//DTD SVG 20010904//EN"
 "http://www.w3.org/TR/2001/REC-SVG-20010904/DTD/svg10.dtd">
<svg version="1.0" xmlns="http://www.w3.org/2000/svg"
 width="1746.000000pt" height="1746.000000pt" viewBox="0 0 1746.000000 1746.000000"
 preserveAspectRatio="xMidYMid meet">
<metadata>
Created by potrace 1.14, written by Peter Selinger 2001-2017
</metadata>
<g transform="translate(0.000000,1746.000000) scale(0.100000,-0.100000)"
fill="#000000" stroke="none">
<path d="M2299 15746 c-2 -2 -20 -7 -39 -10 -110 -17 -275 -94 -395 -183 -307
-228 -499 -564 -551 -968 -3 -22 -7 -51 -10 -65 -13 -69 -16 -398 -19 -2220
-1 -1086 -5 -1993 -8 -2015 -3 -22 -9 -62 -12 -90 -31 -274 -149 -527 -395
-845 -93 -119 -301 -329 -400 -402 -151 -112 -291 -179 -403 -194 -55 -8 -55
-14 0 -21 80 -11 253 -86 333 -145 188 -139 352 -297 477 -463 77 -101 103
-138 162 -234 133 -211 193 -368 221 -572 6 -46 14 -97 17 -114 4 -16 7 -925
9 -2020 2 -1810 5 -2149 19 -2225 2 -14 6 -41 9 -60 21 -168 108 -444 166
-530 9 -14 19 -32 22 -40 16 -45 115 -168 212 -265 201 -200 376 -291 651
-341 22 -4 265 -9 540 -11 l500 -4 0 278 0 278 -405 1 c-455 2 -523 5 -636 34
-91 23 -225 87 -270 129 -104 96 -183 263 -209 441 -4 25 -9 59 -12 75 -3 17
-7 1018 -8 2225 -1 1207 -5 2224 -9 2260 -12 102 -13 110 -34 210 -50 233
-181 504 -342 703 -104 130 -292 297 -423 376 l-37 23 73 48 c336 219 606 592
711 981 14 52 28 114 31 139 4 24 8 47 10 50 15 26 19 479 20 2370 1 1202 5
2201 9 2220 4 19 11 62 17 95 24 139 87 281 164 373 37 43 146 114 215 139
138 52 194 57 673 59 246 1 451 5 455 8 4 4 7 124 7 267 l0 259 -551 0 c-303
0 -553 -2 -555 -4z"/>
<path d="M14025 15491 c0 -143 3 -263 7 -267 4 -4 207 -8 450 -9 244 -2 457
-5 473 -8 117 -22 120 -22 185 -44 218 -73 355 -251 399 -518 6 -33 13 -76 17
-95 4 -19 8 -1028 10 -2242 2 -2302 2 -2289 45 -2478 94 -408 361 -793 716
-1033 l82 -55 -57 -37 c-189 -125 -340 -270 -466 -450 -150 -213 -260 -471
-292 -685 -3 -19 -7 -46 -10 -60 -14 -73 -16 -373 -18 -2370 -2 -1196 -6
-2191 -10 -2210 -4 -19 -14 -71 -22 -115 -30 -151 -102 -298 -182 -371 -77
-71 -188 -124 -307 -148 -127 -26 -147 -27 -585 -27 l-435 -1 0 -279 0 -280
470 2 c507 2 587 8 745 55 168 51 304 133 454 275 125 118 204 226 276 374 75
153 123 314 146 481 3 27 8 58 10 68 14 72 17 434 19 2203 2 1093 5 2006 9
2028 3 22 8 63 11 90 22 212 98 411 243 635 49 77 154 222 189 260 7 8 34 39
60 69 225 257 456 421 670 474 55 14 79 23 63 25 -171 22 -380 140 -579 328
-79 73 -230 243 -276 308 -11 16 -29 40 -41 55 -69 86 -197 309 -252 436 -21
49 -60 205 -72 285 -6 41 -13 93 -16 115 -4 22 -8 935 -9 2030 -2 1768 -6
2150 -19 2221 -2 10 -7 41 -10 68 -44 325 -182 611 -397 825 -148 147 -284
234 -464 297 l-80 29 -575 3 -575 3 0 -260z"/>
<path d="M8547 13304 c-1 -1 -51 -5 -112 -9 -60 -3 -128 -8 -150 -11 -146 -16
-137 -14 -310 -40 -298 -44 -734 -168 -1010 -288 -16 -7 -46 -19 -65 -27 -75
-28 -410 -201 -515 -264 -511 -309 -932 -683 -1281 -1140 -55 -72 -224 -312
-224 -319 0 -1 -35 -60 -77 -132 -67 -110 -175 -320 -251 -484 -127 -276 -273
-754 -326 -1067 -4 -18 -9 -48 -12 -65 -5 -32 -9 -59 -18 -116 -2 -15 -7 -56
-11 -92 -3 -36 -8 -72 -10 -80 -25 -99 -25 -804 0 -940 1 -8 6 -44 9 -80 4
-36 12 -91 17 -123 6 -32 12 -70 14 -85 2 -15 6 -38 9 -52 3 -14 8 -38 11 -55
44 -235 128 -521 226 -768 103 -260 250 -545 407 -787 31 -47 58 -87 61 -90 3
-3 26 -34 50 -70 39 -57 218 -287 245 -316 6 -6 36 -40 66 -75 149 -171 408
-417 603 -570 56 -44 107 -84 114 -89 42 -34 281 -192 380 -251 227 -136 555
-289 818 -383 281 -100 667 -189 957 -222 29 -3 64 -7 78 -10 164 -26 756 -26
960 1 19 2 54 7 78 10 23 3 63 8 90 11 41 5 252 43 322 58 14 3 37 8 52 12 15
3 30 5 33 5 2 0 19 5 37 10 18 6 41 12 50 14 48 11 186 52 291 86 525 175
1003 435 1422 775 87 70 103 84 190 161 53 46 227 217 290 285 371 394 721
946 905 1428 11 30 25 64 30 75 19 42 102 306 135 430 35 134 99 441 109 530
4 28 9 75 12 105 2 30 7 64 9 75 12 55 20 265 20 490 -1 228 -4 289 -21 455
-6 57 -41 311 -48 345 -3 11 -12 56 -21 100 -38 187 -73 316 -145 535 -168
507 -431 984 -775 1410 -137 169 -149 182 -315 349 -495 497 -1056 852 -1720
1088 -115 41 -372 117 -427 128 -13 2 -31 6 -41 9 -9 3 -28 7 -42 10 -14 2
-61 12 -105 21 -44 10 -93 19 -110 22 -16 2 -68 10 -115 18 -47 7 -116 17
-155 20 -38 4 -83 9 -100 11 -93 11 -579 26 -588 18z m403 -2295 c36 -4 90
-11 120 -15 30 -3 58 -8 61 -10 3 -2 21 -6 40 -9 61 -10 190 -45 283 -77 726
-247 1286 -856 1475 -1604 11 -43 22 -92 24 -109 3 -16 8 -48 12 -70 3 -22 8
-51 11 -65 31 -177 20 -554 -21 -740 -3 -14 -10 -50 -16 -80 -19 -96 -106
-343 -164 -465 -165 -344 -416 -646 -725 -872 -247 -180 -616 -339 -900 -388
-19 -4 -60 -11 -90 -16 -199 -35 -509 -31 -735 9 -469 84 -875 294 -1210 627
-310 307 -528 699 -621 1115 -4 19 -8 37 -9 40 -1 3 -5 28 -10 55 -5 28 -10
52 -10 55 -1 3 -5 41 -9 85 -5 44 -10 91 -12 105 -5 35 -4 286 1 340 8 88 16
155 20 170 2 8 6 33 10 55 18 127 84 345 151 501 134 315 370 632 624 839 25
20 55 45 67 55 83 71 294 201 428 264 137 65 394 151 510 171 240 42 526 56
695 34z"/>
</g>
</svg>
