<svg width="24" height="24" viewBox="0 0 24 24" fill="none" xmlns="http://www.w3.org/2000/svg">
<path d="M20.317 5.34327C18.7873 4.72153 17.147 4.26346 15.4319 4.0011C15.4007 3.99604 15.3695 4.00869 15.3534 4.034C15.1424 4.36637 14.9087 4.79998 14.7451 5.14079C12.9004 4.89616 11.0652 4.89616 9.25832 5.14079C9.09465 4.7924 8.85248 4.36637 8.64057 4.034C8.62449 4.00954 8.59328 3.99688 8.56205 4.0011C6.84791 4.26262 5.20756 4.72069 3.67693 5.34327C3.66368 5.34833 3.65233 5.35677 3.64479 5.36773C0.533392 9.48534 -0.31895 13.5017 0.0991801 17.4684C0.101072 17.4878 0.11337 17.5063 0.130398 17.5181C2.18321 18.8535 4.17171 19.6642 6.12328 20.2016C6.15451 20.21 6.18761 20.1999 6.20748 20.1771C6.66913 19.6187 7.08064 19.0299 7.43348 18.4106C7.4543 18.3744 7.43442 18.3313 7.39186 18.317C6.73913 18.0977 6.1176 17.8302 5.51973 17.5266C5.47244 17.5021 5.46865 17.4422 5.51216 17.4135C5.63797 17.33 5.76382 17.2431 5.88396 17.1554C5.90569 17.1393 5.93598 17.136 5.96153 17.1461C9.88928 18.7346 14.1415 18.7346 18.023 17.1461C18.0485 17.1351 18.0788 17.1385 18.1015 17.1545C18.2216 17.2423 18.3475 17.33 18.4742 17.4135C18.5177 17.4422 18.5149 17.5021 18.4676 17.5266C17.8697 17.8361 17.2482 18.0977 16.5945 18.3162C16.552 18.3305 16.533 18.3744 16.5538 18.4106C16.9143 19.029 17.3258 19.6178 17.7789 20.1763C17.7978 20.1999 17.8319 20.21 17.8631 20.2016C19.8241 19.6642 21.8126 18.8535 23.8654 17.5181C23.8834 17.5063 23.8948 17.4886 23.8967 17.4692C24.3971 12.8834 23.0585 8.89989 20.3482 5.36857C20.3416 5.35677 20.3303 5.34833 20.317 5.34327ZM8.02002 15.0531C6.8375 15.0531 5.86313 14.0914 5.86313 12.9104C5.86313 11.7293 6.8186 10.7676 8.02002 10.7676C9.23087 10.7676 10.1958 11.7378 10.1769 12.9104C10.1769 14.0914 9.22141 15.0531 8.02002 15.0531ZM15.9947 15.0531C14.8123 15.0531 13.8379 14.0914 13.8379 12.9104C13.8379 11.7293 14.7933 10.7676 15.9947 10.7676C17.2056 10.7676 18.1705 11.7378 18.1516 12.9104C18.1516 14.0914 17.2056 15.0531 15.9947 15.0531Z" fill="#5865F2"/>
</svg>
