<svg width="75" height="75" viewBox="0 0 75 75" fill="none" xmlns="http://www.w3.org/2000/svg">
<path fill-rule="evenodd" clip-rule="evenodd" d="M73.5 38.3522C73.5 35.6932 73.2614 33.1363 72.8182 30.6818H37.5V45.1875H57.6818C56.8125 49.875 54.1705 53.8466 50.1989 56.5057V65.9147H62.3182C69.4091 59.3863 73.5 49.7727 73.5 38.3522Z" fill="#4285F4"/>
<path fill-rule="evenodd" clip-rule="evenodd" d="M37.5 75.0001C47.625 75.0001 56.1137 71.6421 62.3182 65.9148L50.1989 56.5057C46.8409 58.7557 42.5455 60.0853 37.5 60.0853C27.733 60.0853 19.4659 53.4887 16.5171 44.6251H3.98865V54.341C10.1591 66.5967 22.8409 75.0001 37.5 75.0001Z" fill="#34A853"/>
<path fill-rule="evenodd" clip-rule="evenodd" d="M16.517 44.625C15.767 42.375 15.3409 39.9716 15.3409 37.5C15.3409 35.0284 15.767 32.625 16.517 30.375V20.6591H3.98864C1.44886 25.7216 0 31.4488 0 37.5C0 43.5511 1.44886 49.2784 3.98864 54.3409L16.517 44.625Z" fill="#FBBC05"/>
<path fill-rule="evenodd" clip-rule="evenodd" d="M37.5 14.9148C43.0057 14.9148 47.9489 16.8068 51.8352 20.5227L62.5909 9.76705C56.0966 3.71591 47.608 0 37.5 0C22.8409 0 10.1591 8.40341 3.98865 20.6591L16.5171 30.375C19.4659 21.5114 27.733 14.9148 37.5 14.9148Z" fill="#EA4335"/>
</svg>
