<svg width="112" height="21" viewBox="0 0 112 21" fill="none" xmlns="http://www.w3.org/2000/svg">
<g clip-path="url(#clip0_1590_345168)">
<path d="M79.9375 7.30288C79.9375 3.25044 83.0613 0.239258 87.1981 0.239258C91.335 0.239258 94.4587 3.25044 94.4587 7.30288V14.3384H90.9128V7.30288C90.9128 5.05153 89.3088 3.50372 87.1981 3.50372C85.0875 3.50372 83.4834 5.05153 83.4834 7.30288V14.3384H79.9375V7.30288Z" fill="#2F4EF7"/>
<path d="M27.4435 9.96696C26.8244 10.7831 25.8113 11.1208 24.6856 11.1208C22.9408 11.1208 21.5056 10.1077 21.1397 8.50358H31.4397C31.4959 8.0533 31.4959 7.7156 31.4959 7.26533C31.4959 3.32546 28.6536 0.286133 24.5449 0.286133C20.408 0.286133 17.4531 3.32546 17.4531 7.32162C17.4531 11.3741 20.5206 14.3852 24.6856 14.3852C27.5561 14.3852 30.2577 12.6686 31.2708 9.96696H27.4435ZM21.2241 5.85823C21.4493 4.33857 22.9408 3.32546 24.5449 3.32546C26.1771 3.32546 27.4998 4.31043 27.7249 5.85823H21.2241Z" fill="#2F4EF7"/>
<path d="M60.0643 4.59185C59.3326 2.00279 57.1094 0.286133 53.1133 0.286133C49.3141 0.286133 47.0346 2.11536 47.0346 4.70442C47.0346 7.12462 48.6387 8.36287 51.678 8.67243L54.3234 8.92571C55.6742 9.06641 56.4059 9.43226 56.4059 10.1921C56.4059 11.0363 55.3365 11.4585 53.9857 11.4585C52.1283 11.4585 50.8338 10.9519 50.4116 9.7981H46.6406C47.2879 12.7249 49.7644 14.3852 53.7042 14.3852C57.6441 14.3852 59.9518 12.5279 59.9518 9.96696C59.9518 7.40604 58.1507 6.1678 55.1395 5.91452L52.7193 5.71753C51.3403 5.60496 50.5805 5.26725 50.5805 4.53556C50.5805 3.71945 51.5092 3.21289 53.0288 3.21289C54.6329 3.21289 55.7586 3.63502 56.2933 4.59185H60.0643Z" fill="#2F4EF7"/>
<path d="M38.2685 14.0122H34.7227V7.21828C34.7227 3.90926 36.8004 0.532227 41.7863 0.532227H44.2979V3.90926H41.7581C39.4786 3.90926 38.2685 5.37264 38.2685 7.51142V14.0122Z" fill="#2F4EF7"/>
<path fill-rule="evenodd" clip-rule="evenodd" d="M7.26061 0.286133C3.12375 0.286133 0 3.29732 0 7.34975V20.0535H3.54588V14.3852H7.26061C11.3975 14.3852 14.5212 11.374 14.5212 7.34975C14.5212 3.29732 11.3975 0.286133 7.26061 0.286133ZM10.9753 7.34975C10.9753 5.0984 9.37126 3.5506 7.26061 3.5506C5.14997 3.5506 3.54588 5.0984 3.54588 7.34975V11.1208H7.26061C9.37126 11.1208 10.9753 9.57297 10.9753 7.34975Z" fill="#2F4EF7"/>
<path fill-rule="evenodd" clip-rule="evenodd" d="M104.739 0.286133C108.876 0.286133 112 3.29732 112 7.34976V14.3852H108.454H104.739C100.603 14.3852 97.4788 11.3741 97.4788 7.34976C97.4788 3.29732 100.603 0.286133 104.739 0.286133ZM101.025 7.34976C101.025 5.0984 102.629 3.5506 104.739 3.5506C106.85 3.5506 108.454 5.0984 108.454 7.34976V11.1208H104.739C102.629 11.1208 101.025 9.57297 101.025 7.34976Z" fill="#2F4EF7"/>
<path d="M69.6708 0.286133C65.5339 0.286133 62.4102 3.29732 62.4102 7.34976C62.4102 11.3741 65.5339 14.3852 69.6708 14.3852C73.8076 14.3852 76.9314 11.3741 76.9314 7.34976C76.9314 3.29732 73.8076 0.286133 69.6708 0.286133ZM69.6708 3.5506C71.7814 3.5506 73.3855 5.0984 73.3855 7.34976C73.3855 9.57297 71.7814 11.1208 69.6708 11.1208C67.5601 11.1208 65.956 9.57297 65.956 7.34976C65.956 5.0984 67.5601 3.5506 69.6708 3.5506Z" fill="#2F4EF7"/>
</g>
<defs>
<clipPath id="clip0_1590_345168">
<rect width="112" height="21" fill="white"/>
</clipPath>
</defs>
</svg>
