<svg width="398" height="100" viewBox="0 0 398 100" fill="none" xmlns="http://www.w3.org/2000/svg">
<g clip-path="url(#clip0_211:36)">
<path d="M110.677 14.1304C108.768 14.4021 100.59 16.0326 97.8644 16.576C94.8657 17.3912 67.0603 39.1303 65.152 44.2934C64.8794 45.9239 65.152 64.9456 65.152 64.9456L80.963 66.0325L80.4178 71.1956C78.237 70.9238 63.5164 71.1956 54.2479 71.1956C49.6137 71.1956 35.4383 71.7391 30.5315 71.4673L31.0767 66.576C34.0753 66.8478 38.7095 66.3043 41.4356 65.4891C44.1616 64.674 46.3424 63.5869 46.3424 60.8695V44.5652C45.2521 41.576 22.0809 12.5 16.0835 7.88041C14.4479 7.33688 2.72603 5.97819 0 5.43476L0.545206 0.543488H53.7028L52.8849 5.16308C50.4315 5.70658 39.2548 5.97827 36.2561 6.79354C43.889 17.9349 55.8835 32.6087 59.7 38.0435C61.8808 35.0544 82.326 20.6523 82.8712 16.3044C79.8726 15.7609 70.3315 14.4022 68.6959 14.4022L67.8781 9.51093H113.675L110.677 14.1305V14.1304Z" fill="#FF0132"/>
<path d="M224.079 56.5217C215.629 55.9782 200.908 56.25 192.458 56.5217L193.003 52.1739C194.366 52.1739 201.181 51.0869 202.816 50.8152V35.5978C198.727 35.5978 175.284 36.1413 171.74 36.9565V50.5434C171.74 50.5434 181.826 51.6303 184.007 51.9021L183.462 56.5217C174.466 55.9782 156.201 55.9782 147.478 56.5217L148.023 51.6304C150.749 51.6304 158.11 50.8153 159.745 50.5435C160.018 47.2826 160.018 41.8478 160.018 36.4131V29.6196C160.018 27.174 160.018 20.6522 159.745 18.2065C157.837 18.2065 149.386 17.3913 147.205 17.3913L147.751 13.0435C155.384 13.587 178.555 13.587 184.825 13.0435L184.279 17.1196C182.371 17.1196 174.193 18.4782 171.74 18.4782V30.4347H202.816V12.7717C200.636 12.4999 194.911 11.413 192.458 11.1412L193.003 7.06516C198.182 7.33692 218.9 7.33692 224.352 7.06516L224.079 11.413C222.444 11.413 216.447 12.4999 214.266 12.7717V51.3587C214.266 51.3587 222.989 52.4456 224.897 52.7174L224.079 56.5217H224.079Z" fill="#FF0132"/>
<path d="M387.369 43.75H378.918V0H398L396.364 6.52174L387.369 43.75ZM380.826 61.1413L375.101 61.4131L376.192 51.6304L381.916 51.9022L387.369 51.6304L386.278 61.1413H380.826Z" fill="#FF0132"/>
<path d="M333.665 4.34784C311.039 4.89134 296.864 13.5872 296.592 28.8046V29.3478C297.137 44.5652 311.039 53.5323 333.665 54.0758H335.301C357.654 53.5323 371.83 44.565 372.376 29.0758C371.83 14.402 357.927 4.89134 335.301 4.34784H333.665ZM331.212 11.1412H337.209C344.842 11.6847 358.745 16.0323 359.018 29.0758C359.018 42.1193 344.842 47.0107 337.209 47.2824H331.212C323.579 46.7389 309.676 42.1194 309.404 29.0758C309.676 16.0324 323.579 11.6848 331.212 11.1412V11.1412Z" fill="#FF0132"/>
<path d="M257.064 11.9564C235.529 12.4999 223.535 20.9241 223.535 34.7828V35.326C223.535 48.3695 236.619 57.609 257.064 58.1525H259.245C279.69 57.609 292.775 48.913 293.048 35.326V34.7828C293.048 20.9241 279.69 12.4998 259.245 11.9564H257.064ZM255.974 18.2066H260.336C267.423 18.4783 281.053 22.2826 281.053 34.5108V35.598C281.053 47.5545 267.423 51.6305 260.336 51.9023H255.974C248.886 51.6305 235.256 47.8263 235.256 35.598V35.054V34.5108C235.256 22.5544 248.886 18.4783 255.974 18.2066Z" fill="#FF0132"/>
<path d="M103.044 22.0105L102.771 25.8151L111.494 27.9887C111.494 27.9887 98.6821 53.5326 95.9561 57.0653C93.7753 57.6088 88.0509 58.9672 85.8701 59.2388L85.3244 63.8587C86.96 63.5869 109.586 63.8587 111.767 63.8587L112.312 59.5108L104.407 57.6085C104.407 57.6085 107.95 50.2712 108.495 49.456C110.949 48.9125 125.67 48.6408 125.67 48.6408L130.85 62.7715C130.85 62.7715 124.58 63.8587 122.126 63.8587L121.58 68.4785H154.021L154.565 64.4019C152.657 64.6736 146.66 63.0433 144.479 62.7715C142.026 58.9672 133.303 36.9561 129.214 27.1735L136.574 26.0871L137.392 22.2825H126.215C122.126 22.2825 104.68 22.2822 103.044 22.0105V22.0105ZM118.037 28.2607L124.307 44.2937H110.677C111.494 42.3915 118.037 28.2607 118.037 28.2607V28.2607Z" fill="#FF0132"/>
<path d="M255.701 65.2174C254.611 65.4892 251.067 66.5761 249.977 67.1196C249.977 70.3805 249.431 85.3261 249.431 85.3261C249.159 92.1196 246.16 96.7392 238.255 100L235.256 99.1848C239.072 97.0109 240.981 94.837 241.253 93.2065C242.071 91.0327 242.344 85.8696 242.344 76.6304C242.344 76.6304 242.344 69.5652 242.071 67.1196C240.981 66.8478 236.074 65.7609 234.438 65.4891V63.3152C237.437 63.3152 244.525 63.587 246.978 63.587C249.704 63.587 252.975 63.587 255.701 63.3152V65.2174L255.701 65.2174Z" fill="#FF0132"/>
<path d="M383.007 69.5652C382.462 69.837 380.826 70.1087 379.19 70.3804C379.19 72.826 379.463 90.4891 379.463 94.5652C379.463 95.1087 378.918 95.3804 378.1 94.8369C374.284 91.0326 362.016 77.1739 357.927 72.2826C357.927 75.5435 358.2 88.0435 358.2 90.2174C359.836 90.7609 363.379 91.5761 363.925 91.5761L364.197 94.0217H350.84V91.5761C352.203 91.0326 353.293 90.4892 354.656 90.2174C354.929 88.8587 354.929 71.4675 354.929 70.1088C353.838 70.1088 351.93 69.837 350.567 69.837V66.8478H360.381C363.925 70.9239 372.375 80.163 376.737 85.0544C376.737 80.9783 376.464 71.4674 376.464 69.837C375.647 69.837 374.011 69.5652 372.375 69.2935L372.103 66.8478C372.921 66.8478 377.555 67.1196 378.373 67.1196C379.19 67.1196 383.007 66.8478 383.825 66.8478C383.825 66.8478 383.007 69.5652 383.007 69.5652H383.007Z" fill="#FF0132"/>
<path d="M310.495 76.9021C310.495 80.163 307.496 81.5217 303.952 82.0652V84.5108C311.04 83.6956 315.674 80.9782 315.674 76.6304V76.3586C315.674 71.4673 312.403 67.1195 304.77 67.1195H290.049L290.595 69.8369C291.958 70.1087 293.866 70.1087 295.229 70.1087C295.229 73.3696 295.774 87.2282 295.501 91.3043C294.684 91.5761 291.958 92.1195 290.867 92.3912L290.595 94.8368H307.496V92.9346C306.405 92.6629 302.589 91.8477 301.771 91.8477C301.771 91.0325 301.499 71.4673 301.499 70.3804C303.134 70.3804 305.86 70.3803 306.951 70.6521C309.949 71.4673 310.767 74.4564 310.767 76.6304" fill="#FF0132"/>
<path d="M278.055 66.8482L263.335 67.3914V69.2937L267.151 69.8369C264.697 75.2717 258.155 89.1306 257.064 90.761C255.974 91.3045 254.884 91.5764 253.793 91.8481L253.521 94.0217H265.242V92.1194L261.699 91.033C261.699 91.033 263.879 85.5981 264.697 83.9676H274.783L277.509 91.033C277.509 91.033 275.056 91.5765 273.148 91.8481L272.876 93.7505H287.596L287.868 91.5762C286.505 92.1197 283.507 91.3042 283.507 91.3042C281.598 87.4999 276.692 75.5434 274.238 69.8369L278.055 69.0217V66.8482ZM270.15 71.7392L274.238 82.0653H265.788C266.333 80.7066 270.15 71.7392 270.15 71.7392Z" fill="#FF0132"/>
<path d="M338.845 66.8482L324.397 67.3914V69.2937L328.214 69.8369C325.761 75.2717 319.218 89.1306 318.127 90.761C317.037 91.0328 315.947 91.5764 314.856 91.8481L314.583 94.0217C317.855 93.7499 325.215 94.0217 326.306 94.0217V92.1194L322.762 91.033C322.762 91.033 324.943 85.5981 325.761 83.9676H335.847L338.573 91.033C338.573 91.033 336.119 91.5765 334.211 91.8481L333.938 93.7497H348.659L348.932 91.5762C347.296 92.1197 344.297 91.3042 344.297 91.3042C341.299 85.0542 336.392 73.0977 335.029 69.8369L338.573 69.2937L338.845 66.8482ZM330.94 71.7392L335.029 82.0653H326.578C327.124 80.7066 330.94 71.7392 330.94 71.7392Z" fill="#FF0132"/>
</g>
<defs>
<clipPath id="clip0_211:36">
<rect width="398" height="100" fill="white"/>
</clipPath>
</defs>
</svg>
