<?xml version="1.0" encoding="UTF-8" standalone="no"?><svg xmlns="http://www.w3.org/2000/svg" xmlns:xlink="http://www.w3.org/1999/xlink" contentScriptType="application/ecmascript" contentStyleType="text/css" height="658px" preserveAspectRatio="none" style="width:1217px;height:658px;background:#FFFFFF;" version="1.1" viewBox="0 0 1217 658" width="1217px" zoomAndPan="magnify"><defs/><g><line style="stroke:#181818;stroke-width:0.5;stroke-dasharray:5.0,5.0;" x1="88" x2="88" y1="81.2969" y2="577.2891"/><line style="stroke:#181818;stroke-width:0.5;stroke-dasharray:5.0,5.0;" x1="412" x2="412" y1="81.2969" y2="577.2891"/><line style="stroke:#181818;stroke-width:0.5;stroke-dasharray:5.0,5.0;" x1="813" x2="813" y1="81.2969" y2="577.2891"/><line style="stroke:#181818;stroke-width:0.5;stroke-dasharray:5.0,5.0;" x1="1106.5" x2="1106.5" y1="81.2969" y2="577.2891"/><text fill="#000000" font-family="sans-serif" font-size="14" lengthAdjust="spacing" textLength="161" x="5" y="77.9951">Resource Owner (User)</text><ellipse cx="88.5" cy="13.5" fill="#E3E3E3" rx="8" ry="8" style="stroke:#181818;stroke-width:0.5;"/><path d="M88.5,21.5 L88.5,48.5 M75.5,29.5 L101.5,29.5 M88.5,48.5 L75.5,63.5 M88.5,48.5 L101.5,63.5 " fill="none" style="stroke:#181818;stroke-width:0.5;"/><text fill="#000000" font-family="sans-serif" font-size="14" lengthAdjust="spacing" textLength="161" x="5" y="589.2842">Resource Owner (User)</text><ellipse cx="88.5" cy="601.0859" fill="#E3E3E3" rx="8" ry="8" style="stroke:#181818;stroke-width:0.5;"/><path d="M88.5,609.0859 L88.5,636.0859 M75.5,617.0859 L101.5,617.0859 M88.5,636.0859 L75.5,651.0859 M88.5,636.0859 L101.5,651.0859 " fill="none" style="stroke:#181818;stroke-width:0.5;"/><rect fill="#E3E3E3" height="30.2969" rx="2.5" ry="2.5" style="stroke:#181818;stroke-width:0.5;" width="99" x="363" y="50"/><text fill="#000000" font-family="sans-serif" font-size="14" lengthAdjust="spacing" textLength="85" x="370" y="69.9951">Client (SPA)</text><rect fill="#E3E3E3" height="30.2969" rx="2.5" ry="2.5" style="stroke:#181818;stroke-width:0.5;" width="99" x="363" y="576.2891"/><text fill="#000000" font-family="sans-serif" font-size="14" lengthAdjust="spacing" textLength="85" x="370" y="596.2842">Client (SPA)</text><rect fill="#E3E3E3" height="30.2969" rx="2.5" ry="2.5" style="stroke:#181818;stroke-width:0.5;" width="109" x="759" y="50"/><text fill="#000000" font-family="sans-serif" font-size="14" lengthAdjust="spacing" textLength="95" x="766" y="69.9951">Auth JS (SDK)</text><rect fill="#E3E3E3" height="30.2969" rx="2.5" ry="2.5" style="stroke:#181818;stroke-width:0.5;" width="109" x="759" y="576.2891"/><text fill="#000000" font-family="sans-serif" font-size="14" lengthAdjust="spacing" textLength="95" x="766" y="596.2842">Auth JS (SDK)</text><rect fill="#E3E3E3" height="30.2969" rx="2.5" ry="2.5" style="stroke:#181818;stroke-width:0.5;" width="210" x="1001.5" y="50"/><text fill="#000000" font-family="sans-serif" font-size="14" lengthAdjust="spacing" textLength="196" x="1008.5" y="69.9951">Authorization server (Okta)</text><rect fill="#E3E3E3" height="30.2969" rx="2.5" ry="2.5" style="stroke:#181818;stroke-width:0.5;" width="210" x="1001.5" y="576.2891"/><text fill="#000000" font-family="sans-serif" font-size="14" lengthAdjust="spacing" textLength="196" x="1008.5" y="596.2842">Authorization server (Okta)</text><polygon fill="#181818" points="400.5,108.4297,410.5,112.4297,400.5,116.4297,404.5,112.4297" style="stroke:#181818;stroke-width:1.0;"/><line style="stroke:#181818;stroke-width:1.0;" x1="88.5" x2="406.5" y1="112.4297" y2="112.4297"/><text fill="#000000" font-family="sans-serif" font-size="13" font-weight="bold" lengthAdjust="spacing" textLength="14" x="95.5" y="107.3638">1.</text><text fill="#000000" font-family="sans-serif" font-size="13" lengthAdjust="spacing" textLength="184" x="113.5" y="107.3638">Navigate to app sign-in page</text><line style="stroke:#181818;stroke-width:1.0;" x1="412.5" x2="454.5" y1="141.5625" y2="141.5625"/><line style="stroke:#181818;stroke-width:1.0;" x1="454.5" x2="454.5" y1="141.5625" y2="154.5625"/><line style="stroke:#181818;stroke-width:1.0;" x1="413.5" x2="454.5" y1="154.5625" y2="154.5625"/><polygon fill="#181818" points="423.5,150.5625,413.5,154.5625,423.5,158.5625,419.5,154.5625" style="stroke:#181818;stroke-width:1.0;"/><text fill="#000000" font-family="sans-serif" font-size="13" font-weight="bold" lengthAdjust="spacing" textLength="14" x="419.5" y="136.4966">2.</text><text fill="#000000" font-family="sans-serif" font-size="13" lengthAdjust="spacing" textLength="279" x="437.5" y="136.4966">Display sign-in page, instantiate OktaAuth()</text><polygon fill="#181818" points="400.5,179.6953,410.5,183.6953,400.5,187.6953,404.5,183.6953" style="stroke:#181818;stroke-width:1.0;"/><line style="stroke:#181818;stroke-width:1.0;" x1="88.5" x2="406.5" y1="183.6953" y2="183.6953"/><text fill="#000000" font-family="sans-serif" font-size="13" font-weight="bold" lengthAdjust="spacing" textLength="13" x="95.5" y="178.6294">3.</text><text fill="#000000" font-family="sans-serif" font-size="13" lengthAdjust="spacing" textLength="108" x="112.5" y="178.6294">Enter credentials</text><polygon fill="#181818" points="801.5,208.8281,811.5,212.8281,801.5,216.8281,805.5,212.8281" style="stroke:#181818;stroke-width:1.0;"/><line style="stroke:#181818;stroke-width:1.0;" x1="412.5" x2="807.5" y1="212.8281" y2="212.8281"/><text fill="#000000" font-family="sans-serif" font-size="13" font-weight="bold" lengthAdjust="spacing" textLength="14" x="419.5" y="207.7622">4.</text><text fill="#000000" font-family="sans-serif" font-size="13" lengthAdjust="spacing" textLength="272" x="437.5" y="207.7622">Call idx.authenticate(username,password)</text><polygon fill="#181818" points="1094.5,237.9609,1104.5,241.9609,1094.5,245.9609,1098.5,241.9609" style="stroke:#181818;stroke-width:1.0;"/><line style="stroke:#181818;stroke-width:1.0;" x1="813.5" x2="1100.5" y1="241.9609" y2="241.9609"/><text fill="#000000" font-family="sans-serif" font-size="13" font-weight="bold" lengthAdjust="spacing" textLength="14" x="820.5" y="236.895">5.</text><text fill="#000000" font-family="sans-serif" font-size="13" lengthAdjust="spacing" textLength="207" x="838.5" y="236.895">API request to authenticate user</text><polygon fill="#181818" points="824.5,267.0938,814.5,271.0938,824.5,275.0938,820.5,271.0938" style="stroke:#181818;stroke-width:1.0;"/><line style="stroke:#181818;stroke-width:1.0;" x1="818.5" x2="1105.5" y1="271.0938" y2="271.0938"/><text fill="#000000" font-family="sans-serif" font-size="13" font-weight="bold" lengthAdjust="spacing" textLength="14" x="830.5" y="266.0278">6.</text><text fill="#000000" font-family="sans-serif" font-size="13" lengthAdjust="spacing" textLength="140" x="848.5" y="266.0278">Return Auth response</text><polygon fill="#181818" points="423.5,296.2266,413.5,300.2266,423.5,304.2266,419.5,300.2266" style="stroke:#181818;stroke-width:1.0;"/><line style="stroke:#181818;stroke-width:1.0;" x1="417.5" x2="812.5" y1="300.2266" y2="300.2266"/><text fill="#000000" font-family="sans-serif" font-size="13" font-weight="bold" lengthAdjust="spacing" textLength="14" x="429.5" y="295.1606">7.</text><text fill="#000000" font-family="sans-serif" font-size="13" lengthAdjust="spacing" textLength="245" x="447.5" y="295.1606">Return tokens and idxStatus.SUCCESS</text><line style="stroke:#181818;stroke-width:1.0;" x1="412.5" x2="454.5" y1="329.3594" y2="329.3594"/><line style="stroke:#181818;stroke-width:1.0;" x1="454.5" x2="454.5" y1="329.3594" y2="342.3594"/><line style="stroke:#181818;stroke-width:1.0;" x1="413.5" x2="454.5" y1="342.3594" y2="342.3594"/><polygon fill="#181818" points="423.5,338.3594,413.5,342.3594,423.5,346.3594,419.5,342.3594" style="stroke:#181818;stroke-width:1.0;"/><text fill="#000000" font-family="sans-serif" font-size="13" font-weight="bold" lengthAdjust="spacing" textLength="14" x="419.5" y="324.2935">8.</text><text fill="#000000" font-family="sans-serif" font-size="13" lengthAdjust="spacing" textLength="359" x="437.5" y="324.2935">For idxStatus.SUCCESS, store tokens in browser storage</text><polygon fill="#181818" points="99.5,367.4922,89.5,371.4922,99.5,375.4922,95.5,371.4922" style="stroke:#181818;stroke-width:1.0;"/><line style="stroke:#181818;stroke-width:1.0;" x1="93.5" x2="411.5" y1="371.4922" y2="371.4922"/><text fill="#000000" font-family="sans-serif" font-size="13" font-weight="bold" lengthAdjust="spacing" textLength="14" x="105.5" y="366.4263">9.</text><text fill="#000000" font-family="sans-serif" font-size="13" lengthAdjust="spacing" textLength="282" x="123.5" y="366.4263">Direct user to authenticated protected page</text><line style="stroke:#181818;stroke-width:1.0;" x1="412.5" x2="454.5" y1="400.625" y2="400.625"/><line style="stroke:#181818;stroke-width:1.0;" x1="454.5" x2="454.5" y1="400.625" y2="413.625"/><line style="stroke:#181818;stroke-width:1.0;" x1="413.5" x2="454.5" y1="413.625" y2="413.625"/><polygon fill="#181818" points="423.5,409.625,413.5,413.625,423.5,417.625,419.5,413.625" style="stroke:#181818;stroke-width:1.0;"/><text fill="#000000" font-family="sans-serif" font-size="13" font-weight="bold" lengthAdjust="spacing" textLength="24" x="419.5" y="395.5591">10.</text><text fill="#000000" font-family="sans-serif" font-size="13" lengthAdjust="spacing" textLength="359" x="447.5" y="395.5591">For idxStatus.SUCCESS, store tokens in browser storage</text><polygon fill="#181818" points="801.5,438.7578,811.5,442.7578,801.5,446.7578,805.5,442.7578" style="stroke:#181818;stroke-width:1.0;"/><line style="stroke:#181818;stroke-width:1.0;" x1="412.5" x2="807.5" y1="442.7578" y2="442.7578"/><text fill="#000000" font-family="sans-serif" font-size="13" font-weight="bold" lengthAdjust="spacing" textLength="23" x="419.5" y="437.6919">11.</text><text fill="#000000" font-family="sans-serif" font-size="13" lengthAdjust="spacing" textLength="320" x="446.5" y="437.6919">(Optional) Call token.getUserInfo() to get user info</text><polygon fill="#181818" points="1094.5,467.8906,1104.5,471.8906,1094.5,475.8906,1098.5,471.8906" style="stroke:#181818;stroke-width:1.0;"/><line style="stroke:#181818;stroke-width:1.0;" x1="813.5" x2="1100.5" y1="471.8906" y2="471.8906"/><text fill="#000000" font-family="sans-serif" font-size="13" font-weight="bold" lengthAdjust="spacing" textLength="23" x="820.5" y="466.8247">12.</text><text fill="#000000" font-family="sans-serif" font-size="13" lengthAdjust="spacing" textLength="242" x="847.5" y="466.8247">(Optional) API request to get user info</text><polygon fill="#181818" points="824.5,497.0234,814.5,501.0234,824.5,505.0234,820.5,501.0234" style="stroke:#181818;stroke-width:1.0;"/><line style="stroke:#181818;stroke-width:1.0;" x1="818.5" x2="1105.5" y1="501.0234" y2="501.0234"/><text fill="#000000" font-family="sans-serif" font-size="13" font-weight="bold" lengthAdjust="spacing" textLength="22" x="830.5" y="495.9575">13.</text><text fill="#000000" font-family="sans-serif" font-size="13" lengthAdjust="spacing" textLength="233" x="856.5" y="495.9575">(Optional) Return user info response</text><polygon fill="#181818" points="423.5,526.1563,413.5,530.1563,423.5,534.1563,419.5,530.1563" style="stroke:#181818;stroke-width:1.0;"/><line style="stroke:#181818;stroke-width:1.0;" x1="417.5" x2="812.5" y1="530.1563" y2="530.1563"/><text fill="#000000" font-family="sans-serif" font-size="13" font-weight="bold" lengthAdjust="spacing" textLength="23" x="429.5" y="525.0903">14.</text><text fill="#000000" font-family="sans-serif" font-size="13" lengthAdjust="spacing" textLength="170" x="456.5" y="525.0903">(Optional) Return user info</text><polygon fill="#181818" points="99.5,555.2891,89.5,559.2891,99.5,563.2891,95.5,559.2891" style="stroke:#181818;stroke-width:1.0;"/><line style="stroke:#181818;stroke-width:1.0;" x1="93.5" x2="411.5" y1="559.2891" y2="559.2891"/><text fill="#000000" font-family="sans-serif" font-size="13" font-weight="bold" lengthAdjust="spacing" textLength="23" x="105.5" y="554.2231">15.</text><text fill="#000000" font-family="sans-serif" font-size="13" lengthAdjust="spacing" textLength="231" x="132.5" y="554.2231">(Optional) Display required user info</text><!--MD5=[ea9fad5d1a9f81e65d381dca29bf93ef]
@startuml
skinparam monochrome true
actor "Resource Owner (User)" as user
participant "Client (SPA)" as client
participant "Auth JS (SDK)" as sdk
participant "Authorization server (Okta)" as okta

autonumber "<b>#."
user -> client: Navigate to app sign-in page
client -> client: Display sign-in page, instantiate OktaAuth()
user -> client: Enter credentials
client -> sdk: Call idx.authenticate(username,password)
sdk -> okta: API request to authenticate user
okta -> sdk: Return Auth response
sdk -> client: Return tokens and idxStatus.SUCCESS
client -> client: For idxStatus.SUCCESS, store tokens in browser storage
client -> user: Direct user to authenticated protected page
client -> client: For idxStatus.SUCCESS, store tokens in browser storage
client -> sdk: (Optional) Call token.getUserInfo() to get user info
sdk -> okta: (Optional) API request to get user info
okta -> sdk: (Optional) Return user info response
sdk -> client: (Optional) Return user info
client -> user:  (Optional) Display required user info
@enduml

PlantUML version 1.2022.2beta5(Unknown compile time)
(GPL source distribution)
Java Runtime: Java(TM) SE Runtime Environment
JVM: Java HotSpot(TM) 64-Bit Server VM
Default Encoding: UTF-8
Language: en
Country: US
--></g></svg>