<?xml version="1.0" encoding="UTF-8"?>
<svg width="18px" height="18px" viewBox="0 0 18 18" version="1.1" xmlns="http://www.w3.org/2000/svg" xmlns:xlink="http://www.w3.org/1999/xlink">
    <!-- Generator: Sketch 45.2 (43514) - http://www.bohemiancoding.com/sketch -->
    <title>Icon</title>
    <desc>Created with Sketch.</desc>
    <defs></defs>
    <g id="Blog-&amp;-Docs" stroke="none" stroke-width="1" fill="none" fill-rule="evenodd">
        <g id="Blog-Detail-Option-1" transform="translate(-925.000000, -2011.000000)" fill="#115D8B">
            <g id="Styles" transform="translate(265.000000, 1928.000000)">
                <g id="Icon" transform="translate(660.000000, 83.000000)">
                    <path d="M1.14718302,14.3500567 L3.78733099,16.9902046 C4.40101123,17.6038849 5.22721772,17.9237412 6.05449112,17.9237412 C6.88176451,17.9237412 7.68193867,17.6038849 8.32165124,16.9902046 L11.7087885,13.6030674 L10.1886709,12.0829499 L6.80153371,15.4700871 C6.3743474,15.8972734 5.7075356,15.8972734 5.28141619,15.4700871 L2.66730055,12.8299392 C2.24011424,12.4027528 2.24011424,11.735941 2.66730055,11.3098216 L6.05443777,7.9226844 L4.53432024,6.42859921 L1.14718302,9.81573643 C-0.106209784,11.0691292 -0.106209784,13.0967172 1.14718302,14.3500567 Z" id="Fill-1"></path>
                    <path d="M16.990098,3.7872243 L14.34995,1.14707633 C13.0965572,-0.106316474 11.0689692,-0.106316474 9.81562974,1.14707633 L6.42849252,4.53421356 L7.94861004,6.05433108 L11.3357473,2.66719386 C11.7629336,2.24000755 12.4297454,2.24000755 12.8558648,2.66719386 L15.4960128,5.30734183 C15.9231991,5.73452814 15.9231991,6.40133994 15.4960128,6.82745936 L12.0827365,10.1887243 L13.602854,11.7088418 L16.9899913,8.32170458 C18.2433841,7.06831178 18.2433841,5.0407238 16.9899913,3.78738434 L16.990098,3.7872243 Z" id="Fill-2"></path>
                    <polygon id="Fill-3" points="5.67403497 10.9543843 10.9543843 5.67403497 12.4630326 7.18268334 7.18268334 12.4630326"></polygon>
                </g>
            </g>
        </g>
    </g>
</svg>