<svg width="1513" height="582" viewBox="0 0 1513 582" fill="none" xmlns="http://www.w3.org/2000/svg">
<rect width="1513" height="581.536" rx="12" fill="#F2F3FD"/>
<path d="M41.5 75.5H1465" stroke="#E1E1E1" stroke-linecap="round"/>
<path d="M37.32 57L44.616 45.544L37.672 34.6H43.368L47.72 41.704L52.232 34.6H57.608L50.664 45.48L57.96 57H52.232L47.528 49.32L42.664 57H37.32ZM63.6892 57H58.7292L66.9213 34.6H72.6813L80.8092 57H75.6573L73.9293 52.104H65.4173L63.6892 57ZM69.6413 39.72L66.6973 48.232H72.6173L69.6413 39.72ZM86.6655 57H81.7055L89.8975 34.6H95.6575L103.785 57H98.6335L96.9055 52.104H88.3935L86.6655 57ZM92.6175 39.72L89.6735 48.232H95.5935L92.6175 39.72ZM115.251 52.296V44.36H112.531V40.552H115.251V35.944H119.763V40.552H123.539V44.36H119.763V51.56C119.763 52.712 120.211 53.192 121.395 53.192H123.635V57H119.955C116.819 57 115.251 55.432 115.251 52.296ZM133.825 57.192C128.577 57.192 125.153 53.832 125.153 48.776C125.153 43.72 128.577 40.36 133.825 40.36C139.073 40.36 142.497 43.72 142.497 48.776C142.497 53.864 139.073 57.192 133.825 57.192ZM133.825 53.512C136.353 53.512 137.921 51.56 137.921 48.776C137.921 45.992 136.353 44.04 133.825 44.04C131.297 44.04 129.761 45.992 129.761 48.776C129.761 51.56 131.297 53.512 133.825 53.512ZM145.3 57V34.6H149.812V47.528L156.244 40.552H161.332L155.412 47.016L161.652 57H156.436L152.276 50.344L149.812 53V57H145.3ZM170.373 57.192C164.901 57.192 161.605 53.896 161.605 48.808C161.605 43.688 164.965 40.36 170.053 40.36C174.981 40.36 178.309 43.432 178.373 48.264C178.373 48.744 178.341 49.288 178.245 49.8H166.309V50.024C166.405 52.36 167.909 53.768 170.181 53.768C172.005 53.768 173.285 52.968 173.669 51.432H178.117C177.605 54.632 174.757 57.192 170.373 57.192ZM166.405 46.856H173.829C173.509 44.84 172.133 43.72 170.085 43.72C168.133 43.72 166.661 44.904 166.405 46.856ZM190.599 40.36C194.151 40.36 197.191 42.248 197.191 47.88V57H192.679V48.328C192.679 45.544 191.623 44.072 189.351 44.072C187.015 44.072 185.671 45.736 185.671 48.584V57H181.159V40.552H185.095L185.511 42.6C186.567 41.32 188.071 40.36 190.599 40.36ZM216.74 57.192C211.268 57.192 207.972 53.896 207.972 48.808C207.972 43.688 211.332 40.36 216.42 40.36C221.348 40.36 224.676 43.432 224.74 48.264C224.74 48.744 224.708 49.288 224.612 49.8H212.676V50.024C212.772 52.36 214.276 53.768 216.548 53.768C218.372 53.768 219.652 52.968 220.036 51.432H224.484C223.972 54.632 221.124 57.192 216.74 57.192ZM212.772 46.856H220.196C219.876 44.84 218.5 43.72 216.452 43.72C214.5 43.72 213.028 44.904 212.772 46.856ZM225.018 57L231.13 48.616L225.306 40.552H230.458L233.85 45.416L237.338 40.552H242.202L236.41 48.616L242.522 57H237.37L233.594 51.848L229.85 57H225.018ZM251.183 57.192C245.967 57.192 242.799 53.96 242.799 48.776C242.799 43.688 246.127 40.36 251.343 40.36C255.823 40.36 258.607 42.792 259.247 46.696H254.543C254.159 45.064 253.039 44.04 251.279 44.04C248.911 44.04 247.407 45.992 247.407 48.776C247.407 51.592 248.911 53.512 251.279 53.512C253.039 53.512 254.223 52.456 254.543 50.792H259.279C258.639 54.728 255.663 57.192 251.183 57.192ZM271.354 40.36C275.002 40.36 278.01 42.312 278.01 47.88V57H273.498V48.264C273.498 45.576 272.41 44.072 270.17 44.072C267.866 44.072 266.49 45.736 266.49 48.552V57H261.978V34.6H266.49V42.568C267.546 41.288 269.018 40.36 271.354 40.36ZM296.853 53.192H297.365V57H295.061C292.725 57 291.989 55.88 292.021 54.312C290.869 56.136 289.205 57.192 286.645 57.192C283.093 57.192 280.533 55.496 280.533 52.36C280.533 48.872 283.157 46.888 288.085 46.888H291.349V46.088C291.349 44.616 290.293 43.656 288.405 43.656C286.645 43.656 285.461 44.456 285.269 45.672H280.917C281.237 42.472 284.181 40.36 288.533 40.36C293.141 40.36 295.797 42.408 295.797 46.344V52.168C295.797 53.032 296.149 53.192 296.853 53.192ZM291.349 50.216V49.896H288.053C286.165 49.896 285.077 50.664 285.077 52.04C285.077 53.192 286.005 53.928 287.509 53.928C289.877 53.928 291.317 52.456 291.349 50.216ZM308.87 40.36C312.422 40.36 315.462 42.248 315.462 47.88V57H310.95V48.328C310.95 45.544 309.894 44.072 307.622 44.072C305.286 44.072 303.942 45.736 303.942 48.584V57H299.43V40.552H303.366L303.782 42.6C304.838 41.32 306.342 40.36 308.87 40.36ZM330.721 42.824L331.105 40.552H335.073V56.52C335.073 60.584 332.577 63.592 326.273 63.592C321.697 63.592 318.561 61.512 318.337 57.704H322.881C323.297 59.272 324.545 60.168 326.625 60.168C329.153 60.168 330.657 58.92 330.657 56.36V54.632C329.569 56.008 327.937 56.904 325.633 56.904C321.217 56.936 317.985 53.704 317.985 48.616C317.985 43.592 321.217 40.328 325.601 40.328C327.969 40.328 329.633 41.384 330.721 42.824ZM326.625 53.288C329.089 53.288 330.625 51.4 330.625 48.68C330.625 45.928 329.089 43.976 326.625 43.976C324.161 43.976 322.593 45.896 322.593 48.648C322.593 51.4 324.161 53.288 326.625 53.288ZM346.667 57.192C341.195 57.192 337.899 53.896 337.899 48.808C337.899 43.688 341.259 40.36 346.347 40.36C351.275 40.36 354.603 43.432 354.667 48.264C354.667 48.744 354.635 49.288 354.539 49.8H342.603V50.024C342.699 52.36 344.203 53.768 346.475 53.768C348.299 53.768 349.579 52.968 349.963 51.432H354.411C353.899 54.632 351.051 57.192 346.667 57.192ZM342.699 46.856H350.123C349.803 44.84 348.427 43.72 346.379 43.72C344.427 43.72 342.955 44.904 342.699 46.856ZM369.518 57L364.142 40.552H368.91L372.206 52.136L375.31 40.552H379.374L382.382 52.168L385.742 40.552H390.35L384.942 57H380.142L377.262 47.08L374.318 57H369.518ZM394.521 38.792C393.049 38.792 391.897 37.704 391.897 36.264C391.897 34.792 393.049 33.704 394.521 33.704C395.993 33.704 397.145 34.792 397.145 36.264C397.145 37.704 395.993 38.792 394.521 38.792ZM392.249 57V40.552H396.793V57H392.249ZM401.41 52.296V44.36H398.69V40.552H401.41V35.944H405.922V40.552H409.698V44.36H405.922V51.56C405.922 52.712 406.37 53.192 407.554 53.192H409.794V57H406.114C402.978 57 401.41 55.432 401.41 52.296ZM421.578 40.36C425.226 40.36 428.234 42.312 428.234 47.88V57H423.722V48.264C423.722 45.576 422.634 44.072 420.394 44.072C418.09 44.072 416.714 45.736 416.714 48.552V57H412.202V34.6H416.714V42.568C417.77 41.288 419.242 40.36 421.578 40.36ZM439.11 49.64L443.814 49.704C443.974 51.88 445.702 53.384 448.454 53.384C450.662 53.384 452.294 52.424 452.294 50.664C452.294 48.776 450.47 48.392 446.726 47.656C442.95 46.952 439.622 45.736 439.622 41.192C439.622 37.224 442.918 34.408 447.974 34.408C453.254 34.408 456.614 37.16 456.678 41.448H451.974C451.75 39.56 450.31 38.248 447.974 38.248C445.926 38.248 444.454 39.112 444.454 40.84C444.454 42.664 446.214 43.048 449.926 43.752C453.766 44.456 457.158 45.608 457.126 50.12C457.094 54.312 453.638 57.192 448.39 57.192C442.694 57.192 439.142 54.184 439.11 49.64ZM462.682 57H457.722L465.914 34.6H471.674L479.802 57H474.65L472.922 52.104H464.41L462.682 57ZM468.634 39.72L465.69 48.232H471.61L468.634 39.72ZM482.178 57V34.6H488.482L494.69 51.048L500.706 34.6H506.882V57H502.306V41.992L496.482 57H492.578L486.754 41.992V57H482.178ZM524.725 57H511.029V34.6H515.829V52.872H524.725V57ZM544.752 40.552H545.52V44.648H543.728C541.04 44.648 540.016 46.44 540.016 48.936V57H535.504V40.552H539.6L540.016 43.016C540.912 41.544 542.192 40.552 544.752 40.552ZM555.452 57.192C549.98 57.192 546.684 53.896 546.684 48.808C546.684 43.688 550.044 40.36 555.132 40.36C560.06 40.36 563.388 43.432 563.452 48.264C563.452 48.744 563.42 49.288 563.324 49.8H551.388V50.024C551.484 52.36 552.988 53.768 555.26 53.768C557.084 53.768 558.364 52.968 558.748 51.432H563.196C562.684 54.632 559.836 57.192 555.452 57.192ZM551.484 46.856H558.908C558.588 44.84 557.212 43.72 555.164 43.72C553.212 43.72 551.74 44.904 551.484 46.856ZM578.302 42.76L578.75 40.552H582.686V63.4H578.174V54.888C577.086 56.232 575.486 57.192 573.214 57.192C568.83 57.192 565.598 54.024 565.598 48.808C565.598 43.72 568.83 40.328 573.246 40.36C575.582 40.36 577.246 41.352 578.302 42.76ZM574.238 53.512C576.702 53.512 578.238 51.56 578.238 48.776C578.238 45.96 576.702 44.04 574.238 44.04C571.774 44.04 570.206 45.96 570.206 48.744C570.206 51.56 571.774 53.512 574.238 53.512ZM597.128 48.776V40.552H601.64V57H597.64L597.224 55.016C596.168 56.296 594.728 57.192 592.392 57.192C589 57.192 585.864 55.496 585.864 49.672V40.552H590.376V49.064C590.376 52.008 591.336 53.448 593.576 53.448C595.816 53.448 597.128 51.816 597.128 48.776ZM613.225 57.192C607.753 57.192 604.457 53.896 604.457 48.808C604.457 43.688 607.817 40.36 612.905 40.36C617.833 40.36 621.161 43.432 621.225 48.264C621.225 48.744 621.193 49.288 621.097 49.8H609.161V50.024C609.257 52.36 610.761 53.768 613.033 53.768C614.857 53.768 616.137 52.968 616.521 51.432H620.969C620.457 54.632 617.609 57.192 613.225 57.192ZM609.257 46.856H616.681C616.361 44.84 614.985 43.72 612.937 43.72C610.985 43.72 609.513 44.904 609.257 46.856ZM623.118 51.528H627.406C627.566 52.968 628.814 53.96 631.022 53.96C632.91 53.96 634.062 53.352 634.062 52.2C634.062 50.856 632.942 50.76 630.286 50.408C626.446 49.96 623.47 49.096 623.47 45.704C623.47 42.44 626.318 40.296 630.542 40.328C634.958 40.328 637.998 42.28 638.222 45.64H633.902C633.774 44.328 632.526 43.528 630.702 43.528C628.942 43.528 627.79 44.168 627.79 45.224C627.79 46.472 629.198 46.6 631.566 46.888C635.342 47.272 638.478 48.136 638.478 51.848C638.478 55.112 635.406 57.192 630.99 57.192C626.414 57.192 623.31 55.048 623.118 51.528ZM642.358 52.296V44.36H639.638V40.552H642.358V35.944H646.87V40.552H650.646V44.36H646.87V51.56C646.87 52.712 647.318 53.192 648.502 53.192H650.742V57H647.062C643.926 57 642.358 55.432 642.358 52.296ZM655.423 38.792C653.951 38.792 652.799 37.704 652.799 36.264C652.799 34.792 653.951 33.704 655.423 33.704C656.895 33.704 658.047 34.792 658.047 36.264C658.047 37.704 656.895 38.792 655.423 38.792ZM653.151 57V40.552H657.695V57H653.151ZM670.567 40.36C674.119 40.36 677.159 42.248 677.159 47.88V57H672.647V48.328C672.647 45.544 671.591 44.072 669.319 44.072C666.983 44.072 665.639 45.736 665.639 48.584V57H661.127V40.552H665.063L665.479 42.6C666.535 41.32 668.039 40.36 670.567 40.36ZM692.418 42.824L692.802 40.552H696.77V56.52C696.77 60.584 694.274 63.592 687.97 63.592C683.394 63.592 680.258 61.512 680.034 57.704H684.578C684.994 59.272 686.242 60.168 688.322 60.168C690.85 60.168 692.354 58.92 692.354 56.36V54.632C691.266 56.008 689.634 56.904 687.33 56.904C682.914 56.936 679.682 53.704 679.682 48.616C679.682 43.592 682.914 40.328 687.298 40.328C689.666 40.328 691.33 41.384 692.418 42.824ZM688.322 53.288C690.786 53.288 692.322 51.4 692.322 48.68C692.322 45.928 690.786 43.976 688.322 43.976C685.858 43.976 684.29 45.896 684.29 48.648C684.29 51.4 685.858 53.288 688.322 53.288ZM724.173 53.192H724.685V57H722.381C720.045 57 719.309 55.88 719.341 54.312C718.189 56.136 716.525 57.192 713.965 57.192C710.413 57.192 707.853 55.496 707.853 52.36C707.853 48.872 710.477 46.888 715.405 46.888H718.669V46.088C718.669 44.616 717.613 43.656 715.725 43.656C713.965 43.656 712.781 44.456 712.589 45.672H708.237C708.557 42.472 711.501 40.36 715.853 40.36C720.461 40.36 723.117 42.408 723.117 46.344V52.168C723.117 53.032 723.469 53.192 724.173 53.192ZM718.669 50.216V49.896H715.373C713.485 49.896 712.397 50.664 712.397 52.04C712.397 53.192 713.325 53.928 714.829 53.928C717.197 53.928 718.637 52.456 718.669 50.216ZM736.19 40.36C740.638 40.328 743.838 43.624 743.838 48.808C743.838 53.928 740.638 57.192 736.222 57.192C733.95 57.192 732.318 56.264 731.262 54.92V63.4H726.75V40.552H730.686L731.134 42.824C732.19 41.416 733.854 40.36 736.19 40.36ZM735.198 53.512C737.662 53.512 739.262 51.56 739.262 48.744C739.262 45.96 737.662 44.04 735.198 44.04C732.734 44.04 731.198 45.96 731.198 48.744C731.198 51.56 732.734 53.512 735.198 53.512ZM756.104 40.36C760.552 40.328 763.752 43.624 763.752 48.808C763.752 53.928 760.552 57.192 756.136 57.192C753.864 57.192 752.232 56.264 751.176 54.92V63.4H746.664V40.552H750.6L751.048 42.824C752.104 41.416 753.768 40.36 756.104 40.36ZM755.112 53.512C757.576 53.512 759.176 51.56 759.176 48.744C759.176 45.96 757.576 44.04 755.112 44.04C752.648 44.04 751.112 45.96 751.112 48.744C751.112 51.56 752.648 53.512 755.112 53.512ZM773.3 44.36V40.552H776.02V39.336C776.02 36.296 777.652 34.6 780.98 34.6H784.66V38.44H781.78C780.884 38.44 780.436 38.856 780.436 39.784V40.552H784.66V44.36H780.532V57H776.02V44.36H773.3ZM794.156 57.192C788.908 57.192 785.484 53.832 785.484 48.776C785.484 43.72 788.908 40.36 794.156 40.36C799.404 40.36 802.828 43.72 802.828 48.776C802.828 53.864 799.404 57.192 794.156 57.192ZM794.156 53.512C796.684 53.512 798.252 51.56 798.252 48.776C798.252 45.992 796.684 44.04 794.156 44.04C791.628 44.04 790.092 45.992 790.092 48.776C790.092 51.56 791.628 53.512 794.156 53.512ZM814.88 40.552H815.648V44.648H813.856C811.168 44.648 810.144 46.44 810.144 48.936V57H805.632V40.552H809.728L810.144 43.016C811.04 41.544 812.32 40.552 814.88 40.552ZM825.696 49.64L830.4 49.704C830.56 51.88 832.288 53.384 835.04 53.384C837.248 53.384 838.88 52.424 838.88 50.664C838.88 48.776 837.056 48.392 833.312 47.656C829.536 46.952 826.208 45.736 826.208 41.192C826.208 37.224 829.504 34.408 834.56 34.408C839.84 34.408 843.2 37.16 843.264 41.448H838.56C838.336 39.56 836.896 38.248 834.56 38.248C832.512 38.248 831.04 39.112 831.04 40.84C831.04 42.664 832.8 43.048 836.512 43.752C840.352 44.456 843.744 45.608 843.712 50.12C843.68 54.312 840.224 57.192 834.976 57.192C829.28 57.192 825.728 54.184 825.696 49.64ZM845.766 49.64L850.47 49.704C850.63 51.88 852.358 53.384 855.11 53.384C857.318 53.384 858.95 52.424 858.95 50.664C858.95 48.776 857.126 48.392 853.382 47.656C849.606 46.952 846.278 45.736 846.278 41.192C846.278 37.224 849.574 34.408 854.63 34.408C859.91 34.408 863.27 37.16 863.334 41.448H858.63C858.406 39.56 856.966 38.248 854.63 38.248C852.582 38.248 851.11 39.112 851.11 40.84C851.11 42.664 852.87 43.048 856.582 43.752C860.422 44.456 863.814 45.608 863.782 50.12C863.75 54.312 860.294 57.192 855.046 57.192C849.35 57.192 845.798 54.184 845.766 49.64ZM888.295 45.8C888.295 52.328 883.783 57.192 877.191 57.192C870.599 57.192 866.087 52.328 866.087 45.8C866.087 39.272 870.599 34.408 877.191 34.408C883.783 34.408 888.295 39.272 888.295 45.8ZM870.983 45.8C870.983 50.024 873.415 53.128 877.191 53.128C880.935 53.128 883.367 50.024 883.367 45.8C883.367 41.576 880.935 38.472 877.191 38.472C873.415 38.472 870.983 41.576 870.983 45.8Z" fill="#22307C"/>
<path d="M41.5 75.5H1465" stroke="#E1E1E1" stroke-linecap="round"/>
<path d="M730.323 194.689H759.723V530.664L745.023 554.664L730.323 530.664V194.689Z" fill="white"/>
<rect x="638.417" y="95.2712" width="214" height="64" rx="4" fill="#9DAAF1"/>
<path d="M728.289 124.367C725.025 124.367 722.993 122.111 722.993 118.671C722.993 115.263 725.089 112.975 728.401 112.975C730.961 112.975 732.801 114.511 733.169 116.879H731.265C730.897 115.471 729.841 114.591 728.321 114.591C726.193 114.591 724.881 116.271 724.881 118.671C724.881 121.055 726.161 122.751 728.273 122.751C729.825 122.751 730.897 121.887 731.249 120.463H733.153C732.801 122.831 730.897 124.367 728.289 124.367ZM734.499 124.271V113.071H736.227V124.271H734.499ZM738.801 114.927C738.209 114.927 737.745 114.495 737.745 113.887C737.745 113.279 738.209 112.847 738.801 112.847C739.393 112.847 739.857 113.279 739.857 113.887C739.857 114.495 739.393 114.927 738.801 114.927ZM737.921 124.271V116.079H739.649V124.271H737.921ZM745.231 124.367C742.655 124.367 741.039 122.703 741.039 120.191C741.039 117.663 742.655 115.983 745.071 115.983C747.439 115.983 749.023 117.487 749.071 119.887C749.071 120.095 749.055 120.319 749.023 120.543H742.847V120.655C742.895 122.047 743.775 122.959 745.135 122.959C746.191 122.959 746.959 122.431 747.199 121.519H748.927C748.639 123.135 747.263 124.367 745.231 124.367ZM742.911 119.279H747.279C747.135 118.063 746.287 117.375 745.087 117.375C743.983 117.375 743.039 118.111 742.911 119.279ZM754.788 115.983C756.596 115.983 758.084 116.975 758.084 119.711V124.271H756.34V119.855C756.34 118.303 755.684 117.471 754.388 117.471C753.012 117.471 752.196 118.479 752.196 120.143V124.271H750.468V116.079H751.972L752.164 117.151C752.676 116.511 753.46 115.983 754.788 115.983ZM760.248 122.047V117.599H758.824V116.079H760.248V113.791H761.992V116.079H763.992V117.599H761.992V121.871C761.992 122.511 762.216 122.751 762.872 122.751H764.088V124.271H762.488C760.92 124.271 760.248 123.535 760.248 122.047ZM690.087 144.351H688.215C686.599 142.207 685.895 139.983 685.895 137.471C685.895 135.023 686.583 132.751 688.215 130.591H690.087C688.295 132.991 687.607 134.991 687.607 137.471C687.607 139.967 688.279 141.967 690.087 144.351ZM695.292 134.079H695.676V135.695H694.908C693.372 135.695 692.876 136.895 692.876 138.159V142.271H691.148V134.079H692.684L692.876 135.311C693.292 134.623 693.948 134.079 695.292 134.079ZM700.239 142.367C697.663 142.367 696.047 140.703 696.047 138.191C696.047 135.663 697.663 133.983 700.079 133.983C702.447 133.983 704.031 135.487 704.079 137.887C704.079 138.095 704.063 138.319 704.031 138.543H697.855V138.655C697.903 140.047 698.783 140.959 700.143 140.959C701.199 140.959 701.967 140.431 702.207 139.519H703.935C703.647 141.135 702.271 142.367 700.239 142.367ZM697.919 137.279H702.287C702.143 136.063 701.295 135.375 700.095 135.375C698.991 135.375 698.047 136.111 697.919 137.279ZM711.732 135.247L711.924 134.079H713.428V145.471H711.7V141.055C711.156 141.791 710.308 142.367 709.044 142.367C706.82 142.367 705.172 140.815 705.172 138.175C705.172 135.663 706.82 133.983 709.044 133.983C710.324 133.983 711.22 134.511 711.732 135.247ZM709.332 140.911C710.772 140.911 711.716 139.775 711.716 138.191C711.716 136.575 710.772 135.455 709.332 135.455C707.892 135.455 706.948 136.559 706.948 138.175C706.948 139.775 707.892 140.911 709.332 140.911ZM720.733 138.175V134.079H722.461V142.271H720.941L720.749 141.231C720.237 141.855 719.485 142.367 718.221 142.367C716.477 142.367 714.989 141.439 714.989 138.639V134.079H716.717V138.447C716.717 140.047 717.357 140.863 718.621 140.863C719.933 140.863 720.733 139.871 720.733 138.175ZM728.051 142.367C725.475 142.367 723.859 140.703 723.859 138.191C723.859 135.663 725.475 133.983 727.891 133.983C730.259 133.983 731.843 135.487 731.891 137.887C731.891 138.095 731.875 138.319 731.843 138.543H725.667V138.655C725.715 140.047 726.595 140.959 727.955 140.959C729.011 140.959 729.779 140.431 730.019 139.519H731.747C731.459 141.135 730.083 142.367 728.051 142.367ZM725.731 137.279H730.099C729.955 136.063 729.107 135.375 727.907 135.375C726.803 135.375 725.859 136.111 725.731 137.279ZM732.89 139.567H734.586C734.65 140.415 735.386 141.023 736.634 141.023C737.706 141.023 738.41 140.607 738.41 139.951C738.41 139.071 737.658 139.007 736.394 138.847C734.522 138.623 733.05 138.223 733.05 136.527C733.05 134.975 734.442 133.967 736.41 133.983C738.426 133.983 739.85 134.911 739.962 136.591H738.266C738.17 135.839 737.466 135.311 736.442 135.311C735.418 135.311 734.746 135.727 734.746 136.383C734.746 137.151 735.53 137.247 736.714 137.375C738.586 137.599 740.106 137.983 740.106 139.807C740.106 141.375 738.618 142.367 736.634 142.367C734.442 142.367 732.938 141.343 732.89 139.567ZM742.037 140.047V135.599H740.613V134.079H742.037V131.791H743.781V134.079H745.781V135.599H743.781V139.871C743.781 140.511 744.005 140.751 744.661 140.751H745.877V142.271H744.277C742.709 142.271 742.037 141.535 742.037 140.047ZM747.856 132.927C747.264 132.927 746.8 132.495 746.8 131.887C746.8 131.279 747.264 130.847 747.856 130.847C748.448 130.847 748.912 131.279 748.912 131.887C748.912 132.495 748.448 132.927 747.856 132.927ZM746.976 142.271V134.079H748.704V142.271H746.976ZM754.718 133.983C756.526 133.983 758.014 134.975 758.014 137.711V142.271H756.27V137.855C756.27 136.303 755.614 135.471 754.318 135.471C752.942 135.471 752.126 136.479 752.126 138.143V142.271H750.398V134.079H751.902L752.094 135.151C752.606 134.511 753.39 133.983 754.718 133.983ZM765.841 135.359L766.033 134.079H767.537V141.935C767.537 144.159 766.289 145.567 763.345 145.567C761.169 145.567 759.649 144.559 759.489 142.719H761.249C761.457 143.631 762.257 144.159 763.473 144.159C764.977 144.159 765.825 143.439 765.825 141.871V140.959C765.281 141.775 764.433 142.303 763.153 142.303C760.929 142.303 759.281 140.751 759.281 138.143C759.281 135.631 760.929 133.983 763.153 133.983C764.433 133.983 765.313 134.543 765.841 135.359ZM763.441 140.847C764.881 140.847 765.825 139.743 765.825 138.175C765.825 136.559 764.881 135.439 763.441 135.439C762.001 135.439 761.057 136.559 761.057 138.143C761.057 139.743 762.001 140.847 763.441 140.847ZM780.808 140.767H781.16V142.271H780.248C779.128 142.271 778.744 141.775 778.744 140.959C778.2 141.791 777.368 142.367 776.04 142.367C774.248 142.367 773 141.487 773 139.967C773 138.287 774.216 137.343 776.504 137.343H778.568V136.847C778.568 135.935 777.912 135.375 776.776 135.375C775.752 135.375 775.064 135.855 774.936 136.575H773.24C773.416 134.975 774.792 133.983 776.856 133.983C779.032 133.983 780.28 135.023 780.28 136.959V140.239C780.28 140.655 780.456 140.767 780.808 140.767ZM778.568 138.911V138.623H776.424C775.352 138.623 774.76 139.023 774.76 139.855C774.76 140.543 775.336 141.023 776.28 141.023C777.72 141.023 778.552 140.175 778.568 138.911ZM786.485 133.983C788.725 133.983 790.357 135.551 790.357 138.175C790.357 140.703 788.725 142.367 786.485 142.367C785.221 142.367 784.341 141.855 783.829 141.119V145.471H782.101V134.079H783.605L783.813 135.295C784.357 134.575 785.205 133.983 786.485 133.983ZM786.197 140.911C787.637 140.911 788.597 139.775 788.597 138.175C788.597 136.559 787.637 135.455 786.197 135.455C784.757 135.455 783.813 136.559 783.813 138.143C783.813 139.775 784.757 140.911 786.197 140.911ZM796.126 133.983C798.366 133.983 799.998 135.551 799.998 138.175C799.998 140.703 798.366 142.367 796.126 142.367C794.862 142.367 793.982 141.855 793.47 141.119V145.471H791.742V134.079H793.246L793.454 135.295C793.998 134.575 794.846 133.983 796.126 133.983ZM795.838 140.911C797.278 140.911 798.238 139.775 798.238 138.175C798.238 136.559 797.278 135.455 795.838 135.455C794.398 135.455 793.454 136.559 793.454 138.143C793.454 139.775 794.398 140.911 795.838 140.911ZM800.742 130.591H802.598C804.214 132.735 804.934 134.959 804.934 137.471C804.934 139.919 804.23 142.191 802.598 144.351H800.742C802.534 141.951 803.222 139.951 803.222 137.471C803.222 134.975 802.55 132.975 800.742 130.591Z" fill="#191919"/>
<path d="M745.125 143.271V177.271" stroke="#9DAAF1" stroke-width="2"/>
<g filter="url(#filter0_d_1_13)">
<rect x="700.875" y="171.853" width="88" height="88" rx="44" fill="white"/>
</g>
<path d="M207.756 194.689H237.156V530.664L222.456 554.664L207.756 530.664V194.689Z" fill="white"/>
<rect x="115.85" y="95.2712" width="214" height="64" rx="4" fill="#9DAAF1"/>
<path d="M206.974 128.471V122.071H208.814V128.567C208.814 130.647 209.614 131.735 211.374 131.735C213.166 131.735 213.966 130.647 213.966 128.567V122.071H215.806V128.471C215.806 131.655 214.286 133.367 211.374 133.367C208.478 133.367 206.974 131.655 206.974 128.471ZM217.26 130.567H218.956C219.02 131.415 219.756 132.023 221.004 132.023C222.076 132.023 222.78 131.607 222.78 130.951C222.78 130.071 222.028 130.007 220.764 129.847C218.892 129.623 217.42 129.223 217.42 127.527C217.42 125.975 218.812 124.967 220.78 124.983C222.796 124.983 224.22 125.911 224.332 127.591H222.636C222.54 126.839 221.836 126.311 220.812 126.311C219.788 126.311 219.116 126.727 219.116 127.383C219.116 128.151 219.9 128.247 221.084 128.375C222.956 128.599 224.476 128.983 224.476 130.807C224.476 132.375 222.988 133.367 221.004 133.367C218.812 133.367 217.308 132.343 217.26 130.567ZM229.703 133.367C227.127 133.367 225.511 131.703 225.511 129.191C225.511 126.663 227.127 124.983 229.543 124.983C231.911 124.983 233.495 126.487 233.543 128.887C233.543 129.095 233.527 129.319 233.495 129.543H227.319V129.655C227.367 131.047 228.247 131.959 229.607 131.959C230.663 131.959 231.431 131.431 231.671 130.519H233.399C233.111 132.135 231.735 133.367 229.703 133.367ZM227.383 128.279H231.751C231.607 127.063 230.759 126.375 229.559 126.375C228.455 126.375 227.511 127.111 227.383 128.279ZM239.084 125.079H239.468V126.695H238.7C237.164 126.695 236.668 127.895 236.668 129.159V133.271H234.94V125.079H236.476L236.668 126.311C237.084 125.623 237.74 125.079 239.084 125.079Z" fill="#191919"/>
<path d="M222.558 143.271V177.271" stroke="#9DAAF1" stroke-width="2"/>
<g filter="url(#filter1_d_1_13)">
<rect x="178.308" y="171.853" width="88" height="88" rx="44" fill="white"/>
<path d="M222.28 210.493C216.136 210.493 211.139 205.495 211.139 199.353C211.139 193.21 216.136 188.212 222.28 188.212C228.424 188.212 233.421 193.21 233.421 199.353C233.421 205.495 228.424 210.493 222.28 210.493ZM222.28 191.118C217.739 191.118 214.046 194.813 214.046 199.353C214.046 203.893 217.739 207.587 222.28 207.587C226.821 207.587 230.514 203.893 230.514 199.353C230.514 194.813 226.821 191.118 222.28 191.118Z" fill="#9DAAF1"/>
<path d="M222.28 210.493C216.136 210.493 211.139 205.495 211.139 199.353C211.139 193.21 216.136 188.212 222.28 188.212C228.424 188.212 233.421 193.21 233.421 199.353C233.421 205.495 228.424 210.493 222.28 210.493ZM222.28 191.118C217.739 191.118 214.046 194.813 214.046 199.353C214.046 203.893 217.739 207.587 222.28 207.587C226.821 207.587 230.514 203.893 230.514 199.353C230.514 194.813 226.821 191.118 222.28 191.118Z" fill="#9DAAF1"/>
<path d="M245.108 238.277C243.089 229.101 241.411 223.299 235.108 220.099C231.441 218.273 227.131 217.344 222.308 217.344C217.485 217.344 213.175 218.273 209.497 220.104C203.206 223.299 201.527 229.101 199.509 238.277L196.67 237.652C198.809 227.933 200.765 221.28 208.191 217.508C212.286 215.469 217.031 214.437 222.308 214.437C227.585 214.437 232.331 215.469 236.414 217.503C243.852 221.28 245.808 227.933 247.946 237.652L245.108 238.277ZM237.146 241.628C236.535 236.015 235.937 232.403 235.146 229.549L232.346 230.325C233.093 233.02 233.665 236.493 234.259 241.942L237.146 241.628ZM212.577 230.367L209.8 229.508C208.731 232.968 208.135 237.296 207.569 241.797L210.452 242.158C211.001 237.79 211.576 233.602 212.577 230.367Z" fill="#9DAAF1"/>
</g>
<path d="M1253.31 194.689H1282.71V530.664L1268.01 554.664L1253.31 530.664V194.689Z" fill="white"/>
<rect x="1160.98" y="95.2712" width="214" height="64" rx="4" fill="#9DAAF1"/>
<path d="M1232.88 133.271V122.071H1234.72V133.271H1232.88ZM1242.81 126.215V122.071H1244.54V133.271H1243.04L1242.83 132.039C1242.3 132.759 1241.45 133.367 1240.16 133.367C1237.93 133.367 1236.29 131.799 1236.29 129.175C1236.29 126.647 1237.93 124.983 1240.16 124.983C1241.41 124.983 1242.29 125.495 1242.81 126.215ZM1240.45 131.911C1241.89 131.911 1242.83 130.791 1242.83 129.207C1242.83 127.575 1241.89 126.455 1240.45 126.455C1239.01 126.455 1238.06 127.575 1238.06 129.175C1238.06 130.791 1239.01 131.911 1240.45 131.911ZM1246.41 133.271V122.071H1250.82C1253.16 122.071 1254.69 123.463 1254.69 125.639C1254.69 127.799 1253.16 129.207 1250.82 129.207H1248.25V133.271H1246.41ZM1250.68 123.671H1248.25V127.607H1250.66C1251.97 127.607 1252.82 126.839 1252.82 125.639C1252.82 124.423 1251.99 123.671 1250.68 123.671ZM1264.09 135.351H1262.22C1260.6 133.207 1259.9 130.983 1259.9 128.471C1259.9 126.023 1260.59 123.751 1262.22 121.591H1264.09C1262.3 123.991 1261.61 125.991 1261.61 128.471C1261.61 130.967 1262.28 132.967 1264.09 135.351ZM1275.78 127.671C1275.78 130.951 1273.55 133.367 1270.34 133.367C1267.12 133.367 1264.9 130.951 1264.9 127.671C1264.9 124.391 1267.12 121.975 1270.34 121.975C1273.55 121.975 1275.78 124.391 1275.78 127.671ZM1266.78 127.671C1266.78 130.039 1268.21 131.751 1270.34 131.751C1272.46 131.751 1273.89 130.039 1273.89 127.671C1273.89 125.303 1272.46 123.591 1270.34 123.591C1268.21 123.591 1266.78 125.303 1266.78 127.671ZM1277.22 133.271V122.071H1278.94V129.047L1282.66 125.079H1284.69L1281.6 128.391L1284.88 133.271H1282.83L1280.42 129.655L1278.94 131.191V133.271H1277.22ZM1286.21 131.047V126.599H1284.79V125.079H1286.21V122.791H1287.96V125.079H1289.96V126.599H1287.96V130.871C1287.96 131.511 1288.18 131.751 1288.84 131.751H1290.05V133.271H1288.45C1286.89 133.271 1286.21 132.535 1286.21 131.047ZM1298.55 131.767H1298.9V133.271H1297.99C1296.87 133.271 1296.48 132.775 1296.48 131.959C1295.94 132.791 1295.11 133.367 1293.78 133.367C1291.99 133.367 1290.74 132.487 1290.74 130.967C1290.74 129.287 1291.95 128.343 1294.24 128.343H1296.31V127.847C1296.31 126.935 1295.65 126.375 1294.51 126.375C1293.49 126.375 1292.8 126.855 1292.67 127.575H1290.98C1291.15 125.975 1292.53 124.983 1294.59 124.983C1296.77 124.983 1298.02 126.023 1298.02 127.959V131.239C1298.02 131.655 1298.19 131.767 1298.55 131.767ZM1296.31 129.911V129.623H1294.16C1293.09 129.623 1292.5 130.023 1292.5 130.855C1292.5 131.543 1293.07 132.023 1294.02 132.023C1295.46 132.023 1296.29 131.175 1296.31 129.911ZM1299.2 121.591H1301.06C1302.67 123.735 1303.39 125.959 1303.39 128.471C1303.39 130.919 1302.69 133.191 1301.06 135.351H1299.2C1300.99 132.951 1301.68 130.951 1301.68 128.471C1301.68 125.975 1301.01 123.975 1299.2 121.591Z" fill="#191919"/>
<path d="M1268.11 143.271V177.271" stroke="#9DAAF1" stroke-width="2"/>
<circle cx="1268.01" cy="216.665" r="43.1161" fill="#3F59E4"/>
<path fill-rule="evenodd" clip-rule="evenodd" d="M1270.58 191.878L1269.52 204.614L1269.53 204.615C1269.03 204.556 1268.52 204.522 1268.01 204.522C1267.37 204.522 1266.74 204.569 1266.13 204.662L1265.53 198.485C1265.51 198.292 1265.67 198.124 1265.86 198.126H1266.94L1266.42 191.878C1266.41 191.686 1266.56 191.521 1266.76 191.521H1270.24C1270.44 191.521 1270.59 191.686 1270.58 191.878H1270.58ZM1261.78 192.51C1261.73 192.324 1261.52 192.222 1261.34 192.288L1258.06 193.458C1257.88 193.524 1257.79 193.731 1257.87 193.906L1260.54 199.603L1259.53 199.962C1259.34 200.028 1259.25 200.238 1259.34 200.414L1262.05 206.018C1263.04 205.486 1264.1 205.085 1265.23 204.833L1261.78 192.511L1261.78 192.51ZM1253.73 196.057L1261.27 206.477L1261.27 206.478C1260.32 207.087 1259.45 207.822 1258.7 208.66L1254.19 204.303C1254.05 204.167 1254.06 203.94 1254.21 203.816L1255.04 203.139L1250.55 198.679C1250.41 198.542 1250.42 198.319 1250.57 198.195L1253.24 195.995C1253.39 195.872 1253.62 195.901 1253.73 196.057V196.057ZM1247.41 202.089C1247.25 201.98 1247.02 202.029 1246.92 202.195L1245.18 205.157C1245.08 205.324 1245.15 205.537 1245.33 205.62L1251.1 208.305L1250.56 209.218C1250.46 209.386 1250.53 209.602 1250.72 209.683L1256.47 212.263C1256.89 211.214 1257.44 210.236 1258.12 209.352L1247.41 202.09V202.089ZM1243.15 210.14C1243.19 209.95 1243.38 209.83 1243.57 209.878L1256.17 213.107C1255.84 214.152 1255.66 215.256 1255.64 216.4L1249.33 215.903C1249.13 215.888 1248.99 215.709 1249.02 215.517L1249.21 214.479L1242.85 213.894C1242.65 213.875 1242.51 213.697 1242.55 213.507L1243.15 210.139L1243.15 210.14ZM1242.68 218.487C1242.48 218.506 1242.34 218.683 1242.38 218.873L1242.98 222.241C1243.02 222.431 1243.21 222.552 1243.4 222.503L1249.58 220.918L1249.76 221.957C1249.8 222.148 1249.99 222.269 1250.18 222.217L1256.28 220.566C1255.92 219.53 1255.7 218.433 1255.64 217.291L1242.68 218.488L1242.68 218.487ZM1244.69 227.338C1244.59 227.171 1244.66 226.958 1244.84 226.876L1256.61 221.403C1257.05 222.439 1257.65 223.399 1258.35 224.263L1253.2 227.86C1253.04 227.973 1252.81 227.925 1252.71 227.756L1252.18 226.842L1246.92 230.406C1246.76 230.516 1246.54 230.467 1246.44 230.3L1244.69 227.338L1244.69 227.338ZM1258.95 224.938L1249.8 234.033C1249.66 234.169 1249.67 234.393 1249.82 234.517L1252.49 236.714C1252.64 236.838 1252.87 236.809 1252.98 236.653L1256.68 231.541L1257.5 232.221C1257.65 232.346 1257.88 232.316 1258 232.156L1261.59 227.049C1260.61 226.467 1259.73 225.754 1258.95 224.941L1258.95 224.939V224.938ZM1257.14 239.541C1256.96 239.475 1256.87 239.269 1256.95 239.093H1256.95L1262.38 227.478C1263.38 227.979 1264.46 228.353 1265.59 228.573L1264 234.579C1263.95 234.767 1263.74 234.873 1263.56 234.805L1262.55 234.442L1260.86 240.487C1260.8 240.672 1260.6 240.775 1260.42 240.708L1257.14 239.54V239.541ZM1266.49 228.714L1265.44 241.451C1265.42 241.643 1265.58 241.808 1265.77 241.808H1269.26C1269.46 241.808 1269.61 241.643 1269.59 241.451L1269.08 235.203H1270.15C1270.35 235.206 1270.51 235.038 1270.49 234.845L1269.89 228.668C1269.28 228.76 1268.65 228.808 1268.01 228.808C1267.49 228.808 1266.99 228.774 1266.49 228.714L1266.49 228.714ZM1279.06 194.234C1279.14 194.059 1279.06 193.853 1278.87 193.786L1275.6 192.617C1275.41 192.552 1275.21 192.654 1275.16 192.839L1273.47 198.884L1272.46 198.521C1272.27 198.454 1272.07 198.559 1272.02 198.747L1270.42 204.752C1271.56 204.973 1272.63 205.347 1273.63 205.847L1279.06 194.232L1279.06 194.234ZM1286.22 199.295L1277.06 208.39L1277.06 208.386C1276.29 207.573 1275.4 206.861 1274.43 206.279L1278.02 201.172C1278.13 201.012 1278.36 200.981 1278.51 201.107L1279.33 201.787L1283.03 196.675C1283.15 196.519 1283.37 196.489 1283.52 196.613L1286.19 198.811C1286.34 198.935 1286.35 199.158 1286.22 199.295L1286.22 199.295ZM1291.17 206.452C1291.35 206.369 1291.42 206.157 1291.32 205.99L1289.58 203.027C1289.48 202.86 1289.26 202.812 1289.1 202.921L1283.84 206.485L1283.3 205.571C1283.21 205.403 1282.98 205.354 1282.82 205.467L1277.66 209.065C1278.37 209.929 1278.96 210.889 1279.41 211.924L1291.18 206.452H1291.17ZM1293.03 211.088L1293.64 214.456L1293.64 214.458C1293.67 214.648 1293.53 214.825 1293.34 214.844L1280.37 216.038C1280.31 214.897 1280.09 213.801 1279.73 212.764L1285.83 211.112C1286.02 211.06 1286.21 211.181 1286.25 211.373L1286.43 212.411L1292.62 210.826C1292.8 210.777 1293 210.898 1293.03 211.088H1293.03ZM1292.45 223.449C1292.64 223.498 1292.83 223.378 1292.86 223.187L1293.47 219.82C1293.5 219.63 1293.36 219.452 1293.17 219.434L1286.8 218.849L1286.99 217.81C1287.03 217.618 1286.89 217.439 1286.69 217.424L1280.38 216.927C1280.35 218.071 1280.17 219.176 1279.84 220.22L1292.45 223.447V223.449L1292.45 223.449ZM1289.09 231.133C1288.99 231.298 1288.77 231.347 1288.61 231.239L1288.61 231.238L1277.89 223.977C1278.57 223.093 1279.13 222.114 1279.54 221.065L1285.3 223.646C1285.48 223.727 1285.55 223.943 1285.45 224.111L1284.91 225.024L1290.68 227.709C1290.86 227.792 1290.93 228.004 1290.83 228.171L1289.09 231.134V231.133ZM1274.74 226.851L1282.28 237.271C1282.4 237.428 1282.62 237.457 1282.77 237.332L1285.44 235.133C1285.59 235.009 1285.6 234.785 1285.47 234.649L1280.97 230.189L1281.8 229.511C1281.95 229.388 1281.96 229.161 1281.82 229.024L1277.31 224.667C1276.56 225.505 1275.7 226.24 1274.74 226.849H1274.74V226.851ZM1274.68 241.039C1274.49 241.105 1274.29 241.002 1274.24 240.817L1270.78 228.496C1271.91 228.243 1272.98 227.842 1273.96 227.311L1276.68 232.914C1276.76 233.091 1276.67 233.301 1276.49 233.367L1275.48 233.725L1278.14 239.422C1278.22 239.596 1278.14 239.803 1277.95 239.869L1274.67 241.039H1274.68Z" fill="white"/>
<path d="M434.191 264.838V263.814H436.447V275.014H434.143V267.766C433.967 267.814 433.775 267.83 433.535 267.83H431.663V265.926H433.327C433.967 265.926 434.191 265.494 434.191 264.838ZM438.034 273.782C438.034 272.998 438.61 272.438 439.394 272.438C440.162 272.438 440.754 272.998 440.754 273.782C440.754 274.55 440.162 275.11 439.394 275.11C438.61 275.11 438.034 274.55 438.034 273.782ZM446.371 270.23V263.814H447.763V270.31C447.763 272.63 448.691 273.83 450.627 273.83C452.595 273.83 453.523 272.63 453.523 270.31V263.814H454.915V270.23C454.915 273.43 453.427 275.11 450.627 275.11C447.827 275.11 446.371 273.43 446.371 270.23ZM456.501 272.326H457.845C457.893 273.286 458.741 273.99 460.101 273.99C461.253 273.99 462.069 273.494 462.069 272.742C462.069 271.718 461.173 271.638 459.957 271.494C458.133 271.27 456.677 270.902 456.677 269.206C456.677 267.718 458.037 266.742 459.877 266.758C461.733 266.774 463.077 267.638 463.205 269.334H461.861C461.765 268.502 460.997 267.878 459.877 267.878C458.741 267.878 457.973 268.358 457.973 269.11C457.973 270.006 458.837 270.118 460.021 270.262C461.877 270.486 463.365 270.838 463.365 272.646C463.365 274.166 461.909 275.11 460.101 275.11C457.989 275.11 456.533 274.118 456.501 272.326ZM468.582 275.11C466.134 275.11 464.534 273.43 464.534 270.934C464.534 268.454 466.102 266.758 468.406 266.758C470.71 266.758 472.214 268.214 472.278 270.63C472.278 270.806 472.262 270.998 472.246 271.19H465.91V271.302C465.958 272.854 466.934 273.942 468.486 273.942C469.638 273.942 470.534 273.334 470.806 272.278H472.134C471.814 273.91 470.47 275.11 468.582 275.11ZM465.99 270.102H470.87C470.742 268.694 469.782 267.91 468.422 267.91C467.222 267.91 466.118 268.774 465.99 270.102ZM477.551 266.854H477.919V268.134H477.263C475.551 268.134 475.087 269.558 475.087 270.854V275.014H473.775V266.854H474.911L475.087 268.086C475.471 267.462 476.095 266.854 477.551 266.854ZM482.907 272.326H484.251C484.299 273.286 485.147 273.99 486.507 273.99C487.659 273.99 488.475 273.494 488.475 272.742C488.475 271.718 487.579 271.638 486.363 271.494C484.539 271.27 483.083 270.902 483.083 269.206C483.083 267.718 484.443 266.742 486.283 266.758C488.139 266.774 489.483 267.638 489.611 269.334H488.267C488.171 268.502 487.403 267.878 486.283 267.878C485.147 267.878 484.379 268.358 484.379 269.11C484.379 270.006 485.243 270.118 486.427 270.262C488.283 270.486 489.771 270.838 489.771 272.646C489.771 274.166 488.315 275.11 486.507 275.11C484.395 275.11 482.939 274.118 482.907 272.326ZM491.9 265.478C491.42 265.478 491.052 265.126 491.052 264.63C491.052 264.134 491.42 263.782 491.9 263.782C492.38 263.782 492.748 264.134 492.748 264.63C492.748 265.126 492.38 265.478 491.9 265.478ZM491.228 275.014V266.854H492.54V275.014H491.228ZM500.769 268.262L500.945 266.854H502.081V274.614C502.081 276.966 500.833 278.31 498.033 278.31C495.953 278.31 494.497 277.334 494.289 275.542H495.633C495.857 276.566 496.769 277.142 498.129 277.142C499.841 277.142 500.769 276.342 500.769 274.566V273.606C500.225 274.534 499.345 275.11 497.969 275.11C495.713 275.11 494.049 273.59 494.049 270.934C494.049 268.438 495.713 266.758 497.969 266.758C499.345 266.758 500.257 267.35 500.769 268.262ZM498.097 273.942C499.697 273.942 500.785 272.71 500.785 270.966C500.785 269.174 499.697 267.926 498.097 267.926C496.481 267.926 495.393 269.158 495.393 270.934C495.393 272.71 496.481 273.942 498.097 273.942ZM507.868 266.758C509.708 266.758 511.164 267.766 511.164 270.47V275.014H509.852V270.55C509.852 268.854 509.068 267.958 507.644 267.958C506.108 267.958 505.18 269.094 505.18 270.934V275.014H503.868V266.854H505.004L505.18 267.958C505.66 267.334 506.492 266.758 507.868 266.758ZM512.501 272.326H513.845C513.893 273.286 514.741 273.99 516.101 273.99C517.253 273.99 518.069 273.494 518.069 272.742C518.069 271.718 517.173 271.638 515.957 271.494C514.133 271.27 512.677 270.902 512.677 269.206C512.677 267.718 514.037 266.742 515.877 266.758C517.733 266.774 519.077 267.638 519.205 269.334H517.861C517.765 268.502 516.997 267.878 515.877 267.878C514.741 267.878 513.973 268.358 513.973 269.11C513.973 270.006 514.837 270.118 516.021 270.262C517.877 270.486 519.365 270.838 519.365 272.646C519.365 274.166 517.909 275.11 516.101 275.11C513.989 275.11 512.533 274.118 512.501 272.326ZM525.681 265.478C525.201 265.478 524.833 265.126 524.833 264.63C524.833 264.134 525.201 263.782 525.681 263.782C526.161 263.782 526.529 264.134 526.529 264.63C526.529 265.126 526.161 265.478 525.681 265.478ZM525.009 275.014V266.854H526.321V275.014H525.009ZM532.118 266.758C533.958 266.758 535.414 267.766 535.414 270.47V275.014H534.102V270.55C534.102 268.854 533.318 267.958 531.894 267.958C530.358 267.958 529.43 269.094 529.43 270.934V275.014H528.118V266.854H529.254L529.43 267.958C529.91 267.334 530.742 266.758 532.118 266.758Z" fill="#2E40A5"/>
<path d="M739.792 307.014C739.792 309.96 742.18 312.348 745.125 312.348C748.071 312.348 750.459 309.96 750.459 307.014C750.459 304.069 748.071 301.681 745.125 301.681C742.18 301.681 739.792 304.069 739.792 307.014ZM222.601 285.014V286.014H725.125V285.014V284.014H222.601V285.014ZM745.125 305.014H744.125V307.014H745.125H746.125V305.014H745.125ZM725.125 285.014V286.014C735.619 286.014 744.125 294.521 744.125 305.014H745.125H746.125C746.125 293.417 736.723 284.014 725.125 284.014V285.014Z" fill="#F9C503"/>
<path d="M775.006 379.326C776.206 379.566 777.182 380.35 777.182 381.982C777.182 383.918 775.518 385.246 772.878 385.246C770.238 385.246 768.558 383.902 768.558 381.502H770.846C770.878 382.766 771.774 383.438 772.99 383.438C774.03 383.438 774.846 382.846 774.846 381.838C774.846 380.958 774.19 380.398 772.894 380.398H771.79V378.558H772.766C773.998 378.558 774.622 377.934 774.622 377.054C774.622 376.142 773.854 375.662 772.894 375.662C771.806 375.662 771.038 376.334 771.006 377.374H768.75C768.782 375.278 770.478 373.854 772.926 373.854C775.454 373.854 776.958 375.038 776.958 376.878C776.958 378.238 776.11 379.038 775.006 379.326ZM778.051 383.918C778.051 383.134 778.627 382.574 779.411 382.574C780.179 382.574 780.771 383.134 780.771 383.918C780.771 384.686 780.179 385.246 779.411 385.246C778.627 385.246 778.051 384.686 778.051 383.918ZM786.453 385.15V373.95H790.741C792.981 373.95 794.469 375.294 794.469 377.39C794.469 378.958 793.525 380.174 792.085 380.574L794.597 385.15H793.029L790.661 380.846H787.845V385.15H786.453ZM790.645 375.23H787.845V379.566H790.629C792.101 379.566 793.045 378.702 793.045 377.39C793.045 376.078 792.101 375.23 790.645 375.23ZM799.38 385.246C796.932 385.246 795.332 383.566 795.332 381.07C795.332 378.59 796.9 376.894 799.204 376.894C801.508 376.894 803.012 378.35 803.076 380.766C803.076 380.942 803.06 381.134 803.044 381.326H796.708V381.438C796.756 382.99 797.732 384.078 799.284 384.078C800.436 384.078 801.332 383.47 801.604 382.414H802.932C802.612 384.046 801.268 385.246 799.38 385.246ZM796.788 380.238H801.668C801.54 378.83 800.58 378.046 799.22 378.046C798.02 378.046 796.916 378.91 796.788 380.238ZM805.087 383.022V378.19H803.615V376.99H805.087V374.702H806.399V376.99H808.511V378.19H806.399V383.006C806.399 383.694 806.639 383.95 807.343 383.95H808.639V385.15H807.215C805.647 385.15 805.087 384.462 805.087 383.022ZM815.488 381.07V376.99H816.8V385.15H815.664L815.488 384.062C815.008 384.67 814.224 385.246 812.88 385.246C811.088 385.246 809.664 384.238 809.664 381.534V376.99H810.976V381.454C810.976 383.15 811.744 384.046 813.104 384.046C814.592 384.046 815.488 382.91 815.488 381.07ZM822.365 376.99H822.733V378.27H822.077C820.365 378.27 819.901 379.694 819.901 380.99V385.15H818.589V376.99H819.725L819.901 378.222C820.285 377.598 820.909 376.99 822.365 376.99ZM827.87 376.894C829.71 376.894 831.166 377.902 831.166 380.606V385.15H829.854V380.686C829.854 378.99 829.07 378.094 827.646 378.094C826.11 378.094 825.182 379.23 825.182 381.07V385.15H823.87V376.99H825.006L825.182 378.094C825.662 377.47 826.494 376.894 827.87 376.894ZM832.503 382.462H833.847C833.895 383.422 834.743 384.126 836.103 384.126C837.255 384.126 838.071 383.63 838.071 382.878C838.071 381.854 837.175 381.774 835.959 381.63C834.135 381.406 832.679 381.038 832.679 379.342C832.679 377.854 834.039 376.878 835.879 376.894C837.735 376.91 839.079 377.774 839.207 379.47H837.863C837.767 378.638 836.999 378.014 835.879 378.014C834.743 378.014 833.975 378.494 833.975 379.246C833.975 380.142 834.839 380.254 836.023 380.398C837.879 380.622 839.367 380.974 839.367 382.782C839.367 384.302 837.911 385.246 836.103 385.246C833.991 385.246 832.535 384.254 832.503 382.462ZM844.755 381.486H846.195C846.307 382.99 847.475 383.982 849.187 383.982C850.691 383.982 851.763 383.294 851.763 382.078C851.763 380.686 850.387 380.398 848.691 380.11C846.883 379.806 845.027 379.214 845.027 377.038C845.027 375.134 846.579 373.854 848.851 373.854C851.347 373.854 852.883 375.246 853.011 377.262H851.571C851.411 375.966 850.371 375.118 848.851 375.118C847.395 375.118 846.419 375.758 846.419 376.958C846.419 378.302 847.779 378.574 849.459 378.862C851.283 379.166 853.155 379.774 853.155 381.95C853.155 383.886 851.523 385.246 849.171 385.246C846.435 385.246 844.835 383.694 844.755 381.486ZM855.043 385.15H853.603L857.875 373.95H859.523L863.779 385.15H862.291L861.107 382.126H856.227L855.043 385.15ZM858.659 375.47L856.643 380.862H860.691L858.659 375.47ZM865.046 385.15V373.95H866.806L870.774 383.246L874.694 373.95H876.422V385.15H875.062V376.318L871.35 385.15H870.118L866.406 376.318V385.15H865.046ZM885.089 385.15H878.593V373.95H879.985V383.87H885.089V385.15ZM897.711 383.95H898.127V385.15H897.407C896.319 385.15 895.951 384.686 895.935 383.886C895.423 384.622 894.607 385.246 893.199 385.246C891.407 385.246 890.191 384.35 890.191 382.862C890.191 381.23 891.327 380.318 893.471 380.318H895.871V379.758C895.871 378.702 895.119 378.062 893.839 378.062C892.687 378.062 891.919 378.606 891.759 379.438H890.447C890.639 377.838 891.935 376.894 893.903 376.894C895.983 376.894 897.183 377.934 897.183 379.838V383.406C897.183 383.838 897.343 383.95 897.711 383.95ZM895.871 381.822V381.422H893.343C892.175 381.422 891.519 381.854 891.519 382.782C891.519 383.582 892.207 384.126 893.295 384.126C894.927 384.126 895.871 383.182 895.871 381.822ZM898.8 382.462H900.144C900.192 383.422 901.04 384.126 902.4 384.126C903.552 384.126 904.368 383.63 904.368 382.878C904.368 381.854 903.472 381.774 902.256 381.63C900.432 381.406 898.976 381.038 898.976 379.342C898.976 377.854 900.336 376.878 902.176 376.894C904.032 376.91 905.376 377.774 905.504 379.47H904.16C904.064 378.638 903.296 378.014 902.176 378.014C901.04 378.014 900.272 378.494 900.272 379.246C900.272 380.142 901.136 380.254 902.32 380.398C904.176 380.622 905.664 380.974 905.664 382.782C905.664 384.302 904.208 385.246 902.4 385.246C900.288 385.246 898.832 384.254 898.8 382.462ZM906.628 382.462H907.972C908.02 383.422 908.868 384.126 910.228 384.126C911.38 384.126 912.196 383.63 912.196 382.878C912.196 381.854 911.3 381.774 910.084 381.63C908.26 381.406 906.804 381.038 906.804 379.342C906.804 377.854 908.164 376.878 910.004 376.894C911.86 376.91 913.204 377.774 913.332 379.47H911.988C911.892 378.638 911.124 378.014 910.004 378.014C908.868 378.014 908.1 378.494 908.1 379.246C908.1 380.142 908.964 380.254 910.148 380.398C912.004 380.622 913.492 380.974 913.492 382.782C913.492 384.302 912.036 385.246 910.228 385.246C908.116 385.246 906.66 384.254 906.628 382.462ZM918.708 385.246C916.26 385.246 914.66 383.566 914.66 381.07C914.66 378.59 916.228 376.894 918.532 376.894C920.836 376.894 922.34 378.35 922.404 380.766C922.404 380.942 922.388 381.134 922.372 381.326H916.036V381.438C916.084 382.99 917.06 384.078 918.612 384.078C919.764 384.078 920.66 383.47 920.932 382.414H922.26C921.94 384.046 920.596 385.246 918.708 385.246ZM916.116 380.238H920.996C920.868 378.83 919.908 378.046 918.548 378.046C917.348 378.046 916.244 378.91 916.116 380.238ZM927.677 376.99H928.045V378.27H927.389C925.677 378.27 925.213 379.694 925.213 380.99V385.15H923.901V376.99H925.037L925.213 378.222C925.597 377.598 926.221 376.99 927.677 376.99ZM930.056 383.022V378.19H928.584V376.99H930.056V374.702H931.368V376.99H933.48V378.19H931.368V383.006C931.368 383.694 931.608 383.95 932.312 383.95H933.608V385.15H932.184C930.616 385.15 930.056 384.462 930.056 383.022ZM935.417 375.614C934.937 375.614 934.569 375.262 934.569 374.766C934.569 374.27 934.937 373.918 935.417 373.918C935.897 373.918 936.265 374.27 936.265 374.766C936.265 375.262 935.897 375.614 935.417 375.614ZM934.745 385.15V376.99H936.057V385.15H934.745ZM941.614 385.246C939.23 385.246 937.566 383.55 937.566 381.07C937.566 378.59 939.23 376.894 941.614 376.894C943.998 376.894 945.662 378.59 945.662 381.07C945.662 383.55 943.998 385.246 941.614 385.246ZM941.614 384.078C943.23 384.078 944.318 382.814 944.318 381.07C944.318 379.326 943.23 378.062 941.614 378.062C939.998 378.062 938.91 379.326 938.91 381.07C938.91 382.814 939.998 384.078 941.614 384.078ZM951.167 376.894C953.007 376.894 954.463 377.902 954.463 380.606V385.15H953.151V380.686C953.151 378.99 952.367 378.094 950.943 378.094C949.407 378.094 948.479 379.23 948.479 381.07V385.15H947.167V376.99H948.303L948.479 378.094C948.959 377.47 949.791 376.894 951.167 376.894ZM964.099 376.99H964.467V378.27H963.811C962.099 378.27 961.635 379.694 961.635 380.99V385.15H960.323V376.99H961.459L961.635 378.222C962.019 377.598 962.643 376.99 964.099 376.99ZM968.896 385.246C966.448 385.246 964.848 383.566 964.848 381.07C964.848 378.59 966.416 376.894 968.72 376.894C971.024 376.894 972.528 378.35 972.592 380.766C972.592 380.942 972.576 381.134 972.56 381.326H966.224V381.438C966.272 382.99 967.248 384.078 968.8 384.078C969.952 384.078 970.848 383.47 971.12 382.414H972.448C972.128 384.046 970.784 385.246 968.896 385.246ZM966.304 380.238H971.184C971.056 378.83 970.096 378.046 968.736 378.046C967.536 378.046 966.432 378.91 966.304 380.238ZM973.721 382.462H975.065C975.113 383.422 975.961 384.126 977.321 384.126C978.473 384.126 979.289 383.63 979.289 382.878C979.289 381.854 978.393 381.774 977.177 381.63C975.353 381.406 973.897 381.038 973.897 379.342C973.897 377.854 975.257 376.878 977.097 376.894C978.953 376.91 980.297 377.774 980.425 379.47H979.081C978.985 378.638 978.217 378.014 977.097 378.014C975.961 378.014 975.193 378.494 975.193 379.246C975.193 380.142 976.057 380.254 977.241 380.398C979.097 380.622 980.585 380.974 980.585 382.782C980.585 384.302 979.129 385.246 977.321 385.246C975.209 385.246 973.753 384.254 973.721 382.462ZM986.154 376.894C988.41 376.894 990.074 378.414 990.074 381.07C990.074 383.566 988.41 385.246 986.154 385.246C984.778 385.246 983.85 384.686 983.354 383.902V388.35H982.042V376.99H983.178L983.354 378.302C983.898 377.55 984.778 376.894 986.154 376.894ZM986.026 384.078C987.642 384.078 988.73 382.846 988.73 381.07C988.73 379.294 987.642 378.062 986.026 378.062C984.426 378.062 983.338 379.294 983.338 381.038C983.338 382.83 984.426 384.078 986.026 384.078ZM995.333 385.246C992.949 385.246 991.285 383.55 991.285 381.07C991.285 378.59 992.949 376.894 995.333 376.894C997.717 376.894 999.381 378.59 999.381 381.07C999.381 383.55 997.717 385.246 995.333 385.246ZM995.333 384.078C996.949 384.078 998.037 382.814 998.037 381.07C998.037 379.326 996.949 378.062 995.333 378.062C993.717 378.062 992.629 379.326 992.629 381.07C992.629 382.814 993.717 384.078 995.333 384.078ZM1004.89 376.894C1006.73 376.894 1008.18 377.902 1008.18 380.606V385.15H1006.87V380.686C1006.87 378.99 1006.09 378.094 1004.66 378.094C1003.13 378.094 1002.2 379.23 1002.2 381.07V385.15H1000.89V376.99H1002.02L1002.2 378.094C1002.68 377.47 1003.51 376.894 1004.89 376.894ZM1009.52 382.462H1010.86C1010.91 383.422 1011.76 384.126 1013.12 384.126C1014.27 384.126 1015.09 383.63 1015.09 382.878C1015.09 381.854 1014.19 381.774 1012.97 381.63C1011.15 381.406 1009.69 381.038 1009.69 379.342C1009.69 377.854 1011.05 376.878 1012.89 376.894C1014.75 376.91 1016.09 377.774 1016.22 379.47H1014.88C1014.78 378.638 1014.01 378.014 1012.89 378.014C1011.76 378.014 1010.99 378.494 1010.99 379.246C1010.99 380.142 1011.85 380.254 1013.04 380.398C1014.89 380.622 1016.38 380.974 1016.38 382.782C1016.38 384.302 1014.93 385.246 1013.12 385.246C1011.01 385.246 1009.55 384.254 1009.52 382.462ZM1021.6 385.246C1019.15 385.246 1017.55 383.566 1017.55 381.07C1017.55 378.59 1019.12 376.894 1021.42 376.894C1023.73 376.894 1025.23 378.35 1025.29 380.766C1025.29 380.942 1025.28 381.134 1025.26 381.326H1018.93V381.438C1018.97 382.99 1019.95 384.078 1021.5 384.078C1022.65 384.078 1023.55 383.47 1023.82 382.414H1025.15C1024.83 384.046 1023.49 385.246 1021.6 385.246ZM1019.01 380.238H1023.89C1023.76 378.83 1022.8 378.046 1021.44 378.046C1020.24 378.046 1019.13 378.91 1019.01 380.238ZM1038.2 383.95H1038.61V385.15H1037.89C1036.8 385.15 1036.44 384.686 1036.42 383.886C1035.91 384.622 1035.09 385.246 1033.68 385.246C1031.89 385.246 1030.68 384.35 1030.68 382.862C1030.68 381.23 1031.81 380.318 1033.96 380.318H1036.36V379.758C1036.36 378.702 1035.6 378.062 1034.32 378.062C1033.17 378.062 1032.4 378.606 1032.24 379.438H1030.93C1031.12 377.838 1032.42 376.894 1034.39 376.894C1036.47 376.894 1037.67 377.934 1037.67 379.838V383.406C1037.67 383.838 1037.83 383.95 1038.2 383.95ZM1036.36 381.822V381.422H1033.83C1032.66 381.422 1032 381.854 1032 382.782C1032 383.582 1032.69 384.126 1033.78 384.126C1035.41 384.126 1036.36 383.182 1036.36 381.822ZM1046.93 383.95H1048.36V385.15H1046.85C1045.28 385.15 1044.72 384.462 1044.72 383.022V378.19H1041.54V385.15H1040.23V378.19H1038.76V376.99H1040.23V376.078C1040.23 374.638 1040.84 373.95 1042.36 373.95H1043.6V375.15H1042.44C1041.78 375.15 1041.54 375.422 1041.54 376.046V376.99H1044.72V374.702H1046.04V376.99H1048.1V378.19H1046.04V383.006C1046.04 383.694 1046.28 383.95 1046.93 383.95ZM1053.05 385.246C1050.6 385.246 1049 383.566 1049 381.07C1049 378.59 1050.57 376.894 1052.88 376.894C1055.18 376.894 1056.68 378.35 1056.75 380.766C1056.75 380.942 1056.73 381.134 1056.72 381.326H1050.38V381.438C1050.43 382.99 1051.4 384.078 1052.96 384.078C1054.11 384.078 1055 383.47 1055.28 382.414H1056.6C1056.28 384.046 1054.94 385.246 1053.05 385.246ZM1050.46 380.238H1055.34C1055.21 378.83 1054.25 378.046 1052.89 378.046C1051.69 378.046 1050.59 378.91 1050.46 380.238ZM1062.02 376.99H1062.39V378.27H1061.73C1060.02 378.27 1059.56 379.694 1059.56 380.99V385.15H1058.24V376.99H1059.38L1059.56 378.222C1059.94 377.598 1060.56 376.99 1062.02 376.99ZM1073.43 381.07V376.99H1074.74V385.15H1073.6L1073.43 384.062C1072.95 384.67 1072.16 385.246 1070.82 385.246C1069.03 385.246 1067.6 384.238 1067.6 381.534V376.99H1068.91V381.454C1068.91 383.15 1069.68 384.046 1071.04 384.046C1072.53 384.046 1073.43 382.91 1073.43 381.07ZM1076.19 382.462H1077.53C1077.58 383.422 1078.43 384.126 1079.79 384.126C1080.94 384.126 1081.76 383.63 1081.76 382.878C1081.76 381.854 1080.86 381.774 1079.65 381.63C1077.82 381.406 1076.37 381.038 1076.37 379.342C1076.37 377.854 1077.73 376.878 1079.57 376.894C1081.42 376.91 1082.77 377.774 1082.89 379.47H1081.55C1081.45 378.638 1080.69 378.014 1079.57 378.014C1078.43 378.014 1077.66 378.494 1077.66 379.246C1077.66 380.142 1078.53 380.254 1079.71 380.398C1081.57 380.622 1083.05 380.974 1083.05 382.782C1083.05 384.302 1081.6 385.246 1079.79 385.246C1077.68 385.246 1076.22 384.254 1076.19 382.462ZM1088.27 385.246C1085.82 385.246 1084.22 383.566 1084.22 381.07C1084.22 378.59 1085.79 376.894 1088.09 376.894C1090.4 376.894 1091.9 378.35 1091.97 380.766C1091.97 380.942 1091.95 381.134 1091.93 381.326H1085.6V381.438C1085.65 382.99 1086.62 384.078 1088.17 384.078C1089.33 384.078 1090.22 383.47 1090.49 382.414H1091.82C1091.5 384.046 1090.16 385.246 1088.27 385.246ZM1085.68 380.238H1090.56C1090.43 378.83 1089.47 378.046 1088.11 378.046C1086.91 378.046 1085.81 378.91 1085.68 380.238ZM1097.24 376.99H1097.61V378.27H1096.95C1095.24 378.27 1094.78 379.694 1094.78 380.99V385.15H1093.46V376.99H1094.6L1094.78 378.222C1095.16 377.598 1095.78 376.99 1097.24 376.99ZM1102.6 382.462H1103.94C1103.99 383.422 1104.84 384.126 1106.2 384.126C1107.35 384.126 1108.16 383.63 1108.16 382.878C1108.16 381.854 1107.27 381.774 1106.05 381.63C1104.23 381.406 1102.77 381.038 1102.77 379.342C1102.77 377.854 1104.13 376.878 1105.97 376.894C1107.83 376.91 1109.17 377.774 1109.3 379.47H1107.96C1107.86 378.638 1107.09 378.014 1105.97 378.014C1104.84 378.014 1104.07 378.494 1104.07 379.246C1104.07 380.142 1104.93 380.254 1106.12 380.398C1107.97 380.622 1109.46 380.974 1109.46 382.782C1109.46 384.302 1108 385.246 1106.2 385.246C1104.08 385.246 1102.63 384.254 1102.6 382.462ZM1116.63 381.07V376.99H1117.94V385.15H1116.8L1116.63 384.062C1116.15 384.67 1115.36 385.246 1114.02 385.246C1112.23 385.246 1110.8 384.238 1110.8 381.534V376.99H1112.12V381.454C1112.12 383.15 1112.88 384.046 1114.24 384.046C1115.73 384.046 1116.63 382.91 1116.63 381.07ZM1123.39 385.246C1121.01 385.246 1119.44 383.63 1119.44 381.086C1119.44 378.59 1121.06 376.894 1123.43 376.894C1125.43 376.894 1126.69 378.014 1127.03 379.806H1125.65C1125.41 378.718 1124.61 378.062 1123.41 378.062C1121.84 378.062 1120.79 379.31 1120.79 381.086C1120.79 382.862 1121.84 384.078 1123.41 384.078C1124.58 384.078 1125.38 383.406 1125.63 382.366H1127.03C1126.71 384.126 1125.38 385.246 1123.39 385.246ZM1132.13 385.246C1129.74 385.246 1128.18 383.63 1128.18 381.086C1128.18 378.59 1129.79 376.894 1132.16 376.894C1134.16 376.894 1135.42 378.014 1135.76 379.806H1134.38C1134.14 378.718 1133.34 378.062 1132.14 378.062C1130.58 378.062 1129.52 379.31 1129.52 381.086C1129.52 382.862 1130.58 384.078 1132.14 384.078C1133.31 384.078 1134.11 383.406 1134.37 382.366H1135.76C1135.44 384.126 1134.11 385.246 1132.13 385.246ZM1140.96 385.246C1138.51 385.246 1136.91 383.566 1136.91 381.07C1136.91 378.59 1138.48 376.894 1140.78 376.894C1143.09 376.894 1144.59 378.35 1144.65 380.766C1144.65 380.942 1144.64 381.134 1144.62 381.326H1138.29V381.438C1138.33 382.99 1139.31 384.078 1140.86 384.078C1142.01 384.078 1142.91 383.47 1143.18 382.414H1144.51C1144.19 384.046 1142.85 385.246 1140.96 385.246ZM1138.37 380.238H1143.25C1143.12 378.83 1142.16 378.046 1140.8 378.046C1139.6 378.046 1138.49 378.91 1138.37 380.238ZM1145.78 382.462H1147.13C1147.18 383.422 1148.02 384.126 1149.38 384.126C1150.54 384.126 1151.35 383.63 1151.35 382.878C1151.35 381.854 1150.46 381.774 1149.24 381.63C1147.42 381.406 1145.96 381.038 1145.96 379.342C1145.96 377.854 1147.32 376.878 1149.16 376.894C1151.02 376.91 1152.36 377.774 1152.49 379.47H1151.14C1151.05 378.638 1150.28 378.014 1149.16 378.014C1148.02 378.014 1147.26 378.494 1147.26 379.246C1147.26 380.142 1148.12 380.254 1149.3 380.398C1151.16 380.622 1152.65 380.974 1152.65 382.782C1152.65 384.302 1151.19 385.246 1149.38 385.246C1147.27 385.246 1145.82 384.254 1145.78 382.462ZM1153.61 382.462H1154.96C1155 383.422 1155.85 384.126 1157.21 384.126C1158.36 384.126 1159.18 383.63 1159.18 382.878C1159.18 381.854 1158.28 381.774 1157.07 381.63C1155.24 381.406 1153.79 381.038 1153.79 379.342C1153.79 377.854 1155.15 376.878 1156.99 376.894C1158.84 376.91 1160.19 377.774 1160.32 379.47H1158.97C1158.88 378.638 1158.11 378.014 1156.99 378.014C1155.85 378.014 1155.08 378.494 1155.08 379.246C1155.08 380.142 1155.95 380.254 1157.13 380.398C1158.99 380.622 1160.48 380.974 1160.48 382.782C1160.48 384.302 1159.02 385.246 1157.21 385.246C1155.1 385.246 1153.64 384.254 1153.61 382.462ZM1161.07 378.19V376.99H1162.54V376.078C1162.54 374.638 1163.15 373.95 1164.67 373.95H1166.16V375.15H1164.75C1164.09 375.15 1163.85 375.422 1163.85 376.046V376.99H1166.16V378.19H1163.85V385.15H1162.54V378.19H1161.07ZM1172.82 381.07V376.99H1174.13V385.15H1172.99L1172.82 384.062C1172.34 384.67 1171.55 385.246 1170.21 385.246C1168.42 385.246 1166.99 384.238 1166.99 381.534V376.99H1168.3V381.454C1168.3 383.15 1169.07 384.046 1170.43 384.046C1171.92 384.046 1172.82 382.91 1172.82 381.07ZM1175.92 385.15V373.95H1177.23V385.15H1175.92ZM1179.03 385.15V373.95H1180.34V385.15H1179.03ZM1184.5 385.198L1181.32 376.99H1182.71L1185.22 383.502L1187.66 376.99H1189.05L1185.29 386.526C1184.78 387.838 1184.47 388.35 1183.32 388.35H1181.75V387.15H1182.92C1183.67 387.15 1183.8 386.958 1184.1 386.19L1184.5 385.198ZM1193.88 382.462H1195.22C1195.27 383.422 1196.12 384.126 1197.48 384.126C1198.63 384.126 1199.45 383.63 1199.45 382.878C1199.45 381.854 1198.55 381.774 1197.33 381.63C1195.51 381.406 1194.05 381.038 1194.05 379.342C1194.05 377.854 1195.41 376.878 1197.25 376.894C1199.11 376.91 1200.45 377.774 1200.58 379.47H1199.24C1199.14 378.638 1198.37 378.014 1197.25 378.014C1196.12 378.014 1195.35 378.494 1195.35 379.246C1195.35 380.142 1196.21 380.254 1197.4 380.398C1199.25 380.622 1200.74 380.974 1200.74 382.782C1200.74 384.302 1199.29 385.246 1197.48 385.246C1195.37 385.246 1193.91 384.254 1193.88 382.462ZM1202.87 375.614C1202.39 375.614 1202.02 375.262 1202.02 374.766C1202.02 374.27 1202.39 373.918 1202.87 373.918C1203.35 373.918 1203.72 374.27 1203.72 374.766C1203.72 375.262 1203.35 375.614 1202.87 375.614ZM1202.2 385.15V376.99H1203.51V385.15H1202.2ZM1211.74 378.398L1211.92 376.99H1213.05V384.75C1213.05 387.102 1211.8 388.446 1209 388.446C1206.92 388.446 1205.47 387.47 1205.26 385.678H1206.6C1206.83 386.702 1207.74 387.278 1209.1 387.278C1210.81 387.278 1211.74 386.478 1211.74 384.702V383.742C1211.2 384.67 1210.32 385.246 1208.94 385.246C1206.68 385.246 1205.02 383.726 1205.02 381.07C1205.02 378.574 1206.68 376.894 1208.94 376.894C1210.32 376.894 1211.23 377.486 1211.74 378.398ZM1209.07 384.078C1210.67 384.078 1211.76 382.846 1211.76 381.102C1211.76 379.31 1210.67 378.062 1209.07 378.062C1207.45 378.062 1206.36 379.294 1206.36 381.07C1206.36 382.846 1207.45 384.078 1209.07 384.078ZM1218.84 376.894C1220.68 376.894 1222.13 377.902 1222.13 380.606V385.15H1220.82V380.686C1220.82 378.99 1220.04 378.094 1218.61 378.094C1217.08 378.094 1216.15 379.23 1216.15 381.07V385.15H1214.84V376.99H1215.97L1216.15 378.094C1216.63 377.47 1217.46 376.894 1218.84 376.894ZM1223.47 382.462H1224.82C1224.86 383.422 1225.71 384.126 1227.07 384.126C1228.22 384.126 1229.04 383.63 1229.04 382.878C1229.04 381.854 1228.14 381.774 1226.93 381.63C1225.1 381.406 1223.65 381.038 1223.65 379.342C1223.65 377.854 1225.01 376.878 1226.85 376.894C1228.7 376.91 1230.05 377.774 1230.18 379.47H1228.83C1228.74 378.638 1227.97 378.014 1226.85 378.014C1225.71 378.014 1224.94 378.494 1224.94 379.246C1224.94 380.142 1225.81 380.254 1226.99 380.398C1228.85 380.622 1230.34 380.974 1230.34 382.782C1230.34 384.302 1228.88 385.246 1227.07 385.246C1224.96 385.246 1223.5 384.254 1223.47 382.462ZM1236.65 375.614C1236.17 375.614 1235.8 375.262 1235.8 374.766C1235.8 374.27 1236.17 373.918 1236.65 373.918C1237.13 373.918 1237.5 374.27 1237.5 374.766C1237.5 375.262 1237.13 375.614 1236.65 375.614ZM1235.98 385.15V376.99H1237.29V385.15H1235.98ZM1243.09 376.894C1244.93 376.894 1246.38 377.902 1246.38 380.606V385.15H1245.07V380.686C1245.07 378.99 1244.29 378.094 1242.86 378.094C1241.33 378.094 1240.4 379.23 1240.4 381.07V385.15H1239.09V376.99H1240.22L1240.4 378.094C1240.88 377.47 1241.71 376.894 1243.09 376.894Z" fill="#2E40A5"/>
<path d="M1267.11 382.15C1267.11 381.598 1267.56 381.15 1268.11 381.15C1268.66 381.15 1269.11 381.598 1269.11 382.15H1268.11H1267.11ZM752.688 413.15C752.688 416.096 750.3 418.483 747.354 418.483C744.409 418.483 742.021 416.096 742.021 413.15C742.021 410.204 744.409 407.817 747.354 407.817C750.3 407.817 752.688 410.204 752.688 413.15ZM1253.11 397.15V398.15H763.355V397.15V396.15H1253.11V397.15ZM763.355 397.15V398.15C755.07 398.15 748.354 404.866 748.354 413.15H747.354H746.354C746.354 403.761 753.966 396.15 763.355 396.15V397.15ZM1268.11 382.15H1269.11C1269.11 390.987 1261.95 398.15 1253.11 398.15V397.15V396.15C1260.84 396.15 1267.11 389.882 1267.11 382.15H1268.11Z" fill="#F9C503"/>
<path d="M928.207 478.995C930.463 478.995 931.983 480.547 931.983 482.835C931.983 485.411 930.063 486.723 927.743 486.723C925.151 486.723 923.551 485.075 923.455 483.027H925.743C925.855 484.035 926.559 484.835 927.759 484.835C928.735 484.835 929.663 484.163 929.663 482.835C929.663 481.651 928.911 480.819 927.743 480.819C927.119 480.819 926.255 481.059 925.855 481.987H923.631L923.951 475.427H931.311V477.363H926.047L925.919 479.811C926.479 479.299 927.215 478.995 928.207 478.995ZM932.707 485.395C932.707 484.611 933.283 484.051 934.067 484.051C934.835 484.051 935.427 484.611 935.427 485.395C935.427 486.163 934.835 486.723 934.067 486.723C933.283 486.723 932.707 486.163 932.707 485.395ZM941.109 486.627V475.427H945.397C947.637 475.427 949.125 476.771 949.125 478.867C949.125 480.435 948.181 481.651 946.741 482.051L949.253 486.627H947.685L945.317 482.323H942.501V486.627H941.109ZM945.301 476.707H942.501V481.043H945.285C946.757 481.043 947.701 480.179 947.701 478.867C947.701 477.555 946.757 476.707 945.301 476.707ZM954.036 486.723C951.588 486.723 949.988 485.043 949.988 482.547C949.988 480.067 951.556 478.371 953.86 478.371C956.164 478.371 957.668 479.827 957.732 482.243C957.732 482.419 957.716 482.611 957.7 482.803H951.364V482.915C951.412 484.467 952.388 485.555 953.94 485.555C955.092 485.555 955.988 484.947 956.26 483.891H957.588C957.268 485.523 955.924 486.723 954.036 486.723ZM951.444 481.715H956.324C956.196 480.307 955.236 479.523 953.876 479.523C952.676 479.523 951.572 480.387 951.444 481.715ZM959.744 484.499V479.667H958.272V478.467H959.744V476.179H961.056V478.467H963.168V479.667H961.056V484.483C961.056 485.171 961.296 485.427 962 485.427H963.296V486.627H961.872C960.304 486.627 959.744 485.939 959.744 484.499ZM970.144 482.547V478.467H971.456V486.627H970.32L970.144 485.539C969.664 486.147 968.88 486.723 967.536 486.723C965.744 486.723 964.32 485.715 964.32 483.011V478.467H965.632V482.931C965.632 484.627 966.4 485.523 967.76 485.523C969.248 485.523 970.144 484.387 970.144 482.547ZM977.021 478.467H977.389V479.747H976.733C975.021 479.747 974.557 481.171 974.557 482.467V486.627H973.245V478.467H974.381L974.557 479.699C974.941 479.075 975.565 478.467 977.021 478.467ZM982.526 478.371C984.366 478.371 985.822 479.379 985.822 482.083V486.627H984.51V482.163C984.51 480.467 983.726 479.571 982.302 479.571C980.766 479.571 979.838 480.707 979.838 482.547V486.627H978.526V478.467H979.662L979.838 479.571C980.318 478.947 981.15 478.371 982.526 478.371ZM987.159 483.939H988.503C988.551 484.899 989.399 485.603 990.759 485.603C991.911 485.603 992.727 485.107 992.727 484.355C992.727 483.331 991.831 483.251 990.615 483.107C988.791 482.883 987.335 482.515 987.335 480.819C987.335 479.331 988.695 478.355 990.535 478.371C992.391 478.387 993.735 479.251 993.863 480.947H992.519C992.423 480.115 991.655 479.491 990.535 479.491C989.399 479.491 988.631 479.971 988.631 480.723C988.631 481.619 989.495 481.731 990.679 481.875C992.535 482.099 994.023 482.451 994.023 484.259C994.023 485.779 992.567 486.723 990.759 486.723C988.647 486.723 987.191 485.731 987.159 483.939ZM1003.44 478.467H1003.81V479.747H1003.15C1001.44 479.747 1000.98 481.171 1000.98 482.467V486.627H999.667V478.467H1000.8L1000.98 479.699C1001.36 479.075 1001.99 478.467 1003.44 478.467ZM1008.24 486.723C1005.79 486.723 1004.19 485.043 1004.19 482.547C1004.19 480.067 1005.76 478.371 1008.06 478.371C1010.37 478.371 1011.87 479.827 1011.94 482.243C1011.94 482.419 1011.92 482.611 1011.9 482.803H1005.57V482.915C1005.62 484.467 1006.59 485.555 1008.14 485.555C1009.3 485.555 1010.19 484.947 1010.46 483.891H1011.79C1011.47 485.523 1010.13 486.723 1008.24 486.723ZM1005.65 481.715H1010.53C1010.4 480.307 1009.44 479.523 1008.08 479.523C1006.88 479.523 1005.78 480.387 1005.65 481.715ZM1012.47 479.667V478.467H1013.95V477.555C1013.95 476.115 1014.55 475.427 1016.07 475.427H1017.56V476.627H1016.15C1015.5 476.627 1015.26 476.899 1015.26 477.523V478.467H1017.56V479.667H1015.26V486.627H1013.95V479.667H1012.47ZM1022.29 478.467H1022.65V479.747H1022C1020.29 479.747 1019.82 481.171 1019.82 482.467V486.627H1018.51V478.467H1019.65L1019.82 479.699C1020.21 479.075 1020.83 478.467 1022.29 478.467ZM1027.08 486.723C1024.64 486.723 1023.04 485.043 1023.04 482.547C1023.04 480.067 1024.6 478.371 1026.91 478.371C1029.21 478.371 1030.72 479.827 1030.78 482.243C1030.78 482.419 1030.76 482.611 1030.75 482.803H1024.41V482.915C1024.46 484.467 1025.44 485.555 1026.99 485.555C1028.14 485.555 1029.04 484.947 1029.31 483.891H1030.64C1030.32 485.523 1028.97 486.723 1027.08 486.723ZM1024.49 481.715H1029.37C1029.24 480.307 1028.28 479.523 1026.92 479.523C1025.72 479.523 1024.62 480.387 1024.49 481.715ZM1031.91 483.939H1033.25C1033.3 484.899 1034.15 485.603 1035.51 485.603C1036.66 485.603 1037.48 485.107 1037.48 484.355C1037.48 483.331 1036.58 483.251 1035.36 483.107C1033.54 482.883 1032.08 482.515 1032.08 480.819C1032.08 479.331 1033.44 478.355 1035.28 478.371C1037.14 478.387 1038.48 479.251 1038.61 480.947H1037.27C1037.17 480.115 1036.4 479.491 1035.28 479.491C1034.15 479.491 1033.38 479.971 1033.38 480.723C1033.38 481.619 1034.24 481.731 1035.43 481.875C1037.28 482.099 1038.77 482.451 1038.77 484.259C1038.77 485.779 1037.32 486.723 1035.51 486.723C1033.4 486.723 1031.94 485.731 1031.91 483.939ZM1044.23 478.371C1046.05 478.371 1047.54 479.379 1047.54 482.083V486.627H1046.23V482.163C1046.23 480.467 1045.41 479.571 1044.01 479.571C1042.49 479.571 1041.54 480.707 1041.54 482.547V486.627H1040.23V475.427H1041.54V479.811C1042.02 479.043 1042.85 478.371 1044.23 478.371ZM1054.01 484.499V479.667H1052.54V478.467H1054.01V476.179H1055.32V478.467H1057.43V479.667H1055.32V484.483C1055.32 485.171 1055.56 485.427 1056.27 485.427H1057.56V486.627H1056.14C1054.57 486.627 1054.01 485.939 1054.01 484.499ZM1062.25 486.723C1059.87 486.723 1058.21 485.027 1058.21 482.547C1058.21 480.067 1059.87 478.371 1062.25 478.371C1064.64 478.371 1066.3 480.067 1066.3 482.547C1066.3 485.027 1064.64 486.723 1062.25 486.723ZM1062.25 485.555C1063.87 485.555 1064.96 484.291 1064.96 482.547C1064.96 480.803 1063.87 479.539 1062.25 479.539C1060.64 479.539 1059.55 480.803 1059.55 482.547C1059.55 484.291 1060.64 485.555 1062.25 485.555ZM1067.81 486.627V475.427H1069.12V482.803L1073.22 478.467H1074.83L1071.65 481.843L1075.06 486.627H1073.47L1070.77 482.787L1069.12 484.483V486.627H1067.81ZM1079.27 486.723C1076.82 486.723 1075.22 485.043 1075.22 482.547C1075.22 480.067 1076.79 478.371 1079.09 478.371C1081.4 478.371 1082.9 479.827 1082.97 482.243C1082.97 482.419 1082.95 482.611 1082.93 482.803H1076.6V482.915C1076.65 484.467 1077.62 485.555 1079.17 485.555C1080.33 485.555 1081.22 484.947 1081.49 483.891H1082.82C1082.5 485.523 1081.16 486.723 1079.27 486.723ZM1076.68 481.715H1081.56C1081.43 480.307 1080.47 479.523 1079.11 479.523C1077.91 479.523 1076.81 480.387 1076.68 481.715ZM1088.46 478.371C1090.3 478.371 1091.76 479.379 1091.76 482.083V486.627H1090.45V482.163C1090.45 480.467 1089.66 479.571 1088.24 479.571C1086.7 479.571 1085.78 480.707 1085.78 482.547V486.627H1084.46V478.467H1085.6L1085.78 479.571C1086.26 478.947 1087.09 478.371 1088.46 478.371Z" fill="#2E40A5"/>
<path d="M1267.11 483.627C1267.11 483.074 1267.56 482.627 1268.11 482.627C1268.66 482.627 1269.11 483.074 1269.11 483.627H1268.11H1267.11ZM752.688 514.627C752.688 517.572 750.3 519.96 747.354 519.96C744.409 519.96 742.021 517.572 742.021 514.627C742.021 511.681 744.409 509.293 747.354 509.293C750.3 509.293 752.688 511.681 752.688 514.627ZM1253.11 498.627V499.627H763.355V498.627V497.627H1253.11V498.627ZM763.355 498.627V499.627C755.07 499.627 748.354 506.342 748.354 514.627H747.354H746.354C746.354 505.238 753.966 497.627 763.355 497.627V498.627ZM1268.11 483.627H1269.11C1269.11 492.463 1261.95 499.627 1253.11 499.627V498.627V497.627C1260.84 497.627 1267.11 491.359 1267.11 483.627H1268.11Z" fill="#F9C503"/>
<path d="M895.5 329.014V327.238L899.756 323.718C900.732 322.918 901.34 322.246 901.34 321.334C901.34 320.23 900.62 319.654 899.596 319.654C898.524 319.654 897.788 320.39 897.788 321.606V321.782H895.468V321.462C895.468 319.35 897.052 317.718 899.612 317.718C902.236 317.718 903.66 319.142 903.66 321.238C903.66 322.886 902.764 323.894 901.356 325.03L898.844 327.078H903.724V329.014H895.5ZM904.773 327.782C904.773 326.998 905.349 326.438 906.133 326.438C906.901 326.438 907.493 326.998 907.493 327.782C907.493 328.55 906.901 329.11 906.133 329.11C905.349 329.11 904.773 328.55 904.773 327.782ZM913.174 329.014V317.814H917.462C919.702 317.814 921.19 319.158 921.19 321.254C921.19 322.822 920.246 324.038 918.806 324.438L921.318 329.014H919.75L917.382 324.71H914.566V329.014H913.174ZM917.366 319.094H914.566V323.43H917.35C918.822 323.43 919.766 322.566 919.766 321.254C919.766 319.942 918.822 319.094 917.366 319.094ZM926.101 329.11C923.653 329.11 922.053 327.43 922.053 324.934C922.053 322.454 923.621 320.758 925.925 320.758C928.229 320.758 929.733 322.214 929.797 324.63C929.797 324.806 929.781 324.998 929.765 325.19H923.429V325.302C923.477 326.854 924.453 327.942 926.005 327.942C927.157 327.942 928.053 327.334 928.325 326.278H929.653C929.333 327.91 927.989 329.11 926.101 329.11ZM923.509 324.102H928.389C928.261 322.694 927.301 321.91 925.941 321.91C924.741 321.91 923.637 322.774 923.509 324.102ZM937.727 322.102V317.814H939.039V329.014H937.903L937.727 327.702C937.183 328.454 936.303 329.11 934.927 329.11C932.671 329.11 931.007 327.59 931.007 324.934C931.007 322.438 932.671 320.758 934.927 320.758C936.303 320.758 937.231 321.318 937.727 322.102ZM935.055 327.942C936.655 327.942 937.743 326.71 937.743 324.966C937.743 323.174 936.655 321.926 935.055 321.926C933.439 321.926 932.351 323.158 932.351 324.934C932.351 326.71 933.439 327.942 935.055 327.942ZM941.498 319.478C941.018 319.478 940.65 319.126 940.65 318.63C940.65 318.134 941.018 317.782 941.498 317.782C941.978 317.782 942.346 318.134 942.346 318.63C942.346 319.126 941.978 319.478 941.498 319.478ZM940.826 329.014V320.854H942.138V329.014H940.826ZM947.711 320.854H948.079V322.134H947.423C945.711 322.134 945.247 323.558 945.247 324.854V329.014H943.935V320.854H945.071L945.247 322.086C945.631 321.462 946.255 320.854 947.711 320.854ZM952.508 329.11C950.06 329.11 948.46 327.43 948.46 324.934C948.46 322.454 950.028 320.758 952.332 320.758C954.636 320.758 956.14 322.214 956.204 324.63C956.204 324.806 956.188 324.998 956.172 325.19H949.836V325.302C949.884 326.854 950.86 327.942 952.412 327.942C953.564 327.942 954.46 327.334 954.732 326.278H956.06C955.74 327.91 954.396 329.11 952.508 329.11ZM949.916 324.102H954.796C954.668 322.694 953.708 321.91 952.348 321.91C951.148 321.91 950.044 322.774 949.916 324.102ZM961.365 329.11C958.981 329.11 957.413 327.494 957.413 324.95C957.413 322.454 959.029 320.758 961.397 320.758C963.397 320.758 964.661 321.878 964.997 323.67H963.621C963.381 322.582 962.581 321.926 961.381 321.926C959.813 321.926 958.757 323.174 958.757 324.95C958.757 326.726 959.813 327.942 961.381 327.942C962.549 327.942 963.349 327.27 963.605 326.23H964.997C964.677 327.99 963.349 329.11 961.365 329.11ZM967.043 326.886V322.054H965.571V320.854H967.043V318.566H968.355V320.854H970.467V322.054H968.355V326.87C968.355 327.558 968.595 327.814 969.299 327.814H970.595V329.014H969.171C967.603 329.014 967.043 328.326 967.043 326.886ZM981.632 324.934V320.854H982.944V329.014H981.808L981.632 327.926C981.152 328.534 980.368 329.11 979.024 329.11C977.232 329.11 975.808 328.102 975.808 325.398V320.854H977.12V325.318C977.12 327.014 977.888 327.91 979.248 327.91C980.736 327.91 981.632 326.774 981.632 324.934ZM984.396 326.326H985.74C985.788 327.286 986.636 327.99 987.996 327.99C989.148 327.99 989.964 327.494 989.964 326.742C989.964 325.718 989.068 325.638 987.852 325.494C986.028 325.27 984.572 324.902 984.572 323.206C984.572 321.718 985.932 320.742 987.772 320.758C989.628 320.774 990.972 321.638 991.1 323.334H989.756C989.66 322.502 988.892 321.878 987.772 321.878C986.636 321.878 985.868 322.358 985.868 323.11C985.868 324.006 986.732 324.118 987.916 324.262C989.772 324.486 991.26 324.838 991.26 326.646C991.26 328.166 989.804 329.11 987.996 329.11C985.884 329.11 984.428 328.118 984.396 326.326ZM996.476 329.11C994.028 329.11 992.428 327.43 992.428 324.934C992.428 322.454 993.996 320.758 996.3 320.758C998.604 320.758 1000.11 322.214 1000.17 324.63C1000.17 324.806 1000.16 324.998 1000.14 325.19H993.804V325.302C993.852 326.854 994.828 327.942 996.38 327.942C997.532 327.942 998.428 327.334 998.7 326.278H1000.03C999.708 327.91 998.364 329.11 996.476 329.11ZM993.884 324.102H998.764C998.636 322.694 997.676 321.91 996.316 321.91C995.116 321.91 994.012 322.774 993.884 324.102ZM1005.45 320.854H1005.81V322.134H1005.16C1003.45 322.134 1002.98 323.558 1002.98 324.854V329.014H1001.67V320.854H1002.81L1002.98 322.086C1003.37 321.462 1003.99 320.854 1005.45 320.854ZM1011.75 326.886V322.054H1010.27V320.854H1011.75V318.566H1013.06V320.854H1015.17V322.054H1013.06V326.87C1013.06 327.558 1013.3 327.814 1014 327.814H1015.3V329.014H1013.87C1012.31 329.014 1011.75 328.326 1011.75 326.886ZM1019.99 329.11C1017.61 329.11 1015.94 327.414 1015.94 324.934C1015.94 322.454 1017.61 320.758 1019.99 320.758C1022.38 320.758 1024.04 322.454 1024.04 324.934C1024.04 327.414 1022.38 329.11 1019.99 329.11ZM1019.99 327.942C1021.61 327.942 1022.7 326.678 1022.7 324.934C1022.7 323.19 1021.61 321.926 1019.99 321.926C1018.38 321.926 1017.29 323.19 1017.29 324.934C1017.29 326.678 1018.38 327.942 1019.99 327.942ZM1029.4 326.326H1030.74C1030.79 327.286 1031.64 327.99 1033 327.99C1034.15 327.99 1034.96 327.494 1034.96 326.742C1034.96 325.718 1034.07 325.638 1032.85 325.494C1031.03 325.27 1029.57 324.902 1029.57 323.206C1029.57 321.718 1030.93 320.742 1032.77 320.758C1034.63 320.774 1035.97 321.638 1036.1 323.334H1034.76C1034.66 322.502 1033.89 321.878 1032.77 321.878C1031.64 321.878 1030.87 322.358 1030.87 323.11C1030.87 324.006 1031.73 324.118 1032.92 324.262C1034.77 324.486 1036.26 324.838 1036.26 326.646C1036.26 328.166 1034.8 329.11 1033 329.11C1030.88 329.11 1029.43 328.118 1029.4 326.326ZM1038.39 319.478C1037.91 319.478 1037.54 319.126 1037.54 318.63C1037.54 318.134 1037.91 317.782 1038.39 317.782C1038.87 317.782 1039.24 318.134 1039.24 318.63C1039.24 319.126 1038.87 319.478 1038.39 319.478ZM1037.72 329.014V320.854H1039.03V329.014H1037.72ZM1047.26 322.262L1047.43 320.854H1048.57V328.614C1048.57 330.966 1047.32 332.31 1044.52 332.31C1042.44 332.31 1040.99 331.334 1040.78 329.542H1042.12C1042.35 330.566 1043.26 331.142 1044.62 331.142C1046.33 331.142 1047.26 330.342 1047.26 328.566V327.606C1046.71 328.534 1045.83 329.11 1044.46 329.11C1042.2 329.11 1040.54 327.59 1040.54 324.934C1040.54 322.438 1042.2 320.758 1044.46 320.758C1045.83 320.758 1046.75 321.35 1047.26 322.262ZM1044.59 327.942C1046.19 327.942 1047.27 326.71 1047.27 324.966C1047.27 323.174 1046.19 321.926 1044.59 321.926C1042.97 321.926 1041.88 323.158 1041.88 324.934C1041.88 326.71 1042.97 327.942 1044.59 327.942ZM1054.36 320.758C1056.2 320.758 1057.65 321.766 1057.65 324.47V329.014H1056.34V324.55C1056.34 322.854 1055.56 321.958 1054.13 321.958C1052.6 321.958 1051.67 323.094 1051.67 324.934V329.014H1050.36V320.854H1051.49L1051.67 321.958C1052.15 321.334 1052.98 320.758 1054.36 320.758ZM1064.19 319.478C1063.71 319.478 1063.34 319.126 1063.34 318.63C1063.34 318.134 1063.71 317.782 1064.19 317.782C1064.67 317.782 1065.03 318.134 1065.03 318.63C1065.03 319.126 1064.67 319.478 1064.19 319.478ZM1063.51 329.014V320.854H1064.83V329.014H1063.51ZM1070.62 320.758C1072.46 320.758 1073.92 321.766 1073.92 324.47V329.014H1072.61V324.55C1072.61 322.854 1071.82 321.958 1070.4 321.958C1068.86 321.958 1067.93 323.094 1067.93 324.934V329.014H1066.62V320.854H1067.76L1067.93 321.958C1068.41 321.334 1069.25 320.758 1070.62 320.758ZM1080.39 326.886V322.054H1078.91V320.854H1080.39V318.566H1081.7V320.854H1083.81V322.054H1081.7V326.87C1081.7 327.558 1081.94 327.814 1082.64 327.814H1083.94V329.014H1082.51C1080.95 329.014 1080.39 328.326 1080.39 326.886ZM1088.63 329.11C1086.25 329.11 1084.58 327.414 1084.58 324.934C1084.58 322.454 1086.25 320.758 1088.63 320.758C1091.02 320.758 1092.68 322.454 1092.68 324.934C1092.68 327.414 1091.02 329.11 1088.63 329.11ZM1088.63 327.942C1090.25 327.942 1091.34 326.678 1091.34 324.934C1091.34 323.19 1090.25 321.926 1088.63 321.926C1087.02 321.926 1085.93 323.19 1085.93 324.934C1085.93 326.678 1087.02 327.942 1088.63 327.942ZM1098.56 329.014V317.814H1099.96V329.014H1098.56ZM1108.37 322.102V317.814H1109.68V329.014H1108.54L1108.37 327.702C1107.82 328.454 1106.94 329.11 1105.57 329.11C1103.31 329.11 1101.65 327.59 1101.65 324.934C1101.65 322.438 1103.31 320.758 1105.57 320.758C1106.94 320.758 1107.87 321.318 1108.37 322.102ZM1105.7 327.942C1107.3 327.942 1108.38 326.71 1108.38 324.966C1108.38 323.174 1107.3 321.926 1105.7 321.926C1104.08 321.926 1102.99 323.158 1102.99 324.934C1102.99 326.71 1104.08 327.942 1105.7 327.942ZM1111.66 329.014V317.814H1115.96C1118.2 317.814 1119.67 319.158 1119.67 321.254C1119.67 323.35 1118.2 324.71 1115.96 324.71H1113.05V329.014H1111.66ZM1115.85 319.094H1113.05V323.43H1115.83C1117.31 323.43 1118.25 322.582 1118.25 321.254C1118.25 319.926 1117.32 319.094 1115.85 319.094Z" fill="#2E40A5"/>
<path d="M748.125 326.014C748.125 325.462 747.678 325.014 747.125 325.014C746.573 325.014 746.125 325.462 746.125 326.014H747.125H748.125ZM1262.78 357.014C1262.78 359.96 1265.16 362.348 1268.11 362.348C1271.05 362.348 1273.44 359.96 1273.44 357.014C1273.44 354.069 1271.05 351.681 1268.11 351.681C1265.16 351.681 1262.78 354.069 1262.78 357.014ZM762.125 341.014V342.014H1252.11V341.014V340.014H762.125V341.014ZM1252.11 341.014V342.014C1260.39 342.014 1267.11 348.73 1267.11 357.014H1268.11H1269.11C1269.11 347.626 1261.5 340.014 1252.11 340.014V341.014ZM747.125 326.014H746.125C746.125 334.851 753.289 342.014 762.125 342.014V341.014V340.014C754.393 340.014 748.125 333.746 748.125 326.014H747.125Z" fill="#F9C503"/>
<path d="M832.039 434.75V432.846L836.983 425.95H839.783V432.83H841.335V434.75H839.783V437.15H837.527V434.75H832.039ZM837.527 428.238L834.247 432.83H837.527V428.238ZM841.97 435.918C841.97 435.134 842.546 434.574 843.33 434.574C844.098 434.574 844.69 435.134 844.69 435.918C844.69 436.686 844.098 437.246 843.33 437.246C842.546 437.246 841.97 436.686 841.97 435.918ZM850.308 432.366V425.95H851.7V432.446C851.7 434.766 852.628 435.966 854.564 435.966C856.532 435.966 857.46 434.766 857.46 432.446V425.95H858.852V432.366C858.852 435.566 857.364 437.246 854.564 437.246C851.764 437.246 850.308 435.566 850.308 432.366ZM860.438 434.462H861.782C861.83 435.422 862.678 436.126 864.038 436.126C865.19 436.126 866.006 435.63 866.006 434.878C866.006 433.854 865.11 433.774 863.894 433.63C862.07 433.406 860.614 433.038 860.614 431.342C860.614 429.854 861.974 428.878 863.814 428.894C865.67 428.91 867.014 429.774 867.142 431.47H865.798C865.702 430.638 864.934 430.014 863.814 430.014C862.678 430.014 861.91 430.494 861.91 431.246C861.91 432.142 862.774 432.254 863.958 432.398C865.814 432.622 867.302 432.974 867.302 434.782C867.302 436.302 865.846 437.246 864.038 437.246C861.926 437.246 860.47 436.254 860.438 434.462ZM872.518 437.246C870.07 437.246 868.47 435.566 868.47 433.07C868.47 430.59 870.038 428.894 872.342 428.894C874.646 428.894 876.15 430.35 876.214 432.766C876.214 432.942 876.198 433.134 876.182 433.326H869.846V433.438C869.894 434.99 870.87 436.078 872.422 436.078C873.574 436.078 874.47 435.47 874.742 434.414H876.07C875.75 436.046 874.406 437.246 872.518 437.246ZM869.926 432.238H874.806C874.678 430.83 873.718 430.046 872.358 430.046C871.158 430.046 870.054 430.91 869.926 432.238ZM881.643 433.486H883.083C883.195 434.99 884.363 435.982 886.075 435.982C887.579 435.982 888.651 435.294 888.651 434.078C888.651 432.686 887.275 432.398 885.579 432.11C883.771 431.806 881.915 431.214 881.915 429.038C881.915 427.134 883.467 425.854 885.739 425.854C888.235 425.854 889.771 427.246 889.899 429.262H888.459C888.299 427.966 887.259 427.118 885.739 427.118C884.283 427.118 883.307 427.758 883.307 428.958C883.307 430.302 884.667 430.574 886.347 430.862C888.171 431.166 890.043 431.774 890.043 433.95C890.043 435.886 888.411 437.246 886.059 437.246C883.323 437.246 881.723 435.694 881.643 433.486ZM891.931 437.15H890.491L894.763 425.95H896.411L900.667 437.15H899.179L897.995 434.126H893.115L891.931 437.15ZM895.547 427.47L893.531 432.862H897.579L895.547 427.47ZM901.934 437.15V425.95H903.694L907.662 435.246L911.582 425.95H913.31V437.15H911.95V428.318L908.238 437.15H907.006L903.294 428.318V437.15H901.934ZM921.977 437.15H915.481V425.95H916.873V435.87H921.977V437.15ZM934.599 435.95H935.015V437.15H934.295C933.207 437.15 932.839 436.686 932.823 435.886C932.311 436.622 931.495 437.246 930.087 437.246C928.295 437.246 927.079 436.35 927.079 434.862C927.079 433.23 928.215 432.318 930.359 432.318H932.759V431.758C932.759 430.702 932.007 430.062 930.727 430.062C929.575 430.062 928.807 430.606 928.647 431.438H927.335C927.527 429.838 928.823 428.894 930.791 428.894C932.871 428.894 934.071 429.934 934.071 431.838V435.406C934.071 435.838 934.231 435.95 934.599 435.95ZM932.759 433.822V433.422H930.231C929.063 433.422 928.407 433.854 928.407 434.782C928.407 435.582 929.095 436.126 930.183 436.126C931.815 436.126 932.759 435.182 932.759 433.822ZM935.688 434.462H937.032C937.08 435.422 937.928 436.126 939.288 436.126C940.44 436.126 941.256 435.63 941.256 434.878C941.256 433.854 940.36 433.774 939.144 433.63C937.32 433.406 935.864 433.038 935.864 431.342C935.864 429.854 937.224 428.878 939.064 428.894C940.92 428.91 942.264 429.774 942.392 431.47H941.048C940.952 430.638 940.184 430.014 939.064 430.014C937.928 430.014 937.16 430.494 937.16 431.246C937.16 432.142 938.024 432.254 939.208 432.398C941.064 432.622 942.552 432.974 942.552 434.782C942.552 436.302 941.096 437.246 939.288 437.246C937.176 437.246 935.72 436.254 935.688 434.462ZM943.516 434.462H944.86C944.908 435.422 945.756 436.126 947.116 436.126C948.268 436.126 949.084 435.63 949.084 434.878C949.084 433.854 948.188 433.774 946.972 433.63C945.148 433.406 943.692 433.038 943.692 431.342C943.692 429.854 945.052 428.878 946.892 428.894C948.748 428.91 950.092 429.774 950.22 431.47H948.876C948.78 430.638 948.012 430.014 946.892 430.014C945.756 430.014 944.988 430.494 944.988 431.246C944.988 432.142 945.852 432.254 947.036 432.398C948.892 432.622 950.38 432.974 950.38 434.782C950.38 436.302 948.924 437.246 947.116 437.246C945.004 437.246 943.548 436.254 943.516 434.462ZM955.596 437.246C953.148 437.246 951.548 435.566 951.548 433.07C951.548 430.59 953.116 428.894 955.42 428.894C957.724 428.894 959.228 430.35 959.292 432.766C959.292 432.942 959.276 433.134 959.26 433.326H952.924V433.438C952.972 434.99 953.948 436.078 955.5 436.078C956.652 436.078 957.548 435.47 957.82 434.414H959.148C958.828 436.046 957.484 437.246 955.596 437.246ZM953.004 432.238H957.884C957.756 430.83 956.796 430.046 955.436 430.046C954.236 430.046 953.132 430.91 953.004 432.238ZM964.565 428.99H964.933V430.27H964.277C962.565 430.27 962.101 431.694 962.101 432.99V437.15H960.789V428.99H961.925L962.101 430.222C962.485 429.598 963.109 428.99 964.565 428.99ZM966.944 435.022V430.19H965.472V428.99H966.944V426.702H968.256V428.99H970.368V430.19H968.256V435.006C968.256 435.694 968.496 435.95 969.2 435.95H970.496V437.15H969.072C967.504 437.15 966.944 436.462 966.944 435.022ZM972.305 427.614C971.825 427.614 971.457 427.262 971.457 426.766C971.457 426.27 971.825 425.918 972.305 425.918C972.785 425.918 973.153 426.27 973.153 426.766C973.153 427.262 972.785 427.614 972.305 427.614ZM971.633 437.15V428.99H972.945V437.15H971.633ZM978.502 437.246C976.118 437.246 974.454 435.55 974.454 433.07C974.454 430.59 976.118 428.894 978.502 428.894C980.886 428.894 982.55 430.59 982.55 433.07C982.55 435.55 980.886 437.246 978.502 437.246ZM978.502 436.078C980.118 436.078 981.206 434.814 981.206 433.07C981.206 431.326 980.118 430.062 978.502 430.062C976.886 430.062 975.798 431.326 975.798 433.07C975.798 434.814 976.886 436.078 978.502 436.078ZM988.055 428.894C989.895 428.894 991.351 429.902 991.351 432.606V437.15H990.039V432.686C990.039 430.99 989.255 430.094 987.831 430.094C986.295 430.094 985.367 431.23 985.367 433.07V437.15H984.055V428.99H985.191L985.367 430.094C985.847 429.47 986.679 428.894 988.055 428.894ZM997.819 435.022V430.19H996.347V428.99H997.819V426.702H999.131V428.99H1001.24V430.19H999.131V435.006C999.131 435.694 999.371 435.95 1000.08 435.95H1001.37V437.15H999.947C998.379 437.15 997.819 436.462 997.819 435.022ZM1006.06 437.246C1003.68 437.246 1002.02 435.55 1002.02 433.07C1002.02 430.59 1003.68 428.894 1006.06 428.894C1008.45 428.894 1010.11 430.59 1010.11 433.07C1010.11 435.55 1008.45 437.246 1006.06 437.246ZM1006.06 436.078C1007.68 436.078 1008.77 434.814 1008.77 433.07C1008.77 431.326 1007.68 430.062 1006.06 430.062C1004.45 430.062 1003.36 431.326 1003.36 433.07C1003.36 434.814 1004.45 436.078 1006.06 436.078ZM1019.58 428.99H1019.95V430.27H1019.29C1017.58 430.27 1017.12 431.694 1017.12 432.99V437.15H1015.8V428.99H1016.94L1017.12 430.222C1017.5 429.598 1018.12 428.99 1019.58 428.99ZM1024.38 437.246C1021.93 437.246 1020.33 435.566 1020.33 433.07C1020.33 430.59 1021.9 428.894 1024.2 428.894C1026.51 428.894 1028.01 430.35 1028.07 432.766C1028.07 432.942 1028.06 433.134 1028.04 433.326H1021.71V433.438C1021.75 434.99 1022.73 436.078 1024.28 436.078C1025.43 436.078 1026.33 435.47 1026.6 434.414H1027.93C1027.61 436.046 1026.27 437.246 1024.38 437.246ZM1021.79 432.238H1026.67C1026.54 430.83 1025.58 430.046 1024.22 430.046C1023.02 430.046 1021.91 430.91 1021.79 432.238ZM1036 430.238L1036.18 428.99H1037.31V440.35H1036V435.838C1035.46 436.59 1034.58 437.246 1033.2 437.246C1030.95 437.246 1029.28 435.726 1029.28 433.07C1029.28 430.574 1030.95 428.894 1033.2 428.894C1034.58 428.894 1035.51 429.454 1036 430.238ZM1033.33 436.078C1034.93 436.078 1036.02 434.846 1036.02 433.102C1036.02 431.31 1034.93 430.062 1033.33 430.062C1031.71 430.062 1030.63 431.294 1030.63 433.07C1030.63 434.846 1031.71 436.078 1033.33 436.078ZM1044.81 433.07V428.99H1046.13V437.15H1044.99L1044.81 436.062C1044.33 436.67 1043.55 437.246 1042.21 437.246C1040.41 437.246 1038.99 436.238 1038.99 433.534V428.99H1040.3V433.454C1040.3 435.15 1041.07 436.046 1042.43 436.046C1043.92 436.046 1044.81 434.91 1044.81 433.07ZM1051.67 437.246C1049.23 437.246 1047.63 435.566 1047.63 433.07C1047.63 430.59 1049.19 428.894 1051.5 428.894C1053.8 428.894 1055.31 430.35 1055.37 432.766C1055.37 432.942 1055.35 433.134 1055.34 433.326H1049V433.438C1049.05 434.99 1050.03 436.078 1051.58 436.078C1052.73 436.078 1053.63 435.47 1053.9 434.414H1055.23C1054.91 436.046 1053.56 437.246 1051.67 437.246ZM1049.08 432.238H1053.96C1053.83 430.83 1052.87 430.046 1051.51 430.046C1050.31 430.046 1049.21 430.91 1049.08 432.238ZM1056.5 434.462H1057.84C1057.89 435.422 1058.74 436.126 1060.1 436.126C1061.25 436.126 1062.07 435.63 1062.07 434.878C1062.07 433.854 1061.17 433.774 1059.96 433.63C1058.13 433.406 1056.68 433.038 1056.68 431.342C1056.68 429.854 1058.04 428.878 1059.88 428.894C1061.73 428.91 1063.08 429.774 1063.2 431.47H1061.86C1061.76 430.638 1061 430.014 1059.88 430.014C1058.74 430.014 1057.97 430.494 1057.97 431.246C1057.97 432.142 1058.84 432.254 1060.02 432.398C1061.88 432.622 1063.36 432.974 1063.36 434.782C1063.36 436.302 1061.91 437.246 1060.1 437.246C1057.99 437.246 1056.53 436.254 1056.5 434.462ZM1065.43 435.022V430.19H1063.96V428.99H1065.43V426.702H1066.74V428.99H1068.85V430.19H1066.74V435.006C1066.74 435.694 1066.98 435.95 1067.68 435.95H1068.98V437.15H1067.56C1065.99 437.15 1065.43 436.462 1065.43 435.022ZM1081.52 435.95H1081.94V437.15H1081.22C1080.13 437.15 1079.76 436.686 1079.74 435.886C1079.23 436.622 1078.42 437.246 1077.01 437.246C1075.22 437.246 1074 436.35 1074 434.862C1074 433.23 1075.14 432.318 1077.28 432.318H1079.68V431.758C1079.68 430.702 1078.93 430.062 1077.65 430.062C1076.5 430.062 1075.73 430.606 1075.57 431.438H1074.26C1074.45 429.838 1075.74 428.894 1077.71 428.894C1079.79 428.894 1080.99 429.934 1080.99 431.838V435.406C1080.99 435.838 1081.15 435.95 1081.52 435.95ZM1079.68 433.822V433.422H1077.15C1075.98 433.422 1075.33 433.854 1075.33 434.782C1075.33 435.582 1076.02 436.126 1077.1 436.126C1078.74 436.126 1079.68 435.182 1079.68 433.822ZM1090.91 428.99H1091.28V430.27H1090.62C1088.91 430.27 1088.45 431.694 1088.45 432.99V437.15H1087.13V428.99H1088.27L1088.45 430.222C1088.83 429.598 1089.45 428.99 1090.91 428.99ZM1095.71 437.246C1093.26 437.246 1091.66 435.566 1091.66 433.07C1091.66 430.59 1093.23 428.894 1095.53 428.894C1097.83 428.894 1099.34 430.35 1099.4 432.766C1099.4 432.942 1099.39 433.134 1099.37 433.326H1093.03V433.438C1093.08 434.99 1094.06 436.078 1095.61 436.078C1096.76 436.078 1097.66 435.47 1097.93 434.414H1099.26C1098.94 436.046 1097.59 437.246 1095.71 437.246ZM1093.11 432.238H1097.99C1097.87 430.83 1096.91 430.046 1095.55 430.046C1094.35 430.046 1093.24 430.91 1093.11 432.238ZM1099.94 430.19V428.99H1101.41V428.078C1101.41 426.638 1102.02 425.95 1103.54 425.95H1105.03V427.15H1103.62C1102.96 427.15 1102.72 427.422 1102.72 428.046V428.99H1105.03V430.19H1102.72V437.15H1101.41V430.19H1099.94ZM1109.75 428.99H1110.12V430.27H1109.46C1107.75 430.27 1107.29 431.694 1107.29 432.99V437.15H1105.98V428.99H1107.11L1107.29 430.222C1107.67 429.598 1108.3 428.99 1109.75 428.99ZM1114.55 437.246C1112.1 437.246 1110.5 435.566 1110.5 433.07C1110.5 430.59 1112.07 428.894 1114.37 428.894C1116.68 428.894 1118.18 430.35 1118.25 432.766C1118.25 432.942 1118.23 433.134 1118.21 433.326H1111.88V433.438C1111.93 434.99 1112.9 436.078 1114.45 436.078C1115.61 436.078 1116.5 435.47 1116.77 434.414H1118.1C1117.78 436.046 1116.44 437.246 1114.55 437.246ZM1111.96 432.238H1116.84C1116.71 430.83 1115.75 430.046 1114.39 430.046C1113.19 430.046 1112.09 430.91 1111.96 432.238ZM1119.38 434.462H1120.72C1120.77 435.422 1121.62 436.126 1122.98 436.126C1124.13 436.126 1124.94 435.63 1124.94 434.878C1124.94 433.854 1124.05 433.774 1122.83 433.63C1121.01 433.406 1119.55 433.038 1119.55 431.342C1119.55 429.854 1120.91 428.878 1122.75 428.894C1124.61 428.91 1125.95 429.774 1126.08 431.47H1124.74C1124.64 430.638 1123.87 430.014 1122.75 430.014C1121.62 430.014 1120.85 430.494 1120.85 431.246C1120.85 432.142 1121.71 432.254 1122.9 432.398C1124.75 432.622 1126.24 432.974 1126.24 434.782C1126.24 436.302 1124.78 437.246 1122.98 437.246C1120.86 437.246 1119.41 436.254 1119.38 434.462ZM1131.7 428.894C1133.52 428.894 1135.01 429.902 1135.01 432.606V437.15H1133.7V432.686C1133.7 430.99 1132.88 430.094 1131.47 430.094C1129.95 430.094 1129.01 431.23 1129.01 433.07V437.15H1127.7V425.95H1129.01V430.334C1129.49 429.566 1130.32 428.894 1131.7 428.894ZM1141.48 435.022V430.19H1140V428.99H1141.48V426.702H1142.79V428.99H1144.9V430.19H1142.79V435.006C1142.79 435.694 1143.03 435.95 1143.73 435.95H1145.03V437.15H1143.6C1142.04 437.15 1141.48 436.462 1141.48 435.022ZM1149.72 437.246C1147.34 437.246 1145.67 435.55 1145.67 433.07C1145.67 430.59 1147.34 428.894 1149.72 428.894C1152.11 428.894 1153.77 430.59 1153.77 433.07C1153.77 435.55 1152.11 437.246 1149.72 437.246ZM1149.72 436.078C1151.34 436.078 1152.43 434.814 1152.43 433.07C1152.43 431.326 1151.34 430.062 1149.72 430.062C1148.11 430.062 1147.02 431.326 1147.02 433.07C1147.02 434.814 1148.11 436.078 1149.72 436.078ZM1155.27 437.15V425.95H1156.59V433.326L1160.68 428.99H1162.3L1159.11 432.366L1162.52 437.15H1160.94L1158.23 433.31L1156.59 435.006V437.15H1155.27ZM1166.74 437.246C1164.29 437.246 1162.69 435.566 1162.69 433.07C1162.69 430.59 1164.26 428.894 1166.56 428.894C1168.86 428.894 1170.37 430.35 1170.43 432.766C1170.43 432.942 1170.42 433.134 1170.4 433.326H1164.06V433.438C1164.11 434.99 1165.09 436.078 1166.64 436.078C1167.79 436.078 1168.69 435.47 1168.96 434.414H1170.29C1169.97 436.046 1168.62 437.246 1166.74 437.246ZM1164.14 432.238H1169.02C1168.9 430.83 1167.94 430.046 1166.58 430.046C1165.38 430.046 1164.27 430.91 1164.14 432.238ZM1175.93 428.894C1177.77 428.894 1179.23 429.902 1179.23 432.606V437.15H1177.91V432.686C1177.91 430.99 1177.13 430.094 1175.71 430.094C1174.17 430.094 1173.24 431.23 1173.24 433.07V437.15H1171.93V428.99H1173.07L1173.24 430.094C1173.72 429.47 1174.55 428.894 1175.93 428.894Z" fill="#2E40A5"/>
<path d="M746.417 434.15C746.417 433.598 745.969 433.15 745.417 433.15C744.865 433.15 744.417 433.598 744.417 434.15H745.417H746.417ZM1261.07 465.15C1261.07 468.096 1263.46 470.483 1266.4 470.483C1269.35 470.483 1271.73 468.096 1271.73 465.15C1271.73 462.204 1269.35 459.817 1266.4 459.817C1263.46 459.817 1261.07 462.204 1261.07 465.15ZM760.417 449.15V450.15H1250.4V449.15V448.15H760.417V449.15ZM1250.4 449.15V450.15C1258.69 450.15 1265.4 456.866 1265.4 465.15H1266.4H1267.4C1267.4 455.761 1259.79 448.15 1250.4 448.15V449.15ZM745.417 434.15H744.417C744.417 442.987 751.58 450.15 760.417 450.15V449.15V448.15C752.685 448.15 746.417 441.882 746.417 434.15H745.417Z" fill="#F9C503"/>
<path d="M768.412 243.823H756.146C753.046 243.823 750.524 241.249 750.524 238.084V225.563C750.524 222.398 753.046 219.824 756.146 219.824H768.412C771.512 219.824 774.034 222.398 774.034 225.563V238.084C774.034 241.249 771.512 243.823 768.412 243.823ZM756.146 222.954C754.736 222.954 753.591 224.124 753.591 225.563V238.084C753.591 239.523 754.736 240.693 756.146 240.693H768.412C769.821 240.693 770.967 239.523 770.967 238.084V225.563C770.967 224.124 769.821 222.954 768.412 222.954H756.146Z" fill="#546BE7"/>
<path d="M768.179 190.161H756.619C754.594 190.161 752.746 191.126 751.524 192.647C752.279 193.571 752.902 194.607 753.374 195.744C753.844 194.341 755.124 193.339 756.619 193.339H768.179C769.61 193.339 770.774 194.526 770.774 195.987V208.7C770.774 210.161 769.61 211.348 768.179 211.348H759.418C759.017 212.555 758.427 213.607 757.704 214.527H768.179C771.326 214.527 773.887 211.913 773.887 208.7V195.987C773.887 192.774 771.326 190.161 768.179 190.161Z" fill="#546BE7"/>
<path d="M739.122 219.824H726.668C723.521 219.824 720.961 222.437 720.961 225.65V238.363C720.961 241.576 723.521 244.19 726.668 244.19H739.122C742.27 244.19 744.829 241.576 744.829 238.363V225.65C744.829 222.437 742.27 219.824 739.122 219.824ZM741.716 238.363C741.716 239.824 740.553 241.011 739.122 241.011H726.668C725.238 241.011 724.074 239.824 724.074 238.363V225.65C724.074 224.189 725.238 223.002 726.668 223.002H739.122C740.553 223.002 741.716 224.189 741.716 225.65V238.363Z" fill="#546BE7"/>
<path d="M722.517 214.527C718.45 214.527 715.717 211.499 715.717 206.992C715.717 204.087 717.283 201.457 719.732 200.06C719.599 199.386 719.532 198.703 719.532 198.018C719.532 192.195 724.224 187.456 729.992 187.456C733.475 187.456 736.645 189.165 738.584 192.005C739.69 191.542 740.874 191.302 742.074 191.302C746.712 191.302 750.56 194.792 751.176 199.309C754.566 200.239 756.985 203.338 756.985 206.992C756.985 210.74 754.671 214.523 749.503 214.523L722.517 214.527ZM729.992 190.635C725.941 190.635 722.645 193.947 722.645 198.018C722.645 198.83 722.783 199.64 723.054 200.427L723.577 201.947L722.081 202.461C720.137 203.127 718.83 204.948 718.83 206.992C718.83 208.302 719.189 211.348 722.517 211.348L749.503 211.344C753.446 211.344 753.871 208.301 753.871 206.992C753.871 204.522 752.015 202.474 749.553 202.228L748.148 202.087V200.646C748.148 197.217 745.423 194.48 742.074 194.48C740.928 194.48 739.802 194.813 738.819 195.442L737.361 196.376L736.597 194.802C735.35 192.231 732.818 190.635 729.992 190.635Z" fill="#9DAAF1"/>
<defs>
<filter id="filter0_d_1_13" x="692.875" y="165.853" width="104" height="104" filterUnits="userSpaceOnUse" color-interpolation-filters="sRGB">
<feFlood flood-opacity="0" result="BackgroundImageFix"/>
<feColorMatrix in="SourceAlpha" type="matrix" values="0 0 0 0 0 0 0 0 0 0 0 0 0 0 0 0 0 0 127 0" result="hardAlpha"/>
<feOffset dy="2"/>
<feGaussianBlur stdDeviation="4"/>
<feComposite in2="hardAlpha" operator="out"/>
<feColorMatrix type="matrix" values="0 0 0 0 0.544809 0 0 0 0 0.544809 0 0 0 0 0.544809 0 0 0 0.25 0"/>
<feBlend mode="normal" in2="BackgroundImageFix" result="effect1_dropShadow_1_13"/>
<feBlend mode="normal" in="SourceGraphic" in2="effect1_dropShadow_1_13" result="shape"/>
</filter>
<filter id="filter1_d_1_13" x="170.308" y="165.853" width="104" height="104" filterUnits="userSpaceOnUse" color-interpolation-filters="sRGB">
<feFlood flood-opacity="0" result="BackgroundImageFix"/>
<feColorMatrix in="SourceAlpha" type="matrix" values="0 0 0 0 0 0 0 0 0 0 0 0 0 0 0 0 0 0 127 0" result="hardAlpha"/>
<feOffset dy="2"/>
<feGaussianBlur stdDeviation="4"/>
<feComposite in2="hardAlpha" operator="out"/>
<feColorMatrix type="matrix" values="0 0 0 0 0.544809 0 0 0 0 0.544809 0 0 0 0 0.544809 0 0 0 0.25 0"/>
<feBlend mode="normal" in2="BackgroundImageFix" result="effect1_dropShadow_1_13"/>
<feBlend mode="normal" in="SourceGraphic" in2="effect1_dropShadow_1_13" result="shape"/>
</filter>
</defs>
</svg>
