<svg width="24" height="24" viewBox="0 0 24 24" fill="none" xmlns="http://www.w3.org/2000/svg">
<path fill-rule="evenodd" clip-rule="evenodd" d="M8.27924 1H9H15H15.7208L15.9487 1.68377L16.7208 4H20H21V5V9V10H20V18.8V18.8385C20 19.3657 20 19.8204 19.9694 20.195C19.9371 20.5904 19.8658 20.9836 19.673 21.362C19.3854 21.9265 18.9265 22.3854 18.362 22.673C17.9836 22.8658 17.5904 22.9371 17.195 22.9694C16.8205 23 16.3657 23 15.8385 23H15.8H8.2H8.16148C7.63432 23 7.17955 23 6.80497 22.9694C6.40963 22.9371 6.01641 22.8658 5.63803 22.673C5.07354 22.3854 4.6146 21.9265 4.32698 21.362C4.13419 20.9836 4.06287 20.5904 4.03057 20.195C3.99997 19.8205 3.99998 19.3657 4 18.8385L4 18.8V10H3V9V5V4H4H7.27924L8.05132 1.68377L8.27924 1ZM5 8H19V6H17.3874H16.3077H16H8H6.61257H5V8ZM6 10V18.8C6 19.3766 6.00078 19.7488 6.02393 20.0322C6.04612 20.3038 6.0838 20.4045 6.10899 20.454C6.20487 20.6422 6.35785 20.7951 6.54601 20.891C6.59545 20.9162 6.69617 20.9539 6.96784 20.9761C7.25117 20.9992 7.62345 21 8.2 21H15.8C16.3766 21 16.7488 20.9992 17.0322 20.9761C17.3038 20.9539 17.4045 20.9162 17.454 20.891C17.6422 20.7951 17.7951 20.6422 17.891 20.454C17.9162 20.4045 17.9539 20.3038 17.9761 20.0322C17.9992 19.7488 18 19.3766 18 18.8V10H6ZM14.2792 3L14.6126 4H9.38743L9.72076 3H14.2792Z" fill="#afaba1"/>
</svg>