<?xml version="1.0" encoding="UTF-8"?>
<svg width="38px" height="38px" viewBox="0 0 38 38" version="1.1" xmlns="http://www.w3.org/2000/svg" xmlns:xlink="http://www.w3.org/1999/xlink">
  <!-- Generator: Sketch 52.5 (67469) - http://www.bohemiancoding.com/sketch -->
  <title>tools</title>
  <desc>Created with Sketch.</desc>
  <g id="Guides" stroke="none" stroke-width="1" fill="none" fill-rule="evenodd">
    <g id="docs-front" transform="translate(-813.000000, -1295.000000)" fill="#FFFFFF" fill-rule="nonzero" stroke="#FFFFFF" stroke-width="0.5">
      <g id="Elsewhere" transform="translate(0.000000, 1210.000000)">
        <g id="Partner" transform="translate(632.000000, 83.000000)">
          <g id="tools" transform="translate(182.000000, 3.000000)">
            <path d="M32.6944777,14.6937428 C30.9965306,14.6937428 29.6108413,15.9839178 29.425691,17.632638 L27.1656806,17.632638 C27.0760437,15.378505 26.1730683,13.3337684 24.738887,11.7812974 L26.3376462,10.1818033 C26.9217517,10.649088 27.6329645,10.9157924 28.3911997,10.9157924 C29.2736027,10.9157924 30.103841,10.5719416 30.7290913,9.94742609 C32.0177966,8.65872078 32.0177966,6.56108374 30.7290913,5.27164357 C30.103841,4.64712809 29.2743376,4.303278 28.3911997,4.303278 C27.5080617,4.303278 26.6778235,4.64712809 26.0525739,5.27164357 C24.8527698,6.47218252 24.7844403,8.36483087 25.8196664,9.66161896 L24.2194375,11.2618471 C22.6662316,9.82693174 20.6222295,8.92469113 18.3673619,8.83505426 L18.3673619,6.57504391 C20.0160823,6.38989357 21.3062574,5.00346939 21.3062574,3.30625722 C21.3062574,1.48340739 19.8228499,0 18,0 C16.1771501,0 14.6937426,1.48340739 14.6937426,3.30625722 C14.6937426,5.00346939 15.9839177,6.38989357 17.6326381,6.57504391 L17.6326381,8.83505426 C15.3785053,8.92469113 13.3337687,9.82766661 11.7812972,11.2618471 L10.1810686,9.66161896 C11.2155598,8.36483087 11.1472305,6.47218252 9.9474264,5.27164357 C9.32291116,4.64712809 8.49267321,4.303278 7.60953506,4.303278 C6.72639699,4.303278 5.89615904,4.64712809 5.27164372,5.27164357 C4.64712848,5.89615904 4.30327769,6.7263973 4.30327769,7.60953522 C4.30327769,8.49267313 4.64712848,9.32291139 5.27164372,9.94742609 C5.89615904,10.5719416 6.72639699,10.9157924 7.60953506,10.9157924 C8.36777011,10.9157924 9.07898283,10.649088 9.66235359,10.1818033 L11.2618474,11.7812974 C9.82693174,13.3345033 8.92469082,15.378505 8.8350545,17.632638 L6.57504391,17.632638 C6.38989349,15.9839178 5.00346955,14.6937428 3.30625737,14.6937428 C1.48340747,14.6937428 0,16.1771502 0,18 C0,19.8228498 1.48340747,21.3062572 3.30625737,21.3062572 C5.00346955,21.3062572 6.38989349,20.0160822 6.57504391,18.367362 L8.8350545,18.367362 C8.92469082,20.621495 9.82766645,22.6662316 11.2618474,24.2194375 L9.66235359,25.8181967 C9.07898283,25.3516469 8.36777011,25.0849424 7.60953506,25.0849424 C6.72639699,25.0849424 5.89615904,25.4287933 5.27164372,26.0525739 C3.9829381,27.3420141 3.9829381,29.4389163 5.27164372,30.7283564 C5.89615904,31.3528719 6.72639699,31.6959879 7.60953506,31.6959879 C8.49267321,31.6959879 9.32291116,31.352137 9.9474264,30.7283564 C11.1464958,29.5278175 11.2148251,27.6359032 10.1803339,26.338381 L11.7805624,24.7381529 C13.3337687,26.1723334 15.3777705,27.0753089 17.6319034,27.1649457 L17.6319034,29.4249561 C15.983183,29.6101064 14.6930079,30.9965306 14.6930079,32.6937428 C14.6930079,34.5165926 16.1764154,36 17.9992653,36 C19.8221152,36 21.3055227,34.5165926 21.3055227,32.6937428 C21.3055227,30.9957957 20.0153475,29.6101064 18.3666272,29.4249561 L18.3666272,27.1649457 C20.62076,27.0753089 22.6654967,26.1723334 24.2187026,24.7381529 L25.8189316,26.338381 C24.7844403,27.6351691 24.8527698,29.5278175 26.051839,30.7283564 C26.6770886,31.3528719 27.506592,31.6959879 28.3904648,31.6959879 C29.2728686,31.6959879 30.1031061,31.352137 30.7283564,30.7283564 C32.0170617,29.4389163 32.0170617,27.3420141 30.7283564,26.0525739 C30.1031061,25.4280584 29.2736027,25.0849424 28.3904648,25.0849424 C27.6322297,25.0849424 26.9210176,25.3516469 26.3369121,25.8181967 L24.7381529,24.2194375 C26.1723334,22.6662316 27.0753089,20.6222298 27.1649457,18.367362 L29.4249561,18.367362 C29.6101064,20.0160822 30.9965306,21.3062572 32.6937428,21.3062572 C34.5165926,21.3062572 36,19.8228498 36,18 C36,16.1771502 34.5173275,14.6937428 32.6944777,14.6937428 Z M26.5720234,5.79109383 C27.0576759,5.3054413 27.7034979,5.03800122 28.3911997,5.03800122 C29.0781665,5.03800122 29.7232537,5.3054413 30.209641,5.79109383 C31.2118043,6.79399122 31.2118043,8.42507843 30.209641,9.42797661 C29.238336,10.4000165 27.5440633,10.3985468 26.5727583,9.42797661 C25.5698601,8.42507843 25.5698601,6.79399122 26.5720234,5.79109383 Z M15.4284665,3.30552235 C15.4284665,1.88750583 16.5819829,0.73398913 18,0.73398913 C19.4180171,0.73398913 20.5715335,1.88750583 20.5715335,3.30552235 C20.5715335,4.72353965 19.4180171,5.87705635 18,5.87705635 C16.5819829,5.87705635 15.4284665,4.72353965 15.4284665,3.30552235 Z M5.79109351,9.42797661 C5.30544107,8.94232409 5.03800153,8.29650209 5.03800153,7.60953522 C5.03800153,6.92256835 5.30544107,6.27674635 5.79109351,5.79109383 C6.27674596,5.3054413 6.92256827,5.03800122 7.60953506,5.03800122 C8.29650193,5.03800122 8.94232417,5.3054413 9.42797669,5.79109383 C10.43014,6.79399122 10.43014,8.42507843 9.42797669,9.42797661 C8.45667172,10.3985468 6.76239848,10.3985468 5.79109351,9.42797661 Z M3.30552266,20.5715332 C1.88750559,20.5715332 0.73398913,19.4180173 0.73398913,18 C0.73398913,16.5819827 1.88750559,15.4284668 3.30552266,15.4284668 C4.72353973,15.4284668 5.87705619,16.5819827 5.87705619,18 C5.87705619,19.4180173 4.72353973,20.5715332 3.30552266,20.5715332 Z M18,26.4493244 C15.5305931,26.4493244 13.311727,25.3773626 11.765868,23.6823543 C12.9590595,21.3106657 15.3425038,19.83681 18,19.83681 C20.6229642,19.83681 23.0519614,21.3466672 24.231193,23.6860278 C22.6853343,25.3788316 20.4679375,26.4493244 18,26.4493244 Z M9.42797669,30.2089062 C8.45667172,31.1802112 6.76239848,31.1802112 5.79109351,30.2089062 C4.78893013,29.2060088 4.78893013,27.5749216 5.79109351,26.5720234 C6.27674596,26.0863709 6.92256827,25.8196664 7.60953506,25.8196664 C8.29650193,25.8196664 8.94232417,26.0863709 9.42797669,26.5720234 C10.43014,27.5741867 10.43014,29.2067429 9.42797669,30.2089062 Z M20.5715335,32.6944777 C20.5715335,34.1124942 19.4180171,35.2660109 18,35.2660109 C16.5819829,35.2660109 15.4284665,34.1124942 15.4284665,32.6944777 C15.4284665,31.2764603 16.5819829,30.1229437 18,30.1229437 C19.4180171,30.1229437 20.5715335,31.2764603 20.5715335,32.6944777 Z M30.2089062,26.5720234 C31.2110695,27.5741867 31.2110695,29.2067429 30.2089062,30.2089062 C29.2376019,31.181681 27.5433284,31.1802112 26.5720234,30.2089062 C25.5698601,29.2067429 25.5698601,27.5741867 26.5720234,26.5720234 C27.0576759,26.0863709 27.7034979,25.8196664 28.3911997,25.8196664 C29.0774317,25.8196664 29.7232537,26.0863709 30.2089062,26.5720234 Z M24.7315398,23.0857583 C23.6691297,21.176946 21.8440753,19.8199111 19.7493775,19.3247069 C20.6810074,18.7391324 21.3062574,17.7097844 21.3062574,16.530552 C21.3062574,14.7077022 19.8228499,13.2242948 18,13.2242948 C16.1771501,13.2242948 14.6937426,14.7077022 14.6937426,16.530552 C14.6937426,17.7061101 15.3145843,18.7332543 16.2410711,19.3195643 C14.1397608,19.8066858 12.3382179,21.1490264 11.2669905,23.0835545 C10.1950284,21.667007 9.55067557,19.9095472 9.55067557,18 C9.55067557,13.3411163 13.341116,9.55067557 18,9.55067557 C22.6588837,9.55067557 26.4493244,13.3411163 26.4493244,18 C26.4493244,19.9102821 25.8042365,21.6684759 24.7315398,23.0857583 Z M18,19.102086 C16.5819829,19.102086 15.4284665,17.9485693 15.4284665,16.530552 C15.4284665,15.1125355 16.5819829,13.9590188 18,13.9590188 C19.4180171,13.9590188 20.5715335,15.1125355 20.5715335,16.530552 C20.5715335,17.9485693 19.4180171,19.102086 18,19.102086 Z M32.6944777,20.5715332 C31.2764603,20.5715332 30.1229437,19.4180173 30.1229437,18 C30.1229437,16.5819827 31.2764603,15.4284668 32.6944777,15.4284668 C34.1124942,15.4284668 35.2660109,16.5819827 35.2660109,18 C35.2660109,19.4180173 34.1124942,20.5715332 32.6944777,20.5715332 Z" id="Shape"></path>
          </g>
        </g>
      </g>
    </g>
  </g>
</svg>
