<?xml version="1.0" encoding="UTF-8" standalone="no"?>
<svg width="26px" height="32px" viewBox="0 0 26 32" version="1.1" xmlns="http://www.w3.org/2000/svg" xmlns:xlink="http://www.w3.org/1999/xlink">
    <g stroke="none" stroke-width="1" fill="none" fill-rule="evenodd">
        <g transform="translate(1.000000, 1.000000)" stroke="#FF6C52" stroke-width="0.5" fill="#FF6C52">
            <path d="M7.73510684,22.7384868 L7.73510684,23.4543421 C9.42771234,23.4182237 10.7943389,22.0291447 10.7943389,20.3268421 C10.7943389,19.7915789 10.6564931,19.2634211 10.3955916,18.7980263 L10.2494631,18.5375 L13.529367,15.2548684 L13.7890852,15.4011184 C14.2540932,15.6622368 14.7824038,15.8001974 15.316039,15.8001974 C17.0181103,15.8001974 18.406035,14.4330263 18.4421234,12.7384211 L17.726863,12.7384211 L16.4489784,14.0173684 L13.976035,14.0173684 L13.976035,11.5423684 L15.253328,10.2634211 L15.253328,9.54401316 C13.5589476,9.57717105 12.1905462,10.9680263 12.1905462,12.6721053 C12.1905462,13.1819079 12.3100521,13.6698026 12.5466974,14.1209868 L12.6809936,14.3779605 L9.37328392,17.6884211 L9.11652377,17.5540132 C8.66571448,17.3177632 8.17881677,17.1981579 7.66825454,17.1981579 C5.96618323,17.1981579 4.57648371,18.5671053 4.54276175,20.2634868 L5.26157185,20.2634868 L6.53945646,18.9845395 L9.01299145,18.9845395 L9.01299145,21.4601316 L7.73510684,22.7384868 Z M6.9476696,24.2584211 L6.9476696,22.4122368 L8.22555422,21.1332895 L8.22555422,19.7720395 L6.86543536,19.7720395 L5.58755075,21.0509868 L3.75,21.0509868 L3.75354968,20.6536842 C3.75354968,20.6536842 3.75473291,20.4363816 3.75473291,20.3268421 C3.75473291,18.1668421 5.51064103,16.4100658 7.66825454,16.4100658 C8.20011485,16.4100658 8.73020032,16.5201974 9.21709802,16.7303947 L11.7231717,14.2216447 C11.5137407,13.7343421 11.4037006,13.2038158 11.4037006,12.6721053 C11.4037006,10.5126974 13.1590171,8.75532895 15.316039,8.75532895 C15.4266707,8.75532895 15.6432011,8.75355263 15.6437927,8.75355263 L16.0407652,8.75 L16.0407652,10.5890789 L14.7628806,11.8686184 L14.7628806,13.2292763 L16.1229995,13.2292763 L17.4008841,11.9503289 L19.2449426,11.9503289 L19.2348851,12.3547368 C19.2348851,12.3553289 19.2301522,12.5649342 19.2301522,12.6721053 C19.2301522,14.8315132 17.4742441,16.5882895 15.316039,16.5882895 C14.7480903,16.5882895 14.1860577,16.4633553 13.673129,16.2259211 L11.2197089,18.6807895 C11.4569458,19.1953289 11.5817762,19.7584211 11.5817762,20.3268421 C11.5817762,22.4856579 9.82586806,24.2430263 7.66825454,24.2430263 C7.56176416,24.2430263 7.35292468,24.2483553 7.35174145,24.2483553 L6.9476696,24.2584211 Z" id="Fill-28"></path>
            <path d="M0.787437233,29.4140132 L23.0912567,29.4140132 L23.0912567,0.788092105 L6.85443109,0.788092105 L0.787437233,6.86013158 L0.787437233,29.4140132 Z M23.8786939,30.2021053 L0,30.2021053 L0,6.53388158 L6.52845219,0 L23.8786939,0 L23.8786939,30.2021053 Z" id="Fill-29"></path>
            <polygon points="7.94173745 6.69730263 1.25 6.69730263 1.25 5.90921053 7.15489183 5.90921053 7.15489183 0 7.94173745 0"></polygon>
        </g>
    </g>
</svg>
