<?xml version="1.0" encoding="UTF-8" standalone="no"?>
<svg width="26px" height="33px" viewBox="0 0 26 33" version="1.1" xmlns="http://www.w3.org/2000/svg" xmlns:xlink="http://www.w3.org/1999/xlink">
    <g stroke="none" stroke-width="1" fill="none" fill-rule="evenodd">
        <g transform="translate(1.000000, 1.000000)" stroke-width="0.5" stroke="#10F0C5" fill="#10F0C5">
            <g>
                <g>
                    <path d="M3.0887846,0.75 C1.79906771,0.75 0.749940222,1.80056391 0.749940222,3.09135338 C0.749940222,4.38214286 1.79906771,5.43270677 3.0887846,5.43270677 L21.6231825,5.43270677 L21.6231825,0.75 L3.0887846,0.75 Z M24.5440616,31.1740602 L4.133968,31.1740602 L4.133968,30.4234962 L23.7941214,30.4234962 L23.7941214,6.18327068 L3.0887846,6.18327068 C1.38606532,6.18327068 0,4.79605263 0,3.09135338 C0,1.38665414 1.38606532,0 3.0887846,0 L22.3731227,0 L22.3731227,5.43270677 L24.5440616,5.43270677 L24.5440616,31.1740602 Z" id="Fill-7"></path>
                    <path d="M24.1693732,31.2592105 L3.0887846,31.2592105 C1.45593203,31.2592105 0.116068885,29.9859023 0.00676129426,28.3793233 L0,2.57142857 L0.749940222,2.57142857 L0.749940222,28.1678571 C0.749940222,29.4592105 1.79906771,30.5092105 3.0887846,30.5092105 L24.1693732,30.5092105 L24.1693732,31.2592105 Z" id="Fill-9"></path>
                    <polygon id="Fill-11" points="4.76190476 31.0345238 5.51184498 31.0345238 5.51184498 5.95238095 4.76190476 5.95238095"></polygon>
                    <polygon id="Fill-13" points="9.52380952 24.5595238 19.1214667 24.5595238 19.1214667 23.8095238 9.52380952 23.8095238"></polygon>
                    <polygon id="Fill-14" points="9.52380952 26.9410401 19.1214667 26.9410401 19.1214667 26.1904762 9.52380952 26.1904762"></polygon>
                    <path d="M9.09285206,20.2934211 L18.2127111,20.2934211 C18.1366466,19.0082707 17.6616656,17.9960526 16.7979103,17.2821429 C16.0952991,16.7013158 15.4022665,16.5462406 15.3955052,16.5451128 L14.9999695,16.4599624 L15.1149115,16.0719925 C15.3425417,15.3005639 15.7651226,13.0742481 14.9971523,12.0456767 C14.7052897,11.6548872 14.2658056,11.4648496 13.653345,11.4648496 C12.9822866,11.4648496 12.5101229,11.6672932 12.2092453,12.0834586 C11.4576147,13.125 11.9393569,15.3073308 12.1883979,16.0607143 L12.3281314,16.4825188 L11.8892107,16.5490602 C11.7799031,16.5671053 9.27146291,17.0080827 9.09285206,20.2934211 L9.09285206,20.2934211 Z M18.9733567,21.043985 L8.33333333,21.043985 L8.33333333,20.668985 C8.33333333,17.287218 10.4529991,16.2191729 11.3657738,15.9157895 C11.1347629,15.043985 10.6992229,12.8949248 11.6018557,11.6447368 C12.0469742,11.0272556 12.7377531,10.7142857 13.653345,10.7142857 C14.506395,10.7142857 15.1616771,11.0114662 15.598344,11.5973684 C16.5297123,12.8469925 16.1307959,15.0654135 15.9262668,15.9304511 C16.8125598,16.2654135 18.9733567,17.4157895 18.9733567,20.668985 L18.9733567,21.043985 Z" id="Fill-15"></path>
                </g>
            </g>
        </g>
    </g>
</svg>
