<svg id="70b4a4ab-bf7f-4041-8be5-8fcb485ff438" data-name="Layer 1" xmlns="http://www.w3.org/2000/svg" viewBox="0 0 256 256"><title>docs-apiconcepts</title><path d="M128,95a33,33,0,1,1-33,33,33,33,0,0,1,33-33m0-16a49,49,0,1,0,49,49,49,49,0,0,0-49-49Zm0-63a111.26,111.26,0,0,1,13.06.77l2.39,31.13L173,60l23.48-20.59a111,111,0,0,1,19.37,19.15l-20.34,23.7L208,111.73l31.16,2a110.8,110.8,0,0,1,.14,27.23l-31.13,2.39L196,173l20.59,23.48a111,111,0,0,1-19.15,19.37l-23.7-20.34L144.27,208l-2.05,31.16a111,111,0,0,1-27.23.14l-2.39-31.13L83,196,59.49,216.62a111,111,0,0,1-19.37-19.15l20.34-23.7-12.41-29.5-31.16-2.05A110.8,110.8,0,0,1,16.75,115l31.13-2.39L60,83,39.38,59.49A111,111,0,0,1,58.53,40.12l23.7,20.34,29.5-12.41,2-31.16A110.75,110.75,0,0,1,128,16m0-16h0a127.54,127.54,0,0,0-16.22,1A16,16,0,0,0,97.81,15.84l-1.4,21.3L85.15,41.88,68.94,28a16,16,0,0,0-20.33-.41,127.53,127.53,0,0,0-21.9,22.15A16,16,0,0,0,27.35,70l14.07,16L36.8,97.41,15.52,99A16,16,0,0,0,.85,113.11,127.39,127.39,0,0,0,1,144.27a16,16,0,0,0,14.82,13.92l21.3,1.4,4.74,11.26L28,187.06a16,16,0,0,0-.41,20.33,127.53,127.53,0,0,0,22.15,21.9A16,16,0,0,0,70,228.65l16-14.07,11.32,4.62L99,240.48a16,16,0,0,0,14.09,14.67,127.74,127.74,0,0,0,31.15-.17,16,16,0,0,0,13.92-14.82l1.4-21.3,11.26-4.74L187.06,228a16,16,0,0,0,20.33.41,127.53,127.53,0,0,0,21.9-22.15,16,16,0,0,0-.64-20.32l-14.07-16.05,4.62-11.32L240.48,157a16,16,0,0,0,14.67-14.08,127.39,127.39,0,0,0-.17-31.16,16,16,0,0,0-14.82-13.92l-21.3-1.4-4.74-11.26L228,68.94a16,16,0,0,0,.41-20.33,127.53,127.53,0,0,0-22.15-21.9,16,16,0,0,0-20.32.64L169.91,41.42,158.59,36.8,157,15.52A16,16,0,0,0,142.88.85,128.48,128.48,0,0,0,128,0Z" style="fill:#007dc1"/></svg>