<?xml version="1.0" encoding="UTF-8" standalone="no"?>
<svg width="34px" height="32px" viewBox="0 0 34 32" version="1.1" xmlns="http://www.w3.org/2000/svg" xmlns:xlink="http://www.w3.org/1999/xlink">
    <g stroke="none" stroke-width="1" fill="none" fill-rule="evenodd">
        <g transform="translate(1.000000, 0.049127)" stroke="#16CFC2" stroke-width="0.5" fill="#16CFC2">
            <path d="M4.85114494,18.1367421 C4.28424798,18.1367421 3.82263189,18.5981632 3.82263189,19.1661105 C3.82263189,19.7334789 4.28424798,20.1954789 4.85114494,20.1954789 C5.4180419,20.1954789 5.879658,19.7334789 5.879658,19.1661105 C5.879658,18.5981632 5.4180419,18.1367421 4.85114494,18.1367421 M4.85114494,20.9660579 C3.85965373,20.9660579 3.05327172,20.1584263 3.05327172,19.1661105 C3.05327172,18.1732158 3.85965373,17.3661632 4.85114494,17.3661632 C5.84263616,17.3661632 6.64901816,18.1732158 6.64901816,19.1661105 C6.64901816,20.1584263 5.84263616,20.9660579 4.85114494,20.9660579 M6.26433808,12.3455316 C3.35928039,12.3455316 0.995667142,14.7111105 0.995667142,17.6185842 C0.995667142,20.5266368 3.35928039,22.8922158 6.26433808,22.8922158 C9.16997424,22.8922158 11.5335875,20.5266368 11.5335875,17.6185842 C11.5335875,16.7576895 11.3317028,15.9361632 10.9337179,15.1760053 L10.8024061,14.9253211 L21.6104702,4.10826842 L19.8744929,2.37142632 L18.1876852,4.05963684 L16.1584255,2.02811053 L14.5821048,3.60516316 L16.6113646,5.63611053 L14.6538346,7.59526842 L12.6245749,5.5649 L11.0488327,7.14195263 L13.0780925,9.1729 L9.09303822,13.1606895 L8.83909152,13.0182684 C8.05584817,12.5782684 7.16558856,12.3455316 6.26433808,12.3455316 M6.26433808,23.6622158 C2.93468613,23.6622158 0.22630698,20.9510053 0.22630698,17.6185842 C0.22630698,14.2867421 2.93468613,11.5755316 6.26433808,11.5755316 C7.1991396,11.5755316 8.12352873,11.7937947 8.95652018,12.2089 L11.9894189,9.1729 L9.96073765,7.14195263 L12.6245749,4.47532105 L14.6538346,6.50626842 L15.5232695,5.63611053 L13.4934313,3.60516316 L16.1584255,0.939110526 L18.1876852,2.97005789 L19.8744929,1.28184737 L22.6985653,4.10826842 L11.7412569,15.0746895 C12.1097399,15.8678474 12.3029476,16.7414789 12.3029476,17.6185842 C12.3029476,20.9510053 9.59399003,23.6622158 6.26433808,23.6622158" id="Fill-26"></path>
            <path d="M27.1594081,11.8655263 C26.5925111,11.8655263 26.1314735,12.3275263 26.1314735,12.8948947 C26.1314735,13.4628421 26.5925111,13.9248421 27.1594081,13.9248421 C27.726305,13.9248421 28.1879211,13.4628421 28.1879211,12.8948947 C28.1879211,12.3275263 27.726305,11.8655263 27.1594081,11.8655263 L27.1594081,11.8655263 Z M27.1594081,14.6948421 C26.1679168,14.6948421 25.3615348,13.8872105 25.3615348,12.8948947 C25.3615348,11.9025789 26.1679168,11.0955263 27.1594081,11.0955263 C28.1508993,11.0955263 28.9578597,11.9025789 28.9578597,12.8948947 C28.9578597,13.8872105 28.1508993,14.6948421 27.1594081,14.6948421 L27.1594081,14.6948421 Z M13.8228678,28.0019474 L15.8521276,30.0328947 L17.4284482,28.4552632 L15.3991884,26.4243158 L17.3567184,24.4657368 L19.3859781,26.4961053 L20.9617203,24.9190526 L18.9324605,22.8881053 L22.9175148,18.8997368 L23.1714615,19.0427368 C23.9547048,19.4827368 24.8449644,19.7154737 25.7462149,19.7154737 C28.6512726,19.7154737 31.0148859,17.3498947 31.0148859,14.4424211 C31.0148859,11.5349474 28.6512726,9.16936842 25.7462149,9.16936842 C22.8405788,9.16936842 20.4769655,11.5349474 20.4769655,14.4424211 C20.4769655,15.3033158 20.6794287,16.1248421 21.0768351,16.885 L21.2087254,17.1362632 L10.4006613,27.9527368 L12.1360601,29.6901579 L13.8228678,28.0019474 Z M15.8521276,31.1224737 L13.8228678,29.0909474 L12.1360601,30.7791579 L9.31198771,27.9527368 L20.2692961,16.9868947 C19.9008131,16.1937368 19.7076054,15.3195263 19.7076054,14.4424211 C19.7076054,11.1094211 22.416563,8.39878947 25.7462149,8.39878947 C29.0758669,8.39878947 31.7848245,11.1094211 31.7848245,14.4424211 C31.7848245,17.7748421 29.0758669,20.4860526 25.7462149,20.4860526 C24.8114134,20.4860526 23.8876027,20.2677895 23.0546113,19.8521053 L20.0211341,22.8881053 L22.0503938,24.9190526 L19.3859781,27.5851053 L17.3567184,25.5553158 L16.4872835,26.4243158 L18.5171217,28.4552632 L15.8521276,31.1224737 Z" id="Fill-27"></path>
        </g>
    </g>
</svg>
