<?xml version="1.0" encoding="UTF-8" standalone="no"?>
<svg width="25px" height="34px" viewBox="0 0 25 34" version="1.1" xmlns="http://www.w3.org/2000/svg" xmlns:xlink="http://www.w3.org/1999/xlink">
    <g stroke="none" stroke-width="1" fill="none" fill-rule="evenodd">
        <g fill="#AFC7FF">
            <path d="M2.85667913,32.0233287 L21.7732908,32.0233287 L23.6083901,30.2217576 L23.6083901,16.065073 L1.18752679,16.065073 C1.15605872,18.1904263 1.04363434,26.2311952 1.08478489,30.224154 L2.85667913,32.0233287 Z M22.2159954,33.0884017 L2.40294726,33.0884017 L0.0140637369,30.6626979 L0.0113741585,30.4499495 C-0.0434932405,25.9359037 0.117881462,15.6278606 0.11949521,15.5242822 L0.127832903,15 L24.6842215,15 L24.6842215,30.6653605 L22.2159954,33.0884017 Z" id="Fill-1-Copy"></path>
            <path d="M19.2133017,14.9110226 L21.2754014,14.9110226 L21.2754014,10.0737271 C21.2754014,5.10649269 17.1931593,1.06507304 12.1754819,1.06507304 C7.15807342,1.06507304 3.07583135,5.10649269 3.07583135,10.0737271 L3.07583135,14.9110226 L5.22749406,14.9110226 L5.22749406,9.58565736 C5.22749406,6.06212947 8.1233631,3.19521912 11.6824822,3.19521912 L12.7583135,3.19521912 C16.3174326,3.19521912 19.2133017,6.06212947 19.2133017,9.58565736 L19.2133017,14.9110226 Z M22.3512328,15.9760956 L18.1374703,15.9760956 L18.1374703,9.58565736 C18.1374703,6.64925099 15.7243806,4.26029216 12.7583135,4.26029216 L11.6824822,4.26029216 C8.71641514,4.26029216 6.30332541,6.64925099 6.30332541,9.58565736 L6.30332541,15.9760956 L2,15.9760956 L2,10.0737271 C2,4.51910491 6.56475243,0 12.1754819,0 C17.7862114,0 22.3512328,4.51910491 22.3512328,10.0737271 L22.3512328,15.9760956 Z" id="Fill-3-Copy"></path>
            <path d="M12.1516627,26.5205843 L13.2274941,26.5205843 L13.2274941,22.1987842 L13.495645,22.0446149 C13.9940239,21.758909 14.3033254,21.2295677 14.3033254,20.6626826 C14.3033254,19.7816009 13.5795599,19.065073 12.6895784,19.065073 C11.7995969,19.065073 11.0758314,19.7816009 11.0758314,20.6626826 C11.0758314,21.2295677 11.3851329,21.758909 11.8835117,22.0446149 L12.1516627,22.1987842 L12.1516627,26.5205843 Z M14.3033254,27.5856574 L11.0758314,27.5856574 L11.0758314,22.790166 C10.4053195,22.290913 10,21.5014276 10,20.6626826 C10,19.1944794 11.2065449,18 12.6895784,18 C14.1726119,18 15.3791568,19.1944794 15.3791568,20.6626826 C15.3791568,21.5014276 14.9738373,22.290913 14.3033254,22.790166 L14.3033254,27.5856574 Z" id="Fill-5-Copy"></path>
        </g>
    </g>
</svg>
