<?xml version="1.0" encoding="UTF-8"?>
<svg width="33px" height="32px" viewBox="0 0 33 32" version="1.1" xmlns="http://www.w3.org/2000/svg" xmlns:xlink="http://www.w3.org/1999/xlink">
  <!-- Generator: Sketch 52.5 (67469) - http://www.bohemiancoding.com/sketch -->
  <title>icon--chat_0</title>
  <desc>Created with Sketch.</desc>
  <g id="Guides" stroke="none" stroke-width="1" fill="none" fill-rule="evenodd">
    <g id="docs-front" transform="translate(-352.000000, -1298.000000)">
      <g id="Elsewhere" transform="translate(0.000000, 1210.000000)">
        <g id="Forum" transform="translate(168.000000, 86.000000)">
          <g id="icon--chat_0" transform="translate(182.000000, 0.000000)">
            <rect id="Rectangle" x="0" y="0" width="36" height="36"></rect>
            <path d="M3.30041055,20.4856156 L7.23379619,20.4856156 L7.23379619,25.2757567 L10.9997505,20.4856156 L22.6393484,20.4856156 L22.6393484,3.63539879 L3.30041055,3.63539879 L3.30041055,20.4856156 Z M6.40226247,27.6780177 L6.40226247,21.3178409 L3.08674824,21.3178409 C2.74563824,21.3178409 2.46887683,21.0402241 2.46887683,20.6994556 L2.46887683,3.42218405 C2.46887683,3.08079037 2.74563824,2.80379879 3.08674824,2.80379879 L22.8523859,2.80379879 C23.1934959,2.80379879 23.4702573,3.08079037 23.4702573,3.42218405 L23.4702573,20.6994556 C23.4702573,21.0402241 23.1934959,21.3178409 22.8523859,21.3178409 L11.4039596,21.3178409 L6.40226247,27.6780177 Z" id="Fill-1" stroke="#FFFFFF" stroke-width="0.5" fill="#FFFFFF" fill-rule="nonzero"></path>
            <path d="M30.7390865,33.2130973 L25.8773319,27.2530889 L15.3347838,27.2530889 C14.9942986,27.2530889 14.7169124,26.9754721 14.7169124,26.6347036 L14.7169124,20.9016657 L15.5484462,20.9016657 L15.5484462,26.4214889 L26.2721699,26.4214889 L29.9081776,30.8789899 L29.9081776,26.4214889 L33.2686733,26.4214889 L33.2686733,9.57064679 L23.0547404,9.57064679 L23.0547404,8.73842153 L33.4823356,8.73842153 C33.8228209,8.73842153 34.1002071,9.01666363 34.1002071,9.35805732 L34.1002071,26.6347036 C34.1002071,26.9754721 33.8228209,27.2530889 33.4823356,27.2530889 L30.7390865,27.2530889 L30.7390865,33.2130973 Z" id="Fill-3" stroke="#FFFFFF" stroke-width="0.5" fill="#FFFFFF"></path>
          </g>
        </g>
      </g>
    </g>
  </g>
</svg>
