<svg width="48" height="48" viewBox="0 0 48 48" fill="none" xmlns="http://www.w3.org/2000/svg">
<path d="M18 16.0247V5.99681C18 4.89966 17.1017 4 16.0063 4H5.99374C4.89828 4 4 4.89966 4 5.99681V16.0028C4 17.0999 4.89828 17.9996 5.99374 17.9996H15.9844C17.1017 18.0215 18 17.1219 18 16.0247Z" fill="#CFD6F8"/>
<path d="M16.722 35.9834C13.9227 35.9834 11.6832 33.4979 11.9632 30.5465C12.2216 27.9945 14.5041 26.1304 17.0019 26.1304H30.8047C35.3913 26.1304 39.5041 22.6907 39.9563 17.9639C40.4731 12.5714 36.3387 8 31.1923 8H22.9451C21.8684 8 20.9856 8.90985 20.9856 10.0194C20.9856 11.129 21.8684 12.0388 22.9451 12.0388H30.9124C33.4533 12.0388 35.7789 13.9251 36.0372 16.5215C36.3387 19.5173 34.0562 22.0472 31.1923 22.0472H17.1096C12.5661 22.0472 8.49632 25.4646 8.04412 30.1248C7.52733 35.473 11.6186 40 16.722 40H25.0553C26.132 40 27.0149 39.0902 27.0149 37.9806C27.0149 36.871 26.132 35.9612 25.0553 35.9612H16.722V35.9834Z" fill="#3F59E4"/>
<path d="M44.0809 42.0314V32.1665C44.0809 31.0849 43.1775 30.1979 42.0757 30.1979H32.0053C30.9035 30.1979 30 31.0849 30 32.1665V42.0314C30 43.113 30.9035 44 32.0053 44H42.0536C43.1775 44 44.0809 43.113 44.0809 42.0314Z" fill="#AAB6F3"/>
</svg>
