<?xml version="1.0" encoding="UTF-8"?>
<svg xmlns="http://www.w3.org/2000/svg" width="101" height="26" viewBox="0 0 101 26" fill="none">
  <path fill-rule="evenodd" clip-rule="evenodd" d="M53.3975 7.37203C56.2069 7.37203 58.3339 8.12866 59.7668 9.65082C61.1935 11.1656 61.9027 13.3477 61.9027 16.1885C61.9027 19.0292 61.1702 21.2274 59.6979 22.776C58.2216 24.3287 56.1275 25.1031 53.4315 25.1031C50.6448 25.1031 48.5326 24.3399 47.1122 22.8077L46.9389 22.6134C45.6388 21.0961 44.9925 18.952 44.9925 16.1885C44.9925 10.3395 47.8148 7.37203 53.3975 7.37203ZM92.8242 7.37164C95.5508 7.37164 97.5681 8.22348 98.8513 9.92956C100.066 11.5442 100.685 13.7647 100.716 16.587L100.715 17.1904H88.7407C88.8804 18.6413 89.3473 19.74 90.1384 20.4992C90.9664 21.2948 92.1525 21.6949 93.7113 21.6949C94.7396 21.6949 95.7183 21.5724 96.6496 21.3264C97.5811 21.0823 98.4062 20.7665 99.1205 20.3826L99.4562 20.2021V23.9161L99.321 23.9727C97.5209 24.727 95.4583 25.1028 93.1309 25.1028C90.5032 25.1028 88.428 24.3347 86.9181 22.7955C85.4101 21.2592 84.6588 19.0845 84.6588 16.2863C84.6588 13.4243 85.3679 11.2209 86.7945 9.68343C88.2244 8.14144 90.2401 7.37164 92.8242 7.37164ZM80.9527 0.89624V20.9301C80.9527 21.8675 80.5468 22.6645 79.747 23.3039C78.9706 23.9244 77.9977 24.38 76.8311 24.6715C75.6785 24.9593 74.4899 25.1027 73.2644 25.1027C70.7803 25.1027 68.7287 24.4263 67.1171 23.0713C65.4933 21.7044 64.69 19.3402 64.69 15.9909C64.69 13.3058 65.3763 11.1967 66.7558 9.66896C68.1432 8.13546 70.1924 7.37155 72.8895 7.37155C73.5208 7.37155 74.2452 7.44861 75.0635 7.60275C75.7553 7.73552 76.3863 7.9219 76.9577 8.16263V0.89624H80.9527ZM36.7003 7.40358C38.5689 7.40358 40.347 7.73578 42.0338 8.39992L42.1737 8.45501V12.0023L41.8606 11.8756C40.1593 11.1871 38.6097 10.8442 37.2115 10.8442C35.4733 10.8442 34.1903 11.2569 33.3509 12.0725C32.5124 12.8882 32.0869 14.2022 32.0869 16.0248C32.0869 17.9382 32.5032 19.3216 33.3227 20.1792C34.1367 21.0331 35.4621 21.4652 37.3137 21.4652C38.8248 21.4652 40.3482 21.1134 41.8839 20.4081L42.2068 20.2598V23.817L42.073 23.8742C40.4107 24.5848 38.6309 24.9394 36.7344 24.9394C34.3906 24.9394 32.4131 24.3206 30.81 23.0822L30.5723 22.8918L30.3916 22.7357C28.855 21.3533 28.0919 19.1982 28.0919 16.2864C28.0919 13.1766 28.9019 10.9112 30.535 9.50303C32.1571 8.10343 34.2159 7.40358 36.7003 7.40358ZM4.27983 7.86191L4.31482 24.6129H0.251183V7.86191H4.27983ZM17.1744 7.40367C19.6105 7.40367 21.4219 7.89704 22.6054 8.89665C23.7953 9.90255 24.3857 11.4543 24.3857 13.5394V24.6125H20.3566V13.9983C20.3566 11.8342 19.1116 10.7798 16.527 10.7798C15.4471 10.7798 14.408 10.9265 13.4103 11.2196L13.0381 11.3364V24.6125H9.00797V9.18719L9.13098 9.12695C10.1704 8.61794 11.4308 8.204 12.9163 7.88223L13.408 7.78175C14.7124 7.52973 15.9674 7.40367 17.1744 7.40367ZM53.3975 10.6809C51.8073 10.6809 50.6904 11.138 50.0205 12.0457C49.3357 12.9745 48.9885 14.3548 48.9885 16.1885C48.9885 18.0222 49.3465 19.4124 50.054 20.3633C50.7462 21.2938 51.8525 21.7606 53.3975 21.7606C56.394 21.7606 57.8746 19.9382 57.8746 16.1885C57.8746 14.3137 57.5114 12.9249 56.7959 12.0188C56.0926 11.1291 54.9661 10.6809 53.3975 10.6809ZM73.4007 10.7468C70.3085 10.7468 68.7862 12.4852 68.7862 16.0572C68.7862 17.8488 69.1396 19.2407 69.8394 20.2361C70.5188 21.2065 71.7185 21.6948 73.4688 21.6948C74.4933 21.6948 75.3485 21.5789 76.0353 21.3481C76.6183 21.1522 76.9075 20.9232 76.9517 20.6721L76.9577 20.603V11.6048L76.703 11.4767C76.2716 11.2715 75.8054 11.1077 75.3046 10.9863C74.6499 10.8267 74.0151 10.7468 73.4007 10.7468ZM92.722 10.617C91.5701 10.617 90.6835 10.9036 90.0475 11.4735C89.4874 11.9754 89.0924 12.8008 88.8703 13.9537L88.8254 14.2057H96.5916L96.5514 13.9479C96.3636 12.8526 95.9972 12.044 95.4578 11.5161C94.8459 10.9191 93.9379 10.617 92.722 10.617ZM4.41659 2.03971V5.57939H0.147949V2.03971H4.41659Z" fill="#007AFF"></path>
</svg>
