<svg width="14" height="14" viewBox="0 0 14 14" fill="none" xmlns="http://www.w3.org/2000/svg">
<mask id="path-1-inside-1_365_20872" fill="white">
<path d="M6.99076 0.000100703C6.83608 0.00228688 6.68906 0.0662331 6.58138 0.177178C6.4737 0.288126 6.41467 0.437337 6.41686 0.591999V2.34094C6.41467 2.49726 6.47534 2.64755 6.58465 2.75851C6.69451 2.86945 6.84373 2.93231 7.00006 2.93231C7.15638 2.93231 7.30559 2.86946 7.41546 2.75851C7.52477 2.64756 7.58544 2.49726 7.58325 2.34094V0.591999C7.58544 0.434048 7.52422 0.282114 7.41217 0.170616C7.30067 0.0591199 7.14872 -0.00264164 6.99076 8.67108e-05V0.000100703ZM2.46244 1.87973C2.22523 1.87973 2.01152 2.02346 1.92243 2.24373C1.83334 2.46344 1.88581 2.7154 2.05579 2.881L3.29213 4.11783L3.29268 4.11728C3.4009 4.23041 3.55067 4.2949 3.70698 4.29654C3.86384 4.29818 4.0147 4.23642 4.12511 4.12547C4.23606 4.01506 4.29783 3.86422 4.29619 3.70736C4.29455 3.55104 4.23006 3.40129 4.11692 3.29308L2.88003 2.05626C2.77072 1.94367 2.61986 1.87972 2.46245 1.87972L2.46244 1.87973ZM11.5208 1.87973C11.3694 1.88464 11.2256 1.9475 11.1201 2.05626L9.88323 3.29308C9.77009 3.4013 9.7056 3.55106 9.70397 3.70736C9.70233 3.86422 9.76409 4.01506 9.87505 4.12547C9.98546 4.23641 10.1363 4.29818 10.2932 4.29654C10.4495 4.2949 10.5993 4.23041 10.7075 4.11728L11.9438 2.88046L11.9444 2.881C12.1165 2.71322 12.1685 2.45689 12.075 2.23553C11.981 2.01418 11.7613 1.87262 11.5208 1.87973L11.5208 1.87973ZM7 3.5068C5.07494 3.5068 3.50193 5.07973 3.50193 7.00469C3.50193 8.92965 5.07494 10.5026 7 10.5026C8.92506 10.5026 10.4981 8.92965 10.4981 7.00469C10.4981 5.07973 8.92506 3.5068 7 3.5068V3.5068ZM7 4.67258C8.29483 4.67258 9.33223 5.70993 9.33223 7.00469C9.33223 8.29945 8.29483 9.3368 7 9.3368C5.70517 9.3368 4.66777 8.29945 4.66777 7.00469C4.66777 5.70993 5.70517 4.67258 7 4.67258V4.67258ZM0.591397 6.41718C0.435076 6.415 0.284771 6.47566 0.173812 6.58497C0.0628575 6.69483 0 6.84404 0 7.00035C0 7.15667 0.0628561 7.30587 0.173812 7.41573C0.284767 7.52504 0.435076 7.5857 0.591397 7.58352H2.34043C2.49675 7.58571 2.64706 7.52504 2.75802 7.41573C2.86897 7.30588 2.93183 7.15667 2.93183 7.00035C2.93183 6.84404 2.86897 6.69483 2.75802 6.58497C2.64706 6.47566 2.49675 6.415 2.34043 6.41718H0.591397ZM11.6596 6.41718C11.5032 6.415 11.3529 6.47566 11.242 6.58497C11.131 6.69483 11.0682 6.84404 11.0682 7.00035C11.0682 7.15667 11.131 7.30587 11.242 7.41573C11.3529 7.52504 11.5032 7.5857 11.6596 7.58352H13.4086C13.5649 7.58571 13.7152 7.52504 13.8262 7.41573C13.9371 7.30588 14 7.15667 14 7.00035C14 6.84404 13.9371 6.69483 13.8262 6.58497C13.7152 6.47566 13.5649 6.415 13.4086 6.41718H11.6596ZM3.69321 9.70688C3.54181 9.71125 3.39805 9.77465 3.29256 9.88341L2.05622 11.1202L2.05567 11.1197C1.94253 11.2284 1.87804 11.3777 1.87641 11.5345C1.87477 11.6914 1.93653 11.8422 2.04749 11.9526C2.1579 12.0636 2.30875 12.1253 2.46562 12.1237C2.62249 12.1221 2.7717 12.0576 2.87992 11.9444L4.11681 10.7076C4.28898 10.5404 4.34091 10.284 4.24744 10.0627C4.15343 9.84079 3.9337 9.69977 3.69322 9.70687L3.69321 9.70688ZM10.2887 9.70688C10.0515 9.70742 9.83836 9.85116 9.74927 10.0709C9.66018 10.2906 9.7132 10.5425 9.88318 10.7076L11.1201 11.9444C11.2283 12.0576 11.3775 12.1221 11.5344 12.1237C11.6912 12.1253 11.8421 12.0636 11.9525 11.9526C12.0635 11.8422 12.1252 11.6914 12.1236 11.5345C12.1219 11.3776 12.0574 11.2284 11.9443 11.1197L10.708 9.88286L10.7074 9.88341C10.5976 9.77027 10.4462 9.70688 10.2887 9.70688L10.2887 9.70688ZM6.99132 11.0689H6.99078C6.66939 11.0738 6.4125 11.3383 6.41687 11.6597V13.4086C6.41468 13.5649 6.47535 13.7152 6.58467 13.8262C6.69453 13.9371 6.84375 14 7.00007 14C7.15639 14 7.3056 13.9371 7.41547 13.8262C7.52479 13.7152 7.58545 13.5649 7.58327 13.4086V11.6597C7.58545 11.5023 7.52369 11.3504 7.41218 11.2389C7.30068 11.1279 7.14874 11.0661 6.99078 11.0689L6.99132 11.0689Z"/>
</mask>
<path d="M6.99076 0.000100703C6.83608 0.00228688 6.68906 0.0662331 6.58138 0.177178C6.4737 0.288126 6.41467 0.437337 6.41686 0.591999V2.34094C6.41467 2.49726 6.47534 2.64755 6.58465 2.75851C6.69451 2.86945 6.84373 2.93231 7.00006 2.93231C7.15638 2.93231 7.30559 2.86946 7.41546 2.75851C7.52477 2.64756 7.58544 2.49726 7.58325 2.34094V0.591999C7.58544 0.434048 7.52422 0.282114 7.41217 0.170616C7.30067 0.0591199 7.14872 -0.00264164 6.99076 8.67108e-05V0.000100703ZM2.46244 1.87973C2.22523 1.87973 2.01152 2.02346 1.92243 2.24373C1.83334 2.46344 1.88581 2.7154 2.05579 2.881L3.29213 4.11783L3.29268 4.11728C3.4009 4.23041 3.55067 4.2949 3.70698 4.29654C3.86384 4.29818 4.0147 4.23642 4.12511 4.12547C4.23606 4.01506 4.29783 3.86422 4.29619 3.70736C4.29455 3.55104 4.23006 3.40129 4.11692 3.29308L2.88003 2.05626C2.77072 1.94367 2.61986 1.87972 2.46245 1.87972L2.46244 1.87973ZM11.5208 1.87973C11.3694 1.88464 11.2256 1.9475 11.1201 2.05626L9.88323 3.29308C9.77009 3.4013 9.7056 3.55106 9.70397 3.70736C9.70233 3.86422 9.76409 4.01506 9.87505 4.12547C9.98546 4.23641 10.1363 4.29818 10.2932 4.29654C10.4495 4.2949 10.5993 4.23041 10.7075 4.11728L11.9438 2.88046L11.9444 2.881C12.1165 2.71322 12.1685 2.45689 12.075 2.23553C11.981 2.01418 11.7613 1.87262 11.5208 1.87973L11.5208 1.87973ZM7 3.5068C5.07494 3.5068 3.50193 5.07973 3.50193 7.00469C3.50193 8.92965 5.07494 10.5026 7 10.5026C8.92506 10.5026 10.4981 8.92965 10.4981 7.00469C10.4981 5.07973 8.92506 3.5068 7 3.5068V3.5068ZM7 4.67258C8.29483 4.67258 9.33223 5.70993 9.33223 7.00469C9.33223 8.29945 8.29483 9.3368 7 9.3368C5.70517 9.3368 4.66777 8.29945 4.66777 7.00469C4.66777 5.70993 5.70517 4.67258 7 4.67258V4.67258ZM0.591397 6.41718C0.435076 6.415 0.284771 6.47566 0.173812 6.58497C0.0628575 6.69483 0 6.84404 0 7.00035C0 7.15667 0.0628561 7.30587 0.173812 7.41573C0.284767 7.52504 0.435076 7.5857 0.591397 7.58352H2.34043C2.49675 7.58571 2.64706 7.52504 2.75802 7.41573C2.86897 7.30588 2.93183 7.15667 2.93183 7.00035C2.93183 6.84404 2.86897 6.69483 2.75802 6.58497C2.64706 6.47566 2.49675 6.415 2.34043 6.41718H0.591397ZM11.6596 6.41718C11.5032 6.415 11.3529 6.47566 11.242 6.58497C11.131 6.69483 11.0682 6.84404 11.0682 7.00035C11.0682 7.15667 11.131 7.30587 11.242 7.41573C11.3529 7.52504 11.5032 7.5857 11.6596 7.58352H13.4086C13.5649 7.58571 13.7152 7.52504 13.8262 7.41573C13.9371 7.30588 14 7.15667 14 7.00035C14 6.84404 13.9371 6.69483 13.8262 6.58497C13.7152 6.47566 13.5649 6.415 13.4086 6.41718H11.6596ZM3.69321 9.70688C3.54181 9.71125 3.39805 9.77465 3.29256 9.88341L2.05622 11.1202L2.05567 11.1197C1.94253 11.2284 1.87804 11.3777 1.87641 11.5345C1.87477 11.6914 1.93653 11.8422 2.04749 11.9526C2.1579 12.0636 2.30875 12.1253 2.46562 12.1237C2.62249 12.1221 2.7717 12.0576 2.87992 11.9444L4.11681 10.7076C4.28898 10.5404 4.34091 10.284 4.24744 10.0627C4.15343 9.84079 3.9337 9.69977 3.69322 9.70687L3.69321 9.70688ZM10.2887 9.70688C10.0515 9.70742 9.83836 9.85116 9.74927 10.0709C9.66018 10.2906 9.7132 10.5425 9.88318 10.7076L11.1201 11.9444C11.2283 12.0576 11.3775 12.1221 11.5344 12.1237C11.6912 12.1253 11.8421 12.0636 11.9525 11.9526C12.0635 11.8422 12.1252 11.6914 12.1236 11.5345C12.1219 11.3776 12.0574 11.2284 11.9443 11.1197L10.708 9.88286L10.7074 9.88341C10.5976 9.77027 10.4462 9.70688 10.2887 9.70688L10.2887 9.70688ZM6.99132 11.0689H6.99078C6.66939 11.0738 6.4125 11.3383 6.41687 11.6597V13.4086C6.41468 13.5649 6.47535 13.7152 6.58467 13.8262C6.69453 13.9371 6.84375 14 7.00007 14C7.15639 14 7.3056 13.9371 7.41547 13.8262C7.52479 13.7152 7.58545 13.5649 7.58327 13.4086V11.6597C7.58545 11.5023 7.52369 11.3504 7.41218 11.2389C7.30068 11.1279 7.14874 11.0661 6.99078 11.0689L6.99132 11.0689Z" fill="#17171B"/>
<path d="M6.99076 0.000100703L7.0049 1L7.99076 0.986067V0.000100703H6.99076ZM6.58138 0.177178L5.86381 -0.519308L5.86376 -0.519262L6.58138 0.177178ZM6.41686 0.591999H7.41696L7.41676 0.577887L6.41686 0.591999ZM6.41686 2.34094L7.41686 2.35493V2.34094H6.41686ZM6.58465 2.75851L5.8723 3.46033L5.87407 3.46212L6.58465 2.75851ZM7.41546 2.75851L8.12603 3.46214L8.12779 3.46035L7.41546 2.75851ZM7.58325 2.34094H6.58316L6.58335 2.35491L7.58325 2.34094ZM7.58325 0.591999L6.58325 0.578157V0.591999H7.58325ZM7.41217 0.170616L6.70508 0.877739L6.70682 0.879474L7.41217 0.170616ZM6.99076 8.67108e-05L6.97349 -0.999764L5.99076 -0.98279V8.67108e-05H6.99076ZM2.46244 1.87973V2.87973H2.58554L2.70497 2.84987L2.46244 1.87973ZM1.92243 2.24373L2.84914 2.61951L2.84947 2.61868L1.92243 2.24373ZM2.05579 2.881L2.7631 2.17397L2.75361 2.16473L2.05579 2.881ZM3.29213 4.11783L2.58489 4.8248L3.29198 5.53216L3.99922 4.82495L3.29213 4.11783ZM3.29268 4.11728L4.0153 3.42604L3.30856 2.68722L2.58559 3.41016L3.29268 4.11728ZM3.70698 4.29654L3.6965 5.29648L3.69652 5.29649L3.70698 4.29654ZM4.12511 4.12547L3.41976 3.41659L3.41627 3.42009L4.12511 4.12547ZM4.29619 3.70736L5.29614 3.69692L5.29614 3.69687L4.29619 3.70736ZM4.11692 3.29308L3.40983 4.00021L3.41769 4.00806L3.42571 4.01573L4.11692 3.29308ZM2.88003 2.05626L2.16257 2.75285L2.16772 2.75816L2.17295 2.76338L2.88003 2.05626ZM2.46245 1.87972V0.879724H2.33935L2.21992 0.909579L2.46245 1.87972ZM11.5208 1.87973L11.5784 0.881385L11.5333 0.878789L11.4883 0.880252L11.5208 1.87973ZM11.1201 2.05626L11.8272 2.76338L11.8326 2.75797L11.8379 2.75249L11.1201 2.05626ZM9.88323 3.29308L10.5744 4.01574L10.5825 4.00806L10.5903 4.00021L9.88323 3.29308ZM9.70397 3.70736L8.70402 3.69688V3.6969L9.70397 3.70736ZM9.87505 4.12547L10.5839 3.42008L10.5804 3.4166L9.87505 4.12547ZM10.2932 4.29654L10.3036 5.29649L10.3037 5.29649L10.2932 4.29654ZM10.7075 4.11728L10.0002 3.41031L9.99246 3.41809L9.98486 3.42603L10.7075 4.11728ZM11.9438 2.88046L12.6502 2.17264L11.943 1.46681L11.2366 2.17349L11.9438 2.88046ZM11.9444 2.881L11.238 3.58882L11.936 4.28546L12.6423 3.59718L11.9444 2.881ZM12.075 2.23553L12.9962 1.84653L12.9954 1.8446L12.075 2.23553ZM11.5208 1.87973L11.4632 2.87807L11.5067 2.88058L11.5503 2.87929L11.5208 1.87973ZM0.591397 6.41718L0.577412 7.41718H0.591397V6.41718ZM0.173812 6.58497L-0.527972 5.87258L-0.529768 5.87435L0.173812 6.58497ZM0.173812 7.41573L-0.529784 8.12634L-0.527992 8.1281L0.173812 7.41573ZM0.591397 7.58352V6.58342L0.577436 6.58362L0.591397 7.58352ZM2.34043 7.58352L2.35442 6.58352H2.34043V7.58352ZM2.75802 7.41573L3.4598 8.12813L3.4616 8.12635L2.75802 7.41573ZM2.75802 6.58497L3.46161 5.87437L3.45982 5.8726L2.75802 6.58497ZM2.34043 6.41718V7.41728L2.35439 7.41709L2.34043 6.41718ZM11.6596 6.41718L11.6456 7.41718H11.6596V6.41718ZM11.242 6.58497L10.5402 5.87258L10.5384 5.87435L11.242 6.58497ZM11.242 7.41573L10.5384 8.12634L10.5402 8.1281L11.242 7.41573ZM11.6596 7.58352V6.58342L11.6456 6.58362L11.6596 7.58352ZM13.4086 7.58352L13.4226 6.58352H13.4086V7.58352ZM13.8262 7.41573L14.528 8.12813L14.5298 8.12635L13.8262 7.41573ZM13.8262 6.58497L14.5298 5.87437L14.528 5.8726L13.8262 6.58497ZM13.4086 6.41718V7.41728L13.4226 7.41709L13.4086 6.41718ZM3.69321 9.70688L3.72207 10.7065L3.75401 10.7055L3.78582 10.7026L3.69321 9.70688ZM3.29256 9.88341L3.99981 10.5904L4.00514 10.585L4.01038 10.5796L3.29256 9.88341ZM2.05622 11.1202L1.34922 11.8274L2.05646 12.5345L2.76347 11.8272L2.05622 11.1202ZM2.05567 11.1197L2.76268 10.4125L2.06938 9.71939L1.36265 10.3988L2.05567 11.1197ZM1.87641 11.5345L2.87635 11.545V11.5449L1.87641 11.5345ZM2.04749 11.9526L2.75633 11.2472L2.75283 11.2437L2.04749 11.9526ZM2.46562 12.1237L2.47605 13.1236L2.47607 13.1236L2.46562 12.1237ZM2.87992 11.9444L2.17283 11.2373L2.16498 11.2452L2.1573 11.2532L2.87992 11.9444ZM4.11681 10.7076L3.42005 9.9903L3.41485 9.99535L3.40972 10.0005L4.11681 10.7076ZM4.24744 10.0627L5.16868 9.67368L5.1682 9.67257L4.24744 10.0627ZM3.69322 9.70687L3.66367 8.70731L3.63207 8.70825L3.6006 8.71117L3.69322 9.70687ZM10.2887 9.70688L10.605 8.75819L10.4499 8.7065L10.2864 8.70688L10.2887 9.70688ZM9.74927 10.0709L10.676 10.4467L10.676 10.4466L9.74927 10.0709ZM9.88318 10.7076L10.5903 10.0005L10.5851 9.99529L10.5798 9.99018L9.88318 10.7076ZM11.1201 11.9444L11.8427 11.2532L11.835 11.2452L11.8272 11.2373L11.1201 11.9444ZM11.5344 12.1237L11.5448 11.1237H11.5448L11.5344 12.1237ZM11.9525 11.9526L11.2472 11.2437L11.2437 11.2472L11.9525 11.9526ZM12.1236 11.5345L13.1235 11.5241V11.5241L12.1236 11.5345ZM11.9443 11.1197L11.2371 11.8267L11.2441 11.8337L11.2513 11.8406L11.9443 11.1197ZM10.708 9.88286L11.4152 9.17589L10.7074 8.46784L10.0002 9.17643L10.708 9.88286ZM10.7074 9.88341L9.99002 10.5801L10.6976 11.3088L11.4152 10.5898L10.7074 9.88341ZM10.2887 9.70688L9.97253 10.6556L10.1265 10.7069H10.2887V9.70688ZM6.99132 11.0689L7.01671 12.0685L6.99132 10.0689V11.0689ZM6.99078 11.0689V10.0689H6.98313L6.97547 10.069L6.99078 11.0689ZM6.41687 11.6597H7.41696L7.41678 11.6461L6.41687 11.6597ZM6.41687 13.4086L7.41687 13.4226V13.4086H6.41687ZM6.58467 13.8262L5.87231 14.528L5.87409 14.5298L6.58467 13.8262ZM7.41547 13.8262L8.12604 14.5298L8.1278 14.528L7.41547 13.8262ZM7.58327 13.4086H6.58317L6.58336 13.4226L7.58327 13.4086ZM7.58327 11.6597L6.58327 11.6458V11.6597H7.58327ZM7.41218 11.2389L8.11926 10.5317L8.11753 10.53L7.41218 11.2389ZM6.99078 11.0689L6.9654 10.0692L7.00814 12.0687L6.99078 11.0689ZM6.97663 -0.999799C6.55424 -0.99383 6.15483 -0.819138 5.86381 -0.519308L7.29895 0.873663C7.2233 0.951605 7.11792 0.998403 7.0049 1L6.97663 -0.999799ZM5.86376 -0.519262C5.57078 -0.217371 5.41105 0.18772 5.41696 0.606111L7.41676 0.577887C7.4183 0.686953 7.37663 0.793624 7.29899 0.873617L5.86376 -0.519262ZM5.41686 0.591999V2.34094H7.41686V0.591999H5.41686ZM5.41696 2.32696C5.41102 2.75149 5.5758 3.15937 5.8723 3.46033L7.29701 2.05669C7.37488 2.13573 7.41832 2.24302 7.41676 2.35493L5.41696 2.32696ZM5.87407 3.46212C6.16998 3.76095 6.5743 3.93231 7.00006 3.93231V1.93231C7.11316 1.93231 7.21905 1.97796 7.29523 2.05489L5.87407 3.46212ZM7.00006 3.93231C7.42582 3.93231 7.83013 3.76095 8.12602 3.46214L6.70489 2.05488C6.78105 1.97796 6.88694 1.93231 7.00006 1.93231V3.93231ZM8.12779 3.46035C8.42434 3.15936 8.58908 2.75146 8.58316 2.32698L6.58335 2.35491C6.58179 2.24305 6.6252 2.13575 6.70312 2.05666L8.12779 3.46035ZM8.58325 2.34094V0.591999H6.58325V2.34094H8.58325ZM8.58316 0.605839C8.58905 0.180014 8.42369 -0.233592 8.11752 -0.538242L6.70682 0.879474C6.62476 0.79782 6.58183 0.688083 6.58335 0.578159L8.58316 0.605839ZM8.11926 -0.536505C7.81689 -0.838863 7.40388 -1.0072 6.97349 -0.999764L7.00803 0.999938C6.89356 1.00191 6.78445 0.957102 6.70508 0.877736L8.11926 -0.536505ZM5.99076 8.67108e-05V0.000100703H7.99076V8.67108e-05H5.99076ZM2.46244 0.879725C1.8184 0.879725 1.23752 1.27011 0.995381 1.86878L2.84947 2.61868C2.78551 2.77681 2.63207 2.87973 2.46244 2.87973V0.879725ZM0.995717 1.86795C0.754228 2.46349 0.896147 3.14735 1.35797 3.59728L2.75361 2.16473C2.87547 2.28344 2.91244 2.46339 2.84914 2.61951L0.995717 1.86795ZM1.34855 3.58797L2.58489 4.8248L3.99938 3.41086L2.76303 2.17403L1.34855 3.58797ZM3.99922 4.82495L3.99977 4.82441L2.58559 3.41016L2.58504 3.4107L3.99922 4.82495ZM2.57006 4.80852C2.86555 5.11743 3.27258 5.29205 3.6965 5.29648L3.71745 3.29659C3.82876 3.29776 3.93625 3.3434 4.0153 3.42604L2.57006 4.80852ZM3.69652 5.29649C4.12267 5.30094 4.53302 5.13324 4.83394 4.83084L3.41627 3.42009C3.49637 3.3396 3.60502 3.29542 3.71743 3.29659L3.69652 5.29649ZM4.83045 4.83434C5.13286 4.53343 5.30058 4.12308 5.29614 3.69692L3.29625 3.71779C3.29507 3.60535 3.33926 3.4967 3.41977 3.41659L4.83045 4.83434ZM5.29614 3.69687C5.29169 3.2729 5.11704 2.86589 4.80813 2.57043L3.42571 4.01573C3.34307 3.93669 3.29741 3.82918 3.29625 3.71785L5.29614 3.69687ZM4.82401 2.58595L3.58712 1.34913L2.17295 2.76338L3.40983 4.00021L4.82401 2.58595ZM3.59749 1.35966C3.3 1.05325 2.89039 0.879724 2.46245 0.879724V2.87972C2.34934 2.87972 2.24144 2.83408 2.16257 2.75285L3.59749 1.35966ZM2.21992 0.909579L2.21992 0.90958L2.70497 2.84987L2.70497 2.84987L2.21992 0.909579ZM11.4883 0.880252C11.0811 0.893483 10.6906 1.0628 10.4023 1.36003L11.8379 2.75249C11.7606 2.83219 11.6577 2.87581 11.5532 2.8792L11.4883 0.880252ZM10.413 1.34913L9.17615 2.58596L10.5903 4.00021L11.8272 2.76338L10.413 1.34913ZM9.19203 2.57042C8.88311 2.8659 8.70846 3.27293 8.70402 3.69688L10.7039 3.71783C10.7027 3.82918 10.6571 3.93669 10.5744 4.01574L9.19203 2.57042ZM8.70402 3.6969C8.69956 4.12308 8.8673 4.53343 9.16971 4.83434L10.5804 3.4166C10.6609 3.49669 10.7051 3.60535 10.7039 3.71781L8.70402 3.6969ZM9.16621 4.83084C9.46714 5.13324 9.87748 5.30093 10.3036 5.29649L10.2827 3.2966C10.3951 3.29542 10.5038 3.33959 10.5839 3.42009L9.16621 4.83084ZM10.3037 5.29649C10.7276 5.29204 11.1346 5.11742 11.4301 4.80853L9.98486 3.42603C10.0639 3.3434 10.1714 3.29776 10.2827 3.2966L10.3037 5.29649ZM11.4147 4.82425L12.6511 3.58743L11.2366 2.17349L10.0002 3.41031L11.4147 4.82425ZM11.2374 3.58827L11.238 3.58882L12.6508 2.17319L12.6502 2.17264L11.2374 3.58827ZM12.6423 3.59718C13.1089 3.14248 13.2501 2.44766 12.9962 1.84654L11.1538 2.62453C11.0869 2.46612 11.1242 2.28395 11.2464 2.16483L12.6423 3.59718ZM12.9954 1.8446C12.7412 1.24612 12.1457 0.860818 11.4912 0.880162L11.5503 2.87929C11.3768 2.88442 11.2207 2.78225 11.1546 2.62646L12.9954 1.8446ZM11.5784 0.881386L11.5784 0.881385L11.4632 2.87807L11.4632 2.87807L11.5784 0.881386ZM7 2.5068C4.52271 2.5068 2.50193 4.5274 2.50193 7.00469H4.50193C4.50193 5.63207 5.62718 4.5068 7 4.5068V2.5068ZM2.50193 7.00469C2.50193 9.48198 4.52271 11.5026 7 11.5026V9.50258C5.62718 9.50258 4.50193 8.37731 4.50193 7.00469H2.50193ZM7 11.5026C9.47729 11.5026 11.4981 9.48198 11.4981 7.00469H9.49807C9.49807 8.37731 8.37282 9.50258 7 9.50258V11.5026ZM11.4981 7.00469C11.4981 4.5274 9.47729 2.5068 7 2.5068V4.5068C8.37282 4.5068 9.49807 5.63207 9.49807 7.00469H11.4981ZM7 5.67258C7.7426 5.67258 8.33223 6.26226 8.33223 7.00469H10.3322C10.3322 5.15759 8.84707 3.67258 7 3.67258V5.67258ZM8.33223 7.00469C8.33223 7.74712 7.7426 8.3368 7 8.3368V10.3368C8.84707 10.3368 10.3322 8.85179 10.3322 7.00469H8.33223ZM7 8.3368C6.2574 8.3368 5.66777 7.74712 5.66777 7.00469H3.66777C3.66777 8.85179 5.15293 10.3368 7 10.3368V8.3368ZM5.66777 7.00469C5.66777 6.26226 6.2574 5.67258 7 5.67258V3.67258C5.15293 3.67258 3.66777 5.15759 3.66777 7.00469H5.66777ZM0.605381 5.41728C0.180872 5.41134 -0.227008 5.5761 -0.52797 5.87258L0.875594 7.29736C0.796549 7.37523 0.68928 7.41865 0.577414 7.41709L0.605381 5.41728ZM-0.529768 5.87435C-0.828615 6.17024 -1 6.57457 -1 7.00035H1C1 7.1135 0.95433 7.21941 0.877392 7.29559L-0.529768 5.87435ZM-1 7.00035C-1 7.42614 -0.82861 7.83045 -0.529782 8.12634L0.877406 6.70513C0.954323 6.78129 1 6.88719 1 7.00035H-1ZM-0.527992 8.1281C-0.226996 8.42463 0.180905 8.58935 0.605359 8.58342L0.577436 6.58362C0.689246 6.58206 0.796529 6.62545 0.875616 6.70336L-0.527992 8.1281ZM0.591397 8.58352H2.34043V6.58352H0.591397V8.58352ZM2.32645 8.58342C2.75095 8.58936 3.15884 8.42461 3.4598 8.12812L2.05624 6.70334C2.13528 6.62547 2.24255 6.58205 2.35442 6.58362L2.32645 8.58342ZM3.4616 8.12635C3.76044 7.83046 3.93183 7.42613 3.93183 7.00035H1.93183C1.93183 6.8872 1.9775 6.78129 2.05444 6.70512L3.4616 8.12635ZM3.93183 7.00035C3.93183 6.57456 3.76044 6.17025 3.46161 5.87437L2.05442 7.29557C1.97751 7.21942 1.93183 7.11351 1.93183 7.00035H3.93183ZM3.45982 5.8726C3.15883 5.57607 2.75093 5.41135 2.32647 5.41728L2.35439 7.41709C2.24258 7.41865 2.1353 7.37525 2.05621 7.29734L3.45982 5.8726ZM2.34043 5.41718H0.591397V7.41718H2.34043V5.41718ZM11.6736 5.41728C11.249 5.41134 10.8412 5.5761 10.5402 5.87258L11.9438 7.29736C11.8647 7.37523 11.7574 7.41865 11.6456 7.41709L11.6736 5.41728ZM10.5384 5.87435C10.2396 6.17025 10.0682 6.57458 10.0682 7.00035H12.0682C12.0682 7.1135 12.0225 7.21941 11.9456 7.29559L10.5384 5.87435ZM10.0682 7.00035C10.0682 7.42614 10.2396 7.83045 10.5384 8.12634L11.9456 6.70513C12.0225 6.78129 12.0682 6.8872 12.0682 7.00035H10.0682ZM10.5402 8.1281C10.8412 8.42464 11.2491 8.58935 11.6735 8.58342L11.6456 6.58362C11.7574 6.58206 11.8647 6.62545 11.9438 6.70336L10.5402 8.1281ZM11.6596 8.58352H13.4086V6.58352H11.6596V8.58352ZM13.3946 8.58342C13.8191 8.58936 14.227 8.42461 14.528 8.12812L13.1244 6.70334C13.2035 6.62547 13.3107 6.58205 13.4226 6.58362L13.3946 8.58342ZM14.5298 8.12635C14.8286 7.83046 15 7.42613 15 7.00035H13C13 6.8872 13.0457 6.78129 13.1226 6.70512L14.5298 8.12635ZM15 7.00035C15 6.57456 14.8286 6.17025 14.5298 5.87437L13.1226 7.29557C13.0457 7.21942 13 7.11351 13 7.00035H15ZM14.528 5.8726C14.227 5.57607 13.8191 5.41135 13.3946 5.41728L13.4226 7.41709C13.3108 7.41865 13.2035 7.37525 13.1244 7.29734L14.528 5.8726ZM13.4086 5.41718H11.6596V7.41718H13.4086V5.41718ZM3.66434 8.70729C3.25204 8.7192 2.86125 8.89178 2.57474 9.18718L4.01038 10.5796C3.93485 10.6575 3.83158 10.7033 3.72207 10.7065L3.66434 8.70729ZM2.58532 9.17644L1.34898 10.4133L2.76347 11.8272L3.99981 10.5904L2.58532 9.17644ZM2.76322 10.413L2.76268 10.4125L1.34867 11.8269L1.34922 11.8274L2.76322 10.413ZM1.36265 10.3988C1.05615 10.6934 0.880901 11.0986 0.87646 11.5241L2.87635 11.5449C2.87518 11.6567 2.82892 11.7635 2.74869 11.8406L1.36265 10.3988ZM0.87646 11.5241C0.872005 11.9502 1.03973 12.3606 1.34215 12.6615L2.75283 11.2437C2.83332 11.3238 2.87753 11.4325 2.87635 11.545L0.87646 11.5241ZM1.33865 12.658C1.63958 12.9604 2.04993 13.1281 2.47605 13.1236L2.45518 11.1237C2.56758 11.1226 2.67621 11.1667 2.75632 11.2472L1.33865 12.658ZM2.47607 13.1236C2.90111 13.1192 3.30742 12.9442 3.60253 12.6357L2.1573 11.2532C2.23599 11.1709 2.34387 11.1249 2.45517 11.1237L2.47607 13.1236ZM3.58701 12.6516L4.82389 11.4147L3.40972 10.0005L2.17283 11.2373L3.58701 12.6516ZM4.81356 11.4249C5.28185 10.97 5.4223 10.2743 5.16868 9.67368L3.3262 10.4517C3.25952 10.2938 3.29611 10.1107 3.42005 9.9903L4.81356 11.4249ZM5.1682 9.67257C4.91363 9.0717 4.31699 8.688 3.66367 8.70731L3.72276 10.7064C3.55042 10.7115 3.39322 10.6099 3.32667 10.4528L5.1682 9.67257ZM3.6006 8.71117L3.60059 8.71117L3.78582 10.7026L3.78584 10.7026L3.6006 8.71117ZM10.2864 8.70688C9.64363 8.70836 9.06461 9.09813 8.82255 9.69513L10.676 10.4466C10.6121 10.6042 10.4594 10.7065 10.291 10.7069L10.2864 8.70688ZM8.82256 9.6951C8.58056 10.2919 8.72437 10.9762 9.18655 11.425L10.5798 9.99018C10.702 10.1088 10.7398 10.2893 10.676 10.4467L8.82256 9.6951ZM9.17609 11.4147L10.413 12.6516L11.8272 11.2373L10.5903 10.0005L9.17609 11.4147ZM10.3975 12.6357C10.6926 12.9442 11.0989 13.1192 11.5239 13.1236L11.5448 11.1237C11.6561 11.1249 11.764 11.1709 11.8427 11.2532L10.3975 12.6357ZM11.5239 13.1236C11.9501 13.1281 12.3604 12.9604 12.6613 12.658L11.2437 11.2472C11.3238 11.1668 11.4324 11.1226 11.5448 11.1237L11.5239 13.1236ZM12.6578 12.6615C12.9603 12.3606 13.128 11.9502 13.1235 11.5241L11.1236 11.5449C11.1225 11.4325 11.1667 11.3238 11.2472 11.2437L12.6578 12.6615ZM13.1235 11.5241C13.1191 11.0986 12.9438 10.6934 12.6373 10.3988L11.2513 11.8406C11.1711 11.7635 11.1248 11.6567 11.1236 11.545L13.1235 11.5241ZM12.6516 10.4127L11.4152 9.17589L10.0007 10.5898L11.2371 11.8267L12.6516 10.4127ZM10.0002 9.17643L9.99965 9.17697L11.4152 10.5898L11.4157 10.5893L10.0002 9.17643ZM11.4248 9.18675C11.125 8.87797 10.714 8.70688 10.2887 8.70688V10.7069C10.1783 10.7069 10.0701 10.6626 9.99002 10.5801L11.4248 9.18675ZM10.605 8.75819L10.605 8.75819L9.97253 10.6556L9.97253 10.6556L10.605 8.75819ZM6.99132 10.0689H6.99078V12.0689H6.99132V10.0689ZM6.97547 10.069C6.10231 10.0823 5.40511 10.8006 5.41696 11.6733L7.41678 11.6461C7.4199 11.8761 7.23647 12.0652 7.00608 12.0688L6.97547 10.069ZM5.41687 11.6597V13.4086H7.41687V11.6597H5.41687ZM5.41697 13.3946C5.41103 13.8192 5.57581 14.2271 5.87231 14.528L7.29702 13.1244C7.3749 13.2034 7.41834 13.3107 7.41677 13.4226L5.41697 13.3946ZM5.87409 14.5298C6.16999 14.8286 6.57432 15 7.00007 15V13C7.11318 13 7.21907 13.0456 7.29524 13.1226L5.87409 14.5298ZM7.00007 15C7.42583 15 7.83014 14.8286 8.12604 14.5298L6.70491 13.1226C6.78107 13.0457 6.88695 13 7.00007 13V15ZM8.1278 14.528C8.42435 14.2271 8.5891 13.8191 8.58317 13.3947L6.58336 13.4226C6.5818 13.3107 6.62522 13.2034 6.70314 13.1244L8.1278 14.528ZM8.58327 13.4086V11.6597H6.58327V13.4086H8.58327ZM8.58317 11.6736C8.58911 11.2457 8.42137 10.8338 8.11926 10.5317L6.7051 11.946C6.62601 11.8669 6.58179 11.7589 6.58336 11.6458L8.58317 11.6736ZM8.11753 10.53C7.81573 10.2297 7.40362 10.0616 6.97342 10.069L7.00814 12.0687C6.89385 12.0707 6.78563 12.0261 6.70683 11.9477L8.11753 10.53ZM7.01616 12.0686L7.01671 12.0685L6.96594 10.0692L6.9654 10.0692L7.01616 12.0686Z" fill="#F5F5F6" mask="url(#path-1-inside-1_365_20872)"/>
</svg>
