<svg width="12" height="12" viewBox="0 0 12 12" fill="none" xmlns="http://www.w3.org/2000/svg">
<path d="M0.526671 5.77319C0.494389 7.27369 1.07378 8.72549 2.13845 9.81049C3.20319 10.8959 4.66641 11.5256 6.20766 11.5625C7.22397 11.5511 8.21797 11.2737 9.08627 10.7594C9.95454 10.2446 10.6641 9.5119 11.1406 8.6378C11.2447 8.45247 11.2363 8.22649 11.1195 8.04874C11.002 7.871 10.795 7.76966 10.5785 7.78429L10.5133 7.78917C10.4354 7.79513 10.3569 7.80055 10.2757 7.80055C9.04952 7.7637 7.88849 7.25593 7.04584 6.38718C6.20373 5.51904 5.74956 4.36145 5.78185 3.16713C5.78185 2.35969 5.98889 1.56467 6.38518 0.85535C6.48871 0.670022 6.48091 0.444587 6.36403 0.266833C6.24715 0.0890794 6.04011 -0.0127894 5.82415 0.00129162C4.35699 0.136769 2.99612 0.806573 2.01383 1.87691C1.03203 2.94664 0.500509 4.33824 0.526584 5.77326L0.526671 5.77319ZM4.8864 1.35009C4.69438 1.93752 4.59642 2.55041 4.59642 3.16716C4.57304 4.53874 5.05671 5.87238 5.95948 6.92534C6.86224 7.97882 8.12353 8.68054 9.51318 8.90334C8.68721 9.84735 7.48107 10.3952 6.20769 10.4061C4.98154 10.3697 3.82051 9.86143 2.97842 8.99324C2.13576 8.1251 1.68159 6.96709 1.71388 5.77319C1.69996 4.80533 1.99885 3.85748 2.56823 3.06423C3.13705 2.27032 3.94799 1.67097 4.88644 1.35023L4.8864 1.35009Z" fill="#2b2b2b"/>
</svg>
