<svg id="Layer_1" data-name="Layer 1" xmlns="http://www.w3.org/2000/svg" viewBox="0 0 53.09 53.21"><defs><style>.cls-1{fill:#abadac;}</style></defs><title>icn</title><path class="cls-1" d="M24.64.08a28.76,28.76,0,0,0-8.65,2,30.86,30.86,0,0,0-5.12,3A25.93,25.93,0,0,0,2,16.47a29.07,29.07,0,0,0-1.14,3A28.13,28.13,0,0,0,.62,32.18c2,9.37,7.54,14.77,14.68,18.55,6.42,3.4,16.21,3.3,23.22-.23a26.54,26.54,0,0,0,10.13-9.22,27,27,0,0,0,4.44-14.91A28.15,28.15,0,0,0,48.66,12C44.2,5,36.4-.74,24.64.08ZM44.79,44.13a24.53,24.53,0,0,1-13.66,7.28,25.73,25.73,0,0,1-17.07-2.85A24.91,24.91,0,0,1,3.92,37.75,26,26,0,0,1,2.21,20.22c1.5-5.3,4.06-9.71,8.08-12.86A27.45,27.45,0,0,1,20.65,2a24.05,24.05,0,0,1,4.67-.68,24.16,24.16,0,0,1,19.58,8,26.12,26.12,0,0,1,3,3.64,28.27,28.27,0,0,1,3,7.51A25.59,25.59,0,0,1,44.79,44.13Zm-7.91-10L31.42,17.37a3.89,3.89,0,0,0-3.36-2.77H25.3a3.91,3.91,0,0,0-3.37,2.81L16.73,34a3.63,3.63,0,0,0,2.32,4.5,3.59,3.59,0,0,0,1.1.22,3.88,3.88,0,0,0,3.39-2.81l.93-3.34h4.69l1,3.41a3.68,3.68,0,0,0,3.36,2.61,3.55,3.55,0,0,0,1.11-.09A3.46,3.46,0,0,0,36.88,34.13ZM34,36.71c-.81.26-1.7-.54-2-1.32L30.6,30.6H23l-1.35,4.75a1.62,1.62,0,0,1-2,1.17,1.45,1.45,0,0,1-1-1.83L23.83,18c.21-.64.81-1.37,1.46-1.37h2.76c.65,0,1.26.77,1.46,1.39L35,34.59A1.74,1.74,0,0,1,34,36.71ZM16,11.41a2,2,0,0,0,.5-2.82h0A2.06,2.06,0,0,0,13.12,11h0A2,2,0,0,0,16,11.41Zm-2-1A1,1,0,0,1,14.17,9a1,1,0,0,1,1.4.25h0a1,1,0,0,1-.18,1.4,1,1,0,0,1-1.4-.26ZM20.11,8.3l1.4-.45.47.57,1.08-.35L20.34,4.9l-1,.31L19,9.38,20.06,9Zm.12-2,.74.91-.82.26Zm6.35,1.67a1.6,1.6,0,0,0,1.8-1.77V4H27.31V6.18c0,.54-.28.79-.71.78s-.7-.27-.7-.82V4H24.83V6.17A1.58,1.58,0,0,0,26.58,7.92Zm4.85.64,1,.31.85-2.77,1.1.33.27-.89-3.21-1-.27.89,1.1.33Zm5.66.79,1.13.75-.81,1.21.88.59,2.12-3.18-.88-.59-.79,1.19-1.13-.75.79-1.19-.88-.59L35.41,10l.88.59Zm3.55,32.24a2.06,2.06,0,0,0-3.23,2.56h0a2.06,2.06,0,0,0,3.23-2.56Zm-1,2.09a1,1,0,0,1-1.41-.2h0a1,1,0,0,1,.13-1.4,1,1,0,0,1,1.41.2h0A1,1,0,0,1,39.68,43.68Zm-5.89.91-1.38.51-.5-.54L30.84,45l2.86,3,1-.35.19-4.18-1,.39Zm0,2.05L33,45.77l.8-.3Zm-6.42-1.39a1.6,1.6,0,0,0-1.71,1.85l.09,2.12,1.08,0L26.69,47c0-.53.24-.8.67-.82s.72.23.74.78l.09,2.12,1.08,0-.09-2.15A1.58,1.58,0,0,0,27.33,45.25Zm-4.87-.43-1-.28-.75,2.8L19.57,47l-.24.9,3.24.87.24-.9-1.11-.3Zm-5.68-.56-1.17-.7.75-1.25-.91-.54-2,3.28.91.54.74-1.23,1.17.7-.74,1.23.91.54,2-3.28L17.53,43Z"/></svg>