<svg width="80" height="80" viewBox="0 0 80 80" fill="none" xmlns="http://www.w3.org/2000/svg">
<circle cx="40" cy="40" r="40" fill="#A7B5EC"/>
<path fill-rule="evenodd" clip-rule="evenodd" d="M57.9501 51.3057C57.9501 49.7845 56.9093 49.7845 55.9486 49.2241C55.9486 49.2241 48.7432 45.7014 48.503 45.141C48.503 44.9008 48.2628 44.9008 48.2628 44.9008C48.2628 44.9008 48.2628 44.9008 48.2628 44.6607C47.9425 44.1002 47.9425 43.3797 47.7024 43.3797C47.7024 43.3797 47.7024 43.3797 47.7024 43.1395V42.0987L47.9425 41.8585C48.2628 41.2981 48.2628 40.2573 48.503 40.0172C48.7432 39.777 48.9833 39.777 49.2235 38.496C49.5438 37.215 50.0241 35.4537 49.5438 35.4537C49.5438 35.4537 49.2235 35.4537 49.2235 35.6939C49.2235 35.1335 49.5438 34.1728 49.5438 33.3721C49.5438 32.3314 49.5438 29.5293 48.9833 28.7287C48.7432 28.2483 47.9425 27.4477 47.4622 26.9673C46.9818 26.7271 46.6616 26.487 46.4214 26.1667C45.3806 25.6864 44.4199 25.6864 43.6193 25.6864C42.5785 25.6864 41.2975 25.6864 40.577 25.9265C39.296 26.1667 38.4954 26.9673 38.0151 28.0081C37.6948 29.0489 37.4547 31.851 37.4547 33.132C37.4547 33.6123 37.6948 34.4129 37.6948 34.8933C37.6948 35.1335 37.6948 35.1335 37.6948 35.4537C37.2145 35.4537 37.6948 37.215 38.0151 38.496C38.4954 39.5368 38.7356 39.5368 38.9758 40.0172C39.296 40.2573 39.296 41.5383 39.5362 41.8585L39.7764 42.0987V43.6199V43.3797C39.5362 43.86 39.5362 44.4205 39.296 44.9008C39.296 44.9008 38.9758 44.9008 38.9758 45.141C38.7356 45.7014 31.6103 49.2241 31.6103 49.2241C30.5695 49.7845 29.5287 49.7845 29.5287 51.3057L28.2477 56.4295H58.9909L57.9501 51.3057ZM25.4456 51.0655C25.6858 47.4628 28.4879 46.422 29.2885 46.1818H29.5287C31.8504 44.9008 34.4124 43.6199 35.6933 42.8193C35.6933 42.5791 35.4531 42.0987 35.4531 41.8585C34.8927 41.0579 34.6525 40.2573 34.4124 39.2966C33.8519 37.4552 33.6118 35.9341 33.8519 34.6531C33.8519 34.1728 33.6118 33.6123 33.6118 33.132C33.6118 33.132 33.6118 28.4885 34.8927 26.1667C35.6933 24.6456 36.7341 23.6048 38.0151 22.8842C37.4547 22.3238 36.9743 21.8435 36.4139 21.6033C36.1737 21.3631 35.6933 21.0429 35.4531 20.8027C34.8927 20.5625 34.1722 20.5625 33.3716 20.5625C32.0906 20.5625 31.0498 20.8027 30.3293 20.8027C29.2885 21.0429 28.2477 22.0836 27.7674 22.8842C27.2069 23.925 26.9668 26.9673 27.2069 28.0081C27.2069 28.4885 27.4471 29.2891 27.4471 29.7694C27.4471 30.0096 27.4471 30.0096 27.4471 30.3299C26.9668 30.3299 27.4471 32.0912 27.7674 33.3721C28.0075 34.6531 28.4879 34.6531 28.4879 34.8933C28.7281 35.1335 28.7281 36.4144 29.0483 36.7347L29.2885 36.9749V38.496V38.2558C29.2885 38.7362 29.0483 39.2966 28.7281 39.777C28.7281 39.777 28.4879 39.777 28.4879 40.0172C28.2477 40.5776 21.0423 44.1002 21.0423 44.1002C20.0816 44.6607 19.0408 44.6607 19.0408 46.1818L18 51.3057H25.2054L25.4456 51.0655Z" fill="white"/>
</svg>
