<svg width="80" height="80" viewBox="0 0 80 80" fill="none" xmlns="http://www.w3.org/2000/svg">
<circle cx="40" cy="40" r="40" fill="#A7B5EC"/>
<mask id="mask0_240_8252" style="mask-type:alpha" maskUnits="userSpaceOnUse" x="0" y="0" width="80" height="80">
<path d="M80 40C80 62.0914 62.0914 80 40 80C17.9086 80 0 62.0914 0 40C0 17.9086 17.9086 0 40 0C62.0914 0 80 17.9086 80 40Z" fill="#F2F5FF"/>
</mask>
<g mask="url(#mask0_240_8252)">
<path fill-rule="evenodd" clip-rule="evenodd" d="M36.2595 16C34.4451 16 32.8438 17.2578 32.3145 19.0987L22.1805 54.3478C21.516 56.6589 22.7436 59.1038 24.9223 59.8086C27.1011 60.5134 29.4059 59.2112 30.0704 56.9001L32.9708 46.8117H45.86L48.9496 56.9675C49.6491 59.2669 51.9734 60.5294 54.1412 59.7874C56.3089 59.0454 57.4991 56.5798 56.7996 54.2804L46.0764 19.0314C45.5267 17.2245 43.9412 16 42.1513 16H36.2595Z" fill="white"/>
</g>
</svg>
