<svg width="157" height="22" xmlns="http://www.w3.org/2000/svg">
  <path
    fill="#FFFFFF"
    d="M56.016.408h5.172c4.792 0 7.86 3.25 7.86 8.246 0 5.119-2.868 8.328-7.96 8.328h-5.052V.408h-.02zm4.711 15.01c4.39 0 6.576-2.417 6.576-6.764 0-4.062-2.145-6.682-6.456-6.682H57.64v13.446h3.087zM71.25 11.071c0-3.818 2.205-6.093 4.992-6.093 3.208 0 5.253 2.721 4.892 6.459h-8.34c.1 3.392 1.824 4.468 3.609 4.468 2.004 0 3.007-1.523 3.348-2.457l1.443.548c-.722 2.01-2.526 3.29-4.832 3.29-3.087 0-5.112-2.112-5.112-6.215zm8.32-.955c0-2.559-1.584-3.818-3.328-3.818-1.864 0-3.288 1.564-3.428 3.818h6.756zM82.7 5.303h1.643l2.266 6.682 1.223 3.555 1.203-3.535L91.2 5.303h1.604l-4.01 11.679h-1.965L82.7 5.302zM94.328 11.071c0-3.818 2.206-6.093 4.992-6.093 3.208 0 5.253 2.721 4.892 6.459h-8.34c.1 3.392 1.824 4.468 3.589 4.468 2.004 0 3.007-1.523 3.348-2.457l1.443.548c-.722 2.01-2.526 3.29-4.831 3.29-3.048 0-5.093-2.112-5.093-6.215zm8.32-.955c0-2.559-1.584-3.818-3.328-3.818-1.864 0-3.288 1.564-3.428 3.818h6.756zM108.802.408h-1.564v16.574h1.564V.408zM111.688 11.152c0-3.737 2.405-6.174 5.332-6.174s5.333 2.437 5.333 6.174c0 3.738-2.486 6.134-5.333 6.134-2.846 0-5.332-2.396-5.332-6.134zm9.041.02c0-3.168-1.664-4.773-3.709-4.773-2.065 0-3.709 1.605-3.709 4.774 0 3.168 1.664 4.712 3.709 4.712 2.065 0 3.709-1.524 3.709-4.712zM125.242 5.303h1.524v2.03c.561-1.137 1.804-2.376 3.829-2.376 2.546 0 4.712 2.133 4.712 6.155 0 4.021-2.166 6.154-4.712 6.154-2.105 0-3.268-1.26-3.789-2.336V21.592h-1.564V5.302zm8.501 5.809c0-3.413-1.544-4.712-3.449-4.712-2.004 0-3.548 1.482-3.548 4.712 0 3.23 1.544 4.773 3.548 4.773 1.905 0 3.449-1.34 3.449-4.773zM137.395 11.071c0-3.818 2.205-6.093 4.992-6.093 3.207 0 5.252 2.721 4.891 6.459h-8.34c.101 3.392 1.825 4.468 3.609 4.468 2.005 0 3.007-1.523 3.348-2.457l1.444.548c-.722 2.01-2.526 3.29-4.832 3.29-3.068 0-5.112-2.112-5.112-6.215zm8.32-.955c0-2.559-1.584-3.818-3.328-3.818-1.865 0-3.288 1.564-3.429 3.818h6.757zM150.305 5.303h1.543v2.58c.341-1.098 1.584-2.743 3.77-2.743.661 0 1.082.102 1.383.163v1.604a6.236 6.236 0 00-1.403-.142c-2.667 0-3.73 1.99-3.73 4.855v5.341h-1.543V5.303h-.02zM6.034 4.835C2.706 4.835.02 7.557.02 10.93c0 3.372 2.686 6.093 6.014 6.093 3.328 0 6.015-2.721 6.015-6.093 0-3.352-2.687-6.094-6.015-6.094zm0 9.14c-1.664 0-3.007-1.36-3.007-3.046 0-1.686 1.343-3.047 3.007-3.047 1.664 0 3.007 1.361 3.007 3.047 0 1.686-1.343 3.047-3.007 3.047zM16.599 12.98c0-.487.581-.71.902-.386 1.503 1.565 3.99 4.205 4.01 4.225.04.04.06.102.22.142.06.02.16.02.26.02h2.707c.482 0 .642-.568.401-.852l-4.49-4.672-.241-.244c-.501-.609-.461-.853.12-1.482l3.589-4.022c.24-.284.08-.853-.421-.853H21.19c-.1 0-.18 0-.24.02-.141.04-.201.102-.241.142-.02.02-1.985 2.174-3.208 3.494a.53.53 0 01-.922-.366V1.24c0-.345-.281-.487-.522-.487h-2.004c-.341 0-.522.244-.522.447v15.335c0 .345.301.447.521.447h2.005c.321 0 .522-.224.522-.467V12.98h.02zM33 16.454l-.221-2.032c-.02-.284-.281-.467-.562-.426-.16.02-.3.04-.46.04-1.605 0-2.908-1.279-2.988-2.884v-2.66c0-.325.24-.59.561-.59h2.687a.5.5 0 00.481-.528v-1.93c0-.365-.24-.568-.441-.568H29.35c-.32 0-.56-.223-.56-.548V1.24a.497.497 0 00-.522-.487h-2.005c-.26 0-.501.162-.501.467v9.912c.08 3.29 2.746 5.931 6.014 5.931.281 0 .542-.02.802-.06.26-.021.461-.285.421-.55zM47.494 13.894c-1.704 0-1.965-.609-1.965-2.925V5.405a.512.512 0 00-.521-.508h-2.005a.516.516 0 00-.521.508v.264a5.898 5.898 0 00-2.967-.792c-3.328 0-6.015 2.722-6.015 6.093 0 3.372 2.687 6.094 6.015 6.094a5.974 5.974 0 003.909-1.462c.561.873 1.484 1.442 2.887 1.462.24 0 1.524.04 1.524-.569v-2.193c0-.204-.14-.407-.341-.407zm-7.98.082c-1.664 0-3.007-1.361-3.007-3.047 0-1.686 1.343-3.047 3.008-3.047 1.664 0 3.007 1.361 3.007 3.047 0 1.686-1.343 3.047-3.007 3.047z" />
</svg>