<svg width="54" height="18" viewBox="0 0 54 18" fill="none" xmlns="http://www.w3.org/2000/svg">
<g clip-path="url(#clip0_2406_48438)">
<path d="M27.31 1.25014C26.6967 0.722919 25.9488 0.376682 25.15 0.250139C24.4586 0.112055 23.755 0.0450401 23.05 0.0501393C21.856 0.0368725 20.6729 0.278945 19.58 0.760139C18.5567 1.21516 17.6377 1.87546 16.88 2.70014C16.1254 3.51674 15.5287 4.4661 15.12 5.50014C14.6886 6.61622 14.4715 7.80362 14.48 9.00014V9.00014C14.4707 10.1958 14.6843 11.3828 15.11 12.5001C15.5077 13.5516 16.1054 14.5161 16.87 15.3401C17.6269 16.1467 18.5383 16.7929 19.55 17.2401C20.6072 17.7105 21.7529 17.9492 22.91 17.9401C23.6357 17.9534 24.3605 17.8829 25.07 17.7301C25.5549 17.6199 26.0249 17.452 26.47 17.2301C26.7562 17.0932 27.0305 16.9327 27.29 16.7501L25.41 13.8701C24.6772 14.2552 23.8574 14.4447 23.03 14.4201C22.3594 14.4334 21.6951 14.2895 21.09 14.0001C20.5124 13.717 20.0012 13.3149 19.59 12.8201C19.1546 12.3051 18.8158 11.7156 18.59 11.0801C18.3637 10.4103 18.2521 9.70711 18.26 9.00014V9.00014C18.2543 8.28516 18.3727 7.57462 18.61 6.90014C18.8353 6.26744 19.1742 5.68117 19.61 5.17014C20.0251 4.6779 20.5397 4.27916 21.12 4.00014C21.7036 3.70475 22.3461 3.54413 23 3.53014C23.7838 3.49735 24.5636 3.6588 25.27 4.00014C25.41 4.07014 25.39 4.00014 25.36 4.00014L25.44 4.06014L27.31 1.25014ZM11.63 9.05014C11.1456 8.61615 10.5954 8.26175 10 8.00014C9.27982 7.68683 8.53788 7.42615 7.78 7.22014C7.06 7.02681 6.46667 6.85347 6 6.70014C5.61929 6.58731 5.25338 6.42953 4.91 6.23014C4.67769 6.09886 4.48708 5.90477 4.36 5.67014C4.25464 5.44154 4.20332 5.19176 4.21 4.94014V4.94014C4.20883 4.7314 4.25608 4.52523 4.34805 4.33784C4.44001 4.15044 4.57417 3.98693 4.74 3.86014C5.20176 3.53984 5.7596 3.38802 6.32 3.43014C7.04755 3.43618 7.76596 3.5928 8.43 3.89014C9.19223 4.22915 9.91629 4.64817 10.59 5.14014L12.47 2.26014C11.6444 1.54016 10.7005 0.968402 9.68 0.570139C8.61703 0.180494 7.49207 -0.0126462 6.36 0.00013929C5.55783 -0.0142677 4.75927 0.110931 4 0.370139C3.34442 0.604935 2.74256 0.96877 2.23 1.44014C1.72521 1.90122 1.32316 2.46341 1.05 3.09014C0.761234 3.76956 0.618155 4.50199 0.63 5.24014V5.24014C0.594418 5.99476 0.720571 6.74826 1 7.45014C1.2542 8.01477 1.63791 8.51153 2.12 8.90014C2.63636 9.32303 3.21702 9.66063 3.84 9.90014C4.57818 10.1853 5.33288 10.4258 6.1 10.6201C6.66873 10.7639 7.2295 10.9375 7.78 11.1401C8.13062 11.2697 8.46596 11.4374 8.78 11.6401C8.98809 11.7694 9.15739 11.9526 9.27 12.1701C9.36021 12.3783 9.40454 12.6034 9.4 12.8301V12.8301C9.4072 13.0664 9.35404 13.3005 9.24556 13.5105C9.13707 13.7205 8.97684 13.8993 8.78 14.0301C8.25059 14.3695 7.62793 14.5339 7 14.5001C6.1046 14.5091 5.21889 14.3142 4.41 13.9301C3.57605 13.5199 2.79944 13.0022 2.1 12.3901L0 15.1001C0.942703 16.0163 2.06212 16.7308 3.29 17.2001C4.4747 17.6517 5.73216 17.8822 7 17.8801C7.82729 17.8905 8.65094 17.769 9.44 17.5201C10.1297 17.3144 10.7719 16.9746 11.33 16.5201C11.8655 16.0576 12.2895 15.4798 12.57 14.8301C12.8757 14.1026 13.0256 13.3191 13.01 12.5301C13.0317 11.8474 12.9161 11.1673 12.67 10.5301C12.4409 9.96387 12.0851 9.45759 11.63 9.05014ZM33.44 6.26014C32.84 5.26014 33.54 4.99014 33.68 4.31014C33.6445 3.51004 33.4508 2.72491 33.11 2.00014C32.9269 1.26839 32.5855 0.5857 32.11 0.00013929H29.72V18.0001H30.79C31.285 18.0626 31.7878 18.0113 32.26 17.8501C32.556 17.7221 32.8184 17.5273 33.0266 17.2809C33.2348 17.0346 33.3831 16.7434 33.46 16.4301C33.582 15.8215 33.5476 15.1919 33.36 14.6001C33.3 14.3701 33.62 14.2201 33.7 14.1401C33.766 14.0668 33.811 13.977 33.8304 13.8802C33.8497 13.7834 33.8427 13.6833 33.81 13.5901C33.727 13.4396 33.597 13.3202 33.44 13.2501C33.5667 13.2004 33.6874 13.1367 33.8 13.0601C34.06 12.8901 34.28 12.7301 34.22 12.4401C34.1403 12.1969 34.0433 11.9596 33.93 11.7301C33.8796 11.587 33.8624 11.4343 33.8797 11.2836C33.897 11.1329 33.9484 10.9881 34.03 10.8601C34.25 10.5701 34.63 10.5101 34.86 10.3501C35.006 10.2657 35.133 10.1519 35.2328 10.0159C35.3326 9.87996 35.4032 9.72476 35.44 9.56014C35.57 9.09014 35.12 8.64014 34.65 7.98014C34.18 7.32014 33.78 6.81014 33.44 6.26014ZM50.1 0.00013929L45.78 7.35014L41.46 0.00013929H37.56V18.0001H41.13V6.11014L45.71 13.4601H45.8L50.43 6.00014V18.0001H54V0.00013929H50.1Z" fill="#3D3D3D"/>
</g>
<defs>
<clipPath id="clip0_2406_48438">
<rect width="54" height="18" fill="white"/>
</clipPath>
</defs>
</svg>
