<?xml version="1.0" encoding="utf-8"?>
<!-- Generator: Adobe Illustrator 25.0.1, SVG Export Plug-In . SVG Version: 6.00 Build 0)  -->
<svg version="1.1" id="Layer_1" xmlns="http://www.w3.org/2000/svg" xmlns:xlink="http://www.w3.org/1999/xlink" x="0px" y="0px"
	 viewBox="0 0 40 40" style="enable-background:new 0 0 40 40;" xml:space="preserve">
<style type="text/css">
	.st0{fill:#00287A;}
</style>
<path class="st0" d="M26.76,4.627c-1.548,0.067-3.043,0.587-4.3,1.493c-0.667,0.473-1.073,0.933-1.573,1.367L19.42,8.82
	l-1.467,1.333c-0.5,0.427-0.987,0.92-1.433,1.233c-0.959,0.693-2.104,1.08-3.287,1.113c-2.627,0-5.233,0.033-7.9,0v1.333
	c2.633-0.033,5.267,0,7.907,0.033c1.475,0.019,2.922-0.399,4.16-1.2c0.667-0.427,1.107-0.847,1.633-1.253l1.547-1.227l1.547-1.227
	c0.527-0.4,1.053-0.853,1.5-1.12c0.94-0.583,2.036-0.862,3.14-0.8c2.343,0.126,4.675,0.391,6.987,0.793
	c-2.313,0.402-4.649,0.667-6.993,0.793c-1.548,0.067-3.043,0.587-4.3,1.493c-0.548,0.431-1.073,0.889-1.573,1.373l-1.467,1.333
	l-1.467,1.333c-0.493,0.427-0.98,0.92-1.433,1.233c-0.958,0.693-2.104,1.079-3.287,1.107c-2.627,0-5.233,0.033-7.9,0v1.333
	c2.631-0.036,5.267-0.024,7.907,0.033c1.472,0.016,2.917-0.401,4.153-1.2c0.667-0.427,1.113-0.853,1.64-1.253l1.547-1.227
	l1.547-1.233c0.527-0.393,1.053-0.853,1.493-1.113c0.942-0.582,2.041-0.862,3.147-0.8c2.343,0.126,4.676,0.391,6.987,0.793
	c-2.313,0.408-4.648,0.675-6.993,0.8c-1.548,0.063-3.043,0.58-4.3,1.487c-0.667,0.48-1.073,0.933-1.573,1.373l-1.467,1.333
	l-1.467,1.333c-0.456,0.435-0.935,0.847-1.433,1.233c-0.958,0.693-2.104,1.079-3.287,1.107c-2.627,0-5.233,0.033-7.9,0v1.333
	c2.631-0.031,5.267-0.031,7.907,0c1.472,0.016,2.917-0.401,4.153-1.2c0.667-0.427,1.113-0.853,1.64-1.253l1.547-1.227l1.547-1.233
	c0.52-0.393,1.053-0.853,1.493-1.113c0.943-0.582,2.04-0.863,3.147-0.807c2.654,0.143,5.294,0.477,7.9,1V3.667
	C32.058,4.177,29.415,4.498,26.76,4.627z"/>
<path class="st0" d="M26.76,17.167c-1.472-0.016-2.917,0.401-4.153,1.2c-0.667,0.427-1.113,0.853-1.64,1.253l-1.547,1.227
	l-1.547,1.233c-0.52,0.393-1.053,0.853-1.493,1.113c-0.943,0.582-2.04,0.863-3.147,0.807c-2.654-0.143-5.294-0.477-7.9-1v12.333
	c2.609-0.51,5.251-0.831,7.907-0.96c1.548-0.067,3.043-0.587,4.3-1.493c0.667-0.473,1.073-0.933,1.573-1.333l1.467-1.333
	l1.467-1.333c0.5-0.427,0.987-0.92,1.433-1.233c0.961-0.685,2.106-1.066,3.287-1.093c2.627-0.053,5.267-0.053,7.9-0.053v-1.333
	c-2.667,0-5.267,0-7.907,0c-1.475-0.019-2.922,0.399-4.16,1.2c-0.667,0.427-1.107,0.847-1.633,1.253l-1.547,1.227l-1.547,1.227
	c-0.527,0.4-1.053,0.853-1.5,1.12c-0.94,0.583-2.036,0.862-3.14,0.8c-2.343-0.137-4.676-0.413-6.987-0.827
	c2.313-0.402,4.649-0.667,6.993-0.793c1.548-0.067,3.043-0.587,4.3-1.493c0.548-0.431,1.073-0.889,1.573-1.373l1.467-1.333
	l1.467-1.333c0.493-0.427,0.98-0.92,1.433-1.233c0.96-0.688,2.106-1.069,3.287-1.093c2.627-0.013,5.267-0.013,7.9-0.013v-1.333
	c-2.667,0-5.267,0-7.907-0.033c-1.472-0.016-2.917,0.401-4.153,1.2c-0.667,0.427-1.113,0.853-1.64,1.253l-1.547,1.227l-1.547,1.227
	c-0.527,0.4-1.053,0.86-1.493,1.12c-0.942,0.582-2.041,0.862-3.147,0.8c-2.343-0.126-4.676-0.391-6.987-0.793
	c2.313-0.408,4.648-0.675,6.993-0.8c1.548-0.063,3.043-0.58,4.3-1.487c0.667-0.48,1.073-0.933,1.573-1.373l1.467-1.333l1.467-1.333
	c0.456-0.435,0.935-0.847,1.433-1.233c0.96-0.688,2.106-1.069,3.287-1.093c2.627-0.013,5.267-0.013,7.9-0.013v-1.333
	C32.036,17.202,29.4,17.202,26.76,17.167z"/>
</svg>
