<?xml version="1.0" encoding="UTF-8" standalone="no"?>
<svg width="134px" height="50px" viewBox="0 0 134 50" version="1.1" xmlns="http://www.w3.org/2000/svg" xmlns:xlink="http://www.w3.org/1999/xlink">
    <!-- Generator: Sketch 3.7 (28169) - http://www.bohemiancoding.com/sketch -->
    <title>Page 1</title>
    <desc>Created with Sketch.</desc>
    <defs>
        <polygon id="path-1" points="0 49.1393762 132.581737 49.1393762 132.581737 0.0704762106 0 0.0704762106"></polygon>
    </defs>
    <g id="Page-1" stroke="none" stroke-width="1" fill="none" fill-rule="evenodd">
        <g id="Artboard-1-Copy-5" transform="translate(-924.000000, -4335.000000)">
            <g id="Page-1" transform="translate(924.818320, 4335.250672)">
                <polygon id="Fill-1" fill="#FFFFFF" points="17.0733048 47.4066959 9.2792888 44.7315095 9.2792888 33.802201 17.0733048 36.3429007"></polygon>
                <polygon id="Fill-2" fill="#FFFFFF" points="18.5026864 47.4066959 26.2967024 44.7315095 26.2967024 33.802201 18.5026864 36.3429007"></polygon>
                <polygon id="Fill-3" fill="#FFFFFF" points="10.0802156 32.9848063 17.9685099 30.8604981 25.2826862 33.1167067 17.9685099 35.4925309"></polygon>
                <polygon id="Fill-4" fill="#FFFFFF" points="0 29.4630971 7.79401597 32.1382835 7.79401597 21.0738418 0 18.5337886"></polygon>
                <polygon id="Fill-5" fill="#FFFFFF" points="9.22353278 32.1380896 17.0178867 29.4632264 17.0178867 18.5339179 9.22353278 21.0739711"></polygon>
                <polygon id="Fill-6" fill="#FFFFFF" points="0.801061967 17.7158766 8.6893563 15.5918917 16.0038705 17.8481003 8.6893563 20.2236012"></polygon>
                <polygon id="Fill-7" fill="#FFFFFF" points="25.9808868 32.1380896 18.1865329 29.4632264 18.1865329 18.5339179 25.9808868 21.0739711"></polygon>
                <polygon id="Fill-8" fill="#FFFFFF" points="27.4100995 32.1380896 35.2044533 29.4632264 35.2044533 18.5339179 27.4100995 21.0739711"></polygon>
                <polygon id="Fill-9" fill="#FFFFFF" points="18.9877638 17.7158766 26.8757202 15.5918917 34.1902344 17.8481003 26.8757202 20.2236012"></polygon>
                <polygon id="Fill-10" fill="#FFFFFF" points="35.2598377 16.8693216 27.4658217 14.1947817 27.4658217 3.26514991 35.2598377 5.80552634"></polygon>
                <polygon id="Fill-11" fill="#FFFFFF" points="36.6892193 16.8693216 44.4835732 14.1947817 44.4835732 3.26514991 36.6892193 5.80552634"></polygon>
                <polygon id="Fill-12" fill="#FFFFFF" points="36.1548401 0.323188384 28.2668836 2.44717326 36.1548401 4.95522116 43.4693543 2.57939698"></polygon>
                <polygon id="Fill-13" fill="#FFFFFF" points="53.4464043 16.8693216 45.6520504 14.1947817 45.6520504 3.26514991 53.4464043 5.80552634"></polygon>
                <polygon id="Fill-14" fill="#FFFFFF" points="54.8757522 16.8693216 62.6701061 14.1947817 62.6701061 3.26514991 54.8757522 5.80552634"></polygon>
                <polygon id="Fill-15" fill="#FFFFFF" points="54.3414405 0.323188384 46.4534841 2.44717326 54.3414405 4.95522116 61.6556168 2.57939698"></polygon>
                <polygon id="Fill-16" fill="#FFFFFF" points="49.4818133 40.2871439 46.8636457 48.9886929 45.725547 48.9886929 43.687242 42.5255718 41.8178947 48.9886929 40.6581694 48.9886929 37.9369377 40.2871439 39.3440169 40.2871439 41.32589 46.7716018 43.2124711 40.2871439 44.2508847 40.2871439 46.3016926 46.7922921 48.3389838 40.2871439"></polygon>
                <g id="Group-58" transform="translate(0.000000, 0.252809)">
                    <polygon id="Stroke-17" stroke="#FFFFFF" points="49.4818133 40.0343347 46.8636457 48.7358837 45.725547 48.7358837 43.687242 42.2727626 41.8178947 48.7358837 40.6581694 48.7358837 37.9369377 40.0343347 39.3440169 40.0343347 41.32589 46.5187927 43.2124711 40.0343347 44.2508847 40.0343347 46.3016926 46.5394829 48.3389838 40.0343347"></polygon>
                    <path d="M56.6471717,43.4919687 C56.6350067,43.0041311 56.5515416,42.5706054 56.3954248,42.1920383 C56.2396458,41.8128245 55.9760719,41.4901857 55.604703,41.2228287 C55.2333341,40.9561183 54.786948,40.8226014 54.2658827,40.8226014 C53.5650464,40.8226014 52.9703155,41.0637723 52.4823658,41.5461141 C51.9940782,42.0284559 51.7203669,42.6769663 51.6602179,43.4919687 L56.6471717,43.4919687 Z M56.7242163,46.1399992 L58.0420859,46.3986275 C57.802504,47.1428304 57.3348293,47.7590123 56.6400754,48.2462034 C55.9443079,48.734041 55.1265529,48.9777982 54.1854588,48.9777982 C52.9449718,48.9777982 51.9413635,48.5597902 51.1739578,47.7228044 C50.4068902,46.8864651 50.0233563,45.7895579 50.0233563,44.4327292 C50.0233563,43.0468048 50.4220963,41.9272676 51.2192385,41.0737942 C52.0160427,40.2196742 53.0169478,39.7929375 54.2219537,39.7929375 C55.4090501,39.7929375 56.3633228,40.1857293 57.0854478,40.9719593 C57.8079107,41.7585126 58.1779279,42.9343015 58.1958374,44.5006191 L51.5943245,44.5006191 C51.5943245,45.8167138 51.8815524,46.7041322 52.4570222,47.163844 C53.0314782,47.6235558 53.6397257,47.8530884 54.280413,47.8530884 C55.4364212,47.8530884 56.250797,47.2821664 56.7242163,46.1399992 L56.7242163,46.1399992 Z" id="Fill-19" fill="#FFFFFF"></path>
                    <path d="M56.6471717,43.4919687 C56.6350067,43.0041311 56.5515416,42.5706054 56.3954248,42.1920383 C56.2396458,41.8128245 55.9760719,41.4901857 55.604703,41.2228287 C55.2333341,40.9561183 54.786948,40.8226014 54.2658827,40.8226014 C53.5650464,40.8226014 52.9703155,41.0637723 52.4823658,41.5461141 C51.9940782,42.0284559 51.7203669,42.6769663 51.6602179,43.4919687 L56.6471717,43.4919687 L56.6471717,43.4919687 Z M56.7242163,46.1399992 L58.0420859,46.3986275 C57.802504,47.1428304 57.3348293,47.7590123 56.6400754,48.2462034 C55.9443079,48.734041 55.1265529,48.9777982 54.1854588,48.9777982 C52.9449718,48.9777982 51.9413635,48.5597902 51.1739578,47.7228044 C50.4068902,46.8864651 50.0233563,45.7895579 50.0233563,44.4327292 C50.0233563,43.0468048 50.4220963,41.9272676 51.2192385,41.0737942 C52.0160427,40.2196742 53.0169478,39.7929375 54.2219537,39.7929375 C55.4090501,39.7929375 56.3633228,40.1857293 57.0854478,40.9719593 C57.8079107,41.7585126 58.1779279,42.9343015 58.1958374,44.5006191 L51.5943245,44.5006191 C51.5943245,45.8167138 51.8815524,46.7041322 52.4570222,47.163844 C53.0314782,47.6235558 53.6397257,47.8530884 54.280413,47.8530884 C55.4364212,47.8530884 56.250797,47.2821664 56.7242163,46.1399992 L56.7242163,46.1399992 Z" id="Stroke-21" stroke="#FFFFFF"></path>
                    <path d="M61.474528,45.3243502 C61.5404215,46.217911 61.8266357,46.8657749 62.3335087,47.2695583 C62.8403816,47.6726952 63.3756394,47.8744252 63.9392821,47.8744252 C64.6587037,47.8744252 65.2389042,47.5753863 65.6795458,46.9776316 C66.1205252,46.3802002 66.340846,45.5609951 66.340846,44.5209861 C66.340846,43.400479 66.1279594,42.5195264 65.7021861,41.8784515 C65.2764128,41.2376999 64.685399,40.9170008 63.9304963,40.9170008 C63.3364412,40.9170008 62.8015213,41.1452402 62.3247229,41.6010726 C61.8479244,42.0575516 61.5644135,42.6472241 61.474528,43.3700902 L61.474528,45.3243502 Z M60.7385485,48.7359807 L60.0576492,48.7359807 L60.0576492,36.9868205 L61.474528,36.9868205 L61.474528,41.4846899 C62.1212979,40.3567472 63.0130563,39.7929375 64.150817,39.7929375 C65.1922719,39.7929375 66.0647692,40.1863758 66.7686467,40.9745456 C67.4718484,41.7620687 67.8239561,42.9061757 67.8239561,44.4065431 C67.8239561,45.7003311 67.477593,46.7856001 66.7858804,47.6620267 C66.0931541,48.5390999 65.1929478,48.9777982 64.0842477,48.9777982 C62.8498432,48.9777982 61.9030046,48.4168981 61.2437319,47.296391 L60.7385485,48.7359807 Z" id="Fill-23" fill="#FFFFFF"></path>
                    <path d="M61.474528,45.3243502 C61.5404215,46.217911 61.8266357,46.8657749 62.3335087,47.2695583 C62.8403816,47.6726952 63.3756394,47.8744252 63.9392821,47.8744252 C64.6587037,47.8744252 65.2389042,47.5753863 65.6795458,46.9776316 C66.1205252,46.3802002 66.340846,45.5609951 66.340846,44.5209861 C66.340846,43.400479 66.1279594,42.5195264 65.7021861,41.8784515 C65.2764128,41.2376999 64.685399,40.9170008 63.9304963,40.9170008 C63.3364412,40.9170008 62.8015213,41.1452402 62.3247229,41.6010726 C61.8479244,42.0575516 61.5644135,42.6472241 61.474528,43.3700902 L61.474528,45.3243502 L61.474528,45.3243502 Z M60.7385485,48.7359807 L60.0576492,48.7359807 L60.0576492,36.9868205 L61.474528,36.9868205 L61.474528,41.4846899 C62.1212979,40.3567472 63.0130563,39.7929375 64.150817,39.7929375 C65.1922719,39.7929375 66.0647692,40.1863758 66.7686467,40.9745456 C67.4718484,41.7620687 67.8239561,42.9061757 67.8239561,44.4065431 C67.8239561,45.7003311 67.477593,46.7856001 66.7858804,47.6620267 C66.0931541,48.5390999 65.1929478,48.9777982 64.0842477,48.9777982 C62.8498432,48.9777982 61.9030046,48.4168981 61.2437319,47.296391 L60.7385485,48.7359807 L60.7385485,48.7359807 Z" id="Stroke-25" stroke="#FFFFFF"></path>
                    <path d="M71.4347837,46.4807743 L72.785769,46.2137406 C73.0861757,47.3067684 74.0350418,47.8531207 75.6323673,47.8531207 C76.2203399,47.8531207 76.7191029,47.7273627 77.1273045,47.4752001 C77.5358441,47.2233608 77.7399449,46.8680702 77.7399449,46.4096515 C77.7399449,45.7284893 77.2202312,45.2959334 76.1808038,45.1126306 L74.2648242,44.7638057 C73.5146522,44.6260862 72.9178939,44.3561429 72.4738732,43.9539759 C72.0301904,43.5518089 71.8081801,43.020651 71.8081801,42.3598557 C71.8081801,41.6308472 72.1109522,41.0204844 72.7168343,40.5294139 C73.3223784,40.0383435 74.137768,39.7929699 75.1636788,39.7929699 C77.1367661,39.7929699 78.3549507,40.5307071 78.816543,42.0058582 L77.5203,42.2725687 C77.1482553,41.3689861 76.3842288,40.9170331 75.2278827,40.9170331 C74.6517372,40.9170331 74.1796695,41.030183 73.8110039,41.2558362 C73.4423384,41.4814894 73.2581745,41.7970159 73.2581745,42.2030623 C73.2581745,42.8425208 73.7292284,43.2450111 74.6713363,43.4111797 L76.4420123,43.7228268 C78.2961535,44.0444958 79.2227172,44.9050814 79.2227172,46.3026441 C79.2227172,47.1021288 78.8777057,47.748053 78.1870068,48.2394467 C77.4969838,48.7318104 76.578868,48.9778305 75.4319836,48.9778305 C73.2774357,48.9778305 71.9446978,48.1450474 71.4347837,46.4807743" id="Fill-27" fill="#FFFFFF"></path>
                    <path d="M71.4347837,46.4807743 L72.785769,46.2137406 C73.0861757,47.3067684 74.0350418,47.8531207 75.6323673,47.8531207 C76.2203399,47.8531207 76.7191029,47.7273627 77.1273045,47.4752001 C77.5358441,47.2233608 77.7399449,46.8680702 77.7399449,46.4096515 C77.7399449,45.7284893 77.2202312,45.2959334 76.1808038,45.1126306 L74.2648242,44.7638057 C73.5146522,44.6260862 72.9178939,44.3561429 72.4738732,43.9539759 C72.0301904,43.5518089 71.8081801,43.020651 71.8081801,42.3598557 C71.8081801,41.6308472 72.1109522,41.0204844 72.7168343,40.5294139 C73.3223784,40.0383435 74.137768,39.7929699 75.1636788,39.7929699 C77.1367661,39.7929699 78.3549507,40.5307071 78.816543,42.0058582 L77.5203,42.2725687 C77.1482553,41.3689861 76.3842288,40.9170331 75.2278827,40.9170331 C74.6517372,40.9170331 74.1796695,41.030183 73.8110039,41.2558362 C73.4423384,41.4814894 73.2581745,41.7970159 73.2581745,42.2030623 C73.2581745,42.8425208 73.7292284,43.2450111 74.6713363,43.4111797 L76.4420123,43.7228268 C78.2961535,44.0444958 79.2227172,44.9050814 79.2227172,46.3026441 C79.2227172,47.1021288 78.8777057,47.748053 78.1870068,48.2394467 C77.4969838,48.7318104 76.578868,48.9778305 75.4319836,48.9778305 C73.2774357,48.9778305 71.9446978,48.1450474 71.4347837,46.4807743 L71.4347837,46.4807743 Z" id="Stroke-29" stroke="#FFFFFF"></path>
                    <path d="M86.681555,43.4919687 C86.669728,43.0041311 86.585587,42.5706054 86.430146,42.1920383 C86.2740292,41.8128245 86.0107932,41.4901857 85.6394243,41.2228287 C85.2680554,40.9561183 84.8213314,40.8226014 84.3006039,40.8226014 C83.5997676,40.8226014 83.0050367,41.0637723 82.5167491,41.5461141 C82.0284616,42.0284559 81.7544123,42.6769663 81.6946013,43.4919687 L86.681555,43.4919687 Z M86.7585997,46.1399992 L88.0764693,46.3986275 C87.8372253,47.1428304 87.3695505,47.7590123 86.6741209,48.2462034 C85.979367,48.734041 85.1609362,48.9777982 84.2201801,48.9777982 C82.9793552,48.9777982 81.9754089,48.5597902 81.2086791,47.7228044 C80.4412735,46.8864651 80.0577396,45.7895579 80.0577396,44.4327292 C80.0577396,43.0468048 80.4561418,41.9272676 81.2542976,41.0737942 C82.0511019,40.2196742 83.0520069,39.7929375 84.2570128,39.7929375 C85.4430955,39.7929375 86.3980441,40.1857293 87.120169,40.9719593 C87.8426319,41.7585126 88.2126491,42.9343015 88.2302207,44.5006191 L81.6287078,44.5006191 C81.6287078,45.8167138 81.9162737,46.7041322 82.4910676,47.163844 C83.0665373,47.6235558 83.674109,47.8530884 84.3151343,47.8530884 C85.4708045,47.8530884 86.2855183,47.2821664 86.7585997,46.1399992 L86.7585997,46.1399992 Z" id="Fill-31" fill="#FFFFFF"></path>
                    <path d="M86.681555,43.4919687 C86.669728,43.0041311 86.585587,42.5706054 86.430146,42.1920383 C86.2740292,41.8128245 86.0107932,41.4901857 85.6394243,41.2228287 C85.2680554,40.9561183 84.8213314,40.8226014 84.3006039,40.8226014 C83.5997676,40.8226014 83.0050367,41.0637723 82.5167491,41.5461141 C82.0284616,42.0284559 81.7544123,42.6769663 81.6946013,43.4919687 L86.681555,43.4919687 L86.681555,43.4919687 Z M86.7585997,46.1399992 L88.0764693,46.3986275 C87.8372253,47.1428304 87.3695505,47.7590123 86.6741209,48.2462034 C85.979367,48.734041 85.1609362,48.9777982 84.2201801,48.9777982 C82.9793552,48.9777982 81.9754089,48.5597902 81.2086791,47.7228044 C80.4412735,46.8864651 80.0577396,45.7895579 80.0577396,44.4327292 C80.0577396,43.0468048 80.4561418,41.9272676 81.2542976,41.0737942 C82.0511019,40.2196742 83.0520069,39.7929375 84.2570128,39.7929375 C85.4430955,39.7929375 86.3980441,40.1857293 87.120169,40.9719593 C87.8426319,41.7585126 88.2126491,42.9343015 88.2302207,44.5006191 L81.6287078,44.5006191 C81.6287078,45.8167138 81.9162737,46.7041322 82.4910676,47.163844 C83.0665373,47.6235558 83.674109,47.8530884 84.3151343,47.8530884 C85.4708045,47.8530884 86.2855183,47.2821664 86.7585997,46.1399992 L86.7585997,46.1399992 Z" id="Stroke-33" stroke="#FFFFFF"></path>
                    <path d="M91.1711312,48.7358837 L89.7542524,48.7358837 L89.7542524,40.0343347 L90.9954153,40.0343347 L90.9954153,42.0626271 C91.4330156,41.1124914 91.8726433,40.4969561 92.3132849,40.2153745 C92.7539264,39.9334697 93.2053812,39.7928406 93.6673114,39.7928406 C93.8109254,39.7928406 93.9971167,39.8031857 94.2248716,39.8245225 L94.2248716,41.1170174 L93.9379815,41.1170174 C93.1590868,41.1170174 92.512317,41.3937497 91.9973341,41.9472143 C91.4826891,42.5006788 91.2072881,43.2277476 91.1711312,44.1293905 L91.1711312,48.7358837 Z" id="Fill-35" fill="#FFFFFF"></path>
                    <path d="M91.1711312,48.7358837 L89.7542524,48.7358837 L89.7542524,40.0343347 L90.9954153,40.0343347 L90.9954153,42.0626271 C91.4330156,41.1124914 91.8726433,40.4969561 92.3132849,40.2153745 C92.7539264,39.9334697 93.2053812,39.7928406 93.6673114,39.7928406 C93.8109254,39.7928406 93.9971167,39.8031857 94.2248716,39.8245225 L94.2248716,41.1170174 L93.9379815,41.1170174 C93.1590868,41.1170174 92.512317,41.3937497 91.9973341,41.9472143 C91.4826891,42.5006788 91.2072881,43.2277476 91.1711312,44.1293905 L91.1711312,48.7358837 L91.1711312,48.7358837 Z" id="Stroke-37" stroke="#FFFFFF"></path>
                    <polygon id="Fill-39" fill="#FFFFFF" points="103.025875 40.0343347 99.8856284 48.7358837 98.4170486 48.7358837 95.1720481 40.0343347 96.7396371 40.0343347 99.2638643 47.1071721 101.76883 40.0343347"></polygon>
                    <polygon id="Stroke-41" stroke="#FFFFFF" points="103.025875 40.0343347 99.8856284 48.7358837 98.4170486 48.7358837 95.1720481 40.0343347 96.7396371 40.0343347 99.2638643 47.1071721 101.76883 40.0343347"></polygon>
                    <mask id="mask-2" fill="white">
                        <use xlink:href="#path-1"></use>
                    </mask>
                    <g id="Clip-44"></g>
                    <path d="M104.224562,48.7359161 L105.641441,48.7359161 L105.641441,40.0343671 L104.224562,40.0343671 L104.224562,48.7359161 Z M104.158669,38.4897096 L105.674556,38.4897096 L105.674556,36.9870792 L104.158669,36.9870792 L104.158669,38.4897096 Z" id="Fill-43" fill="#FFFFFF" mask="url(#mask-2)"></path>
                    <path d="M104.224562,48.7359161 L105.641441,48.7359161 L105.641441,40.0343671 L104.224562,40.0343671 L104.224562,48.7359161 Z M104.158669,38.4897096 L105.674556,38.4897096 L105.674556,36.9870792 L104.158669,36.9870792 L104.158669,38.4897096 Z" id="Stroke-45" stroke="#FFFFFF" mask="url(#mask-2)"></path>
                    <path d="M113.043881,45.6883696 L114.317821,45.9033543 C114.13805,46.8651283 113.73931,47.6177366 113.121263,48.1615026 C112.503554,48.7055919 111.732769,48.9777982 110.809247,48.9777982 C109.555581,48.9777982 108.600295,48.5348972 107.943387,47.6494186 C107.286818,46.7642633 106.958026,45.683197 106.958026,44.4065431 C106.958026,43.0843059 107.304727,41.9848124 107.997454,41.1080624 C108.689842,40.2309892 109.633302,39.7929375 110.826818,39.7929375 C111.81691,39.7929375 112.609997,40.0761355 113.206756,40.6431781 C113.803852,41.209574 114.173869,41.9414921 114.317821,42.8392556 L113.043881,43.0713745 C112.803961,41.6356642 112.079132,40.9170008 110.868382,40.9170008 C110.089149,40.9170008 109.489688,41.2341437 109.070673,41.8681063 C108.650982,42.5023922 108.441136,43.3241836 108.441136,44.3338039 C108.441136,45.4468754 108.649292,46.3113405 109.065942,46.9281689 C109.482591,47.5446741 110.068199,47.8530884 110.823777,47.8530884 C111.99195,47.8530884 112.731985,47.1315154 113.043881,45.6883696" id="Fill-46" fill="#FFFFFF" mask="url(#mask-2)"></path>
                    <path d="M113.043881,45.6883696 L114.317821,45.9033543 C114.13805,46.8651283 113.73931,47.6177366 113.121263,48.1615026 C112.503554,48.7055919 111.732769,48.9777982 110.809247,48.9777982 C109.555581,48.9777982 108.600295,48.5348972 107.943387,47.6494186 C107.286818,46.7642633 106.958026,45.683197 106.958026,44.4065431 C106.958026,43.0843059 107.304727,41.9848124 107.997454,41.1080624 C108.689842,40.2309892 109.633302,39.7929375 110.826818,39.7929375 C111.81691,39.7929375 112.609997,40.0761355 113.206756,40.6431781 C113.803852,41.209574 114.173869,41.9414921 114.317821,42.8392556 L113.043881,43.0713745 C112.803961,41.6356642 112.079132,40.9170008 110.868382,40.9170008 C110.089149,40.9170008 109.489688,41.2341437 109.070673,41.8681063 C108.650982,42.5023922 108.441136,43.3241836 108.441136,44.3338039 C108.441136,45.4468754 108.649292,46.3113405 109.065942,46.9281689 C109.482591,47.5446741 110.068199,47.8530884 110.823777,47.8530884 C111.99195,47.8530884 112.731985,47.1315154 113.043881,45.6883696 L113.043881,45.6883696 Z" id="Stroke-47" stroke="#FFFFFF" mask="url(#mask-2)"></path>
                    <path d="M122.231966,43.4919687 C122.220139,43.0041311 122.135998,42.5706054 121.980219,42.1920383 C121.82444,41.8128245 121.561204,41.4901857 121.189835,41.2228287 C120.818128,40.9561183 120.371742,40.8226014 119.850677,40.8226014 C119.149503,40.8226014 118.55511,41.0637723 118.06716,41.5461141 C117.578535,42.0284559 117.304485,42.6769663 117.245012,43.4919687 L122.231966,43.4919687 Z M122.309011,46.1399992 L123.62688,46.3986275 C123.387298,47.1428304 122.919962,47.7590123 122.224532,48.2462034 C121.529778,48.734041 120.711347,48.9777982 119.770591,48.9777982 C118.529766,48.9777982 117.525482,48.5597902 116.758752,47.7228044 C115.991347,46.8864651 115.607813,45.7895579 115.607813,44.4327292 C115.607813,43.0468048 116.006553,41.9272676 116.804371,41.0737942 C117.601175,40.2196742 118.602418,39.7929375 119.807086,39.7929375 C120.993506,39.7929375 121.948455,40.1857293 122.67058,40.9719593 C123.392705,41.7585126 123.762722,42.9343015 123.780632,44.5006191 L117.179119,44.5006191 C117.179119,45.8167138 117.466347,46.7041322 118.041479,47.163844 C118.616948,47.6235558 119.224182,47.8530884 119.865545,47.8530884 C121.020878,47.8530884 121.835591,47.2821664 122.309011,46.1399992 L122.309011,46.1399992 Z" id="Fill-48" fill="#FFFFFF" mask="url(#mask-2)"></path>
                    <path d="M122.231966,43.4919687 C122.220139,43.0041311 122.135998,42.5706054 121.980219,42.1920383 C121.82444,41.8128245 121.561204,41.4901857 121.189835,41.2228287 C120.818128,40.9561183 120.371742,40.8226014 119.850677,40.8226014 C119.149503,40.8226014 118.55511,41.0637723 118.06716,41.5461141 C117.578535,42.0284559 117.304485,42.6769663 117.245012,43.4919687 L122.231966,43.4919687 L122.231966,43.4919687 Z M122.309011,46.1399992 L123.62688,46.3986275 C123.387298,47.1428304 122.919962,47.7590123 122.224532,48.2462034 C121.529778,48.734041 120.711347,48.9777982 119.770591,48.9777982 C118.529766,48.9777982 117.525482,48.5597902 116.758752,47.7228044 C115.991347,46.8864651 115.607813,45.7895579 115.607813,44.4327292 C115.607813,43.0468048 116.006553,41.9272676 116.804371,41.0737942 C117.601175,40.2196742 118.602418,39.7929375 119.807086,39.7929375 C120.993506,39.7929375 121.948455,40.1857293 122.67058,40.9719593 C123.392705,41.7585126 123.762722,42.9343015 123.780632,44.5006191 L117.179119,44.5006191 C117.179119,45.8167138 117.466347,46.7041322 118.041479,47.163844 C118.616948,47.6235558 119.224182,47.8530884 119.865545,47.8530884 C121.020878,47.8530884 121.835591,47.2821664 122.309011,46.1399992 L122.309011,46.1399992 Z" id="Stroke-49" stroke="#FFFFFF" mask="url(#mask-2)"></path>
                    <path d="M124.580849,46.4807743 L125.932172,46.2137406 C126.232579,47.3067684 127.181107,47.8531207 128.778433,47.8531207 C129.366743,47.8531207 129.865168,47.7273627 130.27337,47.4752001 C130.681909,47.2233608 130.88601,46.8680702 130.88601,46.4096515 C130.88601,45.7284893 130.366296,45.2959334 129.326869,45.1126306 L127.411227,44.7638057 C126.660717,44.6260862 126.064297,44.3561429 125.619938,43.9539759 C125.176594,43.5518089 124.954245,43.020651 124.954245,42.3598557 C124.954245,41.6308472 125.257017,41.0204844 125.863237,40.5294139 C126.468444,40.0383435 127.284171,39.7929699 128.310082,39.7929699 C130.283169,39.7929699 131.501016,40.5307071 131.962608,42.0058582 L130.666365,42.2725687 C130.294658,41.3689861 129.530632,40.9170331 128.373948,40.9170331 C127.798478,40.9170331 127.326073,41.030183 126.957407,41.2558362 C126.588742,41.4814894 126.404578,41.7970159 126.404578,42.2030623 C126.404578,42.8425208 126.875632,43.2450111 127.817739,43.4111797 L129.588415,43.7228268 C131.442219,44.0444958 132.36912,44.9050814 132.36912,46.3026441 C132.36912,47.1021288 132.024109,47.748053 131.33341,48.2394467 C130.643387,48.7318104 129.724933,48.9778305 128.578387,48.9778305 C126.423501,48.9778305 125.091101,48.1450474 124.580849,46.4807743" id="Fill-50" fill="#FFFFFF" mask="url(#mask-2)"></path>
                    <path d="M124.580849,46.4807743 L125.932172,46.2137406 C126.232579,47.3067684 127.181107,47.8531207 128.778433,47.8531207 C129.366743,47.8531207 129.865168,47.7273627 130.27337,47.4752001 C130.681909,47.2233608 130.88601,46.8680702 130.88601,46.4096515 C130.88601,45.7284893 130.366296,45.2959334 129.326869,45.1126306 L127.411227,44.7638057 C126.660717,44.6260862 126.064297,44.3561429 125.619938,43.9539759 C125.176594,43.5518089 124.954245,43.020651 124.954245,42.3598557 C124.954245,41.6308472 125.257017,41.0204844 125.863237,40.5294139 C126.468444,40.0383435 127.284171,39.7929699 128.310082,39.7929699 C130.283169,39.7929699 131.501016,40.5307071 131.962608,42.0058582 L130.666365,42.2725687 C130.294658,41.3689861 129.530632,40.9170331 128.373948,40.9170331 C127.798478,40.9170331 127.326073,41.030183 126.957407,41.2558362 C126.588742,41.4814894 126.404578,41.7970159 126.404578,42.2030623 C126.404578,42.8425208 126.875632,43.2450111 127.817739,43.4111797 L129.588415,43.7228268 C131.442219,44.0444958 132.36912,44.9050814 132.36912,46.3026441 C132.36912,47.1021288 132.024109,47.748053 131.33341,48.2394467 C130.643387,48.7318104 129.724933,48.9778305 128.578387,48.9778305 C126.423501,48.9778305 125.091101,48.1450474 124.580849,46.4807743 L124.580849,46.4807743 Z" id="Stroke-51" stroke="#FFFFFF" mask="url(#mask-2)"></path>
                    <path d="M92.6422454,21.4368912 L92.6422454,19.3468513 C92.6435971,19.0287385 92.8939923,18.8166633 93.1960885,18.8169866 L102.98786,18.81634 C103.301107,18.81634 103.552178,19.0342344 103.552854,19.344265 L103.552178,21.1368824 C103.549813,21.4375378 103.285225,21.8300062 102.814847,22.4526539 L97.7430766,29.3809826 C99.6259405,29.3386322 101.617613,29.6082522 103.32814,30.5283224 C103.71404,30.7355483 103.817104,31.0429927 103.847516,31.3442947 L103.847516,33.5743172 C103.847516,33.8817615 103.496084,34.2373755 103.126743,34.0524562 C100.112539,32.542067 96.1129732,32.3765449 92.7804527,34.0705602 C92.4398341,34.2441644 92.0836714,33.8937231 92.0836714,33.5862787 L92.0836714,31.4661733 C92.0836714,31.1270469 92.0900918,30.5467497 92.4479441,30.0294931 L98.3242909,21.9638464 L93.2079156,21.9631998 C92.895006,21.9631998 92.6442729,21.7498315 92.6422454,21.4368912" id="Fill-52" fill="#FFFFFF" mask="url(#mask-2)"></path>
                    <path d="M57.5990452,34.4917687 L54.620322,34.4917687 C54.3368111,34.473988 54.1100699,34.2699949 54.0870917,34.0100735 L54.0891192,19.3823804 C54.0891192,19.0898071 54.3466106,18.8557485 54.664251,18.8557485 L57.4381975,18.8551019 C57.7288047,18.8693265 57.9616283,19.079462 57.9802137,19.3461724 L57.9802137,21.2561424 L58.0359697,21.2561424 C58.7591084,19.4092131 60.1215828,18.5473343 61.9568007,18.5473343 C63.8197276,18.5473343 64.9875629,19.4092131 65.8222136,21.2561424 C66.5450144,19.4092131 68.1855931,18.5473343 69.9376838,18.5473343 C71.1889841,18.5473343 72.5514585,19.0396979 73.3857714,20.1479201 C74.3312583,21.3789908 74.136957,23.1644959 74.136957,24.7343697 L74.1345916,33.9651368 C74.1345916,34.2573868 73.8771002,34.4917687 73.5597977,34.4917687 L70.5844537,34.4917687 C70.2853986,34.4733414 70.0495338,34.2467184 70.0495338,33.96643 L70.0488579,26.2117838 C70.0488579,25.5962485 70.104614,24.0570868 69.9653929,23.4722636 C69.7430446,22.4872131 69.0756619,22.2101575 68.2136401,22.2101575 C67.4908393,22.2101575 66.7396536,22.671809 66.4338403,23.4108394 C66.127689,24.1495464 66.155736,25.3806171 66.155736,26.2117838 L66.155736,33.9651368 C66.155736,34.2573868 65.8985825,34.4917687 65.58128,34.4917687 L62.605598,34.4917687 C62.3068809,34.4733414 62.0706781,34.2467184 62.0706781,33.96643 L62.0679748,26.2117838 C62.0679748,24.5804858 62.3460791,22.1794454 60.2327569,22.1794454 C58.0913878,22.1794454 58.1748529,24.5187383 58.1748529,26.2117838 L58.1735012,33.9651368 C58.1738391,34.2573868 57.9166856,34.4917687 57.5990452,34.4917687" id="Fill-53" fill="#FFFFFF" mask="url(#mask-2)"></path>
                    <path d="M110.773867,21.9095021 C108.593976,21.9095021 108.456444,24.7721941 108.456444,26.5573759 C108.456444,28.342881 108.428735,31.7832839 110.746158,31.7832839 C113.03621,31.7832839 113.14637,29.081588 113.14637,27.2039466 C113.14637,25.9725526 113.09129,24.4951385 112.705053,23.325492 C112.37322,22.3097294 111.711244,21.9095021 110.773867,21.9095021 M110.746158,18.5473343 C115.132298,18.5473343 117.504802,22.1794454 117.504802,26.796607 C117.504802,31.2595616 114.884606,34.7998597 110.746158,34.7998597 C106.442807,34.7998597 104.097675,31.1674253 104.097675,26.6427232 C104.097675,22.0869858 106.470516,18.5473343 110.746158,18.5473343" id="Fill-54" fill="#FFFFFF" mask="url(#mask-2)"></path>
                    <path d="M123.853216,34.4917687 L120.885306,34.4917687 C120.586927,34.4733414 120.350724,34.2467184 120.350724,33.96643 L120.345993,19.333241 C120.370999,19.065884 120.618015,18.8557485 120.918422,18.8557485 L123.681555,18.8551019 C123.94175,18.8677101 124.156326,19.0377582 124.211068,19.2647045 L124.211068,21.5021625 L124.267162,21.5021625 C125.101137,19.5013494 126.268634,18.5473343 128.326538,18.5473343 C129.660966,18.5473343 130.968698,19.0089858 131.802673,20.2710919 C132.581568,21.4407383 132.581568,23.4108394 132.581568,24.8268293 L132.581568,34.0307638 C132.547776,34.2903619 132.305153,34.4917687 132.010829,34.4917687 L129.024333,34.4917687 C128.748257,34.4746346 128.525908,34.2809866 128.493469,34.0307638 L128.493469,26.0886121 C128.493469,24.4880262 128.688446,22.1487333 126.630542,22.1487333 C125.907065,22.1487333 125.24002,22.6103848 124.906498,23.3183798 C124.48951,24.2109707 124.433416,25.1035616 124.433416,26.0886121 L124.433416,33.9651368 C124.42801,34.2573868 124.170856,34.4917687 123.853216,34.4917687" id="Fill-55" fill="#FFFFFF" mask="url(#mask-2)"></path>
                    <path d="M88.1774046,34.4551405 C87.980062,34.6242187 87.6958753,34.635857 87.473527,34.521414 C86.4841111,33.7345374 86.3070435,33.3708413 85.7660411,32.6221124 C84.1308691,34.2159093 82.9724955,34.6937251 80.8544425,34.6937251 C78.3464353,34.6937251 76.3956504,33.2130781 76.3956504,30.2517841 C76.3956504,27.9380307 77.70541,26.3649241 79.5723919,25.5935652 C81.1886407,24.9149892 83.4462527,24.7914942 85.1740135,24.606575 L85.1740135,24.2364132 C85.1740135,23.5578372 85.2297696,22.7554429 84.8117684,22.1693266 C84.4495232,21.6449577 83.7527419,21.4290031 83.1397635,21.4290031 C82.0036924,21.4290031 80.9933257,21.9860238 80.7452959,23.1404758 C80.6939327,23.3971644 80.4979419,23.6512667 80.2279476,23.6645214 L77.3404615,23.3654824 C77.0964866,23.3127869 76.8254786,23.125928 76.895765,22.7696675 C77.5594306,19.4181681 80.7229934,18.4056383 83.5577647,18.4056383 C85.0067455,18.4056383 86.9021123,18.7761233 88.0446039,19.8248611 C89.4939225,21.1205888 89.3543635,22.8482258 89.3543635,24.73007 L89.3543635,29.1700712 C89.3543635,30.5058864 89.9342261,31.0916795 90.4789455,31.811636 C90.6688539,32.0709109 90.7117692,32.3793251 90.4688081,32.5684471 C89.8602227,33.056608 88.7792317,33.955018 88.1845008,34.4616062 L88.1774046,34.4551405 Z M85.1740135,27.5061215 C85.1740135,28.61693 85.2017226,29.5421727 84.6167912,30.5294862 C84.143034,31.3315572 83.3904967,31.825214 82.5541564,31.825214 C81.4120027,31.825214 80.7429305,30.9921076 80.7429305,29.7581273 C80.7429305,27.3309008 83.0187899,26.889293 85.1740135,26.889293 L85.1740135,27.5061215 Z" id="Fill-56" fill="#FFFFFF" mask="url(#mask-2)"></path>
                    <path d="M49.4630252,34.4551405 C49.2656827,34.6242187 48.981158,34.635857 48.7591477,34.521414 C47.7693938,33.7345374 47.5923262,33.3708413 47.0513238,32.6221124 C45.4161518,34.2159093 44.2581161,34.6937251 42.1400631,34.6937251 C39.631718,34.6937251 37.681271,33.2130781 37.681271,30.2517841 C37.681271,27.9380307 38.9910306,26.3649241 40.8580125,25.5935652 C42.4742613,24.9149892 44.7318733,24.7914942 46.4592963,24.606575 L46.4592963,24.2364132 C46.4592963,23.5578372 46.5150523,22.7554429 46.097389,22.1693266 C45.7351438,21.6449577 45.0380246,21.4290031 44.4253842,21.4290031 C43.2889751,21.4290031 42.2786084,21.9860238 42.0309165,23.1404758 C41.9788775,23.3971644 41.7832246,23.6512667 41.5132303,23.6645214 L38.6260821,23.3654824 C38.3821073,23.3127869 38.1107613,23.125928 38.1813856,22.7696675 C38.8447133,19.4181681 42.0082762,18.4056383 44.8430475,18.4056383 C46.2923661,18.4056383 48.187395,18.7761233 49.3298866,19.8248611 C50.7792052,21.1205888 50.6396462,22.8482258 50.6396462,24.73007 L50.6396462,29.1700712 C50.6396462,30.5058864 51.2195088,31.0916795 51.7638903,31.811636 C51.9541367,32.0709109 51.9970519,32.3793251 51.7544287,32.5684471 C51.1458433,33.056608 50.0645144,33.955018 49.4697835,34.4616062 L49.4630252,34.4551405 Z M46.4592963,27.5061215 C46.4592963,28.61693 46.4873432,29.5421727 45.902074,30.5294862 C45.4286546,31.3315572 44.6761173,31.825214 43.839777,31.825214 C42.6976233,31.825214 42.0285511,30.9921076 42.0285511,29.7581273 C42.0285511,27.3309008 44.3044105,26.889293 46.4592963,26.889293 L46.4592963,27.5061215 Z" id="Fill-57" fill="#FFFFFF" mask="url(#mask-2)"></path>
                </g>
            </g>
        </g>
    </g>
</svg>