<svg xmlns="http://www.w3.org/2000/svg" width="35" height="35" viewBox="0 0 35 35" fill="none">
  <g clip-path="url(#clip0_1530_8828)">
    <path d="M12.4021 12.9887C11.9857 12.5414 11.3222 12.5722 11.0446 13.143L4.14824 26.9202C3.87054 27.4756 4.27166 28.1081 4.88878 28.1081H14.485C14.7935 28.1081 15.0712 27.9539 15.2255 27.6453C17.2928 23.3718 16.0432 16.8611 12.4021 12.9887Z" fill="url(#paint0_linear_1530_8828)"/>
    <path d="M17.4623 0.4455C13.6053 6.55496 13.8677 13.3278 16.3978 18.4036C18.928 23.4794 20.8874 27.3826 21.0262 27.6604C21.1651 27.9381 21.4582 28.1232 21.7667 28.1232H31.3629C31.98 28.1232 32.3812 27.4752 32.1035 26.9353C32.1035 26.9353 19.1903 1.09348 18.8663 0.4455C18.5732 -0.140761 17.8326 -0.156189 17.4623 0.4455Z" fill="#2681FF"/>
    <path d="M19.1132 33.1529C19.1132 32.4895 18.7583 32.1809 17.7863 31.9804C17.2463 31.8569 17.1075 31.7335 17.1075 31.5638C17.1075 31.3478 17.308 31.2552 17.6629 31.2552C18.0949 31.2552 18.5269 31.394 18.928 31.5638V30.6999C18.6348 30.561 18.2029 30.4375 17.6937 30.4375C16.7218 30.4375 16.2127 30.8541 16.2127 31.5484C16.2127 32.1037 16.475 32.5358 17.4778 32.7363C18.0795 32.8597 18.2029 32.9523 18.2029 33.1529C18.2029 33.3534 18.0795 33.4769 17.6474 33.4769C17.1538 33.4769 16.5676 33.3071 16.1973 33.0757V33.9859C16.5058 34.1403 16.907 34.2945 17.6474 34.2945C18.6966 34.3254 19.1132 33.8471 19.1132 33.1529Z" fill="#0052CC"/>
    <path d="M29.7266 30.5145V34.2635H30.5288V31.3939L30.8682 32.1653L31.9945 34.2635H32.9973V30.5145H32.195V32.9367L31.9019 32.2271L30.9916 30.5145H29.7266Z" fill="#0052CC"/>
    <path d="M24.6372 30.5145H23.7578V34.2635H24.6372V30.5145Z" fill="#0052CC"/>
    <path d="M22.7538 33.1529C22.7538 32.4895 22.3989 32.1809 21.427 31.9804C20.887 31.8569 20.7481 31.7335 20.7481 31.5638C20.7481 31.3478 20.9486 31.2552 21.3035 31.2552C21.7355 31.2552 22.1675 31.394 22.5686 31.5638V30.6999C22.2755 30.561 21.8436 30.4375 21.3344 30.4375C20.3624 30.4375 19.8533 30.8541 19.8533 31.5484C19.8533 32.1037 20.1156 32.5358 21.1184 32.7363C21.7201 32.8597 21.8436 32.9523 21.8436 33.1529C21.8436 33.3534 21.7201 33.4769 21.2881 33.4769C20.7944 33.4769 20.2082 33.3071 19.8379 33.0757V33.9859C20.1464 34.1403 20.5476 34.2945 21.2881 34.2945C22.3372 34.3254 22.7538 33.8471 22.7538 33.1529Z" fill="#0052CC"/>
    <path d="M9.42383 30.5146V34.2636H11.2289L11.5066 33.446H10.3032V30.5146H9.42383Z" fill="#0052CC"/>
    <path d="M5.875 30.5145V31.3167H6.84696V34.2635H7.72635V31.3167H8.77545V30.5145H5.875Z" fill="#0052CC"/>
    <path d="M4.61105 30.5145H3.45395L2.14258 34.2635H3.1454L3.33053 33.6309C3.54652 33.6927 3.79336 33.7389 4.02478 33.7389C4.27163 33.7389 4.50305 33.7081 4.71904 33.6309L4.90417 34.2635H5.90699L4.61105 30.5145ZM4.02478 32.9521C3.85507 32.9521 3.7008 32.9212 3.54652 32.8904L4.02478 31.255L4.50305 32.8904C4.34877 32.9212 4.19449 32.9521 4.02478 32.9521Z" fill="#0052CC"/>
    <path d="M14.3298 30.5145H13.1727L11.8613 34.2636H12.8642L13.0492 33.631C13.2652 33.6927 13.5121 33.739 13.7435 33.739C13.9903 33.739 14.2217 33.7081 14.4378 33.631L14.6229 34.2636H15.6257L14.3298 30.5145ZM13.7435 32.9522C13.5738 32.9522 13.4195 32.9213 13.2652 32.8905L13.7435 31.2551L14.2217 32.8905C14.0675 32.9213 13.9132 32.9522 13.7435 32.9522Z" fill="#0052CC"/>
    <path d="M27.7848 30.5145H26.6278L25.3164 34.2636H26.3192L26.5043 33.631C26.7204 33.6927 26.9672 33.739 27.1986 33.739C27.4455 33.739 27.6769 33.7081 27.8929 33.631L28.0781 34.2636H29.0808L27.7848 30.5145ZM27.214 32.9522C27.0444 32.9522 26.89 32.9213 26.7358 32.8905L27.214 31.2551L27.6924 32.8905C27.538 32.9213 27.3838 32.9522 27.214 32.9522Z" fill="#0052CC"/>
  </g>
  <defs>
    <linearGradient id="paint0_linear_1530_8828" x1="16.1847" y1="15.1096" x2="8.90672" y2="27.7154" gradientUnits="userSpaceOnUse">
      <stop stop-color="#0052CC"/>
      <stop offset="0.9228" stop-color="#2684FF"/>
    </linearGradient>
    <clipPath id="clip0_1530_8828">
      <rect width="34.2958" height="34.2958" fill="white"/>
    </clipPath>
  </defs>
</svg>