<svg xmlns="http://www.w3.org/2000/svg" width="49" height="28" viewBox="0 0 49 28" fill="none">
  <g clip-path="url(#clip0_1530_8821)">
    <path d="M13.7759 10.0095C13.7759 10.5673 13.8397 11.0196 13.9513 11.3512C14.0789 11.6829 14.2383 12.0447 14.4616 12.4366C14.5413 12.5572 14.5732 12.6778 14.5732 12.7834C14.5732 12.9341 14.4775 13.0849 14.2702 13.2356L13.2657 13.8688C13.1222 13.9592 12.9787 14.0044 12.8512 14.0044C12.6917 14.0044 12.5323 13.9291 12.3728 13.7934C12.1496 13.5673 11.9583 13.3261 11.7988 13.0849C11.6394 12.8286 11.4799 12.5422 11.3045 12.1954C10.0609 13.5823 8.4983 14.2758 6.61685 14.2758C5.27751 14.2758 4.20922 13.914 3.42794 13.1904C2.64666 12.4668 2.24805 11.502 2.24805 10.296C2.24805 9.01459 2.72638 7.97441 3.699 7.19051C4.67162 6.40661 5.96312 6.01465 7.60541 6.01465C8.14752 6.01465 8.70558 6.05988 9.29553 6.13525C9.88548 6.21063 10.4914 6.33123 11.1292 6.46691V5.36643C11.1292 4.22072 10.874 3.42174 10.3798 2.95441C9.86953 2.48709 9.00853 2.26096 7.7808 2.26096C7.22274 2.26096 6.64874 2.32126 6.05879 2.45694C5.46884 2.59261 4.89484 2.75844 4.33678 2.96949C4.08167 3.07502 3.89033 3.13532 3.77872 3.16547C3.66711 3.19562 3.58739 3.21069 3.52361 3.21069C3.30039 3.21069 3.18877 3.05994 3.18877 2.74336V2.00469C3.18877 1.76348 3.22066 1.58258 3.30039 1.47706C3.38011 1.37153 3.52361 1.26601 3.74683 1.16048C4.30489 0.889131 4.97456 0.663005 5.75584 0.482104C6.53712 0.286128 7.36624 0.195677 8.24319 0.195677C10.1406 0.195677 11.5278 0.602704 12.4207 1.41676C13.2976 2.23081 13.7441 3.46697 13.7441 5.12522V10.0095H13.7759ZM7.30246 12.301C7.82863 12.301 8.37075 12.2105 8.94475 12.0296C9.51875 11.8487 10.029 11.5171 10.4595 11.0648C10.7146 10.7784 10.9059 10.4618 11.0016 10.1C11.0973 9.73819 11.161 9.30102 11.161 8.78847V8.15531C10.6986 8.04979 10.2044 7.95934 9.69414 7.89904C9.18392 7.83874 8.68964 7.80859 8.19536 7.80859C7.12707 7.80859 6.34579 8.00456 5.81962 8.41159C5.29345 8.81862 5.03834 9.39147 5.03834 10.1452C5.03834 10.8538 5.22967 11.3814 5.62829 11.7432C6.01096 12.1201 6.56901 12.301 7.30246 12.301ZM20.1059 13.9291C19.8189 13.9291 19.6276 13.8838 19.5 13.7783C19.3725 13.6879 19.2609 13.4768 19.1652 13.1904L15.4182 1.53736C15.3226 1.23586 15.2747 1.03988 15.2747 0.934356C15.2747 0.693155 15.4023 0.557479 15.6574 0.557479H17.22C17.5229 0.557479 17.7302 0.602704 17.8418 0.70823C17.9694 0.79868 18.065 1.00973 18.1607 1.29616L20.8394 11.2759L23.3267 1.29616C23.4064 0.994656 23.5021 0.79868 23.6297 0.70823C23.7572 0.617779 23.9804 0.557479 24.2674 0.557479H25.543C25.8459 0.557479 26.0532 0.602704 26.1808 0.70823C26.3083 0.79868 26.42 1.00973 26.4837 1.29616L29.003 11.3965L31.7614 1.29616C31.857 0.994656 31.9686 0.79868 32.0803 0.70823C32.2078 0.617779 32.4151 0.557479 32.7021 0.557479H34.1849C34.44 0.557479 34.5835 0.67808 34.5835 0.934356C34.5835 1.00973 34.5676 1.08511 34.5517 1.17556C34.5357 1.26601 34.5038 1.38661 34.44 1.55243L30.5974 13.2055C30.5017 13.507 30.3901 13.7029 30.2626 13.7934C30.135 13.8838 29.9277 13.9441 29.6567 13.9441H28.2855C27.9825 13.9441 27.7752 13.8989 27.6477 13.7934C27.5201 13.6879 27.4085 13.4919 27.3447 13.1904L24.8733 3.46697L22.4179 13.1753C22.3382 13.4768 22.2425 13.6728 22.1149 13.7783C21.9874 13.8838 21.7641 13.9291 21.4771 13.9291H20.1059ZM40.5946 14.3361C39.7655 14.3361 38.9364 14.2456 38.1392 14.0647C37.342 13.8838 36.7201 13.6879 36.3056 13.4617C36.0504 13.3261 35.8751 13.1753 35.8113 13.0396C35.7475 12.904 35.7156 12.7532 35.7156 12.6175V11.8487C35.7156 11.5321 35.8432 11.3814 36.0823 11.3814C36.178 11.3814 36.2737 11.3965 36.3693 11.4266C36.465 11.4568 36.6085 11.5171 36.768 11.5774C37.3101 11.8035 37.9 11.9844 38.5219 12.105C39.1596 12.2256 39.7815 12.2859 40.4192 12.2859C41.4238 12.2859 42.205 12.1201 42.7472 11.7884C43.2893 11.4568 43.5763 10.9743 43.5763 10.3563C43.5763 9.93417 43.4328 9.58744 43.1458 9.30102C42.8588 9.01459 42.3166 8.75832 41.5354 8.51711L39.2234 7.83874C38.0595 7.49201 37.1985 6.97946 36.6723 6.30108C36.1461 5.63778 35.8751 4.8991 35.8751 4.11519C35.8751 3.48204 36.0186 2.92426 36.3056 2.44186C36.5926 1.95946 36.9752 1.53736 37.4536 1.20571C37.9319 0.85898 38.474 0.602704 39.1118 0.421803C39.7496 0.240903 40.4192 0.165527 41.1208 0.165527C41.4716 0.165527 41.8383 0.180602 42.1891 0.225828C42.5558 0.271053 42.8907 0.331353 43.2255 0.391653C43.5444 0.467029 43.8473 0.542404 44.1343 0.632854C44.4213 0.723305 44.6445 0.813755 44.804 0.904206C45.0272 1.02481 45.1867 1.14541 45.2823 1.28108C45.378 1.40168 45.4258 1.56751 45.4258 1.77856V2.48709C45.4258 2.80366 45.2983 2.96949 45.0591 2.96949C44.9315 2.96949 44.7243 2.90919 44.4532 2.78859C43.5444 2.39664 42.5239 2.20066 41.3919 2.20066C40.483 2.20066 39.7655 2.33634 39.2712 2.62276C38.777 2.90919 38.5219 3.34637 38.5219 3.96444C38.5219 4.38655 38.6813 4.74835 39.0002 5.03477C39.3191 5.3212 39.909 5.60763 40.7541 5.8639L43.0182 6.54228C44.1662 6.88901 44.9953 7.37141 45.4896 7.98949C45.9839 8.60756 46.2231 9.31609 46.2231 10.1C46.2231 10.7482 46.0796 11.3362 45.8085 11.8487C45.5215 12.3613 45.1388 12.8135 44.6445 13.1753C44.1503 13.5522 43.5603 13.8235 42.8747 14.0195C42.1572 14.2306 41.4078 14.3361 40.5946 14.3361Z" fill="white"/>
    <path fill-rule="evenodd" clip-rule="evenodd" d="M43.608 21.6626C38.3622 25.3258 30.7407 27.2705 24.1875 27.2705C15.0035 27.2705 6.72826 24.0595 0.478009 18.7229C-0.0162715 18.3008 0.430175 17.728 1.02012 18.0596C7.7806 21.7681 16.1196 24.0143 24.7456 24.0143C30.5653 24.0143 36.9591 22.8686 42.8426 20.5169C43.7196 20.14 44.469 21.0596 43.608 21.6626Z" fill="#F49813"/>
    <path fill-rule="evenodd" clip-rule="evenodd" d="M45.792 19.3112C45.1223 18.4971 41.3594 18.9192 39.6533 19.1152C39.1431 19.1755 39.0634 18.7534 39.5258 18.4368C42.5234 16.4469 47.4502 17.0198 48.0242 17.6831C48.5982 18.3615 47.8648 23.0197 45.0585 25.2508C44.628 25.5975 44.2135 25.4166 44.4048 24.9643C45.0426 23.4719 46.4617 20.1102 45.792 19.3112Z" fill="#F49813"/>
  </g>
  <defs>
    <clipPath id="clip0_1530_8821">
      <rect width="48.4714" height="27.4366" fill="white"/>
    </clipPath>
  </defs>
</svg>