<svg width="53" height="50" viewBox="0 0 53 50" fill="none" xmlns="http://www.w3.org/2000/svg">
<path d="M44.0384 2.6832H34.4304C32.7471 2.6832 31.2119 3.46937 30.196 4.70763C30.8233 5.46001 31.3413 6.30291 31.7333 7.22848C32.1239 6.08698 33.1878 5.27069 34.4304 5.27069H44.0384C45.2277 5.27069 46.1946 6.23764 46.1946 7.42694V17.777C46.1946 18.9663 45.2277 19.9332 44.0384 19.9332H36.7564C36.4239 20.9158 35.9328 21.7723 35.3325 22.5207H44.0384C46.6537 22.5207 48.7821 20.3931 48.7821 17.777V7.42696C48.7821 4.81082 46.6537 2.6832 44.0384 2.6832Z" fill="#4CB7A3"/>
<path d="M19.8882 26.8333H9.53821C6.92206 26.8333 4.79444 28.9609 4.79444 31.577V41.927C4.79444 44.5432 6.92206 46.6708 9.53821 46.6708H19.8882C22.5044 46.6708 24.632 44.5432 24.632 41.927V31.577C24.632 28.9609 22.5044 26.8333 19.8882 26.8333ZM22.0445 41.927C22.0445 43.1164 21.0775 44.0833 19.8882 44.0833H9.53821C8.3489 44.0833 7.38195 43.1164 7.38195 41.927V31.577C7.38195 30.3877 8.3489 29.4208 9.53821 29.4208H19.8882C21.0775 29.4208 22.0445 30.3877 22.0445 31.577V41.927Z" fill="#4CB7A3"/>
<path d="M6.08825 22.5207C2.70815 22.5207 0.436493 20.0554 0.436493 16.3864C0.436493 14.0212 1.73782 11.8801 3.77364 10.7431C3.66246 10.1939 3.60686 9.63798 3.60686 9.08037C3.60686 4.33912 7.50665 0.481461 12.3001 0.481461C15.1951 0.481461 17.8297 1.87292 19.441 4.185C20.3608 3.80765 21.3446 3.61224 22.3419 3.61224C26.197 3.61224 29.3944 6.45412 29.9065 10.1316C32.7239 10.8888 34.7344 13.4114 34.7344 16.3864C34.7344 19.438 32.8115 22.5174 28.5167 22.5174L6.08825 22.5207ZM12.3001 3.06895C8.93349 3.06895 6.19437 5.76596 6.19437 9.08035C6.19437 9.74155 6.30893 10.4011 6.53382 11.0412L6.96928 12.2794L5.72522 12.6971C4.10972 13.2396 3.024 14.722 3.024 16.3864C3.024 17.4527 3.32217 19.9332 6.08825 19.9332L28.5167 19.9299C31.7932 19.9299 32.1469 17.4519 32.1469 16.3864C32.1469 14.3758 30.6039 12.7081 28.5579 12.5076L27.3905 12.3931V11.2197C27.3905 8.42841 25.1256 6.1997 22.3419 6.1997C21.3892 6.1997 20.4534 6.47092 19.6364 6.98302L18.4252 7.74361L17.7901 6.46166C16.7533 4.36857 14.6493 3.06895 12.3001 3.06895Z" fill="#DBDBDB"/>
<path d="M52.1075 41.1425H45.4859V34.5209H43.254V41.1425H36.6323V43.3744H43.254V49.9961H45.4859V43.3744H52.1075V41.1425Z" fill="#DBDBDB"/>
<path d="M44.0386 26.8329C46.6546 26.8331 48.7818 28.9611 48.7818 31.5771V32.7675H46.1949V31.5771C46.1949 30.3879 45.2278 29.421 44.0386 29.4208H33.688C32.4988 29.421 31.5318 30.3879 31.5318 31.5771V41.9267C31.5318 43.1159 32.4988 44.0828 33.688 44.0829H35.2281V46.6708H33.688C31.072 46.6707 28.9449 44.5428 28.9449 41.9267V31.5771C28.9449 28.961 31.072 26.8331 33.688 26.8329H44.0386Z" fill="#4CB7A3"/>
</svg>
