<svg width="53" height="50" viewBox="0 0 53 50" fill="none" xmlns="http://www.w3.org/2000/svg">
<path d="M17.6692 33.7064H9.74091C5.84735 33.7064 2.6806 30.2185 2.6806 25.9323C2.6806 21.6543 5.84735 18.1744 9.74091 18.1744C11.0599 18.1744 12.3285 18.5638 13.4073 19.3019L14.8139 17.2448C13.3181 16.2228 11.5644 15.6825 9.74091 15.6825C4.47325 15.6825 0.188721 20.2802 0.188721 25.9323C0.188721 31.5926 4.47325 36.1983 9.74091 36.1983H17.6692V33.7064Z" fill="#DBDBDB"/>
<path d="M45.0092 16.7949C44.7768 13.8877 43.5473 11.13 41.5372 9.10335C39.444 6.99353 36.703 5.83063 33.829 5.83063C32.1511 5.83063 30.5065 6.22932 28.9949 7.01015C26.6523 2.95671 22.5657 0.481461 18.0472 0.481461C10.9536 0.481461 5.17247 6.64463 5.17247 14.2034H7.66434C7.66434 8.00687 12.3159 2.97333 18.0472 2.97333C22.0176 2.97333 25.5893 5.38216 27.3667 9.26944L27.9814 10.615L29.1941 9.78442C32.5 7.52514 36.9522 8.0235 39.7598 10.8476C41.5539 12.6584 42.5672 15.2001 42.5506 17.8581V18.9712L43.6635 19.104C47.2851 19.4862 50.0262 22.7421 50.0262 26.6794C50.0262 28.324 49.561 33.7065 43.5309 33.7065H35.0377V36.0831L34.9099 36.1983H43.5309C50.1593 36.1983 52.5181 31.0649 52.5181 26.6794C52.5181 21.8617 49.3617 17.7916 45.0092 16.7949Z" fill="#DBDBDB"/>
<path d="M24.5131 20.2309C24.5131 19.1988 25.3497 18.3622 26.3818 18.3622C27.4138 18.3622 28.2504 19.1988 28.2504 20.2309C28.2504 21.2629 27.4138 22.0995 26.3818 22.0995C25.3497 22.0995 24.5131 21.2629 24.5131 20.2309ZM32.5458 44.7852V41.8748L31.0776 40.5575L32.5458 39.2288V37.6406L31.0743 36.3086L32.5458 34.9767V30.4683C34.6158 28.6773 35.8342 26.0361 35.8342 23.2815C35.8342 18.0381 31.5805 13.7715 26.3534 13.7715C21.1263 13.7715 16.8726 18.0381 16.8726 23.2815C16.8726 26.0361 18.091 28.6773 20.161 30.4683V44.6928L26.3453 49.6003L32.5458 44.7852ZM22.6529 29.2499L22.1549 28.8768C20.3817 27.5433 19.3645 25.504 19.3645 23.2815C19.3645 19.4122 22.5004 16.2633 26.3534 16.2633C30.2064 16.2633 33.3423 19.4122 33.3423 23.2815C33.3423 25.504 32.3251 27.5433 30.5519 28.8768L30.0539 29.2499V33.8703L27.3592 36.3086L29.71 38.4355L27.356 40.564L30.0539 42.9877V43.5652L26.3615 46.4335L22.6529 43.489V29.2499Z" fill="#4CB7A3"/>
</svg>
