<svg width="50" height="50" viewBox="0 0 50 50" fill="none" xmlns="http://www.w3.org/2000/svg">
<path d="M24.9662 32.3787C21.3098 32.3787 18.3345 29.4042 18.3345 25.747C18.3345 22.0898 21.3098 19.1152 24.9662 19.1152C28.6227 19.1152 31.598 22.0898 31.598 25.747C31.598 29.4042 28.6227 32.3787 24.9662 32.3787ZM24.9662 21.4558C22.5997 21.4558 20.6751 23.3805 20.6751 25.747C20.6751 28.1135 22.5997 30.0381 24.9662 30.0381C27.3328 30.0381 29.2574 28.1135 29.2574 25.747C29.2574 23.3805 27.3328 21.4558 24.9662 21.4558ZM19.2747 38.1982C21.0157 37.4424 23.066 37.0599 25.3678 37.0599C27.4174 37.0599 29.2368 37.3754 30.7949 38.0063C33.1622 38.9129 34.1954 40.644 35.2186 45.4136L37.5074 44.923C36.4689 40.0817 35.2247 37.1971 31.6529 35.8287C29.8342 35.0927 27.7198 34.7193 25.3678 34.7193C22.743 34.7193 20.3795 35.1674 18.3353 36.0542C14.3009 37.8371 13.4323 41.3008 12.5127 44.9671L14.7832 45.5371C15.7478 41.6909 16.432 39.4539 19.2747 38.1982Z" fill="white"/>
<path d="M43.4284 31.2995L45.6943 31.8847C44.659 35.8991 42.3976 39.5854 39.3053 42.3839C39.083 41.5392 38.8242 40.71 38.5107 39.9106C40.8679 37.5229 42.5946 34.5312 43.4284 31.2995ZM16.3475 33.18C14.5044 31.0862 13.4895 28.3936 13.4895 25.6004C13.4895 19.2719 18.6378 14.1229 24.9663 14.1229C31.2948 14.1229 36.4431 19.2719 36.4431 25.6004C36.4431 28.2519 35.5654 30.7418 33.9044 32.8005L35.7269 34.2695C37.698 31.8253 38.7837 28.7471 38.7837 25.6004C38.7837 17.9812 32.5855 11.7823 24.9663 11.7823C17.3471 11.7823 11.1489 17.9812 11.1489 25.6004C11.1489 28.9635 12.371 32.2047 14.5905 34.7252L16.3475 33.18ZM24.9663 5.83622C35.864 5.83622 44.7297 14.7019 44.7297 25.6004H47.0703C47.0703 13.4112 37.1547 3.49561 24.9663 3.49561C20.1906 3.49561 15.6404 5.00115 11.8065 7.85074L13.2023 9.7281C16.6294 7.18176 20.6973 5.83622 24.9663 5.83622ZM11.5535 40.0689C7.51267 36.3316 5.20292 31.1527 5.20292 25.6004C5.20292 21.1371 6.74123 16.756 9.53443 13.2649L7.70734 11.8021C4.58272 15.7077 2.8623 20.6083 2.8623 25.6004C2.8623 32.1609 5.74036 38.2608 10.7462 42.4756C10.973 41.6691 11.2312 40.8597 11.5535 40.0689Z" fill="white"/>
</svg>
