<svg width="53" height="50" viewBox="0 0 53 50" fill="none" xmlns="http://www.w3.org/2000/svg">
<path d="M23.4968 16.7078C24.7398 16.8805 25.7744 17.5939 26.4265 18.5145L35.0437 16.1531V28.7146L26.4265 26.3514C25.7744 27.2719 24.7398 27.9853 23.4968 28.158L18.9666 28.7264H18.5613C16.7429 28.7263 15.2654 27.2479 15.2654 25.4295V19.4363C15.2654 17.6179 16.7429 16.1395 18.5613 16.1395H18.9666L23.4968 16.7078ZM18.6501 17.8553C17.8596 17.8554 17.2177 18.5333 17.2175 19.3689V25.4266C17.2177 26.2622 17.8596 26.9401 18.6501 26.9402L22.8123 26.3875C23.6808 26.272 24.3298 25.5312 24.3298 24.6551V20.2361C24.3298 19.3749 23.7022 18.6424 22.8513 18.5096L18.6501 17.8553ZM26.0535 20.7312V24.1355L33.2458 26.0184V18.8475L26.0535 20.7312Z" fill="#4CB7A3"/>
<path d="M14.3984 32.2541C15.2052 32.175 15.9244 31.7063 16.2912 31.0242L16.7635 30.1L18.5616 30.6742L17.8352 31.9724C17.0992 33.1544 15.8201 33.9168 14.3984 34.0522L11.0696 34.3387V32.5406L14.3984 32.2541Z" fill="#4CB7A3"/>
<rect x="40.7901" y="16.9165" width="1.79497" height="4.04637" transform="rotate(66.331 40.7901 16.9165)" fill="#4CB7A3"/>
<rect x="37.1384" y="26.351" width="1.79497" height="4.04637" transform="rotate(-75 37.1384 26.351)" fill="#4CB7A3"/>
<path d="M27.2076 0.481461C39.8142 1.16658 49.9256 11.2773 50.6108 23.8847H47.9026C47.2245 12.7704 38.3219 3.8678 27.2076 3.18974V0.481461ZM3.80444 23.8847C4.4825 12.7704 13.3851 3.8678 24.4994 3.18974V0.481461C11.8928 1.16658 1.78139 11.2773 1.09616 23.8847H3.80444ZM24.4994 47.2879C13.3851 46.6097 4.4825 37.7073 3.80444 26.5929H1.09616C1.78139 39.2003 11.8928 49.3109 24.4994 49.9961V47.2879ZM47.9026 26.5929C47.2245 37.7073 38.3219 46.6097 27.2076 47.2879V49.9961C39.8142 49.3109 49.9256 39.2003 50.6108 26.5929H47.9026Z" fill="#DBDBDB"/>
</svg>
