<svg
  width="13"
  height="13"
  viewBox="0 0 13 13"
  fill="none"
  xmlns="http://www.w3.org/2000/svg"
  aria-hidden="true"
  focusable="false"
>
  <path
    d="M9.552 4.064L9.536 7.968H11.056V1.472H4.56V2.992L8.448 2.976L4 7.408L5.12 8.528L9.552 4.064Z"
    fill="#191919"
  />
  <path
    d="M0 0.472H12.056H0ZM12.056 14.028H2C0.0670034 14.028 -1.5 12.461 -1.5 10.528H1.5C1.5 10.8041 1.72386 11.028 2 11.028H12.056V14.028ZM2 14.028C0.0670034 14.028 -1.5 12.461 -1.5 10.528V0.472H1.5V10.528C1.5 10.8041 1.72386 11.028 2 11.028V14.028ZM12.056 0.472V12.528V0.472Z"
    fill="#191919"
    mask="url(#path-1-inside-1_1471_16106)"
  />
</svg>