<?xml version="1.0" encoding="utf-8"?>
<!-- Generator: Adobe Illustrator 16.0.4, SVG Export Plug-In . SVG Version: 6.00 Build 0)  -->
<!DOCTYPE svg PUBLIC "-//W3C//DTD SVG 1.1//EN" "http://www.w3.org/Graphics/SVG/1.1/DTD/svg11.dtd">
<svg version="1.1" id="Layer_1" xmlns="http://www.w3.org/2000/svg" xmlns:xlink="http://www.w3.org/1999/xlink" x="0px" y="0px"
	 width="20px" height="20px" viewBox="0 0 20 20" enable-background="new 0 0 20 20" xml:space="preserve" fill="#999999">
	<path d="M6.328,2L6.328,2c1.061,0,2.058,0.413,2.808,1.163c1.55,1.551,1.55,4.072,0,5.622
		c-0.75,0.75-1.748,1.164-2.808,1.164c-1.062,0-2.059-0.413-2.81-1.164c-1.549-1.549-1.549-4.071,0-5.621
		C4.268,2.413,5.266,2,6.328,2 M6.327,0C4.799,0,3.27,0.583,2.104,1.75c-2.334,2.335-2.332,6.117,0,8.449
		c1.166,1.166,2.695,1.75,4.224,1.75c1.528,0,3.056-0.583,4.223-1.75c2.334-2.334,2.331-6.116,0-8.449C9.384,0.583,7.856,0,6.327,0
		L6.327,0z"/>
	<polyline fill="none" stroke="#999999" stroke-width="2" stroke-miterlimit="10" points="7.383,10.55 15.83,19 18.646,19 
	18.646,16.184 15.83,14.775 15.83,11.958 13.016,11.958 13.016,9.143 10.199,9.143 "/>
	<circle id="keyhole" cx="5.271" cy="4.918" r="1.493"/>
</svg>
