<svg xmlns="http://www.w3.org/2000/svg" width="61" height="21" viewBox="0 0 61 21" fill="none">
  <g clip-path="url(#clip0_1533_6849)">
    <path d="M25.8888 10.5524C25.8888 13.4087 23.6543 15.5134 20.9122 15.5134C18.17 15.5134 15.9355 13.4087 15.9355 10.5524C15.9355 7.67606 18.17 5.59148 20.9122 5.59148C23.6543 5.59148 25.8888 7.67606 25.8888 10.5524ZM23.7102 10.5524C23.7102 8.76756 22.4152 7.54634 20.9122 7.54634C19.4091 7.54634 18.1141 8.76756 18.1141 10.5524C18.1141 12.3194 19.4091 13.5585 20.9122 13.5585C22.4152 13.5585 23.7102 12.3172 23.7102 10.5524Z" fill="#EA4335"/>
    <path d="M36.6251 10.5524C36.6251 13.4087 34.3907 15.5134 31.6485 15.5134C28.9063 15.5134 26.6719 13.4087 26.6719 10.5524C26.6719 7.6783 28.9063 5.59148 31.6485 5.59148C34.3907 5.59148 36.6251 7.67606 36.6251 10.5524ZM34.4466 10.5524C34.4466 8.76756 33.1515 7.54634 31.6485 7.54634C30.1454 7.54634 28.8504 8.76756 28.8504 10.5524C28.8504 12.3194 30.1454 13.5585 31.6485 13.5585C33.1515 13.5585 34.4466 12.3172 34.4466 10.5524Z" fill="#FBBC05"/>
    <path d="M46.9147 5.89119V14.7977C46.9147 18.4613 44.754 19.9577 42.1997 19.9577C39.7953 19.9577 38.3482 18.3495 37.8024 17.0343L39.6991 16.2448C40.0369 17.0522 40.8644 18.0051 42.1975 18.0051C43.8325 18.0051 44.8457 16.9963 44.8457 15.0974V14.3839H44.7697C44.2821 14.9855 43.3427 15.5112 42.1572 15.5112C39.6768 15.5112 37.4043 13.3505 37.4043 10.5703C37.4043 7.77 39.6768 5.59148 42.1572 5.59148C43.3404 5.59148 44.2799 6.1171 44.7697 6.70087H44.8457V5.89343H46.9147V5.89119ZM45.0001 10.5703C45.0001 8.82348 43.8348 7.54634 42.3518 7.54634C40.8488 7.54634 39.5895 8.82348 39.5895 10.5703C39.5895 12.2993 40.8488 13.5585 42.3518 13.5585C43.8348 13.5585 45.0001 12.2993 45.0001 10.5703Z" fill="#4285F4"/>
    <path d="M50.326 0.671509V15.2099H48.2012V0.671509H50.326Z" fill="#34A853"/>
    <path d="M58.6056 12.1858L60.2966 13.3131C59.7508 14.1205 58.4356 15.5117 56.1632 15.5117C53.345 15.5117 51.2402 13.3332 51.2402 10.5508C51.2402 7.60059 53.3628 5.58981 55.9194 5.58981C58.4938 5.58981 59.753 7.63861 60.1646 8.74577L60.3905 9.30941L53.7587 12.0561C54.2665 13.0514 55.056 13.5591 56.1632 13.5591C57.2726 13.5591 58.042 13.0134 58.6056 12.1858ZM53.4009 10.4009L57.834 8.56013C57.5902 7.94056 56.8565 7.50889 55.9932 7.50889C54.886 7.50889 53.345 8.48631 53.4009 10.4009Z" fill="#EA4335"/>
    <path d="M7.89281 9.26246V7.15774H14.9853C15.0547 7.52456 15.0904 7.95847 15.0904 8.42817C15.0904 10.0073 14.6588 11.9599 13.2675 13.3511C11.9144 14.7602 10.1854 15.5117 7.89504 15.5117C3.64982 15.5117 0.0800781 12.0538 0.0800781 7.80861C0.0800781 3.56339 3.64982 0.105484 7.89504 0.105484C10.2436 0.105484 11.9166 1.027 13.1736 2.22809L11.6885 3.71325C10.7871 2.86779 9.56584 2.2102 7.89281 2.2102C4.79277 2.2102 2.3682 4.70857 2.3682 7.80861C2.3682 10.9087 4.79277 13.407 7.89281 13.407C9.90358 13.407 11.0488 12.5996 11.7824 11.866C12.3774 11.271 12.7688 10.4211 12.9231 9.26022L7.89281 9.26246Z" fill="#4285F4"/>
  </g>
  <defs>
    <clipPath id="clip0_1533_6849">
      <rect width="60.8377" height="20.5775" fill="white"/>
    </clipPath>
  </defs>
</svg>