<svg width="180" height="28" viewBox="0 0 180 28" fill="none" xmlns="http://www.w3.org/2000/svg">
<path d="M68.1881 22.4005C74.1465 22.4005 77.765 18.5643 77.765 12.878C77.765 7.16457 74.1465 3.35559 68.1881 3.35559H62.0938V22.4005H68.1881ZM64.4608 5.53215H68.1881C72.8133 5.53215 75.3436 8.41609 75.3436 12.878C75.3436 17.3128 72.8133 20.2239 68.1881 20.2239H64.4608V5.53215Z" fill="#FFFEFA"/>
<path d="M86.2684 22.5637C89.4789 22.5637 91.7643 20.5232 92.3084 17.7481H90.0502C89.5877 19.5438 88.0641 20.5776 86.1052 20.5776C83.4661 20.5776 81.8065 18.7275 81.7249 16.0885V15.898H92.4988C92.5261 15.5715 92.5533 15.245 92.5533 14.9458C92.4444 10.8375 89.887 8.36168 85.9692 8.36168C82.0514 8.36168 79.3851 11.2456 79.3851 15.4627C79.3851 19.707 82.1058 22.5637 86.2684 22.5637ZM81.8609 14.0479C82.0786 11.7898 83.9558 10.3206 85.9964 10.3206C88.309 10.3206 89.9414 11.6537 90.159 14.0479H81.8609Z" fill="#FFFEFA"/>
<path d="M97.7528 22.4005H100.446L105.643 8.52492H103.303L99.1403 19.8702L94.9505 8.52492H92.5562L97.7528 22.4005Z" fill="#FFFEFA"/>
<path d="M112.547 22.5637C115.757 22.5637 118.042 20.5232 118.587 17.7481H116.328C115.866 19.5438 114.342 20.5776 112.383 20.5776C109.744 20.5776 108.085 18.7275 108.003 16.0885V15.898H118.777C118.804 15.5715 118.831 15.245 118.831 14.9458C118.723 10.8375 116.165 8.36168 112.247 8.36168C108.329 8.36168 105.663 11.2456 105.663 15.4627C105.663 19.707 108.384 22.5637 112.547 22.5637ZM108.139 14.0479C108.357 11.7898 110.234 10.3206 112.275 10.3206C114.587 10.3206 116.22 11.6537 116.437 14.0479H108.139Z" fill="#FFFEFA"/>
<path d="M120.833 22.4005H123.064V3.35559H120.833V22.4005Z" fill="#FFFEFA"/>
<path d="M131.97 22.5637C136.024 22.5637 138.853 19.6798 138.853 15.4627C138.853 11.2456 136.024 8.36168 131.97 8.36168C127.916 8.36168 125.086 11.2456 125.086 15.4627C125.086 19.6798 127.916 22.5637 131.97 22.5637ZM131.97 20.5776C129.222 20.5776 127.372 18.4283 127.372 15.4627C127.372 12.4971 129.222 10.3478 131.97 10.3478C134.718 10.3478 136.568 12.4971 136.568 15.4627C136.568 18.4283 134.718 20.5776 131.97 20.5776Z" fill="#FFFEFA"/>
<path d="M147.86 8.36168C145.52 8.36168 144.023 9.47717 143.098 10.7559L142.799 8.52492H140.867V27.8419H143.098V20.2783C143.942 21.6115 145.52 22.5637 147.86 22.5637C151.696 22.5637 154.525 19.707 154.525 15.4627C154.525 10.9463 151.696 8.36168 147.86 8.36168ZM147.642 20.5776C144.921 20.5776 143.071 18.4555 143.071 15.4083C143.071 12.4427 144.921 10.3478 147.642 10.3478C150.39 10.3478 152.24 12.4427 152.24 15.4627C152.24 18.4827 150.39 20.5776 147.642 20.5776Z" fill="#FFFEFA"/>
<path d="M162.924 22.5637C166.135 22.5637 168.42 20.5232 168.964 17.7481H166.706C166.243 19.5438 164.72 20.5776 162.761 20.5776C160.122 20.5776 158.462 18.7275 158.381 16.0885V15.898H169.155C169.182 15.5715 169.209 15.245 169.209 14.9458C169.1 10.8375 166.543 8.36168 162.625 8.36168C158.707 8.36168 156.041 11.2456 156.041 15.4627C156.041 19.707 158.761 22.5637 162.924 22.5637ZM158.517 14.0479C158.734 11.7898 160.612 10.3206 162.652 10.3206C164.965 10.3206 166.597 11.6537 166.815 14.0479H158.517Z" fill="#FFFEFA"/>
<path d="M177.631 8.52492C175.156 8.52492 174.095 9.55879 173.442 10.6199L173.142 8.52492H171.211V22.4005H173.442V15.3267C173.442 13.1229 174.231 10.7015 177.142 10.7015H178.257V8.52492H177.631Z" fill="#FFFEFA"/>
<path d="M44.5695 19.767C41.9885 19.767 40.165 17.7509 40.165 15.1047C40.165 12.4585 41.9898 10.4424 44.5695 10.4424C47.1493 10.4424 48.9228 12.4585 48.9228 15.1047C48.9228 17.7509 47.1249 19.767 44.5695 19.767ZM44.1524 22.5431C46.2382 22.5431 48.0105 21.7317 49.1301 20.0293C49.3387 21.679 50.5377 22.282 52.049 22.282H53.248V19.6629H52.7272C51.8673 19.6629 51.6587 19.2437 51.6587 18.2742V7.92867H48.896V10.0502C47.958 8.55743 46.1857 7.66637 44.1524 7.66637C40.5297 7.66637 37.1925 10.7047 37.1925 15.1047C37.1925 19.5047 40.5285 22.5431 44.1524 22.5431V22.5431ZM29.9216 18.9544C29.9216 21.3113 31.3817 22.2808 33.1271 22.2808H36.4899V19.6616H34.0394C33.0234 19.6616 32.8148 19.2681 32.8148 18.2729V10.5466H36.4899V7.92739H32.8148V3.1095H29.9216V18.9544V18.9544ZM16.7593 22.2808H19.6526V16.1256H20.6174L25.544 22.2808H29.1935L22.9118 14.476L27.7334 7.92867H24.4755L20.5393 13.455H19.6526V3.1095H16.7593V22.2808V22.2808ZM7.37579 7.66637C3.336 7.66637 0 10.7047 0 15.1047C0 19.5047 3.336 22.5431 7.37579 22.5431C11.4156 22.5431 14.7516 19.5047 14.7516 15.1047C14.7516 10.7047 11.4156 7.66637 7.37579 7.66637V7.66637ZM7.37579 19.7657C4.79478 19.7657 2.9713 17.7496 2.9713 15.1034C2.9713 12.4573 4.79606 10.4411 7.37579 10.4411C9.95553 10.4411 11.7803 12.4573 11.7803 15.1034C11.7803 17.7496 9.95553 19.7657 7.37579 19.7657Z" fill="#FFFEFA"/>
</svg>
