<svg width="212" height="31" viewBox="0 0 212 31" fill="none" xmlns="http://www.w3.org/2000/svg">
<path fill-rule="evenodd" clip-rule="evenodd" d="M16.4693 0.902545L15.8554 8.48583C15.5648 8.45061 15.2704 8.43174 14.9697 8.43174C14.5961 8.43174 14.2287 8.45941 13.8702 8.51477L13.5205 4.8376C13.5092 4.72312 13.601 4.62248 13.7167 4.62374H14.3445L14.0413 0.902545C14.0312 0.788066 14.1218 0.689941 14.2363 0.689941H16.2718C16.3862 0.689941 16.4756 0.788066 16.4668 0.902545H16.4693ZM11.3315 1.27869C11.3013 1.16799 11.1831 1.1076 11.0749 1.1466L9.16145 1.84354C9.05326 1.88254 9.00294 2.00582 9.05075 2.11024L10.6069 5.50309L10.0156 5.71695C9.90746 5.75595 9.85462 5.88049 9.90494 5.98617L11.49 9.32241C12.065 9.00539 12.6877 8.76763 13.3456 8.61667L11.3315 1.27869ZM6.6341 3.39089L11.0372 9.59414C10.4786 9.9577 9.97413 10.3955 9.53634 10.8949L6.90331 8.3009C6.82028 8.21913 6.82657 8.08453 6.91463 8.0103L7.39645 7.60774L4.77475 4.95208C4.69423 4.87031 4.70052 4.73822 4.78858 4.664L6.34727 3.35441C6.43533 3.28018 6.56742 3.2978 6.6341 3.39089ZM2.94056 6.98251C2.84621 6.91835 2.71663 6.94729 2.65876 7.04541L1.64103 8.80914C1.58316 8.90852 1.62341 9.03558 1.72657 9.08465L5.09931 10.6836L4.78355 11.227C4.72568 11.3277 4.76594 11.456 4.87161 11.5038L8.23178 13.0398C8.47583 12.4146 8.8004 11.8321 9.19793 11.3063L2.94056 6.98251ZM0.455976 11.7755C0.476104 11.6623 0.586809 11.5906 0.698773 11.6195L8.05817 13.5418C7.86821 14.1632 7.76128 14.8212 7.74618 15.5018L4.06145 15.2061C3.94571 15.1973 3.86394 15.0904 3.88407 14.9759L3.99478 14.3582L0.279853 14.0098C0.165374 13.9984 0.0848605 13.8928 0.104989 13.7795L0.457234 11.7743L0.455976 11.7755ZM0.177954 16.7459C0.0634743 16.7572 -0.0170388 16.8629 0.00308947 16.9761L0.356592 18.9814C0.37672 19.0946 0.488684 19.1663 0.599389 19.1374L4.2099 18.1939L4.31809 18.8116C4.33821 18.9261 4.45269 18.9978 4.5634 18.9663L8.12484 17.9826C7.91476 17.3649 7.78518 16.712 7.75121 16.0326L0.177954 16.7459ZM1.35546 22.0157C1.29759 21.9164 1.33785 21.7893 1.441 21.7402L8.31229 18.482C8.57396 19.0984 8.91991 19.6708 9.3338 20.1841L6.32211 22.3265C6.22776 22.3944 6.09566 22.3642 6.03905 22.2648L5.72581 21.7201L2.65625 23.8424C2.5619 23.9078 2.43232 23.8788 2.37445 23.7795L1.35546 22.0157ZM9.68101 20.5866L4.3357 26.0011C4.25519 26.0829 4.26148 26.215 4.34954 26.2892L5.90948 27.5975C5.99754 27.6717 6.12963 27.6541 6.19631 27.561L8.35506 24.5167L8.83562 24.9217C8.92369 24.996 9.05829 24.9783 9.12371 24.8827L11.2196 21.8421C10.6509 21.4949 10.1339 21.071 9.68101 20.5866ZM8.62554 29.2795C8.51735 29.2405 8.46703 29.1172 8.51483 29.0128L11.685 22.0962C12.2688 22.3944 12.8978 22.6171 13.5595 22.7479L12.6298 26.3232C12.6009 26.4351 12.4814 26.498 12.3732 26.4578L11.7832 26.2414L10.7944 29.8406C10.7642 29.9513 10.6459 30.0117 10.5377 29.9727L8.62428 29.277L8.62554 29.2795ZM14.0853 22.8322L13.4714 30.4167C13.4626 30.5312 13.5519 30.6293 13.6664 30.6293H15.7019C15.8164 30.6293 15.9069 30.5312 15.8969 30.4167L15.5937 26.6968H16.2214C16.3372 26.698 16.4278 26.5987 16.4177 26.4829L16.068 22.8058C15.7094 22.8599 15.3421 22.8888 14.9685 22.8888C14.669 22.8888 14.3747 22.8687 14.0841 22.8334L14.0853 22.8322ZM21.4259 2.30523C21.4737 2.20081 21.4221 2.07879 21.3152 2.03853L19.4017 1.34285C19.2948 1.30385 19.1753 1.36423 19.1451 1.47494L18.1563 5.07411L17.5663 4.85773C17.4581 4.81747 17.3386 4.88037 17.3096 4.99234L16.38 8.5676C17.0417 8.69844 17.6707 8.9211 18.2544 9.21925L21.4259 2.30397V2.30523ZM25.6037 5.31942L20.2584 10.7339C19.8068 10.2483 19.2897 9.82436 18.7199 9.47715L20.8157 6.43653C20.8811 6.34218 21.0157 6.32331 21.1038 6.39879L21.5844 6.80387L23.7431 3.75949C23.8098 3.66639 23.9419 3.64878 24.03 3.723L25.5899 5.03134C25.678 5.10556 25.6842 5.23891 25.6037 5.31942ZM28.4984 9.5803C28.6028 9.53124 28.6418 9.40418 28.584 9.3048L27.565 7.54107C27.5071 7.44168 27.3775 7.41275 27.2832 7.47817L24.2136 9.60043L23.9004 9.05571C23.8425 8.95507 23.7104 8.92614 23.6173 8.99407L20.6056 11.1365C21.0195 11.651 21.3655 12.2221 21.6271 12.8385L28.4984 9.5803ZM29.5828 12.3404L29.9363 14.3456C29.9565 14.4601 29.8747 14.5658 29.7615 14.5759L22.1882 15.2866C22.1542 14.6073 22.0247 13.9544 21.8146 13.3367L25.376 12.3542C25.4867 12.3228 25.6012 12.3957 25.6213 12.5089L25.7283 13.1266L29.3388 12.1831C29.4495 12.1542 29.5614 12.2259 29.5816 12.3391L29.5828 12.3404ZM29.2407 19.701C29.3514 19.7299 29.4633 19.6582 29.4834 19.545L29.8357 17.5397C29.8558 17.4265 29.7741 17.3208 29.6608 17.3095L25.9459 16.9611L26.0566 16.3434C26.0767 16.2289 25.995 16.1232 25.8792 16.1131L22.1945 15.8175C22.1794 16.4994 22.0725 17.156 21.8825 17.7788L29.2419 19.6997L29.2407 19.701ZM27.2807 24.2764C27.2228 24.3745 27.0932 24.4034 26.9989 24.3393L20.739 20.0155C21.1365 19.4896 21.4623 18.9072 21.7051 18.282L25.0653 19.8192C25.171 19.8671 25.2125 19.9966 25.1534 20.096L24.8376 20.6395L28.2103 22.2384C28.3135 22.2875 28.3538 22.4145 28.2959 22.5139L27.2781 24.2776L27.2807 24.2764ZM18.9023 21.7264L23.3053 27.9309C23.372 28.024 23.5028 28.0416 23.5922 27.9674L25.1508 26.6578C25.2389 26.5836 25.2452 26.4502 25.1647 26.3697L22.543 23.7141L23.0248 23.3115C23.1129 23.2373 23.1191 23.1027 23.0361 23.0221L20.4031 20.4281C19.9653 20.9263 19.4608 21.3641 18.9023 21.7277V21.7264ZM18.8645 30.1739C18.7576 30.2129 18.6381 30.1525 18.6079 30.0418L16.5926 22.7051C17.2505 22.5542 17.8732 22.3151 18.4481 21.9994L20.0332 25.3356C20.0836 25.44 20.032 25.5658 19.9225 25.6048L19.3313 25.8187L20.8874 29.2116C20.9352 29.316 20.8836 29.438 20.7767 29.4783L18.8633 30.1752L18.8645 30.1739Z" fill="#FFFEFA"/>
<path d="M81.3728 22.4693C78.861 22.4693 77.0865 20.4385 77.0865 17.7729C77.0865 15.1074 78.8623 13.0765 81.3728 13.0765C83.8832 13.0765 85.6092 15.1074 85.6092 17.7729C85.6092 20.4385 83.8596 22.4693 81.3728 22.4693ZM80.9668 25.2657C82.9966 25.2657 84.7213 24.4484 85.8109 22.7336C86.0139 24.3953 87.1807 25.0028 88.6514 25.0028H89.8182V22.3644H89.3114C88.4745 22.3644 88.2716 21.9422 88.2716 20.9656V10.5444H85.583V12.6815C84.6702 11.1777 82.9455 10.2802 80.9668 10.2802C77.4414 10.2802 74.1938 13.3407 74.1938 17.7729C74.1938 22.2051 77.4402 25.2657 80.9668 25.2657ZM67.1182 21.6508C67.1182 24.0249 68.539 25.0015 70.2376 25.0015H73.5101V22.3631H71.1254C70.1367 22.3631 69.9337 21.9668 69.9337 20.9643V13.1814H73.5101V10.5431H69.9337V5.68994H67.1182V21.6508ZM54.3093 25.0015H57.1249V18.8013H58.0638L62.8581 25.0015H66.4096L60.2966 17.1396L64.9887 10.5444H61.8183L57.9878 16.1112H57.1249V5.68994H54.3093V25.0015ZM45.1777 10.2802C41.2464 10.2802 38 13.3407 38 17.7729C38 22.2051 41.2464 25.2657 45.1777 25.2657C49.1091 25.2657 52.3555 22.2051 52.3555 17.7729C52.3555 13.3407 49.1091 10.2802 45.1777 10.2802ZM45.1777 22.4681C42.666 22.4681 40.8915 20.4372 40.8915 17.7716C40.8915 15.1061 42.6673 13.0752 45.1777 13.0752C47.6882 13.0752 49.464 15.1061 49.464 17.7716C49.464 20.4372 47.6882 22.4681 45.1777 22.4681Z" fill="#FFFEFA"/>
<path d="M105.176 25C110.948 25 114.328 21.412 114.328 15.9C114.328 10.362 110.948 6.80005 105.176 6.80005H99.8719V25H105.176ZM101.276 8.10005H105.176C110.142 8.10005 112.898 11.116 112.898 15.9C112.898 20.658 110.142 23.7001 105.176 23.7001H101.276V8.10005Z" fill="#FFFEFA"/>
<path d="M122.954 25.156C125.84 25.156 128.05 23.284 128.622 20.632H127.27C126.75 22.6861 125.008 23.96 122.85 23.96C119.912 23.96 118.066 21.7241 118.014 18.656V18.422H128.778C128.778 18.24 128.804 18.032 128.804 17.876C128.674 13.95 126.256 11.662 122.72 11.662C119.106 11.662 116.636 14.4181 116.636 18.3181C116.636 22.4521 119.21 25.156 122.954 25.156ZM118.118 17.3041C118.326 14.626 120.328 12.832 122.746 12.832C125.32 12.832 127.166 14.4181 127.374 17.3041H118.118Z" fill="#FFFEFA"/>
<path d="M134.689 25H136.275L141.423 11.818H140.045L135.521 23.466L130.971 11.818H129.541L134.689 25Z" fill="#FFFEFA"/>
<path d="M148.497 25.156C151.383 25.156 153.593 23.284 154.165 20.632H152.813C152.293 22.6861 150.551 23.96 148.393 23.96C145.455 23.96 143.609 21.7241 143.557 18.656V18.422H154.321C154.321 18.24 154.347 18.032 154.347 17.876C154.217 13.95 151.799 11.662 148.263 11.662C144.649 11.662 142.179 14.4181 142.179 18.3181C142.179 22.4521 144.753 25.156 148.497 25.156ZM143.661 17.3041C143.869 14.626 145.871 12.832 148.289 12.832C150.863 12.832 152.709 14.4181 152.917 17.3041H143.661Z" fill="#FFFEFA"/>
<path d="M156.968 25H158.294V6.80005H156.968V25Z" fill="#FFFEFA"/>
<path d="M167.236 25.156C170.954 25.156 173.58 22.4 173.58 18.396C173.58 14.418 170.954 11.662 167.236 11.662C163.518 11.662 160.918 14.418 160.918 18.396C160.918 22.4 163.518 25.156 167.236 25.156ZM167.236 23.96C164.298 23.96 162.27 21.672 162.27 18.396C162.27 15.146 164.298 12.832 167.236 12.832C170.174 12.832 172.202 15.146 172.202 18.396C172.202 21.672 170.174 23.96 167.236 23.96Z" fill="#FFFEFA"/>
<path d="M182.584 11.662C180.114 11.662 178.398 12.988 177.566 14.834L177.358 11.818H176.214V30.2001H177.54V21.958C178.294 23.882 180.088 25.156 182.584 25.156C186.198 25.156 188.798 22.4 188.798 18.396C188.798 14.262 186.198 11.662 182.584 11.662ZM182.48 23.96C179.542 23.96 177.514 21.672 177.514 18.37C177.514 15.146 179.542 12.832 182.48 12.832C185.418 12.832 187.446 15.146 187.446 18.396C187.446 21.672 185.418 23.96 182.48 23.96Z" fill="#FFFEFA"/>
<path d="M197.247 25.156C200.133 25.156 202.343 23.284 202.915 20.632H201.563C201.043 22.6861 199.301 23.96 197.143 23.96C194.205 23.96 192.359 21.7241 192.307 18.656V18.422H203.071C203.071 18.24 203.097 18.032 203.097 17.876C202.967 13.95 200.549 11.662 197.013 11.662C193.399 11.662 190.929 14.4181 190.929 18.3181C190.929 22.4521 193.503 25.156 197.247 25.156ZM192.411 17.3041C192.619 14.626 194.621 12.832 197.039 12.832C199.613 12.832 201.459 14.4181 201.667 17.3041H192.411Z" fill="#FFFEFA"/>
<path d="M211.1 11.818C208.656 11.818 207.616 12.988 207.07 14.444L206.862 11.818H205.718V25H207.044V18.3181C207.044 15.64 207.746 13.092 210.84 13.092H211.802V11.818H211.1Z" fill="#FFFEFA"/>
</svg>
