<svg width="900" height="220" viewBox="0 0 900 220" fill="none" xmlns="http://www.w3.org/2000/svg">
<g clip-path="url(#clip0)">
<path d="M38.5578 73.3123C31.4731 73.3125 24.5482 75.4703 18.6617 79.5119C12.7753 83.5534 8.19261 89.2965 5.49524 96.0124C2.79786 102.728 2.10737 110.114 3.51138 117.233C4.91539 124.352 8.35061 130.883 13.3811 135.997C18.4117 141.111 24.8108 144.578 31.7664 145.958C38.7221 147.337 45.9208 146.568 52.4491 143.746C58.9774 140.925 64.541 136.179 68.4339 130.111C72.3269 124.043 74.3737 116.926 74.3147 109.663C74.3148 104.864 73.3879 100.112 71.5873 95.6814C69.7867 91.2511 67.1482 87.2302 63.8239 83.8506C60.4996 80.4711 56.5554 77.7999 52.2189 75.9912C47.8823 74.1824 43.2393 73.272 38.5578 73.3123ZM38.5578 127.869C35.0218 127.869 31.5652 126.794 28.6251 124.78C25.685 122.766 23.3935 119.904 22.0403 116.555C20.6871 113.206 20.3331 109.521 21.0229 105.965C21.7128 102.41 23.4155 99.1443 25.9159 96.5811C28.4162 94.0178 31.6018 92.2722 35.0699 91.565C38.538 90.8578 42.1327 91.2208 45.3996 92.608C48.6664 93.9952 51.4587 96.3444 53.4232 99.3585C55.3877 102.373 56.4362 105.916 56.4362 109.541C56.4362 114.402 54.5526 119.064 51.1998 122.501C47.8469 125.938 43.2995 127.869 38.5578 127.869Z" fill="white"/>
<path d="M100.894 122.188C100.894 121.766 100.976 121.348 101.135 120.958C101.295 120.569 101.528 120.216 101.822 119.92C102.117 119.624 102.465 119.391 102.848 119.235C103.231 119.079 103.64 119.003 104.052 119.011C104.461 119.004 104.867 119.082 105.246 119.239C105.625 119.396 105.969 119.631 106.257 119.928C115.137 129.275 130.095 145.098 130.095 145.159C130.405 145.595 130.844 145.916 131.347 146.076H149.225C150.047 146.029 150.821 145.661 151.386 145.047C151.951 144.433 152.266 143.621 152.265 142.777C152.212 142.116 151.985 141.483 151.609 140.944L124.553 113.085L123.182 111.619C120.203 107.892 120.501 106.487 123.957 102.76L145.054 78.7502C145.301 78.4176 145.482 78.0381 145.586 77.6337C145.69 77.2293 145.714 76.8078 145.659 76.3934C145.604 75.979 145.469 75.58 145.263 75.2191C145.057 74.8582 144.783 74.5426 144.458 74.2903C143.913 73.9068 143.271 73.6945 142.61 73.6794H126.818C126.312 73.8452 125.846 74.1155 125.447 74.4736L106.555 95.1845C106.271 95.4914 105.929 95.7358 105.55 95.9028C105.171 96.0698 104.763 96.1559 104.35 96.1559C103.938 96.1559 103.529 96.0698 103.15 95.9028C102.771 95.7358 102.429 95.4914 102.145 95.1845C101.797 94.8876 101.52 94.5131 101.334 94.0897C101.148 93.6662 101.059 93.2049 101.073 92.7408V51.991C101.105 51.599 101.059 51.2043 100.937 50.8313C100.815 50.4584 100.619 50.1152 100.362 49.823C100.105 49.5308 99.7919 49.2959 99.4426 49.1329C99.0933 48.9699 98.715 48.8822 98.3313 48.8752H85.9952C85.2546 48.8061 84.5169 49.0353 83.9384 49.5143C83.3599 49.9933 82.9861 50.6844 82.8962 51.4412V143.082C82.8962 145.159 84.6245 145.77 85.9952 145.77H97.9141C98.6635 145.821 99.4023 145.568 99.971 145.065C100.54 144.562 100.893 143.85 100.953 143.082L100.894 122.188Z" fill="white"/>
<path d="M197.735 142.837L196.484 130.619C196.394 129.85 196.012 129.149 195.42 128.669C194.829 128.188 194.076 127.967 193.325 128.053L190.703 128.297C186.161 128.307 181.785 126.545 178.465 123.368C175.144 120.191 173.128 115.837 172.825 111.191V95.3062C172.758 94.4178 173.032 93.5376 173.589 92.853C174.145 92.1684 174.94 91.7334 175.805 91.6406H191.836C192.217 91.6251 192.591 91.5316 192.936 91.3657C193.281 91.1998 193.591 90.9648 193.846 90.6745C194.102 90.3842 194.298 90.0445 194.423 89.6753C194.549 89.3061 194.601 88.915 194.577 88.5248V77.1002C194.678 76.2984 194.466 75.488 193.985 74.8467C193.505 74.2053 192.796 73.7854 192.014 73.6789H175.805C174.945 73.7123 174.107 73.3979 173.472 72.8036C172.836 72.2092 172.454 71.3826 172.408 70.5021V52.1738C172.458 51.7692 172.425 51.3584 172.311 50.9675C172.197 50.5767 172.005 50.2144 171.747 49.904C171.489 49.5935 171.171 49.3416 170.813 49.1644C170.454 48.9872 170.064 48.8885 169.666 48.8748H157.747C157.033 48.8395 156.333 49.0856 155.79 49.5627C155.247 50.0398 154.903 50.7117 154.827 51.4407V110.946C154.984 120.55 158.848 129.698 165.573 136.386C172.298 143.074 181.335 146.756 190.703 146.625C192.278 146.645 193.852 146.543 195.411 146.32C196.161 146.157 196.821 145.705 197.254 145.056C197.687 144.408 197.859 143.613 197.735 142.837Z" fill="white"/>
<path d="M283.254 127.748C273.182 127.748 271.692 124.082 271.335 110.214V77.1008C271.335 76.6945 271.256 76.2922 271.103 75.9176C270.949 75.5429 270.724 75.2034 270.441 74.9189C270.158 74.6345 269.823 74.4108 269.454 74.2609C269.086 74.111 268.692 74.038 268.296 74.0461H256.377C255.98 74.038 255.586 74.111 255.218 74.2609C254.85 74.4108 254.514 74.6345 254.231 74.9189C253.948 75.2034 253.723 75.5429 253.57 75.9176C253.416 76.2922 253.337 76.6945 253.337 77.1008V78.6282C247.652 75.2428 241.167 73.5298 234.594 73.6773C228.022 73.8248 221.616 75.8271 216.081 79.4642C210.546 83.1013 206.096 88.2323 203.221 94.2933C200.346 100.354 199.156 107.111 199.783 113.82C200.41 120.529 202.829 126.931 206.774 132.322C210.719 137.714 216.038 141.885 222.146 144.379C228.253 146.873 234.914 147.593 241.394 146.459C247.875 145.324 253.925 142.38 258.88 137.951C260.775 140.843 263.383 143.169 266.44 144.693C269.496 146.216 272.892 146.883 276.281 146.626C277.712 146.626 285.28 146.626 285.28 143.266V130.008C285.269 129.443 285.056 128.902 284.683 128.486C284.31 128.07 283.802 127.807 283.254 127.748ZM236.174 128.298C232.638 128.298 229.181 127.223 226.241 125.209C223.301 123.195 221.01 120.332 219.656 116.983C218.303 113.634 217.949 109.949 218.639 106.394C219.329 102.838 221.032 99.5727 223.532 97.0094C226.032 94.4462 229.218 92.7006 232.686 91.9934C236.154 91.2862 239.749 91.6491 243.016 93.0364C246.283 94.4236 249.075 96.7728 251.039 99.7868C253.004 102.801 254.052 106.344 254.052 109.969C253.974 114.777 252.056 119.361 248.712 122.732C245.367 126.104 240.864 127.993 236.174 127.992V128.298Z" fill="white"/>
<path d="M360.667 0.794006H356.198V219.083H360.667V0.794006Z" fill="white"/>
<path d="M539.035 30.5471H494.16L508.045 74.9014H552.92L516.627 101.355L530.393 145.709C541.277 138.082 549.387 126.97 553.452 114.113C557.518 101.256 557.31 87.3799 552.861 74.6571L539.035 30.5471ZM435.34 74.9014H480.274L494.16 30.5471H449.225L435.34 74.9014C430.891 87.6243 430.683 101.5 434.748 114.357C438.814 127.214 446.923 138.326 457.807 145.954L471.693 101.355L435.34 74.9014ZM457.807 145.954L494.16 172.285L530.393 145.709L494.1 118.828L457.807 145.954ZM796.722 73.313C792.395 72.9364 788.064 73.9908 784.364 76.3217C780.664 78.6525 777.789 82.1372 776.162 86.2649H775.328V49.6085H759.416V145.465H775.685V103.86C775.477 101.757 775.714 99.6327 776.38 97.6325C777.047 95.6323 778.128 93.8036 779.549 92.2716C780.97 90.7397 782.697 89.5408 784.612 88.7571C786.527 87.9734 788.584 87.6234 790.644 87.7312C792.602 87.5684 794.571 87.863 796.402 88.5929C798.233 89.3228 799.879 90.4689 801.215 91.945C802.552 93.4212 803.545 95.1888 804.119 97.1151C804.693 99.0413 804.833 101.076 804.529 103.066V145.465H820.858V100.255C820.56 83.1491 811.085 73.313 796.722 73.313ZM864.601 49.6085C842.551 49.6085 829.261 67.3258 829.201 98.0561C829.142 128.786 842.431 146.931 864.601 146.931C886.77 146.931 900 129.031 900 98.0561C900 67.0814 886.651 49.8529 864.601 49.8529V49.6085ZM846.246 98.3005C846.246 75.8789 853.397 64.0878 864.779 64.0878C872.586 64.0878 878.367 69.5863 881.287 80.1555L846.246 105.998C846.119 103.434 846.119 100.865 846.246 98.3005ZM864.779 132.696C856.734 132.696 850.834 126.892 848.033 115.529L882.956 89.5029C883.252 92.4254 883.391 95.3623 883.373 98.3005C883.194 120.966 876.043 132.696 864.601 132.696H864.779ZM685.995 115.651C686.134 117.727 685.855 119.809 685.175 121.769C684.495 123.729 683.428 125.524 682.042 127.043C680.655 128.562 678.978 129.771 677.116 130.597C675.253 131.422 673.245 131.846 671.216 131.841C669.377 131.88 667.552 131.515 665.863 130.77C664.174 130.025 662.66 128.917 661.424 127.522C660.187 126.127 659.256 124.477 658.694 122.682C658.132 120.887 657.951 118.99 658.165 117.117V74.3516H641.895V119.744C641.895 136.729 651.311 146.382 664.958 146.382C669.359 146.601 673.719 145.421 677.442 143.005C681.164 140.588 684.068 137.052 685.757 132.88H686.472V145.465H702.265V74.596H685.995V115.651ZM605.066 73.313C590.524 73.313 579.38 79.9723 575.805 92.8631L591.001 95.1236C592.072 92.2311 594.04 89.7793 596.603 88.1456C599.165 86.5119 602.181 85.7867 605.185 86.0817C612.753 86.0817 617.104 90.0528 617.104 97.0175V97.7506C617.104 102.516 612.217 102.76 600 103.86C586.591 105.326 573.778 109.481 573.778 125.426C573.778 139.356 583.731 146.748 596.901 146.748C600.977 147.077 605.06 146.198 608.663 144.216C612.265 142.234 615.237 139.232 617.223 135.568H617.759V145.343H633.433V97.7506C633.194 79.4224 618.296 73.313 605.066 73.313ZM616.985 119.683C616.944 121.758 616.487 123.802 615.641 125.687C614.796 127.572 613.58 129.259 612.07 130.641C610.56 132.022 608.788 133.07 606.865 133.718C604.942 134.366 602.909 134.601 600.894 134.407C594.1 134.407 588.975 131.23 588.975 125.06C588.975 118.889 594.696 116.079 601.907 114.979C607.033 114.616 612.075 113.462 616.865 111.558L616.985 119.683ZM737.128 56.8787H721.097V74.596H711.144V87.9145H721.097V127.137C721.097 140.455 730.453 147.054 742.67 146.687C745.453 146.614 748.216 146.183 750.894 145.404V132.208C749.702 132.208 746.782 132.696 744.934 132.758C740.822 132.758 737.545 131.291 737.545 124.571V87.9145H750.894V74.596H737.247L737.128 56.8787Z" fill="white"/>
</g>
<defs>
<clipPath id="clip0">
<rect width="900" height="219.939" fill="white"/>
</clipPath>
</defs>
</svg>
