<?xml version="1.0" encoding="UTF-8" standalone="no"?>
<svg width="14px" height="14px" viewBox="0 0 14 14" version="1.1" xmlns="http://www.w3.org/2000/svg" xmlns:xlink="http://www.w3.org/1999/xlink">
    <defs></defs>
    <g id="Page-1" stroke="none" stroke-width="1" fill="none" fill-rule="evenodd">
        <g id="Platform" stroke="#FFFFFF" stroke-width="0.2" fill="#FFFFFF" fill-rule="nonzero">
            <g id="Group" transform="translate(0.200000, 0.200000)">
                <path d="M6.72,9.05568 C6.68096,9.05568 6.64224,9.04448 6.60832,9.02176 L0.20512,4.75296 C0.14912,4.71552 0.11552,4.6528 0.11552,4.5856 C0.11552,4.5184 0.14912,4.45568 0.20512,4.41824 L6.60832,0.14944 C6.67584,0.10432 6.76384,0.10432 6.83136,0.14944 L13.23456,4.41824 C13.29056,4.45568 13.32416,4.5184 13.32416,4.5856 C13.32416,4.6528 13.29056,4.71552 13.23456,4.75296 L6.83136,9.02176 C6.79776,9.04416 6.75904,9.05568 6.72,9.05568 Z M0.67968,4.5856 L6.72,8.61248 L12.76032,4.5856 L6.72,0.55872 L0.67968,4.5856 Z" id="Shape"></path>
                <path d="M6.72,11.19008 C6.68096,11.19008 6.64224,11.17888 6.60832,11.15616 L0.20512,6.88736 C0.11264,6.8256 0.08768,6.7008 0.14944,6.60832 C0.21088,6.51584 0.33536,6.49056 0.42848,6.55264 L6.72,10.74688 L13.01152,6.55264 C13.104,6.49088 13.2288,6.51616 13.29056,6.60832 C13.35232,6.70048 13.32736,6.8256 13.23488,6.88736 L6.83168,11.15616 C6.79776,11.17888 6.75904,11.19008 6.72,11.19008 Z" id="Shape"></path>
                <path d="M6.72,13.32448 C6.68096,13.32448 6.64224,13.31328 6.60832,13.29056 L0.20512,9.02176 C0.11264,8.96 0.08768,8.8352 0.14944,8.74272 C0.21088,8.65024 0.33536,8.62528 0.42848,8.68704 L6.72,12.88128 L13.01152,8.68704 C13.104,8.62528 13.2288,8.65056 13.29056,8.74272 C13.35232,8.83488 13.32736,8.96 13.23488,9.02176 L6.83168,13.29056 C6.79776,13.31296 6.75904,13.32448 6.72,13.32448 Z" id="Shape"></path>
                <path d="M2.9936,4.96288 C2.928,4.96288 2.86368,4.93088 2.82496,4.872 C2.76416,4.77888 2.79008,4.6544 2.8832,4.5936 L7.04,1.8704 C7.13312,1.80928 7.25792,1.83552 7.31872,1.92832 C7.37952,2.02144 7.3536,2.14592 7.26048,2.20672 L3.104,4.92992 C3.06976,4.95232 3.03136,4.96288 2.9936,4.96288 Z" id="Shape"></path>
                <path d="M4.50048,5.98176 C4.43488,5.98176 4.37056,5.94976 4.33184,5.89088 C4.27104,5.79776 4.29696,5.67328 4.39008,5.61248 L8.54656,2.88928 C8.63936,2.82816 8.76416,2.8544 8.82528,2.9472 C8.88608,3.04032 8.86016,3.1648 8.76704,3.2256 L4.61056,5.9488 C4.57632,5.9712 4.53824,5.98176 4.50048,5.98176 Z" id="Shape"></path>
                <path d="M6.00704,7.00096 C5.94144,7.00096 5.87712,6.96896 5.8384,6.91008 C5.7776,6.81696 5.80352,6.69248 5.89664,6.63168 L10.05312,3.90848 C10.14656,3.84736 10.27072,3.8736 10.33184,3.9664 C10.39264,4.05952 10.36672,4.184 10.2736,4.2448 L6.11712,6.968 C6.0832,6.9904 6.0448,7.00096 6.00704,7.00096 Z" id="Shape"></path>
            </g>
        </g>
    </g>
</svg>
