<svg xmlns="http://www.w3.org/2000/svg" width="54" height="38" viewBox="0 0 54 38" fill="none">
  <path d="M22.4174 4.09929C24.1601 2.29719 26.5761 1.1684 29.2495 1.1684C32.8141 1.1684 35.9034 3.14873 37.5669 6.09943C39.0126 5.46572 40.5968 5.10926 42.2603 5.10926C48.6766 5.10926 53.8849 10.3571 53.8849 16.8328C53.8849 23.3085 48.6766 28.5564 42.2603 28.5564C41.4682 28.5564 40.7157 28.4772 39.9631 28.3188C38.5175 30.913 35.7252 32.6755 32.5567 32.6755C31.2299 32.6755 29.9624 32.3587 28.8337 31.824C27.3484 35.2895 23.9224 37.7254 19.9222 37.7254C15.7437 37.7254 12.1988 35.0915 10.8324 31.3883C10.2383 31.5071 9.62442 31.5863 8.99071 31.5863C4.02008 31.5863 0 27.5068 0 22.4966C0 19.13 1.8021 16.1991 4.49535 14.6149C3.94086 13.3474 3.64381 11.9414 3.64381 10.4562C3.64381 4.67358 8.3372 0 14.1198 0C17.4863 0 20.4964 1.60407 22.4174 4.09929Z" fill="#0D9DDA"/>
  <path d="M7.78315 19.566C7.74354 19.6453 7.80295 19.6651 7.80295 19.6849C7.90197 19.7641 8.00098 19.8037 8.1198 19.8631C8.6743 20.1601 9.18919 20.2394 9.72388 20.2394C10.8329 20.2394 11.526 19.6453 11.526 18.7145V18.6947C11.526 17.8234 10.7536 17.5065 10.0209 17.2689L9.92191 17.2293C9.36742 17.051 8.89213 16.8926 8.89213 16.5361V16.5163C8.89213 16.1995 9.16938 15.9816 9.60506 15.9816C10.0803 15.9816 10.6546 16.1401 11.0111 16.3381C11.0111 16.3381 11.1101 16.3975 11.1497 16.2985C11.1695 16.2391 11.3477 15.744 11.3676 15.6846C11.3874 15.6252 11.3477 15.5856 11.3081 15.5658C10.8923 15.3083 10.318 15.1499 9.72388 15.1499H9.60506C8.59509 15.1499 7.88216 15.7638 7.88216 16.6352V16.655C7.88216 17.5857 8.65449 17.8828 9.38722 18.0808L9.50604 18.1204C10.0407 18.2788 10.4962 18.4175 10.4962 18.7937V18.8135C10.4962 19.1502 10.1992 19.4076 9.72388 19.4076C9.54565 19.4076 8.95154 19.4076 8.29803 18.9917C8.21882 18.9521 8.17921 18.9125 8.1198 18.8729C8.0802 18.8531 8.00098 18.8135 7.98118 18.9323L7.78315 19.566Z" fill="white"/>
  <path d="M23.9824 19.566C23.9428 19.6453 24.0022 19.6651 24.0022 19.6849C24.1012 19.7641 24.2002 19.8037 24.319 19.8631C24.8735 20.1601 25.3884 20.2394 25.9231 20.2394C27.0321 20.2394 27.7252 19.6453 27.7252 18.7145V18.6947C27.7252 17.8234 26.9529 17.5065 26.2201 17.2689L26.1211 17.2293C25.5666 17.051 25.0913 16.8926 25.0913 16.5361V16.5163C25.0913 16.1995 25.3686 15.9816 25.8043 15.9816C26.2795 15.9816 26.8538 16.1401 27.2103 16.3381C27.2103 16.3381 27.3093 16.3975 27.3489 16.2985C27.3687 16.2391 27.547 15.744 27.5668 15.6846C27.5866 15.6252 27.547 15.5856 27.5074 15.5658C27.0915 15.3083 26.5172 15.1499 25.9231 15.1499H25.8043C24.7943 15.1499 24.0814 15.7638 24.0814 16.6352V16.655C24.0814 17.5857 24.8537 17.8828 25.5864 18.0808L25.7053 18.1204C26.2399 18.2788 26.6954 18.4175 26.6954 18.7937V18.8135C26.6954 19.1502 26.3984 19.4076 25.9231 19.4076C25.7449 19.4076 25.1508 19.4076 24.4972 18.9917C24.418 18.9521 24.3784 18.9125 24.319 18.8729C24.2992 18.8531 24.2002 18.8333 24.1804 18.9323L23.9824 19.566Z" fill="white"/>
  <path d="M35.9429 16.7143C35.8439 16.4173 35.7053 16.14 35.5271 15.9222C35.329 15.7043 35.0914 15.5063 34.8142 15.3875C34.5369 15.2489 34.2002 15.1895 33.824 15.1895C33.4477 15.1895 33.1111 15.2489 32.8338 15.3875C32.5566 15.5261 32.3189 15.7043 32.1209 15.9222C31.9427 16.14 31.7842 16.4173 31.705 16.7143C31.606 17.0114 31.5664 17.348 31.5664 17.7045C31.5664 18.0609 31.606 18.3976 31.705 18.6946C31.804 18.9917 31.9427 19.2689 32.1209 19.4868C32.3189 19.7046 32.5566 19.9026 32.8338 20.0215C33.1111 20.1403 33.4477 20.2195 33.824 20.2195C34.2002 20.2195 34.5369 20.1601 34.8142 20.0215C35.0914 19.9026 35.329 19.7046 35.5271 19.4868C35.7053 19.2689 35.8637 18.9917 35.9429 18.6946C36.042 18.3976 36.0816 18.0609 36.0816 17.7045C36.0816 17.348 36.042 17.0114 35.9429 16.7143ZM35.032 17.7045C35.032 18.2392 34.933 18.655 34.7349 18.9521C34.5369 19.2491 34.2399 19.3878 33.8438 19.3878C33.4279 19.3878 33.1507 19.2491 32.9526 18.9521C32.7546 18.655 32.6556 18.2392 32.6556 17.7045C32.6556 17.1698 32.7546 16.7539 32.9526 16.4569C33.1507 16.1598 33.4279 16.0212 33.8438 16.0212C34.2597 16.0212 34.5567 16.1598 34.7349 16.4569C34.933 16.7539 35.032 17.1698 35.032 17.7045Z" fill="white"/>
  <path fill-rule="evenodd" clip-rule="evenodd" d="M43.528 19.2497C43.4884 19.1506 43.4092 19.1902 43.4092 19.1902C43.2706 19.2497 43.132 19.2893 42.9735 19.3091C42.8151 19.3289 42.6567 19.3487 42.4587 19.3487C42.0032 19.3487 41.6665 19.21 41.4091 18.9526C41.1516 18.6952 41.013 18.2595 41.013 17.6852C41.013 17.1703 41.1318 16.7742 41.3695 16.4772C41.5873 16.1801 41.9438 16.0217 42.3992 16.0217C42.7755 16.0217 43.0726 16.0613 43.3696 16.1603C43.3696 16.1603 43.4488 16.1999 43.4686 16.1009C43.5478 15.8831 43.6072 15.7247 43.6865 15.4672C43.7063 15.388 43.6469 15.3682 43.627 15.3682C43.5082 15.3286 43.231 15.2494 43.0131 15.2098C42.8151 15.1702 42.5775 15.1702 42.32 15.1702C41.924 15.1702 41.5873 15.2296 41.2903 15.3682C40.9932 15.5068 40.7358 15.685 40.5377 15.9029C40.3397 16.1207 40.1813 16.398 40.0823 16.695C39.9832 16.9921 39.9238 17.3287 39.9238 17.6852C39.9238 18.4575 40.1219 19.0714 40.5377 19.5269C40.9536 19.9824 41.5675 20.22 42.3596 20.22C42.8349 20.22 43.3102 20.121 43.6667 19.9824C43.6667 19.9824 43.7261 19.9428 43.7063 19.8636L43.528 19.2497Z" fill="white"/>
  <path fill-rule="evenodd" clip-rule="evenodd" d="M48.243 16.5366C48.1637 16.2395 47.9657 15.9425 47.8469 15.8039C47.6489 15.586 47.4508 15.4276 47.2528 15.3484C46.9953 15.2296 46.6983 15.1702 46.3616 15.1702C45.9656 15.1702 45.6091 15.2296 45.3319 15.3682C45.0348 15.5068 44.7972 15.6851 44.6189 15.9227C44.4209 16.1603 44.2823 16.4178 44.2031 16.7346C44.1041 17.0515 44.0645 17.3683 44.0645 17.7248C44.0645 18.0813 44.1041 18.4179 44.2031 18.715C44.3021 19.012 44.4407 19.2893 44.6586 19.5071C44.8566 19.7249 45.1338 19.9032 45.4507 20.022C45.7675 20.1408 46.1438 20.2002 46.5795 20.2002C47.4904 20.2002 47.9657 20.0022 48.1439 19.8834C48.1835 19.8636 48.2033 19.8239 48.1637 19.7249L47.9657 19.1506C47.9261 19.0714 47.8469 19.0912 47.8469 19.0912C47.6291 19.1704 47.3122 19.3289 46.5597 19.3289C46.0844 19.3289 45.7081 19.1902 45.4903 18.9526C45.2526 18.715 45.1536 18.3783 45.1338 17.9228H48.2628C48.2628 17.9228 48.342 17.9228 48.3618 17.8436C48.342 17.8436 48.441 17.2495 48.243 16.5366ZM45.1338 17.1901C45.1734 16.8931 45.2526 16.6554 45.3913 16.4574C45.5893 16.1603 45.8666 16.0019 46.2824 16.0019C46.6983 16.0019 46.9557 16.1603 47.1538 16.4574C47.2924 16.6554 47.332 16.9129 47.3518 17.1901H45.1338Z" fill="white"/>
  <path fill-rule="evenodd" clip-rule="evenodd" d="M23.2312 16.5357C23.152 16.2387 22.954 15.9416 22.8352 15.803C22.6371 15.5852 22.4391 15.4268 22.2411 15.3475C21.9836 15.2287 21.6866 15.1693 21.3499 15.1693C20.9539 15.1693 20.5974 15.2287 20.3202 15.3673C20.0231 15.506 19.7855 15.6842 19.6072 15.9218C19.4092 16.1595 19.2706 16.4169 19.1914 16.7338C19.0923 17.0506 19.0527 17.3675 19.0527 17.7239C19.0527 18.0804 19.0923 18.4171 19.1914 18.7141C19.2904 19.0112 19.429 19.2884 19.6468 19.5062C19.8449 19.7241 20.1221 19.9023 20.439 20.0211C20.7558 20.1399 21.1321 20.1994 21.5678 20.1994C22.4787 20.1994 22.954 20.0013 23.1322 19.8825C23.1718 19.8627 23.1916 19.8231 23.152 19.7241L22.954 19.1498C22.9144 19.0706 22.8352 19.0904 22.8352 19.0904C22.6173 19.1696 22.3005 19.328 21.548 19.328C21.0727 19.328 20.6964 19.1894 20.4786 18.9517C20.2409 18.7141 20.1419 18.3775 20.1221 17.922H23.251C23.251 17.922 23.3303 17.922 23.3501 17.8428C23.3303 17.8428 23.4293 17.2487 23.2312 16.5357ZM20.1221 17.1892C20.1617 16.8922 20.2409 16.6546 20.3796 16.4565C20.5776 16.1595 20.8548 16.001 21.2707 16.001C21.6866 16.001 21.944 16.1595 22.1421 16.4565C22.2609 16.6546 22.3203 16.912 22.3401 17.1892H20.1221Z" fill="white"/>
  <path d="M14.6149 17.0314C14.4961 17.0314 14.3179 17.0116 14.1198 17.0116C13.8426 17.0116 13.5851 17.0512 13.3475 17.1106C13.1099 17.17 12.892 17.269 12.694 17.4076C12.4959 17.5463 12.3573 17.7245 12.2385 17.9225C12.1197 18.1206 12.0801 18.378 12.0801 18.6354C12.0801 18.9127 12.1197 19.1503 12.2187 19.3484C12.3177 19.5464 12.4563 19.7048 12.6346 19.8434C12.8128 19.9623 13.0306 20.0613 13.2683 20.1207C13.5059 20.1801 13.7832 20.1999 14.1 20.1999C14.4169 20.1999 14.7337 20.1801 15.0506 20.1207C15.3476 20.0613 15.7239 20.0019 15.8427 19.9623C15.9417 19.9425 16.0605 19.9029 16.0605 19.9029C16.1398 19.8831 16.1398 19.8038 16.1398 19.8038V16.9522C16.1398 16.3185 15.9813 15.863 15.6447 15.5659C15.308 15.2887 14.8327 15.1302 14.2188 15.1302C13.9812 15.1302 13.6049 15.1699 13.3871 15.2095C13.3871 15.2095 12.7138 15.3481 12.4167 15.5659C12.4167 15.5659 12.3573 15.6055 12.3969 15.6847L12.6148 16.2788C12.6346 16.3581 12.7138 16.3383 12.7138 16.3383C12.7138 16.3383 12.7336 16.3383 12.7732 16.3184C13.3673 16.0016 14.1396 16.0016 14.1396 16.0016C14.4763 16.0016 14.7337 16.061 14.912 16.1996C15.0902 16.3383 15.1694 16.5363 15.1694 16.9522V17.0908C14.8525 17.071 14.6149 17.0314 14.6149 17.0314ZM13.3673 19.2295C13.2485 19.1305 13.2287 19.1107 13.1891 19.0513C13.1297 18.9523 13.09 18.8137 13.09 18.6354C13.09 18.3582 13.1891 18.1602 13.3673 18.0215C13.3673 18.0215 13.6445 17.7839 14.2782 17.8037C14.7337 17.8037 15.1298 17.8829 15.1298 17.8829V19.3088C15.1298 19.3088 14.7337 19.388 14.2782 19.4276C13.6445 19.4474 13.3673 19.2295 13.3673 19.2295Z" fill="white"/>
  <path fill-rule="evenodd" clip-rule="evenodd" d="M39.8054 15.4273C39.8252 15.3481 39.7855 15.3283 39.7657 15.3085C39.7063 15.2887 39.4489 15.2293 39.2509 15.2293C38.8548 15.2095 38.637 15.2689 38.4389 15.3679C38.2409 15.4471 38.023 15.6055 37.9042 15.764V15.3877C37.9042 15.3283 37.8646 15.2887 37.8052 15.2887H37.0131C36.9537 15.2887 36.9141 15.3283 36.9141 15.3877V20.0415C36.9141 20.1009 36.9537 20.1405 37.0131 20.1405H37.825C37.8844 20.1405 37.924 20.1009 37.924 20.0415V17.7047C37.924 17.3878 37.9636 17.071 38.0231 16.8927C38.0825 16.6947 38.1815 16.5363 38.3003 16.4373C38.4191 16.3184 38.5379 16.2392 38.6766 16.1996C38.8152 16.16 38.9736 16.1402 39.0924 16.1402C39.2509 16.1402 39.4291 16.1798 39.4291 16.1798C39.4885 16.1798 39.5281 16.1402 39.5479 16.1006C39.6271 15.9422 39.7855 15.5065 39.8054 15.4273Z" fill="white"/>
  <path fill-rule="evenodd" clip-rule="evenodd" d="M32.1016 13.2686C32.0026 13.229 31.9035 13.2092 31.7847 13.1894C31.6659 13.1696 31.5273 13.1498 31.3689 13.1498C30.7946 13.1498 30.3589 13.3082 30.042 13.6251C29.7252 13.9419 29.5271 14.4172 29.4083 15.0509L29.3687 15.2687H28.6558C28.6558 15.2687 28.5766 15.2687 28.5568 15.3678L28.438 16.0213C28.438 16.0807 28.4578 16.1203 28.537 16.1203H29.2301L28.537 20.0215C28.4776 20.3384 28.4182 20.5958 28.3587 20.7939C28.2993 20.9919 28.2201 21.1305 28.1409 21.2295C28.0617 21.3286 27.9825 21.4078 27.8637 21.4474C27.7646 21.487 27.626 21.5068 27.4874 21.5068C27.4082 21.5068 27.3092 21.487 27.23 21.487C27.1507 21.4672 27.1111 21.4474 27.0517 21.4276C27.0517 21.4276 26.9725 21.388 26.9329 21.487C26.9131 21.5464 26.7151 22.0613 26.6953 22.1207C26.6755 22.1801 26.6953 22.2395 26.7349 22.2395C26.8339 22.2791 26.8933 22.2989 27.0121 22.3187C27.1904 22.3583 27.329 22.3583 27.4676 22.3583C27.7646 22.3583 28.0221 22.3187 28.2399 22.2395C28.4578 22.1603 28.6558 22.0217 28.8142 21.8434C28.9925 21.6454 29.1113 21.4276 29.2103 21.1503C29.3093 20.8731 29.4083 20.5166 29.4875 20.1008L30.2005 16.1203H31.2302C31.2302 16.1203 31.3094 16.1203 31.3292 16.0213L31.4481 15.3678C31.4481 15.3083 31.4283 15.2687 31.3491 15.2687H30.3589C30.3589 15.2489 30.4183 14.8925 30.5173 14.5558C30.5569 14.4172 30.6559 14.2984 30.7351 14.2192C30.8144 14.1399 30.8936 14.0805 30.9926 14.0607C31.0916 14.0211 31.2104 14.0211 31.3292 14.0211C31.4283 14.0211 31.5075 14.0409 31.5867 14.0409C31.6857 14.0607 31.7253 14.0805 31.7451 14.0805C31.8441 14.1201 31.8639 14.0805 31.8837 14.0409L32.1214 13.3874C32.1808 13.3082 32.1214 13.2884 32.1016 13.2686Z" fill="white"/>
  <path fill-rule="evenodd" clip-rule="evenodd" d="M18.1411 20.0215C18.1411 20.0809 18.1015 20.1205 18.0421 20.1205H17.2103C17.1509 20.1205 17.1113 20.0809 17.1113 20.0215V13.3676C17.1113 13.3082 17.1509 13.2686 17.2103 13.2686H18.0421C18.1015 13.2686 18.1411 13.3082 18.1411 13.3676V20.0215Z" fill="white"/>
</svg>