<svg xmlns="http://www.w3.org/2000/svg" width="91" height="14" viewBox="0 0 91 14" fill="none">
  <g clip-path="url(#clip0_1530_10085)">
    <path fill-rule="evenodd" clip-rule="evenodd" d="M21.9653 4.38417C21.061 4.38206 20.1846 4.69766 19.4892 5.27586V4.47471H17.2305V13.2729H19.5797V7.64844C19.8322 7.32017 20.1546 7.05214 20.5234 6.86376C20.8922 6.67538 21.2983 6.57135 21.7122 6.5592C22.0327 6.54274 22.3532 6.59079 22.6547 6.7005V4.44453C22.4271 4.4046 22.1964 4.3844 21.9653 4.38417Z" fill="black"/>
    <path fill-rule="evenodd" clip-rule="evenodd" d="M1.48237 10.5875C2.15318 11.1547 3.00464 11.4634 3.88307 11.4579C4.51549 11.4579 5.00317 11.1493 5.00317 10.7144C5.00317 9.38988 0.756671 9.86179 0.756671 7.03171C0.756671 5.34504 2.38298 4.29285 4.11766 4.29285C5.17105 4.29574 6.20076 4.60561 7.08081 5.18454L5.98198 6.88629C5.49697 6.51825 4.90995 6.30932 4.30148 6.28818C3.65123 6.28818 3.10868 6.54196 3.10868 6.99535C3.10868 8.13809 7.35586 7.6847 7.35586 10.7322C7.35586 12.4196 5.70967 13.4532 3.86798 13.4532C2.59897 13.4409 1.366 13.0296 0.34375 12.2776L1.48237 10.5875Z" fill="black"/>
    <path fill-rule="evenodd" clip-rule="evenodd" d="M16.2261 8.79108C16.2261 6.34236 14.5113 4.29285 12.0873 4.29285C9.48496 4.29285 7.8223 6.4329 7.8223 8.88231C7.79648 9.49128 7.89777 10.0989 8.1197 10.6666C8.34163 11.2343 8.67934 11.7495 9.11133 12.1795C9.54332 12.6095 10.0601 12.9448 10.6288 13.1641C11.1975 13.3834 11.8057 13.4819 12.4145 13.4532C13.0918 13.4622 13.7632 13.326 14.3835 13.0539C15.0038 12.7818 15.5586 12.38 16.0108 11.8756L14.6732 10.5333C14.3931 10.8424 14.0535 11.0917 13.6746 11.2662C13.2958 11.4408 12.8856 11.537 12.4687 11.5491C11.8828 11.5682 11.3117 11.3633 10.8716 10.9762C10.4315 10.5891 10.1554 10.0488 10.0995 9.46534H16.1719C16.2093 9.24256 16.2275 9.01697 16.2261 8.79108ZM10.2079 7.73957C10.2922 7.30373 10.5262 6.91106 10.8694 6.62949C11.2126 6.34792 11.6434 6.19516 12.0873 6.19763C12.515 6.19828 12.9277 6.35548 13.2474 6.63955C13.5671 6.92363 13.7717 7.31493 13.8227 7.73957H10.2079Z" fill="black"/>
    <path fill-rule="evenodd" clip-rule="evenodd" d="M28.2515 9.84383L30.6549 4.47449H33.0954L29.0649 13.2727H27.4386L23.4082 4.47449H25.848L28.2515 9.84383Z" fill="black"/>
    <path fill-rule="evenodd" clip-rule="evenodd" d="M35.0697 0.342657C35.3669 0.348062 35.6559 0.441137 35.9004 0.610201C36.1449 0.779265 36.3341 1.01679 36.4441 1.29295C36.5541 1.56912 36.5801 1.87163 36.5188 2.16252C36.4575 2.45341 36.3117 2.71972 36.0996 2.92802C35.8875 3.13633 35.6186 3.27735 35.3267 3.33338C35.0347 3.38942 34.7327 3.35798 34.4586 3.243C34.1844 3.12803 33.9504 2.93464 33.7857 2.68711C33.6211 2.43959 33.5333 2.14895 33.5332 1.85167C33.5332 1.65117 33.5731 1.45268 33.6506 1.26779C33.7282 1.08289 33.8418 0.915308 33.9848 0.774818C34.1279 0.634329 34.2975 0.523753 34.4837 0.449552C34.67 0.375351 34.8692 0.339011 35.0697 0.342657Z" fill="black"/>
    <path d="M36.2438 4.47449H33.8945V13.2727H36.2438V4.47449Z" fill="black"/>
    <path fill-rule="evenodd" clip-rule="evenodd" d="M45.9576 11.4759C45.5127 12.1119 44.9154 12.6261 44.2204 12.9716C43.5254 13.3171 42.7549 13.4827 41.9793 13.4534C41.3672 13.4689 40.7583 13.3616 40.1884 13.1378C39.6186 12.914 39.0993 12.5783 38.6614 12.1505C38.2234 11.7227 37.8757 11.2114 37.6386 10.647C37.4016 10.0825 37.2801 9.47624 37.2813 8.86401C37.2825 8.25178 37.4063 7.646 37.6456 7.08245C37.8848 6.5189 38.2346 6.00902 38.6742 5.58291C39.1138 5.1568 39.6343 4.82311 40.2051 4.60156C40.7758 4.38 41.3851 4.27508 41.9971 4.29297C42.7048 4.2877 43.4044 4.44333 44.0431 4.74813C44.6818 5.05292 45.2429 5.49889 45.6839 6.05235L44.0212 7.52158C43.7894 7.20039 43.4855 6.93794 43.1341 6.75523C42.7826 6.57252 42.3932 6.47463 41.9971 6.46938C41.6822 6.46809 41.3702 6.53 41.0796 6.65143C40.789 6.77287 40.5257 6.95136 40.3053 7.17636C40.0849 7.40135 39.9119 7.66827 39.7965 7.96132C39.6811 8.25436 39.6256 8.56758 39.6334 8.88243C39.623 9.20201 39.6788 9.5203 39.7971 9.81732C39.9155 10.1143 40.0941 10.3837 40.3215 10.6085C40.5489 10.8332 40.8203 11.0086 41.1187 11.1235C41.4171 11.2384 41.736 11.2904 42.0554 11.2763C42.4729 11.268 42.882 11.1579 43.2473 10.9557C43.6125 10.7534 43.923 10.4651 44.1516 10.1157L45.9576 11.4759Z" fill="black"/>
    <path fill-rule="evenodd" clip-rule="evenodd" d="M54.4911 11.8756C54.039 12.38 53.4842 12.7818 52.8638 13.0539C52.2435 13.326 51.5722 13.4622 50.8949 13.4532C50.2862 13.4816 49.6783 13.3829 49.1098 13.1635C48.5414 12.9441 48.0248 12.6087 47.5931 12.1787C47.1613 11.7488 46.8238 11.2336 46.602 10.6661C46.3801 10.0986 46.2789 9.4911 46.3047 8.88231C46.3047 6.4329 47.9674 4.29285 50.5697 4.29285C52.991 4.29285 54.7079 6.34236 54.7079 8.79108C54.7094 9.01607 54.6913 9.24076 54.6537 9.46259H48.5813C48.6366 10.0462 48.9123 10.5868 49.3522 10.9743C49.7921 11.3618 50.3631 11.5671 50.949 11.5485C51.3661 11.5362 51.7763 11.4399 52.1552 11.2654C52.5342 11.0908 52.8739 10.8416 53.1543 10.5326L54.4911 11.8756ZM52.3044 7.74026C52.2536 7.31567 52.0491 6.92438 51.7295 6.64029C51.4099 6.3562 50.9973 6.19898 50.5697 6.19832C50.1258 6.19571 49.6949 6.34842 49.3517 6.63001C49.0085 6.91161 48.7745 7.30435 48.6903 7.74026H52.3044Z" fill="black"/>
    <path fill-rule="evenodd" clip-rule="evenodd" d="M55.6406 13.2722V4.47395H57.8993V5.18113C58.595 4.60426 59.4711 4.2899 60.3748 4.29287C60.9538 4.29125 61.5261 4.4172 62.0509 4.66177C62.5757 4.90633 63.0402 5.26351 63.4114 5.70791C64.0871 6.58802 64.4093 7.68898 64.3147 8.79453V13.2722H61.9655V8.60796C61.9984 8.31142 61.9688 8.01126 61.8786 7.72688C61.7883 7.44249 61.6394 7.18021 61.4414 6.95696C61.0837 6.62591 60.6095 6.44984 60.1224 6.46722C59.7085 6.47943 59.3025 6.58341 58.9337 6.77166C58.5649 6.95991 58.2425 7.22773 57.9899 7.55577V13.2722H55.6406Z" fill="black"/>
    <path fill-rule="evenodd" clip-rule="evenodd" d="M70.366 4.29336C69.3353 4.29121 68.3277 4.59875 67.4738 5.17612C66.6199 5.75348 65.9591 6.57404 65.5772 7.53141C65.1952 8.48879 65.1097 9.53883 65.3316 10.5454C65.5536 11.552 66.0728 12.4687 66.8219 13.1767C66.9976 13.344 67.2274 13.4429 67.4698 13.4555C67.7121 13.468 67.9509 13.3935 68.143 13.2452C68.7768 12.7736 69.5458 12.5188 70.3359 12.5188C71.1259 12.5188 71.8949 12.7736 72.5287 13.2452C72.7227 13.3938 72.9636 13.4677 73.2074 13.4535C73.4513 13.4393 73.682 13.3378 73.8574 13.1677C74.6006 12.4624 75.1164 11.5511 75.3384 10.5508C75.5604 9.55044 75.4786 8.50658 75.1035 7.55301C74.7285 6.59943 74.0771 5.7796 73.2331 5.19861C72.389 4.61761 71.3907 4.30191 70.366 4.29199M70.3359 12.0037C69.9971 12.0129 69.66 11.9529 69.3452 11.8275C69.0303 11.7021 68.7443 11.5138 68.5047 11.2742C68.265 11.0346 68.0767 10.7487 67.9511 10.4339C67.8256 10.1191 67.7656 9.782 67.7746 9.44322C67.7746 8.76394 68.0445 8.11249 68.5248 7.63217C69.0051 7.15185 69.6566 6.88201 70.3359 6.88201C71.0151 6.88201 71.6666 7.15185 72.1469 7.63217C72.6272 8.11249 72.8971 8.76394 72.8971 9.44322C72.9061 9.782 72.8461 10.1191 72.7206 10.4339C72.5951 10.7487 72.4067 11.0346 72.1671 11.2742C71.9274 11.5138 71.6414 11.7021 71.3266 11.8275C71.0117 11.9529 70.6746 12.0129 70.3359 12.0037Z" fill="#62D84E"/>
    <path fill-rule="evenodd" clip-rule="evenodd" d="M80.1062 13.2727H78.3564L74.8672 4.47449H77.213L79.126 9.50225L81.002 4.47449H82.9624L84.8212 9.50225L86.7507 4.47449H89.0972L85.6079 13.2727H83.8582L81.9822 8.2628L80.1062 13.2727Z" fill="black"/>
    <path d="M89.1248 12.2778H88.9265V12.6503H88.7578V11.631H89.1694C89.2125 11.6308 89.2552 11.6392 89.2951 11.6556C89.3349 11.672 89.3711 11.6961 89.4016 11.7266C89.4321 11.7571 89.4562 11.7933 89.4726 11.8332C89.4891 11.873 89.4974 11.9157 89.4972 11.9589C89.4967 12.0228 89.4772 12.0851 89.4412 12.1378C89.4052 12.1906 89.3542 12.2315 89.2949 12.2552L89.5267 12.6523H89.3429L89.1248 12.2778ZM88.9265 12.1276H89.1694C89.2148 12.1276 89.2585 12.1095 89.2906 12.0774C89.3228 12.0452 89.3408 12.0016 89.3408 11.9561C89.3408 11.9106 89.3228 11.867 89.2906 11.8349C89.2585 11.8027 89.2148 11.7846 89.1694 11.7846H88.9286L88.9265 12.1276Z" fill="black"/>
    <path d="M89.1014 11.2136C89.2885 11.2135 89.4714 11.2688 89.6271 11.3727C89.7827 11.4765 89.904 11.6242 89.9757 11.797C90.0474 11.9699 90.0663 12.1601 90.0298 12.3436C89.9934 12.5271 89.9034 12.6957 89.7711 12.8281C89.6389 12.9604 89.4703 13.0506 89.2868 13.0871C89.1033 13.1237 88.9131 13.105 88.7402 13.0334C88.5674 12.9619 88.4196 12.8406 88.3156 12.6851C88.2117 12.5295 88.1562 12.3466 88.1562 12.1595C88.1565 11.9089 88.2562 11.6686 88.4334 11.4913C88.6105 11.314 88.8507 11.2142 89.1014 11.2136ZM89.1014 11.0641C88.8843 11.0641 88.6721 11.1285 88.4917 11.249C88.3112 11.3696 88.1705 11.541 88.0874 11.7416C88.0044 11.9421 87.9826 12.1628 88.025 12.3757C88.0673 12.5885 88.1719 12.7841 88.3253 12.9376C88.4788 13.0911 88.6744 13.1956 88.8873 13.2379C89.1002 13.2803 89.3208 13.2585 89.5214 13.1755C89.7219 13.0924 89.8933 12.9517 90.0139 12.7713C90.1345 12.5908 90.1988 12.3786 90.1988 12.1616C90.1988 11.8705 90.0832 11.5913 89.8774 11.3855C89.6716 11.1797 89.3924 11.0641 89.1014 11.0641Z" fill="black"/>
  </g>
  <defs>
    <clipPath id="clip0_1530_10085">
      <rect width="90.5408" height="13.7183" fill="white"/>
    </clipPath>
  </defs>
</svg>
