<svg width="165" height="29" viewBox="0 0 165 29" fill="none" xmlns="http://www.w3.org/2000/svg">
<path d="M5.008 8.744C3.632 8.744 2.752 9.4 2.208 10.152L2.032 8.84H0.896V20.2H2.208V15.752C2.704 16.536 3.632 17.096 5.008 17.096C7.264 17.096 8.928 15.416 8.928 12.92C8.928 10.264 7.264 8.744 5.008 8.744ZM4.88 15.928C3.28 15.928 2.192 14.68 2.192 12.888C2.192 11.144 3.28 9.912 4.88 9.912C6.496 9.912 7.584 11.144 7.584 12.92C7.584 14.696 6.496 15.928 4.88 15.928ZM14.3872 17.096C16.7713 17.096 18.4353 15.4 18.4353 12.92C18.4353 10.44 16.7713 8.744 14.3872 8.744C12.0032 8.744 10.3392 10.44 10.3392 12.92C10.3392 15.4 12.0032 17.096 14.3872 17.096ZM14.3872 15.928C12.7713 15.928 11.6832 14.664 11.6832 12.92C11.6832 11.176 12.7713 9.912 14.3872 9.912C16.0033 9.912 17.0912 11.176 17.0912 12.92C17.0912 14.664 16.0033 15.928 14.3872 15.928ZM21.7461 17H23.1861L25.2341 10.936L27.2021 17H28.6421L31.3621 8.84H30.0341L27.9061 15.48L25.8741 8.84H24.6581L22.5141 15.48L20.4821 8.84H19.1061L21.7461 17ZM36.0841 17.096C37.9721 17.096 39.3161 15.896 39.6361 14.264H38.3081C38.0361 15.32 37.1401 15.928 35.9881 15.928C34.4361 15.928 33.4601 14.84 33.4121 13.288V13.176H39.7481C39.7641 12.984 39.7801 12.792 39.7801 12.616C39.7161 10.2 38.2121 8.744 35.9081 8.744C33.6041 8.744 32.0361 10.44 32.0361 12.92C32.0361 15.416 33.6361 17.096 36.0841 17.096ZM33.4921 12.088C33.6201 10.76 34.7241 9.896 35.9241 9.896C37.2841 9.896 38.2441 10.68 38.3721 12.088H33.4921ZM45.2532 8.84C43.7972 8.84 43.1732 9.448 42.7892 10.072L42.6132 8.84H41.4772V17H42.7892V12.84C42.7892 11.544 43.2532 10.12 44.9652 10.12H45.6212V8.84H45.2532ZM50.2498 17.096C52.1378 17.096 53.4818 15.896 53.8018 14.264H52.4738C52.2018 15.32 51.3058 15.928 50.1538 15.928C48.6018 15.928 47.6258 14.84 47.5778 13.288V13.176H53.9138C53.9298 12.984 53.9458 12.792 53.9458 12.616C53.8818 10.2 52.3778 8.744 50.0738 8.744C47.7698 8.744 46.2018 10.44 46.2018 12.92C46.2018 15.416 47.8018 17.096 50.2498 17.096ZM47.6578 12.088C47.7858 10.76 48.8898 9.896 50.0898 9.896C51.4498 9.896 52.4098 10.68 52.5378 12.088H47.6578ZM62.0749 10.088C61.5789 9.304 60.6509 8.744 59.2749 8.744C57.0189 8.744 55.3549 10.424 55.3549 12.92C55.3549 15.576 57.0189 17.096 59.2749 17.096C60.6509 17.096 61.5309 16.44 62.0749 15.688L62.2509 17H63.3869V5.8H62.0749V10.088ZM59.4029 15.928C57.7869 15.928 56.6989 14.696 56.6989 12.92C56.6989 11.144 57.7869 9.912 59.4029 9.912C61.0029 9.912 62.0909 11.16 62.0909 12.952C62.0909 14.696 61.0029 15.928 59.4029 15.928ZM73.8736 8.744C72.4976 8.744 71.6176 9.4 71.0736 10.152V5.8H69.7616V17H70.8976L71.0736 15.752C71.5696 16.536 72.4976 17.096 73.8736 17.096C76.1296 17.096 77.7936 15.416 77.7936 12.92C77.7936 10.264 76.1296 8.744 73.8736 8.744ZM73.7456 15.928C72.1456 15.928 71.0576 14.68 71.0576 12.888C71.0576 11.144 72.1456 9.912 73.7456 9.912C75.3616 9.912 76.4496 11.144 76.4496 12.92C76.4496 14.696 75.3616 15.928 73.7456 15.928ZM81.5015 17.048L81.1015 18.04C80.7975 18.808 80.6695 19 79.9175 19H78.7495V20.2H80.3175C81.4695 20.2 81.7735 19.688 82.2855 18.376L86.0455 8.84H84.6535L82.2215 15.352L79.7095 8.84H78.3175L81.5015 17.048Z" fill="#191919"/>
<path d="M110.897 0.5H104.225L106.3 6.92963H112.971L107.579 10.7667L109.653 17.2309C113.109 14.7074 114.25 10.8704 112.971 6.92963L110.897 0.5ZM95.5144 6.92963H102.186L104.26 0.5H97.5539L95.5144 6.92963C94.2354 10.8704 95.3415 14.7074 98.8329 17.2309L100.907 10.7667L95.5144 6.92963ZM98.8329 17.2309L104.225 21.0333L109.618 17.2309L104.225 13.3247L98.8329 17.2309ZM149.198 6.79136C147.608 6.79136 146.606 7.51728 146.122 8.65802H146.018V3.36914H143.667V17.1963H146.087V11.1815C146.087 9.69506 147.021 8.83086 148.3 8.83086C149.579 8.83086 150.305 9.66049 150.305 11.0432V17.1963H152.724V10.6284C152.724 8.17407 151.342 6.79136 149.198 6.79136ZM159.292 3.33457C156.008 3.33457 154.038 5.89259 154.038 10.3519C154.038 14.8111 155.974 17.4383 159.292 17.4383C162.576 17.4383 164.546 14.8457 164.546 10.3519C164.546 5.85802 162.576 3.33457 159.292 3.33457ZM156.527 10.3519C156.527 7.10247 157.598 5.40864 159.292 5.40864C160.467 5.40864 161.297 6.2037 161.746 7.72469L156.596 11.458C156.527 11.1469 156.527 10.7667 156.527 10.3519ZM159.292 15.3296C158.117 15.3296 157.218 14.5 156.803 12.8407L161.988 9.07284C162.023 9.48765 162.058 9.93704 162.058 10.3519C162.058 13.6358 160.986 15.3296 159.292 15.3296ZM132.744 12.8753C132.744 14.4309 131.638 15.1914 130.566 15.1914C129.495 15.1914 128.63 14.3617 128.63 13.0827V6.89506H126.211V13.4284C126.211 15.9173 127.628 17.3 129.633 17.3C131.154 17.3 132.26 16.4704 132.709 15.3296H132.813V17.1617H135.164V6.89506H132.744V12.8753ZM120.714 6.75679C118.537 6.75679 116.912 7.72469 116.359 9.59136L118.606 9.90247C118.848 9.17654 119.539 8.58889 120.714 8.58889C121.89 8.58889 122.443 9.14197 122.443 10.179V10.2136C122.443 10.9049 121.717 10.9395 119.919 11.1469C118.122 11.3543 116.013 11.9765 116.013 14.2926C116.013 16.2975 117.5 17.3691 119.47 17.3691C121.06 17.3691 122.028 16.6086 122.477 15.7444H122.546V17.1617H124.863V10.2827C124.897 7.58642 122.685 6.75679 120.714 6.75679ZM122.477 13.4975C122.477 14.6383 121.544 15.6062 120.092 15.6062C119.09 15.6062 118.364 15.1568 118.364 14.258C118.364 13.3593 119.193 12.9444 120.265 12.7716C120.887 12.6679 122.166 12.5296 122.477 12.2531V13.4975ZM140.349 4.33704H137.929V6.92963H136.443V8.83086H137.929V14.5346C137.929 16.4704 139.312 17.4037 141.144 17.3691C141.559 17.3691 141.974 17.3 142.388 17.1963V15.2951C142.216 15.3296 141.766 15.3642 141.455 15.3988C140.833 15.3988 140.349 15.1914 140.349 14.2235V8.83086H142.354V6.92963H140.349V4.33704Z" fill="#191919"/>
<path d="M143.357 27.3587C144.117 27.3587 144.636 26.7364 144.636 25.6994C144.636 24.6624 144.083 24.0401 143.357 24.0401C142.804 24.0401 142.493 24.3513 142.354 24.5932V24.0056V22.8303H141.767V27.2895H142.354V26.771C142.493 27.0475 142.804 27.3587 143.357 27.3587ZM143.184 26.8401C142.665 26.8401 142.32 26.4599 142.32 25.6648C142.32 24.9043 142.7 24.5241 143.184 24.5241C143.668 24.5241 144.048 24.8006 144.048 25.6648C144.048 26.529 143.668 26.8401 143.184 26.8401ZM147.401 24.1093L146.848 25.734C146.71 26.1488 146.675 26.2871 146.606 26.4599C146.537 26.3216 146.502 26.1834 146.295 25.6648L145.638 24.0747H144.981L146.364 27.1858L146.191 27.6352C146.088 27.8772 145.984 27.9117 145.742 27.9117H145.12V28.4994H145.776C146.33 28.4994 146.572 28.292 146.779 27.7043L148.023 24.1093H147.401ZM152.275 27.3587C153.554 27.3587 154.488 26.4253 154.488 25.0426C154.488 23.6599 153.554 22.7266 152.275 22.7266C150.996 22.7266 150.028 23.6599 150.028 25.0426C150.028 26.4253 150.996 27.3587 152.275 27.3587ZM152.275 26.771C151.307 26.771 150.72 26.0105 150.72 25.0426C150.72 24.0401 151.307 23.3142 152.275 23.3142C153.243 23.3142 153.831 24.0747 153.831 25.0426C153.831 26.0105 153.243 26.771 152.275 26.771ZM157.668 27.255H158.428L156.907 25.3883L158.325 24.0747H157.564L155.939 25.6648V24.6278V22.7957H155.352V27.255H155.939V26.3216L156.527 25.7685L157.668 27.255ZM160.088 27.255H160.848V26.7364H160.191C159.984 26.7364 159.88 26.6327 159.88 26.4253V24.5932H160.744V24.1093H159.88V23.1068H159.293V24.1093H158.567V24.5932H159.293V26.4945C159.293 27.013 159.569 27.255 160.088 27.255ZM162.369 27.3587C162.888 27.3587 163.164 27.1513 163.406 26.8056C163.441 27.0821 163.544 27.2895 163.994 27.2895H164.443V26.771H164.132C163.994 26.771 163.959 26.7364 163.959 26.5982V25.1463C163.959 24.455 163.544 24.0401 162.68 24.0401C161.851 24.0401 161.401 24.4895 161.297 24.9389L161.885 25.1117C161.954 24.8698 162.162 24.5587 162.715 24.5587C163.164 24.5587 163.372 24.7661 163.372 25.1463V25.25C162.335 25.3192 161.367 25.6303 161.367 26.4945C161.332 27.013 161.747 27.3587 162.369 27.3587ZM162.507 26.8401C162.127 26.8401 161.954 26.6673 161.954 26.3908C161.954 25.8722 162.576 25.6994 163.337 25.6303V25.9414C163.337 26.5982 162.922 26.8401 162.507 26.8401Z" fill="#191919"/>
</svg>
