<svg xmlns="http://www.w3.org/2000/svg" width="73" height="19" viewBox="0 0 73 19" fill="none">
  <g clip-path="url(#clip0_1530_10025)">
    <path d="M23.3418 14.7779L24.2491 12.6391C25.2296 13.3818 26.5321 13.7679 27.8199 13.7679C28.7711 13.7679 29.3711 13.3966 29.3711 12.8322C29.3565 11.2579 23.6784 12.4906 23.6345 8.53985C23.6198 6.53476 25.376 4.9901 27.8638 4.9901C29.3418 4.9901 30.8199 5.36141 31.8736 6.208L31.0248 8.39132C30.0589 7.76752 28.8589 7.32194 27.7174 7.32194C26.9418 7.32194 26.4296 7.69325 26.4296 8.16853C26.4443 9.71319 32.1662 8.8666 32.2248 12.6391C32.2248 14.6888 30.5126 16.1295 28.054 16.1295C26.254 16.1295 24.6003 15.6988 23.3418 14.7779ZM58.1567 11.8668C57.703 12.6688 56.8542 13.2184 55.8737 13.2184C54.4249 13.2184 53.2542 12.0302 53.2542 10.5598C53.2542 9.08939 54.4249 7.90119 55.8737 7.90119C56.8542 7.90119 57.703 8.45073 58.1567 9.25277L60.6591 7.84178C59.7225 6.14859 57.9225 4.9901 55.8737 4.9901C52.8444 4.9901 50.3859 7.48532 50.3859 10.5598C50.3859 13.6343 52.8444 16.1295 55.8737 16.1295C57.9371 16.1295 59.7225 14.9858 60.6591 13.2778L58.1567 11.8668ZM33.4833 0.370972H36.6151V15.9215H33.4833V0.370972ZM61.8884 0.370972V15.9215H65.0201V11.2579L68.7372 15.9215H72.747L68.0201 10.3816L72.3958 5.21289H68.5616L65.0201 9.50526V0.370972H61.8884ZM45.9224 11.8965C45.4688 12.654 44.5322 13.2184 43.4785 13.2184C42.0297 13.2184 40.859 12.0302 40.859 10.5598C40.859 9.08939 42.0297 7.90119 43.4785 7.90119C44.5322 7.90119 45.4688 8.49529 45.9224 9.26762V11.8965ZM45.9224 5.21289V6.47535C45.4102 5.59905 44.1371 4.9901 42.8053 4.9901C40.0541 4.9901 37.8882 7.45561 37.8882 10.5449C37.8882 13.6343 40.0541 16.1295 42.8053 16.1295C44.1371 16.1295 45.4102 15.5205 45.9224 14.6442V15.9067H49.0542V5.21289H45.9224Z" fill="black"/>
    <path d="M3.98258 11.8817C3.98258 12.9659 3.11916 13.8422 2.05086 13.8422C0.982561 13.8422 0.119141 12.9659 0.119141 11.8817C0.119141 10.7974 0.982561 9.92114 2.05086 9.92114H3.98258V11.8817ZM4.94844 11.8817C4.94844 10.7974 5.81186 9.92114 6.88016 9.92114C7.94846 9.92114 8.81188 10.7974 8.81188 11.8817V16.783C8.81188 17.8672 7.94846 18.7435 6.88016 18.7435C5.81186 18.7435 4.94844 17.8672 4.94844 16.783V11.8817Z" fill="#E01E5A"/>
    <path d="M6.87917 4.00981C5.81087 4.00981 4.94745 3.13351 4.94745 2.04928C4.94745 0.965043 5.81087 0.0887451 6.87917 0.0887451C7.94747 0.0887451 8.81089 0.965043 8.81089 2.04928V4.00981H6.87917ZM6.87917 5.00492C7.94747 5.00492 8.81089 5.88122 8.81089 6.96545C8.81089 8.04969 7.94747 8.92598 6.87917 8.92598H2.03524C0.966936 8.92598 0.103516 8.04969 0.103516 6.96545C0.103516 5.88122 0.966936 5.00492 2.03524 5.00492H6.87917Z" fill="#36C5F0"/>
    <path d="M14.6203 6.96545C14.6203 5.88122 15.4837 5.00492 16.552 5.00492C17.6203 5.00492 18.4838 5.88122 18.4838 6.96545C18.4838 8.04969 17.6203 8.92598 16.552 8.92598H14.6203V6.96545ZM13.6545 6.96545C13.6545 8.04969 12.791 8.92598 11.7227 8.92598C10.6544 8.92598 9.79102 8.04969 9.79102 6.96545V2.04928C9.79102 0.965043 10.6544 0.0887451 11.7227 0.0887451C12.791 0.0887451 13.6545 0.965043 13.6545 2.04928V6.96545Z" fill="#2EB67D"/>
    <path d="M11.7227 14.8225C12.791 14.8225 13.6545 15.6988 13.6545 16.783C13.6545 17.8672 12.791 18.7435 11.7227 18.7435C10.6544 18.7435 9.79102 17.8672 9.79102 16.783V14.8225H11.7227ZM11.7227 13.8422C10.6544 13.8422 9.79102 12.9659 9.79102 11.8817C9.79102 10.7974 10.6544 9.92114 11.7227 9.92114H16.5667C17.635 9.92114 18.4984 10.7974 18.4984 11.8817C18.4984 12.9659 17.635 13.8422 16.5667 13.8422H11.7227Z" fill="#ECB22E"/>
  </g>
  <defs>
    <clipPath id="clip0_1530_10025">
      <rect width="72.8785" height="18.8627" fill="white"/>
    </clipPath>
  </defs>
</svg>
