<svg width="53" height="50" viewBox="0 0 53 50" fill="none" xmlns="http://www.w3.org/2000/svg">
<path d="M17.7299 33.6485H9.81545C5.92868 33.6485 2.76744 30.1666 2.76744 25.888C2.76744 21.6174 5.92868 18.1436 9.81545 18.1436C11.1321 18.1436 12.3985 18.5323 13.4755 19.2691L14.8796 17.2156C13.3864 16.1953 11.6358 15.656 9.81545 15.656C4.55697 15.656 0.279907 20.2457 0.279907 25.888C0.279907 31.5384 4.55697 36.1361 9.81545 36.1361H17.7299V33.6485Z" fill="#9DAAF1"/>
<path d="M45.0223 16.7665C44.7903 13.8644 43.5629 11.1115 41.5564 9.08832C39.4668 6.98218 36.7305 5.82131 33.8616 5.82131C32.1866 5.82131 30.5449 6.2193 29.0359 6.99878C26.6974 2.95239 22.6179 0.481461 18.1072 0.481461C11.026 0.481461 5.25497 6.63389 5.25497 14.1795H7.74251C7.74251 7.99376 12.386 2.96899 18.1072 2.96899C22.0707 2.96899 25.6362 5.37362 27.4106 9.25413L28.0242 10.5974L29.2347 9.76822C32.5348 7.51287 36.9793 8.01036 39.7821 10.8296C41.573 12.6371 42.5846 15.1745 42.568 17.8278V18.939L43.6789 19.0716C47.2942 19.453 50.0306 22.7034 50.0306 26.6338C50.0306 28.2755 49.5662 33.6486 43.5466 33.6486H35.0681V36.0211L34.9406 36.1361H43.5466C50.1634 36.1361 52.5181 31.0116 52.5181 26.6338C52.5181 21.8245 49.3672 17.7615 45.0223 16.7665Z" fill="#9DAAF1"/>
<path d="M24.5619 20.1965C24.5619 19.1662 25.3971 18.3311 26.4273 18.3311C27.4576 18.3311 28.2927 19.1662 28.2927 20.1965C28.2927 21.2267 27.4576 22.0619 26.4273 22.0619C25.3971 22.0619 24.5619 21.2267 24.5619 20.1965ZM32.5806 44.708V41.8027L31.115 40.4876L32.5806 39.1613V37.5758L31.1117 36.2462L32.5806 34.9166V30.4161C34.647 28.6281 35.8633 25.9916 35.8633 23.2417C35.8633 18.0075 31.617 13.7483 26.399 13.7483C21.181 13.7483 16.9347 18.0075 16.9347 23.2417C16.9347 25.9916 18.151 28.6281 20.2174 30.4161V44.6157L26.3909 49.5147L32.5806 44.708ZM22.705 29.1998L22.2078 28.8273C20.4377 27.4961 19.4223 25.4604 19.4223 23.2417C19.4223 19.3793 22.5527 16.2358 26.399 16.2358C30.2453 16.2358 33.3758 19.3793 33.3758 23.2417C33.3758 25.4604 32.3603 27.4961 30.5902 28.8273L30.0931 29.1998V33.8121L27.4031 36.2462L29.7497 38.3693L27.3999 40.4941L30.0931 42.9136V43.4902L26.4071 46.3534L22.705 43.414V29.1998Z" fill="#2E40A5"/>
</svg>
