<svg width="53" height="50" viewBox="0 0 53 50" fill="none" xmlns="http://www.w3.org/2000/svg">
<path d="M43.9703 2.22034H34.2812C32.5836 2.22034 31.0355 3.01315 30.011 4.26188C30.6436 5.02061 31.166 5.87064 31.5613 6.80403C31.9552 5.65288 33.0281 4.82969 34.2812 4.82969H43.9703C45.1697 4.82969 46.1448 5.80482 46.1448 7.00417V17.4417C46.1448 18.641 45.1697 19.6161 43.9703 19.6161H36.6268C36.2915 20.607 35.7963 21.4707 35.1909 22.2255H43.9703C46.6077 22.2255 48.7542 20.0799 48.7542 17.4417V7.00419C48.7542 4.36594 46.6077 2.22034 43.9703 2.22034Z" fill="#2E40A5"/>
<path d="M19.6161 26.5745H9.17863C6.54038 26.5745 4.39478 28.7201 4.39478 31.3583V41.7958C4.39478 44.4341 6.54038 46.5797 9.17863 46.5797H19.6161C22.2544 46.5797 24.4 44.4341 24.4 41.7958V31.3583C24.4 28.7201 22.2544 26.5745 19.6161 26.5745ZM21.7906 41.7958C21.7906 42.9952 20.8155 43.9703 19.6161 43.9703H9.17863C7.97927 43.9703 7.00415 42.9952 7.00415 41.7958V31.3583C7.00415 30.159 7.97927 29.1838 9.17863 29.1838H19.6161C20.8155 29.1838 21.7906 30.159 21.7906 31.3583V41.7958Z" fill="#2E40A5"/>
<path d="M5.69951 22.2255C2.29086 22.2255 0 19.7393 0 16.0393C0 13.6542 1.31232 11.495 3.36534 10.3483C3.25323 9.79449 3.19716 9.23389 3.19716 8.67157C3.19716 3.89026 7.1299 0 11.9639 0C14.8833 0 17.5402 1.40322 19.1651 3.73483C20.0927 3.3543 21.0848 3.15724 22.0905 3.15724C25.9782 3.15724 29.2026 6.02313 29.719 9.73164C32.5602 10.4952 34.5878 13.0392 34.5878 16.0393C34.5878 19.1167 32.6486 22.2221 28.3175 22.2221L5.69951 22.2255ZM11.9639 2.60936C8.5688 2.60936 5.80653 5.32916 5.80653 8.67155C5.80653 9.33834 5.92206 10.0034 6.14885 10.649L6.58799 11.8976L5.33342 12.3189C3.70427 12.8659 2.60937 14.3609 2.60937 16.0393C2.60937 17.1146 2.91006 19.6161 5.69951 19.6161L28.3175 19.6127C31.6217 19.6127 31.9784 17.1138 31.9784 16.0393C31.9784 14.0118 30.4223 12.3299 28.3591 12.1278L27.1818 12.0122V10.829C27.1818 8.0141 24.8978 5.76656 22.0905 5.76656C21.1298 5.76656 20.1861 6.04007 19.3622 6.5565L18.1407 7.32352L17.5003 6.03073C16.4547 3.91996 14.3329 2.60936 11.9639 2.60936Z" fill="#9DAAF1"/>
<path d="M52.1077 41.0047H45.4301V34.3271H43.1793V41.0047H36.5017V43.2554H43.1793V49.933H45.4301V43.2554H52.1077V41.0047Z" fill="#9DAAF1"/>
<path d="M43.97 26.5742C46.6082 26.5742 48.7542 28.7201 48.7542 31.3583V32.5595H46.1448V31.3583C46.1448 30.159 45.1693 29.1835 43.97 29.1835H33.5325C32.3332 29.1837 31.3586 30.1591 31.3586 31.3583V41.7958C31.3587 42.9951 32.3333 43.9705 33.5325 43.9706H35.0852V46.58H33.5325C30.8944 46.5799 28.7493 44.434 28.7493 41.7958V31.3583C28.7493 28.7202 30.8943 26.5743 33.5325 26.5742H43.97Z" fill="#2E40A5"/>
</svg>
