<svg xmlns="http://www.w3.org/2000/svg" width="72" height="28" viewBox="0 0 72 28" fill="none">
  <g clip-path="url(#clip0_1530_10033)">
    <path d="M36.4077 0.0152988C38.9526 -0.0690737 41.5142 0.299604 43.9146 1.11996C47.5256 2.34087 50.753 4.57829 53.1145 7.47651C54.1533 8.748 55.0234 10.1456 55.7053 11.6243C55.8262 11.8703 55.9193 12.1469 55.8546 12.4211C55.7753 12.8813 55.3564 13.2618 54.8746 13.3078C54.3743 13.3782 53.8572 13.0775 53.6788 12.6235C52.3228 9.55012 50.0085 6.88055 47.1217 5.03264C45.3371 3.88405 43.3356 3.04765 41.2446 2.57939C38.5481 1.97191 35.7091 1.97191 33.0121 2.57753C29.1612 3.43161 25.6352 5.55903 23.1484 8.5151C22.094 9.76061 21.2234 11.149 20.567 12.6261C20.425 12.9694 20.0986 13.2385 19.7178 13.2987C19.3506 13.367 18.9509 13.2448 18.6949 12.9814C18.393 12.6902 18.2943 12.2246 18.4499 11.8422C20.2563 7.72901 23.601 4.27363 27.7132 2.21688C30.3915 0.866705 33.3877 0.113585 36.4077 0.0152988Z" fill="#F49813"/>
    <path d="M33.0453 12.6794C33.03 12.4657 33.2399 12.3059 33.4478 12.3008C33.718 12.2938 33.989 12.296 34.2598 12.2997C34.448 12.3059 34.6676 12.4267 34.6668 12.6302C34.6765 15.0202 34.661 17.411 34.6751 19.8025C35.6806 18.7256 36.6947 17.6547 37.7037 16.5811C37.9025 16.3923 38.0595 16.1064 38.3687 16.0818C38.7851 16.0652 39.2026 16.0751 39.6196 16.0756C39.7803 16.0617 39.9596 16.2036 39.9032 16.3688C39.8373 16.4962 39.7164 16.5838 39.6177 16.685C38.5266 17.735 37.4313 18.7814 36.3458 19.8359C37.3944 20.9888 38.4284 22.1535 39.4723 23.3106C39.6066 23.4753 39.7747 23.615 39.8873 23.7966C39.9698 23.9385 39.8331 24.1111 39.6752 24.1178C39.3285 24.1366 38.9811 24.1178 38.6336 24.1259C38.4529 24.1219 38.2575 24.1473 38.0935 24.0576C37.9205 23.962 37.8155 23.7912 37.6918 23.6474C36.6849 22.4263 35.6847 21.2003 34.6743 19.9813C34.664 21.1835 34.6712 22.3851 34.6704 23.5864C34.6665 23.7251 34.696 23.8921 34.5706 23.9933C34.371 24.1789 34.0739 24.1138 33.8248 24.1259C33.6038 24.1186 33.3452 24.1652 33.1657 24.0081C33.0656 23.9331 33.0394 23.8051 33.0433 23.6913C33.0461 20.0202 33.0422 16.3495 33.0453 12.6794Z" fill="black"/>
    <path d="M28.4582 16.0555C28.963 15.8991 29.5321 15.8694 30.0266 16.0755C30.2001 16.154 30.4016 16.3213 30.3232 16.5275C30.244 16.7864 30.1765 17.0482 30.082 17.3026C30.0121 17.4851 29.7922 17.5529 29.6071 17.5173C29.1907 17.4485 28.7818 17.316 28.3548 17.3294C28.0568 17.3226 27.7819 17.4766 27.5781 17.6761C27.2493 17.9858 27.0791 18.419 27.0027 18.8487C26.9421 19.1593 26.9594 19.4766 26.9566 19.7904C26.9566 21.109 26.9571 22.4284 26.9563 23.747C26.9757 23.9638 26.7428 24.1111 26.5396 24.1186C26.2605 24.1223 25.9819 24.1258 25.7031 24.1164C25.5016 24.1063 25.2748 23.9646 25.3009 23.7462C25.2998 21.3044 25.2981 18.8635 25.3015 16.4217C25.2842 16.1789 25.5636 16.0469 25.7827 16.0697C26.0576 16.0871 26.4328 15.9875 26.6116 16.2539C26.7472 16.5628 26.8117 16.8965 26.9391 17.2081C27.3224 16.7015 27.8305 16.2549 28.4582 16.0555Z" fill="black"/>
    <path d="M0 16.2421C0.0775571 16.1564 0.16818 16.0638 0.297442 16.0726C0.676055 16.0691 1.05578 16.0611 1.43411 16.078C1.62621 16.0833 1.75852 16.2459 1.7866 16.418C2.15882 17.8758 2.52437 19.3358 2.89492 20.7941C3.00361 21.2445 3.13593 21.6902 3.20682 22.1483C3.27992 22.5598 3.29438 22.9775 3.36387 23.3898C3.4595 22.8013 3.54512 22.2091 3.70996 21.6343C4.19449 19.8937 4.67874 18.1535 5.16382 16.4135C5.20163 16.215 5.39538 16.074 5.60136 16.074C6.02279 16.0638 6.44504 16.0708 6.86647 16.0708C7.09247 16.0605 7.33435 16.1878 7.38879 16.4108C7.75073 17.6796 8.10825 18.9507 8.46877 20.2207C8.68753 21.0431 8.9741 21.8517 9.09786 22.6956C9.13201 22.928 9.16539 23.1609 9.21513 23.3917C9.35106 22.0659 9.70524 20.7759 9.99658 19.4777C10.237 18.4448 10.4722 17.4108 10.7154 16.3778C10.7513 16.1703 10.9792 16.066 11.18 16.0718C11.5208 16.0699 11.8621 16.0605 12.2024 16.0772C12.4045 16.0828 12.5206 16.298 12.4495 16.4716C11.7656 18.9018 11.0843 21.3336 10.4002 23.7638C10.3635 23.9588 10.1872 24.1108 9.98071 24.114C9.45254 24.1306 8.92329 24.1181 8.39511 24.1207C8.20582 24.132 8.00564 24.0343 7.97226 23.8423C7.49945 22.1711 7.03604 20.4969 6.56764 18.8244C6.39807 18.2426 6.3294 17.6394 6.25824 17.041C6.17123 17.5738 6.12814 18.1154 5.98081 18.6389C5.50129 20.361 5.01899 22.0838 4.53835 23.8061C4.48415 24.0851 4.15307 24.1408 3.90677 24.1226C3.41558 24.114 2.92439 24.1336 2.43374 24.114C2.25889 24.1146 2.12407 23.9834 2.09266 23.8244C1.40326 21.4038 0.716085 18.9821 0.0261305 16.562C0.00222387 16.4563 0.00528169 16.3484 0 16.2421Z" fill="black"/>
    <path d="M61.9449 16.0772C62.3034 16.0714 62.6635 16.07 63.0221 16.0772C63.2402 16.0802 63.4454 16.2239 63.5141 16.4247C64.1334 17.9835 64.7483 19.5452 65.3668 21.1047C65.4961 21.4212 65.5864 21.7513 65.6443 22.0865C65.9 21.1615 66.2405 20.2613 66.5394 19.3484C66.8721 18.3613 67.2051 17.3739 67.5392 16.3864C67.5888 16.2146 67.7589 16.0973 67.9395 16.0829C68.2323 16.062 68.5269 16.0802 68.8202 16.0727C68.9918 16.0746 69.1961 16.0552 69.3267 16.1878C69.4115 16.2569 69.3934 16.3717 69.3581 16.4614C68.3685 19.1803 67.3817 21.9005 66.3934 24.6201C66.2217 25.0731 66.0896 25.5473 65.813 25.9548C65.4163 26.5754 64.7733 27.0222 64.0667 27.264C63.8199 27.3376 63.565 27.5009 63.2995 27.4094C63.111 27.363 63.0387 27.1743 62.9381 27.0356C62.8659 26.9098 62.7324 26.7933 62.7602 26.6367C62.7733 26.4814 62.9025 26.355 63.0549 26.3135C63.3528 26.2145 63.6558 26.1052 63.8972 25.9026C64.4837 25.4246 64.8465 24.7178 64.9846 23.9984C64.891 23.679 64.7177 23.3853 64.5921 23.0761C63.6484 20.9636 62.7046 18.8504 61.7586 16.7388C61.7016 16.6006 61.6176 16.4689 61.6016 16.319C61.6038 16.1544 61.7998 16.082 61.9449 16.0772Z" fill="black"/>
    <path d="M17.9423 17.0992C17.4275 17.1913 16.9579 17.5 16.6966 17.9397C16.26 18.6526 16.2097 19.5129 16.2294 20.3214C16.2605 21.0534 16.3825 21.8341 16.8674 22.4258C17.229 22.8708 17.8233 23.0943 18.401 23.0858C18.9566 23.1029 19.5388 22.9216 19.9154 22.5147C20.3966 22.0079 20.5511 21.3045 20.6173 20.6413C20.6465 19.99 20.6602 19.3268 20.4847 18.6907C20.3452 18.1533 20.0505 17.6159 19.5407 17.3265C19.0662 17.0462 18.4799 17.02 17.9423 17.0992ZM18.1597 15.9399C19.0912 15.8848 20.0672 16.0711 20.8361 16.6026C21.5238 17.0738 21.9909 17.7999 22.209 18.5785C22.4684 19.508 22.4673 20.5 22.2321 21.4344C22.0106 22.2957 21.4924 23.1077 20.7108 23.5971C19.8754 24.131 18.826 24.2697 17.8456 24.1559C17.0102 24.0568 16.1963 23.704 15.6147 23.1112C14.9312 22.4215 14.5917 21.4713 14.5212 20.5321C14.4353 19.4906 14.6009 18.3881 15.2025 17.4987C15.6475 16.8293 16.355 16.3375 17.1442 16.1131C17.4733 16.0141 17.8167 15.968 18.1597 15.9399Z" fill="black"/>
    <path d="M45.6384 17.0566C45.1278 17.0882 44.6349 17.3712 44.407 17.8201C43.9616 18.6504 43.9525 19.6166 43.9747 20.5296C44.0103 21.1261 44.0775 21.7419 44.3661 22.2806C44.5612 22.6434 44.9157 22.9299 45.3349 23.0177C45.9762 23.1663 46.731 23.0404 47.1868 22.5524C47.626 22.0707 47.7706 21.4158 47.8381 20.796C47.8845 20.0895 47.8874 19.3684 47.7053 18.6769C47.5801 18.2145 47.3684 17.7527 46.9881 17.4314C46.6233 17.1222 46.1152 17.003 45.6384 17.0566ZM47.8359 12.5773C47.8242 12.39 48.023 12.2703 48.1959 12.2558C48.4725 12.2414 48.7499 12.2483 49.027 12.2512C49.2383 12.2494 49.4746 12.4007 49.4441 12.6266C49.4441 16.3144 49.4449 20.0016 49.4435 23.6889C49.4579 23.8793 49.2633 24.027 49.0807 24.0386C48.8602 24.0498 48.6393 24.0498 48.4197 24.0351C48.2648 24.0257 48.1147 23.9301 48.0619 23.7874C47.9791 23.5478 47.936 23.2988 47.8728 23.0552C47.5671 23.4546 47.1729 23.808 46.6831 23.9834C45.9845 24.2311 45.207 24.2351 44.489 24.0664C43.7676 23.8993 43.1394 23.422 42.7913 22.7936C42.2451 21.8343 42.1803 20.7058 42.2145 19.6357C42.234 18.7214 42.4152 17.7567 43.0337 17.0312C43.5002 16.4161 44.2646 16.0632 45.0366 15.9709C45.7552 15.8697 46.5344 15.9861 47.1293 16.4055C47.4106 16.5961 47.6357 16.8517 47.8368 17.119C47.8311 15.6055 47.8326 14.0914 47.8359 12.5773Z" fill="black"/>
    <path d="M55.5655 17.1026C55.3093 17.1529 55.061 17.252 54.8539 17.4065C54.4397 17.717 54.234 18.2105 54.1242 18.6898C53.9644 19.4501 53.9666 20.2354 54.0492 21.0043C54.1265 21.5692 54.2738 22.1722 54.7038 22.5898C55.0541 22.944 55.5823 23.0739 56.0765 23.0506C56.608 23.0691 57.1612 22.8785 57.504 22.4763C57.9326 21.977 58.0535 21.3127 58.1161 20.687C58.1558 19.9513 58.1563 19.1979 57.9418 18.4836C57.8061 18.0386 57.5581 17.5961 57.1398 17.3425C56.6789 17.0512 56.0959 17.0244 55.5655 17.1026ZM54.8539 16.0927C55.5914 15.8959 56.3809 15.8844 57.1259 16.0486C57.8181 16.2031 58.4663 16.5773 58.8917 17.1315C59.3414 17.6996 59.5685 18.4041 59.663 19.1061C59.7451 19.6474 59.7214 20.1957 59.7222 20.7411C59.7222 21.7253 59.7222 22.7098 59.7194 23.6937C59.7306 23.8137 59.6519 23.9199 59.5504 23.9823C59.3789 24.0841 59.1663 24.0391 58.975 24.0506C58.7604 24.049 58.4783 24.0672 58.3615 23.8522C58.2476 23.5995 58.2239 23.3175 58.1508 23.0517C57.8631 23.3885 57.5651 23.736 57.1487 23.9307C56.5143 24.2327 55.7726 24.215 55.0938 24.0873C54.2632 23.9293 53.4982 23.4562 53.0284 22.7746C52.4689 21.9807 52.2659 21.0008 52.2737 20.0538C52.2667 19.1307 52.4543 18.1763 52.9873 17.3952C53.4134 16.7567 54.0972 16.2943 54.8539 16.0927Z" fill="black"/>
    <path d="M69.7094 22.1393C69.2877 22.2884 69.0222 22.7569 69.1298 23.18C69.2396 23.6766 69.8395 24.0156 70.3399 23.8319C70.8013 23.6962 71.0924 23.1893 70.9492 22.7425C70.8235 22.2397 70.2042 21.9425 69.7094 22.1393ZM69.7678 21.927C70.0179 21.8889 70.2898 21.8863 70.5219 21.9979C70.9172 22.1709 71.2014 22.5797 71.1586 23.0049C71.1914 23.5119 70.7485 23.9652 70.2431 24.0469C69.6741 24.1633 69.0617 23.7663 68.9458 23.2196C68.7962 22.6694 69.1932 22.0501 69.7678 21.927Z" fill="black"/>
    <path d="M69.8861 22.5453C69.8853 22.6604 69.8847 22.7756 69.8861 22.8915C69.9909 22.8853 70.0987 22.8915 70.2021 22.8639C70.2994 22.8251 70.2897 22.7059 70.2633 22.6262C70.1627 22.5314 70.0131 22.556 69.8861 22.5453ZM69.5698 22.3579C69.8722 22.3745 70.2113 22.2923 70.4837 22.4548C70.7034 22.6136 70.5969 22.959 70.349 23.0326C70.4204 23.2146 70.5199 23.3838 70.6108 23.5573C70.4963 23.5595 70.3837 23.5614 70.2711 23.5632C70.1897 23.4026 70.1098 23.2401 70.0321 23.0781C69.9825 23.0768 69.9339 23.0762 69.8861 23.0754C69.8853 23.2374 69.8853 23.3994 69.8853 23.5614C69.7782 23.56 69.6735 23.5587 69.5684 23.5579C69.5692 23.1576 69.5678 22.7574 69.5698 22.3579Z" fill="black"/>
  </g>
  <defs>
    <clipPath id="clip0_1530_10033">
      <rect width="71.1637" height="27.4366" fill="white"/>
    </clipPath>
  </defs>
</svg>
