<svg width="44" height="44" viewBox="0 0 44 44" fill="none" xmlns="http://www.w3.org/2000/svg">
<path d="M25.1629 27.721H36.5558C38.3701 27.721 39.8376 29.1885 39.8376 31.0028V36.4591C39.8376 38.2735 38.3701 39.7276 36.5558 39.7276H15.8244" stroke="#3F59E4" stroke-width="2.5" stroke-miterlimit="10"/>
<path d="M25.95 5.82908C27.9377 3.84132 31.4196 3.84132 33.4074 5.82908L36.876 9.29763C37.8765 10.2982 38.4235 11.6189 38.4235 13.033C38.4235 14.4471 37.8765 15.7678 36.876 16.7684L18.5592 34.4715" stroke="#F4F4F4" stroke-width="2.0011" stroke-miterlimit="10"/>
<path d="M15.6508 18.9558L27.3639 7.24276C28.6446 5.96205 30.7124 5.96205 31.9931 7.24276L35.4616 10.7113C36.7424 11.992 36.7424 14.0599 35.4616 15.3406L15.8108 34.3777" stroke="#191919" stroke-width="2.5" stroke-miterlimit="10"/>
<path d="M11.155 34.3912C11.155 35.1249 10.5547 35.7253 9.82092 35.7253C9.08718 35.7253 8.48685 35.1249 8.48685 34.3912C8.48685 33.6575 9.08718 33.0571 9.82092 33.0571C10.5547 33.0571 11.155 33.6575 11.155 34.3912Z" fill="#3F59E4"/>
<path d="M17.8252 7.05576V41.0612" stroke="#F4F4F4" stroke-width="2.0011" stroke-miterlimit="10"/>
<path d="M15.8242 39.7274H3.81763V7.05605C3.81763 5.20169 5.3118 3.70752 7.16615 3.70752H12.4758C14.3301 3.70752 15.8242 5.20169 15.8242 7.05605V39.7274Z" stroke="#3F59E4" stroke-width="2.5" stroke-miterlimit="10"/>
</svg>
