<svg width="44" height="44" viewBox="0 0 44 44" fill="none" xmlns="http://www.w3.org/2000/svg">
<path d="M32.5069 32.0289C26.7704 37.7654 17.4319 37.7654 11.6954 32.0289C5.95894 26.2924 5.95894 16.9539 11.6954 11.2174" stroke="#4CB7A3" stroke-width="2.5" stroke-miterlimit="10"/>
<path d="M11.6953 11.2169C17.4318 5.48037 26.7703 5.48037 32.5068 11.2169C38.2432 16.9534 38.2432 26.2918 32.5068 32.0283" stroke="#FFFEFA" stroke-width="2.5" stroke-miterlimit="10"/>
<path d="M27.8778 15.8325C31.0663 19.021 31.0663 24.1972 27.8778 27.3989C24.6894 30.5874 19.5133 30.5874 16.3115 27.3989C13.1231 24.2105 13.1231 19.0343 16.3115 15.8325C19.4999 12.6441 24.6761 12.6441 27.8778 15.8325Z" stroke="#FFFEFA" stroke-width="2.5" stroke-miterlimit="10"/>
<path d="M11.6955 32.0291L4.7583 38.9662" stroke="#4CB7A3" stroke-width="2.5" stroke-miterlimit="10"/>
<path d="M39.444 4.27979L32.5068 11.217" stroke="#FFFEFA" stroke-width="2.5" stroke-miterlimit="10"/>
</svg>
