<svg width="44" height="44" viewBox="0 0 44 44" fill="none" xmlns="http://www.w3.org/2000/svg">
<path d="M6.03864 6.73169L13.136 13.8289C15.4306 11.5343 18.5256 10.3871 21.4205 10.4137" stroke="#3F59E4" stroke-width="2.5" stroke-miterlimit="10"/>
<path d="M28.198 22.5538C28.198 26.1291 25.3031 29.024 21.7278 29.024C18.1525 29.024 15.2576 26.1291 15.2576 22.5538C15.2576 18.9785 18.1525 16.0836 21.7278 16.0836C25.3031 16.0836 28.198 18.9785 28.198 22.5538Z" stroke="#191919" stroke-width="2.5" stroke-miterlimit="10"/>
<path d="M12.5759 6.55811H5.71875V13.4152" stroke="#3F59E4" stroke-width="2.5" stroke-miterlimit="10"/>
<path d="M22.3546 34.6938C25.3029 34.6938 28.2513 33.5865 30.5059 31.3319L37.483 38.3092" stroke="#3F59E4" stroke-width="2.5" stroke-miterlimit="10"/>
<path d="M30.8926 38.5626H37.7498V31.7055" stroke="#3F59E4" stroke-width="2.5" stroke-miterlimit="10"/>
<path d="M19.5798 34.5342C13.8834 33.5203 9.56097 28.5443 9.56097 22.5543C9.56097 20.4065 10.1213 18.3921 11.0952 16.6445" stroke="#191919" stroke-width="2.5" stroke-miterlimit="10"/>
<path d="M24.1821 10.6403C29.7318 11.7743 33.8942 16.6836 33.8942 22.5668C33.8942 24.6613 33.3606 26.6357 32.4267 28.37" stroke="#191919" stroke-width="2.5" stroke-miterlimit="10"/>
</svg>
