<svg width="44" height="44" viewBox="0 0 44 44" fill="none" xmlns="http://www.w3.org/2000/svg">
<path d="M25.3453 27.721H36.7383C38.5526 27.721 40.0201 29.1885 40.0201 31.0028V36.4591C40.0201 38.2735 38.5526 39.7276 36.7383 39.7276H16.0068" stroke="#4CB7A3" stroke-width="2.5" stroke-miterlimit="10"/>
<path d="M26.1325 5.82908C28.1202 3.84132 31.6021 3.84132 33.5899 5.82908L37.0585 9.29763C38.059 10.2982 38.606 11.6189 38.606 13.033C38.606 14.4471 38.059 15.7678 37.0585 16.7684L18.7417 34.4715" stroke="#2B2B2B" stroke-width="2.0011" stroke-miterlimit="10"/>
<path d="M15.833 18.9558L27.5461 7.24276C28.8268 5.96205 30.8946 5.96205 32.1754 7.24276L35.6439 10.7113C36.9246 11.992 36.9246 14.0599 35.6439 15.3406L15.9931 34.3777" stroke="#FFFEFA" stroke-width="2.5" stroke-miterlimit="10"/>
<path d="M11.3373 34.3912C11.3373 35.1249 10.737 35.7253 10.0033 35.7253C9.26952 35.7253 8.66919 35.1249 8.66919 34.3912C8.66919 33.6575 9.26952 33.0571 10.0033 33.0571C10.737 33.0571 11.3373 33.6575 11.3373 34.3912Z" fill="#4CB7A3"/>
<path d="M18.0076 7.05576V41.0612" stroke="#2B2B2B" stroke-width="2.0011" stroke-miterlimit="10"/>
<path d="M16.0066 39.7274H4V7.05605C4 5.20169 5.49417 3.70752 7.34853 3.70752H12.6581C14.5125 3.70752 16.0066 5.20169 16.0066 7.05605V39.7274Z" stroke="#4CB7A3" stroke-width="2.5" stroke-miterlimit="10"/>
</svg>
