<svg width="44" height="44" viewBox="0 0 44 44" fill="none" xmlns="http://www.w3.org/2000/svg">
<path d="M21.6143 2C28.6001 2 34.2573 7.7001 34.2573 14.7287C34.2573 18.0288 33.0144 21.0288 30.9715 23.2859C26.9858 27.7288 27.243 31.7002 27.243 31.7002C27.243 31.7002 25.8429 33.1146 21.6286 33.1146C17.4143 33.1146 16.0143 31.7002 16.0143 31.7002C16.0143 31.7002 16.2715 27.7288 12.2857 23.2859C10.2429 21.0288 9 18.0145 9 14.7287C9 7.7001 14.6572 2 21.6429 2H21.6143Z" stroke="#4CB7A3" stroke-width="2.5" stroke-miterlimit="10"/>
<path d="M16.0573 31.7572L15.7002 33.8143C15.4287 35.3858 16.4431 36.8858 17.9859 37.2143C18.9002 37.4144 20.1002 37.5572 21.6002 37.5572C23.1002 37.5572 24.3288 37.4144 25.2574 37.2143C26.8003 36.8858 27.8003 35.4143 27.5575 33.8571L27.2288 31.7" stroke="#4CB7A3" stroke-width="2.5" stroke-miterlimit="10"/>
<path d="M26.0574 37.5571C26.0574 40.0143 24.0717 42 21.6145 42C19.1573 42 17.1716 40.0143 17.1716 37.5571" stroke="#4CB7A3" stroke-width="2.5" stroke-miterlimit="10"/>
<path d="M21.6146 29.8863V24.2148C21.6146 24.2148 17.3289 20.8147 17.3289 16.2861" stroke="#FFFEFA" stroke-width="2.5" stroke-miterlimit="10"/>
<path d="M21.6145 29.8863V24.2148C21.6145 24.2148 25.9003 20.8147 25.9003 16.2861" stroke="#FFFEFA" stroke-width="2.5" stroke-miterlimit="10"/>
</svg>
