<svg width="44" height="44" viewBox="0 0 44 44" fill="none" xmlns="http://www.w3.org/2000/svg">
<path d="M6.31982 7.17358L13.4172 14.2708C15.7118 11.9762 18.8067 10.8289 21.7017 10.8556" stroke="#4CB7A3" stroke-width="2.5" stroke-miterlimit="10"/>
<path d="M28.4792 22.9957C28.4792 26.571 25.5843 29.4659 22.009 29.4659C18.4337 29.4659 15.5388 26.571 15.5388 22.9957C15.5388 19.4203 18.4337 16.5255 22.009 16.5255C25.5843 16.5255 28.4792 19.4203 28.4792 22.9957Z" stroke="#FFFEFA" stroke-width="2.5" stroke-miterlimit="10"/>
<path d="M12.8571 7H6V13.8571" stroke="#4CB7A3" stroke-width="2.5" stroke-miterlimit="10"/>
<path d="M22.6357 35.1357C25.584 35.1357 28.5325 34.0284 30.787 31.7738L37.7642 38.7511" stroke="#4CB7A3" stroke-width="2.5" stroke-miterlimit="10"/>
<path d="M31.1738 39.0045H38.031V32.1474" stroke="#4CB7A3" stroke-width="2.5" stroke-miterlimit="10"/>
<path d="M19.8612 34.9761C14.1647 33.9622 9.84229 28.9862 9.84229 22.9962C9.84229 20.8483 10.4026 18.834 11.3765 17.0864" stroke="#FFFEFA" stroke-width="2.5" stroke-miterlimit="10"/>
<path d="M24.4634 11.0822C30.0131 12.2162 34.1754 17.1255 34.1754 23.0087C34.1754 25.1032 33.6418 27.0776 32.708 28.8119" stroke="#FFFEFA" stroke-width="2.5" stroke-miterlimit="10"/>
</svg>
