<svg width="44" height="44" viewBox="0 0 44 44" fill="none" xmlns="http://www.w3.org/2000/svg">
<path d="M32.5068 32.0289C26.7703 37.7654 17.4319 37.7654 11.6954 32.0289C5.95888 26.2924 5.95888 16.9539 11.6954 11.2174" stroke="#3F59E4" stroke-width="2.5" stroke-miterlimit="10"/>
<path d="M11.6953 11.2169C17.4318 5.48037 26.7703 5.48037 32.5068 11.2169C38.2433 16.9534 38.2433 26.2918 32.5068 32.0283" stroke="#191919" stroke-width="2.5" stroke-miterlimit="10"/>
<path d="M8.22708 7.74854L35.9757 35.4971" stroke="#F4F4F4" stroke-width="4.00221" stroke-miterlimit="10"/>
<path d="M27.8779 15.8325C31.0663 19.021 31.0663 24.1972 27.8779 27.3989C24.6895 30.5874 19.5133 30.5874 16.3115 27.3989C13.1231 24.2105 13.1231 19.0343 16.3115 15.8325C19.5 12.6441 24.6761 12.6441 27.8779 15.8325Z" stroke="#191919" stroke-width="2.5" stroke-miterlimit="10"/>
<path d="M11.6955 32.0291L4.7583 38.9662" stroke="#3F59E4" stroke-width="2.5" stroke-miterlimit="10"/>
<path d="M39.4441 4.27979L32.5069 11.217" stroke="#191919" stroke-width="2.5" stroke-miterlimit="10"/>
</svg>
