<svg width="53" height="50" viewBox="0 0 53 50" fill="none" xmlns="http://www.w3.org/2000/svg">
<path d="M23.8822 16.4266C25.1356 16.6006 26.1787 17.3197 26.8363 18.2479L35.5268 15.867V28.534L26.8363 26.1522C26.1787 27.0804 25.1356 27.7994 23.8822 27.9735L19.3139 28.5467H18.9057C17.0719 28.5467 15.5816 27.0562 15.5815 25.2225V19.1776C15.5816 17.3439 17.072 15.8533 18.9057 15.8533H19.3139L23.8822 16.4266ZM18.9955 17.5838C18.1982 17.5838 17.5503 18.2673 17.5502 19.1102V25.2186C17.5502 26.0615 18.1981 26.7459 18.9955 26.7459L23.1918 26.1883C24.0678 26.0719 24.7221 25.3239 24.7221 24.4403V19.9852C24.7221 19.1165 24.0892 18.3767 23.2309 18.243L18.9955 17.5838ZM26.4604 20.4832V23.9168L33.7143 25.8162V18.5848L26.4604 20.4832Z" fill="#2E40A5"/>
<path d="M17.5685 28.9998L16.616 30.8639C16.2461 31.5517 15.5207 32.0244 14.7072 32.1042L11.3502 32.3931V34.2064L14.7072 33.9174C16.1409 33.7808 17.4307 33.012 18.173 31.8201L19.6381 29.2017L17.5685 28.9998Z" fill="#2E40A5"/>
<rect x="40.4406" y="16.6369" width="1.81013" height="4.08056" transform="rotate(66.331 40.4406 16.6369)" fill="#2E40A5"/>
<rect x="36.758" y="26.1512" width="1.81013" height="4.08056" transform="rotate(-75 36.758 26.1512)" fill="#2E40A5"/>
<path d="M27.6246 0.0630341C40.3377 0.753946 50.5346 10.9501 51.2256 23.664H48.4944C47.8106 12.4559 38.8328 3.47799 27.6246 2.7942V0.0630341ZM4.02364 23.664C4.70744 12.4559 13.6853 3.47799 24.8935 2.7942V0.0630341C12.1804 0.753946 1.9835 10.9501 1.29248 23.664H4.02364ZM24.8935 47.265C13.6853 46.5811 4.70744 37.6034 4.02364 26.3952H1.29248C1.9835 39.109 12.1804 49.3051 24.8935 49.9961V47.265ZM48.4944 26.3952C47.8106 37.6034 38.8328 46.5811 27.6246 47.265V49.9961C40.3377 49.3051 50.5346 39.109 51.2256 26.3952H48.4944Z" fill="#9DAAF1"/>
</svg>
