<svg xmlns="http://www.w3.org/2000/svg" width="49" height="35" viewBox="0 0 49 35" fill="none">
  <g clip-path="url(#clip0_1530_8818)">
    <path d="M22.9912 5.36285V20.3073H10.6266L22.9912 5.36285ZM22.9912 0C22.9912 1.64146 22.3399 3.21569 21.1805 4.37638C20.021 5.53706 18.4485 6.18913 16.8089 6.18913C15.1692 6.18913 13.5968 5.53706 12.4373 4.37638C11.2779 3.21569 10.6266 1.64146 10.6266 0L22.9912 0ZM25.0282 20.3087C25.0282 18.6672 25.6795 17.093 26.8389 15.9323C27.9983 14.7716 29.5708 14.1195 31.2105 14.1195C32.8501 14.1195 34.4226 14.7716 35.582 15.9323C36.7414 17.093 37.3928 18.6672 37.3928 20.3087H25.0282ZM25.0282 14.9458V0H37.3954L25.0282 14.9445V14.9458ZM31.9433 33.0948C32.5791 33.109 33.1948 32.871 33.6562 32.4327L34.5053 33.3503C33.9445 33.9277 33.1668 34.3567 31.9578 34.3567C29.8851 34.3567 28.5452 32.9796 28.5452 31.1178C28.5368 30.6911 28.6144 30.2671 28.7732 29.871C28.9321 29.475 29.169 29.115 29.4698 28.8126C29.7706 28.5102 30.1292 28.2716 30.5242 28.1109C30.9192 27.9503 31.3424 27.8709 31.7687 27.8776C33.8268 27.8776 34.9934 29.4454 34.8902 31.6196H30.0253C30.1973 32.5227 30.8322 33.0987 31.9393 33.0987M33.4207 30.5828C33.2884 29.7393 32.7858 29.1183 31.7806 29.1183C30.8454 29.1183 30.1933 29.648 30.0253 30.5828H33.422H33.4207ZM0 33.0246L3.74325 29.2163H0.088621V28.0219H5.47995V29.2401L1.73671 33.0471H5.53286V34.2428H0V33.0246ZM9.73509 33.0934C10.371 33.1077 10.9867 32.8697 11.448 32.4314L12.2972 33.349C11.7363 33.9263 10.9586 34.3554 9.74964 34.3554C7.67696 34.3554 6.33707 32.9782 6.33707 31.1165C6.32866 30.6898 6.4062 30.2657 6.56505 29.8697C6.7239 29.4736 6.96081 29.1137 7.26164 28.8113C7.56248 28.5089 7.92107 28.2702 8.31603 28.1096C8.71099 27.9489 9.13423 27.8696 9.56049 27.8762C11.6186 27.8762 12.7852 29.444 12.6821 31.6183H7.81981C7.99177 32.5214 8.62666 33.0974 9.73376 33.0974M11.2152 30.5815C11.0829 29.738 10.5803 29.117 9.57504 29.117C8.63989 29.117 7.9878 29.6466 7.81981 30.5815H11.2165H11.2152ZM20.7691 31.1151C20.7691 29.1289 22.2545 27.8789 23.8906 27.8789C24.2832 27.8737 24.6722 27.9545 25.0303 28.1158C25.3883 28.2771 25.7068 28.5148 25.9633 28.8124V25.1418H27.286V34.2256H25.9633V33.3689C25.7117 33.6787 25.3937 33.9279 25.0329 34.0979C24.672 34.268 24.2776 34.3546 23.8787 34.3514C22.2915 34.3514 20.7704 33.0934 20.7704 31.1165M26.0374 31.1032C26.027 30.7148 25.9024 30.3382 25.6793 30.0203C25.4562 29.7024 25.1444 29.4574 24.7829 29.316C24.4214 29.1746 24.0263 29.1431 23.647 29.2253C23.2677 29.3075 22.921 29.4998 22.6504 29.7783C22.3797 30.0567 22.197 30.4088 22.1252 30.7906C22.0534 31.1724 22.0957 31.567 22.2467 31.9249C22.3977 32.2828 22.6507 32.5882 22.9742 32.8028C23.2976 33.0175 23.6772 33.132 24.0652 33.1318C25.2028 33.1318 26.0361 32.2235 26.0361 31.1032M35.7553 32.9041L36.9537 32.2817C37.1121 32.5645 37.3446 32.7985 37.6262 32.9586C37.9078 33.1187 38.2278 33.1987 38.5515 33.1901C39.3001 33.1901 39.689 32.8061 39.689 32.3691C39.689 31.8712 38.9655 31.76 38.1785 31.5971C37.1203 31.372 36.0185 31.0238 36.0185 29.7433C36.0185 28.7595 36.9537 27.8498 38.4258 27.863C39.5858 27.863 40.4496 28.3238 40.939 29.068L39.8279 29.6771C39.6744 29.4495 39.4654 29.2649 39.2208 29.1407C38.9761 29.0165 38.7039 28.9568 38.4298 28.9673C37.7182 28.9673 37.3558 29.3156 37.3558 29.7142C37.3558 30.1617 37.9298 30.2862 38.8292 30.4862C39.853 30.7113 41.0117 31.0463 41.0117 32.34C41.0117 33.198 40.2631 34.3554 38.4906 34.3434C37.1944 34.3434 36.2817 33.8204 35.7566 32.9001M44.6055 31.4607L43.5566 32.6061V34.2216H42.2339V25.1379H43.5566V31.0873L46.3647 28.002H47.9757L45.542 30.6636L48.0392 34.2229H46.5419L44.6068 31.4607H44.6055ZM16.7719 27.8776C15.1978 27.8776 13.8818 28.8972 13.8818 30.5921V34.2269H15.2309V30.7603C15.2309 29.7407 15.8169 29.1289 16.8182 29.1289C17.8194 29.1289 18.3168 29.738 18.3168 30.7603V34.2269H19.658V30.5921C19.658 28.8998 18.3353 27.8776 16.7679 27.8776" fill="white"/>
  </g>
  <defs>
    <clipPath id="clip0_1530_8818">
      <rect width="48.0141" height="34.2958" fill="white"/>
    </clipPath>
  </defs>
</svg>