<?xml version="1.0" encoding="UTF-8" standalone="no"?>
<svg width="60px" height="60px" viewBox="0 0 60 60" version="1.1" xmlns="http://www.w3.org/2000/svg" xmlns:xlink="http://www.w3.org/1999/xlink">
    <g stroke="none" stroke-width="1" fill="none" fill-rule="evenodd">
        <path d="M38.7807141,15.6161607 C38.862857,15.5608036 38.8833927,15.4500893 38.8289284,15.3679464 C38.7869641,15.3063393 38.7101784,15.276875 38.637857,15.2947321 C34.8342855,16.5447321 24.887857,20.651875 31.3699998,28.1429464 C32.7360712,29.714375 32.4057141,30.9286607 31.887857,31.6608036 C31.831607,31.7420536 31.8512498,31.8536607 31.9324998,31.9099107 C31.987857,31.9483036 32.0610712,31.9527679 32.1199998,31.9197321 C33.5932141,31.026875 35.9057141,29.0983036 33.9592855,26.3572321 C31.5217855,22.9286607 29.6289284,21.151875 38.7807141,15.6161607" fill="#000000"></path>
        <path d="M29.1914284,31.5445536 C27.4057141,27.5088393 21.3432141,23.9641964 29.1914284,17.7588393 C39.012857,10.0266964 33.9592855,4.99991071 33.9592855,4.99991071 C35.9860712,12.9909821 26.8164284,15.4016964 23.4949998,20.3749107 C21.2360712,23.7677679 24.6021427,27.410625 29.1914284,31.5445536" fill="#000000"></path>
        <path d="M22.771607,42.4197321 C15.334107,44.5000893 27.2983927,48.7947321 36.771607,44.7322321 C35.8430355,44.3777679 34.9474998,43.9447321 34.0930355,43.4375893 C30.8073212,44.1884821 27.4126784,44.3340179 24.0751784,43.8661607 C20.9233927,43.4911607 22.771607,42.4197321 22.771607,42.4197321" fill="#000000"></path>
        <path d="M35.637857,38.3661607 C31.3932141,39.2902679 27.0235712,39.5009821 22.7092855,38.9911607 C19.5396427,38.6608036 21.6110712,37.1250893 21.6110712,37.1250893 C13.4146427,39.8036607 26.1735712,42.9286607 37.6199998,39.5804464 C36.8833927,39.3161607 36.2083927,38.9027679 35.637857,38.3661607" fill="#000000"></path>
        <path d="M43.8967855,46.3390179 L44.0396427,46.4015179 C44.1762498,46.4711607 44.2976784,46.5684821 44.3967855,46.6872321 C44.4664284,46.7533036 44.5235712,46.831875 44.5664284,46.9184821 C44.5958927,47.0086607 44.5958927,47.1059821 44.5664284,47.1952679 C44.537857,47.3122321 44.475357,47.4175893 44.387857,47.4988393 C44.2449998,47.6309821 44.0824998,47.7390179 43.9057141,47.8202679 C43.6182141,47.9559821 43.319107,48.0666964 43.012857,48.150625 C42.1735712,48.3908036 41.3208927,48.5783036 40.4592855,48.713125 C39.450357,48.8827679 38.3074998,49.025625 37.075357,49.150625 C35.8423212,49.2765179 34.5217855,49.3738393 33.1557141,49.4452679 C31.7896427,49.5175893 30.387857,49.5613393 28.9860712,49.5791964 C27.5842855,49.5970536 26.1914284,49.5791964 24.8432141,49.5791964 C23.4949998,49.5791964 22.1646427,49.4640179 21.0217855,49.3479464 C19.8789284,49.231875 18.7449998,49.0890179 17.7985712,48.9095536 C16.9976784,48.7720536 16.2137498,48.550625 15.4592855,48.2488393 C15.2905355,48.1827679 15.1360712,48.0863393 15.0039284,47.963125 C14.9226784,47.8908036 14.8771427,47.7872321 14.8789284,47.6783036 C14.8932141,47.5720536 14.9432141,47.4738393 15.0217855,47.400625 C15.1217855,47.2997321 15.2360712,47.2122321 15.3610712,47.1416964 C15.5101784,47.0550893 15.6655355,46.9774107 15.825357,46.9104464 L16.3521427,46.7050893 L16.8699998,46.5434821 L17.3164284,46.4363393 L17.6914284,46.3649107 L18.0217855,46.3113393 L18.3074998,46.3113393 L18.5485712,46.3113393 L18.9860712,46.3113393 C18.6601784,46.125625 18.2896427,46.0327679 17.9146427,46.0434821 C17.387857,46.0336607 16.8610712,46.0783036 16.3432141,46.1774107 C15.7387498,46.2854464 15.1414284,46.4345536 14.5574998,46.6238393 C13.9949998,46.8050893 13.4458927,47.025625 12.9146427,47.2854464 C12.475357,47.4908036 12.0637498,47.7524107 11.6914284,48.0622321 C11.4280355,48.250625 11.2512498,48.5363393 11.200357,48.856875 C11.2244641,49.1836607 11.437857,49.4658036 11.7449998,49.5800893 C12.3387498,49.8640179 12.975357,50.0479464 13.6289284,50.1247321 C16.0396427,50.5175893 18.4057141,50.7854464 20.6735712,50.9550893 C22.9414284,51.1247321 25.137857,51.1961607 27.1914284,51.1872321 C29.2449998,51.1774107 31.200357,51.0890179 32.9860712,50.9283036 C34.7717855,50.7666964 36.4057141,50.5613393 37.8432141,50.3024107 C39.0985712,50.0827679 40.3387498,49.7845536 41.5574998,49.4095536 C42.387857,49.1747321 43.1860712,48.8354464 43.9324998,48.4015179 C44.3619641,48.2149107 44.6699998,47.8265179 44.7530355,47.3649107 C44.6592855,46.9658036 44.3807141,46.6345536 44.0030355,46.4720536 C43.975357,46.4220536 43.9396427,46.3774107 43.8967855,46.3390179" fill="#000000"></path>
        <path d="M37.262857,34.5801786 C37.9682141,34.1283929 38.7083927,33.73375 39.4771427,33.4016071 C39.4771427,33.4016071 36.0217855,33.8569643 32.3342855,34.1694643 C28.4762498,34.5498214 24.5923212,34.5917857 20.7271427,34.2944643 C16.1021427,33.6783929 20.9414284,32.3033929 22.8967855,31.82125 C22.9458927,31.82125 22.9860712,31.7810714 22.9860712,31.7319643 C22.9860712,31.6828571 22.9458927,31.6426786 22.8967855,31.6426786 C20.5199998,31.7730357 18.194107,32.3801786 16.0574998,33.4283929 C11.075357,35.8391071 28.325357,36.9283929 37.262857,34.5801786" fill="#000000"></path>
        <path d="M39.4324998,40.4552679 C39.3887498,40.5463393 39.3280355,40.6275893 39.2539284,40.6963393 C51.3789284,37.5088393 46.9235712,29.4641964 41.1289284,31.4999107 C40.8155355,31.6159821 40.5449998,31.8249107 40.3521427,32.098125 C40.6896427,31.979375 41.0360712,31.8874107 41.387857,31.8213393 C44.2985712,31.1963393 48.512857,35.7320536 39.4324998,40.4552679" fill="#000000"></path>
        <path d="M39.7626784,51.6072321 C32.4733927,52.858125 25.034107,52.9733036 17.709107,51.9465179 C17.709107,51.9465179 20.8430355,53.6697321 26.5662498,54.0358036 C35.2805355,54.589375 46.6376784,52.9277679 46.959107,48.8036607 C46.9769641,48.7679464 46.3519641,50.3661607 39.7626784,51.6072321" fill="#000000"></path>
    </g>
</svg>