<svg id="Layer_1" data-name="Layer 1" xmlns="http://www.w3.org/2000/svg" viewBox="0 0 55.08 49.92"><defs><style>.cls-1{fill:#abadac;}</style></defs><title>icn</title><path class="cls-1" d="M53.81,19.83l-.26-2.69-2.5,1c-.08,0-1.74.72-3.59,1.69a44.56,44.56,0,0,0-14.57-4.95l-.37,0V0L29.74,1.5,22.68,5.1l-1.15.56v9.23l-.11,0C8.57,16.45,0,23.53,0,32.53c0,8.2,7.83,14.94,19.89,17.16a13.74,13.74,0,0,0,2.47.23,13.34,13.34,0,0,0,5.38-1.12l3.71-1.68,1.08-.52v-23a18.8,18.8,0,0,1,5.18,1.76,5.77,5.77,0,0,0-.91.7l-2.51,2.6,3.57.76,14.55,3.1,2.67.57-.26-2.72ZM30.53,45.29,26.82,47a11.09,11.09,0,0,1-4.5,1,11.2,11.2,0,0,1-2.06-.19c-10.95-2-18.33-8.05-18.33-15.2,0-7.75,7.61-14.2,19.61-15.63v4.68c-8,1.34-12.85,5.74-12.85,11,0,5.41,5.85,9.93,14.85,11.08V6.87l7-3.6Zm-9-21.68V41.25c-6-1.37-10.85-4.79-10.85-8.72C10.68,28.28,15.53,24.8,21.53,23.61Zm16.77,3.87a33.67,33.67,0,0,1,3.54-2.25,33.47,33.47,0,0,0-9.3-3.66V16.9A42.73,42.73,0,0,1,47.3,22.16,43.51,43.51,0,0,1,51.75,20l1,10.55Z"/></svg>