<svg id="Layer_1" data-name="Layer 1" xmlns="http://www.w3.org/2000/svg" viewBox="0 0 67.47 16.65"><defs><style>.cls-1{fill:#abadac;}</style></defs><title>icn</title><path class="cls-1" d="M14.71,8.16a3.91,3.91,0,0,0-1.64-.89A9.38,9.38,0,0,0,10.49,7H5.88A3.28,3.28,0,0,1,4.8,6.82a1.78,1.78,0,0,1-.68-.41,1.43,1.43,0,0,1-.36-.58,2.18,2.18,0,0,1-.1-.67Q3.66,3,6.39,3H15V0H5.84A9.24,9.24,0,0,0,3.09.35a4.52,4.52,0,0,0-1.78,1,3.72,3.72,0,0,0-1,1.57A7.26,7.26,0,0,0,0,5,4.65,4.65,0,0,0,1.33,8.67,6.22,6.22,0,0,0,5.56,9.86H9.68A4.73,4.73,0,0,1,11,10a1.84,1.84,0,0,1,.73.38,1.06,1.06,0,0,1,.31.52,2.43,2.43,0,0,1,.07.57,3.68,3.68,0,0,1-.1.91,1.42,1.42,0,0,1-.39.68,1.92,1.92,0,0,1-.81.43,5.11,5.11,0,0,1-1.38.15H.69v3H10a9.63,9.63,0,0,0,2.77-.34,4.31,4.31,0,0,0,1.77-1,3.68,3.68,0,0,0,1-1.56,8,8,0,0,0,.34-2.1,7.36,7.36,0,0,0-.25-2A3.26,3.26,0,0,0,14.71,8.16ZM23,0,16,16.65h3.7l1.44-4h7.25l1.53,4h3.89L26.67,0Zm-.72,9.73,2.45-6.37,2.52,6.37Zm22.21,3L40.24,0H35.08V16.65h3.59L38.3,3.59l4.38,13.06H46.4L50.64,3.7l-.28,12.94h3.45V0H48.69ZM63.3,13.89a6.65,6.65,0,0,1-2.18-.28A2.11,2.11,0,0,1,60,12.76a3.26,3.26,0,0,1-.43-1.48q-.07-.9-.07-2.13V0H56V9.91a10.17,10.17,0,0,0,.51,3.55,4.5,4.5,0,0,0,1.44,2,5,5,0,0,0,2.21.93,16.84,16.84,0,0,0,2.84.22h4.45V13.89Z"/></svg>