<?xml version="1.0" encoding="UTF-8" standalone="no"?>
<svg width="41px" height="36px" viewBox="0 0 41 36" version="1.1" xmlns="http://www.w3.org/2000/svg" xmlns:xlink="http://www.w3.org/1999/xlink">
    <!-- Generator: Sketch 39.1 (31720) - http://www.bohemiancoding.com/sketch -->
    <title>Shape</title>
    <desc>Created with Sketch.</desc>
    <defs></defs>
    <g id="Page-1" stroke="none" stroke-width="1" fill="none" fill-rule="evenodd">
        <path d="M0.59,26.13 C3.49462581,29.3109891 7.04331671,31.8370025 11,33.54 C17.9,36.49 24.9,36.42 30.21,33.36 L30.32,33.3 C35.8,31 39,32.39 40.88,34.58 C40.6866139,31.3154695 39.4570266,28.1977127 37.37,25.68 L37.29,25.59 C37.0741999,25.3317259 37.0027958,24.9822212 37.1,24.66 C37.17,24.42 37.24,24.17 37.3,23.93 C39.36,16.03 35.44,6.54 27.83,0.14 C30.65,5.68 31.47,11.54 30.06,16.68 C29.8882901,17.3143843 29.6813014,17.9386888 29.44,18.55 C29.3238172,18.8149423 29.0985897,19.0165863 28.8224614,19.1028764 C28.5463331,19.1891665 28.2463665,19.1516456 28,19 C27.81,18.87 27.56,18.72 27.25,18.55 C22.4412055,15.4355865 17.8596792,11.9835684 13.54,8.22 C15.47,10.64 17.7,13.22 20.01,15.7 C20.3558307,16.0587991 20.3847102,16.6174654 20.0777192,17.0100112 C19.7707283,17.402557 19.2215686,17.509167 18.79,17.26 C14.7650597,14.7264146 10.8856154,11.9687374 7.17,9 C11.8340586,14.8377272 17.1446033,20.1281436 23,24.77 C23.2636424,24.9693112 23.4117783,25.2860131 23.3957727,25.6161284 C23.3797672,25.9462436 23.2016876,26.2471291 22.92,26.42 C17,30 8.94,30 1.27,26.46 L0.59,26.13 Z" id="Shape" fill="#000000"></path>
    </g>
</svg>