<?xml version="1.0" encoding="UTF-8" standalone="no"?>
<svg width="15px" height="16px" viewBox="0 0 15 16" version="1.1" xmlns="http://www.w3.org/2000/svg" xmlns:xlink="http://www.w3.org/1999/xlink">
    <defs></defs>
    <g id="Page-1" stroke="none" stroke-width="1" fill="none" fill-rule="evenodd">
        <g id="Social_Authentication" transform="translate(1.000000, 0.000000)" fill-rule="nonzero" stroke="#5D5D5D" stroke-width="0.2" fill="#5D5D5D">
            <g id="Layer_1_21_">
                <g id="Group">
                    <path d="M6.92077273,15.3366818 C6.89531818,15.3366818 6.86986364,15.33 6.84695455,15.3169545 L3.39181818,13.3190909 C1.30931818,12.1695 0.0143181818,10.1181818 0.0143181818,7.96727273 L0.0143181818,1.029 C0.0143181818,0.952954545 0.0715909091,0.889636364 0.147318182,0.882 L6.90613636,0.202363636 L13.6948636,0.882 C13.7705909,0.889636364 13.8278636,0.953272727 13.8278636,1.029 L13.8278636,7.96695455 C13.8278636,10.1175455 12.5331818,12.1682273 10.4487727,13.3197273 L6.99459091,15.3166364 C6.97168182,15.33 6.94622727,15.3366818 6.92077273,15.3366818 Z M0.309590909,1.16231818 L0.309590909,7.96663636 C0.309590909,10.01 1.54604545,11.9623636 3.53690909,13.0610455 L6.92077273,15.0181818 L10.3020909,13.0629545 C10.3030455,13.0623182 10.3036818,13.062 10.3046364,13.0613636 C12.2951818,11.9623636 13.5319545,10.0103182 13.5319545,7.96695455 L13.5319545,1.16263636 L6.90581818,0.496363636 L0.309590909,1.16231818 Z" id="Shape"></path>
                    <g transform="translate(5.090909, 7.000000)" id="Shape">
                        <path d="M1.91481818,2.40640909 C1.33127273,2.40640909 0.856227273,1.93136364 0.856227273,1.34781818 C0.856227273,0.764272727 1.33127273,0.289227273 1.91481818,0.289227273 C2.49836364,0.289227273 2.97340909,0.763954545 2.97340909,1.34781818 C2.97340909,1.93168182 2.49868182,2.40640909 1.91481818,2.40640909 Z M1.91481818,0.584818182 C1.49418182,0.584818182 1.15181818,0.927181818 1.15181818,1.34781818 C1.15181818,1.76845455 1.49418182,2.11081818 1.91481818,2.11081818 C2.33545455,2.11081818 2.67781818,1.76845455 2.67781818,1.34781818 C2.67781818,0.927181818 2.33577273,0.584818182 1.91481818,0.584818182 Z"></path>
                        <path d="M1.91481818,5.48481818 C1.40413636,5.48481818 0.934181818,5.43677273 0.517363636,5.34259091 C0.347136364,5.30409091 0.200454545,5.19495455 0.113909091,5.04318182 C0.0276818182,4.89140909 0.00922727273,4.70909091 0.0633181818,4.543 L0.462954545,3.31322727 C0.579409091,2.954 0.911909091,2.71281818 1.28959091,2.71281818 L2.54036364,2.71281818 C2.91804545,2.71281818 3.25022727,2.954 3.367,3.31322727 L3.76663636,4.543 C3.82040909,4.70909091 3.80227273,4.89140909 3.71604545,5.04318182 C3.62981818,5.19495455 3.48281818,5.30409091 3.31259091,5.34259091 C2.89545455,5.43709091 2.4255,5.48481818 1.91481818,5.48481818 Z M1.28959091,3.00840909 C1.04045455,3.00840909 0.821227273,3.1675 0.744227273,3.40454545 L0.344590909,4.63431818 C0.315954545,4.72277273 0.325181818,4.81631818 0.371318182,4.89713636 C0.417136364,4.97795455 0.492545455,5.03363636 0.583227273,5.05431818 C0.854636364,5.11604545 1.30645455,5.18922727 1.91513636,5.18922727 C2.40386364,5.18922727 2.85186364,5.14372727 3.24704545,5.05431818 C3.33772727,5.03363636 3.41313636,4.97795455 3.45895455,4.89713636 C3.50509091,4.81631818 3.51431818,4.72277273 3.48568182,4.63431818 L3.08604545,3.40454545 L3.08604545,3.40454545 C3.00904545,3.1675 2.78981818,3.00840909 2.54068182,3.00840909 L1.28959091,3.00840909 Z"></path>
                    </g>
                    <g transform="translate(8.590909, 2.227273)" id="Shape">
                        <path d="M1.94854545,2.36472727 C1.365,2.36472727 0.889954545,1.88968182 0.889954545,1.30613636 C0.889954545,0.722590909 1.365,0.247545455 1.94854545,0.247545455 C2.53209091,0.247545455 3.00713636,0.722590909 3.00713636,1.30613636 C3.00713636,1.88968182 2.53209091,2.36472727 1.94854545,2.36472727 Z M1.94854545,0.543136364 C1.52790909,0.543136364 1.18554545,0.8855 1.18554545,1.30613636 C1.18554545,1.72677273 1.52790909,2.06913636 1.94854545,2.06913636 C2.36918182,2.06913636 2.71154545,1.72677273 2.71154545,1.30613636 C2.71154545,0.885181818 2.36918182,0.543136364 1.94854545,0.543136364 Z"></path>
                        <path d="M1.94854545,5.44313636 C1.43786364,5.44313636 0.967909091,5.39509091 0.551090909,5.30090909 C0.380863636,5.26240909 0.234181818,5.15327273 0.147636364,5.0015 C0.0614090909,4.84972727 0.0429545455,4.66740909 0.0970454545,4.50131818 L0.496681818,3.27154545 C0.613136364,2.91231818 0.945318182,2.67113636 1.323,2.67113636 L2.57409091,2.67113636 C2.95145455,2.67113636 3.28363636,2.91231818 3.40072727,3.27154545 L3.40072727,3.27154545 L3.80004545,4.50131818 C3.85381818,4.66740909 3.83568182,4.84972727 3.74945455,5.0015 C3.66322727,5.15295455 3.51622727,5.26209091 3.346,5.30090909 C2.92918182,5.39509091 2.45890909,5.44313636 1.94854545,5.44313636 Z M1.32268182,2.96640909 C1.07354545,2.96640909 0.854636364,3.1255 0.777636364,3.36254545 L0.378,4.59231818 C0.349363636,4.68077273 0.358590909,4.77431818 0.404727273,4.85513636 C0.450545455,4.93595455 0.525954545,4.99163636 0.616636364,5.01231818 C1.01181818,5.10172727 1.45981818,5.14722727 1.94854545,5.14722727 C2.55754545,5.14722727 3.00872727,5.07372727 3.28013636,5.01231818 C3.37081818,4.99163636 3.44622727,4.93595455 3.49204545,4.85513636 C3.53818182,4.77431818 3.54740909,4.68077273 3.51877273,4.59231818 L3.11945455,3.36254545 C3.04213636,3.1255 2.82290909,2.96640909 2.57409091,2.96640909 L1.32268182,2.96640909 Z"></path>
                    </g>
                    <g transform="translate(1.272727, 2.227273)" id="Shape">
                        <path d="M2.11463636,2.33290909 C1.53109091,2.33290909 1.05604545,1.85786364 1.05604545,1.27431818 C1.05604545,0.690772727 1.53109091,0.215727273 2.11463636,0.215727273 C2.69818182,0.215727273 3.17322727,0.690772727 3.17322727,1.27431818 C3.17322727,1.85786364 2.6985,2.33290909 2.11463636,2.33290909 Z M2.11463636,0.511318182 C1.694,0.511318182 1.35163636,0.853681818 1.35163636,1.27431818 C1.35163636,1.69495455 1.694,2.03731818 2.11463636,2.03731818 C2.53527273,2.03731818 2.87763636,1.69495455 2.87763636,1.27431818 C2.87763636,0.853363636 2.53559091,0.511318182 2.11463636,0.511318182 Z"></path>
                        <path d="M2.11463636,5.44313636 C1.60395455,5.44313636 1.134,5.39509091 0.717181818,5.30090909 C0.546954545,5.26240909 0.400272727,5.15327273 0.313727273,5.0015 C0.2275,4.84972727 0.209045455,4.66740909 0.263136364,4.50131818 L0.662772727,3.27154545 C0.779227273,2.91231818 1.11172727,2.67113636 1.48940909,2.67113636 L2.74018182,2.67113636 C3.11786364,2.67113636 3.45004545,2.91231818 3.56681818,3.27154545 L3.96645455,4.50131818 C4.02022727,4.66740909 4.00209091,4.84972727 3.91586364,5.0015 C3.82963636,5.15327273 3.68263636,5.26240909 3.51240909,5.30090909 C3.09527273,5.39509091 2.62531818,5.44313636 2.11463636,5.44313636 Z M1.48940909,2.96640909 C1.24027273,2.96640909 1.02104545,3.1255 0.944045455,3.36254545 L0.544409091,4.59231818 C0.515772727,4.68077273 0.525,4.77431818 0.571136364,4.85513636 C0.616954545,4.93595455 0.692363636,4.99163636 0.783045455,5.01231818 C1.17822727,5.10172727 1.62622727,5.14722727 2.11495455,5.14722727 C2.72363636,5.14722727 3.17545455,5.07372727 3.44686364,5.01231818 C3.53754545,4.99163636 3.61295455,4.93595455 3.65877273,4.85513636 C3.70490909,4.77431818 3.71413636,4.68077273 3.6855,4.59231818 L3.28586364,3.36254545 L3.28586364,3.36254545 C3.20886364,3.1255 2.98963636,2.96640909 2.7405,2.96640909 L1.48940909,2.96640909 Z"></path>
                    </g>
                </g>
            </g>
        </g>
    </g>
</svg>
