<?xml version="1.0" encoding="utf-8"?>
<!-- Generator: Adobe Illustrator 16.0.4, SVG Export Plug-In . SVG Version: 6.00 Build 0)  -->
<!DOCTYPE svg PUBLIC "-//W3C//DTD SVG 1.1//EN" "http://www.w3.org/Graphics/SVG/1.1/DTD/svg11.dtd">
<svg version="1.1" id="Layer_1" xmlns="http://www.w3.org/2000/svg" xmlns:xlink="http://www.w3.org/1999/xlink" x="0px" y="0px" width="20px" height="20px" viewBox="0 0 20 20" enable-background="new 0 0 20 20" xml:space="preserve">
	
	<path fill="#999999" d="M16,10v8H4v-8H16 M18,8H2v12h16V8L18,8z"/>
	<rect x="4" y="6" fill="#999999" width="2" height="3"/>
	<rect x="14" y="6" fill="#999999" width="2" height="3"/>
	<path fill="#999999" d="M10,2c2.205,0,4,1.795,4,4h2c0-3.312-2.686-6-6-6l0,0C6.686,0,4,2.688,4,6h2C6,3.795,7.794,2,10,2"/>
	<rect x="6" y="16" fill="#999999" width="9" height="1"/>
	<rect x="7" y="14" fill="#999999" width="8" height="1"/>
	<rect x="8" y="12" fill="#999999" width="7" height="1"/>

</svg>
