<svg width="36" height="48" viewBox="0 0 36 48" fill="none" xmlns="http://www.w3.org/2000/svg">
<g opacity="0.9">
<path d="M25.4161 47.1401C25.031 46.819 24.7101 46.4979 24.4534 46.0483C24.1966 46.3052 24.5175 46.7548 24.1966 46.819C23.7473 46.8832 23.2338 46.8832 22.7845 46.819C22.592 46.819 22.6562 46.4979 22.6562 46.3052C22.6562 42.6444 22.6562 39.0479 22.6562 35.3871C22.6562 35.0018 22.7846 34.8733 23.1697 34.8733C24.5175 34.8091 24.5175 34.8091 24.5175 36.1578C24.5175 36.9285 24.5175 37.6992 24.5175 38.4057C24.5175 38.4057 24.5175 38.4699 24.5817 38.5341C25.1594 37.8276 25.8654 37.635 26.6998 37.9561C27.5984 38.2772 27.9835 38.9837 28.2403 39.8186C28.7537 41.6169 28.6896 43.4151 28.2403 45.2134C28.0477 46.0483 27.47 46.6906 26.764 47.2043C26.3147 47.1401 25.8654 47.1401 25.4161 47.1401ZM26.6998 42.516C26.6998 41.8095 26.6998 41.0388 26.4431 40.3324C26.3147 39.947 26.058 39.6259 25.6087 39.5617C25.1594 39.5617 24.9027 39.8828 24.7743 40.2681C24.325 41.7453 24.325 43.1582 24.7743 44.6354C24.9027 45.0207 25.1594 45.2776 25.5445 45.2776C25.9938 45.2776 26.2505 44.9565 26.3789 44.5712C26.6356 43.9931 26.6998 43.2225 26.6998 42.516Z" fill="#00297A"/>
<path d="M10.0147 47.1403C8.85937 46.4338 8.47425 45.342 8.2817 44.1217C8.08914 42.5804 8.08914 41.039 8.60262 39.5618C9.24447 37.7636 10.7207 37.314 12.2612 38.5342C12.2612 37.5067 12.2612 36.5433 12.2612 35.5157C12.2612 35.0661 12.3896 34.8735 12.8388 34.8735C14.1226 34.8735 14.1226 34.8735 14.1226 36.158C14.1226 39.4334 14.1226 42.773 14.1226 46.0484C14.1226 46.3696 14.4435 46.9476 13.6732 46.8834C13.1598 46.8191 12.2612 47.3329 12.3254 46.1127C12.0686 46.6265 11.6835 46.8834 11.2342 47.2045C10.8491 47.1403 10.464 47.1403 10.0147 47.1403ZM12.3895 42.6446C12.3895 41.8097 12.3254 41.1032 12.0686 40.3967C11.9402 40.0114 11.6835 39.626 11.17 39.626C10.7207 39.626 10.464 40.0114 10.3356 40.3967C9.88633 41.8097 9.88633 43.2868 10.3356 44.6997C10.464 45.0851 10.7207 45.4062 11.17 45.4062C11.6835 45.4062 11.8761 45.0209 12.0044 44.6355C12.3254 43.9291 12.3254 43.2226 12.3895 42.6446Z" fill="#00297A"/>
<path d="M31.5139 47.1404C29.9735 46.3054 29.5884 44.8925 29.5242 43.2869C29.46 42.1309 29.46 40.9106 29.9735 39.8188C30.4869 38.4701 31.5139 37.7637 32.7334 37.8279C33.9529 37.8921 34.8515 38.6628 35.3008 40.0757C35.5575 40.9106 35.5575 41.7455 35.6217 42.6447C35.6217 43.03 35.4933 43.2227 35.1082 43.1585C34.0813 43.1585 32.9901 43.1585 31.9632 43.1585C31.5781 43.1585 31.3855 43.2869 31.4497 43.6723C31.5139 43.9934 31.5781 44.3145 31.7064 44.6356C31.8348 45.0852 32.1557 45.3421 32.6692 45.3421C33.1185 45.3421 33.4394 45.0852 33.5036 44.6998C33.5678 44.3787 33.7603 44.2503 34.1455 44.2503C34.5947 44.3145 35.044 44.2503 35.4933 44.2503C35.3008 45.599 34.7231 46.5623 33.5036 47.0761C32.7334 47.1404 32.1557 47.1404 31.5139 47.1404ZM32.4125 41.6813C32.7976 41.4244 33.5036 42.0667 33.5678 41.2317C33.632 40.2684 33.1827 39.6261 32.605 39.6261C31.9632 39.6261 31.3855 40.3326 31.4497 41.296C31.4497 42.0667 32.1557 41.4244 32.4125 41.6813Z" fill="#00297A"/>
<path d="M17.5852 47.1406C16.0448 46.3699 15.5313 45.0212 15.4029 43.4156C15.3388 42.2596 15.3388 41.0393 15.7239 39.9475C16.1732 38.5988 17.1359 37.8281 18.4196 37.8281C19.6391 37.8281 20.6661 38.5346 21.1154 39.9475C21.6931 41.6816 21.6289 43.3514 21.1154 45.0854C20.7945 46.0488 20.1526 46.691 19.3182 47.2048C18.6764 47.1406 18.0987 47.1406 17.5852 47.1406ZM17.2643 42.4523C17.2643 43.1587 17.3285 43.8652 17.521 44.5074C17.6494 44.957 17.9061 45.3423 18.4196 45.3423C18.9331 45.3423 19.1899 45.0212 19.3182 44.5074C19.6392 43.0945 19.6392 41.7458 19.3182 40.3329C19.1899 39.8833 18.9331 39.5622 18.4838 39.5622C17.9703 39.5622 17.7136 39.8833 17.521 40.3329C17.2643 41.0393 17.2001 41.7458 17.2643 42.4523Z" fill="#00297A"/>
<path d="M22.1426 0.0643616C25.4802 0.0643616 28.6894 0.0643616 31.8987 0.0643616C32.7973 0.0643616 33.6958 0.0643616 34.5944 0.0643616C35.0437 0.0643616 35.1721 0.19281 35.1721 0.642378C35.1721 2.37643 35.1721 4.11048 35.1721 5.84453C35.1721 13.7441 35.1721 21.6436 35.1721 29.5432C35.1721 29.6716 35.1721 29.8001 35.0437 29.9285C30.6792 20.038 26.443 10.1475 22.1426 0.0643616Z" fill="#00297A"/>
<path d="M12.5802 0.064224C8.40823 10.0832 4.30038 19.9094 0.192547 29.7999C0.128362 29.7999 0.128374 29.7999 0.0641888 29.7999C0.0641888 29.4788 0.0641888 29.2219 0.0641888 28.9008C0.0641888 19.5883 0.0641849 10.2116 0 0.899136C0 0.256896 0.128362 0 0.834396 0C4.74968 0.128448 8.60078 0.064224 12.5802 0.064224Z" fill="#00297A"/>
<path d="M12.0021 24.0838C13.7993 19.8451 15.5964 15.7347 17.4578 11.5602C18.6773 14.386 19.8326 17.0834 21.0522 19.7166C22.4642 22.992 23.9405 26.2675 25.3525 29.4787C25.5451 29.9924 25.6093 30.1851 24.9032 30.1851C23.5554 30.1209 22.2075 30.1209 20.8596 30.1851C20.4103 30.1851 20.1536 30.0567 20.0252 29.6071C19.3833 27.9373 18.6773 26.3317 18.0355 24.6619C17.8429 24.2123 17.6504 24.0196 17.1369 24.0196C15.4681 24.0838 13.7993 24.0838 12.0021 24.0838Z" fill="#00297A"/>
<path d="M7.95887 46.7549C7.8305 46.7549 7.76632 46.8192 7.70213 46.8192C5.90496 46.8834 5.90496 46.8834 5.51985 45.1493C5.45567 44.764 5.3273 44.5071 4.878 44.5713H4.81382C3.01664 44.5071 3.01664 44.5071 2.56735 46.2411C2.50316 46.6265 2.37479 46.8192 1.9255 46.7549C1.41202 46.6907 0.962734 46.7549 0.385071 46.7549C0.834364 44.6998 1.34783 42.7088 1.79712 40.7179C2.18223 38.9838 2.63152 37.2498 3.01663 35.5157C3.145 35.0019 3.33757 34.6808 3.91523 34.8093C4.17197 34.8735 4.49289 34.8093 4.74963 34.8093C5.07055 34.745 5.19891 34.9377 5.2631 35.2588C6.16168 39.1123 7.06028 42.9657 7.95887 46.7549ZM4.23616 38.5343C4.17197 38.5343 4.17196 38.5343 4.10778 38.47C3.91523 39.4334 3.72267 40.3968 3.53012 41.3601C3.27338 42.5162 3.27338 42.5161 4.4287 42.5161C4.94218 42.5161 4.94219 42.3235 4.878 41.9381C4.62127 40.8463 4.42871 39.6903 4.23616 38.5343Z" fill="#00297A"/>
</g>
</svg>
