<svg width="63" height="19" viewBox="0 0 63 19" fill="none" xmlns="http://www.w3.org/2000/svg">
<path d="M8.00092 0.171875C6.68225 0.171875 5.52639 1.03472 5.15198 2.30451L0.626221 17.868H3.60536L4.94029 13.3585C4.95664 13.3096 4.98917 13.2771 5.03796 13.2771H11.0127C11.0615 13.2771 11.0941 13.3096 11.1103 13.3585L12.4127 17.868H15.3756L10.8336 2.30451C10.4754 1.03472 9.31958 0.171875 8.00092 0.171875ZM10.3778 11.0305C10.3615 11.063 10.3289 11.063 10.2964 11.063H5.73799C5.70547 11.063 5.67294 11.0468 5.65659 11.0305C5.64033 10.9979 5.64033 10.9653 5.65659 10.9328L7.91951 3.08595C7.93577 3.03708 7.96839 3.00455 8.01718 3.00455C8.06606 3.02081 8.08232 3.05334 8.09859 3.08595L10.3778 10.9328C10.3778 10.9653 10.3778 10.9979 10.3778 11.0305ZM24.2155 6.71634H27.0808V17.8842H24.8342L24.5249 16.94C24.5086 16.9074 24.4923 16.8749 24.4597 16.8586C24.4272 16.8423 24.3946 16.8423 24.3621 16.8586C23.3039 17.6564 22.0341 18.0958 20.7154 18.1122C19.2177 18.1122 17.8501 17.2168 17.2641 15.833C17.0687 15.3772 16.971 14.905 16.971 14.4167V6.71634H19.8363V14.2538C19.8363 15.1492 20.5851 15.8818 21.4805 15.8818C22.4085 15.833 23.3201 15.5888 24.1341 15.1492C24.1667 15.133 24.1993 15.1004 24.183 15.0678L24.2155 6.71634ZM48.472 10.1676V17.8842H45.6234V10.3305C45.6234 9.90716 45.4443 9.48387 45.1351 9.19086C44.8257 8.8815 44.4188 8.71869 43.9792 8.71869C43.0512 8.76757 42.1396 9.01179 41.3093 9.45134C41.2767 9.46761 41.2605 9.50013 41.2605 9.54901V17.8842H38.3953V0.41609H41.2605V7.41638C41.2605 7.4489 41.2767 7.49778 41.3093 7.51404C41.3419 7.53031 41.3907 7.53031 41.4233 7.51404C42.4163 6.86288 43.5722 6.50465 44.7443 6.48838C46.7797 6.50465 48.4232 8.13268 48.4395 10.1676H48.472ZM33.8858 6.71634H35.6276V8.93038H33.8858C33.8531 8.93038 33.8369 8.94664 33.8044 8.96291C33.788 8.97917 33.7717 9.01179 33.7717 9.04431V15.0353C33.7717 15.5074 34.1625 15.8981 34.6509 15.8981C34.9113 15.8981 35.2857 15.8981 35.6276 15.8493V17.868C35.0579 18.0308 34.4718 18.1284 33.8858 18.1122C32.2577 18.1122 30.9391 16.8098 30.9228 15.1818V9.02805C30.9228 8.96291 30.874 8.93038 30.8089 8.91412H29.0994V6.70007H30.8414C30.9065 6.70007 30.9391 6.6512 30.9553 6.58605V2.90688H33.8206V6.58605C33.8044 6.6512 33.8369 6.70007 33.8858 6.71634ZM61.2521 2.66266C60.2754 1.11613 58.5822 0.188137 56.7589 0.188137C54.9356 0.188137 53.2425 1.11613 52.2658 2.66266C51.1753 4.25808 50.5889 6.50465 50.5889 9.15825C50.4913 11.4537 51.0931 13.7166 52.2821 15.6702C53.2588 17.2168 54.9519 18.1447 56.7752 18.1447C58.5985 18.1447 60.2916 17.2168 61.2683 15.6702C62.3751 14.0585 62.9452 11.8118 62.9452 9.1746C62.9452 6.53726 62.3589 4.25808 61.2683 2.66266H61.2521ZM58.9075 14.4004C58.3545 15.4097 57.6543 15.8981 56.7752 15.8981C55.9124 15.8981 55.2121 15.3772 54.642 14.4004C53.8939 12.7561 53.5352 10.9653 53.6166 9.15825C53.5352 7.35123 53.8939 5.54421 54.642 3.88366C55.1959 2.87426 55.8961 2.38592 56.7589 2.38592C57.6218 2.38592 58.3383 2.87426 58.8912 3.88366C59.6402 5.52786 59.998 7.3187 59.9167 9.12572C60.0152 10.9491 59.6728 12.7561 58.9075 14.4004Z" fill="black"/>
</svg>
