<svg width="124" height="124" viewBox="0 0 124 124" fill="none" xmlns="http://www.w3.org/2000/svg">
<path d="M30.4865 72.7258L26.7969 61.3718L36.4583 54.354C38.8356 61.6381 36.4583 68.3896 30.4865 72.7258ZM36.4583 54.354L32.7687 43H20.8251L24.4957 54.354H36.4583ZM20.8251 43H8.88158L5.21102 54.354H17.1546L20.8251 43ZM5.19201 54.354C2.83372 61.6381 5.19201 68.3896 11.1638 72.7258L14.8343 61.3718L5.19201 54.354ZM11.1638 72.7258L20.8251 79.7436L30.4865 72.7258L20.8251 65.708L11.1638 72.7258Z" fill="#EB5424"/>
<path d="M54.1834 51C52.6429 51 51.2926 52.008 50.8551 53.4914L45.568 71.673H49.0484L50.6079 66.4049C50.6269 66.3478 50.665 66.3098 50.722 66.3098H57.7018C57.7588 66.3098 57.7969 66.3478 57.8159 66.4049L59.3373 71.673H62.7987L57.4926 53.4914C57.0742 52.008 55.7239 51 54.1834 51ZM56.96 63.6852C56.941 63.7233 56.903 63.7233 56.865 63.7233H51.5398C51.5018 63.7233 51.4637 63.7043 51.4447 63.6852C51.4257 63.6472 51.4257 63.6092 51.4447 63.5711L54.0883 54.4043C54.1073 54.3472 54.1453 54.3092 54.2024 54.3092C54.2594 54.3282 54.2785 54.3662 54.2975 54.4043L56.96 63.5711C56.96 63.6092 56.96 63.6472 56.96 63.6852ZM73.1257 58.6454H76.4729V71.692H73.8484L73.487 70.5889C73.468 70.5509 73.449 70.5129 73.411 70.4938C73.3729 70.4748 73.3349 70.4748 73.2969 70.4938C72.0607 71.4257 70.5772 71.9392 69.0367 71.9583C67.287 71.9583 65.6895 70.9122 65.0048 69.2957C64.7766 68.7632 64.6625 68.2116 64.6625 67.6411V58.6454H68.0097V67.4509C68.0097 68.4969 68.8846 69.3527 69.9306 69.3527C71.0147 69.2957 72.0797 69.0104 73.0306 68.4969C73.0686 68.4779 73.1067 68.4399 73.0877 68.4018L73.1257 58.6454ZM101.463 62.6773V71.692H98.1349V62.8675C98.1349 62.373 97.9257 61.8785 97.5643 61.5362C97.203 61.1748 96.7275 60.9846 96.214 60.9846C95.13 61.0417 94.065 61.327 93.095 61.8405C93.057 61.8595 93.038 61.8975 93.038 61.9546V71.692H89.6907V51.2853H93.038V59.4632C93.038 59.5012 93.057 59.5583 93.095 59.5773C93.1331 59.5963 93.1901 59.5963 93.2281 59.5773C94.3883 58.8165 95.7386 58.3981 97.1079 58.3791C99.4852 58.3981 101.406 60.3 101.425 62.6773H101.463ZM84.4226 58.6454H86.4576V61.2319H84.4226C84.3846 61.2319 84.3656 61.2509 84.3275 61.2699C84.3085 61.2889 84.2895 61.327 84.2895 61.365V68.3638C84.2895 68.9153 84.7459 69.3718 85.3165 69.3718C85.6208 69.3718 86.0582 69.3718 86.4576 69.3147V71.673C85.792 71.8632 85.1073 71.9773 84.4226 71.9583C82.5208 71.9583 80.9803 70.4368 80.9613 68.5349V61.346C80.9613 61.2699 80.9042 61.2319 80.8281 61.2129H78.8312V58.6264H80.8662C80.9423 58.6264 80.9803 58.5693 80.9993 58.4932V54.1951H84.3465V58.4932C84.3275 58.5693 84.3656 58.6264 84.4226 58.6454ZM116.393 53.9098C115.251 52.103 113.274 51.019 111.143 51.019C109.013 51.019 107.036 52.103 105.894 53.9098C104.62 55.7736 103.936 58.3981 103.936 61.4981C103.821 64.1797 104.525 66.8233 105.913 69.1055C107.055 70.9122 109.032 71.9963 111.163 71.9963C113.293 71.9963 115.27 70.9122 116.412 69.1055C117.705 67.2227 118.37 64.5981 118.37 61.5172C118.37 58.4362 117.686 55.7736 116.412 53.9098H116.393ZM113.654 67.6221C113.007 68.8012 112.189 69.3718 111.163 69.3718C110.155 69.3718 109.337 68.7632 108.671 67.6221C107.796 65.7012 107.378 63.6092 107.473 61.4981C107.378 59.3871 107.796 57.276 108.671 55.3362C109.318 54.157 110.136 53.5865 111.143 53.5865C112.151 53.5865 112.988 54.157 113.635 55.3362C114.51 57.257 114.928 59.3491 114.833 61.4601C114.947 63.5902 114.548 65.7012 113.654 67.6221Z" fill="white"/>
</svg>
