<svg width="125" height="125" viewBox="0 0 125 125" fill="none" xmlns="http://www.w3.org/2000/svg">
<path d="M31.2109 73.3282L27.5213 61.9742L37.1827 54.9564C39.56 62.2405 37.1827 68.992 31.2109 73.3282ZM37.1827 54.9564L33.4931 43.6024H21.5496L25.2201 54.9564H37.1827ZM21.5496 43.6024H9.606L5.93545 54.9564H17.879L21.5496 43.6024ZM5.91643 54.9564C3.55815 62.2405 5.91643 68.992 11.8882 73.3282L15.5588 61.9742L5.91643 54.9564ZM11.8882 73.3282L21.5496 80.346L31.2109 73.3282L21.5496 66.3104L11.8882 73.3282Z" fill="#EB5424"/>
<path d="M54.9077 51.6024C53.3672 51.6024 52.0169 52.6104 51.5795 54.0938L46.2924 72.2754H49.7727L51.3322 67.0073C51.3513 66.9502 51.3893 66.9122 51.4463 66.9122H58.4261C58.4832 66.9122 58.5212 66.9502 58.5402 67.0073L60.0617 72.2754H63.523L58.2169 54.0938C57.7985 52.6104 56.4482 51.6024 54.9077 51.6024ZM57.6844 64.2877C57.6654 64.3257 57.6273 64.3257 57.5893 64.3257H52.2641C52.2261 64.3257 52.1881 64.3067 52.169 64.2877C52.15 64.2496 52.15 64.2116 52.169 64.1736L54.8126 55.0067C54.8316 54.9496 54.8697 54.9116 54.9267 54.9116C54.9838 54.9306 55.0028 54.9686 55.0218 55.0067L57.6844 64.1736C57.6844 64.2116 57.6844 64.2496 57.6844 64.2877ZM73.85 59.2478H77.1973V72.2944H74.5727L74.2114 71.1913C74.1924 71.1533 74.1733 71.1153 74.1353 71.0962C74.0973 71.0772 74.0592 71.0772 74.0212 71.0962C72.785 72.0282 71.3016 72.5416 69.7611 72.5607C68.0114 72.5607 66.4138 71.5147 65.7292 69.8981C65.5009 69.3656 65.3868 68.814 65.3868 68.2435V59.2478H68.7341V68.0533C68.7341 69.0993 69.6089 69.9551 70.6549 69.9551C71.739 69.8981 72.804 69.6128 73.7549 69.0993C73.793 69.0803 73.831 69.0423 73.812 69.0042L73.85 59.2478ZM102.187 63.2797V72.2944H98.8592V63.4699C98.8592 62.9754 98.65 62.4809 98.2887 62.1386C97.9273 61.7772 97.4519 61.587 96.9384 61.587C95.8543 61.6441 94.7893 61.9294 93.8194 62.4429C93.7813 62.4619 93.7623 62.4999 93.7623 62.557V72.2944H90.4151V51.8877H93.7623V60.0656C93.7623 60.1036 93.7813 60.1607 93.8194 60.1797C93.8574 60.1987 93.9144 60.1987 93.9525 60.1797C95.1126 59.419 96.4629 59.0005 97.8322 58.9815C100.21 59.0005 102.13 60.9024 102.149 63.2797H102.187ZM85.147 59.2478H87.1819V61.8343H85.147C85.1089 61.8343 85.0899 61.8533 85.0519 61.8723C85.0328 61.8913 85.0138 61.9294 85.0138 61.9674V68.9662C85.0138 69.5177 85.4703 69.9742 86.0408 69.9742C86.3451 69.9742 86.7825 69.9742 87.1819 69.9171V72.2754C86.5163 72.4656 85.8316 72.5797 85.147 72.5607C83.2451 72.5607 81.7046 71.0392 81.6856 69.1374V61.9484C81.6856 61.8723 81.6286 61.8343 81.5525 61.8153H79.5555V59.2288H81.5905C81.6666 59.2288 81.7046 59.1717 81.7236 59.0956V54.7975H85.0709V59.0956C85.0519 59.1717 85.0899 59.2288 85.147 59.2478ZM117.117 54.5122C115.976 52.7055 113.998 51.6214 111.868 51.6214C109.738 51.6214 107.76 52.7055 106.619 54.5122C105.345 56.376 104.66 59.0005 104.66 62.1005C104.546 64.7821 105.249 67.4257 106.638 69.7079C107.779 71.5147 109.757 72.5987 111.887 72.5987C114.017 72.5987 115.995 71.5147 117.136 69.7079C118.429 67.8251 119.095 65.2005 119.095 62.1196C119.095 59.0386 118.41 56.376 117.136 54.5122H117.117ZM114.378 68.2245C113.732 69.4036 112.914 69.9742 111.887 69.9742C110.879 69.9742 110.061 69.3656 109.395 68.2245C108.521 66.3036 108.102 64.2116 108.197 62.1005C108.102 59.9895 108.521 57.8785 109.395 55.9386C110.042 54.7594 110.86 54.1889 111.868 54.1889C112.876 54.1889 113.713 54.7594 114.359 55.9386C115.234 57.8594 115.652 59.9515 115.557 62.0625C115.672 64.1926 115.272 66.3036 114.378 68.2245Z" fill="black"/>
</svg>
