<svg width="58" height="31" viewBox="0 0 58 31" fill="none" xmlns="http://www.w3.org/2000/svg">
<g opacity="0.9">
<path d="M19.8973 12.3223C19.9615 12.3865 20.0257 12.3223 20.0899 12.3223C21.3736 12.3223 22.7215 12.3223 24.0052 12.3223C24.1335 12.3223 24.1335 12.3223 24.1977 12.4507C24.2619 12.6434 24.2619 12.7718 24.3261 12.9645C24.3261 13.0287 24.3261 13.0287 24.3261 13.0929C23.941 13.8636 23.5559 14.6986 23.2349 15.4692C23.1707 15.5335 23.1707 15.6619 23.1707 15.7261C23.1707 15.8546 23.2349 15.9188 23.3633 15.9188C23.7484 15.9188 24.1977 15.9188 24.5828 15.9188C24.7112 15.9188 24.7754 15.983 24.8396 16.0473C25.0963 16.6253 25.2247 17.2675 25.1605 17.9098C25.1605 18.0382 25.0963 18.1024 24.9679 18.1666C24.1977 18.3593 23.5559 18.8731 23.0424 19.4511C22.3363 20.2218 21.887 21.0567 21.5019 22.0201C21.2452 22.7908 20.9885 23.4972 20.8601 24.2679C20.6675 25.1671 20.6033 26.0662 20.5392 26.9653C20.5392 27.4149 20.475 27.8003 20.475 28.2498C20.475 28.3783 20.5392 28.3783 20.6034 28.3783C21.3094 28.3783 22.0796 28.3783 22.7856 28.3783C22.914 28.3783 22.9782 28.4425 22.9782 28.5067C23.3633 29.149 23.6842 29.727 24.0693 30.3692C24.1977 30.5619 24.1977 30.5619 23.941 30.5619C19.8973 30.5619 15.7895 30.5619 11.7458 30.5619C8.98588 30.5619 6.16175 30.5619 3.4018 30.5619C2.31066 30.5619 1.41207 30.1765 0.770219 29.3416C0.320924 28.7636 0.0641849 28.1214 0 27.3507C0 27.2865 0 27.2222 0 27.0938C0 19.5154 0 11.8727 0 4.29426C0 3.45934 0.25674 2.75288 0.706034 2.11064C1.15533 1.59685 1.66881 1.2115 2.31066 1.01883C2.69577 0.890381 3.08087 0.890381 3.46598 0.890381C14.0565 0.890381 24.647 0.890381 35.1733 0.890381C35.3017 0.890381 35.4301 0.954605 35.4942 1.08305C36.9705 3.00977 38.3826 4.87227 39.8588 6.79899C41.2067 8.53304 42.4904 10.2671 43.8383 12.0011C44.4159 12.7718 44.9936 13.5425 45.6355 14.3132C45.6996 14.3774 45.6996 14.4417 45.6996 14.5701C45.5713 15.0197 45.4429 15.4692 45.3145 15.983C45.3145 16.0473 45.2503 16.1115 45.1862 16.0473C44.6085 15.6619 43.9667 15.3408 43.3248 15.1481C42.8113 14.9554 42.2337 14.8912 41.656 14.8912C40.1156 14.8912 38.5109 14.8912 36.9705 14.8912C36.5212 14.8912 36.2645 14.6985 36.1361 14.249C36.0077 13.7352 36.0719 13.1572 36.1361 12.6434C36.1361 12.5792 36.2003 12.5149 36.2645 12.5149C36.7138 12.5792 36.7779 12.5792 36.7779 12.0654C36.8421 11.4231 36.8421 10.8451 36.7779 10.2029C36.7138 9.56063 36.5854 8.91839 36.3928 8.27614C36.0077 7.05589 35.3017 6.09253 34.2105 5.45029C33.5687 5.06494 32.9269 4.74382 32.2208 4.48693C31.7073 4.29425 31.1939 4.16581 30.6804 4.10158C29.9743 3.97313 29.2683 3.97314 28.5623 4.03736C27.1502 4.16581 25.9307 4.61538 24.9679 5.64296C24.3261 6.2852 23.941 7.05589 23.6842 7.8908C23.4917 8.53304 23.4275 9.17528 23.3633 9.81752C23.3633 9.88175 23.2991 9.94597 23.2349 10.0102C22.1438 10.7809 21.0526 11.5516 19.9615 12.3223C19.9615 12.258 19.9615 12.258 19.8973 12.3223ZM4.55713 23.6257C4.55713 24.9102 5.58409 25.8735 6.8036 25.8735C8.0873 25.8735 9.11425 24.8459 9.11425 23.6257C9.11425 22.3412 8.0873 21.3778 6.86778 21.3136C5.58409 21.3136 4.55713 22.3412 4.55713 23.6257Z" fill="#00297A"/>
<path d="M57.9568 15.7905C57.9568 19.5797 57.9568 23.3689 57.9568 27.2223C57.9568 28.4426 57.4433 29.406 56.4164 30.0482C55.8387 30.4335 55.1969 30.562 54.555 30.562C52.5011 30.562 50.4472 30.562 48.3933 30.562C48.2649 30.562 48.2649 30.4978 48.2649 30.4335C48.2649 29.7913 48.2649 29.1491 48.2649 28.571C48.2649 28.4426 48.3291 28.4426 48.3933 28.4426C49.9337 28.4426 51.5383 28.4426 53.0788 28.4426C53.5922 28.4426 53.9773 28.2499 54.3625 27.9288C55.0043 27.415 55.4536 26.7085 55.8387 26.0021C56.0313 25.6167 56.2238 25.2314 56.3522 24.7818C56.4164 24.5249 56.4164 24.3323 56.2238 24.1396C56.0954 23.9469 55.9029 23.7542 55.7745 23.6258C55.3252 23.112 55.0043 22.534 54.8117 21.8917C54.6834 21.5064 54.555 21.1853 54.2341 20.9926C54.0415 20.8642 53.7848 20.7999 53.5922 20.6715C53.0146 20.3504 52.4369 19.965 51.9876 19.5155C51.9234 19.4512 51.9234 19.387 51.9234 19.3228C51.9234 18.9374 51.9234 18.6163 51.9234 18.231C51.9234 18.1667 51.9234 18.1025 51.8592 18.0383C51.7309 17.9099 51.6025 17.7814 51.5383 17.653C51.4099 17.5245 51.3458 17.4603 51.1532 17.4603C50.8323 17.3961 50.8323 17.3961 50.8323 17.1392C50.8323 16.9465 50.8323 16.7538 50.6397 16.6254C50.5755 16.5611 50.5114 16.4969 50.5114 16.4327C50.383 16.24 50.2546 16.1758 50.0621 16.1758C49.8695 16.1758 49.8695 16.1116 49.8695 15.9189C49.8695 15.662 49.8053 15.4693 49.677 15.2767C49.4844 14.9555 49.2277 14.8271 48.9067 14.8271C48.65 14.8271 48.5858 14.6987 48.4574 14.5702C47.3021 12.5793 46.1468 10.6525 44.9273 8.66159C43.451 6.15685 41.9106 3.65212 40.4343 1.14738C40.4343 1.08315 40.3701 1.08316 40.3701 1.01893C40.3701 0.954707 40.4343 1.01893 40.4985 1.01893C45.2482 1.01893 49.9979 1.01893 54.6834 1.01893C56.0954 1.01893 57.315 1.85384 57.7642 3.20255C57.8926 3.65212 57.9568 4.10169 57.9568 4.55125C57.9568 8.27625 57.9568 12.0655 57.9568 15.7905Z" fill="#00297A"/>
</g>
</svg>
