<svg width="85" height="25" viewBox="0 0 85 25" fill="none" xmlns="http://www.w3.org/2000/svg">
<path d="M6.92991 24.744C6.35225 24.4228 6.0955 23.9733 6.15969 23.2668C6.22387 22.6246 6.15969 21.9823 6.15969 21.3401C6.15969 20.5694 6.67316 20.1198 7.44338 20.0556C8.14941 20.0556 8.91961 20.0556 9.62564 20.0556C10.3959 20.0556 10.9093 20.5694 10.9093 21.3401C10.9093 21.9823 10.9093 22.5603 10.9093 23.2026C10.9735 23.909 10.781 24.4228 10.1391 24.744C9.04801 24.744 7.95687 24.744 6.92991 24.744Z" fill="#1D1D21"/>
<path d="M27.8577 15.3033C27.8577 13.1839 27.8577 11.0003 27.8577 8.8809C27.8577 8.30288 28.1786 7.85331 28.6921 7.85331C29.2056 7.78909 29.5907 8.17443 29.6549 8.68822C29.6549 8.81667 29.5907 8.94512 29.7191 9.00934C29.8474 9.07357 29.9116 8.94512 29.9758 8.8809C33.185 6.44038 37.8705 8.23865 38.6407 12.1563C39.09 14.4042 38.063 16.652 36.0733 17.8723C34.212 19.0283 31.7088 18.8998 29.9116 17.5511C29.8474 17.4869 29.7832 17.3585 29.6549 17.4227C29.5265 17.4869 29.5907 17.6154 29.5907 17.7438C29.5907 19.0925 29.5907 20.4412 29.5907 21.7899C29.5907 22.4322 29.2056 22.8175 28.6921 22.8175C28.1786 22.8175 27.7935 22.3679 27.7935 21.7899C27.7935 20.6981 27.7935 19.6705 27.7935 18.5787C27.8577 17.4227 27.8577 16.3951 27.8577 15.3033ZM36.9077 13.1839C36.9077 11.1287 35.3673 9.52314 33.3134 9.52314C31.2595 9.52314 29.6549 11.0645 29.6549 13.1197C29.6549 15.1749 31.1953 16.7805 33.2492 16.7805C35.3031 16.8447 36.9077 15.2391 36.9077 13.1839Z" fill="#1D1D21"/>
<path d="M13.6722 13.8901C12.3885 13.8901 11.1048 13.8901 9.88529 13.8901C9.50019 13.8901 9.436 13.8901 9.56437 14.2754C10.0137 15.8168 11.4899 16.8444 13.0945 16.8444C14.0573 16.8444 14.8917 16.5233 15.5977 15.8168C15.9828 15.3672 16.4963 15.3672 16.8814 15.7526C17.2665 16.1379 17.2665 16.6517 16.8172 17.037C15.341 18.45 13.608 18.8995 11.6825 18.3857C9.69273 17.872 8.34487 16.5875 7.76721 14.6608C6.67607 10.8715 9.62856 7.33921 13.5438 7.66033C15.9828 7.853 18.0367 9.77973 18.4218 12.2202C18.4218 12.4129 18.486 12.6056 18.4218 12.7983C18.4218 13.3763 17.9726 13.7616 17.3949 13.7616C16.1754 13.8901 14.8917 13.8901 13.6722 13.8901ZM12.9661 12.0918C13.9931 12.0918 15.0843 12.0918 16.1112 12.0918C16.3679 12.0918 16.4321 12.0276 16.3038 11.7707C15.7903 10.422 14.4424 9.52283 12.902 9.52283C11.4257 9.52283 10.0778 10.422 9.56437 11.7707C9.50019 12.0276 9.50018 12.0918 9.75692 12.0918C10.9122 12.0918 11.9392 12.0918 12.9661 12.0918Z" fill="#1D1D21"/>
<path d="M46.0838 13.8902C44.8001 13.8902 43.5164 13.8902 42.2327 13.8902C41.9118 13.8902 41.8476 13.9544 41.976 14.2755C42.682 16.8445 46.0196 17.7436 47.9451 15.9453C48.3944 15.4958 48.9079 15.4958 49.293 15.8811C49.6781 16.2665 49.6781 16.8445 49.1646 17.2298C47.6242 18.6427 45.7628 19.0923 43.7731 18.4501C41.7192 17.8078 40.4997 16.3949 40.0504 14.3397C39.4728 11.5781 41.2057 8.75224 43.9657 7.98155C46.7898 7.21087 49.8064 8.81647 50.6408 11.5781C50.7692 12.0277 50.8334 12.413 50.8334 12.9268C50.8334 13.569 50.3841 13.9544 49.8065 13.9544C48.587 13.8902 47.3675 13.8902 46.0838 13.8902ZM48.9079 12.0919C48.9079 12.0277 48.9079 12.0277 48.9079 11.9634C48.5228 10.6147 47.1107 9.58716 45.5703 9.58716C44.0298 9.58716 42.5536 10.5505 42.1043 11.8992C42.0402 12.1561 42.1685 12.1561 42.2969 12.1561C43.8373 12.1561 45.3777 12.1561 46.9182 12.1561C47.6242 12.0919 48.266 12.0919 48.9079 12.0919Z" fill="#1D1D21"/>
<path d="M73.8132 13.1837C73.8132 14.5967 73.8132 16.0096 73.8132 17.4225C73.8132 17.6152 73.8132 17.8079 73.749 18.0005C73.5564 18.3859 73.1713 18.5786 72.7221 18.5143C72.3369 18.4501 72.016 18.0648 72.016 17.6794C72.016 17.551 72.0802 17.4225 71.9518 17.3583C71.8235 17.2941 71.7593 17.4225 71.6951 17.4867C69.7695 18.8355 67.7798 19.0281 65.7259 17.9363C63.672 16.8445 62.7092 14.982 62.9018 12.6699C63.0943 10.6148 64.1855 9.0734 66.0468 8.17426C67.9724 7.27512 69.8337 7.53202 71.5667 8.75228C71.6309 8.75228 71.6309 8.8165 71.6951 8.8165C71.7593 8.88073 71.8235 9.00917 71.9518 8.94495C72.016 8.88073 72.016 8.75228 72.016 8.68805C72.016 8.11004 72.4011 7.72469 72.9146 7.72469C73.4281 7.72469 73.8132 8.11004 73.8132 8.68805C73.8132 10.2937 73.8132 11.7708 73.8132 13.1837ZM68.3575 16.8445C70.4114 16.8445 72.016 15.2389 72.016 13.1837C72.016 11.1286 70.4114 9.58719 68.3575 9.58719C66.3035 9.58719 64.699 11.1928 64.699 13.248C64.699 15.2389 66.3035 16.8445 68.3575 16.8445Z" fill="#1D1D21"/>
<path d="M75.5459 13.1838C75.5459 11.7708 75.5459 10.3579 75.5459 8.94497C75.5459 8.36695 75.8026 8.04583 76.1877 7.91738C76.637 7.78893 77.0221 7.98161 77.2789 8.4954C77.3431 8.68807 77.4073 8.62385 77.5356 8.55962C79.0119 7.66049 80.5523 7.53204 82.0928 8.2385C83.7616 9.00919 84.7243 10.3579 84.7243 12.2846C84.7243 14.0187 84.7243 15.8169 84.7243 17.551C84.7243 17.6152 84.7243 17.7437 84.7243 17.8079C84.6601 18.3217 84.2108 18.6428 83.7615 18.5786C83.3123 18.5143 82.9272 18.1932 82.9272 17.6794C82.9272 15.9454 82.863 14.2756 82.9272 12.5415C82.9913 10.6148 81.1941 8.75229 78.6267 9.77988C77.664 10.1652 77.3431 10.9359 77.2789 11.8993C77.2789 13.5049 77.2789 15.1747 77.2789 16.7803C77.2789 17.0372 77.2789 17.2941 77.2789 17.6152C77.2789 18.1932 76.8296 18.5786 76.3803 18.5786C75.8668 18.5786 75.4817 18.1932 75.4817 17.6152C75.5459 16.1381 75.5459 14.6609 75.5459 13.1838Z" fill="#1D1D21"/>
<path d="M22.7223 11.5782C23.1074 11.0002 23.4283 10.4864 23.7492 9.97265C24.0702 9.45885 24.3911 8.94506 24.712 8.43127C25.0329 7.9817 25.6106 7.85325 26.0599 8.11015C26.5092 8.36704 26.5734 8.94506 26.2525 9.39463C25.4822 10.5507 24.7762 11.7709 24.006 12.9269C23.8134 13.1838 23.8776 13.3765 24.006 13.6334C24.7762 14.7894 25.4822 15.9455 26.2525 17.1015C26.5734 17.6153 26.5092 18.1933 26.1241 18.4502C25.6748 18.7713 25.0971 18.5787 24.7762 18.0649C24.1986 17.1657 23.5567 16.2024 22.9791 15.3032C22.7865 14.9821 22.7223 15.1106 22.5939 15.3032C21.9521 16.2666 21.3102 17.23 20.6684 18.1933C20.4117 18.5787 20.0266 18.7071 19.6415 18.5787C19.3205 18.4502 19.0638 18.1933 19.0638 17.808C19.0638 17.6153 19.128 17.4226 19.2563 17.23C19.9624 16.0739 20.7326 14.9179 21.4386 13.7619C21.6312 13.4407 21.6954 13.2481 21.4386 12.9269C20.7326 11.8351 20.0266 10.6791 19.3205 9.5873C18.9354 9.00929 18.9996 8.49549 19.4489 8.17437C19.8982 7.85325 20.4758 8.04593 20.8609 8.55972C21.3744 9.45885 22.0163 10.4864 22.7223 11.5782Z" fill="#1D1D21"/>
<path d="M3.27337 5.7335C3.78685 5.7335 4.3003 5.7335 4.81378 5.7335C5.77656 5.7335 6.48261 6.43996 6.48261 7.3391C6.48261 8.43091 6.48261 9.52272 6.48261 10.6145C6.48261 11.5137 5.71237 12.2201 4.81378 12.2201C3.78683 12.2201 2.69571 12.2201 1.66875 12.2201C0.770161 12.2201 0.0641047 11.5137 -8.01086e-05 10.6145C-8.01086e-05 9.52272 -8.01086e-05 8.43091 -8.01086e-05 7.3391C-8.01086e-05 6.43996 0.770161 5.7335 1.66875 5.7335C2.18223 5.7335 2.69571 5.7335 3.27337 5.7335Z" fill="#1D1D21"/>
<path d="M10.5926 0.210436C11.1061 0.210436 11.5554 0.210436 12.0689 0.210436C12.8391 0.210436 13.4168 0.788452 13.4809 1.55914C13.4809 2.5225 13.4809 3.55009 13.4809 4.51345C13.4809 5.28414 12.8391 5.86215 12.0689 5.92638C11.1061 5.92638 10.1433 5.92638 9.11636 5.92638C8.41032 5.92638 7.76846 5.34836 7.70427 4.64189C7.64009 3.61431 7.64009 2.58673 7.70427 1.55914C7.70427 0.788452 8.34613 0.27466 9.11636 0.27466C9.62984 0.210436 10.1433 0.210436 10.5926 0.210436Z" fill="#1D1D21"/>
<path d="M54.2368 8.6239C54.8144 8.23856 55.4563 7.91744 56.1623 7.85322C56.4191 7.78899 56.6758 7.78899 56.9325 7.78899C57.446 7.78899 57.8311 8.17434 57.8953 8.6239C57.8953 9.1377 57.5744 9.52304 57.0609 9.58727C56.74 9.65149 56.3549 9.65149 56.034 9.71571C54.8145 9.97261 54.2368 10.7433 54.1726 12.1562C54.1726 13.7618 54.1726 15.4317 54.1726 17.0373C54.1726 17.2299 54.1726 17.4868 54.1726 17.6795C54.1726 18.1933 53.7875 18.5786 53.274 18.5786C52.8247 18.5786 52.4396 18.2575 52.3754 17.7437C52.3754 17.6795 52.3754 17.551 52.3754 17.4868C52.3754 14.5967 52.3754 11.7709 52.3754 8.8808C52.3754 8.11011 52.9531 7.72477 53.4666 7.85322C53.9159 7.91744 54.1084 8.23856 54.2368 8.6239Z" fill="#1D1D21"/>
<path d="M59.6286 13.1836C59.6286 11.7064 59.6286 10.2293 59.6286 8.75213C59.6286 8.30256 59.8853 7.98144 60.2704 7.85299C60.6555 7.72454 61.0406 7.85299 61.2974 8.17411C61.4257 8.36678 61.49 8.55945 61.49 8.75213C61.49 11.7064 61.49 14.6607 61.49 17.615C61.49 18.1288 61.1048 18.5784 60.5914 18.5784C60.0779 18.5784 59.6927 18.1931 59.6927 17.615C59.6286 16.1379 59.6286 14.6607 59.6286 13.1836Z" fill="#1D1D21"/>
<path d="M5.52091 16.7803C5.52091 17.1015 5.52091 17.4226 5.52091 17.7437C5.52091 18.3217 5.07159 18.7713 4.49392 18.7713C3.85206 18.7713 3.2102 18.7713 2.56834 18.7713C1.99067 18.7713 1.60557 18.3859 1.54139 17.8079C1.54139 17.1657 1.54139 16.4592 1.54139 15.817C1.54139 15.239 1.99067 14.8536 2.56834 14.8536C3.2102 14.8536 3.85206 14.8536 4.49392 14.8536C5.13577 14.8536 5.52091 15.3032 5.52091 15.9454C5.52091 16.1381 5.52091 16.4592 5.52091 16.7803Z" fill="#1D1D21"/>
<path d="M17.1345 3.87118C17.3912 3.87118 17.648 3.87118 17.9047 3.87118C18.4182 3.87118 18.7391 4.1923 18.7391 4.70609C18.7391 5.21988 18.7391 5.73367 18.7391 6.31169C18.7391 6.76126 18.4182 7.08238 17.9047 7.08238C17.3912 7.08238 16.8778 7.08238 16.3001 7.08238C15.7866 7.08238 15.4657 6.76126 15.4657 6.24747C15.4657 5.73367 15.4657 5.21988 15.4657 4.70609C15.4657 4.1923 15.8508 3.87118 16.3643 3.87118C16.6852 3.87118 16.8778 3.87118 17.1345 3.87118Z" fill="#1D1D21"/>
<path d="M60.527 6.50463C59.8852 6.50463 59.4359 5.99083 59.4359 5.41282C59.4359 4.8348 59.9494 4.38523 60.527 4.38523C61.1047 4.38523 61.6181 4.89903 61.6181 5.47704C61.554 6.05506 61.1047 6.50463 60.527 6.50463Z" fill="#1D1D21"/>
</svg>
