<svg width="67" height="24" viewBox="0 0 67 24" fill="none" xmlns="http://www.w3.org/2000/svg">
<g opacity="0.9">
<path d="M-3.05176e-05 20.9835C1.98968 20.9835 2.18221 20.7909 2.18221 18.7999C2.18221 14.7538 2.18221 10.7077 2.18221 6.66157C2.18221 6.08356 2.37479 5.95511 2.88827 6.01933C3.40174 6.08356 3.91521 6.01933 4.3645 6.01933C4.62123 6.01933 4.74959 6.08356 4.74959 6.40468C4.74959 10.9646 4.74959 15.4603 4.74959 20.0202C4.74959 21.6258 3.72264 22.846 2.18221 23.2956C2.05385 23.2956 1.9255 23.2956 1.9255 23.424C1.41203 23.424 0.834366 23.424 0.320891 23.424C0.128338 23.424 0.0641382 23.3598 0.0641382 23.1671C0.0641382 22.3965 -3.05176e-05 21.69 -3.05176e-05 20.9835Z" fill="#00297A"/>
<path d="M34.7853 9.55104C37.2885 10.386 37.9304 12.698 37.6094 14.6247C37.2885 16.9368 35.4272 18.7351 33.1807 18.7993C30.6133 18.8635 27.9817 18.7993 25.4143 18.8635C24.965 18.8635 25.0933 18.6066 25.0933 18.3497C25.0933 14.689 25.0933 11.0282 25.0933 7.36743C25.0933 5.37648 25.0933 3.32131 25.0933 1.33037C25.0933 0.945023 25.1575 0.880798 25.5426 0.880798C27.7891 0.880798 29.9714 0.880798 32.2179 0.880798C32.8598 0.880798 33.5016 0.945022 34.1435 1.13769C36.7109 1.90838 38.0587 4.73424 37.096 7.23898C36.775 8.13811 36.1974 8.71613 34.7853 9.55104ZM27.8533 13.5329C27.8533 14.3036 27.8533 15.0743 27.8533 15.845C27.8533 16.0377 27.7891 16.2303 28.11 16.2303C29.6505 16.1661 31.1267 16.3588 32.6672 16.1661C34.2076 15.9734 35.042 14.8816 34.9779 13.4045C34.9137 11.9273 33.8867 10.8997 32.3462 10.8997C30.9984 10.8355 29.5863 10.8997 28.2384 10.8997C27.9817 10.8997 27.8533 10.964 27.8533 11.2851C27.8533 11.9916 27.8533 12.7622 27.8533 13.5329ZM27.8533 5.82605C27.8533 6.53251 27.8533 7.3032 27.8533 8.00967C27.8533 8.20234 27.8533 8.39501 28.1742 8.39501C29.5221 8.39501 30.8058 8.39501 32.1537 8.33079C33.309 8.26656 34.2076 7.81699 34.5927 6.66096C35.1704 4.86269 34.0151 3.32131 32.0253 3.25709C30.8058 3.19286 29.5863 3.25709 28.3668 3.25709C27.9817 3.25709 27.9175 3.38554 27.9175 3.70666C27.8533 4.41312 27.8533 5.11959 27.8533 5.82605Z" fill="#00297A"/>
<path d="M62.7734 13.3404C61.618 13.3404 60.4627 13.3404 59.3074 13.3404C58.9223 13.3404 58.7939 13.4047 58.8581 13.8542C59.1148 15.8452 60.7195 16.8728 62.7092 16.4232C63.2227 16.2948 63.8003 16.1021 64.1855 15.7167C64.5706 15.2672 64.8915 15.3956 65.2124 15.7167C65.5333 16.0379 65.8543 16.2948 66.2394 16.5516C66.4961 16.7443 66.5603 16.937 66.3036 17.1939C65.0199 18.4784 63.4152 19.0564 61.6181 18.9279C58.4088 18.7353 56.6116 16.8728 56.3549 13.4689C56.2265 12.056 56.2907 10.7073 56.8042 9.35856C57.6386 6.91805 59.7567 5.63357 62.3883 5.89046C64.6989 6.14736 66.6245 8.07408 66.8812 10.4504C66.9454 11.2853 66.9454 12.1202 66.9454 12.9551C66.9454 13.2762 66.817 13.3404 66.4961 13.3404C65.1482 13.3404 63.9929 13.3404 62.7734 13.3404ZM61.4897 11.2853C62.2599 11.2853 62.9659 11.2853 63.7362 11.2853C64.1213 11.2853 64.2496 11.1568 64.1855 10.7715C63.9929 9.23011 62.9659 8.26675 61.4897 8.26675C60.0134 8.26675 59.0507 9.29434 58.8581 10.8357C58.7939 11.1568 58.9223 11.2211 59.2432 11.2211C60.0134 11.2211 60.7195 11.2853 61.4897 11.2853Z" fill="#00297A"/>
<path d="M17.0099 11.9276C17.0099 12.3772 17.1383 13.0195 16.8815 13.2764C16.6248 13.5975 15.9188 13.3406 15.4695 13.3406C13.4797 13.3406 11.49 13.3406 9.50029 13.3406C9.05099 13.3406 8.9868 13.469 9.05099 13.8544C9.37191 16.038 11.2974 17.0656 13.4155 16.2307C13.8648 16.038 14.25 15.7811 14.6351 15.46C14.8276 15.2673 14.956 15.2673 15.0844 15.46C15.5337 15.8453 15.9829 16.2307 16.4322 16.616C16.689 16.8087 16.6248 16.9371 16.4322 17.1298C15.1485 18.4143 13.5439 18.9923 11.7468 18.9281C8.6017 18.7354 6.74034 16.9371 6.4836 13.6617C6.29104 11.9276 6.35524 10.1294 7.25382 8.52378C8.34496 6.46861 10.5272 5.44102 12.7737 5.95481C15.0843 6.46861 16.7531 8.26688 16.9457 10.5147C16.9457 10.9643 16.9457 11.4139 17.0099 11.9276ZM11.7468 11.2854C12.517 11.2854 13.2872 11.2854 14.0574 11.2854C14.2499 11.2854 14.4425 11.3496 14.4425 11.0285C14.5067 10.0009 13.6723 8.78067 12.6454 8.45955C10.8482 7.88154 9.17936 9.03757 9.05099 10.9643C9.05099 11.2854 9.11517 11.3496 9.37191 11.3496C10.1421 11.2212 10.9124 11.2854 11.7468 11.2854Z" fill="#00297A"/>
<path d="M52.3127 17.4511C50.4514 19.1209 48.4616 19.3778 46.7287 18.286C45.445 17.5153 44.7389 16.295 44.7389 14.8179C44.6748 11.992 44.7389 9.16618 44.7389 6.34032C44.7389 6.0192 44.8031 5.95497 45.124 5.95497C45.7017 5.95497 46.2794 5.95497 46.857 5.95497C47.2421 5.95497 47.3063 6.08342 47.3063 6.40454C47.3063 8.65238 47.3063 10.9002 47.3063 13.1481C47.3063 13.405 47.3063 13.7261 47.3705 13.983C47.5631 15.4601 48.5258 16.3593 50.0021 16.295C51.3499 16.2308 52.3127 15.2675 52.3769 13.8545C52.4411 11.414 52.4411 8.9735 52.3769 6.53299C52.3769 6.08342 52.4411 5.89075 52.9546 5.95497C53.5322 6.0192 54.0457 5.95497 54.6234 5.95497C54.8801 5.95497 55.0085 6.0192 55.0085 6.34032C55.0085 10.3864 55.0085 14.3683 55.0085 18.4144C55.0085 18.6713 54.9443 18.7998 54.6234 18.7998C54.0457 18.7998 53.4039 18.7356 52.8262 18.7998C52.4411 18.7998 52.3127 18.6713 52.3769 18.286C52.3127 18.0933 52.3127 17.8364 52.3127 17.4511Z" fill="#00297A"/>
<path d="M18.9978 12.1203C18.9978 10.9 18.9978 9.67978 18.9978 8.52375C18.9978 8.13841 18.9336 8.00996 18.4843 8.00996C17.7141 8.00996 17.7141 8.00996 17.7141 7.23927C17.7141 7.17505 17.7141 7.0466 17.7141 6.98238C17.7141 6.08324 17.7141 6.08324 18.6127 6.08324C18.9336 6.08324 18.9978 5.95479 18.9978 5.63367C18.9978 4.60609 18.9978 3.64273 18.9978 2.61514C18.9978 2.2298 19.062 2.10135 19.4471 2.10135C20.0247 2.16557 20.6024 2.10135 21.1801 2.10135C21.501 2.10135 21.6294 2.2298 21.6294 2.55092C21.6294 3.5785 21.6294 4.60609 21.6294 5.56945C21.6294 5.95479 21.7577 6.01902 22.0786 6.01902C22.5279 6.01902 23.1056 5.82634 23.4265 6.08324C23.7474 6.40436 23.4907 6.98238 23.5549 7.49617C23.6191 7.88151 23.4265 8.00996 23.0414 8.00996C22.5921 8.00996 22.0144 7.81729 21.7577 8.07418C21.4368 8.3953 21.6935 8.97332 21.6935 9.42289C21.6935 11.3496 21.6935 13.2763 21.6935 15.2031C21.6935 16.2306 21.8219 16.4233 22.8488 16.3591C23.4265 16.3591 23.6833 16.4875 23.5549 17.0655C23.5549 17.1298 23.5549 17.2582 23.5549 17.3224C23.5549 18.7996 23.5549 18.7996 22.0786 18.7354C20.2814 18.6712 19.1262 17.5151 19.062 15.7168C19.062 15.6526 19.062 15.6526 19.062 15.5884C18.9978 14.4966 18.9978 13.2763 18.9978 12.1203Z" fill="#00297A"/>
<path d="M39.1541 8.58798C39.1541 6.14747 39.1541 3.70695 39.1541 1.26644C39.1541 0.881097 39.2182 0.752649 39.6034 0.752649C40.1168 0.816873 40.6945 0.816873 41.208 0.752649C41.6573 0.688425 41.7214 0.881097 41.7214 1.26644C41.7214 4.02807 41.7214 6.72548 41.7214 9.48712C41.7214 11.3496 41.7214 13.2121 41.7214 15.1388C41.7214 16.1022 41.914 16.3591 42.8768 16.2949C43.4544 16.2949 43.7111 16.4233 43.5828 17.0013C43.5828 17.1298 43.5828 17.2582 43.5828 17.3224C43.5828 18.7354 43.5828 18.7354 42.1065 18.6712C40.181 18.6069 39.1541 17.5151 39.1541 15.5884C39.1541 13.3406 39.1541 10.9643 39.1541 8.58798Z" fill="#00297A"/>
<path d="M4.75083 2.10113C4.75083 3.38561 4.75083 3.38561 3.46712 3.38561C2.18341 3.38561 2.18341 3.38561 2.18341 2.10113C2.18341 0.81665 2.18341 0.81665 3.46712 0.81665C4.75083 0.81665 4.75083 0.81665 4.75083 2.10113Z" fill="#00297A"/>
</g>
</svg>
