<svg width="67" height="24" viewBox="0 0 67 24" fill="none" xmlns="http://www.w3.org/2000/svg">
<path d="M-1.90735e-05 20.9835C1.9897 20.9835 2.18223 20.7909 2.18223 18.7999C2.18223 14.7538 2.18223 10.7077 2.18223 6.66158C2.18223 6.08356 2.3748 5.95512 2.88828 6.01934C3.40175 6.08356 3.91522 6.01934 4.36451 6.01934C4.62125 6.01934 4.7496 6.08356 4.7496 6.40468C4.7496 10.9646 4.7496 15.4603 4.7496 20.0202C4.7496 21.6258 3.72265 22.846 2.18223 23.2956C2.05386 23.2956 1.92551 23.2956 1.92551 23.4241C1.41204 23.4241 0.834377 23.4241 0.320903 23.4241C0.12835 23.4241 0.0641496 23.3598 0.0641496 23.1672C0.0641496 22.3965 -1.90735e-05 21.69 -1.90735e-05 20.9835Z" fill="#1D1D21"/>
<path d="M34.7853 9.55105C37.2885 10.386 37.9304 12.698 37.6094 14.6248C37.2885 16.9368 35.4272 18.7351 33.1807 18.7993C30.6133 18.8635 27.9817 18.7993 25.4143 18.8635C24.965 18.8635 25.0933 18.6066 25.0933 18.3497C25.0933 14.689 25.0933 11.0282 25.0933 7.36744C25.0933 5.37649 25.0933 3.32132 25.0933 1.33038C25.0933 0.945034 25.1575 0.88081 25.5426 0.88081C27.7891 0.88081 29.9714 0.88081 32.2179 0.88081C32.8598 0.88081 33.5016 0.945034 34.1435 1.13771C36.7109 1.90839 38.0587 4.73425 37.096 7.23899C36.775 8.13813 36.1974 8.71614 34.7853 9.55105ZM27.8533 13.5329C27.8533 14.3036 27.8533 15.0743 27.8533 15.845C27.8533 16.0377 27.7891 16.2304 28.11 16.2304C29.6505 16.1661 31.1267 16.3588 32.6672 16.1661C34.2076 15.9735 35.042 14.8817 34.9779 13.4045C34.9137 11.9273 33.8867 10.8998 32.3462 10.8998C30.9984 10.8355 29.5863 10.8998 28.2384 10.8998C27.9817 10.8998 27.8533 10.964 27.8533 11.2851C27.8533 11.9916 27.8533 12.7623 27.8533 13.5329ZM27.8533 5.82606C27.8533 6.53253 27.8533 7.30321 27.8533 8.00968C27.8533 8.20235 27.8533 8.39502 28.1742 8.39502C29.5221 8.39502 30.8058 8.39502 32.1537 8.3308C33.309 8.26657 34.2076 7.81701 34.5927 6.66097C35.1704 4.8627 34.0151 3.32132 32.0253 3.2571C30.8058 3.19288 29.5863 3.2571 28.3668 3.2571C27.9817 3.2571 27.9175 3.38555 27.9175 3.70667C27.8533 4.41313 27.8533 5.1196 27.8533 5.82606Z" fill="#1D1D21"/>
<path d="M62.7734 13.3405C61.618 13.3405 60.4627 13.3405 59.3074 13.3405C58.9223 13.3405 58.7939 13.4047 58.8581 13.8543C59.1148 15.8452 60.7195 16.8728 62.7092 16.4232C63.2227 16.2948 63.8003 16.1021 64.1854 15.7168C64.5706 15.2672 64.8915 15.3956 65.2124 15.7168C65.5333 16.0379 65.8543 16.2948 66.2394 16.5517C66.4961 16.7443 66.5603 16.937 66.3035 17.1939C65.0198 18.4784 63.4152 19.0564 61.618 18.928C58.4088 18.7353 56.6116 16.8728 56.3549 13.4689C56.2265 12.056 56.2907 10.7073 56.8042 9.35857C57.6386 6.91806 59.7567 5.63358 62.3883 5.89048C64.6989 6.14737 66.6245 8.07409 66.8812 10.4504C66.9454 11.2853 66.9454 12.1202 66.9454 12.9551C66.9454 13.2762 66.817 13.3405 66.4961 13.3405C65.1482 13.3405 63.9929 13.3405 62.7734 13.3405ZM61.4897 11.2853C62.2599 11.2853 62.9659 11.2853 63.7361 11.2853C64.1213 11.2853 64.2496 11.1568 64.1854 10.7715C63.9929 9.23012 62.9659 8.26676 61.4897 8.26676C60.0134 8.26676 59.0507 9.29435 58.8581 10.8357C58.7939 11.1568 58.9223 11.2211 59.2432 11.2211C60.0134 11.2211 60.7195 11.2853 61.4897 11.2853Z" fill="#1D1D21"/>
<path d="M17.0099 11.9276C17.0099 12.3772 17.1383 13.0195 16.8815 13.2764C16.6248 13.5975 15.9188 13.3406 15.4695 13.3406C13.4797 13.3406 11.49 13.3406 9.5003 13.3406C9.05101 13.3406 8.98681 13.469 9.051 13.8544C9.37192 16.038 11.2975 17.0656 13.4156 16.2307C13.8648 16.038 14.25 15.7811 14.6351 15.46C14.8276 15.2673 14.956 15.2673 15.0844 15.46C15.5337 15.8453 15.9829 16.2307 16.4322 16.616C16.689 16.8087 16.6248 16.9371 16.4322 17.1298C15.1485 18.4143 13.5439 18.9923 11.7468 18.9281C8.60171 18.7354 6.74035 16.9371 6.48361 13.6617C6.29105 11.9276 6.35525 10.1294 7.25383 8.52378C8.34497 6.46861 10.5272 5.44102 12.7737 5.95482C15.0844 6.46861 16.7532 8.26688 16.9457 10.5147C16.9457 10.9643 16.9457 11.4139 17.0099 11.9276ZM11.7468 11.2854C12.517 11.2854 13.2872 11.2854 14.0574 11.2854C14.25 11.2854 14.4425 11.3496 14.4425 11.0285C14.5067 10.0009 13.6723 8.78067 12.6454 8.45955C10.8482 7.88154 9.17937 9.03757 9.051 10.9643C9.051 11.2854 9.11518 11.3496 9.37192 11.3496C10.1421 11.2212 10.9124 11.2854 11.7468 11.2854Z" fill="#1D1D21"/>
<path d="M52.3127 17.4511C50.4514 19.1209 48.4616 19.3778 46.7286 18.286C45.445 17.5153 44.7389 16.295 44.7389 14.8179C44.6748 11.992 44.7389 9.16617 44.7389 6.34032C44.7389 6.0192 44.8031 5.95497 45.124 5.95497C45.7017 5.95497 46.2794 5.95497 46.857 5.95497C47.2421 5.95497 47.3063 6.08342 47.3063 6.40454C47.3063 8.65238 47.3063 10.9002 47.3063 13.1481C47.3063 13.405 47.3063 13.7261 47.3705 13.983C47.563 15.4601 48.5258 16.3593 50.002 16.295C51.3499 16.2308 52.3127 15.2675 52.3769 13.8545C52.4411 11.414 52.4411 8.9735 52.3769 6.53299C52.3769 6.08342 52.4411 5.89075 52.9546 5.95497C53.5322 6.01919 54.0457 5.95497 54.6233 5.95497C54.8801 5.95497 55.0085 6.0192 55.0085 6.34032C55.0085 10.3864 55.0085 14.3683 55.0085 18.4144C55.0085 18.6713 54.9443 18.7998 54.6233 18.7998C54.0457 18.7998 53.4038 18.7356 52.8262 18.7998C52.4411 18.7998 52.3127 18.6713 52.3769 18.286C52.3127 18.0933 52.3127 17.8364 52.3127 17.4511Z" fill="#1D1D21"/>
<path d="M18.9978 12.1203C18.9978 10.9001 18.9978 9.6798 18.9978 8.52377C18.9978 8.13842 18.9336 8.00997 18.4843 8.00997C17.7141 8.00997 17.7141 8.00997 17.7141 7.23929C17.7141 7.17506 17.7141 7.04661 17.7141 6.98239C17.7141 6.08325 17.7141 6.08325 18.6127 6.08325C18.9336 6.08325 18.9978 5.95481 18.9978 5.63369C18.9978 4.6061 18.9978 3.64274 18.9978 2.61516C18.9978 2.22981 19.062 2.10136 19.4471 2.10136C20.0247 2.16559 20.6024 2.10136 21.1801 2.10136C21.501 2.10136 21.6294 2.22981 21.6294 2.55093C21.6294 3.57852 21.6294 4.6061 21.6294 5.56946C21.6294 5.95481 21.7577 6.01903 22.0786 6.01903C22.5279 6.01903 23.1056 5.82636 23.4265 6.08325C23.7474 6.40437 23.4907 6.98239 23.5549 7.49618C23.6191 7.88153 23.4265 8.00997 23.0414 8.00997C22.5921 8.00997 22.0144 7.8173 21.7577 8.0742C21.4368 8.39532 21.6935 8.97334 21.6935 9.4229C21.6935 11.3496 21.6935 13.2763 21.6935 15.2031C21.6935 16.2307 21.8219 16.4233 22.8488 16.3591C23.4265 16.3591 23.6833 16.4875 23.5549 17.0656C23.5549 17.1298 23.5549 17.2582 23.5549 17.3225C23.5549 18.7996 23.5549 18.7996 22.0786 18.7354C20.2814 18.6712 19.1262 17.5151 19.062 15.7169C19.062 15.6526 19.062 15.6526 19.062 15.5884C18.9978 14.4966 18.9978 13.2763 18.9978 12.1203Z" fill="#1D1D21"/>
<path d="M39.154 8.58798C39.154 6.14746 39.154 3.70695 39.154 1.26644C39.154 0.881093 39.2182 0.752645 39.6033 0.752645C40.1168 0.816869 40.6945 0.816869 41.208 0.752645C41.6573 0.688421 41.7214 0.881093 41.7214 1.26644C41.7214 4.02807 41.7214 6.72548 41.7214 9.48711C41.7214 11.3496 41.7214 13.2121 41.7214 15.1388C41.7214 16.1022 41.914 16.3591 42.8767 16.2949C43.4544 16.2949 43.7111 16.4233 43.5828 17.0013C43.5828 17.1298 43.5828 17.2582 43.5828 17.3224C43.5828 18.7354 43.5828 18.7354 42.1065 18.6711C40.181 18.6069 39.154 17.5151 39.154 15.5884C39.154 13.3406 39.154 10.9643 39.154 8.58798Z" fill="#1D1D21"/>
<path d="M4.75081 2.10114C4.75081 3.38562 4.75081 3.38562 3.46711 3.38562C2.1834 3.38562 2.1834 3.38562 2.1834 2.10114C2.1834 0.816664 2.1834 0.816664 3.46711 0.816664C4.75081 0.816664 4.75081 0.816664 4.75081 2.10114Z" fill="#1D1D21"/>
</svg>
