<?xml version="1.0" encoding="utf-8"?>
<!-- Generator: Adobe Illustrator 16.0.0, SVG Export Plug-In . SVG Version: 6.00 Build 0)  -->
<!DOCTYPE svg PUBLIC "-//W3C//DTD SVG 1.1//EN" "http://www.w3.org/Graphics/SVG/1.1/DTD/svg11.dtd">
<svg version="1.1" id="Layer_1" xmlns="http://www.w3.org/2000/svg" xmlns:xlink="http://www.w3.org/1999/xlink" x="0px" y="0px"
	 width="445.917px" height="312.118px" viewBox="0 0 445.917 312.118" enable-background="new 0 0 445.917 312.118"
	 xml:space="preserve">
<g>
	<defs>
		<rect id="SVGID_1_" width="445.917" height="312.118"/>
	</defs>
	<clipPath id="SVGID_2_">
		<use xlink:href="#SVGID_1_"  overflow="visible"/>
	</clipPath>
	<path clip-path="url(#SVGID_2_)" fill="#FFFFFF" d="M185.56,34.04c14.379-14.981,34.4-24.275,56.545-24.275
		c29.438,0,55.115,16.411,68.794,40.777c11.888-5.308,25.041-8.264,38.882-8.264c53.092,0,96.136,43.418,96.136,96.974
		c0,53.563-43.044,96.981-96.136,96.981c-6.481,0-12.812-0.655-18.94-1.888c-12.039,21.477-34.989,35.993-61.335,35.993
		c-11.022,0-21.449-2.543-30.742-7.078c-12.203,28.718-40.653,48.857-73.801,48.857c-34.525,0-63.951-21.844-75.243-52.481
		c-4.935,1.042-10.053,1.592-15.296,1.592C33.319,261.229,0,227.562,0,186.032c0-27.84,14.962-52.14,37.211-65.144
		c-4.58-10.545-7.123-22.171-7.123-34.4c0-47.763,38.778-86.488,86.606-86.488C144.777,0.001,169.733,13.35,185.56,34.04"/>
	<path clip-path="url(#SVGID_2_)" fill="#009ada" d="M64.583,161.855c-0.282,0.734,0.098,0.885,0.19,1.01
		c0.839,0.609,1.684,1.048,2.543,1.54c4.548,2.411,8.847,3.112,13.337,3.112c9.148,0,14.83-4.862,14.83-12.694v-0.15
		c0-7.243-6.416-9.877-12.425-11.777l-0.787-0.25c-4.535-1.474-8.447-2.746-8.447-5.734v-0.151c0-2.556,2.287-4.437,5.832-4.437
		c3.939,0,8.612,1.311,11.62,2.976c0,0,0.891,0.57,1.212-0.288c0.177-0.466,1.698-4.562,1.862-5.008
		c0.17-0.478-0.131-0.838-0.446-1.028c-3.441-2.091-8.192-3.52-13.107-3.52l-0.911,0.007c-8.376,0-14.222,5.059-14.222,12.307v0.151
		c0,7.635,6.449,10.119,12.492,11.843l0.97,0.301c4.404,1.35,8.198,2.517,8.198,5.61v0.158c0,2.83-2.471,4.941-6.442,4.941
		c-1.547,0-6.469-0.026-11.784-3.388c-0.642-0.381-1.009-0.649-1.507-0.951c-0.262-0.164-0.917-0.445-1.206,0.413L64.583,161.855z"
		/>
	<path clip-path="url(#SVGID_2_)" fill="#009ada" d="M198.491,161.855c-0.282,0.734,0.098,0.885,0.19,1.01
		c0.839,0.609,1.684,1.048,2.543,1.54c4.548,2.411,8.847,3.112,13.337,3.112c9.148,0,14.831-4.862,14.831-12.694v-0.15
		c0-7.243-6.417-9.877-12.425-11.777l-0.787-0.25c-4.535-1.474-8.447-2.746-8.447-5.734v-0.151c0-2.556,2.287-4.437,5.832-4.437
		c3.939,0,8.612,1.311,11.621,2.976c0,0,0.891,0.57,1.212-0.288c0.177-0.466,1.697-4.562,1.861-5.008
		c0.17-0.478-0.131-0.838-0.445-1.028c-3.441-2.091-8.186-3.52-13.107-3.52l-0.911,0.007c-8.376,0-14.222,5.059-14.222,12.307v0.151
		c0,7.635,6.456,10.119,12.492,11.843l0.97,0.301c4.404,1.35,8.205,2.517,8.205,5.61v0.158c0,2.83-2.471,4.941-6.449,4.941
		c-1.547,0-6.462-0.026-11.784-3.388c-0.642-0.381-1.022-0.636-1.507-0.951c-0.164-0.104-0.937-0.406-1.199,0.413L198.491,161.855z"
		/>
	<path clip-path="url(#SVGID_2_)" fill="#009ada" d="M297.542,138.308c-0.747-2.536-1.92-4.771-3.474-6.632
		c-1.554-1.868-3.525-3.369-5.865-4.457c-2.333-1.088-5.086-1.645-8.18-1.645c-3.1,0-5.858,0.557-8.191,1.645
		s-4.307,2.589-5.859,4.463c-1.56,1.862-2.726,4.097-3.473,6.626c-0.748,2.523-1.128,5.282-1.128,8.205
		c0,2.923,0.38,5.689,1.128,8.205c0.747,2.53,1.913,4.765,3.473,6.633c1.553,1.867,3.532,3.361,5.866,4.423
		c2.333,1.062,5.085,1.6,8.185,1.6c3.094,0,5.84-0.538,8.18-1.6c2.333-1.062,4.306-2.556,5.865-4.423
		c1.554-1.861,2.727-4.097,3.474-6.633c0.747-2.523,1.127-5.282,1.127-8.205C298.669,143.589,298.289,140.831,297.542,138.308
		 M289.907,146.512c0,4.424-0.826,7.917-2.451,10.381c-1.612,2.438-4.044,3.631-7.433,3.631c-3.395,0-5.812-1.193-7.398-3.631
		c-1.606-2.464-2.418-5.957-2.418-10.381c0-4.417,0.812-7.904,2.411-10.341c1.593-2.412,4.011-3.586,7.405-3.586
		c3.389,0,5.82,1.174,7.433,3.586C289.081,138.608,289.907,142.095,289.907,146.512"/>
	<path clip-path="url(#SVGID_2_)" fill-rule="evenodd" clip-rule="evenodd" fill="#009ada" d="M360.242,159.337
		c-0.249-0.74-0.978-0.458-0.978-0.458c-1.106,0.426-2.287,0.812-3.552,1.009c-1.271,0.203-2.674,0.301-4.181,0.301
		c-3.69,0-6.632-1.101-8.736-3.27c-2.104-2.176-3.29-5.689-3.277-10.44c0.014-4.319,1.056-7.569,2.931-10.053
		c1.86-2.464,4.698-3.729,8.474-3.729c3.146,0,5.551,0.367,8.067,1.153c0,0,0.603,0.262,0.885-0.524
		c0.675-1.862,1.166-3.179,1.881-5.217c0.203-0.583-0.295-0.826-0.479-0.898c-0.989-0.387-3.322-1.022-5.093-1.291
		c-1.645-0.249-3.578-0.38-5.728-0.38c-3.204,0-6.062,0.55-8.506,1.638c-2.445,1.082-4.51,2.583-6.154,4.45
		c-1.639,1.868-2.884,4.103-3.71,6.633c-0.832,2.523-1.245,5.288-1.245,8.224c0,6.331,1.704,11.45,5.079,15.192
		c3.382,3.769,8.455,5.675,15.074,5.675c3.912,0,7.923-0.793,10.812-1.927c0,0,0.552-0.268,0.309-0.91L360.242,159.337z"/>
	<path clip-path="url(#SVGID_2_)" fill-rule="evenodd" clip-rule="evenodd" fill="#009ada" d="M399.305,136.871
		c-0.648-2.451-2.254-4.922-3.303-6.049c-1.664-1.796-3.297-3.048-4.908-3.742c-2.104-0.905-4.635-1.501-7.406-1.501
		c-3.224,0-6.154,0.544-8.533,1.658c-2.379,1.114-4.378,2.641-5.951,4.542c-1.565,1.894-2.746,4.148-3.499,6.711
		c-0.754,2.543-1.134,5.315-1.134,8.244c0,2.982,0.394,5.761,1.173,8.251c0.787,2.522,2.045,4.731,3.742,6.574
		c1.704,1.848,3.887,3.289,6.502,4.305c2.602,1.003,5.76,1.527,9.384,1.514c7.466-0.02,11.397-1.684,13.017-2.582
		c0.288-0.164,0.557-0.438,0.223-1.237l-1.698-4.732c-0.255-0.702-0.97-0.446-0.97-0.446c-1.854,0.688-4.476,1.92-10.61,1.907
		c-4.011-0.006-6.979-1.186-8.841-3.041c-1.907-1.887-2.851-4.666-3.008-8.591l25.841,0.019c0,0,0.683-0.007,0.754-0.675
		C400.104,147.724,400.963,142.691,399.305,136.871 M373.602,142.271c0.367-2.458,1.042-4.502,2.091-6.095
		c1.579-2.418,3.991-3.755,7.386-3.755s5.629,1.337,7.241,3.755c1.069,1.599,1.534,3.723,1.717,6.102L373.602,142.271z"/>
	<path clip-path="url(#SVGID_2_)" fill-rule="evenodd" clip-rule="evenodd" fill="#009ada" d="M192.31,136.871
		c-0.648-2.451-2.254-4.922-3.303-6.049c-1.664-1.796-3.29-3.048-4.908-3.742c-2.111-0.905-4.634-1.501-7.399-1.501
		c-3.231,0-6.161,0.544-8.54,1.658c-2.379,1.114-4.378,2.641-5.951,4.542c-1.566,1.894-2.746,4.148-3.499,6.711
		c-0.754,2.543-1.134,5.315-1.134,8.244c0,2.982,0.393,5.761,1.173,8.251c0.787,2.522,2.045,4.731,3.742,6.574
		c1.704,1.848,3.887,3.289,6.502,4.305c2.601,1.003,5.76,1.527,9.384,1.514c7.465-0.02,11.397-1.684,13.016-2.582
		c0.288-0.164,0.557-0.438,0.223-1.237l-1.698-4.732c-0.255-0.702-0.97-0.446-0.97-0.446c-1.854,0.688-4.476,1.92-10.61,1.907
		c-4.004-0.006-6.98-1.186-8.841-3.041c-1.907-1.887-2.851-4.666-3.008-8.591l25.841,0.019c0,0,0.682-0.007,0.754-0.675
		C193.109,147.724,193.967,142.691,192.31,136.871 M166.606,142.271c0.367-2.458,1.042-4.502,2.084-6.095
		c1.593-2.418,3.998-3.755,7.393-3.755c3.394,0,5.636,1.337,7.248,3.755c1.062,1.599,1.527,3.723,1.71,6.102L166.606,142.271z"/>
	<path clip-path="url(#SVGID_2_)" fill="#009ada" d="M121.023,141.036c-1.049-0.079-2.406-0.118-4.031-0.118
		c-2.215,0-4.358,0.275-6.37,0.819c-2.019,0.544-3.834,1.383-5.394,2.497c-1.573,1.127-2.831,2.563-3.748,4.267
		c-0.918,1.704-1.383,3.709-1.383,5.95c0,2.294,0.393,4.28,1.186,5.905c0.786,1.632,1.92,2.995,3.369,4.044
		c1.435,1.048,3.211,1.815,5.262,2.28c2.032,0.466,4.332,0.702,6.849,0.702c2.654,0,5.289-0.224,7.851-0.656
		c2.536-0.432,5.643-1.061,6.508-1.264c0.858-0.197,1.809-0.459,1.809-0.459c0.642-0.164,0.589-0.847,0.589-0.847l-0.013-23.631
		c0-5.191-1.382-9.031-4.102-11.416c-2.713-2.373-6.711-3.572-11.875-3.572c-1.94,0-5.053,0.262-6.928,0.636
		c0,0-5.642,1.094-7.962,2.916c0,0-0.512,0.314-0.236,1.029l1.828,4.915c0.23,0.636,0.852,0.419,0.852,0.419
		s0.197-0.078,0.426-0.216c4.968-2.7,11.259-2.621,11.259-2.621c2.792,0,4.942,0.57,6.39,1.671c1.409,1.088,2.124,2.713,2.124,6.16
		v1.095C123.067,141.219,121.023,141.036,121.023,141.036 M110.74,159.195c-1.016-0.806-1.153-1.009-1.488-1.532
		c-0.517-0.793-0.78-1.921-0.78-3.362c0-2.268,0.754-3.906,2.307-5.001c-0.013,0,2.229-1.94,7.498-1.868
		c3.702,0.046,7.019,0.597,7.019,0.597v11.75c0,0-3.284,0.701-6.98,0.925C113.061,161.024,110.72,159.189,110.74,159.195"/>
	<path clip-path="url(#SVGID_2_)" fill-rule="evenodd" clip-rule="evenodd" fill="#009ada" d="M329.487,127.717
		c0.197-0.583-0.216-0.865-0.387-0.93c-0.439-0.164-2.641-0.63-4.332-0.741c-3.25-0.197-5.053,0.347-6.665,1.075
		c-1.604,0.721-3.381,1.894-4.365,3.224l-0.006-3.152c0-0.433-0.308-0.78-0.741-0.78h-6.625c-0.433,0-0.74,0.347-0.74,0.78v38.555
		c0,0.434,0.347,0.78,0.786,0.78h6.789c0.434,0,0.78-0.347,0.78-0.78v-19.261c0-2.589,0.288-5.164,0.859-6.783
		c0.557-1.606,1.316-2.884,2.261-3.801c0.943-0.918,2.018-1.56,3.198-1.92c1.199-0.368,2.528-0.492,3.46-0.492
		c1.356,0,2.838,0.354,2.838,0.354c0.504,0.052,0.78-0.256,0.95-0.702C327.986,131.964,329.252,128.419,329.487,127.717"/>
	<path clip-path="url(#SVGID_2_)" fill-rule="evenodd" clip-rule="evenodd" fill="#009ada" d="M265.75,109.85
		c-0.826-0.255-1.573-0.426-2.556-0.603c-0.996-0.183-2.177-0.275-3.514-0.275c-4.673,0-8.355,1.324-10.943,3.932
		c-2.569,2.589-4.319,6.534-5.197,11.718l-0.315,1.75h-5.864c0,0-0.722-0.026-0.866,0.754l-0.963,5.374
		c-0.072,0.511,0.15,0.832,0.839,0.832h5.715l-5.8,32.349c-0.452,2.602-0.97,4.745-1.547,6.37c-0.564,1.606-1.121,2.806-1.803,3.677
		c-0.661,0.84-1.284,1.468-2.365,1.828c-0.892,0.295-1.92,0.434-3.041,0.434c-0.623,0-1.455-0.105-2.071-0.23
		c-0.616-0.118-0.937-0.255-1.396-0.445c0,0-0.668-0.256-0.937,0.414c-0.21,0.55-1.73,4.737-1.914,5.256
		c-0.183,0.511,0.072,0.91,0.4,1.027c0.76,0.27,1.324,0.446,2.359,0.688c1.442,0.341,2.655,0.361,3.788,0.361
		c2.379,0,4.549-0.335,6.344-0.983c1.81-0.656,3.383-1.796,4.778-3.329c1.501-1.665,2.451-3.408,3.355-5.787
		c0.897-2.353,1.658-5.275,2.274-8.684l5.819-32.945h8.513c0,0,0.721,0.026,0.865-0.754l0.964-5.374
		c0.065-0.511-0.151-0.832-0.839-0.832h-8.264c0.039-0.183,0.413-3.093,1.362-5.826c0.406-1.174,1.167-2.11,1.815-2.759
		c0.63-0.636,1.364-1.088,2.163-1.351c0.818-0.262,1.75-0.393,2.771-0.393c0.78,0,1.54,0.092,2.124,0.21
		c0.799,0.171,1.114,0.262,1.324,0.321c0.838,0.262,0.95,0.013,1.12-0.393l1.973-5.427
		C266.425,110.171,265.934,109.922,265.75,109.85"/>
	<path clip-path="url(#SVGID_2_)" fill-rule="evenodd" clip-rule="evenodd" fill="#009ada" d="M150.283,165.748
		c0,0.434-0.308,0.787-0.741,0.787h-6.855c-0.432,0-0.74-0.354-0.74-0.787v-55.162c0-0.432,0.308-0.78,0.74-0.78h6.855
		c0.433,0,0.741,0.348,0.741,0.78V165.748z"/>
</g>
</svg>
