<svg width="84" height="24" viewBox="0 0 84 24" fill="none" xmlns="http://www.w3.org/2000/svg">
<g opacity="0.9">
<path d="M10.6814 23.4335C10.6814 19.7728 10.6172 16.1762 10.6172 12.5155C10.6172 10.4603 10.6172 8.40513 10.6172 6.34996C10.6172 5.77194 10.7456 5.45082 11.3875 5.57927C11.58 5.64349 11.8368 5.57927 12.0935 5.57927C13.5056 5.57927 13.5056 5.57927 13.7623 6.9922C14.8535 5.90039 16.0088 5.1297 17.6134 5.1297C20.1808 5.1297 21.978 6.41418 22.7482 8.91892C23.3901 11.1025 23.1975 13.2219 22.0422 15.1486C20.245 18.2956 16.6506 18.7452 13.6339 16.1762C13.6339 18.6167 13.6339 21.0573 13.6339 23.4335C12.6712 23.4335 11.7084 23.4335 10.6814 23.4335ZM19.7315 11.2952C19.7957 10.3961 19.6031 9.49693 19.1539 8.5978C18.6404 7.63444 17.8701 6.9922 16.779 6.9922C15.6237 6.9922 14.7251 7.57021 14.2116 8.66202C13.313 10.5887 13.313 12.5155 14.1474 14.4422C14.5967 15.534 15.5595 16.112 16.7148 16.112C17.8702 16.112 18.7046 15.4055 19.1539 14.3137C19.539 13.3504 19.7957 12.387 19.7315 11.2952Z" fill="#00297A"/>
<path d="M83.7866 12.8361C81.7969 13.4141 79.9997 14.3775 78.1383 15.1482C76.0844 15.9831 74.0305 16.8822 72.0408 17.7813C71.4631 18.0382 71.2705 17.974 71.2705 17.2675C71.2705 15.5977 71.2706 15.5977 72.6826 15.0197C75.6993 13.671 78.7802 12.3865 81.9894 10.9736C80.7057 10.524 79.5504 10.1387 78.4593 9.75334C76.4053 9.04687 74.3514 8.34041 72.2333 7.69817C71.5273 7.5055 71.2064 7.18438 71.2064 6.34946C71.2706 4.67964 71.2064 4.67964 72.811 5.25766C76.277 6.47791 79.8071 7.76239 83.2731 8.98265C83.4015 9.04687 83.5941 9.04687 83.7224 9.04687C83.7866 10.3314 83.7866 11.5516 83.7866 12.8361Z" fill="#00297A"/>
<path d="M67.1624 6.60648C65.9429 7.95519 64.7876 9.30389 63.6323 10.5884C63.2472 10.9737 63.2472 11.2306 63.6323 11.616C65.1085 13.4142 66.5206 15.2767 67.9327 17.1392C67.8685 17.2677 67.8685 17.2677 67.8685 17.2677C65.2369 18.3595 65.2369 18.3595 63.5681 15.9832C62.5411 14.5703 61.5142 13.1573 60.2947 11.8086C60.2947 13.6069 60.2947 15.4694 60.2947 17.2677C60.2947 17.7815 60.2305 17.9741 59.5886 17.9741C57.0854 17.9741 57.0854 18.0384 57.0854 15.5336C57.0854 10.7168 57.0854 5.90002 57.0854 1.08322C57.0854 0.31253 57.278 0.184082 57.984 0.184082C60.2305 0.248306 60.2305 0.184082 60.2305 2.43192C60.2305 5.06511 60.2305 7.63407 60.2305 10.5241C61.5142 9.17544 62.6053 7.95519 63.6965 6.79916C64.916 5.51467 64.916 5.51468 66.5848 6.28536C66.7773 6.41381 66.9057 6.47804 67.1624 6.60648Z" fill="#00297A"/>
<path d="M37.3818 16.2398C35.9698 17.7812 34.4293 18.3592 32.568 18.2307C30.4498 18.038 29.102 16.7536 29.0378 14.57C28.9736 11.8083 28.9736 9.04669 28.9094 6.34928C28.9094 5.77127 29.102 5.64282 29.6154 5.64282C31.9261 5.64282 31.9261 5.57859 31.9261 7.89066C31.9261 10.01 31.9261 12.0652 31.9261 14.1846C31.9261 15.0837 32.7605 16.2398 33.5307 16.4325C35.1995 16.8178 37.3818 15.0195 37.3818 13.2855C37.3818 11.0376 37.3818 8.78979 37.3818 6.47773C37.3818 5.83549 37.5102 5.64282 38.2162 5.64282C40.3985 5.64282 40.3985 5.64282 40.3985 7.82643C40.3985 10.9734 40.3985 14.1204 40.4627 17.2674C40.4627 17.9738 40.3343 18.2307 39.6283 18.1023C39.4357 18.1023 39.2432 18.1023 39.0506 18.1023C37.446 17.9738 37.446 17.9738 37.3818 16.2398Z" fill="#00297A"/>
<path d="M46.3049 7.31281C46.7542 6.92747 47.0751 6.67057 47.4602 6.34945C48.1021 5.89989 48.6797 5.51454 49.5783 5.64299C50.156 5.70721 50.862 5.51454 51.5039 5.45032C52.9801 5.45032 54.5206 6.92747 54.5848 8.46885C54.7773 11.4232 54.7131 14.3775 54.7773 17.2675C54.7773 17.7813 54.649 17.9098 54.1355 17.9098C51.7606 17.974 51.7606 17.974 51.7606 15.6619C51.7606 13.7994 51.7606 11.9369 51.7606 10.0744C51.7606 9.11109 51.8248 8.14773 50.7978 7.69816C49.7067 7.18437 48.6156 7.37704 47.6528 8.01928C46.7542 8.59729 46.3049 9.36798 46.3049 10.4598C46.3049 12.7076 46.3049 14.8913 46.3049 17.1391C46.3049 17.7813 46.1123 17.974 45.4705 17.974C43.224 17.974 43.224 17.974 43.224 15.7262C43.224 12.6434 43.224 9.49643 43.224 6.41368C43.224 5.64299 43.4166 5.38609 44.1868 5.51454C44.3152 5.51454 44.4435 5.51454 44.5719 5.51454C46.2407 5.57876 46.2407 5.57876 46.3049 7.31281Z" fill="#00297A"/>
<path d="M3.94276 18.0383C2.78743 18.0383 1.69629 17.8456 0.669336 17.2034C0.348412 17.0107 -0.357619 16.8823 0.220044 16.24C0.605154 15.8547 0.605151 14.6987 1.63211 15.4694C2.33814 15.9832 3.10836 16.24 3.94276 16.1758C4.58461 16.1116 5.09809 15.8547 5.29064 15.2767C5.54738 14.6987 5.35483 14.1207 4.84135 13.6711C4.07113 12.9004 3.10836 12.3224 2.20977 11.6159C0.540963 10.2672 0.0274898 8.85428 0.861893 7.50558C1.76048 5.9642 3.23672 5.57886 4.90553 5.57886C5.80412 5.57886 6.70271 5.70731 7.53711 6.09265C7.79385 6.2211 8.49988 6.2211 8.11477 6.79911C7.85803 7.18446 7.85804 8.21204 6.89527 7.69825C6.38179 7.44136 5.80412 7.31291 5.22646 7.31291C4.58461 7.31291 4.07113 7.63403 3.81439 8.21204C3.55765 8.79006 4.00695 9.23963 4.39206 9.56075C5.22646 10.2672 6.06087 10.9095 6.95945 11.5517C8.30734 12.5151 8.94918 13.6711 8.62825 15.3409C8.30733 16.6896 6.7669 17.7814 5.03391 17.9741C4.77717 17.9741 4.32787 17.9741 3.94276 18.0383Z" fill="#00297A"/>
<path d="M23.9679 6.2855C23.7112 4.423 23.9038 2.49628 23.8396 0.633783C23.8396 0.441111 23.8396 0.312663 24.0963 0.312663C24.8665 0.312663 25.6368 0.248439 26.3428 0.312663C26.8563 0.376887 26.5995 0.826454 26.5995 1.08335C26.5995 5.83593 26.5995 10.6527 26.5995 15.4053C26.5995 15.8549 26.5995 16.2402 26.5995 16.6898C26.5995 18.0385 26.5995 18.0385 25.2517 18.0385C23.9679 18.0385 23.9679 18.0385 23.9679 16.754C23.9679 15.7264 23.9038 14.6988 23.9038 13.7355C23.9679 11.2307 23.9679 8.72601 23.9679 6.2855Z" fill="#00297A"/>
</g>
</svg>
