<?xml version="1.0" standalone="no"?>
<!DOCTYPE svg PUBLIC "-//W3C//DTD SVG 1.1//EN" "http://www.w3.org/Graphics/SVG/1.1/DTD/svg11.dtd" >
<svg xmlns="http://www.w3.org/2000/svg" xmlns:xlink="http://www.w3.org/1999/xlink" version="1.1">
<metadata>
Created by FontForge 20170731 at Mon Jul 26 14:51:59 2021
 By Aleksey,,,
Copyright 2020 Dinamo (Johannes Breyer, Fabian Harb) &#38; Erkin Karamemet. All rights reserved.
</metadata>
<defs>
<font id="ABCWhyte-Medium" horiz-adv-x="1269" >
  <font-face 
    font-family="ABC Whyte Medium"
    font-weight="500"
    font-stretch="normal"
    units-per-em="2048"
    panose-1="2 11 0 4 5 1 1 2 1 3"
    ascent="1649"
    descent="-399"
    x-height="1020"
    cap-height="1434"
    bbox="-903 -668 2480 2322"
    underline-thickness="102"
    underline-position="-307"
    unicode-range="U+000D-FB02"
  />
<missing-glyph horiz-adv-x="1439" 
d="M190 0v1440h1059v-1440h-1059zM403 186h633v1067h-633v-1067z" />
    <glyph glyph-name="fi" unicode="fi" horiz-adv-x="1320" 
d="M913 1436h265v-254h-265v254zM1171 1020v-1020h-249v825h-428v-825h-250v825h-207v195h207v145q0 128 66 198.5t190 70.5h282v-205h-194q-50 0 -72 -22.5t-22 -71.5v-115h677z" />
    <glyph glyph-name="fl" unicode="fl" horiz-adv-x="1323" 
d="M1171 1434v-1434h-249v1229h-334q-50 0 -72 -22.5t-22 -71.5v-115h247v-195h-247v-825h-250v825h-207v195h207v145q0 128 66 198.5t190 70.5h671z" />
    <glyph glyph-name="f_f" unicode="ff" horiz-adv-x="1449" 
d="M1266 1229q-50 0 -72.5 -22.5t-22.5 -71.5v-115h248v-195h-248v-825h-249v825h-428v-825h-250v825h-207v195h207v145q0 128 66 198.5t190 70.5h282v-205h-194q-50 0 -72 -22.5t-22 -71.5v-115h428v145q0 128 66 198.5t190 70.5h282v-205h-194z" />
    <glyph glyph-name="f_f_i" unicode="ffi" horiz-adv-x="1992" 
d="M1585 1436h266v-254h-266v254zM1843 1020v-1020h-248v825h-424v-825h-249v825h-428v-825h-250v825h-207v195h207v145q0 128 66 198.5t190 70.5h282v-205h-194q-50 0 -72 -22.5t-22 -71.5v-115h428v145q0 128 66 198.5t190 70.5h282v-205h-194q-50 0 -72.5 -22.5
t-22.5 -71.5v-115h672z" />
    <glyph glyph-name="f_f_l" unicode="ffl" horiz-adv-x="2000" 
d="M1849 1434v-1434h-250v1229h-333q-50 0 -72.5 -22.5t-22.5 -71.5v-115h248v-195h-248v-825h-249v825h-428v-825h-250v825h-207v195h207v145q0 128 66 198.5t190 70.5h282v-205h-194q-50 0 -72 -22.5t-22 -71.5v-115h428v145q0 128 66 198.5t190 70.5h671z" />
    <glyph glyph-name=".notdef" horiz-adv-x="1439" 
d="M190 0v1440h1059v-1440h-1059zM403 186h633v1067h-633v-1067z" />
    <glyph glyph-name=".null" horiz-adv-x="0" 
 />
    <glyph glyph-name="nonmarkingreturn" horiz-adv-x="682" 
 />
    <glyph glyph-name="CR" unicode="&#xd;" horiz-adv-x="499" 
 />
    <glyph glyph-name="space" unicode=" " horiz-adv-x="499" 
 />
    <glyph glyph-name="exclam" unicode="!" horiz-adv-x="579" 
d="M231 489l-77 576v369h272v-371l-80 -574h-115zM137 0v299h305v-299h-305z" />
    <glyph glyph-name="quotedbl" unicode="&#x22;" horiz-adv-x="862" 
d="M180 809l-69 397v228h256v-228l-68 -397h-119zM563 809l-67 397v228h256v-228l-68 -397h-121z" />
    <glyph glyph-name="numbersign" unicode="#" horiz-adv-x="1511" 
d="M238 0l26 129q31 145 51 236h-178h-67v204h288l62 295h-248v221h293l74 349h221l-25 -117l-49 -232h178h111l74 349h217l-23 -117q-23 -121 -49 -232h178h66v-221h-289l-62 -295h248v-204h-291l-77 -365h-219l28 133l47 232h-178h-108l-78 -365h-221zM578 569h288l64 295
h-289z" />
    <glyph glyph-name="dollar" unicode="$" horiz-adv-x="1267" 
d="M555 -207v180q-196 24 -320.5 137.5t-166.5 278.5l227 92q27 -104 91.5 -181t168.5 -105v430l-45 8q-116 23 -196.5 69t-129.5 133t-49 212q0 160 113 276t307 137v180h174v-180q93 -13 170 -48.5t129 -86t85.5 -106t51.5 -115.5l-219 -92q-25 78 -78 139t-139 84v-395
l57 -15q84 -19 152 -51t124.5 -81t88 -122t31.5 -163q0 -176 -116 -296t-337 -141v-178h-174zM555 874v130v239q-85 -14 -129.5 -64.5t-44.5 -117.5q0 -75 42 -119t132 -68zM729 190q98 13 150.5 67.5t52.5 133.5q0 151 -203 199v-166v-234z" />
    <glyph glyph-name="percent" unicode="%" horiz-adv-x="1816" 
d="M418 596q-161 0 -254.5 115.5t-93.5 312.5q0 194 95 311t253 117t252 -117t94 -311q0 -197 -92.5 -312.5t-253.5 -115.5zM276 0l1037 1434h229l-1034 -1434h-232zM418 764q65 0 101 67.5t36 192.5q0 121 -37 189.5t-100 68.5t-100 -68.5t-37 -189.5q0 -125 36 -192.5
t101 -67.5zM1401 -14q-160 0 -253 115.5t-93 312.5q0 194 94 311t252 117q159 0 253.5 -117t94.5 -311q0 -197 -93.5 -312.5t-254.5 -115.5zM1401 154q66 0 101.5 67t35.5 193q0 121 -37 189.5t-100 68.5q-62 0 -98.5 -68.5t-36.5 -189.5q0 -126 35 -193t100 -67z" />
    <glyph glyph-name="ampersand" unicode="&#x26;" horiz-adv-x="1411" 
d="M584 -31q-241 0 -372.5 111.5t-131.5 298.5q0 130 65.5 225t198.5 174q-76 158 -76 314q0 172 106 272t277 100q169 0 269 -91t100 -218q0 -137 -89.5 -235t-301.5 -209q58 -83 149 -168q83 -83 170 -144q79 125 117 301l225 -77q-57 -202 -143 -342q125 -67 252 -109
l-78 -201q-137 39 -320 138q-78 -64 -186.5 -102t-230.5 -38zM532 883l62 30q114 60 155.5 114.5t41.5 117.5q0 54 -36.5 92.5t-103.5 38.5q-73 0 -117.5 -50t-44.5 -132q0 -107 43 -211zM600 174q113 0 197 66q-138 106 -244 223q-64 73 -113 141q-112 -86 -112 -205
q0 -95 72.5 -160t199.5 -65z" />
    <glyph glyph-name="quotesingle" unicode="'" horiz-adv-x="477" 
d="M180 809l-69 397v228h256v-228l-68 -397h-119z" />
    <glyph glyph-name="parenleft" unicode="(" horiz-adv-x="684" 
d="M629 -328q-99 14 -181 60t-140 116.5t-101 157.5t-68 190t-37 206.5t-12 213.5q0 111 12 216t37 209.5t68 193t100.5 160t140 116.5t181.5 56v-217q-88 -20 -151.5 -89.5t-97 -175t-48 -220.5t-13.5 -249q0 -105 8.5 -197.5t30 -184.5t55.5 -161t89.5 -119t126.5 -67
v-215z" />
    <glyph glyph-name="parenright" unicode=")" horiz-adv-x="684" 
d="M55 1567q118 -17 212.5 -80t155 -154.5t100.5 -211t56.5 -242.5t16.5 -256q0 -134 -16.5 -258.5t-57 -246.5t-100.5 -215t-154.5 -155.5t-212.5 -75.5v217q88 20 151.5 89.5t97 175.5t48.5 220.5t15 248.5q-1 105 -9.5 197.5t-30.5 185t-56 161t-89.5 118.5t-126.5 67
v215z" />
    <glyph glyph-name="asterisk" unicode="*" horiz-adv-x="1138" 
d="M426 762l-195 110l50 72l127 184q-123 -10 -228 -10h-86v211l303 -18l-161 239l190 113l37 -68q20 -35 56 -104t48 -90l99 188l36 72l195 -109l-166 -241l311 18v-213h-92q-81 0 -225 12q3 -4 50 -74t73 -106l51 -76l-199 -106l-135 260z" />
    <glyph glyph-name="plus" unicode="+" horiz-adv-x="1232" 
d="M506 178v434h-434v222h434v434h221v-434h434v-222h-434v-434h-221z" />
    <glyph glyph-name="comma" unicode="," horiz-adv-x="579" 
d="M125 -315l182 315h-168v299h305v-299l-182 -315h-137z" />
    <glyph glyph-name="hyphen" unicode="-" horiz-adv-x="929" 
d="M129 526v238h672v-238h-672z" />
    <glyph glyph-name="period" unicode="." horiz-adv-x="561" 
d="M129 0v299h305v-299h-305z" />
    <glyph glyph-name="slash" unicode="/" horiz-adv-x="901" 
d="M55 -209l551 1858h240l-551 -1858h-240z" />
    <glyph glyph-name="zero" unicode="0" horiz-adv-x="1378" 
d="M690 -31q-129 0 -236.5 49t-185.5 142.5t-121 235.5t-43 321q0 178 44.5 321t124 235.5t186 141.5t231.5 49t231 -49t185 -141t123.5 -235.5t44.5 -321.5q0 -355 -160.5 -551.5t-423.5 -196.5zM690 195q142 0 225.5 128t83.5 394q0 258 -84.5 390t-224.5 132
t-226.5 -132.5t-86.5 -389.5q0 -265 85 -393.5t228 -128.5z" />
    <glyph glyph-name="one" unicode="1" horiz-adv-x="884" 
d="M440 0v918v200q-64 -103 -167 -175t-218 -81v268q142 20 252.5 96t169.5 208h215v-1434h-252z" />
    <glyph glyph-name="two" unicode="2" horiz-adv-x="1228" 
d="M113 0v276q205 121 336 210.5t222.5 176t130 164.5t38.5 164q0 115 -65.5 181.5t-164.5 66.5q-122 0 -185 -87.5t-65 -221.5l-258 39q1 79 21.5 151.5t62.5 135t102 109t143.5 73t182.5 26.5q232 0 365 -123.5t133 -322.5q0 -206 -133 -367q-85 -104 -233 -203.5
t-377 -220.5h383h370v-227h-1009z" />
    <glyph glyph-name="three" unicode="3" horiz-adv-x="1226" 
d="M610 -31q-232 0 -372 118t-164 323l266 55q11 -129 81 -202t189 -73q109 0 176.5 57t67.5 154q0 100 -66.5 158.5t-179.5 58.5h-119v216h119q94 0 158.5 56t64.5 148q0 93 -63.5 149t-157.5 56q-100 0 -162 -64t-71 -173l-258 43q16 180 145 297.5t346 117.5
q221 0 350.5 -106t129.5 -273q0 -131 -72.5 -219t-192.5 -125q134 -29 214.5 -126.5t80.5 -231.5q0 -185 -137.5 -299.5t-372.5 -114.5z" />
    <glyph glyph-name="four" unicode="4" horiz-adv-x="1271" 
d="M739 0v362h-686v228l563 844h373v-859h213v-213h-213v-362h-250zM739 575v244v404l-436 -648h289h147z" />
    <glyph glyph-name="five" unicode="5" horiz-adv-x="1224" 
d="M616 -31q-216 0 -355.5 103t-174.5 270l242 80q26 -104 97.5 -168t180.5 -64q118 0 188 69.5t70 191.5q0 120 -70.5 191t-187.5 71q-80 0 -141 -36.5t-96 -98.5l-254 49l121 807h845v-228h-661l-41 -268l-23 -150q114 119 314 119q131 0 234.5 -52t164.5 -156.5
t61 -247.5q0 -218 -137.5 -350t-376.5 -132z" />
    <glyph glyph-name="six" unicode="6" horiz-adv-x="1273" 
d="M670 -31q-176 0 -305.5 89.5t-196 245.5t-66.5 360q0 243 80 422t239.5 278.5t383.5 99.5q83 0 165 -15.5t130 -35.5v-246q-144 58 -287 58q-96 0 -178 -32t-145.5 -94t-99.5 -162t-36 -228q40 103 140 166t231 63q201 0 333 -128.5t132 -334.5q0 -223 -142 -364.5
t-378 -141.5zM664 190q111 0 186.5 75.5t75.5 197.5t-75.5 197t-186.5 75q-114 0 -188.5 -74.5t-74.5 -197.5t74.5 -198t188.5 -75z" />
    <glyph glyph-name="seven" unicode="7" horiz-adv-x="1093" 
d="M250 0q0 164 34 319.5t90.5 281.5t135.5 241t165 202.5t183 161.5h-330h-481v228h1004v-283q-523 -406 -523 -1151h-278z" />
    <glyph glyph-name="eight" unicode="8" horiz-adv-x="1261" 
d="M629 -31q-245 0 -386 114t-141 302q0 134 84.5 230t202.5 122q-113 41 -180.5 126t-67.5 214q0 166 134.5 276.5t353.5 110.5q220 0 356.5 -110.5t136.5 -276.5q0 -131 -66 -215.5t-182 -124.5q122 -26 202.5 -121t80.5 -231q0 -188 -141 -302t-387 -114zM633 825
q103 0 170 58t67 157q0 92 -67 150.5t-170 58.5q-105 0 -172.5 -58.5t-67.5 -150.5q0 -99 68 -157t172 -58zM629 190q121 0 191.5 62.5t70.5 167.5q0 102 -71.5 165.5t-190.5 63.5q-117 0 -187.5 -63.5t-70.5 -165.5q0 -105 70 -167.5t188 -62.5z" />
    <glyph glyph-name="nine" unicode="9" horiz-adv-x="1259" 
d="M473 -31q-186 0 -311 49v256q150 -59 305 -59q163 0 285 96q150 131 153 416q-42 -95 -142 -154t-228 -59q-194 0 -320.5 124t-126.5 323q0 221 139 362t365 141q223 0 385 -155q180 -174 180 -539q0 -374 -178.5 -587.5t-505.5 -213.5zM604 719q108 0 180 72t72 190
t-72 190t-180 72q-107 0 -179.5 -72.5t-72.5 -189.5t72.5 -189.5t179.5 -72.5z" />
    <glyph glyph-name="colon" unicode=":" horiz-adv-x="561" 
d="M129 733v301h305v-301h-305zM129 0v299h305v-299h-305z" />
    <glyph glyph-name="semicolon" unicode=";" horiz-adv-x="577" 
d="M139 733v301h305v-301h-305zM125 -315l182 315h-170v299h305v-299l-180 -315h-137z" />
    <glyph glyph-name="less" unicode="&#x3c;" horiz-adv-x="1308" 
d="M1174 1284v-242l-506 -180q-254 -85 -412 -143q60 -20 196 -67t216 -74l506 -181v-250l-1094 396v348z" />
    <glyph glyph-name="equal" unicode="=" horiz-adv-x="1368" 
d="M137 844v219h1096v-219h-1096zM137 371v219h1096v-219h-1096z" />
    <glyph glyph-name="greater" unicode="&#x3e;" horiz-adv-x="1310" 
d="M135 147v242l508 180q2 1 412 144q-198 69 -412 141l-508 182v248l1096 -393v-348z" />
    <glyph glyph-name="question" unicode="?" horiz-adv-x="1069" 
d="M391 489q0 70 12 122.5t40.5 94t57 69t79.5 67.5q71 55 109 105t38 118q0 84 -53.5 133t-143.5 49q-208 0 -217 -274l-247 39q6 212 129.5 331t341.5 119q211 0 332.5 -108t121.5 -271q0 -64 -17.5 -118t-53 -100.5t-74 -82.5t-96.5 -80q-65 -52 -94 -100t-29 -113h-236z
M358 0v299h306v-299h-306z" />
    <glyph glyph-name="at" unicode="@" horiz-adv-x="1882" 
d="M981 -254q-271 0 -473.5 100.5t-314 295t-111.5 462.5q0 198 71 362.5t192.5 272t282 166.5t341.5 59q182 0 341.5 -55.5t275.5 -155t182.5 -244.5t66.5 -317q0 -121 -35 -223t-94 -169t-135.5 -104.5t-161.5 -37.5q-101 0 -164 44t-84 117q-41 -77 -111.5 -120
t-162.5 -43q-156 0 -249 128t-93 318q0 182 94.5 306t245.5 124q175 0 264 -135v111h205v-592q0 -33 19 -51.5t54 -18.5q75 0 126 92.5t51 253.5q0 263 -173.5 419.5t-461.5 156.5q-141 0 -260.5 -44t-208 -126t-138 -208.5t-49.5 -283.5q0 -319 177 -491t491 -172
q294 0 514 120l90 -184q-260 -133 -604 -133zM950 344q90 0 141.5 76.5t51.5 195.5q0 109 -50 176.5t-139 67.5q-87 0 -136.5 -69.5t-49.5 -180.5q0 -119 48 -192.5t134 -73.5z" />
    <glyph glyph-name="A" unicode="A" horiz-adv-x="1472" 
d="M1155 0l-121 354h-604l-125 -354h-287l543 1434h354l535 -1434h-295zM510 582h444l-118 348l-103 289q-1 -2 -100 -291z" />
    <glyph glyph-name="B" unicode="B" horiz-adv-x="1458" 
d="M186 0v1434h660q227 0 348 -94.5t121 -254.5q0 -128 -76 -214.5t-201 -120.5q142 -25 233 -121t91 -232q0 -187 -142 -292t-362 -105h-672zM453 854h358q110 0 171.5 45.5t61.5 134.5q0 172 -233 172h-358v-352zM453 227h366q123 0 193.5 51.5t70.5 151.5q0 99 -70.5 150
t-193.5 51h-366v-404z" />
    <glyph glyph-name="C" unicode="C" horiz-adv-x="1529" 
d="M817 -31q-219 0 -385.5 99.5t-253 270t-86.5 384.5q0 156 53.5 292.5t147.5 235.5t230.5 156t295.5 57q129 0 240 -35t191 -95.5t134.5 -137.5t81.5 -166l-247 -94q-21 62 -53 113t-79.5 95t-116.5 68.5t-153 24.5q-206 0 -325 -136t-119 -378q0 -243 119 -383.5
t325 -140.5q305 0 410 307l241 -96q-71 -204 -235.5 -322.5t-415.5 -118.5z" />
    <glyph glyph-name="D" unicode="D" horiz-adv-x="1533" 
d="M186 0v1434h525q206 0 370.5 -84.5t261.5 -247t97 -377.5q0 -168 -56 -305.5t-154.5 -229t-233 -141t-291.5 -49.5h-519zM453 227h231q479 0 479 494q0 225 -118 355t-347 130h-245v-979z" />
    <glyph glyph-name="E" unicode="E" horiz-adv-x="1337" 
d="M186 0v1434h1053v-228h-786v-354h589v-225h-589v-400h786v-227h-1053z" />
    <glyph glyph-name="F" unicode="F" horiz-adv-x="1310" 
d="M186 0v1434h1076v-228h-809v-407h643v-230h-643v-569h-267z" />
    <glyph glyph-name="G" unicode="G" horiz-adv-x="1615" 
d="M772 -31q-143 0 -266.5 51t-215 144.5t-144 235t-52.5 313.5q0 212 98.5 384.5t268 269.5t375.5 97q137 0 251.5 -35.5t194.5 -97t133.5 -137t83.5 -164.5l-258 -98q-105 303 -407 303q-95 0 -178.5 -35t-146.5 -99.5t-99.5 -164t-36.5 -221.5q0 -242 127.5 -380
t324.5 -138q93 0 169 26.5t124 70.5t76 95.5t33 106.5h-477v229h743v-725h-246v223q-143 -254 -475 -254z" />
    <glyph glyph-name="H" unicode="H" horiz-adv-x="1576" 
d="M186 0v1434h267v-580h671v580h267v-1434h-267v625h-671v-625h-267z" />
    <glyph glyph-name="I" unicode="I" horiz-adv-x="636" 
d="M186 0v1434h267v-1434h-267z" />
    <glyph glyph-name="J" unicode="J" horiz-adv-x="1107" 
d="M498 -31q-218 0 -341 131t-128 361l270 69q0 -168 42.5 -251.5t147.5 -83.5q98 0 139.5 71.5t41.5 216.5v951h266v-930q0 -274 -108.5 -404.5t-329.5 -130.5z" />
    <glyph glyph-name="K" unicode="K" horiz-adv-x="1439" 
d="M1124 0l-489 664l-182 -187v-477h-267v1434h267v-277v-354l569 631h358l-563 -580l645 -854h-338z" />
    <glyph glyph-name="L" unicode="L" horiz-adv-x="1245" 
d="M186 0v1434h267v-1201h772v-233h-1039z" />
    <glyph glyph-name="M" unicode="M" horiz-adv-x="1994" 
d="M186 0v1434h437l274 -750q81 -226 109 -291q14 36 108 291l275 750h421v-1434h-266v655v537l-436 -1192h-221l-434 1192v-537v-655h-267z" />
    <glyph glyph-name="N" unicode="N" horiz-adv-x="1699" 
d="M186 0v1434h365l696 -983v348v635h266v-1434h-251l-809 1145v-410v-735h-267z" />
    <glyph glyph-name="O" unicode="O" horiz-adv-x="1677" 
d="M840 -31q-223 0 -393.5 95.5t-261.5 264.5t-91 386q0 161 53.5 299.5t150 238t236.5 155.5t306 56q221 0 391 -96.5t262 -266.5t92 -386q0 -217 -91 -386t-261 -264.5t-393 -95.5zM840 197q215 0 340 145t125 373q0 231 -125 376.5t-340 145.5q-143 0 -250 -68
t-162 -185.5t-55 -268.5q0 -228 126 -373t341 -145z" />
    <glyph glyph-name="P" unicode="P" horiz-adv-x="1359" 
d="M186 0v1434h617q229 0 365.5 -123.5t136.5 -329.5q0 -205 -137 -330t-365 -125h-350v-526h-267zM453 752h303q126 0 198 62t72 167q0 104 -72 164.5t-198 60.5h-303v-454z" />
    <glyph glyph-name="Q" unicode="Q" horiz-adv-x="1705" 
d="M840 -31q-223 0 -393.5 95.5t-261.5 264.5t-91 386q0 161 53.5 299.5t150 238t236.5 155.5t306 56q221 0 391 -96.5t262 -266.5t92 -386q0 -263 -133 -453q51 -33 98.5 -49t122.5 -16v-228q-244 0 -385 131q-186 -131 -448 -131zM840 197q161 0 276 88l-41 49
q-41 49 -74 81t-77 61.5t-95 41.5t-112 8v228q194 32 342 -88q81 -67 194 -209q52 120 52 258q0 231 -125 376.5t-340 145.5q-143 0 -250 -68t-162 -185.5t-55 -268.5q0 -228 126 -373t341 -145z" />
    <glyph glyph-name="R" unicode="R" horiz-adv-x="1456" 
d="M186 0v1434h668q223 0 351 -106t128 -277q0 -87 -30 -158t-81.5 -118t-112.5 -76t-132 -42q138 -17 213.5 -89t101.5 -218l66 -350h-287l-49 328q-20 130 -88 183.5t-207 53.5h-274v-565h-267zM453 788h354q111 0 179.5 53t68.5 156t-68.5 156t-179.5 53h-354v-418z" />
    <glyph glyph-name="S" unicode="S" horiz-adv-x="1351" 
d="M688 -31q-107 0 -200 22t-162 60.5t-123 92t-88 115.5t-52 132l252 96q15 -60 44 -111t74 -94t111.5 -67.5t147.5 -24.5q145 0 218 55.5t73 147.5q0 78 -59 127t-187 72l-182 31q-202 34 -311 133.5t-109 283.5q0 181 145 302.5t394 121.5q123 0 225 -31.5t169 -85
t110 -115t65 -130.5l-248 -96q-79 237 -329 237q-128 0 -193 -54t-65 -136q0 -141 202 -179l187 -32q214 -35 338.5 -143t124.5 -287q0 -94 -35.5 -173.5t-104 -140t-179.5 -95t-253 -34.5z" />
    <glyph glyph-name="T" unicode="T" horiz-adv-x="1310" 
d="M518 0v1206h-498v228h1270v-228h-506v-1206h-266z" />
    <glyph glyph-name="U" unicode="U" horiz-adv-x="1550" 
d="M776 -31q-283 0 -445.5 154t-162.5 434v877h266v-836q0 -190 86 -292.5t256 -102.5q173 0 256.5 103.5t83.5 291.5v836h266v-877q0 -277 -163 -432.5t-443 -155.5z" />
    <glyph glyph-name="V" unicode="V" horiz-adv-x="1425" 
d="M520 0l-481 1434h297l262 -848q91 -292 115 -365q5 14 114 365l267 848h292l-483 -1434h-383z" />
    <glyph glyph-name="W" unicode="W" horiz-adv-x="2109" 
d="M422 0l-369 1434h287l147 -670l101 -451q16 65 98 369l205 752h340l207 -785q21 -80 41.5 -157t30 -113.5t16.5 -65.5q14 60 104 455l154 666h280l-383 -1434h-313l-207 782q-60 227 -102 369q-12 -52 -101 -369l-219 -782h-317z" />
    <glyph glyph-name="X" unicode="X" horiz-adv-x="1415" 
d="M-2 0l549 760l-500 674h338l162 -224q38 -53 78 -109.5t61.5 -86.5t38.5 -53q12 17 162 233l168 240h305l-483 -674l542 -760h-338l-207 307q-101 153 -172 256q-21 -29 -81.5 -115.5t-100.5 -142.5l-213 -305h-309z" />
    <glyph glyph-name="Y" unicode="Y" horiz-adv-x="1359" 
d="M549 0v592l-520 842h311l203 -342l145 -246l139 248l191 340h305l-508 -840v-594h-266z" />
    <glyph glyph-name="Z" unicode="Z" horiz-adv-x="1333" 
d="M88 0v281l832 925h-258h-551v228h1114v-265l-844 -938h258h621v-231h-1172z" />
    <glyph glyph-name="bracketleft" unicode="[" horiz-adv-x="720" 
d="M172 -307v1853h494v-196h-265v-1461h265v-196h-494z" />
    <glyph glyph-name="backslash" unicode="\" horiz-adv-x="907" 
d="M606 -209l-551 1858h246l551 -1858h-246z" />
    <glyph glyph-name="bracketright" unicode="]" horiz-adv-x="720" 
d="M549 1546v-1853h-494v196h264v1461h-264v196h494z" />
    <glyph glyph-name="asciicircum" unicode="^" horiz-adv-x="1128" 
d="M76 680l352 754h272l353 -754h-267l-104 250q-81 186 -119 284q-35 -80 -121 -282l-106 -252h-260z" />
    <glyph glyph-name="underscore" unicode="_" horiz-adv-x="1304" 
d="M100 -328v207h1104v-207h-1104z" />
    <glyph glyph-name="grave" unicode="`" horiz-adv-x="880" 
d="M424 1159l-225 305h290l103 -305h-168z" />
    <glyph glyph-name="a" unicode="a" horiz-adv-x="1148" 
d="M416 -31q-144 0 -235 80t-91 213q0 83 35.5 148.5t93 108t143 73.5t174 47.5t197.5 26.5v34q0 160 -188 160q-193 0 -240 -170l-231 60q20 124 144 212.5t327 88.5q211 0 322.5 -97t111.5 -284v-412q0 -38 11 -49.5t50 -11.5h97v-197h-193q-91 0 -133.5 39.5t-52.5 112.5
q-51 -81 -136.5 -132t-205.5 -51zM498 158q99 0 167 66.5t68 195.5v82q-88 -10 -151.5 -24t-121 -38t-87 -62.5t-29.5 -90.5q0 -60 39.5 -94.5t114.5 -34.5z" />
    <glyph glyph-name="b" unicode="b" horiz-adv-x="1245" 
d="M729 -31q-120 0 -205 52t-129 124v-145h-243v1434h249v-373v-184q44 69 127.5 121.5t202.5 52.5q194 0 313 -148t119 -393q0 -244 -119.5 -392.5t-314.5 -148.5zM649 166q117 0 185.5 82t68.5 264q0 180 -68.5 261t-185.5 81q-118 0 -189 -87.5t-71 -254.5
q0 -168 71 -257t189 -89z" />
    <glyph glyph-name="c" unicode="c" horiz-adv-x="1134" 
d="M604 -31q-232 0 -378 149t-146 394q0 240 148.5 389.5t375.5 149.5q174 0 295 -84.5t168 -218.5l-229 -82q-30 85 -91 133.5t-149 48.5q-115 0 -189.5 -87t-74.5 -249q0 -164 75.5 -252t190.5 -88q184 0 252 207l235 -84q-57 -150 -183 -238t-300 -88z" />
    <glyph glyph-name="d" unicode="d" horiz-adv-x="1245" 
d="M516 -31q-194 0 -313 148t-119 393t119 393t313 148q118 0 201.5 -52t126.5 -122v184v373h250v-1434h-244v143q-43 -69 -128.5 -121.5t-205.5 -52.5zM598 166q118 0 188 88t70 256q0 167 -70 255.5t-188 88.5q-117 0 -185.5 -82t-68.5 -262q0 -182 68 -263t186 -81z" />
    <glyph glyph-name="e" unicode="e" horiz-adv-x="1140" 
d="M580 -31q-228 0 -363 144t-135 397q0 242 139 391.5t354 149.5q159 0 274 -80t167 -216.5t35 -305.5h-721q7 -146 76 -214.5t176 -68.5q170 0 249 184l226 -84q-55 -132 -172.5 -214.5t-304.5 -82.5zM338 633h465q-6 110 -67.5 170.5t-160.5 60.5q-94 0 -159 -61.5
t-78 -169.5z" />
    <glyph glyph-name="f" unicode="f" horiz-adv-x="772" 
d="M244 0v825h-207v195h207v145q0 128 66 198.5t190 70.5h282v-205h-194q-50 0 -72 -22.5t-22 -71.5v-115h247v-195h-247v-825h-250z" />
    <glyph glyph-name="g" unicode="g" horiz-adv-x="1239" 
d="M352 -399q-293 0 -293 209q0 65 37 118.5t90 87.5q-94 62 -94 179q0 126 158 221q-51 41 -82 108t-31 146q0 167 121 274t309 107q132 0 231.5 -55.5t147.5 -139.5q8 89 46 126.5t130 37.5h88v-195h-100q-57 0 -78 -23t-28 -104l-5 -30q-15 -168 -131.5 -266.5
t-294.5 -98.5q-132 0 -202 37q-84 -29 -84 -82q0 -30 23.5 -42.5t72.5 -12.5h442q154 0 249 -85.5t95 -213.5q0 -145 -97 -224t-247 -79h-473zM573 477q89 0 143 53.5t54 141.5t-54 144t-143 56q-88 0 -142 -55.5t-54 -144.5q0 -88 53.5 -141.5t142.5 -53.5zM385 -209h397
q140 0 140 107q0 102 -140 102h-458q-25 -14 -44.5 -44t-19.5 -65q0 -100 125 -100z" />
    <glyph glyph-name="h" unicode="h" horiz-adv-x="1210" 
d="M152 0v1434h249v-373v-203q13 23 27.5 43.5t44.5 49.5t64 49.5t87 35.5t113 15q165 0 248.5 -100t83.5 -273v-678h-250v623q0 219 -184 219q-47 0 -85 -15t-62 -37t-41.5 -57.5t-26 -66t-13 -73t-5.5 -67.5t-1 -61v-465h-249z" />
    <glyph glyph-name="i" unicode="i" horiz-adv-x="548" 
d="M141 1182v254h267v-254h-267zM152 0v1020h247v-1020h-247z" />
    <glyph glyph-name="j" unicode="j" horiz-adv-x="567" 
d="M160 1182v252h262v-252h-262zM-76 -399v206h150q50 0 72 22.5t22 72.5v1118h248v-1159q0 -123 -66.5 -191.5t-191.5 -68.5h-234z" />
    <glyph glyph-name="k" unicode="k" horiz-adv-x="1210" 
d="M909 0l-342 442l-166 -155v-287h-249v1434h249v-512v-355l457 453h311l-430 -412l486 -608h-316z" />
    <glyph glyph-name="l" unicode="l" horiz-adv-x="552" 
d="M152 0v1434h249v-1434h-249z" />
    <glyph glyph-name="m" unicode="m" horiz-adv-x="1830" 
d="M152 0v1020h243v-150q44 81 122.5 131t182.5 50t182 -51.5t122 -141.5q122 193 342 193q160 0 252 -92.5t92 -278.5v-680h-250v623q0 217 -183 217q-43 0 -77.5 -13t-56.5 -32t-37.5 -50.5t-23.5 -58t-12.5 -64.5t-5 -61t-0.5 -57v-504h-245v623q0 217 -183 217
q-43 0 -77 -13t-56 -32.5t-38 -50t-24.5 -58t-13 -64.5t-5.5 -61.5t-1 -56.5v-504h-249z" />
    <glyph glyph-name="n" unicode="n" horiz-adv-x="1210" 
d="M152 0v1020h243v-162q16 28 39 56t62.5 61.5t99 54.5t129.5 21q176 0 260 -99t84 -274v-678h-250v623q0 219 -184 219q-47 0 -85 -15t-62 -37t-41.5 -57.5t-26 -66t-13 -73t-5.5 -67.5t-1 -61v-465h-249z" />
    <glyph glyph-name="o" unicode="o" horiz-adv-x="1187" 
d="M594 -31q-222 0 -368 153.5t-146 387.5q0 238 144.5 389.5t369.5 151.5t369.5 -151.5t144.5 -389.5q0 -241 -144.5 -391t-369.5 -150zM594 172q118 0 186 84.5t68 249.5q0 166 -68.5 254t-185.5 88t-186.5 -88t-69.5 -254q0 -165 69 -249.5t187 -84.5z" />
    <glyph glyph-name="p" unicode="p" horiz-adv-x="1245" 
d="M152 -399v1419h243v-143q44 69 129.5 122.5t204.5 53.5q195 0 314.5 -148.5t119.5 -394.5q0 -244 -119.5 -392.5t-314.5 -148.5q-119 0 -202.5 52.5t-125.5 123.5v-186v-358h-249zM647 166q118 0 187 82t69 264q0 180 -69.5 262t-186.5 82q-118 0 -188 -88.5t-70 -255.5
q0 -168 70 -257t188 -89z" />
    <glyph glyph-name="q" unicode="q" horiz-adv-x="1245" 
d="M844 -399v358v184q-43 -70 -126.5 -122t-201.5 -52q-194 0 -313 148t-119 393t119 394t313 149q119 0 204 -53t130 -123v143h244v-1419h-250zM598 166q119 0 191.5 88.5t72.5 255.5t-73 256.5t-191 89.5q-117 0 -185.5 -82.5t-68.5 -263.5q0 -182 68 -263t186 -81z" />
    <glyph glyph-name="r" unicode="r" horiz-adv-x="856" 
d="M152 0v1020h245v-225q15 38 39 74t65.5 77t107 66.5t145.5 25.5q40 0 67 -6v-256q-49 8 -110 8q-163 0 -236.5 -83.5t-73.5 -270.5v-430h-249z" />
    <glyph glyph-name="s" unicode="s" horiz-adv-x="1050" 
d="M528 -29q-176 0 -305 78t-162 215l232 74q6 -27 18.5 -53.5t39 -58t75 -51t113.5 -19.5q88 0 135 31.5t47 86.5q0 47 -33.5 78t-118.5 49l-135 27q-64 12 -111.5 27.5t-90.5 39.5t-70 56t-42.5 77.5t-15.5 104.5q0 142 114.5 230t299.5 88q92 0 168 -21.5t126 -58.5
t82.5 -78.5t49.5 -87.5l-211 -90q-25 67 -80 111t-143 44q-81 0 -124.5 -32.5t-43.5 -81.5q0 -45 33.5 -70.5t122.5 -42.5l131 -27q350 -67 350 -317q0 -151 -119.5 -239.5t-331.5 -88.5z" />
    <glyph glyph-name="t" unicode="t" horiz-adv-x="862" 
d="M512 0q-124 0 -191 69t-67 191v565h-221v195h221v321h250v-321h270v-195h-270v-526q0 -49 22 -71.5t72 -22.5h217v-205h-303z" />
    <glyph glyph-name="u" unicode="u" horiz-adv-x="1198" 
d="M463 -31q-155 0 -239.5 100t-84.5 271v680h250v-621q0 -221 176 -221q232 0 232 363v479h250v-1020h-248v168q-120 -199 -336 -199z" />
    <glyph glyph-name="v" unicode="v" horiz-adv-x="1099" 
d="M403 0l-374 1020h262l155 -477l50 -150l38.5 -115.5t20.5 -60.5q6 21 19 62t36.5 116t46.5 148l150 477h254l-356 -1020h-302z" />
    <glyph glyph-name="w" unicode="w" horiz-adv-x="1738" 
d="M362 0l-329 1020h258l104 -375q26 -97 52.5 -195.5t38 -140t18.5 -65.5q36 135 100 366l117 410h295l123 -428q74 -276 96 -346q8 33 115 422l102 352h256l-334 -1020h-297l-131 463q-26 94 -52.5 186.5t-33.5 120.5q-12 -50 -86 -305l-131 -465h-281z" />
    <glyph glyph-name="x" unicode="x" horiz-adv-x="1085" 
d="M20 0l377 528l-358 492h299l88 -133q102 -152 125 -185q19 26 127 185l92 133h274l-360 -496l385 -524h-303l-102 150q-53 81 -136 198q-86 -121 -135 -196l-102 -152h-271z" />
    <glyph glyph-name="y" unicode="y" horiz-adv-x="1101" 
d="M805 1020h262l-416 -1174q-45 -133 -116.5 -189t-202.5 -56h-266v206h241q53 0 82.5 23.5t52.5 85.5l31 92l-475 1012h270l189 -438q33 -78 57.5 -136t38.5 -91t20 -46l91 275z" />
    <glyph glyph-name="z" unicode="z" horiz-adv-x="1013" 
d="M82 0v219l530 598h-258h-250v203h814v-180l-564 -635h271h319v-205h-862z" />
    <glyph glyph-name="braceleft" unicode="{" horiz-adv-x="735" 
d="M528 -307q-156 0 -220 76t-64 233v301q0 119 -42 164t-149 45v209q108 0 149.5 41t41.5 156v319q0 157 64 233t220 76h148v-190h-74q-67 0 -98 -32.5t-31 -109.5v-307q0 -57 -13.5 -102t-33 -73t-53 -51.5t-62 -35.5t-71.5 -27q37 -13 60 -23t53.5 -27t49 -37t36.5 -48.5
t26 -67.5t8 -87v-303q0 -77 31 -109.5t98 -32.5h74v-190h-148z" />
    <glyph glyph-name="bar" unicode="|" horiz-adv-x="573" 
d="M172 -209v1858h229v-1858h-229z" />
    <glyph glyph-name="braceright" unicode="}" horiz-adv-x="735" 
d="M209 1542q154 0 218.5 -76t64.5 -233v-301q0 -119 41.5 -164t148.5 -45v-209q-108 0 -149 -40.5t-41 -156.5v-319q0 -157 -64.5 -233t-218.5 -76h-150v190h74q68 0 98.5 31.5t30.5 109.5v308q0 57 13.5 102t33.5 73.5t53.5 51.5t62 35t71.5 26q-55 20 -89 37t-71.5 49.5
t-55.5 83t-18 121.5v303q0 78 -30.5 110t-98.5 32h-74v190h150z" />
    <glyph glyph-name="asciitilde" unicode="~" horiz-adv-x="1310" 
d="M868 545q-104 0 -219 59l-80 41q-74 39 -135 39q-98 0 -182 -109l-146 146q60 94 150.5 144t187.5 50q101 0 218 -57l75 -39q85 -43 142 -43q97 0 184 113l145 -150q-60 -94 -151.5 -144t-188.5 -50z" />
    <glyph glyph-name="uni00A0" unicode="&#xa0;" horiz-adv-x="499" 
 />
    <glyph glyph-name="exclamdown" unicode="&#xa1;" horiz-adv-x="575" 
d="M440 1184v-299h-305v299h305zM346 694l78 -575v-369h-274v371l81 573h115z" />
    <glyph glyph-name="cent" unicode="&#xa2;" horiz-adv-x="1163" 
d="M518 -244v219q-193 31 -309.5 177t-116.5 366q0 215 118.5 361.5t307.5 177.5v221h164v-217q143 -17 246.5 -97.5t152.5 -199.5l-229 -88q-55 140 -170 172v-383v-283q129 35 180 201l236 -84q-50 -136 -158 -223t-258 -105v-215h-164zM518 190v369v283
q-78 -29 -122 -110t-44 -214q0 -134 44.5 -215.5t121.5 -112.5z" />
    <glyph glyph-name="sterling" unicode="&#xa3;" horiz-adv-x="1200" 
d="M684 227h428v-227h-999v231q26 7 49 15.5t64.5 30.5t70.5 47.5t51.5 67t22.5 89.5q0 66 -31 133h-223v172h112q-77 118 -77 240q0 103 40 188t108 138.5t154 82.5t181 29q79 0 155 -24t142.5 -71t113.5 -126t62 -180l-258 -62q-16 123 -80 182.5t-147 59.5
q-93 0 -152 -57.5t-59 -157.5q0 -63 23 -118.5t67 -123.5h329v-172h-243q10 -48 10 -94q0 -187 -172 -293h258z" />
    <glyph glyph-name="currency" unicode="&#xa4;" horiz-adv-x="1335" 
d="M272 158l-168 168l162 159q-65 105 -65 236q0 125 63 235l-160 164l168 166l166 -164q110 60 232 60q125 0 227 -60l166 164l168 -166l-162 -164q68 -104 68 -235q0 -123 -68 -236l162 -159l-168 -168l-164 166q-115 -64 -229 -64q-123 0 -234 62zM670 477
q102 0 167.5 70t65.5 174t-65.5 174t-167.5 70t-169 -70t-67 -174t67 -174t169 -70z" />
    <glyph glyph-name="yen" unicode="&#xa5;" horiz-adv-x="1413" 
d="M1354 1434l-400 -619h256v-174h-364v-152h364v-172h-364v-317h-266v317h-373v172h373v152h-373v174h260l-408 619h310l198 -330l148 -250q102 184 143 254l191 326h305z" />
    <glyph glyph-name="brokenbar" unicode="&#xa6;" horiz-adv-x="573" 
d="M172 856v793h229v-793h-229zM172 -209v793h229v-793h-229z" />
    <glyph glyph-name="section" unicode="&#xa7;" horiz-adv-x="1304" 
d="M651 -426q-211 0 -336.5 98.5t-152.5 249.5l252 76q48 -201 237 -201q96 0 147.5 43.5t51.5 106.5q0 59 -34 96t-118 63l-338 107q-288 91 -288 324q0 98 62 179.5t155 123.5q-99 86 -99 250q0 157 122 265.5t333 108.5q210 0 333 -98t150 -248l-251 -76
q-49 199 -232 199q-89 0 -137.5 -44t-48.5 -107q0 -61 32.5 -96t118.5 -62l338 -109q145 -47 217 -124.5t72 -196.5q0 -98 -62.5 -181.5t-154.5 -125.5q98 -92 98 -246q0 -159 -124.5 -267t-342.5 -108zM844 299q55 27 88 73t33 101q0 98 -138 143l-235 76q-72 22 -129 47
q-119 -70 -119 -178q0 -96 137 -141l236 -74q66 -20 127 -47z" />
    <glyph glyph-name="dieresis" unicode="&#xa8;" horiz-adv-x="1069" 
d="M231 1188v231h242v-231h-242zM662 1188v231h241v-231h-241z" />
    <glyph glyph-name="copyright" unicode="&#xa9;" horiz-adv-x="1792" 
d="M895 -70q-166 0 -316 63t-257.5 170.5t-170.5 255.5t-63 312t63 312t170.5 255.5t257.5 170.5t316 63t316 -63t258 -170.5t171.5 -255.5t63.5 -312t-63.5 -312t-171.5 -255.5t-258 -170.5t-316 -63zM897 102q176 0 320.5 85t225.5 229t81 315q0 172 -81 316.5
t-225.5 229.5t-320.5 85t-321 -85t-226.5 -229.5t-81.5 -316.5q0 -171 81.5 -315.5t226.5 -229t321 -84.5zM899 297q-194 0 -305 118.5t-111 323.5q0 192 117 313.5t303 121.5q136 0 236.5 -71.5t136.5 -187.5l-174 -55q-51 172 -209 172q-101 0 -164 -80.5t-63 -218.5
q0 -136 62 -214.5t163 -78.5q85 0 140.5 50t76.5 135l174 -60q-39 -121 -142.5 -194.5t-240.5 -73.5z" />
    <glyph glyph-name="ordfeminine" unicode="&#xaa;" horiz-adv-x="1042" 
d="M422 592q-141 0 -238.5 123t-97.5 313t98 308t244 118q175 0 264 -145v125h209v-822h-209v133q-94 -153 -270 -153zM502 756q85 0 138.5 73t53.5 199q0 128 -52.5 195t-139.5 67t-139 -67t-52 -195q0 -127 53 -199.5t138 -72.5z" />
    <glyph glyph-name="guillemotleft" unicode="&#xab;" horiz-adv-x="1165" 
d="M621 985l-285 -465l287 -473h-269l-280 469l282 469h265zM1094 985l-285 -465l285 -473h-267l-282 471l284 467h265z" />
    <glyph glyph-name="logicalnot" unicode="&#xac;" horiz-adv-x="1353" 
d="M987 319v302h-866v219h1085v-521h-219z" />
    <glyph glyph-name="uni00AD" unicode="&#xad;" horiz-adv-x="929" 
d="M129 526v238h672v-238h-672z" />
    <glyph glyph-name="registered" unicode="&#xae;" horiz-adv-x="1161" 
d="M580 545q-213 0 -354.5 143t-141.5 352q0 136 63 248.5t177 178t256 65.5t256 -65.5t177.5 -178t63.5 -248.5q0 -137 -64 -250t-178 -179t-255 -66zM580 666q163 0 263.5 105.5t100.5 268.5q0 160 -101 264.5t-263 104.5q-161 0 -261 -104.5t-100 -264.5
q0 -163 100 -268.5t261 -105.5zM397 805v467h244q65 0 108.5 -33.5t43.5 -89.5q0 -55 -39.5 -84.5t-100.5 -36.5q56 -7 81.5 -33.5t33.5 -81.5l16 -108h-127l-12 104q-8 47 -24.5 63.5t-59.5 16.5h-45v-184h-119zM516 1077h80q76 0 76 53q0 52 -80 52h-76v-105z" />
    <glyph glyph-name="macron" unicode="&#xaf;" horiz-adv-x="690" 
d="M47 1196v176h639v-176h-639z" />
    <glyph glyph-name="degree" unicode="&#xb0;" horiz-adv-x="897" 
d="M446 872q-163 0 -266.5 105t-103.5 260q0 157 105 263t268 106q161 0 266.5 -106t105.5 -263q0 -158 -105 -261.5t-270 -103.5zM449 1061q72 0 116.5 49t44.5 129q0 78 -44.5 126t-116.5 48q-71 0 -117.5 -48.5t-46.5 -125.5q0 -81 46 -129.5t118 -48.5z" />
    <glyph glyph-name="plusminus" unicode="&#xb1;" horiz-adv-x="1380" 
d="M588 510v266h-436v207h436v285h219v-285h434v-207h-434v-266h-219zM137 178v221h1096v-221h-1096z" />
    <glyph glyph-name="uni00B2" unicode="&#xb2;" horiz-adv-x="796" 
d="M96 799v184q216 126 304.5 206.5t88.5 168.5q0 51 -26 80.5t-70 29.5q-52 0 -80.5 -44t-25.5 -119l-199 22q-2 138 84 224.5t227 86.5q136 0 218.5 -72.5t82.5 -189.5q0 -108 -84 -217q-78 -93 -274 -190h268h95v-170h-609z" />
    <glyph glyph-name="uni00B3" unicode="&#xb3;" horiz-adv-x="792" 
d="M397 782q-139 0 -227.5 72.5t-97.5 194.5l200 38q16 -139 123 -139q47 0 76 25.5t29 68.5t-30.5 68t-90.5 25h-55v159h55q52 0 79 24.5t27 65.5q0 38 -24 62t-64 24q-46 0 -72 -34t-26 -93l-203 31q5 117 88.5 190.5t212.5 73.5t210 -62.5t81 -162.5q0 -63 -35.5 -112
t-103.5 -76q156 -53 156 -201q0 -107 -85.5 -174.5t-222.5 -67.5z" />
    <glyph glyph-name="acute" unicode="&#xb4;" horiz-adv-x="718" 
d="M207 1159l102 305h291l-227 -305h-166z" />
    <glyph glyph-name="uni00B5" unicode="&#xb5;" horiz-adv-x="1255" 
d="M174 -399v1419h250v-617q0 -221 176 -221q231 0 231 367v471h250v-1020h-247v170q-13 -24 -29 -47t-45 -52.5t-62 -50.5t-81 -36t-101 -15q-48 0 -92 13v-381h-250z" />
    <glyph glyph-name="paragraph" unicode="&#xb6;" horiz-adv-x="1474" 
d="M596 1434h786v-195h-170v-1636h-229v1636h-178v-1636h-232v891h-45q-200 0 -334.5 133t-134.5 327q0 151 73 261.5t193 164.5t271 54z" />
    <glyph glyph-name="periodcentered" unicode="&#xb7;" horiz-adv-x="561" 
d="M129 575v299h305v-299h-305z" />
    <glyph glyph-name="cedilla" unicode="&#xb8;" horiz-adv-x="778" 
d="M336 -465q-81 0 -147 31t-103 72l92 120q71 -71 154 -71q84 0 84 53q0 24 -22 37.5t-58 13.5q-38 0 -62 -8l-67 88l127 129h164l-60 -53q-28 -24 -53 -49h16q74 0 131.5 -44.5t57.5 -129.5q0 -77 -64 -133t-190 -56z" />
    <glyph glyph-name="uni00B9" unicode="&#xb9;" horiz-adv-x="612" 
d="M274 799v350v221q-40 -56 -95 -80.5t-111 -21.5v186q174 9 237 166h168v-821h-199z" />
    <glyph glyph-name="ordmasculine" unicode="&#xba;" horiz-adv-x="991" 
d="M498 592q-186 0 -301 123t-115 309q0 191 114 310.5t302 119.5q186 0 298.5 -119.5t112.5 -310.5q0 -186 -113.5 -309t-297.5 -123zM498 752q85 0 135.5 72t50.5 200q0 132 -50 201t-136 69q-89 0 -140 -69t-51 -201q0 -129 51.5 -200.5t139.5 -71.5z" />
    <glyph glyph-name="guillemotright" unicode="&#xbb;" horiz-adv-x="1163" 
d="M340 985l281 -471l-283 -467h-264l284 465l-286 473h268zM811 985l283 -469l-285 -469h-264l284 465l-286 473h268z" />
    <glyph glyph-name="onequarter" unicode="&#xbc;" horiz-adv-x="1806" 
d="M274 612v351v221q-79 -110 -206 -103v187q174 9 237 166h168v-822h-199zM190 0l1037 1434h229l-1034 -1434h-232zM1440 0v195h-381v149l323 477h244v-465h115v-161h-115v-195h-186zM1440 356v70v195l-178 -265h127h51z" />
    <glyph glyph-name="onehalf" unicode="&#xbd;" horiz-adv-x="1775" 
d="M274 612v351v221q-79 -110 -208 -103v187q174 9 237 166h170v-822h-199zM190 0l1037 1434h227l-1034 -1434h-230zM1085 0v184q217 126 305.5 206.5t88.5 168.5q0 51 -26.5 81t-70.5 30q-52 0 -80.5 -44.5t-25.5 -119.5l-199 22q-2 137 84.5 223.5t227.5 86.5
q136 0 218.5 -72t82.5 -188q0 -109 -84 -218q-77 -96 -275 -190h268h95v-170h-609z" />
    <glyph glyph-name="threequarters" unicode="&#xbe;" horiz-adv-x="1986" 
d="M395 596q-139 0 -227.5 72t-97.5 194l200 39q16 -139 123 -139q47 0 76 25.5t29 68.5t-30.5 67.5t-90.5 24.5h-55v160h55q52 0 79 24.5t27 65.5q0 38 -24 62t-64 24q-46 0 -72 -34t-26 -93l-203 31q5 117 88.5 190.5t212.5 73.5t210 -62.5t81 -162.5q0 -63 -35.5 -112.5
t-103.5 -76.5q155 -53 155 -200q0 -107 -85.5 -174.5t-221.5 -67.5zM371 0l1036 1434h229l-1034 -1434h-231zM1620 0v195h-381v149l324 477h243v-465h115v-161h-115v-195h-186zM1620 356v70v195l-178 -265h127h51z" />
    <glyph glyph-name="questiondown" unicode="&#xbf;" horiz-adv-x="1069" 
d="M713 1186v-299h-305v299h305zM678 696q0 -70 -12 -122.5t-39 -94t-56 -69.5t-79 -66q-48 -38 -74.5 -64t-50 -69.5t-23.5 -91.5q0 -84 53.5 -132t143.5 -48q208 0 217 274l248 -39q-6 -212 -129.5 -332.5t-341.5 -120.5q-212 0 -333.5 108.5t-121.5 272.5q0 64 17 118
t53 100.5t73.5 82.5t95.5 80q65 50 95 98.5t30 114.5h234z" />
    <glyph glyph-name="Agrave" unicode="&#xc0;" horiz-adv-x="1472" 
d="M838 1573h-185l-247 303h319zM1155 0l-121 354h-604l-125 -354h-287l543 1434h354l535 -1434h-295zM510 582h444l-118 348l-103 289q-1 -2 -100 -291z" />
    <glyph glyph-name="Aacute" unicode="&#xc1;" horiz-adv-x="1472" 
d="M1081 1876l-252 -303h-182l113 303h321zM1155 0l-121 354h-604l-125 -354h-287l543 1434h354l535 -1434h-295zM510 582h444l-118 348l-103 289q-1 -2 -100 -291z" />
    <glyph glyph-name="Acircumflex" unicode="&#xc2;" horiz-adv-x="1472" 
d="M737 1720l-174 -147h-248l246 258h352l246 -258h-248zM1155 0l-121 354h-604l-125 -354h-287l543 1434h354l535 -1434h-295zM510 582h444l-118 348l-103 289q-1 -2 -100 -291z" />
    <glyph glyph-name="Atilde" unicode="&#xc3;" horiz-adv-x="1472" 
d="M582 1675q-40 0 -62.5 -26.5t-23.5 -75.5h-203q0 131 74.5 200.5t199.5 69.5q91 0 187 -51l59 -33q68 -37 105 -37q79 0 88 99h196q0 -139 -71.5 -205t-198.5 -66q-85 0 -187 56l-59 32q-63 37 -104 37zM1155 0l-121 354h-604l-125 -354h-287l543 1434h354l535 -1434
h-295zM510 582h444l-118 348l-103 289q-1 -2 -100 -291z" />
    <glyph glyph-name="Adieresis" unicode="&#xc4;" horiz-adv-x="1472" 
d="M637 1804v-231h-268v231h268zM1110 1804v-231h-268v231h268zM1155 0l-121 354h-604l-125 -354h-287l543 1434h354l535 -1434h-295zM510 582h444l-118 348l-103 289q-1 -2 -100 -291z" />
    <glyph glyph-name="Aring" unicode="&#xc5;" horiz-adv-x="1472" 
d="M737 1532q-110 0 -187 72t-77 184q0 107 78.5 180.5t185.5 73.5q106 0 184 -74t78 -182q0 -110 -77.5 -182t-184.5 -72zM737 1898q-46 0 -77 -32t-31 -78q0 -51 30.5 -83t77.5 -32q44 0 75.5 32t31.5 81q0 47 -32 79.5t-75 32.5zM1155 0l-121 354h-604l-125 -354h-287
l543 1434h354l535 -1434h-295zM510 582h444l-118 348l-103 289q-1 -2 -100 -291z" />
    <glyph glyph-name="AE" unicode="&#xc6;" horiz-adv-x="1933" 
d="M1835 1206h-686v-348h500v-225h-500v-406h686v-227h-950v360h-434l-183 -360h-309l774 1434h1102v-228zM885 881v348q-45 -92 -211 -428l-109 -213h320v293z" />
    <glyph glyph-name="Ccedilla" unicode="&#xc7;" horiz-adv-x="1529" 
d="M942 -23l-35 -30q-28 -24 -53 -49h16q74 0 131.5 -44.5t57.5 -129.5q0 -77 -64 -133t-190 -56q-81 0 -147 31t-103 72l92 120q71 -71 154 -71q84 0 84 53q0 24 -22 37.5t-58 13.5q-38 0 -62 -8l-67 88l98 100q-207 9 -363.5 110t-237.5 268t-81 374q0 156 53.5 292.5
t147.5 235.5t230.5 156t295.5 57q129 0 240 -35t191 -95.5t134.5 -137.5t81.5 -166l-247 -94q-21 62 -53 113t-79.5 95t-116.5 68.5t-153 24.5q-206 0 -325 -136t-119 -378q0 -243 119 -383.5t325 -140.5q305 0 410 307l241 -96q-61 -177 -194 -291t-332 -142z" />
    <glyph glyph-name="Egrave" unicode="&#xc8;" horiz-adv-x="1337" 
d="M627 1573l-248 303h319l113 -303h-184zM186 0v1434h1053v-228h-786v-354h589v-225h-589v-400h786v-227h-1053z" />
    <glyph glyph-name="Eacute" unicode="&#xc9;" horiz-adv-x="1337" 
d="M623 1573l112 303h320l-250 -303h-182zM186 0v1434h1053v-228h-786v-354h589v-225h-589v-400h786v-227h-1053z" />
    <glyph glyph-name="Ecircumflex" unicode="&#xca;" horiz-adv-x="1337" 
d="M289 1573l246 258h352l246 -258h-248l-174 147l-174 -147h-248zM186 0v1434h1053v-228h-786v-354h589v-225h-589v-400h786v-227h-1053z" />
    <glyph glyph-name="Edieresis" unicode="&#xcb;" horiz-adv-x="1337" 
d="M342 1573v231h268v-231h-268zM815 1573v231h268v-231h-268zM186 0v1434h1053v-228h-786v-354h589v-225h-589v-400h786v-227h-1053z" />
    <glyph glyph-name="Igrave" unicode="&#xcc;" horiz-adv-x="636" 
d="M233 1573l-247 303h319l113 -303h-185zM186 0v1434h267v-1434h-267z" />
    <glyph glyph-name="Iacute" unicode="&#xcd;" horiz-adv-x="636" 
d="M229 1573l113 303h320l-250 -303h-183zM186 0v1434h267v-1434h-267z" />
    <glyph glyph-name="Icircumflex" unicode="&#xce;" horiz-adv-x="636" 
d="M-104 1573l245 258h353l245 -258h-247l-175 147l-174 -147h-247zM186 0v1434h267v-1434h-267z" />
    <glyph glyph-name="Idieresis" unicode="&#xcf;" horiz-adv-x="636" 
d="M-51 1573v231h268v-231h-268zM424 1573v231h266v-231h-266zM186 0v1434h267v-1434h-267z" />
    <glyph glyph-name="Eth" unicode="&#xd0;" horiz-adv-x="1556" 
d="M731 1434q206 0 370.5 -84.5t261.5 -247t97 -377.5q0 -168 -56 -305.5t-154 -229t-232 -141t-291 -49.5h-520v649h-160v193h160v592h524zM705 227q479 0 479 494q0 225 -118 355t-347 130h-246v-364h283v-193h-283v-422h232z" />
    <glyph glyph-name="Ntilde" unicode="&#xd1;" horiz-adv-x="1699" 
d="M1049 1550q-85 0 -187 56l-61 32q-63 37 -103 37q-85 0 -88 -102h-202q0 131 75 200.5t201 69.5q88 0 184 -51l60 -33q68 -37 104 -37q82 0 88 99h197q0 -140 -70.5 -205.5t-197.5 -65.5zM186 0v1434h365l696 -983v348v635h266v-1434h-251l-809 1145v-410v-735h-267z" />
    <glyph glyph-name="Ograve" unicode="&#xd2;" horiz-adv-x="1677" 
d="M754 1573l-248 303h319l113 -303h-184zM840 -31q-223 0 -393.5 95.5t-261.5 264.5t-91 386q0 161 53.5 299.5t150 238t236.5 155.5t306 56q221 0 391 -96.5t262 -266.5t92 -386q0 -217 -91 -386t-261 -264.5t-393 -95.5zM840 197q215 0 340 145t125 373q0 231 -125 376.5
t-340 145.5q-143 0 -250 -68t-162 -185.5t-55 -268.5q0 -228 126 -373t341 -145z" />
    <glyph glyph-name="Oacute" unicode="&#xd3;" horiz-adv-x="1677" 
d="M748 1573l112 303h320l-250 -303h-182zM840 -31q-223 0 -393.5 95.5t-261.5 264.5t-91 386q0 161 53.5 299.5t150 238t236.5 155.5t306 56q221 0 391 -96.5t262 -266.5t92 -386q0 -217 -91 -386t-261 -264.5t-393 -95.5zM840 197q215 0 340 145t125 373q0 231 -125 376.5
t-340 145.5q-143 0 -250 -68t-162 -185.5t-55 -268.5q0 -228 126 -373t341 -145z" />
    <glyph glyph-name="Ocircumflex" unicode="&#xd4;" horiz-adv-x="1677" 
d="M416 1573l246 258h352l243 -258h-245l-174 147l-174 -147h-248zM840 -31q-223 0 -393.5 95.5t-261.5 264.5t-91 386q0 161 53.5 299.5t150 238t236.5 155.5t306 56q221 0 391 -96.5t262 -266.5t92 -386q0 -217 -91 -386t-261 -264.5t-393 -95.5zM840 197q215 0 340 145
t125 373q0 231 -125 376.5t-340 145.5q-143 0 -250 -68t-162 -185.5t-55 -268.5q0 -228 126 -373t341 -145z" />
    <glyph glyph-name="Otilde" unicode="&#xd5;" horiz-adv-x="1677" 
d="M1032 1550q-84 0 -186 56l-60 32q-63 37 -104 37t-63.5 -26.5t-22.5 -75.5h-203q0 131 74.5 200.5t200.5 69.5q90 0 186 -51l57 -33q72 -37 107 -37q79 0 88 99h197q0 -139 -71.5 -205t-199.5 -66zM840 -31q-223 0 -393.5 95.5t-261.5 264.5t-91 386q0 161 53.5 299.5
t150 238t236.5 155.5t306 56q221 0 391 -96.5t262 -266.5t92 -386q0 -217 -91 -386t-261 -264.5t-393 -95.5zM840 197q215 0 340 145t125 373q0 231 -125 376.5t-340 145.5q-143 0 -250 -68t-162 -185.5t-55 -268.5q0 -228 126 -373t341 -145z" />
    <glyph glyph-name="Odieresis" unicode="&#xd6;" horiz-adv-x="1677" 
d="M469 1573v231h268v-231h-268zM942 1573v231h268v-231h-268zM840 -31q-223 0 -393.5 95.5t-261.5 264.5t-91 386q0 161 53.5 299.5t150 238t236.5 155.5t306 56q221 0 391 -96.5t262 -266.5t92 -386q0 -217 -91 -386t-261 -264.5t-393 -95.5zM840 197q215 0 340 145
t125 373q0 231 -125 376.5t-340 145.5q-143 0 -250 -68t-162 -185.5t-55 -268.5q0 -228 126 -373t341 -145z" />
    <glyph glyph-name="multiply" unicode="&#xd7;" horiz-adv-x="1222" 
d="M254 211l-148 147l357 357l-359 356l150 152l358 -359l357 357l147 -148l-356 -356l356 -357l-149 -151l-357 358z" />
    <glyph glyph-name="Oslash" unicode="&#xd8;" horiz-adv-x="1681" 
d="M334 -109l-182 140l129 162q-187 206 -187 520q0 162 54 301t150.5 238t236 155.5t305.5 56.5q208 0 377 -94l133 168l182 -141l-131 -166q184 -206 184 -518q0 -217 -90.5 -386.5t-260.5 -265.5t-394 -96q-208 0 -375 90zM453 408l438 553q157 197 174 219
q-91 55 -223 55q-144 0 -251 -68t-161.5 -185t-54.5 -267q0 -175 78 -307zM842 197q215 0 339 145t124 373q0 171 -72 303l-428 -535l-187 -233q92 -53 224 -53z" />
    <glyph glyph-name="Ugrave" unicode="&#xd9;" horiz-adv-x="1550" 
d="M692 1573l-248 303h320l113 -303h-185zM776 -31q-283 0 -445.5 154t-162.5 434v877h266v-836q0 -190 86 -292.5t256 -102.5q173 0 256.5 103.5t83.5 291.5v836h266v-877q0 -277 -163 -432.5t-443 -155.5z" />
    <glyph glyph-name="Uacute" unicode="&#xda;" horiz-adv-x="1550" 
d="M686 1573l113 303h321l-252 -303h-182zM776 -31q-283 0 -445.5 154t-162.5 434v877h266v-836q0 -190 86 -292.5t256 -102.5q173 0 256.5 103.5t83.5 291.5v836h266v-877q0 -277 -163 -432.5t-443 -155.5z" />
    <glyph glyph-name="Ucircumflex" unicode="&#xdb;" horiz-adv-x="1550" 
d="M354 1573l246 258h352l246 -258h-248l-174 147l-174 -147h-248zM776 -31q-283 0 -445.5 154t-162.5 434v877h266v-836q0 -190 86 -292.5t256 -102.5q173 0 256.5 103.5t83.5 291.5v836h266v-877q0 -277 -163 -432.5t-443 -155.5z" />
    <glyph glyph-name="Udieresis" unicode="&#xdc;" horiz-adv-x="1550" 
d="M408 1573v231h268v-231h-268zM881 1573v231h268v-231h-268zM776 -31q-283 0 -445.5 154t-162.5 434v877h266v-836q0 -190 86 -292.5t256 -102.5q173 0 256.5 103.5t83.5 291.5v836h266v-877q0 -277 -163 -432.5t-443 -155.5z" />
    <glyph glyph-name="Yacute" unicode="&#xdd;" horiz-adv-x="1359" 
d="M590 1573l112 303h320l-250 -303h-182zM549 0v592l-520 842h311l203 -342l145 -246l139 248l191 340h305l-508 -840v-594h-266z" />
    <glyph glyph-name="Thorn" unicode="&#xde;" horiz-adv-x="1396" 
d="M815 1184q222 0 362 -124.5t140 -328.5q0 -202 -140.5 -328.5t-359.5 -126.5h-364v-276h-267v1434h267v-250h362zM770 504q123 0 195.5 61.5t72.5 165.5q0 103 -72 163t-196 60h-317v-450h317z" />
    <glyph glyph-name="germandbls" unicode="&#xdf;" horiz-adv-x="1273" 
d="M719 -18q-85 0 -168 14v215q75 -16 127 -16q123 0 190.5 61.5t67.5 165.5q0 108 -77.5 169.5t-201.5 61.5h-96v191h66q110 0 176.5 58.5t66.5 156.5q0 89 -64.5 145t-160.5 56q-114 0 -180 -67.5t-66 -213.5v-979h-247v987q0 226 128 351.5t373 125.5q215 0 339 -105
t124 -259q0 -71 -23 -130t-62 -97.5t-82 -63.5t-91 -39q146 -32 242 -128.5t96 -248.5q0 -188 -129 -299.5t-348 -111.5z" />
    <glyph glyph-name="agrave" unicode="&#xe0;" horiz-adv-x="1148" 
d="M465 1159l-225 305h290l103 -305h-168zM416 -31q-144 0 -235 80t-91 213q0 83 35.5 148.5t93 108t143 73.5t174 47.5t197.5 26.5v34q0 160 -188 160q-193 0 -240 -170l-231 60q20 124 144 212.5t327 88.5q211 0 322.5 -97t111.5 -284v-412q0 -38 11 -49.5t50 -11.5h97
v-197h-193q-91 0 -133.5 39.5t-52.5 112.5q-51 -81 -136.5 -132t-205.5 -51zM498 158q99 0 167 66.5t68 195.5v82q-88 -10 -151.5 -24t-121 -38t-87 -62.5t-29.5 -90.5q0 -60 39.5 -94.5t114.5 -34.5z" />
    <glyph glyph-name="aacute" unicode="&#xe1;" horiz-adv-x="1148" 
d="M469 1159l102 305h291l-227 -305h-166zM416 -31q-144 0 -235 80t-91 213q0 83 35.5 148.5t93 108t143 73.5t174 47.5t197.5 26.5v34q0 160 -188 160q-193 0 -240 -170l-231 60q20 124 144 212.5t327 88.5q211 0 322.5 -97t111.5 -284v-412q0 -38 11 -49.5t50 -11.5h97
v-197h-193q-91 0 -133.5 39.5t-52.5 112.5q-51 -81 -136.5 -132t-205.5 -51zM498 158q99 0 167 66.5t68 195.5v82q-88 -10 -151.5 -24t-121 -38t-87 -62.5t-29.5 -90.5q0 -60 39.5 -94.5t114.5 -34.5z" />
    <glyph glyph-name="acircumflex" unicode="&#xe2;" horiz-adv-x="1148" 
d="M166 1159l223 260h320l223 -260h-225l-158 148l-158 -148h-225zM416 -31q-144 0 -235 80t-91 213q0 83 35.5 148.5t93 108t143 73.5t174 47.5t197.5 26.5v34q0 160 -188 160q-193 0 -240 -170l-231 60q20 124 144 212.5t327 88.5q211 0 322.5 -97t111.5 -284v-412
q0 -38 11 -49.5t50 -11.5h97v-197h-193q-91 0 -133.5 39.5t-52.5 112.5q-51 -81 -136.5 -132t-205.5 -51zM498 158q99 0 167 66.5t68 195.5v82q-88 -10 -151.5 -24t-121 -38t-87 -62.5t-29.5 -90.5q0 -60 39.5 -94.5t114.5 -34.5z" />
    <glyph glyph-name="atilde" unicode="&#xe3;" horiz-adv-x="1148" 
d="M717 1149q-79 0 -168 55l-55 33q-65 37 -95 37q-37 0 -58 -27t-22 -76h-184q0 131 69 201t183 70q80 0 168 -51l53 -33q65 -37 97 -37q73 0 79 98h179q0 -139 -65 -204.5t-181 -65.5zM416 -31q-144 0 -235 80t-91 213q0 83 35.5 148.5t93 108t143 73.5t174 47.5
t197.5 26.5v34q0 160 -188 160q-193 0 -240 -170l-231 60q20 124 144 212.5t327 88.5q211 0 322.5 -97t111.5 -284v-412q0 -38 11 -49.5t50 -11.5h97v-197h-193q-91 0 -133.5 39.5t-52.5 112.5q-51 -81 -136.5 -132t-205.5 -51zM498 158q99 0 167 66.5t68 195.5v82
q-88 -10 -151.5 -24t-121 -38t-87 -62.5t-29.5 -90.5q0 -60 39.5 -94.5t114.5 -34.5z" />
    <glyph glyph-name="adieresis" unicode="&#xe4;" horiz-adv-x="1148" 
d="M211 1188v231h244v-231h-244zM641 1188v231h244v-231h-244zM416 -31q-144 0 -235 80t-91 213q0 83 35.5 148.5t93 108t143 73.5t174 47.5t197.5 26.5v34q0 160 -188 160q-193 0 -240 -170l-231 60q20 124 144 212.5t327 88.5q211 0 322.5 -97t111.5 -284v-412
q0 -38 11 -49.5t50 -11.5h97v-197h-193q-91 0 -133.5 39.5t-52.5 112.5q-51 -81 -136.5 -132t-205.5 -51zM498 158q99 0 167 66.5t68 195.5v82q-88 -10 -151.5 -24t-121 -38t-87 -62.5t-29.5 -90.5q0 -60 39.5 -94.5t114.5 -34.5z" />
    <glyph glyph-name="aring" unicode="&#xe5;" horiz-adv-x="1148" 
d="M551 1128q-103 0 -177.5 69.5t-74.5 174.5q0 103 74.5 172.5t177.5 69.5q101 0 175.5 -70.5t74.5 -173.5q0 -105 -74 -173.5t-176 -68.5zM551 1264q42 0 72 30t30 76q0 45 -30 76t-72 31q-44 0 -74.5 -30.5t-30.5 -74.5q0 -49 30 -78.5t75 -29.5zM416 -31q-144 0 -235 80
t-91 213q0 83 35.5 148.5t93 108t143 73.5t174 47.5t197.5 26.5v34q0 160 -188 160q-193 0 -240 -170l-231 60q20 124 144 212.5t327 88.5q211 0 322.5 -97t111.5 -284v-412q0 -38 11 -49.5t50 -11.5h97v-197h-193q-91 0 -133.5 39.5t-52.5 112.5q-51 -81 -136.5 -132
t-205.5 -51zM498 158q99 0 167 66.5t68 195.5v82q-88 -10 -151.5 -24t-121 -38t-87 -62.5t-29.5 -90.5q0 -60 39.5 -94.5t114.5 -34.5z" />
    <glyph glyph-name="ae" unicode="&#xe6;" horiz-adv-x="1757" 
d="M434 -31q-164 0 -256 79t-92 220q0 79 33.5 142t90 105.5t141 73t175 47t203.5 26.5v36q0 78 -48 120t-144 42q-95 0 -151 -47.5t-75 -122.5l-227 60q22 123 138 212t298 89q128 0 217.5 -45t132.5 -115q45 71 132.5 115.5t197.5 44.5q119 0 215 -48.5t155.5 -131
t85.5 -192t13 -230.5h-721q7 -146 76 -214.5t176 -68.5q171 0 250 184l225 -84q-55 -132 -171 -214.5t-298 -82.5q-139 0 -243 58.5t-144 138.5q-51 -86 -150.5 -141.5t-234.5 -55.5zM956 629h465q-6 113 -67 174t-160 61q-95 0 -160 -62t-78 -173zM492 158q100 0 168.5 67
t68.5 195v84q-88 -10 -151.5 -23t-121.5 -37t-88 -63.5t-30 -93.5q0 -60 40 -94.5t114 -34.5z" />
    <glyph glyph-name="ccedilla" unicode="&#xe7;" horiz-adv-x="1134" 
d="M711 -20l-35 -33q-22 -22 -53 -49h16q75 0 132.5 -44.5t57.5 -129.5q0 -77 -65 -133t-191 -56q-81 0 -146.5 31.5t-100.5 71.5l90 120q71 -71 153 -71q84 0 84 53q0 24 -21.5 37.5t-56.5 13.5q-39 0 -63 -8l-68 88l101 100q-209 20 -337 166.5t-128 374.5
q0 240 148.5 389.5t375.5 149.5q174 0 295 -84.5t168 -218.5l-229 -82q-30 85 -91 133.5t-149 48.5q-115 0 -189.5 -87t-74.5 -249q0 -164 75.5 -252t190.5 -88q184 0 252 207l235 -84q-46 -125 -143.5 -208t-232.5 -107z" />
    <glyph glyph-name="egrave" unicode="&#xe8;" horiz-adv-x="1140" 
d="M494 1159l-226 305h289l102 -305h-165zM580 -31q-228 0 -363 144t-135 397q0 242 139 391.5t354 149.5q159 0 274 -80t167 -216.5t35 -305.5h-721q7 -146 76 -214.5t176 -68.5q170 0 249 184l226 -84q-55 -132 -172.5 -214.5t-304.5 -82.5zM338 633h465
q-6 110 -67.5 170.5t-160.5 60.5q-94 0 -159 -61.5t-78 -169.5z" />
    <glyph glyph-name="eacute" unicode="&#xe9;" horiz-adv-x="1140" 
d="M498 1159l102 305h291l-227 -305h-166zM580 -31q-228 0 -363 144t-135 397q0 242 139 391.5t354 149.5q159 0 274 -80t167 -216.5t35 -305.5h-721q7 -146 76 -214.5t176 -68.5q170 0 249 184l226 -84q-55 -132 -172.5 -214.5t-304.5 -82.5zM338 633h465
q-6 110 -67.5 170.5t-160.5 60.5q-94 0 -159 -61.5t-78 -169.5z" />
    <glyph glyph-name="ecircumflex" unicode="&#xea;" horiz-adv-x="1140" 
d="M195 1159l223 260h319l224 -260h-226l-157 148l-158 -148h-225zM580 -31q-228 0 -363 144t-135 397q0 242 139 391.5t354 149.5q159 0 274 -80t167 -216.5t35 -305.5h-721q7 -146 76 -214.5t176 -68.5q170 0 249 184l226 -84q-55 -132 -172.5 -214.5t-304.5 -82.5z
M338 633h465q-6 110 -67.5 170.5t-160.5 60.5q-94 0 -159 -61.5t-78 -169.5z" />
    <glyph glyph-name="edieresis" unicode="&#xeb;" horiz-adv-x="1140" 
d="M240 1188v231h243v-231h-243zM670 1188v231h243v-231h-243zM580 -31q-228 0 -363 144t-135 397q0 242 139 391.5t354 149.5q159 0 274 -80t167 -216.5t35 -305.5h-721q7 -146 76 -214.5t176 -68.5q170 0 249 184l226 -84q-55 -132 -172.5 -214.5t-304.5 -82.5zM338 633
h465q-6 110 -67.5 170.5t-160.5 60.5q-94 0 -159 -61.5t-78 -169.5z" />
    <glyph glyph-name="igrave" unicode="&#xec;" horiz-adv-x="552" 
d="M193 1159l-226 305h289l102 -305h-165zM152 0v1020h249v-1020h-249z" />
    <glyph glyph-name="iacute" unicode="&#xed;" horiz-adv-x="552" 
d="M197 1159l102 305h291l-228 -305h-165zM152 0v1020h249v-1020h-249z" />
    <glyph glyph-name="icircumflex" unicode="&#xee;" horiz-adv-x="552" 
d="M-106 1159l223 260h319l223 -260h-225l-158 148l-157 -148h-225zM152 0v1020h249v-1020h-249z" />
    <glyph glyph-name="idieresis" unicode="&#xef;" horiz-adv-x="552" 
d="M-61 1188v231h243v-231h-243zM369 1188v231h243v-231h-243zM152 0v1020h249v-1020h-249z" />
    <glyph glyph-name="eth" unicode="&#xf0;" horiz-adv-x="1236" 
d="M952 1241q92 -108 140.5 -256t48.5 -315q0 -316 -147 -508.5t-406 -192.5q-231 0 -368.5 139t-137.5 361q0 201 126 331t318 130q129 0 231.5 -64.5t145.5 -169.5q0 259 -129 410l-164 -123l-96 127l131 98q-97 54 -219 54q-137 0 -260 -50v205q120 47 297 47
q217 0 371 -114l155 116l96 -125zM594 172q112 0 182 76t70 205q0 127 -67 203.5t-185 76.5q-110 0 -182 -78.5t-72 -201.5q0 -128 71.5 -204.5t182.5 -76.5z" />
    <glyph glyph-name="ntilde" unicode="&#xf1;" horiz-adv-x="1210" 
d="M784 1149q-77 0 -170 55l-55 33q-3 2 -11 6.5t-11 6.5t-10 5.5t-10.5 5t-10 4.5t-10.5 4t-9.5 2.5t-11 2t-10.5 0.5q-75 0 -78 -103h-184q0 131 68 201t182 70q80 0 168 -51l55 -33q61 -37 94 -37q74 0 80 98h178q0 -139 -64 -204.5t-180 -65.5zM152 0v1020h243v-162
q16 28 39 56t62.5 61.5t99 54.5t129.5 21q176 0 260 -99t84 -274v-678h-250v623q0 219 -184 219q-47 0 -85 -15t-62 -37t-41.5 -57.5t-26 -66t-13 -73t-5.5 -67.5t-1 -61v-465h-249z" />
    <glyph glyph-name="ograve" unicode="&#xf2;" horiz-adv-x="1187" 
d="M510 1159l-225 305h288l103 -305h-166zM594 -31q-222 0 -368 153.5t-146 387.5q0 238 144.5 389.5t369.5 151.5t369.5 -151.5t144.5 -389.5q0 -241 -144.5 -391t-369.5 -150zM594 172q118 0 186 84.5t68 249.5q0 166 -68.5 254t-185.5 88t-186.5 -88t-69.5 -254
q0 -165 69 -249.5t187 -84.5z" />
    <glyph glyph-name="oacute" unicode="&#xf3;" horiz-adv-x="1187" 
d="M514 1159l102 305h291l-227 -305h-166zM594 -31q-222 0 -368 153.5t-146 387.5q0 238 144.5 389.5t369.5 151.5t369.5 -151.5t144.5 -389.5q0 -241 -144.5 -391t-369.5 -150zM594 172q118 0 186 84.5t68 249.5q0 166 -68.5 254t-185.5 88t-186.5 -88t-69.5 -254
q0 -165 69 -249.5t187 -84.5z" />
    <glyph glyph-name="ocircumflex" unicode="&#xf4;" horiz-adv-x="1187" 
d="M211 1159l223 260h320l223 -260h-225l-158 148l-158 -148h-225zM594 -31q-222 0 -368 153.5t-146 387.5q0 238 144.5 389.5t369.5 151.5t369.5 -151.5t144.5 -389.5q0 -241 -144.5 -391t-369.5 -150zM594 172q118 0 186 84.5t68 249.5q0 166 -68.5 254t-185.5 88
t-186.5 -88t-69.5 -254q0 -165 69 -249.5t187 -84.5z" />
    <glyph glyph-name="otilde" unicode="&#xf5;" horiz-adv-x="1187" 
d="M762 1149q-77 0 -170 55l-53 33q-4 2 -15 8t-15 8l-13 6.5t-13.5 6.5t-12 4t-14 3t-12.5 1q-37 0 -57 -26.5t-22 -76.5h-185q0 131 68 201t182 70q82 0 170 -51l53 -33q61 -37 95 -37q73 0 79 98h181q0 -139 -65 -204.5t-181 -65.5zM594 -31q-222 0 -368 153.5
t-146 387.5q0 238 144.5 389.5t369.5 151.5t369.5 -151.5t144.5 -389.5q0 -241 -144.5 -391t-369.5 -150zM594 172q118 0 186 84.5t68 249.5q0 166 -68.5 254t-185.5 88t-186.5 -88t-69.5 -254q0 -165 69 -249.5t187 -84.5z" />
    <glyph glyph-name="odieresis" unicode="&#xf6;" horiz-adv-x="1187" 
d="M256 1188v231h244v-231h-244zM686 1188v231h244v-231h-244zM594 -31q-222 0 -368 153.5t-146 387.5q0 238 144.5 389.5t369.5 151.5t369.5 -151.5t144.5 -389.5q0 -241 -144.5 -391t-369.5 -150zM594 172q118 0 186 84.5t68 249.5q0 166 -68.5 254t-185.5 88t-186.5 -88
t-69.5 -254q0 -165 69 -249.5t187 -84.5z" />
    <glyph glyph-name="divide" unicode="&#xf7;" horiz-adv-x="1284" 
d="M492 993v275h305v-275h-305zM98 612v222h1090v-222h-1090zM492 178v273h305v-273h-305z" />
    <glyph glyph-name="oslash" unicode="&#xf8;" horiz-adv-x="1196" 
d="M598 -31q-157 0 -281 82l-84 -100l-127 102l91 107q-113 144 -113 350q0 238 144.5 389.5t369.5 151.5q163 0 281 -80l86 102l125 -100l-91 -109q115 -147 115 -354q0 -241 -145.5 -391t-370.5 -150zM365 358l210 256l162 191q-58 43 -139 43q-116 0 -185 -88t-69 -254
q0 -84 21 -148zM600 172q117 0 185.5 84.5t68.5 249.5q0 86 -23 160l-206 -250q-64 -78 -168 -199q57 -45 143 -45z" />
    <glyph glyph-name="ugrave" unicode="&#xf9;" horiz-adv-x="1198" 
d="M508 1159l-225 305h290l103 -305h-168zM463 -31q-155 0 -239.5 100t-84.5 271v680h250v-621q0 -221 176 -221q232 0 232 363v479h250v-1020h-248v168q-120 -199 -336 -199z" />
    <glyph glyph-name="uacute" unicode="&#xfa;" horiz-adv-x="1198" 
d="M512 1159l102 305h291l-227 -305h-166zM463 -31q-155 0 -239.5 100t-84.5 271v680h250v-621q0 -221 176 -221q232 0 232 363v479h250v-1020h-248v168q-120 -199 -336 -199z" />
    <glyph glyph-name="ucircumflex" unicode="&#xfb;" horiz-adv-x="1198" 
d="M209 1159l223 260h320l223 -260h-225l-158 148l-158 -148h-225zM463 -31q-155 0 -239.5 100t-84.5 271v680h250v-621q0 -221 176 -221q232 0 232 363v479h250v-1020h-248v168q-120 -199 -336 -199z" />
    <glyph glyph-name="udieresis" unicode="&#xfc;" horiz-adv-x="1198" 
d="M254 1188v231h244v-231h-244zM686 1188v231h242v-231h-242zM463 -31q-155 0 -239.5 100t-84.5 271v680h250v-621q0 -221 176 -221q232 0 232 363v479h250v-1020h-248v168q-120 -199 -336 -199z" />
    <glyph glyph-name="yacute" unicode="&#xfd;" horiz-adv-x="1101" 
d="M852 1464l-227 -305h-166l102 305h291zM805 1020h262l-416 -1174q-45 -133 -116.5 -189t-202.5 -56h-266v206h241q53 0 82.5 23.5t52.5 85.5l31 92l-475 1012h270l189 -438q33 -78 57.5 -136t38.5 -91t20 -46l91 275z" />
    <glyph glyph-name="thorn" unicode="&#xfe;" horiz-adv-x="1245" 
d="M152 -399v1833h249v-377v-185q41 71 125.5 126t202.5 55q195 0 314.5 -149.5t119.5 -395.5q0 -244 -119.5 -391.5t-314.5 -147.5q-119 0 -202.5 52t-125.5 122v-182v-360h-249zM647 166q118 0 187 82t69 264q0 180 -69 261t-187 81t-188 -87.5t-70 -254.5q0 -168 70 -257
t188 -89z" />
    <glyph glyph-name="ydieresis" unicode="&#xff;" horiz-adv-x="1101" 
d="M444 1419v-231h-243v231h243zM874 1419v-231h-243v231h243zM805 1020h262l-416 -1174q-45 -133 -116.5 -189t-202.5 -56h-266v206h241q53 0 82.5 23.5t52.5 85.5l31 92l-475 1012h270l189 -438q33 -78 57.5 -136t38.5 -91t20 -46l91 275z" />
    <glyph glyph-name="Amacron" unicode="&#x100;" horiz-adv-x="1472" 
d="M1092 1776v-177h-703v177h703zM1155 0l-121 354h-604l-125 -354h-287l543 1434h354l535 -1434h-295zM510 582h444l-118 348l-103 289q-1 -2 -100 -291z" />
    <glyph glyph-name="amacron" unicode="&#x101;" horiz-adv-x="1148" 
d="M229 1196v176h639v-176h-639zM416 -31q-144 0 -235 80t-91 213q0 83 35.5 148.5t93 108t143 73.5t174 47.5t197.5 26.5v34q0 160 -188 160q-193 0 -240 -170l-231 60q20 124 144 212.5t327 88.5q211 0 322.5 -97t111.5 -284v-412q0 -38 11 -49.5t50 -11.5h97v-197h-193
q-91 0 -133.5 39.5t-52.5 112.5q-51 -81 -136.5 -132t-205.5 -51zM498 158q99 0 167 66.5t68 195.5v82q-88 -10 -151.5 -24t-121 -38t-87 -62.5t-29.5 -90.5q0 -60 39.5 -94.5t114.5 -34.5z" />
    <glyph glyph-name="Abreve" unicode="&#x102;" horiz-adv-x="1472" 
d="M737 1546q-94 0 -166.5 24.5t-114.5 65.5t-63 90.5t-22 104.5h202q3 -49 46 -88t118 -39t118 39t48 88h203q-2 -55 -23.5 -104.5t-63.5 -90.5t-115 -65.5t-167 -24.5zM1155 0l-121 354h-604l-125 -354h-287l543 1434h354l535 -1434h-295zM510 582h444l-118 348l-103 289
q-1 -2 -100 -291z" />
    <glyph glyph-name="abreve" unicode="&#x103;" horiz-adv-x="1148" 
d="M547 1133q-86 0 -151.5 24t-104 65.5t-57.5 91t-21 105.5h184q3 -50 42.5 -88.5t107.5 -38.5q69 0 107.5 38.5t41.5 88.5h187q-1 -44 -13 -84.5t-38 -78t-64 -64.5t-94.5 -43t-126.5 -16zM416 -31q-144 0 -235 80t-91 213q0 83 35.5 148.5t93 108t143 73.5t174 47.5
t197.5 26.5v34q0 160 -188 160q-193 0 -240 -170l-231 60q20 124 144 212.5t327 88.5q211 0 322.5 -97t111.5 -284v-412q0 -38 11 -49.5t50 -11.5h97v-197h-193q-91 0 -133.5 39.5t-52.5 112.5q-51 -81 -136.5 -132t-205.5 -51zM498 158q99 0 167 66.5t68 195.5v82
q-88 -10 -151.5 -24t-121 -38t-87 -62.5t-29.5 -90.5q0 -60 39.5 -94.5t114.5 -34.5z" />
    <glyph glyph-name="Aogonek" unicode="&#x104;" horiz-adv-x="1472" 
d="M1219 -174q0 -74 118 -74q43 0 113 17v-170q-79 -25 -147 -25q-124 0 -196.5 50.5t-72.5 146.5q0 134 183 229h-62l-121 354h-604l-125 -354h-287l543 1434h354l535 -1434q-231 -72 -231 -174zM510 582h444l-118 348l-103 289q-1 -2 -100 -291z" />
    <glyph glyph-name="aogonek" unicode="&#x105;" horiz-adv-x="1148" 
d="M1137 0q-234 -72 -234 -174q0 -74 119 -74q42 0 115 17v-170q-82 -25 -150 -25q-123 0 -195.5 50.5t-72.5 146.5q0 136 186 231q-71 9 -105 47t-42 103q-51 -81 -136.5 -132t-205.5 -51q-144 0 -235 80t-91 213q0 83 35.5 148.5t93 108t143 73.5t174 47.5t197.5 26.5v34
q0 160 -188 160q-193 0 -240 -170l-231 60q20 124 144 212.5t327 88.5q211 0 322.5 -97t111.5 -284v-412q0 -38 11 -49.5t50 -11.5h97v-197zM733 420v82q-88 -10 -151.5 -24t-121 -38t-87 -62.5t-29.5 -90.5q0 -60 39.5 -94.5t114.5 -34.5q99 0 167 66.5t68 195.5z" />
    <glyph glyph-name="Cacute" unicode="&#x106;" horiz-adv-x="1529" 
d="M743 1573l113 303h320l-250 -303h-183zM817 -31q-219 0 -385.5 99.5t-253 270t-86.5 384.5q0 156 53.5 292.5t147.5 235.5t230.5 156t295.5 57q129 0 240 -35t191 -95.5t134.5 -137.5t81.5 -166l-247 -94q-21 62 -53 113t-79.5 95t-116.5 68.5t-153 24.5
q-206 0 -325 -136t-119 -378q0 -243 119 -383.5t325 -140.5q305 0 410 307l241 -96q-71 -204 -235.5 -322.5t-415.5 -118.5z" />
    <glyph glyph-name="cacute" unicode="&#x107;" horiz-adv-x="1134" 
d="M522 1159l103 305h290l-227 -305h-166zM604 -31q-232 0 -378 149t-146 394q0 240 148.5 389.5t375.5 149.5q174 0 295 -84.5t168 -218.5l-229 -82q-30 85 -91 133.5t-149 48.5q-115 0 -189.5 -87t-74.5 -249q0 -164 75.5 -252t190.5 -88q184 0 252 207l235 -84
q-57 -150 -183 -238t-300 -88z" />
    <glyph glyph-name="Ccircumflex" unicode="&#x108;" horiz-adv-x="1529" 
d="M410 1573l245 258h353l245 -258h-247l-175 147l-174 -147h-247zM817 -31q-219 0 -385.5 99.5t-253 270t-86.5 384.5q0 156 53.5 292.5t147.5 235.5t230.5 156t295.5 57q129 0 240 -35t191 -95.5t134.5 -137.5t81.5 -166l-247 -94q-21 62 -53 113t-79.5 95t-116.5 68.5
t-153 24.5q-206 0 -325 -136t-119 -378q0 -243 119 -383.5t325 -140.5q305 0 410 307l241 -96q-71 -204 -235.5 -322.5t-415.5 -118.5z" />
    <glyph glyph-name="ccircumflex" unicode="&#x109;" horiz-adv-x="1134" 
d="M219 1159l223 260h320l223 -260h-225l-158 148l-158 -148h-225zM604 -31q-232 0 -378 149t-146 394q0 240 148.5 389.5t375.5 149.5q174 0 295 -84.5t168 -218.5l-229 -82q-30 85 -91 133.5t-149 48.5q-115 0 -189.5 -87t-74.5 -249q0 -164 75.5 -252t190.5 -88
q184 0 252 207l235 -84q-57 -150 -183 -238t-300 -88z" />
    <glyph glyph-name="Cdotaccent" unicode="&#x10a;" horiz-adv-x="1529" 
d="M702 1573v256h265v-256h-265zM817 -31q-219 0 -385.5 99.5t-253 270t-86.5 384.5q0 156 53.5 292.5t147.5 235.5t230.5 156t295.5 57q129 0 240 -35t191 -95.5t134.5 -137.5t81.5 -166l-247 -94q-21 62 -53 113t-79.5 95t-116.5 68.5t-153 24.5q-206 0 -325 -136
t-119 -378q0 -243 119 -383.5t325 -140.5q305 0 410 307l241 -96q-71 -204 -235.5 -322.5t-415.5 -118.5z" />
    <glyph glyph-name="cdotaccent" unicode="&#x10b;" horiz-adv-x="1134" 
d="M469 1178v256h264v-256h-264zM604 -31q-232 0 -378 149t-146 394q0 240 148.5 389.5t375.5 149.5q174 0 295 -84.5t168 -218.5l-229 -82q-30 85 -91 133.5t-149 48.5q-115 0 -189.5 -87t-74.5 -249q0 -164 75.5 -252t190.5 -88q184 0 252 207l235 -84q-57 -150 -183 -238
t-300 -88z" />
    <glyph glyph-name="Ccaron" unicode="&#x10c;" horiz-adv-x="1529" 
d="M1253 1812l-245 -260h-353l-245 260h247l174 -147l175 147h247zM817 -31q-219 0 -385.5 99.5t-253 270t-86.5 384.5q0 156 53.5 292.5t147.5 235.5t230.5 156t295.5 57q129 0 240 -35t191 -95.5t134.5 -137.5t81.5 -166l-247 -94q-21 62 -53 113t-79.5 95t-116.5 68.5
t-153 24.5q-206 0 -325 -136t-119 -378q0 -243 119 -383.5t325 -140.5q305 0 410 307l241 -96q-71 -204 -235.5 -322.5t-415.5 -118.5z" />
    <glyph glyph-name="ccaron" unicode="&#x10d;" horiz-adv-x="1134" 
d="M440 1159l-223 260h225l160 -147l158 147h225l-223 -260h-322zM604 -31q-232 0 -378 149t-146 394q0 240 148.5 389.5t375.5 149.5q174 0 295 -84.5t168 -218.5l-229 -82q-30 85 -91 133.5t-149 48.5q-115 0 -189.5 -87t-74.5 -249q0 -164 75.5 -252t190.5 -88
q184 0 252 207l235 -84q-57 -150 -183 -238t-300 -88z" />
    <glyph glyph-name="Dcaron" unicode="&#x10e;" horiz-adv-x="1533" 
d="M1075 1812l-244 -260h-352l-246 260h248l174 -147l172 147h248zM186 0v1434h525q206 0 370.5 -84.5t261.5 -247t97 -377.5q0 -168 -56 -305.5t-154.5 -229t-233 -141t-291.5 -49.5h-519zM453 227h231q479 0 479 494q0 225 -118 355t-347 130h-245v-979z" />
    <glyph glyph-name="dcaron" unicode="&#x10f;" horiz-adv-x="1386" 
d="M516 -31q-194 0 -313 148t-119 393t119 393t313 148q118 0 201.5 -52t126.5 -122v184v373h250v-1434h-244v143q-43 -69 -128.5 -121.5t-205.5 -52.5zM1223 911l153 269h-143v254h260v-254l-156 -269h-114zM598 166q118 0 188 88t70 256q0 167 -70 255.5t-188 88.5
q-117 0 -185.5 -82t-68.5 -262q0 -182 68 -263t186 -81z" />
    <glyph glyph-name="Dcroat" unicode="&#x110;" horiz-adv-x="1556" 
d="M731 1434q206 0 370.5 -84.5t261.5 -247t97 -377.5q0 -168 -56 -305.5t-154 -229t-232 -141t-291 -49.5h-520v649h-160v193h160v592h524zM705 227q479 0 479 494q0 225 -118 355t-347 130h-246v-364h283v-193h-283v-422h232z" />
    <glyph glyph-name="dcroat" unicode="&#x111;" horiz-adv-x="1245" 
d="M1264 1282v-160h-170v-1122h-244v143q-43 -69 -128.5 -121.5t-205.5 -52.5q-194 0 -313 148t-119 393t119 393t313 148q118 0 201.5 -52t126.5 -122v184v61h-322v160h322v152h250v-152h170zM598 166q118 0 188 88t70 256q0 167 -70 255.5t-188 88.5q-117 0 -185.5 -82
t-68.5 -262q0 -182 68 -263t186 -81z" />
    <glyph glyph-name="Emacron" unicode="&#x112;" horiz-adv-x="1337" 
d="M362 1599v177h703v-177h-703zM186 0v1434h1053v-228h-786v-354h589v-225h-589v-400h786v-227h-1053z" />
    <glyph glyph-name="emacron" unicode="&#x113;" horiz-adv-x="1140" 
d="M258 1196v176h639v-176h-639zM580 -31q-228 0 -363 144t-135 397q0 242 139 391.5t354 149.5q159 0 274 -80t167 -216.5t35 -305.5h-721q7 -146 76 -214.5t176 -68.5q170 0 249 184l226 -84q-55 -132 -172.5 -214.5t-304.5 -82.5zM338 633h465q-6 110 -67.5 170.5
t-160.5 60.5q-94 0 -159 -61.5t-78 -169.5z" />
    <glyph glyph-name="Ebreve" unicode="&#x114;" horiz-adv-x="1337" 
d="M713 1546q-95 0 -168 24.5t-115 66t-63 90.5t-23 104h203q3 -49 46 -88t120 -39q75 0 117 38.5t47 88.5h202q-2 -55 -23 -104t-62.5 -90.5t-114 -66t-166.5 -24.5zM186 0v1434h1053v-228h-786v-354h589v-225h-589v-400h786v-227h-1053z" />
    <glyph glyph-name="ebreve" unicode="&#x115;" horiz-adv-x="1140" 
d="M575 1133q-86 0 -151.5 24t-104 65.5t-57.5 91t-20 105.5h184q3 -50 42 -88.5t107 -38.5t107.5 38.5t42.5 88.5h186q-1 -44 -13 -84.5t-38 -78t-64 -64.5t-94.5 -43t-126.5 -16zM580 -31q-228 0 -363 144t-135 397q0 242 139 391.5t354 149.5q159 0 274 -80t167 -216.5
t35 -305.5h-721q7 -146 76 -214.5t176 -68.5q170 0 249 184l226 -84q-55 -132 -172.5 -214.5t-304.5 -82.5zM338 633h465q-6 110 -67.5 170.5t-160.5 60.5q-94 0 -159 -61.5t-78 -169.5z" />
    <glyph glyph-name="Edotaccent" unicode="&#x116;" horiz-adv-x="1337" 
d="M580 1573v256h266v-256h-266zM186 0v1434h1053v-228h-786v-354h589v-225h-589v-400h786v-227h-1053z" />
    <glyph glyph-name="edotaccent" unicode="&#x117;" horiz-adv-x="1140" 
d="M444 1178v256h265v-256h-265zM580 -31q-228 0 -363 144t-135 397q0 242 139 391.5t354 149.5q159 0 274 -80t167 -216.5t35 -305.5h-721q7 -146 76 -214.5t176 -68.5q170 0 249 184l226 -84q-55 -132 -172.5 -214.5t-304.5 -82.5zM338 633h465q-6 110 -67.5 170.5
t-160.5 60.5q-94 0 -159 -61.5t-78 -169.5z" />
    <glyph glyph-name="Eogonek" unicode="&#x118;" horiz-adv-x="1337" 
d="M1239 1206h-786v-354h589v-225h-589v-400h786v-227q-233 -71 -233 -174q0 -74 120 -74q43 0 113 17v-170q-79 -25 -147 -25q-124 0 -196.5 50.5t-72.5 146.5q0 134 183 229h-820v1434h1053v-228z" />
    <glyph glyph-name="eogonek" unicode="&#x119;" horiz-adv-x="1140" 
d="M82 510q0 242 139 391.5t354 149.5q159 0 274 -80t167 -216.5t35 -305.5h-721q7 -146 76 -214.5t176 -68.5q170 0 249 184l226 -84q-81 -205 -297 -274q-117 -36 -164 -75.5t-47 -86.5q0 -78 119 -78q41 0 114 17v-170q-82 -25 -149 -25q-124 0 -196 51t-72 146
q0 121 133 202q-200 29 -308 171t-108 366zM338 633h465q-6 110 -67.5 170.5t-160.5 60.5q-94 0 -159 -61.5t-78 -169.5z" />
    <glyph glyph-name="Ecaron" unicode="&#x11a;" horiz-adv-x="1337" 
d="M1133 1812l-246 -260h-352l-246 260h248l174 -147l174 147h248zM186 0v1434h1053v-228h-786v-354h589v-225h-589v-400h786v-227h-1053z" />
    <glyph glyph-name="ecaron" unicode="&#x11b;" horiz-adv-x="1140" 
d="M416 1159l-223 260h225l157 -147l160 147h226l-224 -260h-321zM580 -31q-228 0 -363 144t-135 397q0 242 139 391.5t354 149.5q159 0 274 -80t167 -216.5t35 -305.5h-721q7 -146 76 -214.5t176 -68.5q170 0 249 184l226 -84q-55 -132 -172.5 -214.5t-304.5 -82.5z
M338 633h465q-6 110 -67.5 170.5t-160.5 60.5q-94 0 -159 -61.5t-78 -169.5z" />
    <glyph glyph-name="Gcircumflex" unicode="&#x11c;" horiz-adv-x="1615" 
d="M418 1573l246 258h352l246 -258h-248l-174 147l-174 -147h-248zM772 -31q-143 0 -266.5 51t-215 144.5t-144 235t-52.5 313.5q0 212 98.5 384.5t268 269.5t375.5 97q137 0 251.5 -35.5t194.5 -97t133.5 -137t83.5 -164.5l-258 -98q-105 303 -407 303q-95 0 -178.5 -35
t-146.5 -99.5t-99.5 -164t-36.5 -221.5q0 -242 127.5 -380t324.5 -138q93 0 169 26.5t124 70.5t76 95.5t33 106.5h-477v229h743v-725h-246v223q-143 -254 -475 -254z" />
    <glyph glyph-name="gcircumflex" unicode="&#x11d;" horiz-adv-x="1239" 
d="M190 1159l224 260h319l223 -260h-225l-158 148l-157 -148h-226zM352 -399q-293 0 -293 209q0 65 37 118.5t90 87.5q-94 62 -94 179q0 126 158 221q-51 41 -82 108t-31 146q0 167 121 274t309 107q132 0 231.5 -55.5t147.5 -139.5q8 89 46 126.5t130 37.5h88v-195h-100
q-57 0 -78 -23t-28 -104l-5 -30q-15 -168 -131.5 -266.5t-294.5 -98.5q-132 0 -202 37q-84 -29 -84 -82q0 -30 23.5 -42.5t72.5 -12.5h442q154 0 249 -85.5t95 -213.5q0 -145 -97 -224t-247 -79h-473zM573 477q89 0 143 53.5t54 141.5t-54 144t-143 56q-88 0 -142 -55.5
t-54 -144.5q0 -88 53.5 -141.5t142.5 -53.5zM385 -209h397q140 0 140 107q0 102 -140 102h-458q-25 -14 -44.5 -44t-19.5 -65q0 -100 125 -100z" />
    <glyph glyph-name="Gbreve" unicode="&#x11e;" horiz-adv-x="1615" 
d="M840 1546q-94 0 -166.5 24.5t-115 65.5t-63.5 90.5t-22 104.5h203q3 -49 46 -88t118 -39q76 0 118.5 38.5t47.5 88.5h202q-2 -55 -23 -104t-63 -90.5t-114.5 -66t-167.5 -24.5zM772 -31q-143 0 -266.5 51t-215 144.5t-144 235t-52.5 313.5q0 212 98.5 384.5t268 269.5
t375.5 97q137 0 251.5 -35.5t194.5 -97t133.5 -137t83.5 -164.5l-258 -98q-105 303 -407 303q-95 0 -178.5 -35t-146.5 -99.5t-99.5 -164t-36.5 -221.5q0 -242 127.5 -380t324.5 -138q93 0 169 26.5t124 70.5t76 95.5t33 106.5h-477v229h743v-725h-246v223
q-143 -254 -475 -254z" />
    <glyph glyph-name="gbreve" unicode="&#x11f;" horiz-adv-x="1239" 
d="M571 1133q-86 0 -151.5 24t-104 65.5t-57.5 91t-20 105.5h184q3 -50 42 -88.5t107 -38.5q69 0 108 38.5t42 88.5h186q-1 -44 -13 -84.5t-38 -78t-64 -64.5t-94.5 -43t-126.5 -16zM352 -399q-293 0 -293 209q0 65 37 118.5t90 87.5q-94 62 -94 179q0 126 158 221
q-51 41 -82 108t-31 146q0 167 121 274t309 107q132 0 231.5 -55.5t147.5 -139.5q8 89 46 126.5t130 37.5h88v-195h-100q-57 0 -78 -23t-28 -104l-5 -30q-15 -168 -131.5 -266.5t-294.5 -98.5q-132 0 -202 37q-84 -29 -84 -82q0 -30 23.5 -42.5t72.5 -12.5h442
q154 0 249 -85.5t95 -213.5q0 -145 -97 -224t-247 -79h-473zM573 477q89 0 143 53.5t54 141.5t-54 144t-143 56q-88 0 -142 -55.5t-54 -144.5q0 -88 53.5 -141.5t142.5 -53.5zM385 -209h397q140 0 140 107q0 102 -140 102h-458q-25 -14 -44.5 -44t-19.5 -65q0 -100 125 -100
z" />
    <glyph glyph-name="Gdotaccent" unicode="&#x120;" horiz-adv-x="1615" 
d="M709 1573v256h266v-256h-266zM772 -31q-143 0 -266.5 51t-215 144.5t-144 235t-52.5 313.5q0 212 98.5 384.5t268 269.5t375.5 97q137 0 251.5 -35.5t194.5 -97t133.5 -137t83.5 -164.5l-258 -98q-105 303 -407 303q-95 0 -178.5 -35t-146.5 -99.5t-99.5 -164
t-36.5 -221.5q0 -242 127.5 -380t324.5 -138q93 0 169 26.5t124 70.5t76 95.5t33 106.5h-477v229h743v-725h-246v223q-143 -254 -475 -254z" />
    <glyph glyph-name="gdotaccent" unicode="&#x121;" horiz-adv-x="1239" 
d="M440 1178v256h265v-256h-265zM352 -399q-293 0 -293 209q0 65 37 118.5t90 87.5q-94 62 -94 179q0 126 158 221q-51 41 -82 108t-31 146q0 167 121 274t309 107q132 0 231.5 -55.5t147.5 -139.5q8 89 46 126.5t130 37.5h88v-195h-100q-57 0 -78 -23t-28 -104l-5 -30
q-15 -168 -131.5 -266.5t-294.5 -98.5q-132 0 -202 37q-84 -29 -84 -82q0 -30 23.5 -42.5t72.5 -12.5h442q154 0 249 -85.5t95 -213.5q0 -145 -97 -224t-247 -79h-473zM573 477q89 0 143 53.5t54 141.5t-54 144t-143 56q-88 0 -142 -55.5t-54 -144.5q0 -88 53.5 -141.5
t142.5 -53.5zM385 -209h397q140 0 140 107q0 102 -140 102h-458q-25 -14 -44.5 -44t-19.5 -65q0 -100 125 -100z" />
    <glyph glyph-name="uni0122" unicode="&#x122;" horiz-adv-x="1615" 
d="M772 -31q-143 0 -266.5 51t-215 144.5t-144 235t-52.5 313.5q0 212 98.5 384.5t268 269.5t375.5 97q137 0 251.5 -35.5t194.5 -97t133.5 -137t83.5 -164.5l-258 -98q-105 303 -407 303q-95 0 -178.5 -35t-146.5 -99.5t-99.5 -164t-36.5 -221.5q0 -242 127.5 -380
t324.5 -138q93 0 169 26.5t124 70.5t76 95.5t33 106.5h-477v229h743v-725h-246v223q-143 -254 -475 -254zM696 -668l154 269h-143v254h260v-254l-154 -269h-117z" />
    <glyph glyph-name="uni0123" unicode="&#x123;" horiz-adv-x="1239" 
d="M713 1700l-156 -268h143v-254h-258v254l154 268h117zM352 -399q-293 0 -293 209q0 65 37 118.5t90 87.5q-94 62 -94 179q0 126 158 221q-51 41 -82 108t-31 146q0 167 121 274t309 107q132 0 231.5 -55.5t147.5 -139.5q8 89 46 126.5t130 37.5h88v-195h-100
q-57 0 -78 -23t-28 -104l-5 -30q-15 -168 -131.5 -266.5t-294.5 -98.5q-132 0 -202 37q-84 -29 -84 -82q0 -30 23.5 -42.5t72.5 -12.5h442q154 0 249 -85.5t95 -213.5q0 -145 -97 -224t-247 -79h-473zM573 477q89 0 143 53.5t54 141.5t-54 144t-143 56q-88 0 -142 -55.5
t-54 -144.5q0 -88 53.5 -141.5t142.5 -53.5zM385 -209h397q140 0 140 107q0 102 -140 102h-458q-25 -14 -44.5 -44t-19.5 -65q0 -100 125 -100z" />
    <glyph glyph-name="Hcircumflex" unicode="&#x124;" horiz-adv-x="1576" 
d="M369 1573l245 258h353l243 -258h-247l-172 147l-175 -147h-247zM186 0v1434h267v-580h671v580h267v-1434h-267v625h-671v-625h-267z" />
    <glyph glyph-name="hcircumflex" unicode="&#x125;" horiz-adv-x="1210" 
d="M242 1573l223 260h319l224 -260h-226l-157 147l-158 -147h-225zM152 0v1434h249v-373v-203q13 23 27.5 43.5t44.5 49.5t64 49.5t87 35.5t113 15q165 0 248.5 -100t83.5 -273v-678h-250v623q0 219 -184 219q-47 0 -85 -15t-62 -37t-41.5 -57.5t-26 -66t-13 -73t-5.5 -67.5
t-1 -61v-465h-249z" />
    <glyph glyph-name="Hbar" unicode="&#x126;" horiz-adv-x="1638" 
d="M1589 1249v-184h-170v-1065h-266v625h-672v-625h-266v1065h-166v184h166v185h266v-185h672v185h266v-185h170zM1153 854v211h-672v-211h672z" />
    <glyph glyph-name="hbar" unicode="&#x127;" horiz-adv-x="1210" 
d="M737 1051q165 0 248.5 -100t83.5 -273v-678h-250v623q0 219 -184 219q-47 0 -85 -15t-62 -37t-41.5 -57.5t-26 -66t-13 -73t-5.5 -67.5t-1 -61v-465h-249v1122h-150v160h150v152h249v-152h342v-160h-342v-61v-203q13 23 27.5 43.5t44.5 49.5t64 49.5t87 35.5t113 15z" />
    <glyph glyph-name="Itilde" unicode="&#x128;" horiz-adv-x="636" 
d="M514 1550q-88 0 -186 56l-62 32q-63 37 -104 37q-40 0 -62.5 -26.5t-23.5 -75.5h-203q0 131 74.5 200.5t199.5 69.5q91 0 187 -51l59 -33q68 -37 105 -37q82 0 88 99h196q0 -140 -70.5 -205.5t-197.5 -65.5zM186 0v1434h267v-1434h-267z" />
    <glyph glyph-name="itilde" unicode="&#x129;" horiz-adv-x="552" 
d="M444 1149q-77 0 -170 55l-53 33q-3 2 -17 9.5t-17.5 9.5t-14.5 7t-16.5 6.5t-14 3t-16.5 1.5q-75 0 -78 -103h-184q0 131 68 201t182 70q82 0 170 -51l53 -33q61 -37 94 -37q74 0 80 98h180q0 -139 -65 -204.5t-181 -65.5zM152 0v1020h249v-1020h-249z" />
    <glyph glyph-name="Imacron" unicode="&#x12a;" horiz-adv-x="636" 
d="M-31 1599v177h703v-177h-703zM186 0v1434h267v-1434h-267z" />
    <glyph glyph-name="imacron" unicode="&#x12b;" horiz-adv-x="552" 
d="M-43 1196v176h639v-176h-639zM152 0v1020h249v-1020h-249z" />
    <glyph glyph-name="Ibreve" unicode="&#x12c;" horiz-adv-x="636" 
d="M319 1546q-95 0 -167.5 24.5t-114.5 66t-63 90.5t-23 104h203q5 -49 47.5 -88t117.5 -39t117 38.5t47 88.5h203q-2 -55 -23 -104t-63 -90.5t-114.5 -66t-166.5 -24.5zM186 0v1434h267v-1434h-267z" />
    <glyph glyph-name="ibreve" unicode="&#x12d;" horiz-adv-x="552" 
d="M274 1133q-86 0 -151.5 24t-104 65.5t-57.5 91t-20 105.5h184q3 -50 42 -88.5t107 -38.5t107.5 38.5t42.5 88.5h186q-2 -56 -21 -105.5t-57.5 -91t-105 -65.5t-152.5 -24zM152 0v1020h249v-1020h-249z" />
    <glyph glyph-name="Iogonek" unicode="&#x12e;" horiz-adv-x="638" 
d="M453 0q-234 -72 -234 -174q0 -74 121 -74q43 0 113 17v-170q-79 -25 -148 -25q-123 0 -195.5 50.5t-72.5 146.5q0 135 182 229h-33v1434h267v-1434z" />
    <glyph glyph-name="iogonek" unicode="&#x12f;" horiz-adv-x="557" 
d="M145 1434h267v-256h-267v256zM156 0v1020h250v-1020q-234 -72 -234 -174q0 -74 119 -74q45 0 115 17v-170q-79 -25 -150 -25q-123 0 -195.5 50.5t-72.5 146.5q0 135 182 229h-14z" />
    <glyph glyph-name="Idotaccent" unicode="&#x130;" horiz-adv-x="636" 
d="M186 1573v256h267v-256h-267zM186 0v1434h267v-1434h-267z" />
    <glyph glyph-name="dotlessi" unicode="&#x131;" horiz-adv-x="552" 
d="M152 0v1020h249v-1020h-249z" />
    <glyph glyph-name="IJ" unicode="&#x132;" horiz-adv-x="1744" 
d="M186 0v1434h267v-1434h-267zM1135 -31q-217 0 -339.5 131t-127.5 361l270 69q-2 -167 41 -251t149 -84q98 0 139.5 71.5t41.5 216.5v951h266v-930q0 -274 -108.5 -404.5t-331.5 -130.5z" />
    <glyph glyph-name="ij" unicode="&#x133;" horiz-adv-x="1118" 
d="M141 1182v254h267v-254h-267zM711 1182v252h260v-252h-260zM152 0v1020h247v-1020h-247zM473 -399v206h152q50 0 72 22.5t22 72.5v1118h246v-1159q0 -123 -66 -191.5t-190 -68.5h-236z" />
    <glyph glyph-name="Jcircumflex" unicode="&#x134;" horiz-adv-x="1107" 
d="M375 1573l246 258h352l244 -258h-248l-172 147l-174 -147h-248zM498 -31q-218 0 -341 131t-128 361l270 69q0 -168 42.5 -251.5t147.5 -83.5q98 0 139.5 71.5t41.5 216.5v951h266v-930q0 -274 -108.5 -404.5t-329.5 -130.5z" />
    <glyph glyph-name="jcircumflex" unicode="&#x135;" horiz-adv-x="569" 
d="M-90 1159l223 260h320l223 -260h-225l-158 148l-158 -148h-225zM-80 -399v206h154q50 0 72 22.5t22 72.5v1118h250v-1159q0 -123 -67 -191.5t-193 -68.5h-238z" />
    <glyph glyph-name="uni0136" unicode="&#x136;" horiz-adv-x="1439" 
d="M817 854l645 -854h-338l-489 664l-182 -187v-477h-267v1434h267v-277v-354l569 631h358zM659 -399v254h261v-254l-154 -269h-117l154 269h-144z" />
    <glyph glyph-name="uni0137" unicode="&#x137;" horiz-adv-x="1210" 
d="M739 608l486 -608h-316l-342 442l-166 -155v-287h-249v1434h249v-512v-355l457 453h311zM528 -399v254h258v-254l-153 -269h-117l156 269h-144z" />
    <glyph glyph-name="Lacute" unicode="&#x139;" horiz-adv-x="1245" 
d="M225 1573l113 303h319l-249 -303h-183zM186 0v1434h267v-1201h772v-233h-1039z" />
    <glyph glyph-name="lacute" unicode="&#x13a;" horiz-adv-x="552" 
d="M197 1573l102 305h291l-228 -305h-165zM152 0v1434h249v-1434h-249z" />
    <glyph glyph-name="uni013B" unicode="&#x13b;" horiz-adv-x="1245" 
d="M186 0v1434h267v-1201h772v-233h-1039zM559 -668l156 269h-144v254h258v-254l-153 -269h-117z" />
    <glyph glyph-name="uni013C" unicode="&#x13c;" horiz-adv-x="552" 
d="M152 0v1434h249v-1434h-249zM135 -668l154 269h-144v254h261v-254l-156 -269h-115z" />
    <glyph glyph-name="Lcaron" unicode="&#x13d;" horiz-adv-x="1247" 
d="M186 0v1434h267v-1201h772v-233h-1039zM659 858l170 297h-157v279h284v-279l-170 -297h-127z" />
    <glyph glyph-name="lcaron" unicode="&#x13e;" horiz-adv-x="694" 
d="M152 0v1434h249v-1434h-249zM530 911l154 269h-143v254h260v-254l-156 -269h-115z" />
    <glyph glyph-name="Ldot" unicode="&#x13f;" horiz-adv-x="1251" 
d="M186 0v1434h267v-1201h772v-233h-1039zM752 631v299h305v-299h-305z" />
    <glyph glyph-name="ldot" unicode="&#x140;" horiz-adv-x="892" 
d="M152 0v1434h249v-1434h-249zM571 586v301h306v-301h-306z" />
    <glyph glyph-name="Lslash" unicode="&#x141;" horiz-adv-x="1333" 
d="M541 233h772v-233h-1039v512l-196 -104v221l196 104v701h267v-562l426 226v-219l-426 -226v-420z" />
    <glyph glyph-name="lslash" unicode="&#x142;" horiz-adv-x="727" 
d="M680 1063v-211l-184 -113v-739h-250v590l-174 -107v207l174 107v637h250v-484z" />
    <glyph glyph-name="Nacute" unicode="&#x143;" horiz-adv-x="1699" 
d="M764 1573l113 303h319l-250 -303h-182zM186 0v1434h365l696 -983v348v635h266v-1434h-251l-809 1145v-410v-735h-267z" />
    <glyph glyph-name="nacute" unicode="&#x144;" horiz-adv-x="1210" 
d="M537 1159l102 305h289l-228 -305h-163zM152 0v1020h243v-162q16 28 39 56t62.5 61.5t99 54.5t129.5 21q176 0 260 -99t84 -274v-678h-250v623q0 219 -184 219q-47 0 -85 -15t-62 -37t-41.5 -57.5t-26 -66t-13 -73t-5.5 -67.5t-1 -61v-465h-249z" />
    <glyph glyph-name="uni0145" unicode="&#x145;" horiz-adv-x="1699" 
d="M186 0v1434h365l696 -983v348v635h266v-1434h-251l-809 1145v-410v-735h-267zM711 -668l155 269h-143v254h258v-254l-154 -269h-116z" />
    <glyph glyph-name="uni0146" unicode="&#x146;" horiz-adv-x="1210" 
d="M152 0v1020h243v-162q16 28 39 56t62.5 61.5t99 54.5t129.5 21q176 0 260 -99t84 -274v-678h-250v623q0 219 -184 219q-47 0 -85 -15t-62 -37t-41.5 -57.5t-26 -66t-13 -73t-5.5 -67.5t-1 -61v-465h-249zM471 -668l154 269h-144v254h260v-254l-153 -269h-117z" />
    <glyph glyph-name="Ncaron" unicode="&#x147;" horiz-adv-x="1699" 
d="M1274 1812l-246 -260h-352l-244 260h246l174 -147l174 147h248zM186 0v1434h365l696 -983v348v635h266v-1434h-251l-809 1145v-410v-735h-267z" />
    <glyph glyph-name="ncaron" unicode="&#x148;" horiz-adv-x="1210" 
d="M455 1159l-224 260h226l157 -147l158 147h225l-223 -260h-319zM152 0v1020h243v-162q16 28 39 56t62.5 61.5t99 54.5t129.5 21q176 0 260 -99t84 -274v-678h-250v623q0 219 -184 219q-47 0 -85 -15t-62 -37t-41.5 -57.5t-26 -66t-13 -73t-5.5 -67.5t-1 -61v-465h-249z
" />
    <glyph glyph-name="Eng" unicode="&#x14a;" horiz-adv-x="1699" 
d="M999 -399v223h111q62 0 99.5 37t37.5 104v53l-794 1127v-88v-322v-735h-267v1434h365l696 -988v84v265v639h266v-1479q0 -166 -95 -260t-255 -94h-164z" />
    <glyph glyph-name="eng" unicode="&#x14b;" horiz-adv-x="1210" 
d="M571 -399v209h152q52 0 74 23t22 73v717q0 219 -184 219q-47 0 -85 -15t-62 -37t-41.5 -57.5t-26 -66t-13 -73t-5.5 -67.5t-1 -61v-465h-249v1020h243v-162q16 28 39 56t62.5 61.5t99 54.5t129.5 21q176 0 260 -99t84 -274v-813q0 -126 -67 -195t-193 -69h-238z" />
    <glyph glyph-name="Omacron" unicode="&#x14c;" horiz-adv-x="1677" 
d="M487 1599v177h705v-177h-705zM840 -31q-223 0 -393.5 95.5t-261.5 264.5t-91 386q0 161 53.5 299.5t150 238t236.5 155.5t306 56q221 0 391 -96.5t262 -266.5t92 -386q0 -217 -91 -386t-261 -264.5t-393 -95.5zM840 197q215 0 340 145t125 373q0 231 -125 376.5
t-340 145.5q-143 0 -250 -68t-162 -185.5t-55 -268.5q0 -228 126 -373t341 -145z" />
    <glyph glyph-name="omacron" unicode="&#x14d;" horiz-adv-x="1187" 
d="M274 1196v176h639v-176h-639zM594 -31q-222 0 -368 153.5t-146 387.5q0 238 144.5 389.5t369.5 151.5t369.5 -151.5t144.5 -389.5q0 -241 -144.5 -391t-369.5 -150zM594 172q118 0 186 84.5t68 249.5q0 166 -68.5 254t-185.5 88t-186.5 -88t-69.5 -254q0 -165 69 -249.5
t187 -84.5z" />
    <glyph glyph-name="Obreve" unicode="&#x14e;" horiz-adv-x="1677" 
d="M838 1546q-94 0 -166.5 24.5t-115 65.5t-63.5 90.5t-22 104.5h203q3 -49 46 -88t118 -39t117.5 39t45.5 88h205q-2 -55 -23 -104.5t-63.5 -90.5t-115 -65.5t-166.5 -24.5zM840 -31q-223 0 -393.5 95.5t-261.5 264.5t-91 386q0 161 53.5 299.5t150 238t236.5 155.5t306 56
q221 0 391 -96.5t262 -266.5t92 -386q0 -217 -91 -386t-261 -264.5t-393 -95.5zM840 197q215 0 340 145t125 373q0 231 -125 376.5t-340 145.5q-143 0 -250 -68t-162 -185.5t-55 -268.5q0 -228 126 -373t341 -145z" />
    <glyph glyph-name="obreve" unicode="&#x14f;" horiz-adv-x="1187" 
d="M592 1133q-69 0 -125.5 16t-94.5 43.5t-64 64.5t-37.5 77.5t-12.5 84.5h184q3 -50 42.5 -88.5t107.5 -38.5t107 38.5t42 88.5h187q-2 -56 -21 -105.5t-57.5 -91t-105 -65.5t-152.5 -24zM594 -31q-222 0 -368 153.5t-146 387.5q0 238 144.5 389.5t369.5 151.5
t369.5 -151.5t144.5 -389.5q0 -241 -144.5 -391t-369.5 -150zM594 172q118 0 186 84.5t68 249.5q0 166 -68.5 254t-185.5 88t-186.5 -88t-69.5 -254q0 -165 69 -249.5t187 -84.5z" />
    <glyph glyph-name="Ohungarumlaut" unicode="&#x150;" horiz-adv-x="1677" 
d="M551 1573l113 303h319l-250 -303h-182zM948 1573l113 303h319l-250 -303h-182zM840 -31q-223 0 -393.5 95.5t-261.5 264.5t-91 386q0 161 53.5 299.5t150 238t236.5 155.5t306 56q221 0 391 -96.5t262 -266.5t92 -386q0 -217 -91 -386t-261 -264.5t-393 -95.5zM840 197
q215 0 340 145t125 373q0 231 -125 376.5t-340 145.5q-143 0 -250 -68t-162 -185.5t-55 -268.5q0 -228 126 -373t341 -145z" />
    <glyph glyph-name="ohungarumlaut" unicode="&#x151;" horiz-adv-x="1187" 
d="M330 1159l102 305h291l-227 -305h-166zM690 1159l103 305h290l-227 -305h-166zM594 -31q-222 0 -368 153.5t-146 387.5q0 238 144.5 389.5t369.5 151.5t369.5 -151.5t144.5 -389.5q0 -241 -144.5 -391t-369.5 -150zM594 172q118 0 186 84.5t68 249.5q0 166 -68.5 254
t-185.5 88t-186.5 -88t-69.5 -254q0 -165 69 -249.5t187 -84.5z" />
    <glyph glyph-name="OE" unicode="&#x152;" horiz-adv-x="2449" 
d="M786 -31q-197 0 -354.5 95t-246.5 266t-89 387q0 214 89 385t246.5 266.5t354.5 95.5q313 0 482 -223v193h1083v-228h-817v-342h604v-221h-604v-416h817v-227h-1083v193q-166 -224 -482 -224zM827 197q214 0 333.5 140t119.5 378q0 237 -120 379.5t-333 142.5
q-215 0 -334.5 -142t-119.5 -380t119.5 -378t334.5 -140z" />
    <glyph glyph-name="oe" unicode="&#x153;" horiz-adv-x="1900" 
d="M571 -31q-209 0 -350 150.5t-141 390.5q0 239 139 390t356 151q124 0 231 -57.5t161 -153.5q114 211 383 211q155 0 267 -80.5t161 -217t32 -304.5h-720q7 -141 73.5 -212t173.5 -71q54 0 97.5 16t73 44.5t48.5 57.5t35 66l226 -84q-128 -297 -474 -297q-131 0 -229 53.5
t-149 151.5q-58 -96 -163.5 -150.5t-230.5 -54.5zM1098 629h465q-6 114 -67.5 174.5t-164.5 60.5q-94 0 -157 -61.5t-76 -173.5zM598 172q114 0 183 85t69 249q0 165 -69.5 253.5t-182.5 88.5q-119 0 -188.5 -88t-69.5 -254q0 -165 69 -249.5t189 -84.5z" />
    <glyph glyph-name="Racute" unicode="&#x154;" horiz-adv-x="1456" 
d="M621 1573l112 303h320l-252 -303h-180zM186 0v1434h668q223 0 351 -106t128 -277q0 -87 -30 -158t-81.5 -118t-112.5 -76t-132 -42q138 -17 213.5 -89t101.5 -218l66 -350h-287l-49 328q-20 130 -88 183.5t-207 53.5h-274v-565h-267zM453 788h354q111 0 179.5 53
t68.5 156t-68.5 156t-179.5 53h-354v-418z" />
    <glyph glyph-name="racute" unicode="&#x155;" horiz-adv-x="856" 
d="M418 1159l102 305h289l-227 -305h-164zM152 0v1020h245v-225q15 38 39 74t65.5 77t107 66.5t145.5 25.5q40 0 67 -6v-256q-49 8 -110 8q-163 0 -236.5 -83.5t-73.5 -270.5v-430h-249z" />
    <glyph glyph-name="uni0156" unicode="&#x156;" horiz-adv-x="1456" 
d="M186 0v1434h668q223 0 351 -106t128 -277q0 -87 -30 -158t-81.5 -118t-112.5 -76t-132 -42q138 -17 213.5 -89t101.5 -218l66 -350h-287l-49 328q-20 130 -88 183.5t-207 53.5h-274v-565h-267zM453 788h354q111 0 179.5 53t68.5 156t-68.5 156t-179.5 53h-354v-418z
M606 -668l154 269h-144v254h261v-254l-156 -269h-115z" />
    <glyph glyph-name="uni0157" unicode="&#x157;" horiz-adv-x="856" 
d="M152 0v1020h245v-225q15 38 39 74t65.5 77t107 66.5t145.5 25.5q40 0 67 -6v-256q-49 8 -110 8q-163 0 -236.5 -83.5t-73.5 -270.5v-430h-249zM141 -668l154 269h-143v254h260v-254l-154 -269h-117z" />
    <glyph glyph-name="Rcaron" unicode="&#x158;" horiz-adv-x="1456" 
d="M1130 1812l-245 -260h-353l-245 260h248l174 -147l174 147h247zM186 0v1434h668q223 0 351 -106t128 -277q0 -87 -30 -158t-81.5 -118t-112.5 -76t-132 -42q138 -17 213.5 -89t101.5 -218l66 -350h-287l-49 328q-20 130 -88 183.5t-207 53.5h-274v-565h-267zM453 788h354
q111 0 179.5 53t68.5 156t-68.5 156t-179.5 53h-354v-418z" />
    <glyph glyph-name="rcaron" unicode="&#x159;" horiz-adv-x="856" 
d="M336 1159l-223 260h225l158 -147l157 147h226l-224 -260h-319zM152 0v1020h245v-225q15 38 39 74t65.5 77t107 66.5t145.5 25.5q40 0 67 -6v-256q-49 8 -110 8q-163 0 -236.5 -83.5t-73.5 -270.5v-430h-249z" />
    <glyph glyph-name="Sacute" unicode="&#x15a;" horiz-adv-x="1351" 
d="M578 1573l112 303h320l-250 -303h-182zM688 -31q-107 0 -200 22t-162 60.5t-123 92t-88 115.5t-52 132l252 96q15 -60 44 -111t74 -94t111.5 -67.5t147.5 -24.5q145 0 218 55.5t73 147.5q0 78 -59 127t-187 72l-182 31q-202 34 -311 133.5t-109 283.5q0 181 145 302.5
t394 121.5q123 0 225 -31.5t169 -85t110 -115t65 -130.5l-248 -96q-79 237 -329 237q-128 0 -193 -54t-65 -136q0 -141 202 -179l187 -32q214 -35 338.5 -143t124.5 -287q0 -94 -35.5 -173.5t-104 -140t-179.5 -95t-253 -34.5z" />
    <glyph glyph-name="sacute" unicode="&#x15b;" horiz-adv-x="1050" 
d="M455 1159l102 305h291l-227 -305h-166zM528 -29q-176 0 -305 78t-162 215l232 74q6 -27 18.5 -53.5t39 -58t75 -51t113.5 -19.5q88 0 135 31.5t47 86.5q0 47 -33.5 78t-118.5 49l-135 27q-64 12 -111.5 27.5t-90.5 39.5t-70 56t-42.5 77.5t-15.5 104.5q0 142 114.5 230
t299.5 88q92 0 168 -21.5t126 -58.5t82.5 -78.5t49.5 -87.5l-211 -90q-25 67 -80 111t-143 44q-81 0 -124.5 -32.5t-43.5 -81.5q0 -45 33.5 -70.5t122.5 -42.5l131 -27q350 -67 350 -317q0 -151 -119.5 -239.5t-331.5 -88.5z" />
    <glyph glyph-name="Scircumflex" unicode="&#x15c;" horiz-adv-x="1351" 
d="M244 1573l245 258h353l245 -258h-247l-174 147l-174 -147h-248zM688 -31q-107 0 -200 22t-162 60.5t-123 92t-88 115.5t-52 132l252 96q15 -60 44 -111t74 -94t111.5 -67.5t147.5 -24.5q145 0 218 55.5t73 147.5q0 78 -59 127t-187 72l-182 31q-202 34 -311 133.5
t-109 283.5q0 181 145 302.5t394 121.5q123 0 225 -31.5t169 -85t110 -115t65 -130.5l-248 -96q-79 237 -329 237q-128 0 -193 -54t-65 -136q0 -141 202 -179l187 -32q214 -35 338.5 -143t124.5 -287q0 -94 -35.5 -173.5t-104 -140t-179.5 -95t-253 -34.5z" />
    <glyph glyph-name="scircumflex" unicode="&#x15d;" horiz-adv-x="1050" 
d="M152 1159l223 260h319l224 -260h-226l-157 148l-158 -148h-225zM528 -29q-176 0 -305 78t-162 215l232 74q6 -27 18.5 -53.5t39 -58t75 -51t113.5 -19.5q88 0 135 31.5t47 86.5q0 47 -33.5 78t-118.5 49l-135 27q-64 12 -111.5 27.5t-90.5 39.5t-70 56t-42.5 77.5
t-15.5 104.5q0 142 114.5 230t299.5 88q92 0 168 -21.5t126 -58.5t82.5 -78.5t49.5 -87.5l-211 -90q-25 67 -80 111t-143 44q-81 0 -124.5 -32.5t-43.5 -81.5q0 -45 33.5 -70.5t122.5 -42.5l131 -27q350 -67 350 -317q0 -151 -119.5 -239.5t-331.5 -88.5z" />
    <glyph glyph-name="Scedilla" unicode="&#x15e;" horiz-adv-x="1351" 
d="M778 -27l-28 -26q-35 -30 -54 -49h17q74 0 131 -44.5t57 -129.5q0 -77 -64 -133t-190 -56q-81 0 -147 31t-103 72l92 120q71 -71 154 -71q84 0 84 53q0 24 -22 37.5t-58 13.5q-37 0 -61 -8l-68 88l98 100q-230 18 -369.5 133t-183.5 287l252 96q15 -60 44 -111t74 -94
t111.5 -67.5t147.5 -24.5q145 0 218 55.5t73 147.5q0 78 -59 127t-187 72l-182 31q-202 34 -311 133.5t-109 283.5q0 181 145 302.5t394 121.5q123 0 225 -31.5t169 -85t110 -115t65 -130.5l-248 -96q-79 237 -329 237q-128 0 -193 -54t-65 -136q0 -141 202 -179l187 -32
q214 -35 338.5 -143t124.5 -287q0 -177 -122.5 -297.5t-359.5 -141.5z" />
    <glyph glyph-name="scedilla" unicode="&#x15f;" horiz-adv-x="1050" 
d="M643 -20l-37 -33q-28 -24 -53 -49h16q74 0 131.5 -44.5t57.5 -129.5q0 -77 -64 -133t-190 -56q-81 0 -147 31t-103 72l92 120q71 -71 154 -71q84 0 84 53q0 24 -22 37.5t-58 13.5q-38 0 -62 -8l-67 88l100 102q-158 11 -271 88t-143 203l232 74q6 -27 18.5 -53.5t39 -58
t75 -51t113.5 -19.5q88 0 135 31.5t47 86.5q0 47 -33.5 78t-118.5 49l-135 27q-64 12 -111.5 27.5t-90.5 39.5t-70 56t-42.5 77.5t-15.5 104.5q0 142 114.5 230t299.5 88q92 0 168 -21.5t126 -58.5t82.5 -78.5t49.5 -87.5l-211 -90q-25 67 -80 111t-143 44
q-81 0 -124.5 -32.5t-43.5 -81.5q0 -45 33.5 -70.5t122.5 -42.5l131 -27q350 -67 350 -317q0 -128 -88.5 -212t-247.5 -107z" />
    <glyph glyph-name="Scaron" unicode="&#x160;" horiz-adv-x="1351" 
d="M1087 1812l-245 -260h-353l-245 260h248l174 -147l174 147h247zM688 -31q-107 0 -200 22t-162 60.5t-123 92t-88 115.5t-52 132l252 96q15 -60 44 -111t74 -94t111.5 -67.5t147.5 -24.5q145 0 218 55.5t73 147.5q0 78 -59 127t-187 72l-182 31q-202 34 -311 133.5
t-109 283.5q0 181 145 302.5t394 121.5q123 0 225 -31.5t169 -85t110 -115t65 -130.5l-248 -96q-79 237 -329 237q-128 0 -193 -54t-65 -136q0 -141 202 -179l187 -32q214 -35 338.5 -143t124.5 -287q0 -94 -35.5 -173.5t-104 -140t-179.5 -95t-253 -34.5z" />
    <glyph glyph-name="scaron" unicode="&#x161;" horiz-adv-x="1050" 
d="M373 1159l-223 260h225l157 -147l160 147h226l-224 -260h-321zM528 -29q-176 0 -305 78t-162 215l232 74q6 -27 18.5 -53.5t39 -58t75 -51t113.5 -19.5q88 0 135 31.5t47 86.5q0 47 -33.5 78t-118.5 49l-135 27q-64 12 -111.5 27.5t-90.5 39.5t-70 56t-42.5 77.5
t-15.5 104.5q0 142 114.5 230t299.5 88q92 0 168 -21.5t126 -58.5t82.5 -78.5t49.5 -87.5l-211 -90q-25 67 -80 111t-143 44q-81 0 -124.5 -32.5t-43.5 -81.5q0 -45 33.5 -70.5t122.5 -42.5l131 -27q350 -67 350 -317q0 -151 -119.5 -239.5t-331.5 -88.5z" />
    <glyph glyph-name="uni0162" unicode="&#x162;" horiz-adv-x="1310" 
d="M784 0l-59 -53q-22 -22 -53 -49h16q75 0 133 -44.5t58 -129.5q0 -77 -65 -133t-191 -56q-81 0 -147 31.5t-101 71.5l90 120q71 -71 153 -71q84 0 84 53q0 24 -21 37.5t-56 13.5q-40 0 -64 -8l-67 88l127 129h-103v1206h-498v228h1270v-228h-506v-1206z" />
    <glyph glyph-name="uni0163" unicode="&#x163;" horiz-adv-x="862" 
d="M662 0l-60 -53l-51 -49h16q74 0 131.5 -44.5t57.5 -129.5q0 -77 -64.5 -133t-189.5 -56q-81 0 -148 31.5t-102 71.5l92 120q66 -71 152 -71q84 0 84 53q0 24 -21 37.5t-57 13.5q-41 0 -62 -8l-67 88l127 129h12q-124 0 -191 69t-67 191v565h-221v195h221v321h250v-321
h270v-195h-270v-526q0 -49 22 -71.5t72 -22.5h217v-205h-153z" />
    <glyph glyph-name="Tcaron" unicode="&#x164;" horiz-adv-x="1310" 
d="M1071 1812l-246 -260h-352l-246 260h248l174 -147l174 147h248zM518 0v1206h-498v228h1270v-228h-506v-1206h-266z" />
    <glyph glyph-name="tcaron" unicode="&#x165;" horiz-adv-x="862" 
d="M674 1106l153 268h-143v254h260v-254l-153 -268h-117zM512 0q-124 0 -191 69t-67 191v565h-221v195h221v321h250v-321h270v-195h-270v-526q0 -49 22 -71.5t72 -22.5h217v-205h-303z" />
    <glyph glyph-name="Tbar" unicode="&#x166;" horiz-adv-x="1339" 
d="M1305 1206h-504v-325h301v-191h-301v-690h-266v690h-310v191h310v325h-500v228h1270v-228z" />
    <glyph glyph-name="tbar" unicode="&#x167;" horiz-adv-x="884" 
d="M616 205h218v-205h-304q-124 0 -191 69t-67 191v240h-223v190h223v135h-223v195h223v321h250v-321h271v-195h-271v-135h271v-190h-271v-201q0 -50 21.5 -72t72.5 -22z" />
    <glyph glyph-name="Utilde" unicode="&#x168;" horiz-adv-x="1550" 
d="M971 1550q-85 0 -187 56l-59 32q-63 37 -104 37q-40 0 -62.5 -26.5t-23.5 -75.5h-203q0 131 74.5 200.5t199.5 69.5q91 0 187 -51l59 -33q68 -37 104 -37q79 0 88 99h197q0 -139 -71.5 -205t-198.5 -66zM776 -31q-283 0 -445.5 154t-162.5 434v877h266v-836
q0 -190 86 -292.5t256 -102.5q173 0 256.5 103.5t83.5 291.5v836h266v-877q0 -277 -163 -432.5t-443 -155.5z" />
    <glyph glyph-name="utilde" unicode="&#x169;" horiz-adv-x="1198" 
d="M762 1149q-81 0 -170 55l-55 33q-65 37 -95 37q-37 0 -58 -27t-22 -76h-182q0 131 68 201t182 70q80 0 168 -51l53 -33q65 -37 97 -37q73 0 79 98h179q0 -139 -64 -204.5t-180 -65.5zM463 -31q-155 0 -239.5 100t-84.5 271v680h250v-621q0 -221 176 -221q232 0 232 363
v479h250v-1020h-248v168q-120 -199 -336 -199z" />
    <glyph glyph-name="Umacron" unicode="&#x16a;" horiz-adv-x="1550" 
d="M428 1599v177h702v-177h-702zM776 -31q-283 0 -445.5 154t-162.5 434v877h266v-836q0 -190 86 -292.5t256 -102.5q173 0 256.5 103.5t83.5 291.5v836h266v-877q0 -277 -163 -432.5t-443 -155.5z" />
    <glyph glyph-name="umacron" unicode="&#x16b;" horiz-adv-x="1198" 
d="M272 1196v176h639v-176h-639zM463 -31q-155 0 -239.5 100t-84.5 271v680h250v-621q0 -221 176 -221q232 0 232 363v479h250v-1020h-248v168q-120 -199 -336 -199z" />
    <glyph glyph-name="Ubreve" unicode="&#x16c;" horiz-adv-x="1550" 
d="M776 1546q-94 0 -166.5 24.5t-114.5 65.5t-63 90.5t-22 104.5h202q3 -49 46 -88t118 -39t118 39t48 88h203q-2 -55 -23.5 -104.5t-63.5 -90.5t-115 -65.5t-167 -24.5zM776 -31q-283 0 -445.5 154t-162.5 434v877h266v-836q0 -190 86 -292.5t256 -102.5q173 0 256.5 103.5
t83.5 291.5v836h266v-877q0 -277 -163 -432.5t-443 -155.5z" />
    <glyph glyph-name="ubreve" unicode="&#x16d;" horiz-adv-x="1198" 
d="M590 1133q-86 0 -151.5 24t-104 65.5t-57.5 91t-21 105.5h184q5 -50 43.5 -88.5t106.5 -38.5q69 0 107.5 38.5t41.5 88.5h187q-1 -44 -13 -84.5t-38 -78t-64 -64.5t-94.5 -43t-126.5 -16zM463 -31q-155 0 -239.5 100t-84.5 271v680h250v-621q0 -221 176 -221
q232 0 232 363v479h250v-1020h-248v168q-120 -199 -336 -199z" />
    <glyph glyph-name="Uring" unicode="&#x16e;" horiz-adv-x="1550" 
d="M776 1532q-110 0 -187 72t-77 184q0 107 78.5 180.5t185.5 73.5q106 0 184 -74t78 -182q0 -110 -77.5 -182t-184.5 -72zM776 1673q44 0 75.5 32t31.5 81q0 47 -32 79.5t-75 32.5q-46 0 -77 -32t-31 -78q0 -51 30.5 -83t77.5 -32zM776 -31q-283 0 -445.5 154t-162.5 434
v877h266v-836q0 -190 86 -292.5t256 -102.5q173 0 256.5 103.5t83.5 291.5v836h266v-877q0 -277 -163 -432.5t-443 -155.5z" />
    <glyph glyph-name="uring" unicode="&#x16f;" horiz-adv-x="1198" 
d="M594 1128q-103 0 -177.5 69.5t-74.5 174.5q0 103 74.5 172.5t177.5 69.5q101 0 175.5 -70.5t74.5 -173.5q0 -105 -74 -173.5t-176 -68.5zM594 1264q42 0 72 30t30 76q0 45 -30 76t-72 31q-44 0 -74.5 -30.5t-30.5 -74.5q0 -49 30 -78.5t75 -29.5zM463 -31
q-155 0 -239.5 100t-84.5 271v680h250v-621q0 -221 176 -221q232 0 232 363v479h250v-1020h-248v168q-120 -199 -336 -199z" />
    <glyph glyph-name="Uhungarumlaut" unicode="&#x170;" horiz-adv-x="1550" 
d="M489 1573l113 303h320l-250 -303h-183zM887 1573l112 303h320l-250 -303h-182zM776 -31q-283 0 -445.5 154t-162.5 434v877h266v-836q0 -190 86 -292.5t256 -102.5q173 0 256.5 103.5t83.5 291.5v836h266v-877q0 -277 -163 -432.5t-443 -155.5z" />
    <glyph glyph-name="uhungarumlaut" unicode="&#x171;" horiz-adv-x="1198" 
d="M328 1159l102 305h291l-227 -305h-166zM690 1159l103 305h288l-227 -305h-164zM463 -31q-155 0 -239.5 100t-84.5 271v680h250v-621q0 -221 176 -221q232 0 232 363v479h250v-1020h-248v168q-120 -199 -336 -199z" />
    <glyph glyph-name="Uogonek" unicode="&#x172;" horiz-adv-x="1550" 
d="M846 -426q-119 0 -189.5 50.5t-70.5 139.5q0 64 30 112t95 95q-259 17 -401 171.5t-142 414.5v877h266v-836q0 -190 86 -292.5t256 -102.5q173 0 256.5 103.5t83.5 291.5v836h266v-877q0 -216 -100.5 -359.5t-282.5 -199.5q-129 -39 -180 -80t-51 -90q0 -76 119 -76
q44 0 114 17v-170q-82 -25 -155 -25z" />
    <glyph glyph-name="uogonek" unicode="&#x173;" horiz-adv-x="1198" 
d="M1047 0q-234 -72 -234 -174q0 -74 119 -74q42 0 115 17v-170q-79 -25 -150 -25q-123 0 -195.5 50.5t-72.5 146.5q0 135 182 229h-12v168q-120 -199 -336 -199q-155 0 -239.5 100t-84.5 271v680h250v-621q0 -221 176 -221q232 0 232 363v479h250v-1020z" />
    <glyph glyph-name="Wcircumflex" unicode="&#x174;" horiz-adv-x="2109" 
d="M637 1573l246 258h352l246 -258h-248l-174 147l-174 -147h-248zM422 0l-369 1434h287l147 -670l101 -451q16 65 98 369l205 752h340l207 -785q21 -80 41.5 -157t30 -113.5t16.5 -65.5q14 60 104 455l154 666h280l-383 -1434h-313l-207 782q-60 227 -102 369
q-12 -52 -101 -369l-219 -782h-317z" />
    <glyph glyph-name="wcircumflex" unicode="&#x175;" horiz-adv-x="1738" 
d="M485 1159l224 260h321l223 -260h-225l-158 148l-159 -148h-226zM362 0l-329 1020h258l104 -375q26 -97 52.5 -195.5t38 -140t18.5 -65.5q36 135 100 366l117 410h295l123 -428q74 -276 96 -346q8 33 115 422l102 352h256l-334 -1020h-297l-131 463q-26 94 -52.5 186.5
t-33.5 120.5q-12 -50 -86 -305l-131 -465h-281z" />
    <glyph glyph-name="Ycircumflex" unicode="&#x176;" horiz-adv-x="1359" 
d="M258 1573l246 258h352l244 -258h-246l-174 147l-174 -147h-248zM549 0v592l-520 842h311l203 -342l145 -246l139 248l191 340h305l-508 -840v-594h-266z" />
    <glyph glyph-name="ycircumflex" unicode="&#x177;" horiz-adv-x="1101" 
d="M539 1307l-158 -148h-225l223 260h319l224 -260h-226zM805 1020h262l-416 -1174q-45 -133 -116.5 -189t-202.5 -56h-266v206h241q53 0 82.5 23.5t52.5 85.5l31 92l-475 1012h270l189 -438q33 -78 57.5 -136t38.5 -91t20 -46l91 275z" />
    <glyph glyph-name="Ydieresis" unicode="&#x178;" horiz-adv-x="1359" 
d="M311 1573v231h269v-231h-269zM784 1573v231h269v-231h-269zM549 0v592l-520 842h311l203 -342l145 -246l139 248l191 340h305l-508 -840v-594h-266z" />
    <glyph glyph-name="Zacute" unicode="&#x179;" horiz-adv-x="1333" 
d="M578 1573l112 303h320l-250 -303h-182zM88 0v281l832 925h-258h-551v228h1114v-265l-844 -938h258h621v-231h-1172z" />
    <glyph glyph-name="zacute" unicode="&#x17a;" horiz-adv-x="1013" 
d="M432 1159l103 305h288l-227 -305h-164zM82 0v219l530 598h-258h-250v203h814v-180l-564 -635h271h319v-205h-862z" />
    <glyph glyph-name="Zdotaccent" unicode="&#x17b;" horiz-adv-x="1333" 
d="M537 1573v256h264v-256h-264zM88 0v281l832 925h-258h-551v228h1114v-265l-844 -938h258h621v-231h-1172z" />
    <glyph glyph-name="zdotaccent" unicode="&#x17c;" horiz-adv-x="1013" 
d="M379 1178v256h264v-256h-264zM82 0v219l530 598h-258h-250v203h814v-180l-564 -635h271h319v-205h-862z" />
    <glyph glyph-name="Zcaron" unicode="&#x17d;" horiz-adv-x="1333" 
d="M1087 1812l-245 -260h-353l-243 260h246l174 -147l174 147h247zM88 0v281l832 925h-258h-551v228h1114v-265l-844 -938h258h621v-231h-1172z" />
    <glyph glyph-name="zcaron" unicode="&#x17e;" horiz-adv-x="1013" 
d="M350 1159l-223 260h225l158 -147l158 147h225l-223 -260h-320zM82 0v219l530 598h-258h-250v203h814v-180l-564 -635h271h319v-205h-862z" />
    <glyph glyph-name="florin" unicode="&#x192;" horiz-adv-x="958" 
d="M47 -424q-80 0 -162 23v196q66 -16 115 -16q170 0 205 203l59 372q37 237 60 363h-134h-106v172h266l39 231q57 342 373 342q74 0 162 -18v-207q-59 6 -105 6q-85 0 -129 -35.5t-57 -122.5l-33 -196h268v-172h-295l-122 -756q-31 -192 -137 -288.5t-267 -96.5z" />
    <glyph glyph-name="uni01E2" unicode="&#x1e2;" horiz-adv-x="1933" 
d="M1559 1776v-177h-703v177h703zM1835 1206h-686v-348h500v-225h-500v-406h686v-227h-950v360h-434l-183 -360h-309l774 1434h1102v-228zM885 881v348q-45 -92 -211 -428l-109 -213h320v293z" />
    <glyph glyph-name="uni01E3" unicode="&#x1e3;" horiz-adv-x="1757" 
d="M557 1196v176h639v-176h-639zM434 -31q-164 0 -256 79t-92 220q0 79 33.5 142t90 105.5t141 73t175 47t203.5 26.5v36q0 78 -48 120t-144 42q-95 0 -151 -47.5t-75 -122.5l-227 60q22 123 138 212t298 89q128 0 217.5 -45t132.5 -115q45 71 132.5 115.5t197.5 44.5
q119 0 215 -48.5t155.5 -131t85.5 -192t13 -230.5h-721q7 -146 76 -214.5t176 -68.5q171 0 250 184l225 -84q-55 -132 -171 -214.5t-298 -82.5q-139 0 -243 58.5t-144 138.5q-51 -86 -150.5 -141.5t-234.5 -55.5zM956 629h465q-6 113 -67 174t-160 61q-95 0 -160 -62
t-78 -173zM492 158q100 0 168.5 67t68.5 195v84q-88 -10 -151.5 -23t-121.5 -37t-88 -63.5t-30 -93.5q0 -60 40 -94.5t114 -34.5z" />
    <glyph glyph-name="Aringacute" unicode="&#x1fa;" horiz-adv-x="1472" 
d="M1049 2322l-228 -266h-166l103 266h291zM741 1520q-104 0 -178 69t-74 174q0 103 74.5 172.5t177.5 69.5q101 0 175.5 -70.5t74.5 -173.5q0 -105 -74 -173t-176 -68zM741 1868q-44 0 -74 -30.5t-30 -74.5q0 -47 29.5 -77.5t74.5 -30.5q42 0 72.5 30.5t30.5 75.5t-30.5 76
t-72.5 31zM1155 0l-121 354h-604l-125 -354h-287l543 1434h354l535 -1434h-295zM510 582h444l-118 348l-103 289q-1 -2 -100 -291z" />
    <glyph glyph-name="aringacute" unicode="&#x1fb;" horiz-adv-x="1148" 
d="M465 1665l102 266h291l-227 -266h-166zM551 1128q-103 0 -177.5 69.5t-74.5 174.5q0 103 74.5 172.5t177.5 69.5q101 0 175.5 -70.5t74.5 -173.5q0 -105 -74 -173.5t-176 -68.5zM551 1264q42 0 72 30t30 76q0 45 -30 76t-72 31q-44 0 -74.5 -30.5t-30.5 -74.5
q0 -49 30 -78.5t75 -29.5zM416 -31q-144 0 -235 80t-91 213q0 83 35.5 148.5t93 108t143 73.5t174 47.5t197.5 26.5v34q0 160 -188 160q-193 0 -240 -170l-231 60q20 124 144 212.5t327 88.5q211 0 322.5 -97t111.5 -284v-412q0 -38 11 -49.5t50 -11.5h97v-197h-193
q-91 0 -133.5 39.5t-52.5 112.5q-51 -81 -136.5 -132t-205.5 -51zM498 158q99 0 167 66.5t68 195.5v82q-88 -10 -151.5 -24t-121 -38t-87 -62.5t-29.5 -90.5q0 -60 39.5 -94.5t114.5 -34.5z" />
    <glyph glyph-name="AEacute" unicode="&#x1fc;" horiz-adv-x="1933" 
d="M1548 1876l-250 -303h-182l113 303h319zM1835 1206h-686v-348h500v-225h-500v-406h686v-227h-950v360h-434l-183 -360h-309l774 1434h1102v-228zM885 881v348q-45 -92 -211 -428l-109 -213h320v293z" />
    <glyph glyph-name="aeacute" unicode="&#x1fd;" horiz-adv-x="1757" 
d="M797 1159l102 305h291l-227 -305h-166zM434 -31q-164 0 -256 79t-92 220q0 79 33.5 142t90 105.5t141 73t175 47t203.5 26.5v36q0 78 -48 120t-144 42q-95 0 -151 -47.5t-75 -122.5l-227 60q22 123 138 212t298 89q128 0 217.5 -45t132.5 -115q45 71 132.5 115.5
t197.5 44.5q119 0 215 -48.5t155.5 -131t85.5 -192t13 -230.5h-721q7 -146 76 -214.5t176 -68.5q171 0 250 184l225 -84q-55 -132 -171 -214.5t-298 -82.5q-139 0 -243 58.5t-144 138.5q-51 -86 -150.5 -141.5t-234.5 -55.5zM956 629h465q-6 113 -67 174t-160 61
q-95 0 -160 -62t-78 -173zM492 158q100 0 168.5 67t68.5 195v84q-88 -10 -151.5 -23t-121.5 -37t-88 -63.5t-30 -93.5q0 -60 40 -94.5t114 -34.5z" />
    <glyph glyph-name="Oslashacute" unicode="&#x1fe;" horiz-adv-x="1681" 
d="M750 1573l112 303h320l-250 -303h-182zM334 -109l-182 140l129 162q-187 206 -187 520q0 162 54 301t150.5 238t236 155.5t305.5 56.5q208 0 377 -94l133 168l182 -141l-131 -166q184 -206 184 -518q0 -217 -90.5 -386.5t-260.5 -265.5t-394 -96q-208 0 -375 90zM453 408
l438 553q157 197 174 219q-91 55 -223 55q-144 0 -251 -68t-161.5 -185t-54.5 -267q0 -175 78 -307zM842 197q215 0 339 145t124 373q0 171 -72 303l-428 -535l-187 -233q92 -53 224 -53z" />
    <glyph glyph-name="oslashacute" unicode="&#x1ff;" horiz-adv-x="1196" 
d="M522 1159l103 305h290l-227 -305h-166zM598 -31q-157 0 -281 82l-84 -100l-127 102l91 107q-113 144 -113 350q0 238 144.5 389.5t369.5 151.5q163 0 281 -80l86 102l125 -100l-91 -109q115 -147 115 -354q0 -241 -145.5 -391t-370.5 -150zM365 358l210 256l162 191
q-58 43 -139 43q-116 0 -185 -88t-69 -254q0 -84 21 -148zM600 172q117 0 185.5 84.5t68.5 249.5q0 86 -23 160l-206 -250q-64 -78 -168 -199q57 -45 143 -45z" />
    <glyph glyph-name="uni0218" unicode="&#x218;" horiz-adv-x="1351" 
d="M688 -31q-107 0 -200 22t-162 60.5t-123 92t-88 115.5t-52 132l252 96q15 -60 44 -111t74 -94t111.5 -67.5t147.5 -24.5q145 0 218 55.5t73 147.5q0 78 -59 127t-187 72l-182 31q-202 34 -311 133.5t-109 283.5q0 181 145 302.5t394 121.5q123 0 225 -31.5t169 -85
t110 -115t65 -130.5l-248 -96q-79 237 -329 237q-128 0 -193 -54t-65 -136q0 -141 202 -179l187 -32q214 -35 338.5 -143t124.5 -287q0 -94 -35.5 -173.5t-104 -140t-179.5 -95t-253 -34.5zM535 -668l153 269h-143v254h260v-254l-156 -269h-114z" />
    <glyph glyph-name="uni0219" unicode="&#x219;" horiz-adv-x="1050" 
d="M528 -29q-176 0 -305 78t-162 215l232 74q6 -27 18.5 -53.5t39 -58t75 -51t113.5 -19.5q88 0 135 31.5t47 86.5q0 47 -33.5 78t-118.5 49l-135 27q-64 12 -111.5 27.5t-90.5 39.5t-70 56t-42.5 77.5t-15.5 104.5q0 142 114.5 230t299.5 88q92 0 168 -21.5t126 -58.5
t82.5 -78.5t49.5 -87.5l-211 -90q-25 67 -80 111t-143 44q-81 0 -124.5 -32.5t-43.5 -81.5q0 -45 33.5 -70.5t122.5 -42.5l131 -27q350 -67 350 -317q0 -151 -119.5 -239.5t-331.5 -88.5zM391 -668l154 269h-144v254h261v-254l-156 -269h-115z" />
    <glyph glyph-name="uni021A" unicode="&#x21a;" horiz-adv-x="1310" 
d="M518 0v1206h-498v228h1270v-228h-506v-1206h-266zM510 -668l154 269h-144v254h260v-254l-155 -269h-115z" />
    <glyph glyph-name="uni021B" unicode="&#x21b;" horiz-adv-x="862" 
d="M512 0q-124 0 -191 69t-67 191v565h-221v195h221v321h250v-321h270v-195h-270v-526q0 -49 22 -71.5t72 -22.5h217v-205h-303zM387 -668l156 269h-144v254h258v-254l-153 -269h-117z" />
    <glyph glyph-name="uni0226" unicode="&#x226;" horiz-adv-x="1472" 
d="M870 1829v-256h-264v256h264zM1155 0l-121 354h-604l-125 -354h-287l543 1434h354l535 -1434h-295zM510 582h444l-118 348l-103 289q-1 -2 -100 -291z" />
    <glyph glyph-name="uni0227" unicode="&#x227;" horiz-adv-x="1148" 
d="M416 1178v256h264v-256h-264zM416 -31q-144 0 -235 80t-91 213q0 83 35.5 148.5t93 108t143 73.5t174 47.5t197.5 26.5v34q0 160 -188 160q-193 0 -240 -170l-231 60q20 124 144 212.5t327 88.5q211 0 322.5 -97t111.5 -284v-412q0 -38 11 -49.5t50 -11.5h97v-197h-193
q-91 0 -133.5 39.5t-52.5 112.5q-51 -81 -136.5 -132t-205.5 -51zM498 158q99 0 167 66.5t68 195.5v82q-88 -10 -151.5 -24t-121 -38t-87 -62.5t-29.5 -90.5q0 -60 39.5 -94.5t114.5 -34.5z" />
    <glyph glyph-name="uni0232" unicode="&#x232;" horiz-adv-x="1359" 
d="M330 1599v177h704v-177h-704zM549 0v592l-520 842h311l203 -342l145 -246l139 248l191 340h305l-508 -840v-594h-266z" />
    <glyph glyph-name="uni0233" unicode="&#x233;" horiz-adv-x="1101" 
d="M858 1372v-176h-639v176h639zM805 1020h262l-416 -1174q-45 -133 -116.5 -189t-202.5 -56h-266v206h241q53 0 82.5 23.5t52.5 85.5l31 92l-475 1012h270l189 -438q33 -78 57.5 -136t38.5 -91t20 -46l91 275z" />
    <glyph glyph-name="uni0237" unicode="&#x237;" horiz-adv-x="569" 
d="M-80 -399v206h154q50 0 72 22.5t22 72.5v1118h250v-1159q0 -123 -67 -191.5t-193 -68.5h-238z" />
    <glyph glyph-name="circumflex" unicode="&#x2c6;" horiz-adv-x="1353" 
d="M143 1159l224 260h319l223 -260h-225l-158 148l-157 -148h-226z" />
    <glyph glyph-name="caron" unicode="&#x2c7;" horiz-adv-x="1353" 
d="M352 1159l-223 260h225l158 -147l160 147h223l-221 -260h-322z" />
    <glyph glyph-name="breve" unicode="&#x2d8;" horiz-adv-x="884" 
d="M440 1133q-86 0 -152.5 24t-105 65.5t-57.5 91t-21 105.5h185q5 -51 43.5 -89t107.5 -38q68 0 106.5 38.5t43.5 88.5h184q-2 -56 -21 -105.5t-57.5 -91t-104 -65.5t-151.5 -24z" />
    <glyph glyph-name="dotaccent" unicode="&#x2d9;" horiz-adv-x="661" 
d="M193 1178v256h266v-256h-266z" />
    <glyph glyph-name="ring" unicode="&#x2da;" horiz-adv-x="745" 
d="M375 1128q-103 0 -177.5 69.5t-74.5 174.5q0 103 74.5 172.5t177.5 69.5q101 0 175.5 -70.5t74.5 -173.5q0 -105 -74 -173.5t-176 -68.5zM375 1264q42 0 72 30t30 76q0 45 -30 76t-72 31q-44 0 -74.5 -30.5t-30.5 -74.5q0 -49 30 -78.5t75 -29.5z" />
    <glyph glyph-name="ogonek" unicode="&#x2db;" horiz-adv-x="675" 
d="M338 -426q-123 0 -195.5 50.5t-72.5 146.5q0 39 15 74.5t53 76t114 79.5t186 73l47 -74q-233 -72 -233 -174q0 -74 121 -74q42 0 112 17v-170q-79 -25 -147 -25z" />
    <glyph glyph-name="tilde" unicode="&#x2dc;" horiz-adv-x="919" 
d="M643 1149q-79 0 -168 55l-55 33q-4 2 -17 9.5t-17.5 9.5t-14.5 7t-15.5 6.5t-13.5 3t-16 1.5q-37 0 -58 -27t-22 -76h-185q0 131 68 201t182 70q82 0 170 -51l54 -33q65 -37 94 -37q73 0 82 98h178q0 -139 -65 -204.5t-181 -65.5z" />
    <glyph glyph-name="hungarumlaut" unicode="&#x2dd;" horiz-adv-x="1171" 
d="M217 1159l102 305h291l-227 -305h-166zM578 1159l102 305h291l-228 -305h-165z" />
    <glyph glyph-name="gravecomb" unicode="&#x300;" horiz-adv-x="0" 
d="M-195 1159l-225 305h289l102 -305h-166z" />
    <glyph glyph-name="acutecomb" unicode="&#x301;" horiz-adv-x="0" 
d="M-387 1159l102 305h291l-227 -305h-166z" />
    <glyph glyph-name="uni0302" unicode="&#x302;" horiz-adv-x="0" 
d="M-817 1159l223 260h320l223 -260h-225l-158 148l-158 -148h-225z" />
    <glyph glyph-name="tildecomb" unicode="&#x303;" horiz-adv-x="0" 
d="M-270 1149q-79 0 -168 55l-56 33q-4 2 -17 9.5t-17.5 9.5t-14.5 7t-15.5 6.5t-13.5 3t-16 1.5q-37 0 -58 -27t-22 -76h-184q0 131 68 201t182 70q82 0 170 -51l53 -33q65 -37 94 -37q74 0 80 98h180q0 -139 -64.5 -204.5t-180.5 -65.5z" />
    <glyph glyph-name="uni0304" unicode="&#x304;" horiz-adv-x="0" 
d="M-707 1196v176h639v-176h-639z" />
    <glyph glyph-name="uni0306" unicode="&#x306;" horiz-adv-x="0" 
d="M-395 1133q-86 0 -151.5 24t-104 65.5t-57.5 91t-21 105.5h184q3 -50 42.5 -88.5t107.5 -38.5q69 0 107.5 38.5t41.5 88.5h187q-1 -44 -13 -84.5t-38 -78t-64 -64.5t-94.5 -43t-126.5 -16z" />
    <glyph glyph-name="uni0307" unicode="&#x307;" horiz-adv-x="0" 
d="M-295 1178v256h264v-256h-264z" />
    <glyph glyph-name="uni0308" unicode="&#x308;" horiz-adv-x="0" 
d="M-739 1188v231h243v-231h-243zM-309 1188v231h243v-231h-243z" />
    <glyph glyph-name="uni030A" unicode="&#x30a;" horiz-adv-x="0" 
d="M-276 1128q-105 0 -178.5 69.5t-73.5 174.5q0 103 74.5 172.5t177.5 69.5q101 0 174 -70.5t73 -173.5q0 -105 -72.5 -173.5t-174.5 -68.5zM-276 1264q42 0 71 30t29 76q0 45 -29 76t-71 31q-44 0 -74.5 -30.5t-30.5 -74.5q0 -49 29.5 -78.5t75.5 -29.5z" />
    <glyph glyph-name="uni030B" unicode="&#x30b;" horiz-adv-x="0" 
d="M-770 1159l102 305h291l-227 -305h-166zM-410 1159l103 305h291l-228 -305h-166z" />
    <glyph glyph-name="uni030C" unicode="&#x30c;" horiz-adv-x="0" 
d="M-627 1159l-223 260h225l158 -147l158 147h225l-223 -260h-320z" />
    <glyph glyph-name="uni0312" unicode="&#x312;" horiz-adv-x="0" 
d="M8 1700l-153 -268h143v-254h-260v254l156 268h114z" />
    <glyph glyph-name="dotbelowcomb" unicode="&#x323;" horiz-adv-x="0" 
d="M-268 -399v256h264v-256h-264z" />
    <glyph glyph-name="uni0326" unicode="&#x326;" horiz-adv-x="0" 
d="M-293 -668l154 269h-144v254h260v-254l-155 -269h-115z" />
    <glyph glyph-name="uni0327" unicode="&#x327;" horiz-adv-x="0" 
d="M-332 -465q-81 0 -147 31t-103 72l93 120q71 -71 153 -71q84 0 84 53q0 24 -22 37.5t-58 13.5q-37 0 -61 -8l-68 88l127 129h164l-59 -53q-35 -30 -54 -49h17q74 0 131 -44.5t57 -129.5q0 -77 -64 -133t-190 -56z" />
    <glyph glyph-name="uni0328" unicode="&#x328;" horiz-adv-x="0" 
d="M-238 -426q-123 0 -195.5 50.5t-72.5 146.5q0 31 8.5 59t33 61t64.5 63t107 61.5t156 58.5l47 -74q-234 -72 -234 -174q0 -74 121 -74q43 0 113 17v-170q-79 -25 -148 -25z" />
    <glyph glyph-name="uni0394" unicode="&#x394;" horiz-adv-x="1470" 
d="M915 1434l535 -1434h-1432l543 1434h354zM385 227h692l-241 703l-103 289q-1 -2 -100 -291z" />
    <glyph glyph-name="uni03A9" unicode="&#x3a9;" horiz-adv-x="1681" 
d="M117 0v227h98h242q-154 77 -246 217.5t-92 327.5q0 140 51 265.5t142.5 220.5t228 150.5t297.5 55.5t297 -55.5t227.5 -150.5t142.5 -220.5t51 -265.5q0 -189 -88 -328.5t-239 -216.5h241h84v-227h-628v244q164 31 258 159t94 334q0 220 -119 360t-321 140t-321.5 -140
t-119.5 -360q0 -204 93.5 -332t257.5 -161v-244h-631z" />
    <glyph glyph-name="uni03BC" unicode="&#x3bc;" horiz-adv-x="1210" 
d="M152 -399v1419h249v-621q0 -221 177 -221q69 0 117.5 33t71.5 90t32.5 114.5t9.5 125.5v479h250v-1020h-248v168q-17 -32 -40 -61t-61 -63t-94.5 -54.5t-121.5 -20.5q-56 0 -93 15v-383h-249z" />
    <glyph glyph-name="pi" unicode="&#x3c0;" horiz-adv-x="1347" 
d="M246 0v817h-209v203h1216v-203h-209v-520q0 -49 23 -70.5t76 -21.5h119v-205h-177q-142 0 -216 59.5t-74 190.5v567h-299v-817h-250z" />
    <glyph glyph-name="Wgrave" unicode="&#x1e80;" horiz-adv-x="2109" 
d="M975 1573l-248 303h320l112 -303h-184zM422 0l-369 1434h287l147 -670l101 -451q16 65 98 369l205 752h340l207 -785q21 -80 41.5 -157t30 -113.5t16.5 -65.5q14 60 104 455l154 666h280l-383 -1434h-313l-207 782q-60 227 -102 369q-12 -52 -101 -369l-219 -782h-317z
" />
    <glyph glyph-name="wgrave" unicode="&#x1e81;" horiz-adv-x="1738" 
d="M786 1159l-225 305h289l102 -305h-166zM362 0l-329 1020h258l104 -375q26 -97 52.5 -195.5t38 -140t18.5 -65.5q36 135 100 366l117 410h295l123 -428q74 -276 96 -346q8 33 115 422l102 352h256l-334 -1020h-297l-131 463q-26 94 -52.5 186.5t-33.5 120.5
q-12 -50 -86 -305l-131 -465h-281z" />
    <glyph glyph-name="Wacute" unicode="&#x1e82;" horiz-adv-x="2109" 
d="M971 1573l112 303h320l-252 -303h-180zM422 0l-369 1434h287l147 -670l101 -451q16 65 98 369l205 752h340l207 -785q21 -80 41.5 -157t30 -113.5t16.5 -65.5q14 60 104 455l154 666h280l-383 -1434h-313l-207 782q-60 227 -102 369q-12 -52 -101 -369l-219 -782h-317z
" />
    <glyph glyph-name="wacute" unicode="&#x1e83;" horiz-adv-x="1738" 
d="M791 1159l102 305h291l-230 -305h-163zM362 0l-329 1020h258l104 -375q26 -97 52.5 -195.5t38 -140t18.5 -65.5q36 135 100 366l117 410h295l123 -428q74 -276 96 -346q8 33 115 422l102 352h256l-334 -1020h-297l-131 463q-26 94 -52.5 186.5t-33.5 120.5
q-12 -50 -86 -305l-131 -465h-281z" />
    <glyph glyph-name="Wdieresis" unicode="&#x1e84;" horiz-adv-x="2109" 
d="M690 1573v231h268v-231h-268zM1163 1573v231h269v-231h-269zM422 0l-369 1434h287l147 -670l101 -451q16 65 98 369l205 752h340l207 -785q21 -80 41.5 -157t30 -113.5t16.5 -65.5q14 60 104 455l154 666h280l-383 -1434h-313l-207 782q-60 227 -102 369
q-12 -52 -101 -369l-219 -782h-317z" />
    <glyph glyph-name="wdieresis" unicode="&#x1e85;" horiz-adv-x="1738" 
d="M532 1188v231h244v-231h-244zM963 1188v231h243v-231h-243zM362 0l-329 1020h258l104 -375q26 -97 52.5 -195.5t38 -140t18.5 -65.5q36 135 100 366l117 410h295l123 -428q74 -276 96 -346q8 33 115 422l102 352h256l-334 -1020h-297l-131 463q-26 94 -52.5 186.5
t-33.5 120.5q-12 -50 -86 -305l-131 -465h-281z" />
    <glyph glyph-name="uni1E9E" unicode="&#x1e9e;" horiz-adv-x="1486" 
d="M905 -31q-192 0 -305 58v241q115 -59 258 -59q119 0 188.5 54.5t69.5 152.5q0 93 -70 146.5t-196 53.5h-186v236h145q106 0 170.5 45t64.5 137q0 87 -64.5 129.5t-170.5 42.5h-356v-1206h-267v1434h666q227 0 344 -96t117 -261q0 -117 -71.5 -204t-188.5 -123
q65 -12 125 -41t110.5 -73.5t80.5 -109.5t30 -141q0 -182 -133 -299t-361 -117z" />
    <glyph glyph-name="uni1EA0" unicode="&#x1ea0;" horiz-adv-x="1472" 
d="M1450 0h-295l-121 354h-604l-125 -354h-287l543 1434h354zM510 582h444l-118 348l-103 289q-1 -2 -100 -291zM598 -399v256h264v-256h-264z" />
    <glyph glyph-name="uni1EA1" unicode="&#x1ea1;" horiz-adv-x="1148" 
d="M416 -31q-144 0 -235 80t-91 213q0 83 35.5 148.5t93 108t143 73.5t174 47.5t197.5 26.5v34q0 160 -188 160q-193 0 -240 -170l-231 60q20 124 144 212.5t327 88.5q211 0 322.5 -97t111.5 -284v-412q0 -38 11 -49.5t50 -11.5h97v-197h-193q-91 0 -133.5 39.5t-52.5 112.5
q-51 -81 -136.5 -132t-205.5 -51zM498 158q99 0 167 66.5t68 195.5v82q-88 -10 -151.5 -24t-121 -38t-87 -62.5t-29.5 -90.5q0 -60 39.5 -94.5t114.5 -34.5zM416 -399v256h266v-256h-266z" />
    <glyph glyph-name="uni1EB8" unicode="&#x1eb8;" horiz-adv-x="1337" 
d="M186 0v1434h1053v-228h-786v-354h589v-225h-589v-400h786v-227h-1053zM580 -399v256h266v-256h-266z" />
    <glyph glyph-name="uni1EB9" unicode="&#x1eb9;" horiz-adv-x="1140" 
d="M580 -31q-228 0 -363 144t-135 397q0 242 139 391.5t354 149.5q159 0 274 -80t167 -216.5t35 -305.5h-721q7 -146 76 -214.5t176 -68.5q170 0 249 184l226 -84q-55 -132 -172.5 -214.5t-304.5 -82.5zM338 633h465q-6 110 -67.5 170.5t-160.5 60.5q-94 0 -159 -61.5
t-78 -169.5zM465 -399v256h264v-256h-264z" />
    <glyph glyph-name="uni1ECA" unicode="&#x1eca;" horiz-adv-x="636" 
d="M186 0v1434h267v-1434h-267zM186 -399v256h265v-256h-265z" />
    <glyph glyph-name="uni1ECB" unicode="&#x1ecb;" horiz-adv-x="548" 
d="M143 1182v252h260v-252h-260zM152 0v1020h245v-1020h-245zM143 -399v252h260v-252h-260z" />
    <glyph glyph-name="uni1ECC" unicode="&#x1ecc;" horiz-adv-x="1677" 
d="M840 -31q-223 0 -393.5 95.5t-261.5 264.5t-91 386q0 161 53.5 299.5t150 238t236.5 155.5t306 56q221 0 391 -96.5t262 -266.5t92 -386q0 -217 -91 -386t-261 -264.5t-393 -95.5zM840 197q215 0 340 145t125 373q0 231 -125 376.5t-340 145.5q-143 0 -250 -68
t-162 -185.5t-55 -268.5q0 -228 126 -373t341 -145zM709 -399v256h264v-256h-264z" />
    <glyph glyph-name="uni1ECD" unicode="&#x1ecd;" horiz-adv-x="1187" 
d="M594 -31q-222 0 -368 153.5t-146 387.5q0 238 144.5 389.5t369.5 151.5t369.5 -151.5t144.5 -389.5q0 -241 -144.5 -391t-369.5 -150zM594 172q118 0 186 84.5t68 249.5q0 166 -68.5 254t-185.5 88t-186.5 -88t-69.5 -254q0 -165 69 -249.5t187 -84.5zM461 -399v256h264
v-256h-264z" />
    <glyph glyph-name="uni1EE4" unicode="&#x1ee4;" horiz-adv-x="1550" 
d="M776 -31q-283 0 -445.5 154t-162.5 434v877h266v-836q0 -190 86 -292.5t256 -102.5q173 0 256.5 103.5t83.5 291.5v836h266v-877q0 -277 -163 -432.5t-443 -155.5zM647 -399v256h264v-256h-264z" />
    <glyph glyph-name="uni1EE5" unicode="&#x1ee5;" horiz-adv-x="1198" 
d="M463 -31q-155 0 -239.5 100t-84.5 271v680h250v-621q0 -221 176 -221q232 0 232 363v479h250v-1020h-248v168q-120 -199 -336 -199zM459 -399v256h266v-256h-266z" />
    <glyph glyph-name="Ygrave" unicode="&#x1ef2;" horiz-adv-x="1359" 
d="M596 1573l-248 303h320l112 -303h-184zM549 0v592l-520 842h311l203 -342l145 -246l139 248l191 340h305l-508 -840v-594h-266z" />
    <glyph glyph-name="ygrave" unicode="&#x1ef3;" horiz-adv-x="1101" 
d="M623 1159h-168l-226 305h291zM805 1020h262l-416 -1174q-45 -133 -116.5 -189t-202.5 -56h-266v206h241q53 0 82.5 23.5t52.5 85.5l31 92l-475 1012h270l189 -438q33 -78 57.5 -136t38.5 -91t20 -46l91 275z" />
    <glyph glyph-name="uni2002" unicode="&#x2002;" horiz-adv-x="1024" 
 />
    <glyph glyph-name="uni2003" unicode="&#x2003;" horiz-adv-x="2048" 
 />
    <glyph glyph-name="uni2009" unicode="&#x2009;" horiz-adv-x="256" 
 />
    <glyph glyph-name="endash" unicode="&#x2013;" horiz-adv-x="1304" 
d="M135 539v209h1036v-209h-1036z" />
    <glyph glyph-name="emdash" unicode="&#x2014;" horiz-adv-x="1873" 
d="M135 539v209h1604v-209h-1604z" />
    <glyph glyph-name="quoteleft" unicode="&#x2018;" horiz-adv-x="536" 
d="M418 1436l-172 -301h160v-285h-291v285l174 301h129z" />
    <glyph glyph-name="quoteright" unicode="&#x2019;" horiz-adv-x="518" 
d="M123 850l174 299h-162v285h291v-285l-174 -299h-129z" />
    <glyph glyph-name="quotesinglbase" unicode="&#x201a;" horiz-adv-x="555" 
d="M123 -301l172 301h-160v285h289v-285l-172 -301h-129z" />
    <glyph glyph-name="quotedblleft" unicode="&#x201c;" horiz-adv-x="944" 
d="M418 1436l-172 -301h160v-285h-291v285l174 301h129zM825 1436l-172 -301h160v-285h-291v285l174 301h129z" />
    <glyph glyph-name="quotedblright" unicode="&#x201d;" horiz-adv-x="925" 
d="M123 850l174 299h-162v285h291v-285l-174 -299h-129zM530 850l175 299h-162v285h291v-285l-175 -299h-129z" />
    <glyph glyph-name="quotedblbase" unicode="&#x201e;" horiz-adv-x="962" 
d="M123 -301l172 301h-160v285h289v-285l-172 -301h-129zM530 -301l172 301h-159v285h288v-285l-172 -301h-129z" />
    <glyph glyph-name="dagger" unicode="&#x2020;" horiz-adv-x="1220" 
d="M477 -207v1008h-416v227h416v406h266v-406h416v-227h-416v-1008h-266z" />
    <glyph glyph-name="daggerdbl" unicode="&#x2021;" horiz-adv-x="1292" 
d="M514 -207v404h-418v229h418v375h-418v227h418v406h266v-406h416v-227h-416v-375h416v-229h-416v-404h-266z" />
    <glyph glyph-name="bullet" unicode="&#x2022;" horiz-adv-x="1101" 
d="M551 307q-168 0 -290 121t-122 287q0 171 121.5 292t290.5 121t290.5 -121t121.5 -292q0 -166 -122 -287t-290 -121z" />
    <glyph glyph-name="ellipsis" unicode="&#x2026;" horiz-adv-x="1583" 
d="M129 0v299h305v-299h-305zM639 0v299h305v-299h-305zM1149 0v299h305v-299h-305z" />
    <glyph glyph-name="perthousand" unicode="&#x2030;" horiz-adv-x="2279" 
d="M764 1024q0 -197 -92.5 -312.5t-253.5 -115.5t-254.5 115.5t-93.5 312.5q0 194 95 311t253 117t252 -117t94 -311zM1313 1434h229l-1034 -1434h-232zM281 1024q0 -125 36 -192.5t101 -67.5t101 67.5t36 192.5q0 121 -37 189.5t-100 68.5t-100 -68.5t-37 -189.5zM1892 842
q158 0 252 -117t94 -311q0 -197 -93 -312.5t-253 -115.5q-155 0 -245 104q-90 -104 -246 -104q-160 0 -253 115.5t-93 312.5q0 194 94 311t252 117q153 0 246 -107q93 107 245 107zM1401 154q66 0 101.5 67t35.5 193q0 121 -37 189.5t-100 68.5q-62 0 -98.5 -68.5
t-36.5 -189.5q0 -126 35 -193t100 -67zM1892 154q65 0 100.5 67.5t35.5 192.5q0 120 -37 189t-99 69q-63 0 -100 -68.5t-37 -189.5q0 -126 35.5 -193t101.5 -67z" />
    <glyph glyph-name="guilsinglleft" unicode="&#x2039;" horiz-adv-x="694" 
d="M336 520l287 -473h-269l-280 469l282 469h265z" />
    <glyph glyph-name="guilsinglright" unicode="&#x203a;" horiz-adv-x="692" 
d="M340 985l281 -469l-283 -469h-264l284 465l-286 473h268z" />
    <glyph glyph-name="fraction" unicode="&#x2044;" horiz-adv-x="395" 
d="M-438 0l1036 1434h229l-1034 -1434h-231z" />
    <glyph glyph-name="uni2070" unicode="&#x2070;" horiz-adv-x="870" 
d="M436 782q-161 0 -254.5 115.5t-93.5 312.5q0 194 94.5 311t253.5 117q158 0 252 -117t94 -311q0 -197 -93 -312.5t-253 -115.5zM436 950q65 0 100 67t35 193q0 121 -36.5 189.5t-98.5 68.5q-63 0 -100 -68.5t-37 -189.5q0 -126 35.5 -193t101.5 -67z" />
    <glyph glyph-name="uni2074" unicode="&#x2074;" horiz-adv-x="819" 
d="M444 799v196h-381v150l324 475h244v-463h114v-162h-114v-196h-187zM444 1157v68v194l-178 -262h127h51z" />
    <glyph glyph-name="uni2075" unicode="&#x2075;" horiz-adv-x="802" 
d="M399 782q-133 0 -219.5 63t-103.5 171l192 53q11 -57 43.5 -89t83.5 -32t83 33t32 88q0 53 -30.5 84t-78.5 31q-70 0 -106 -70l-193 37l72 469h516v-170h-362l-9 -64q-2 -20 -12 -112q48 61 150 61q114 0 187 -75t73 -195q0 -127 -88 -205t-230 -78z" />
    <glyph glyph-name="uni2076" unicode="&#x2076;" horiz-adv-x="819" 
d="M422 782q-154 0 -245 107t-91 287q0 215 109.5 338.5t302.5 123.5q54 0 108 -13t80 -28v-184q-95 49 -194 49q-82 0 -139 -48t-64 -146q28 41 75 62.5t99 21.5q120 0 196 -76.5t76 -196.5q0 -132 -87.5 -214.5t-225.5 -82.5zM420 948q47 0 78.5 35.5t31.5 89.5
t-31.5 88.5t-78.5 34.5q-50 0 -81.5 -34.5t-31.5 -88.5q0 -55 31.5 -90t81.5 -35z" />
    <glyph glyph-name="uni2077" unicode="&#x2077;" horiz-adv-x="731" 
d="M174 799q-3 195 75.5 366.5t231.5 284.5h-125h-290v170h604v-186q-289 -212 -283 -635h-213z" />
    <glyph glyph-name="uni2078" unicode="&#x2078;" horiz-adv-x="806" 
d="M401 782q-145 0 -229 65t-84 177q0 70 44 121.5t114 77.5q-59 24 -98 72t-39 116q0 98 80.5 162.5t211.5 64.5q133 0 215 -64.5t82 -162.5q0 -68 -38 -116t-97 -72q73 -26 114.5 -76.5t41.5 -122.5q0 -112 -85.5 -177t-232.5 -65zM403 1284q44 0 70.5 28.5t26.5 71.5
q0 40 -26.5 65.5t-70.5 25.5t-70 -25.5t-26 -65.5q0 -44 26 -72t70 -28zM401 948q52 0 81.5 27t29.5 74q0 46 -29.5 73t-81.5 27q-49 0 -77.5 -27t-28.5 -73q0 -48 27.5 -74.5t78.5 -26.5z" />
    <glyph glyph-name="uni2079" unicode="&#x2079;" horiz-adv-x="813" 
d="M326 782q-117 0 -201 37v191q107 -47 197 -47q98 0 155 57q58 54 58 151q-60 -94 -183 -94q-116 0 -191 74t-75 190q0 131 84 214t217 83q132 0 227 -92q111 -105 111 -311q0 -214 -104.5 -333.5t-294.5 -119.5zM395 1233q46 0 75.5 33.5t29.5 85.5q0 53 -29.5 85.5
t-75.5 32.5t-75 -33t-29 -85t29 -85.5t75 -33.5z" />
    <glyph glyph-name="uni20A9" unicode="&#x20a9;" horiz-adv-x="2394" 
d="M2324 809h-286l-37 -133h248v-162h-291l-137 -514h-314l-133 514h-356l-139 -514h-318l-133 514h-283v162h242l-35 133h-282v164h241l-118 461h286l99 -461h331l121 461h340l117 -461h332l104 461h281l-123 -461h243v-164zM1257 973q-11 42 -59 229l-57 -229h116z
M623 762l18 -86h190l7 26l28 107h-254zM1061 676h272l-26 104q-3 13 -9 29h-200q-1 -5 -4 -15.5t-4 -15.5zM1774 768l8 41h-254l33 -133h192q3 16 10.5 46.5t10.5 45.5zM727 260q41 167 64 254h-117q51 -243 53 -254zM1665 260l53 254h-116q11 -49 33.5 -138t29.5 -116z" />
    <glyph glyph-name="Euro" unicode="&#x20ac;" horiz-adv-x="1458" 
d="M815 -31q-221 0 -369 131t-200 363h-168v174h141q-6 77 0 151h-141v173h164q56 236 208 369.5t369 133.5q220 0 365 -113.5t190 -306.5l-252 -83q-24 120 -101 200t-208 80q-111 0 -187.5 -71.5t-111.5 -208.5h227h127v-173h-376q-6 -80 0 -151h376v-174h-125h-227
q69 -268 297 -268q136 0 207 74.5t106 217.5l254 -92q-63 -204 -204 -315t-361 -111z" />
    <glyph glyph-name="uni20B9" unicode="&#x20b9;" horiz-adv-x="1202" 
d="M1122 1241h-141h-225q43 -14 79.5 -45.5t59.5 -75.5h227v-186h-202q-19 -108 -101 -187t-231 -102q138 -13 212 -83.5t105 -209.5l82 -352h-285l-67 330q-28 131 -92 183t-205 52h-229v223h309q86 0 148.5 37.5t86.5 108.5h-544v186h540q-27 61 -87.5 91t-143.5 30h-309
v193h1013v-193z" />
    <glyph glyph-name="uni20BA" unicode="&#x20ba;" horiz-adv-x="1335" 
d="M319 0v219v232l-129 -70l-65 -35v219l194 105v137l-194 -105v220l194 104v414h267v-129v-148q20 11 88 48t110 59l230 121v-217l-428 -228v-139l428 229v-219l-428 -227v-348h39q126 3 239.5 103.5t163.5 285.5l250 -111q-172 -520 -795 -520h-164z" />
    <glyph glyph-name="uni20BD" unicode="&#x20bd;" horiz-adv-x="1331" 
d="M756 563h-246v-125h422v-190h-422v-248h-260v248h-150v190h150v125h-150v209h150v662h506q225 0 360 -122t135 -323q0 -191 -135 -308.5t-360 -117.5zM510 1206v-434h207q125 0 194.5 59t69.5 158q0 100 -69 158.5t-195 58.5h-207z" />
    <glyph glyph-name="uni20BF" unicode="&#x20bf;" horiz-adv-x="1400" 
d="M1319 397q0 -166 -113.5 -268t-298.5 -123v-219h-176v213h-106v-213h-176v213h-259v1434h259v206h176v-206h106v206h176v-213q178 -21 271.5 -112t93.5 -230q0 -128 -76.5 -214.5t-202.5 -120.5q143 -25 234.5 -121t91.5 -232zM1001 1034q0 172 -235 172h-309v-352h309
q110 0 172.5 45.5t62.5 134.5zM776 227q122 0 193 51.5t71 151.5q0 99 -71 150t-193 51h-319v-404h319z" />
    <glyph glyph-name="uni2113" unicode="&#x2113;" horiz-adv-x="1026" 
d="M559 -31q-165 0 -258.5 89t-93.5 255v93q-67 -6 -144 -9v191q55 2 144 14v510q0 156 98 254t260 98q196 0 300 -112.5t104 -294.5q0 -70 -17 -138.5t-56.5 -138t-97.5 -130t-145 -112.5t-194 -85v-136q0 -131 104 -131q53 0 92 46t54 130l235 -106q-30 -129 -131.5 -208
t-253.5 -79zM459 670q243 114 243 385q0 96 -37 148t-100 52q-106 0 -106 -147v-158v-280z" />
    <glyph glyph-name="uni2116" unicode="&#x2116;" horiz-adv-x="2543" 
d="M2066 592q-186 0 -300.5 123t-114.5 309q0 191 114 310.5t301 119.5q186 0 300 -120t114 -310q0 -186 -114.5 -309t-299.5 -123zM199 0v1434h366l695 -983v348v635h266v-1434h-250l-811 1145v-410v-735h-266zM2066 752q85 0 136 72t51 200q0 131 -50.5 200.5t-136.5 69.5
q-88 0 -138 -69t-50 -201q0 -129 50.5 -200.5t137.5 -71.5z" />
    <glyph glyph-name="uni2117" unicode="&#x2117;" horiz-adv-x="1792" 
d="M895 -70q-166 0 -316 63t-257.5 170.5t-170.5 255.5t-63 312t63 312t170.5 255.5t257.5 170.5t316 63t316 -63t258 -170.5t171.5 -255.5t63.5 -312t-63.5 -312t-171.5 -255.5t-258 -170.5t-316 -63zM897 102q176 0 320.5 85t225.5 229t81 315q0 172 -81 316.5
t-225.5 229.5t-320.5 85t-321 -85t-226.5 -229.5t-81.5 -316.5q0 -171 81.5 -315.5t226.5 -229t321 -84.5zM635 322v839h373q118 0 200 -68t82 -184q0 -114 -80.5 -185t-203.5 -71h-199v-331h-172zM807 784h151q74 0 114 31t40 92q0 119 -156 119h-149v-242z" />
    <glyph glyph-name="trademark" unicode="&#x2122;" horiz-adv-x="1947" 
d="M315 657v623h-247v154h677v-154h-249v-623h-181zM838 657v777h295l84 -258q51 -166 102 -324l98 322l82 260h289v-777h-178v269v360l-199 -629h-190l-205 627v-358v-269h-178z" />
    <glyph glyph-name="uni2126" unicode="&#x2126;" horiz-adv-x="1667" 
d="M111 0v227h96h242q-153 78 -245.5 218t-92.5 327q0 140 51.5 265.5t143 220.5t228 150.5t297.5 55.5q160 0 296.5 -55.5t228 -150.5t143 -220.5t51.5 -265.5q0 -189 -88 -328.5t-239 -216.5h239h88v-227h-632v244q164 31 259 159t95 334q0 219 -120.5 359.5t-322.5 140.5
t-321 -140t-119 -360q0 -204 93.5 -332t256.5 -161v-244h-628z" />
    <glyph glyph-name="uni2153" unicode="&#x2153;" horiz-adv-x="1769" 
d="M274 612v351v221q-79 -110 -206 -103v187q174 9 237 166h168v-822h-199zM190 0l1037 1434h229l-1034 -1434h-232zM1384 -18q-140 0 -228 72.5t-95 193.5l201 39q13 -137 120 -137q47 0 76 24.5t29 67.5q0 92 -121 92h-55v162h55q52 0 79.5 24t27.5 64q0 38 -24.5 63
t-64.5 25q-46 0 -72 -34.5t-26 -94.5l-203 30q4 118 88 191.5t213 73.5t210 -63t81 -163q0 -62 -35 -111t-104 -75q156 -53 156 -201q0 -107 -86 -175t-222 -68z" />
    <glyph glyph-name="uni2154" unicode="&#x2154;" horiz-adv-x="1949" 
d="M92 612v185q217 126 305 206t88 168q0 51 -26 81t-70 30q-53 0 -81 -44t-25 -120l-199 23q-3 138 83 224.5t226 86.5q137 0 219 -72t82 -190q0 -111 -82 -217q-79 -94 -274 -191h268h94v-170h-608zM375 0l1036 1434h227l-1034 -1434h-229zM1569 -18q-141 0 -229 72
t-97 194l201 39q13 -137 123 -137q47 0 75.5 24.5t28.5 67.5q0 92 -121 92h-57v162h57q51 0 79 24.5t28 63.5q0 38 -25 63t-63 25q-46 0 -72.5 -34.5t-26.5 -94.5l-202 30q4 118 88 191.5t213 73.5t210 -63t81 -163q0 -62 -36.5 -111t-105.5 -75q158 -54 158 -201
q0 -107 -85.5 -175t-221.5 -68z" />
    <glyph glyph-name="uni2155" unicode="&#x2155;" horiz-adv-x="1783" 
d="M274 612v351v221q-79 -110 -206 -103v187q174 9 237 166h168v-822h-199zM190 0l1037 1434h229l-1034 -1434h-232zM1380 -18q-133 0 -219.5 63t-103.5 172l192 51q11 -56 43.5 -87t83.5 -31t83 32t32 86t-30.5 85.5t-80.5 31.5q-67 0 -104 -70l-193 35l72 471h516v-170
h-362l-9 -63q-2 -20 -12 -113q52 62 150 62q113 0 186.5 -75t73.5 -196q0 -128 -88 -206t-230 -78z" />
    <glyph glyph-name="uni2156" unicode="&#x2156;" horiz-adv-x="1957" 
d="M92 612v185q216 126 303.5 206t87.5 168q0 51 -26 81t-70 30q-52 0 -79.5 -44t-24.5 -120l-201 23q-2 138 84 224.5t227 86.5q136 0 218.5 -72.5t82.5 -189.5q0 -108 -84 -217q-79 -94 -274 -191h268h94v-170h-606zM373 0l1036 1434h229l-1034 -1434h-231zM1563 -18
q-133 0 -220 63t-104 172l193 51q11 -56 43.5 -87t83.5 -31t82.5 32t31.5 86q0 53 -30 85t-78 32q-70 0 -107 -70l-192 35l71 471h516v-170h-360l-10 -63q-1 -12 -3 -27.5t-5 -40.5t-5 -45q52 62 150 62q113 0 186.5 -75t73.5 -196q0 -128 -87.5 -206t-229.5 -78z" />
    <glyph glyph-name="uni2157" unicode="&#x2157;" horiz-adv-x="1959" 
d="M393 596q-141 0 -228.5 72t-96.5 194l200 39q13 -139 123 -139q46 0 74.5 25t28.5 69q0 43 -29.5 67.5t-89.5 24.5h-58v160h58q51 0 78.5 24.5t27.5 65.5q0 38 -25 62t-63 24q-46 0 -72 -34t-26 -93l-203 31q5 117 88.5 190.5t212.5 73.5t209 -62.5t80 -162.5
q0 -63 -35 -112.5t-104 -76.5q157 -53 157 -200q0 -107 -85.5 -174.5t-221.5 -67.5zM369 0l1036 1434h227l-1034 -1434h-229zM1559 -18q-133 0 -220 63t-104 172l190 51q11 -56 44.5 -87t82.5 -31q52 0 84.5 32.5t32.5 85.5t-31 85t-79 32q-70 0 -107 -70l-190 35l71 471
h516v-170h-362l-8 -63q-9 -63 -15 -113q55 62 152 62q113 0 186.5 -75t73.5 -196q0 -128 -88 -206t-229 -78z" />
    <glyph glyph-name="uni2158" unicode="&#x2158;" horiz-adv-x="1984" 
d="M442 612v197h-381v149l324 476h244v-463h114v-162h-114v-197h-187zM385 0l1036 1434h228l-1035 -1434h-229zM442 971v67v195l-178 -262h127h51zM1575 -18q-133 0 -220 63t-104 172l191 51q11 -56 44.5 -87t82.5 -31q52 0 84.5 32.5t32.5 85.5t-31.5 85t-79.5 32
q-70 0 -107 -70l-190 35l72 471h516v-170h-363l-8 -63q-5 -35 -14 -113q55 62 151 62q113 0 186.5 -75t73.5 -196q0 -128 -88 -206t-229 -78z" />
    <glyph glyph-name="uni2159" unicode="&#x2159;" horiz-adv-x="1792" 
d="M274 612v351v221q-79 -110 -206 -103v187q174 9 237 166h168v-822h-199zM190 0l1037 1434h229l-1034 -1434h-232zM1417 -18q-155 0 -245.5 107t-90.5 288q0 213 109.5 337t300.5 124q55 0 110 -12t80 -27v-185q-101 48 -194 48q-83 0 -139.5 -48t-63.5 -145
q27 41 73.5 62.5t98.5 21.5q120 0 196.5 -76t76.5 -196q0 -132 -87 -215.5t-225 -83.5zM1413 150q49 0 80 34t31 88q0 56 -31 90.5t-80 34.5t-79.5 -34.5t-30.5 -90.5q0 -55 30 -88.5t80 -33.5z" />
    <glyph glyph-name="uni215A" unicode="&#x215a;" horiz-adv-x="1986" 
d="M391 596q-133 0 -219.5 62.5t-103.5 170.5l190 54q11 -57 44.5 -89t82.5 -32q52 0 84.5 33t32.5 88q0 53 -31 83.5t-80 30.5q-71 0 -106 -69l-191 37l72 469h516v-170h-363l-8 -64q-4 -26 -14 -113q52 62 152 62q114 0 187 -75t73 -195q0 -127 -89 -205t-229 -78zM373 0
l1036 1434h229l-1036 -1434h-229zM1597 -18q-153 0 -244 107.5t-91 287.5q0 213 109.5 337t301.5 124q55 0 109.5 -12t79.5 -27v-185q-99 48 -195 48q-82 0 -139 -48t-64 -145q28 41 75 62.5t99 21.5q120 0 196.5 -76t76.5 -196q0 -132 -88 -215.5t-226 -83.5zM1595 150
q48 0 79.5 34t31.5 88q0 55 -31.5 90t-79.5 35q-49 0 -79.5 -34.5t-30.5 -90.5q0 -55 30 -88.5t80 -33.5z" />
    <glyph glyph-name="oneeighth" unicode="&#x215b;" horiz-adv-x="1785" 
d="M274 612v351v221q-79 -110 -206 -103v187q174 9 237 166h168v-822h-199zM190 0l1037 1434h229l-1034 -1434h-232zM1391 -18q-145 0 -229.5 64.5t-84.5 178.5q0 69 44 121t114 78q-60 24 -98.5 71.5t-38.5 114.5q0 100 80.5 164t212.5 64q133 0 215 -64t82 -164
q0 -67 -39 -115.5t-97 -70.5q72 -25 114 -77t42 -122q0 -114 -85 -178.5t-232 -64.5zM1393 485q43 0 69.5 28.5t26.5 70.5q0 40 -26 65t-70 25t-70.5 -24.5t-26.5 -65.5q0 -42 27 -70.5t70 -28.5zM1391 150q52 0 81 26t29 72q0 48 -29 75t-81 27q-50 0 -78.5 -27.5
t-28.5 -74.5q0 -46 28 -72t79 -26z" />
    <glyph glyph-name="threeeighths" unicode="&#x215c;" horiz-adv-x="1959" 
d="M393 596q-141 0 -228.5 72t-96.5 194l200 39q13 -139 123 -139q46 0 74.5 25t28.5 69q0 43 -29.5 67.5t-89.5 24.5h-58v160h58q51 0 78.5 24.5t27.5 65.5q0 38 -25 62t-63 24q-46 0 -72 -34t-26 -93l-203 31q5 117 88.5 190.5t212.5 73.5t209 -62.5t80 -162.5
q0 -63 -35 -112.5t-104 -76.5q157 -53 157 -200q0 -107 -85.5 -174.5t-221.5 -67.5zM369 0l1036 1434h227l-1034 -1434h-229zM1569 -18q-146 0 -231 65t-85 178q0 68 44.5 120.5t113.5 78.5q-58 24 -96.5 71.5t-38.5 114.5q0 100 80.5 164t212.5 64t214.5 -64.5t82.5 -163.5
q0 -67 -38.5 -115.5t-96.5 -70.5q72 -25 112.5 -76.5t40.5 -122.5q0 -114 -84 -178.5t-231 -64.5zM1571 485q43 0 69.5 28.5t26.5 70.5q0 40 -26 65t-70 25t-70 -24.5t-26 -65.5q0 -42 26.5 -70.5t69.5 -28.5zM1569 150q52 0 80 26t28 72q0 48 -28 75t-80 27
q-51 0 -80 -27.5t-29 -74.5q0 -46 29 -72t80 -26z" />
    <glyph glyph-name="fiveeighths" unicode="&#x215d;" horiz-adv-x="1968" 
d="M391 596q-133 0 -219.5 62.5t-103.5 170.5l190 54q11 -57 44.5 -89t82.5 -32q52 0 84.5 33t32.5 88q0 53 -31 83.5t-80 30.5q-71 0 -106 -69l-191 37l72 469h516v-170h-363l-8 -64q-4 -26 -14 -113q52 62 152 62q114 0 187 -75t73 -195q0 -127 -89 -205t-229 -78zM373 0
l1036 1434h229l-1036 -1434h-229zM1573 -18q-145 0 -229 64.5t-84 178.5q0 69 43.5 121t111.5 78q-58 24 -96.5 71.5t-38.5 114.5q0 100 80.5 164t212.5 64q133 0 215 -64t82 -164q0 -67 -38.5 -115.5t-96.5 -70.5q72 -25 113.5 -76.5t41.5 -122.5q0 -114 -85 -178.5
t-232 -64.5zM1575 485q43 0 69.5 28.5t26.5 70.5q0 40 -26 65t-70 25t-70 -24.5t-26 -65.5q0 -42 26.5 -70.5t69.5 -28.5zM1573 150q52 0 81 26t29 72q0 48 -29 75t-81 27q-51 0 -80 -27.5t-29 -74.5q0 -46 29 -72t80 -26z" />
    <glyph glyph-name="seveneighths" unicode="&#x215e;" horiz-adv-x="1773" 
d="M180 612q-5 195 73.5 367t231.5 285h-125h-290v170h604v-187q-289 -212 -283 -635h-211zM182 0l1037 1434h229l-1034 -1434h-232zM1382 -18q-145 0 -229 64.5t-84 178.5q0 69 43.5 121t112.5 78q-58 24 -96.5 71.5t-38.5 114.5q0 100 80 164t212 64q133 0 215 -64
t82 -164q0 -67 -38.5 -115.5t-96.5 -70.5q72 -25 114 -77t42 -122q0 -113 -85.5 -178t-232.5 -65zM1384 485q43 0 70 28.5t27 70.5q0 40 -26.5 65t-70.5 25t-70 -24.5t-26 -65.5q0 -42 26.5 -70.5t69.5 -28.5zM1382 150q52 0 81.5 26t29.5 72q0 47 -29.5 74.5t-81.5 27.5
q-51 0 -79.5 -27.5t-28.5 -74.5q0 -46 28.5 -72t79.5 -26z" />
    <glyph glyph-name="uni215F" unicode="&#x215f;" horiz-adv-x="827" 
d="M260 612v351v221q-40 -56 -95.5 -81t-111.5 -22v187q172 9 238 166h168v-822h-199zM176 0l1036 1434h230l-1036 -1434h-230z" />
    <glyph glyph-name="arrowleft" unicode="&#x2190;" horiz-adv-x="1722" 
d="M1630 586h-1085q109 -104 192 -191l158 -153l-184 -183l-658 656l658 657l184 -182l-156 -152l-194 -194h1085v-258z" />
    <glyph glyph-name="arrowup" unicode="&#x2191;" horiz-adv-x="1409" 
d="M575 0v1085q-42 -44 -190 -192l-156 -158l-182 185l658 657l657 -657l-182 -185l-154 156q-31 33 -95.5 97t-96.5 97v-1085h-259z" />
    <glyph glyph-name="arrowright" unicode="&#x2192;" horiz-adv-x="1722" 
d="M92 844h1086q-66 63 -193 190l-158 156l185 182l657 -657l-657 -656l-185 183l156 151q151 151 195 193h-1086v258z" />
    <glyph glyph-name="arrowdown" unicode="&#x2193;" horiz-adv-x="1409" 
d="M834 1434v-1086q125 131 190 193l156 157l182 -184l-657 -657l-658 657l182 184l154 -155q63 -66 192 -195v1086h259z" />
    <glyph glyph-name="uni2196" unicode="&#x2196;" horiz-adv-x="1400" 
d="M1343 424l-180 -180l-751 753v-292v-201h-260v930h929v-258h-196h-297z" />
    <glyph glyph-name="uni2197" unicode="&#x2197;" horiz-adv-x="1400" 
d="M240 244l-181 180l754 752h-293h-201v258h930v-930h-258v198v295z" />
    <glyph glyph-name="uni2198" unicode="&#x2198;" horiz-adv-x="1394" 
d="M55 1010l178 180l754 -754v293v201h258v-930h-930v258h199h295z" />
    <glyph glyph-name="uni2199" unicode="&#x2199;" horiz-adv-x="1396" 
d="M1161 1190l180 -180l-753 -752h293h200v-258h-929v930h256v-199v-295z" />
    <glyph glyph-name="uni21A4" unicode="&#x21a4;" horiz-adv-x="1847" 
d="M1370 1286h262v-1139h-262v441h-825q35 -35 106 -104t107 -105l137 -137l-182 -183l-660 658l660 657l182 -182l-137 -137q-144 -140 -213 -209h825v440z" />
    <glyph glyph-name="uni21A5" unicode="&#x21a5;" horiz-adv-x="1435" 
d="M844 1087v-825h440v-262h-1141v262h443v825q-41 -40 -114 -114.5t-97 -98.5l-135 -137l-183 183l658 659l655 -659l-182 -183l-135 137q-140 144 -209 213z" />
    <glyph glyph-name="uni21A6" unicode="&#x21a6;" horiz-adv-x="1843" 
d="M1135 1374l659 -657l-659 -658l-183 183l138 137q144 140 213 209h-826v-441h-262v1139h262v-440h826q-35 35 -106 104t-107 105l-138 137z" />
    <glyph glyph-name="uni21A7" unicode="&#x21a7;" horiz-adv-x="1435" 
d="M1196 696l182 -182l-655 -659l-657 659l182 182l135 -137q140 -143 211 -213v825h-442v263h1140v-263h-440v-825q35 35 104 106t105 107z" />
    <glyph glyph-name="uni21B0" unicode="&#x21b0;" horiz-adv-x="1767" 
d="M545 846h1085v-846h-266v588h-819q41 -38 194 -191l156 -155l-182 -183l-660 658l660 657l182 -182l-156 -154q-126 -126 -194 -192z" />
    <glyph glyph-name="uni21B1" unicode="&#x21b1;" horiz-adv-x="1765" 
d="M1055 1374l659 -657l-659 -658l-183 183l156 153l193 193h-818v-588h-268v846h1086q-66 63 -193 190l-156 156z" />
    <glyph glyph-name="uni21B2" unicode="&#x21b2;" horiz-adv-x="1765" 
d="M1362 1434h266v-846h-1085q109 -104 192 -191l158 -155l-182 -183l-660 658l660 657l182 -182l-156 -154l-194 -192h819v588z" />
    <glyph glyph-name="uni21B3" unicode="&#x21b3;" horiz-adv-x="1767" 
d="M1055 1374l659 -657l-659 -658l-183 183l156 153l193 193h-1086v846h268v-588h818q-66 63 -193 190l-156 156z" />
    <glyph glyph-name="partialdiff" unicode="&#x2202;" horiz-adv-x="1267" 
d="M602 -31q-236 0 -378 141.5t-142 364.5q0 206 132 334.5t333 128.5q131 0 231 -63t140 -166q-1 128 -37 227.5t-100 162t-149 94.5t-188 32q-135 0 -274 -56v248q122 47 303 47q326 0 511 -217t185 -583q0 -204 -66.5 -360t-196 -245.5t-304.5 -89.5zM610 190
q112 0 186 74.5t74 194.5q0 123 -76 198.5t-188 75.5q-108 0 -184 -73.5t-76 -194.5q0 -125 76.5 -200t187.5 -75z" />
    <glyph glyph-name="uni2206" unicode="&#x2206;" horiz-adv-x="1533" 
d="M946 1434l537 -1434h-1434l545 1434h352zM416 227h692l-242 703q-85 242 -100 289q-8 -23 -39.5 -113t-62.5 -178z" />
    <glyph glyph-name="product" unicode="&#x220f;" horiz-adv-x="1587" 
d="M1513 1434v-228h-196v-1413h-266v1413h-514v-1413h-267v1413h-198v228h1441z" />
    <glyph glyph-name="summation" unicode="&#x2211;" horiz-adv-x="1261" 
d="M86 -207v234l524 583l-526 586v238h1083v-228h-374h-373l528 -592l-532 -594h377h395v-227h-1102z" />
    <glyph glyph-name="minus" unicode="&#x2212;" horiz-adv-x="1363" 
d="M137 612v222h1090v-222h-1090z" />
    <glyph glyph-name="uni2215" unicode="&#x2215;" horiz-adv-x="747" 
d="M-23 -209l551 1858h242l-551 -1858h-242z" />
    <glyph glyph-name="radical" unicode="&#x221a;" horiz-adv-x="1351" 
d="M489 -207l-290 807h-170v229h352l158 -489l106 -330q23 79 105 332l350 1092h270l-571 -1641h-310z" />
    <glyph glyph-name="infinity" unicode="&#x221e;" horiz-adv-x="1757" 
d="M498 330q-168 0 -284 115t-116 278t116 278t284 115q235 0 383 -207q146 207 381 207q169 0 284 -114.5t115 -278.5t-115 -278.5t-284 -114.5q-235 0 -383 205q-74 -101 -173 -153t-208 -52zM514 526q64 0 117 41.5t133 159.5q-69 106 -126.5 149.5t-123.5 43.5
q-80 0 -135 -56.5t-55 -140.5t55 -140.5t135 -56.5zM1243 526q80 0 135.5 56.5t55.5 140.5t-55.5 140.5t-135.5 56.5q-65 0 -121 -43t-129 -150q80 -118 133 -159.5t117 -41.5z" />
    <glyph glyph-name="integral" unicode="&#x222b;" horiz-adv-x="774" 
d="M41 -397v223h117q47 0 74.5 31.5t27.5 87.5v1185q0 62 17 114.5t52.5 96t96 68.5t141.5 25h166v-226h-117q-47 0 -74.5 -31t-27.5 -87v-1184q0 -62 -17 -114.5t-52.5 -96t-96 -68t-141.5 -24.5h-166z" />
    <glyph glyph-name="approxequal" unicode="&#x2248;" horiz-adv-x="1333" 
d="M877 748q-102 0 -220 59l-77 41q-82 39 -136 39q-98 0 -182 -109l-147 146q61 94 151.5 144t188.5 50q97 0 217 -57l73 -39q87 -43 144 -43q95 0 182 113l146 -150q-60 -94 -151.5 -144t-188.5 -50zM877 297q-102 0 -220 59l-77 41q-82 39 -136 39q-99 0 -182 -108
l-147 145q62 94 152 144.5t188 50.5q95 0 217 -58l73 -39q87 -43 144 -43q95 0 182 113l146 -149q-60 -94 -151.5 -144.5t-188.5 -50.5z" />
    <glyph glyph-name="notequal" unicode="&#x2260;" horiz-adv-x="1368" 
d="M238 178l114 193h-215v219h344l72 119q15 23 80 135h-242h-254v219h627l121 205h233l-121 -205h236v-219h-367l-69 -119l-80 -135h233h283v-219h-647l-115 -193h-233z" />
    <glyph glyph-name="lessequal" unicode="&#x2264;" horiz-adv-x="1392" 
d="M1237 457l-1096 235v357l1096 239v-223l-479 -100q-425 -81 -463 -88q41 -7 119 -21.5t162 -30t182 -32.5l479 -99v-237zM141 178v221h1096v-221h-1096z" />
    <glyph glyph-name="greaterequal" unicode="&#x2265;" horiz-adv-x="1390" 
d="M156 457v223l479 100l463 88q-429 78 -463 84l-479 99v235l1095 -235v-355zM156 178v221h1095v-221h-1095z" />
    <glyph glyph-name="angleleft" unicode="&#x2329;" horiz-adv-x="735" 
d="M698 1456l-417 -831l417 -848l-206 -109l-463 948l465 951z" />
    <glyph glyph-name="angleright" unicode="&#x232a;" horiz-adv-x="735" 
d="M244 1567l463 -949l-465 -948l-205 111l418 831l-420 846z" />
    <glyph glyph-name="uni2460" unicode="&#x2460;" horiz-adv-x="1765" 
d="M881 -61q-164 0 -312.5 62.5t-255 168t-169 252.5t-62.5 309q0 218 106 400.5t290 288.5t403 106q165 0 314 -62.5t256 -169t169.5 -253.5t62.5 -310q0 -162 -62.5 -309t-169.5 -252.5t-256 -168t-314 -62.5zM883 111q175 0 317.5 83t222.5 225t80 312q0 128 -47 243.5
t-129 199t-197.5 133t-246.5 49.5t-247 -49.5t-197.5 -133t-129 -199t-47.5 -243.5q0 -127 47.5 -241.5t129 -197.5t197.5 -132t247 -49zM825 322v350v223q-40 -58 -95.5 -82.5t-113.5 -21.5v186q175 9 238 166h170v-821h-199z" />
    <glyph glyph-name="uni2461" unicode="&#x2461;" horiz-adv-x="1765" 
d="M881 -61q-164 0 -312.5 62.5t-255 168t-169 252.5t-62.5 309q0 218 106 400.5t290 288.5t403 106q165 0 314 -62.5t256 -169t169.5 -253.5t62.5 -310q0 -162 -62.5 -309t-169.5 -252.5t-256 -168t-314 -62.5zM883 111q175 0 317.5 83t222.5 225t80 312q0 128 -47 243.5
t-129 199t-197.5 133t-246.5 49.5t-247 -49.5t-197.5 -133t-129 -199t-47.5 -243.5q0 -127 47.5 -241.5t129 -197.5t197.5 -132t247 -49zM582 322v184q216 126 304.5 206.5t88.5 168.5q0 51 -26 80.5t-70 29.5q-53 0 -81.5 -44t-25.5 -120l-199 23q-2 138 84.5 224.5
t227.5 86.5q136 0 218.5 -72.5t82.5 -189.5q0 -108 -84 -217q-77 -92 -275 -190h269h94v-170h-608z" />
    <glyph glyph-name="uni2462" unicode="&#x2462;" horiz-adv-x="1765" 
d="M881 -61q-164 0 -312.5 62.5t-255 168t-169 252.5t-62.5 309q0 218 106 400.5t290 288.5t403 106q165 0 314 -62.5t256 -169t169.5 -253.5t62.5 -310q0 -162 -62.5 -309t-169.5 -252.5t-256 -168t-314 -62.5zM883 111q175 0 317.5 83t222.5 225t80 312q0 128 -47 243.5
t-129 199t-197.5 133t-246.5 49.5t-247 -49.5t-197.5 -133t-129 -199t-47.5 -243.5q0 -127 47.5 -241.5t129 -197.5t197.5 -132t247 -49zM879 305q-139 0 -227 72t-97 194l201 39q13 -139 121 -139q48 0 76 25t28 69q0 43 -30.5 67.5t-90.5 24.5h-55v162h55q53 0 80 23.5
t27 64.5q0 38 -24 62t-64 24q-45 0 -72 -34t-27 -93l-200 31q4 117 87.5 190.5t211.5 73.5q129 0 209.5 -62.5t80.5 -162.5q0 -133 -139 -188q156 -53 156 -201q0 -107 -85.5 -174.5t-221.5 -67.5z" />
    <glyph glyph-name="uni2463" unicode="&#x2463;" horiz-adv-x="1765" 
d="M881 -61q-164 0 -312.5 62.5t-255 168t-169 252.5t-62.5 309q0 218 106 400.5t290 288.5t403 106q165 0 314 -62.5t256 -169t169.5 -253.5t62.5 -310q0 -162 -62.5 -309t-169.5 -252.5t-256 -168t-314 -62.5zM883 111q175 0 317.5 83t222.5 225t80 312q0 128 -47 243.5
t-129 199t-197.5 133t-246.5 49.5t-247 -49.5t-197.5 -133t-129 -199t-47.5 -243.5q0 -127 47.5 -241.5t129 -197.5t197.5 -132t247 -49zM891 322v196h-381v150l321 475h246v-463h113v-162h-113v-196h-186zM891 680v68v194l-180 -262h127h53z" />
    <glyph glyph-name="uni2464" unicode="&#x2464;" horiz-adv-x="1765" 
d="M881 -61q-164 0 -312.5 62.5t-255 168t-169 252.5t-62.5 309q0 218 106 400.5t290 288.5t403 106q165 0 314 -62.5t256 -169t169.5 -253.5t62.5 -310q0 -162 -62.5 -309t-169.5 -252.5t-256 -168t-314 -62.5zM883 111q175 0 317.5 83t222.5 225t80 312q0 128 -47 243.5
t-129 199t-197.5 133t-246.5 49.5t-247 -49.5t-197.5 -133t-129 -199t-47.5 -243.5q0 -127 47.5 -241.5t129 -197.5t197.5 -132t247 -49zM866 305q-133 0 -219.5 63t-103.5 171l190 53q11 -57 44.5 -89t82.5 -32q52 0 84.5 33t32.5 88q0 53 -31.5 84t-79.5 31
q-70 0 -106 -70l-191 37l72 469h516v-170h-362l-9 -64q-5 -28 -14 -112q52 61 152 61q114 0 187 -75t73 -195q0 -127 -89 -205t-229 -78z" />
    <glyph glyph-name="uni2465" unicode="&#x2465;" horiz-adv-x="1765" 
d="M881 -61q-164 0 -312.5 62.5t-255 168t-169 252.5t-62.5 309q0 218 106 400.5t290 288.5t403 106q165 0 314 -62.5t256 -169t169.5 -253.5t62.5 -310q0 -162 -62.5 -309t-169.5 -252.5t-256 -168t-314 -62.5zM883 111q175 0 317.5 83t222.5 225t80 312q0 128 -47 243.5
t-129 199t-197.5 133t-246.5 49.5t-247 -49.5t-197.5 -133t-129 -199t-47.5 -243.5q0 -127 47.5 -241.5t129 -197.5t197.5 -132t247 -49zM860 305q-154 0 -245 107t-91 288q0 213 109.5 337t300.5 124q56 0 110 -13t80 -28v-184q-95 49 -194 49q-83 0 -139.5 -48t-63.5 -146
q27 41 73.5 62t98.5 21q120 0 196 -76t76 -196q0 -132 -86.5 -214.5t-224.5 -82.5zM856 471q49 0 80 35.5t31 89.5q0 55 -30.5 89t-80.5 34t-80.5 -34t-30.5 -89q0 -56 31 -90.5t80 -34.5z" />
    <glyph glyph-name="uni2466" unicode="&#x2466;" horiz-adv-x="1765" 
d="M881 -61q-164 0 -312.5 62.5t-255 168t-169 252.5t-62.5 309q0 218 106 400.5t290 288.5t403 106q165 0 314 -62.5t256 -169t169.5 -253.5t62.5 -310q0 -162 -62.5 -309t-169.5 -252.5t-256 -168t-314 -62.5zM883 111q175 0 317.5 83t222.5 225t80 312q0 128 -47 243.5
t-129 199t-197.5 133t-246.5 49.5t-247 -49.5t-197.5 -133t-129 -199t-47.5 -243.5q0 -127 47.5 -241.5t129 -197.5t197.5 -132t247 -49zM707 322q-5 195 73 366.5t232 284.5h-125h-291v170h606v-187q-287 -210 -284 -634h-211z" />
    <glyph glyph-name="uni2467" unicode="&#x2467;" horiz-adv-x="1765" 
d="M881 -61q-164 0 -312.5 62.5t-255 168t-169 252.5t-62.5 309q0 218 106 400.5t290 288.5t403 106q165 0 314 -62.5t256 -169t169.5 -253.5t62.5 -310q0 -162 -62.5 -309t-169.5 -252.5t-256 -168t-314 -62.5zM883 111q175 0 317.5 83t222.5 225t80 312q0 128 -47 243.5
t-129 199t-197.5 133t-246.5 49.5t-247 -49.5t-197.5 -133t-129 -199t-47.5 -243.5q0 -127 47.5 -241.5t129 -197.5t197.5 -132t247 -49zM881 305q-146 0 -231 65t-85 177q0 70 43.5 121t114.5 77q-59 24 -97 72.5t-38 116.5q0 99 80 163t213 64q132 0 214.5 -64.5
t82.5 -162.5q0 -68 -38.5 -116.5t-97.5 -72.5q72 -26 113 -76.5t41 -121.5q0 -112 -85 -177t-230 -65zM881 807q44 0 70 28t26 72q0 40 -26 65t-70 25q-43 0 -70 -25t-27 -65q0 -43 27.5 -71.5t69.5 -28.5zM881 471q52 0 80 26t28 74q0 46 -28.5 73.5t-79.5 27.5t-80 -27.5
t-29 -73.5q0 -47 29 -73.5t80 -26.5z" />
    <glyph glyph-name="uni2468" unicode="&#x2468;" horiz-adv-x="1765" 
d="M881 -61q-164 0 -312.5 62.5t-255 168t-169 252.5t-62.5 309q0 218 106 400.5t290 288.5t403 106q165 0 314 -62.5t256 -169t169.5 -253.5t62.5 -310q0 -162 -62.5 -309t-169.5 -252.5t-256 -168t-314 -62.5zM883 111q175 0 317.5 83t222.5 225t80 312q0 128 -47 243.5
t-129 199t-197.5 133t-246.5 49.5t-247 -49.5t-197.5 -133t-129 -199t-47.5 -243.5q0 -127 47.5 -241.5t129 -197.5t197.5 -132t247 -49zM819 305q-117 0 -198 37v190q59 -27 100.5 -37t93.5 -10q98 0 156 58q57 54 57 151q-62 -94 -182 -94q-116 0 -191 74t-75 190
q0 131 84 214t219 83q132 0 227 -92q109 -106 109 -311q0 -214 -105 -333.5t-295 -119.5zM889 758q46 0 75 32.5t29 86.5q0 52 -29 84t-75 32t-75.5 -32.5t-29.5 -83.5q0 -53 29.5 -86t75.5 -33z" />
    <glyph glyph-name="uni24EA" unicode="&#x24ea;" horiz-adv-x="1765" 
d="M881 -61q-164 0 -312.5 62.5t-255 168t-169 252.5t-62.5 309q0 218 106 400.5t290 288.5t403 106q165 0 314 -62.5t256 -169t169.5 -253.5t62.5 -310q0 -162 -62.5 -309t-169.5 -252.5t-256 -168t-314 -62.5zM883 111q175 0 317.5 83t222.5 225t80 312q0 128 -47 243.5
t-129 199t-197.5 133t-246.5 49.5t-247 -49.5t-197.5 -133t-129 -199t-47.5 -243.5q0 -127 47.5 -241.5t129 -197.5t197.5 -132t247 -49zM883 305q-161 0 -254.5 115.5t-93.5 312.5q0 194 94.5 311t253.5 117q158 0 252 -117t94 -311q0 -197 -93 -312.5t-253 -115.5z
M883 473q65 0 100 67t35 193q0 121 -36.5 189.5t-98.5 68.5q-63 0 -100.5 -68.5t-37.5 -189.5q0 -124 36 -192t102 -68z" />
    <glyph glyph-name="uni24FF" unicode="&#x24ff;" horiz-adv-x="1765" 
d="M881 -61q165 0 314 62.5t256 168t169.5 252.5t62.5 309q0 163 -62.5 310t-169.5 253.5t-256 169t-314 62.5q-219 0 -403 -106t-290 -288.5t-106 -400.5q0 -162 62.5 -309t169 -252.5t255 -168t312.5 -62.5zM883 305q-161 0 -254.5 115.5t-93.5 312.5q0 194 94.5 311
t253.5 117q158 0 252 -117t94 -311q0 -197 -93 -312.5t-253 -115.5zM883 473q65 0 100 67t35 193q0 121 -36.5 189.5t-98.5 68.5q-63 0 -100.5 -68.5t-37.5 -189.5q0 -124 36 -192t102 -68z" />
    <glyph glyph-name="lozenge" unicode="&#x25ca;" horiz-adv-x="1339" 
d="M502 0l-436 713l438 721h336l432 -717l-436 -717h-334zM983 713l-199 329l-114 193q-80 -139 -117 -197l-199 -319l201 -326q2 -4 47.5 -82t67.5 -114q36 62 116 194z" />
    <glyph glyph-name="uni274C" unicode="&#x274c;" horiz-adv-x="1579" 
d="M209 -31l-162 160l580 590l-574 586l166 168l574 -588l577 588l164 -158l-582 -592l576 -588l-170 -166l-574 586z" />
    <glyph glyph-name="uni2776" unicode="&#x2776;" horiz-adv-x="1765" 
d="M881 -61q165 0 314 62.5t256 168t169.5 252.5t62.5 309q0 163 -62.5 310t-169.5 253.5t-256 169t-314 62.5q-219 0 -403 -106t-290 -288.5t-106 -400.5q0 -162 62.5 -309t169 -252.5t255 -168t312.5 -62.5zM825 322v350v223q-40 -58 -95.5 -82.5t-113.5 -21.5v186
q175 9 238 166h170v-821h-199z" />
    <glyph glyph-name="uni2777" unicode="&#x2777;" horiz-adv-x="1765" 
d="M881 -61q165 0 314 62.5t256 168t169.5 252.5t62.5 309q0 163 -62.5 310t-169.5 253.5t-256 169t-314 62.5q-219 0 -403 -106t-290 -288.5t-106 -400.5q0 -162 62.5 -309t169 -252.5t255 -168t312.5 -62.5zM582 322v184q216 126 304.5 206.5t88.5 168.5q0 51 -26 80.5
t-70 29.5q-53 0 -81.5 -44t-25.5 -120l-199 23q-2 138 84.5 224.5t227.5 86.5q136 0 218.5 -72.5t82.5 -189.5q0 -108 -84 -217q-77 -92 -275 -190h269h94v-170h-608z" />
    <glyph glyph-name="uni2778" unicode="&#x2778;" horiz-adv-x="1765" 
d="M881 -61q165 0 314 62.5t256 168t169.5 252.5t62.5 309q0 163 -62.5 310t-169.5 253.5t-256 169t-314 62.5q-219 0 -403 -106t-290 -288.5t-106 -400.5q0 -162 62.5 -309t169 -252.5t255 -168t312.5 -62.5zM879 305q-139 0 -227 72t-97 194l201 39q13 -139 121 -139
q48 0 76 25t28 69q0 43 -30.5 67.5t-90.5 24.5h-55v162h55q53 0 80 23.5t27 64.5q0 38 -24 62t-64 24q-45 0 -72 -34t-27 -93l-200 31q4 117 87.5 190.5t211.5 73.5q129 0 209.5 -62.5t80.5 -162.5q0 -133 -139 -188q156 -53 156 -201q0 -107 -85.5 -174.5t-221.5 -67.5z
" />
    <glyph glyph-name="uni2779" unicode="&#x2779;" horiz-adv-x="1765" 
d="M881 -61q165 0 314 62.5t256 168t169.5 252.5t62.5 309q0 163 -62.5 310t-169.5 253.5t-256 169t-314 62.5q-219 0 -403 -106t-290 -288.5t-106 -400.5q0 -162 62.5 -309t169 -252.5t255 -168t312.5 -62.5zM891 322v196h-381v150l321 475h246v-463h113v-162h-113v-196
h-186zM891 680v68v194l-180 -262h127h53z" />
    <glyph glyph-name="uni277A" unicode="&#x277a;" horiz-adv-x="1765" 
d="M881 -61q165 0 314 62.5t256 168t169.5 252.5t62.5 309q0 163 -62.5 310t-169.5 253.5t-256 169t-314 62.5q-219 0 -403 -106t-290 -288.5t-106 -400.5q0 -162 62.5 -309t169 -252.5t255 -168t312.5 -62.5zM866 305q-133 0 -219.5 63t-103.5 171l190 53q11 -57 44.5 -89
t82.5 -32q52 0 84.5 33t32.5 88q0 53 -31.5 84t-79.5 31q-70 0 -106 -70l-191 37l72 469h516v-170h-362l-9 -64q-5 -28 -14 -112q52 61 152 61q114 0 187 -75t73 -195q0 -127 -89 -205t-229 -78z" />
    <glyph glyph-name="uni277B" unicode="&#x277b;" horiz-adv-x="1765" 
d="M881 -61q165 0 314 62.5t256 168t169.5 252.5t62.5 309q0 163 -62.5 310t-169.5 253.5t-256 169t-314 62.5q-219 0 -403 -106t-290 -288.5t-106 -400.5q0 -162 62.5 -309t169 -252.5t255 -168t312.5 -62.5zM860 305q-154 0 -245 107t-91 288q0 213 109.5 337t300.5 124
q56 0 110 -13t80 -28v-184q-95 49 -194 49q-83 0 -139.5 -48t-63.5 -146q27 41 73.5 62t98.5 21q120 0 196 -76t76 -196q0 -132 -86.5 -214.5t-224.5 -82.5zM856 471q49 0 80 35.5t31 89.5q0 55 -30.5 89t-80.5 34t-80.5 -34t-30.5 -89q0 -56 31 -90.5t80 -34.5z" />
    <glyph glyph-name="uni277C" unicode="&#x277c;" horiz-adv-x="1765" 
d="M881 -61q165 0 314 62.5t256 168t169.5 252.5t62.5 309q0 163 -62.5 310t-169.5 253.5t-256 169t-314 62.5q-219 0 -403 -106t-290 -288.5t-106 -400.5q0 -162 62.5 -309t169 -252.5t255 -168t312.5 -62.5zM707 322q-5 195 73 366.5t232 284.5h-125h-291v170h606v-187
q-287 -210 -284 -634h-211z" />
    <glyph glyph-name="uni277D" unicode="&#x277d;" horiz-adv-x="1765" 
d="M881 -61q165 0 314 62.5t256 168t169.5 252.5t62.5 309q0 163 -62.5 310t-169.5 253.5t-256 169t-314 62.5q-219 0 -403 -106t-290 -288.5t-106 -400.5q0 -162 62.5 -309t169 -252.5t255 -168t312.5 -62.5zM881 305q-146 0 -231 65t-85 177q0 70 43.5 121t114.5 77
q-59 24 -97 72.5t-38 116.5q0 99 80 163t213 64q132 0 214.5 -64.5t82.5 -162.5q0 -68 -38.5 -116.5t-97.5 -72.5q72 -26 113 -76.5t41 -121.5q0 -112 -85 -177t-230 -65zM881 807q44 0 70 28t26 72q0 40 -26 65t-70 25q-43 0 -70 -25t-27 -65q0 -43 27.5 -71.5t69.5 -28.5z
M881 471q52 0 80 26t28 74q0 46 -28.5 73.5t-79.5 27.5t-80 -27.5t-29 -73.5q0 -47 29 -73.5t80 -26.5z" />
    <glyph glyph-name="uni277E" unicode="&#x277e;" horiz-adv-x="1765" 
d="M881 -61q165 0 314 62.5t256 168t169.5 252.5t62.5 309q0 163 -62.5 310t-169.5 253.5t-256 169t-314 62.5q-219 0 -403 -106t-290 -288.5t-106 -400.5q0 -162 62.5 -309t169 -252.5t255 -168t312.5 -62.5zM834 305q-118 0 -199 37v190q59 -27 100.5 -37t93.5 -10
q98 0 156 58q57 54 57 151q-59 -94 -182 -94q-115 0 -190.5 74t-75.5 190q0 131 85 214t218 83q132 0 227 -92q109 -106 109 -311q0 -214 -104.5 -333.5t-294.5 -119.5zM903 758q47 0 76 32.5t29 86.5q0 52 -29 84t-76 32q-46 0 -75 -32.5t-29 -83.5q0 -54 29 -86.5
t75 -32.5z" />
    <glyph glyph-name="uni300A" unicode="&#x300a;" horiz-adv-x="1228" 
d="M698 1456l-417 -829l417 -850l-206 -109l-463 950l465 949zM774 627l420 -850l-209 -109l-463 950l465 949l205 -111z" />
    <glyph glyph-name="uni300B" unicode="&#x300b;" horiz-adv-x="1226" 
d="M242 1569l463 -951l-465 -948l-205 111l418 829l-418 850zM735 1569l465 -951l-467 -948l-205 111l420 827l-420 852z" />
    <glyph glyph-name="uni300C" unicode="&#x300c;" horiz-adv-x="774" 
d="M166 629v917h577v-198h-348v-719h-229z" />
    <glyph glyph-name="uni300D" unicode="&#x300d;" horiz-adv-x="733" 
d="M598 608v-917h-578v198h349v719h229z" />
    <glyph glyph-name="uni300E" unicode="&#x300e;" horiz-adv-x="1089" 
d="M170 420v1126h850v-489h-342v-637h-508zM367 602h133v625h325v137h-458v-762z" />
    <glyph glyph-name="uni300F" unicode="&#x300f;" horiz-adv-x="1067" 
d="M913 819v-1128h-847v489h342v639h505zM719 635h-133v-625h-326v-135h459v760z" />
    <glyph glyph-name="uni3010" unicode="&#x3010;" horiz-adv-x="772" 
d="M172 -307v1853h608q-199 -225 -291 -448.5t-92 -476.5q0 -252 91.5 -476t291.5 -452h-608z" />
    <glyph glyph-name="uni3011" unicode="&#x3011;" horiz-adv-x="772" 
d="M600 1546v-1853h-608q199 225 291 448.5t92 476.5q0 252 -91.5 476t-291.5 452h608z" />
    <glyph glyph-name="uni3014" unicode="&#x3014;" horiz-adv-x="681" 
d="M348 168l309 -346l-170 -154l-370 412v1077l370 410l164 -154l-303 -328v-917z" />
    <glyph glyph-name="uni3015" unicode="&#x3015;" horiz-adv-x="681" 
d="M195 1567l370 -412v-1077l-370 -410l-164 154l305 330v913l-311 348z" />
    <glyph glyph-name="plus.alt" unicode="&#xe000;" horiz-adv-x="1544" 
d="M653 0v608h-587v221h587v611h238v-611h588v-221h-588v-608h-238z" />
    <glyph glyph-name="minus.alt" unicode="&#xe001;" horiz-adv-x="1685" 
d="M137 608v221h1413v-221h-1413z" />
    <glyph glyph-name="multiply.alt" unicode="&#xe002;" horiz-adv-x="1619" 
d="M229 -31l-161 160l579 590l-573 586l166 168l573 -588l578 588l163 -158l-581 -592l575 -588l-170 -166l-573 586z" />
    <glyph glyph-name="uniE003" unicode="&#xe003;" horiz-adv-x="1812" 
d="M723 -31l-660 846l187 152l481 -617l850 1114l180 -145z" />
    <glyph glyph-name="uniE004" unicode="&#xe004;" horiz-adv-x="1947" 
d="M182 1151v225h1585v-225h-1585zM182 606v225h1585v-225h-1585zM182 61v226h1585v-226h-1585z" />
    <glyph glyph-name="uniE005" unicode="&#xe005;" horiz-adv-x="1812" 
d="M190 0v1427h1434v-1427h-1434zM426 215h960v997h-960v-997z" />
    <glyph glyph-name="uniE006" unicode="&#xe006;" horiz-adv-x="1812" 
d="M909 324l-366 591l182 119l88 -143q37 -57 115 -184q19 27 62 86t71 98l418 569l176 -131zM190 0v1427h928v-215h-692v-997h960v455h238v-670h-1434z" />
    <glyph glyph-name="uniE007" unicode="&#xe007;" horiz-adv-x="1812" 
d="M190 0v1427h1434v-1427h-1434zM426 215h960v997h-960v-997zM754 565v299h307v-299h-307z" />
    <glyph glyph-name="uniE008" unicode="&#xe008;" horiz-adv-x="1554" 
d="M780 264l-590 588l177 174l98 -100q102 -114 188 -197v967h254v-967q34 36 100 104.5t85 88.5l102 104l176 -174zM59 0v264h1434v-264h-1434z" />
    <glyph glyph-name="uniE009" unicode="&#xe009;" horiz-adv-x="1554" 
d="M780 440l-590 588l177 176l98 -102q110 -119 188 -197v967h254v-967l185 195l102 104l176 -176zM59 0v264h1434v-264h-1434z" />
    <glyph glyph-name="uniF8FF" unicode="&#xf8ff;" horiz-adv-x="1673" 
d="M1571 16l-82 -10q-64 55 -105 96q11 -121 17 -176l-39 -24q-119 0 -185.5 66t-95.5 212q-3 13 -10 55t-12 62q-27 -82 -90 -158q-49 24 -95 89.5t-72.5 130.5t-35.5 114q-31 193 -64 240q-29 40 -70 63.5t-118 48.5q-67 23 -106.5 56t-88.5 98l166 125l-59 59
q-50 -12 -94 -12q-94 0 -162 41t-68 106q0 62 33.5 99t95.5 37q127 0 195 -56q-26 55 -34.5 86t-8.5 80q0 44 31 71t88 27q65 0 98 -37.5t33 -105.5q0 -114 -45 -201l63 -69l92 69q76 -36 150.5 -105t129.5 -146t89 -132.5t53 -95.5q287 -260 371 -557q35 -117 35 -246z" />
    <glyph glyph-name="G.ss03" horiz-adv-x="1587" 
d="M815 -31q-159 0 -292.5 52t-228 147t-147.5 235t-53 310q0 212 97.5 384.5t266 269.5t373.5 97q137 0 252 -35.5t195 -97t133.5 -137t83.5 -164.5l-258 -98q-105 303 -408 303q-195 0 -325.5 -139t-130.5 -381q0 -232 123 -375t319 -143q163 0 258.5 81t116.5 218h-432
v229h721q9 -122 -11.5 -233.5t-72.5 -207t-131 -165.5t-194 -110t-255 -40z" />
    <glyph glyph-name="Gbreve.ss03" horiz-adv-x="1587" 
d="M834 1546q-94 0 -166.5 24.5t-115 65.5t-63.5 90.5t-22 104.5h203q3 -49 46 -88t118 -39q76 0 118 38.5t47 88.5h203q-2 -55 -23 -104t-63 -90.5t-114.5 -66t-167.5 -24.5zM815 -31q-159 0 -292.5 52t-228 147t-147.5 235t-53 310q0 212 97.5 384.5t266 269.5t373.5 97
q137 0 252 -35.5t195 -97t133.5 -137t83.5 -164.5l-258 -98q-105 303 -408 303q-195 0 -325.5 -139t-130.5 -381q0 -232 123 -375t319 -143q163 0 258.5 81t116.5 218h-432v229h721q9 -122 -11.5 -233.5t-72.5 -207t-131 -165.5t-194 -110t-255 -40z" />
    <glyph glyph-name="Gcircumflex.ss03" horiz-adv-x="1587" 
d="M412 1573l245 258h353l245 -258h-247l-174 147l-175 -147h-247zM815 -31q-159 0 -292.5 52t-228 147t-147.5 235t-53 310q0 212 97.5 384.5t266 269.5t373.5 97q137 0 252 -35.5t195 -97t133.5 -137t83.5 -164.5l-258 -98q-105 303 -408 303q-195 0 -325.5 -139
t-130.5 -381q0 -232 123 -375t319 -143q163 0 258.5 81t116.5 218h-432v229h721q9 -122 -11.5 -233.5t-72.5 -207t-131 -165.5t-194 -110t-255 -40z" />
    <glyph glyph-name="uni0122.ss03" horiz-adv-x="1587" 
d="M815 -31q-159 0 -292.5 52t-228 147t-147.5 235t-53 310q0 212 97.5 384.5t266 269.5t373.5 97q137 0 252 -35.5t195 -97t133.5 -137t83.5 -164.5l-258 -98q-105 303 -408 303q-195 0 -325.5 -139t-130.5 -381q0 -232 123 -375t319 -143q163 0 258.5 81t116.5 218h-432
v229h721q9 -122 -11.5 -233.5t-72.5 -207t-131 -165.5t-194 -110t-255 -40zM696 -668l154 269h-143v254h260v-254l-154 -269h-117z" />
    <glyph glyph-name="Gdotaccent.ss03" horiz-adv-x="1587" 
d="M702 1573v256h267v-256h-267zM815 -31q-159 0 -292.5 52t-228 147t-147.5 235t-53 310q0 212 97.5 384.5t266 269.5t373.5 97q137 0 252 -35.5t195 -97t133.5 -137t83.5 -164.5l-258 -98q-105 303 -408 303q-195 0 -325.5 -139t-130.5 -381q0 -232 123 -375t319 -143
q163 0 258.5 81t116.5 218h-432v229h721q9 -122 -11.5 -233.5t-72.5 -207t-131 -165.5t-194 -110t-255 -40z" />
    <glyph glyph-name="a.ss01" horiz-adv-x="1245" 
d="M516 -31q-194 0 -313 148t-119 393t119 393t313 148q118 0 201.5 -52t126.5 -122v143h250v-1020h-244v143q-43 -69 -128.5 -121.5t-205.5 -52.5zM598 166q118 0 188 88t70 256q0 167 -70 255.5t-188 88.5q-117 0 -185.5 -82t-68.5 -262q0 -182 68 -263t186 -81z" />
    <glyph glyph-name="aacute.ss01" horiz-adv-x="1245" 
d="M512 1159l102 305h291l-227 -305h-166zM516 -31q-194 0 -313 148t-119 393t119 393t313 148q118 0 201.5 -52t126.5 -122v143h250v-1020h-244v143q-43 -69 -128.5 -121.5t-205.5 -52.5zM598 166q118 0 188 88t70 256q0 167 -70 255.5t-188 88.5q-117 0 -185.5 -82
t-68.5 -262q0 -182 68 -263t186 -81z" />
    <glyph glyph-name="abreve.ss01" horiz-adv-x="1245" 
d="M592 1133q-86 0 -152.5 24t-105 65.5t-57.5 91t-21 105.5h184q5 -51 44 -89t108 -38q68 0 106 38.5t41 88.5h187q-2 -56 -21 -105.5t-57.5 -91t-104 -65.5t-151.5 -24zM516 -31q-194 0 -313 148t-119 393t119 393t313 148q118 0 201.5 -52t126.5 -122v143h250v-1020h-244
v143q-43 -69 -128.5 -121.5t-205.5 -52.5zM598 166q118 0 188 88t70 256q0 167 -70 255.5t-188 88.5q-117 0 -185.5 -82t-68.5 -262q0 -182 68 -263t186 -81z" />
    <glyph glyph-name="acircumflex.ss01" horiz-adv-x="1245" 
d="M209 1159l223 260h320l223 -260h-225l-158 148l-158 -148h-225zM516 -31q-194 0 -313 148t-119 393t119 393t313 148q118 0 201.5 -52t126.5 -122v143h250v-1020h-244v143q-43 -69 -128.5 -121.5t-205.5 -52.5zM598 166q118 0 188 88t70 256q0 167 -70 255.5t-188 88.5
q-117 0 -185.5 -82t-68.5 -262q0 -182 68 -263t186 -81z" />
    <glyph glyph-name="adieresis.ss01" horiz-adv-x="1245" 
d="M256 1188v231h242v-231h-242zM686 1188v231h242v-231h-242zM516 -31q-194 0 -313 148t-119 393t119 393t313 148q118 0 201.5 -52t126.5 -122v143h250v-1020h-244v143q-43 -69 -128.5 -121.5t-205.5 -52.5zM598 166q118 0 188 88t70 256q0 167 -70 255.5t-188 88.5
q-117 0 -185.5 -82t-68.5 -262q0 -182 68 -263t186 -81z" />
    <glyph glyph-name="uni0227.ss01" horiz-adv-x="1245" 
d="M459 1178v256h266v-256h-266zM516 -31q-194 0 -313 148t-119 393t119 393t313 148q118 0 201.5 -52t126.5 -122v143h250v-1020h-244v143q-43 -69 -128.5 -121.5t-205.5 -52.5zM598 166q118 0 188 88t70 256q0 167 -70 255.5t-188 88.5q-117 0 -185.5 -82t-68.5 -262
q0 -182 68 -263t186 -81z" />
    <glyph glyph-name="uni1EA1.ss01" horiz-adv-x="1245" 
d="M516 -31q-194 0 -313 148t-119 393t119 393t313 148q118 0 201.5 -52t126.5 -122v143h250v-1020h-244v143q-43 -69 -128.5 -121.5t-205.5 -52.5zM598 166q118 0 188 88t70 256q0 167 -70 255.5t-188 88.5q-117 0 -185.5 -82t-68.5 -262q0 -182 68 -263t186 -81zM451 -399
v256h264v-256h-264z" />
    <glyph glyph-name="agrave.ss01" horiz-adv-x="1245" 
d="M508 1159l-225 305h290l103 -305h-168zM516 -31q-194 0 -313 148t-119 393t119 393t313 148q118 0 201.5 -52t126.5 -122v143h250v-1020h-244v143q-43 -69 -128.5 -121.5t-205.5 -52.5zM598 166q118 0 188 88t70 256q0 167 -70 255.5t-188 88.5q-117 0 -185.5 -82
t-68.5 -262q0 -182 68 -263t186 -81z" />
    <glyph glyph-name="amacron.ss01" horiz-adv-x="1245" 
d="M272 1196v176h639v-176h-639zM516 -31q-194 0 -313 148t-119 393t119 393t313 148q118 0 201.5 -52t126.5 -122v143h250v-1020h-244v143q-43 -69 -128.5 -121.5t-205.5 -52.5zM598 166q118 0 188 88t70 256q0 167 -70 255.5t-188 88.5q-117 0 -185.5 -82t-68.5 -262
q0 -182 68 -263t186 -81z" />
    <glyph glyph-name="aogonek.ss01" horiz-adv-x="1245" 
d="M1094 0q-234 -72 -234 -174q0 -74 119 -74q45 0 115 17v-170q-79 -25 -150 -25q-122 0 -194 50.5t-72 146.5q0 136 180 229h-8v143q-43 -69 -128.5 -121.5t-205.5 -52.5q-194 0 -313 148t-119 393t119 393t313 148q118 0 201.5 -52t126.5 -122v143h250v-1020zM598 166
q118 0 188 88t70 256q0 167 -70 255.5t-188 88.5q-117 0 -185.5 -82t-68.5 -262q0 -182 68 -263t186 -81z" />
    <glyph glyph-name="aring.ss01" horiz-adv-x="1245" 
d="M594 1128q-103 0 -177.5 69.5t-74.5 174.5q0 103 74.5 172.5t177.5 69.5q101 0 175.5 -70.5t74.5 -173.5q0 -105 -74 -173.5t-176 -68.5zM594 1264q42 0 72 30t30 76q0 45 -30 76t-72 31q-44 0 -74.5 -30.5t-30.5 -74.5q0 -49 30 -78.5t75 -29.5zM516 -31
q-194 0 -313 148t-119 393t119 393t313 148q118 0 201.5 -52t126.5 -122v143h250v-1020h-244v143q-43 -69 -128.5 -121.5t-205.5 -52.5zM598 166q118 0 188 88t70 256q0 167 -70 255.5t-188 88.5q-117 0 -185.5 -82t-68.5 -262q0 -182 68 -263t186 -81z" />
    <glyph glyph-name="aringacute.ss01" horiz-adv-x="1245" 
d="M514 1653l102 264h291l-227 -264h-166zM600 1114q-103 0 -177.5 70t-74.5 174q0 103 74.5 173.5t177.5 70.5q102 0 176 -71t74 -175t-74 -173t-176 -69zM600 1249q42 0 72 31t30 76t-30 76.5t-72 31.5q-44 0 -74 -31t-30 -75q0 -47 30 -78t74 -31zM516 -31
q-194 0 -313 148t-119 393t119 393t313 148q118 0 201.5 -52t126.5 -122v143h250v-1020h-244v143q-43 -69 -128.5 -121.5t-205.5 -52.5zM598 166q118 0 188 88t70 256q0 167 -70 255.5t-188 88.5q-117 0 -185.5 -82t-68.5 -262q0 -182 68 -263t186 -81z" />
    <glyph glyph-name="atilde.ss01" horiz-adv-x="1245" 
d="M762 1149q-81 0 -170 55l-55 33q-65 37 -95 37q-37 0 -57 -27t-20 -76h-185q0 131 68 201t182 70q80 0 168 -51l53 -33q65 -37 97 -37q73 0 79 98h179q0 -139 -64 -204.5t-180 -65.5zM516 -31q-194 0 -313 148t-119 393t119 393t313 148q118 0 201.5 -52t126.5 -122v143
h250v-1020h-244v143q-43 -69 -128.5 -121.5t-205.5 -52.5zM598 166q118 0 188 88t70 256q0 167 -70 255.5t-188 88.5q-117 0 -185.5 -82t-68.5 -262q0 -182 68 -263t186 -81z" />
    <glyph glyph-name="g.ss02" horiz-adv-x="1245" 
d="M569 -430q-223 0 -351 82t-165 229l238 80q61 -201 280 -201q133 0 206 80t73 209v131q-42 -66 -127.5 -115t-204.5 -49q-196 0 -315 141.5t-119 372.5q0 232 118.5 377.5t313.5 145.5q119 0 204 -53t130 -123v143h244v-963q0 -235 -139.5 -361t-385.5 -126zM598 207
q117 0 187.5 84t70.5 239q0 154 -71 240t-187 86t-185 -79.5t-69 -246.5q0 -168 68.5 -245.5t185.5 -77.5z" />
    <glyph glyph-name="gbreve.ss02" horiz-adv-x="1245" 
d="M612 1133q-167 0 -249 83t-84 203h184q3 -50 42 -88.5t107 -38.5t106.5 38.5t43.5 88.5h184q-2 -56 -21 -105.5t-57.5 -91t-104 -65.5t-151.5 -24zM569 -430q-223 0 -351 82t-165 229l238 80q61 -201 280 -201q133 0 206 80t73 209v131q-42 -66 -127.5 -115t-204.5 -49
q-196 0 -315 141.5t-119 372.5q0 232 118.5 377.5t313.5 145.5q119 0 204 -53t130 -123v143h244v-963q0 -235 -139.5 -361t-385.5 -126zM598 207q117 0 187.5 84t70.5 239q0 154 -71 240t-187 86t-185 -79.5t-69 -246.5q0 -168 68.5 -245.5t185.5 -77.5z" />
    <glyph glyph-name="gcircumflex.ss02" horiz-adv-x="1245" 
d="M229 1159l224 260h321l223 -260h-225l-160 148l-157 -148h-226zM569 -430q-223 0 -351 82t-165 229l238 80q61 -201 280 -201q133 0 206 80t73 209v131q-42 -66 -127.5 -115t-204.5 -49q-196 0 -315 141.5t-119 372.5q0 232 118.5 377.5t313.5 145.5q119 0 204 -53
t130 -123v143h244v-963q0 -235 -139.5 -361t-385.5 -126zM598 207q117 0 187.5 84t70.5 239q0 154 -71 240t-187 86t-185 -79.5t-69 -246.5q0 -168 68.5 -245.5t185.5 -77.5z" />
    <glyph glyph-name="uni0123.ss02" horiz-adv-x="1245" 
d="M752 1700l-154 -268h143v-254h-260v254l156 268h115zM569 -430q-223 0 -351 82t-165 229l238 80q61 -201 280 -201q133 0 206 80t73 209v131q-42 -66 -127.5 -115t-204.5 -49q-196 0 -315 141.5t-119 372.5q0 232 118.5 377.5t313.5 145.5q119 0 204 -53t130 -123v143
h244v-963q0 -235 -139.5 -361t-385.5 -126zM598 207q117 0 187.5 84t70.5 239q0 154 -71 240t-187 86t-185 -79.5t-69 -246.5q0 -168 68.5 -245.5t185.5 -77.5z" />
    <glyph glyph-name="gdotaccent.ss02" horiz-adv-x="1245" 
d="M479 1178v256h266v-256h-266zM569 -430q-223 0 -351 82t-165 229l238 80q61 -201 280 -201q133 0 206 80t73 209v131q-42 -66 -127.5 -115t-204.5 -49q-196 0 -315 141.5t-119 372.5q0 232 118.5 377.5t313.5 145.5q119 0 204 -53t130 -123v143h244v-963
q0 -235 -139.5 -361t-385.5 -126zM598 207q117 0 187.5 84t70.5 239q0 154 -71 240t-187 86t-185 -79.5t-69 -246.5q0 -168 68.5 -245.5t185.5 -77.5z" />
    <glyph glyph-name="i.loclTRK" horiz-adv-x="552" 
d="M141 1182v254h267v-254h-267zM152 0v1020h247v-1020h-247z" />
    <glyph glyph-name="zero.osf" horiz-adv-x="1323" 
d="M662 -31q-117 0 -222 41t-182 112t-122.5 172t-45.5 216t45.5 216t122.5 172t182 112t222 41q156 0 286.5 -69t207.5 -194t77 -278t-77 -278t-207.5 -194t-286.5 -69zM662 170q136 0 224.5 90t88.5 250q0 157 -89 248.5t-224 91.5q-134 0 -224 -92t-90 -248
q0 -160 89.5 -250t224.5 -90z" />
    <glyph glyph-name="one.osf" horiz-adv-x="825" 
d="M416 0v465v242q-57 -98 -149.5 -169t-192.5 -83v264q127 18 225 93.5t152 207.5h213v-1020h-248z" />
    <glyph glyph-name="two.osf" horiz-adv-x="1091" 
d="M111 -2v244q349 144 480.5 238.5t131.5 199.5q0 78 -49 123t-129 45q-90 0 -139 -61.5t-52 -155.5l-254 37q6 169 129 276t320 107q103 0 186 -28t135.5 -74.5t80.5 -105.5t28 -124q0 -87 -33.5 -153t-99.5 -124q-68 -61 -170.5 -116t-263.5 -127q72 2 329 2h248v-203
h-878z" />
    <glyph glyph-name="three.osf" horiz-adv-x="1179" 
d="M592 -430q-227 0 -367 120.5t-164 317.5l263 49q8 -131 75.5 -206.5t188.5 -75.5q114 0 178.5 58t64.5 161q0 101 -66.5 161t-178.5 60h-121v213h106q102 0 170 57.5t68 155.5q0 94 -63.5 150.5t-157.5 56.5q-104 0 -169.5 -65.5t-72.5 -180.5l-244 41q9 84 45.5 157.5
t97 130t149.5 89.5t196 33q211 0 340 -107t129 -266q0 -130 -71 -218.5t-185 -127.5q122 -31 204.5 -126.5t82.5 -227.5q0 -182 -134.5 -296t-363.5 -114z" />
    <glyph glyph-name="four.osf" horiz-adv-x="1259" 
d="M748 -399v399h-691v199l588 821h346v-819h213v-201h-213v-399h-243zM317 201h283h148v295v315z" />
    <glyph glyph-name="five.osf" horiz-adv-x="1165" 
d="M590 -430q-214 0 -343.5 99t-168.5 265l233 84q25 -104 93 -172.5t174 -68.5q117 0 186.5 70.5t69.5 197.5q0 119 -70.5 192.5t-185.5 73.5q-80 0 -142.5 -36t-99.5 -95l-252 47l123 793h823v-211h-641l-41 -262l-26 -164q121 129 319 129q121 0 222.5 -53t165 -158.5
t63.5 -245.5q0 -217 -140 -351t-362 -134z" />
    <glyph glyph-name="six.osf" horiz-adv-x="1245" 
d="M649 -31q-172 0 -297.5 86t-189.5 237t-64 349q0 243 79.5 428t234 290t364.5 105q181 0 303 -47v-225q-145 55 -274 55q-210 0 -343 -141t-134 -385q44 97 146 157t235 60q126 0 230 -58t166 -165t62 -242q0 -220 -143 -362t-375 -142zM643 172q113 0 190.5 79.5
t77.5 207.5q0 121 -77.5 197.5t-190.5 76.5q-115 0 -190.5 -76.5t-75.5 -197.5q0 -129 75 -208t191 -79z" />
    <glyph glyph-name="seven.osf" horiz-adv-x="1081" 
d="M262 -399q0 205 44 390.5t124 335t181.5 269t226.5 213.5h-351h-452v211h1005v-262q-524 -406 -524 -1157h-254z" />
    <glyph glyph-name="eight.osf" horiz-adv-x="1218" 
d="M610 -31q-238 0 -375 117.5t-137 298.5q0 130 75 222.5t192 129.5q-110 48 -170 135.5t-60 204.5q0 162 132.5 274.5t342.5 112.5q209 0 341 -112.5t132 -274.5q0 -118 -59 -205t-168 -135q118 -37 192 -129.5t74 -222.5q0 -180 -137.5 -298t-374.5 -118zM610 825
q103 0 169.5 60.5t66.5 161.5q0 93 -66 153t-170 60q-105 0 -170 -60t-65 -153q0 -101 65.5 -161.5t169.5 -60.5zM610 174q120 0 188 63t68 173q0 105 -69.5 172t-186.5 67q-119 0 -188.5 -67t-69.5 -172q0 -110 68.5 -173t189.5 -63z" />
    <glyph glyph-name="nine.osf" horiz-adv-x="1257" 
d="M481 -430q-181 0 -303 47v231q137 -55 275 -55q214 0 345.5 133t131.5 387q-40 -103 -141.5 -165t-233.5 -62q-127 0 -231 57t-166 164t-62 244q0 217 142.5 358.5t371.5 141.5q174 0 301 -86t191.5 -237.5t64.5 -350.5q0 -370 -182.5 -588.5t-503.5 -218.5zM616 295
q112 0 187.5 74.5t75.5 191.5q0 128 -75 205.5t-188 77.5q-112 0 -188 -78t-76 -205q0 -116 76.5 -191t187.5 -75z" />
    <glyph glyph-name="zero.tf" 
d="M635 -31q-129 0 -236 49t-185 142.5t-121.5 236t-43.5 320.5t44.5 321t124 235.5t186 141.5t231.5 49t231.5 -49t186 -141.5t124 -235.5t44.5 -321q0 -179 -43 -321t-121 -235.5t-185.5 -142.5t-236.5 -49zM635 195q143 0 227 128t84 394q0 258 -85.5 390t-225.5 132
t-225.5 -132.5t-85.5 -389.5q0 -265 84 -393.5t227 -128.5z" />
    <glyph glyph-name="one.tf" 
d="M850 229h315v-229h-995v229h428v689v200q-64 -103 -167 -175t-218 -81v268q142 20 252.5 96t169.5 208h215v-1205z" />
    <glyph glyph-name="two.tf" 
d="M133 0v276q205 121 336 210.5t222.5 176t130 164.5t38.5 164q0 115 -65.5 181.5t-165.5 66.5q-83 0 -140 -43.5t-82.5 -111t-27.5 -154.5l-258 39q2 99 35 187t95 157.5t161.5 110t222.5 40.5q231 0 364.5 -123.5t133.5 -322.5q0 -205 -134 -367q-85 -104 -233 -203.5
t-377 -220.5h383h371v-227h-1010z" />
    <glyph glyph-name="three.tf" 
d="M631 -31q-232 0 -372 118t-165 323l266 55q11 -129 81.5 -202t189.5 -73q109 0 177.5 57t68.5 154q0 100 -67 158.5t-181 58.5h-119v216h119q94 0 158.5 56t64.5 148q0 93 -63.5 149t-157.5 56q-100 0 -162 -64.5t-70 -172.5l-260 43q16 180 146 297.5t346 117.5
q221 0 350 -106t129 -273q0 -131 -71.5 -219t-190.5 -125q133 -29 213 -126.5t80 -231.5q0 -185 -137.5 -299.5t-372.5 -114.5z" />
    <glyph glyph-name="four.tf" 
d="M731 0v362h-651v228l534 844h353v-859h202v-213h-202v-362h-236zM731 575v244v404l-414 -648h273h141z" />
    <glyph glyph-name="five.tf" 
d="M639 -31q-217 0 -357.5 103t-175.5 270l244 80q26 -104 97 -168t180 -64q118 0 189 69.5t71 191.5q0 119 -71 190.5t-187 71.5q-80 0 -141.5 -36t-98.5 -99l-254 49l123 807h846v-228h-662l-41 -268l-22 -150q114 119 313 119q201 0 330 -121t129 -335q0 -218 -137 -350
t-375 -132z" />
    <glyph glyph-name="six.tf" 
d="M666 -31q-176 0 -305.5 89.5t-196 245.5t-66.5 360q0 368 184.5 584t520.5 216q83 0 165 -15.5t130 -35.5v-246q-144 58 -287 58q-96 0 -178 -32t-145.5 -94t-99.5 -162t-36 -228q40 103 139.5 166t229.5 63q202 0 333.5 -128t131.5 -335q0 -223 -142 -364.5t-378 -141.5
zM659 190q112 0 188.5 75.5t76.5 197.5t-76.5 197t-188.5 75q-113 0 -187.5 -75t-74.5 -197t75 -197.5t187 -75.5z" />
    <glyph glyph-name="seven.tf" 
d="M342 0q0 164 34 319.5t90.5 281.5t135.5 241t165 202.5t183 161.5h-329h-482v228h1004v-283q-522 -405 -522 -1151h-279z" />
    <glyph glyph-name="eight.tf" 
d="M633 -31q-245 0 -386 114t-141 302q0 134 84.5 230t202.5 122q-113 41 -180.5 125.5t-67.5 214.5q0 166 134.5 276.5t353.5 110.5q220 0 355.5 -110.5t135.5 -276.5q0 -255 -245 -340q122 -26 202 -121t80 -231q0 -188 -141 -302t-387 -114zM637 825q103 0 170 58t67 157
q0 92 -67 150.5t-170 58.5q-105 0 -172.5 -58.5t-67.5 -150.5q0 -99 68 -157t172 -58zM633 190q121 0 191.5 62.5t70.5 167.5q0 102 -71.5 165.5t-190.5 63.5q-117 0 -187.5 -63.5t-70.5 -165.5q0 -105 70 -167.5t188 -62.5z" />
    <glyph glyph-name="nine.tf" 
d="M477 -31q-187 0 -309 49v256q147 -59 305 -59q161 0 283 96q150 128 153 416q-42 -96 -141 -154.5t-229 -58.5q-193 0 -320 124t-127 323q0 220 139.5 361.5t364.5 141.5q223 0 385 -155q180 -174 180 -539q0 -374 -178.5 -587.5t-505.5 -213.5zM608 719q109 0 180.5 72
t71.5 190t-71.5 190t-180.5 72q-106 0 -179 -72.5t-73 -189.5t73 -189.5t179 -72.5z" />
    <glyph glyph-name="zero.subs" horiz-adv-x="870" 
d="M436 -240q-161 0 -254.5 115.5t-93.5 312.5q0 195 94.5 311.5t253.5 116.5q158 0 252 -116.5t94 -311.5q0 -197 -93 -312.5t-253 -115.5zM436 -70q65 0 100 66.5t35 191.5q0 122 -36.5 191.5t-98.5 69.5q-63 0 -100 -69.5t-37 -191.5q0 -124 35.5 -191t101.5 -67z" />
    <glyph glyph-name="one.subs" horiz-adv-x="612" 
d="M274 -221v350v221q-75 -108 -206 -104v186q176 12 237 168h168v-821h-199z" />
    <glyph glyph-name="two.subs" horiz-adv-x="796" 
d="M96 -221v184q215 126 303 206.5t88 168.5q0 51 -25.5 81t-70.5 30q-52 0 -79.5 -44t-24.5 -120l-201 22q-2 137 85 223t226 86q136 0 218.5 -72t82.5 -188q0 -112 -84 -217q-78 -97 -274 -190h268h94v-170h-606z" />
    <glyph glyph-name="three.subs" horiz-adv-x="792" 
d="M397 -240q-139 0 -227.5 72.5t-97.5 194.5l200 39q8 -65 38.5 -101.5t84.5 -36.5q47 0 76 24.5t29 67.5q0 44 -30.5 68.5t-90.5 24.5h-55v161h55q52 0 79 24t27 64q0 39 -24.5 64t-63.5 25q-46 0 -72 -34.5t-26 -94.5l-203 30q4 118 88 191t213 73t210 -62.5t81 -162.5
q0 -62 -36 -111t-103 -75q156 -53 156 -201q0 -107 -86 -175.5t-222 -68.5z" />
    <glyph glyph-name="four.subs" horiz-adv-x="819" 
d="M410 -240q-141 0 -229 72.5t-97 194.5l201 39q16 -138 123 -138q47 0 75.5 24.5t28.5 67.5q0 44 -30.5 68.5t-90.5 24.5h-57v161h57q51 0 79 24.5t28 63.5q0 38 -25 63.5t-63 25.5q-46 0 -72.5 -34.5t-26.5 -94.5l-202 30q4 118 88 191t213 73t209.5 -62.5t80.5 -162.5
q0 -62 -36 -111t-105 -75q158 -53 158 -201q0 -108 -85.5 -176t-221.5 -68z" />
    <glyph glyph-name="five.subs" horiz-adv-x="802" 
d="M401 -240q-133 0 -219.5 63.5t-105.5 172.5l192 51q11 -56 44 -87.5t83 -31.5q51 0 84 33t33 86t-31.5 85t-79.5 32q-69 0 -106 -70l-193 35l72 471h516v-170h-360l-11 -63q-1 -20 -12 -113q54 61 150 61q114 0 187 -75t73 -195q0 -128 -88 -206.5t-228 -78.5z" />
    <glyph glyph-name="six.subs" horiz-adv-x="819" 
d="M422 -240q-154 0 -245 108t-91 288q0 213 109.5 336.5t302.5 123.5q55 0 109 -11.5t79 -26.5v-185q-97 47 -194 47q-82 0 -139 -47.5t-64 -144.5q28 41 75 62.5t99 21.5q120 0 196 -76.5t76 -196.5q0 -132 -87.5 -215.5t-225.5 -83.5zM420 -72q47 0 78.5 34.5t31.5 88.5
q0 55 -31 90t-79 35q-50 0 -81.5 -35t-31.5 -90t31.5 -89t81.5 -34z" />
    <glyph glyph-name="seven.subs" horiz-adv-x="731" 
d="M174 -221q-3 195 75.5 366.5t231.5 284.5h-125h-290v170h604v-186q-289 -215 -283 -635h-213z" />
    <glyph glyph-name="eight.subs" horiz-adv-x="806" 
d="M401 -240q-145 0 -229 65t-84 179q0 69 44 121t114 78q-60 24 -98.5 71.5t-38.5 114.5q0 100 80 163.5t212 63.5q133 0 215 -64t82 -163q0 -67 -38.5 -115.5t-96.5 -70.5q72 -25 114 -77t42 -122q0 -114 -85.5 -179t-232.5 -65zM403 264q43 0 70 28t27 70
q0 40 -26.5 65.5t-70.5 25.5t-70 -25t-26 -66q0 -42 26.5 -70t69.5 -28zM401 -72q52 0 81.5 26.5t29.5 72.5q0 47 -29.5 74.5t-81.5 27.5q-49 0 -77.5 -27.5t-28.5 -74.5q0 -46 27.5 -72.5t78.5 -26.5z" />
    <glyph glyph-name="nine.subs" horiz-adv-x="813" 
d="M326 -240q-112 0 -201 39v191q63 -27 104.5 -38t92.5 -11q98 0 155 57q58 58 58 154q-62 -97 -183 -97q-116 0 -191 74.5t-75 189.5q0 131 84 214t217 83q135 0 227 -92q111 -102 111 -309q0 -216 -104.5 -335.5t-294.5 -119.5zM395 213q46 0 75.5 33.5t29.5 85.5
t-29.5 85.5t-75.5 33.5t-75 -33.5t-29 -85.5t29 -85.5t75 -33.5z" />
    <glyph glyph-name="zero.dnom" horiz-adv-x="870" 
d="M436 -18q-161 0 -254.5 115.5t-93.5 312.5q0 195 94.5 311.5t253.5 116.5q158 0 252 -116.5t94 -311.5q0 -197 -93 -312.5t-253 -115.5zM436 152q65 0 100 66.5t35 191.5q0 122 -36.5 191t-98.5 69q-63 0 -100 -69t-37 -191q0 -124 35.5 -191t101.5 -67z" />
    <glyph glyph-name="one.dnom" horiz-adv-x="612" 
d="M274 0v350v221q-75 -108 -206 -104v186q176 12 237 168h168v-821h-199z" />
    <glyph glyph-name="two.dnom" horiz-adv-x="796" 
d="M96 0v184q216 126 304.5 206.5t88.5 168.5q0 51 -26 81t-70 30q-52 0 -80.5 -44.5t-25.5 -119.5l-199 22q-2 137 84.5 223.5t226.5 86.5q136 0 218.5 -72t82.5 -188q0 -109 -84 -218q-78 -97 -274 -190h268h95v-170h-609z" />
    <glyph glyph-name="three.dnom" horiz-adv-x="792" 
d="M397 -18q-139 0 -227.5 72t-97.5 194l200 39q16 -137 123 -137q47 0 76 24.5t29 67.5q0 92 -121 92h-55v162h55q52 0 79 24t27 64q0 39 -24.5 63.5t-63.5 24.5q-46 0 -72 -34.5t-26 -94.5l-203 30q4 118 88 191.5t213 73.5t210 -63t81 -163q0 -62 -36 -111t-103 -75
q156 -53 156 -201q0 -107 -86 -175t-222 -68z" />
    <glyph glyph-name="four.dnom" horiz-adv-x="819" 
d="M444 0v195h-381v149l322 477h246v-465h112v-161h-112v-195h-187zM444 356v70v195l-180 -265h127h53z" />
    <glyph glyph-name="five.dnom" horiz-adv-x="802" 
d="M401 -18q-133 0 -219.5 63t-105.5 172l192 51q11 -56 43.5 -87t83.5 -31q52 0 84.5 32.5t32.5 85.5t-31.5 85t-79.5 32q-69 0 -106 -70l-193 35l72 471h516v-170h-360l-11 -63q-1 -20 -12 -113q55 62 150 62q113 0 186.5 -75t73.5 -196q0 -128 -88 -206t-228 -78z" />
    <glyph glyph-name="six.dnom" horiz-adv-x="819" 
d="M422 -18q-154 0 -245 107.5t-91 287.5q0 213 109.5 337t302.5 124q55 0 108.5 -12t79.5 -27v-185q-99 48 -194 48q-82 0 -139 -48t-64 -145q28 41 75 62.5t99 21.5q120 0 196 -76t76 -196q0 -132 -87.5 -215.5t-225.5 -83.5zM420 150q48 0 79 34t31 88q0 55 -31 90
t-79 35q-50 0 -81.5 -35t-31.5 -90t31.5 -88.5t81.5 -33.5z" />
    <glyph glyph-name="seven.dnom" horiz-adv-x="731" 
d="M174 0q-3 195 75.5 366.5t231.5 284.5h-125h-290v170h604v-186q-289 -215 -283 -635h-213z" />
    <glyph glyph-name="eight.dnom" horiz-adv-x="806" 
d="M401 -18q-145 0 -229 64.5t-84 178.5q0 69 44 121t114 78q-60 24 -98.5 71.5t-38.5 114.5q0 100 80 164t212 64q133 0 215 -64t82 -164q0 -67 -38.5 -115.5t-96.5 -70.5q72 -25 114 -77t42 -122q0 -113 -85.5 -178t-232.5 -65zM403 485q43 0 70 28.5t27 70.5
q0 40 -26.5 65t-70.5 25t-70 -24.5t-26 -65.5q0 -42 26.5 -70.5t69.5 -28.5zM401 150q52 0 81.5 26t29.5 72q0 47 -29.5 74.5t-81.5 27.5q-49 0 -77.5 -27.5t-28.5 -74.5q0 -46 27.5 -72t78.5 -26z" />
    <glyph glyph-name="nine.dnom" horiz-adv-x="813" 
d="M326 -18q-114 0 -201 38v191q63 -27 104.5 -38t92.5 -11q98 0 155 57q58 58 58 154q-62 -97 -183 -97q-116 0 -191 75t-75 190q0 131 84 214t217 83q134 0 227 -93q111 -102 111 -309q0 -216 -104.5 -335t-294.5 -119zM395 434q46 0 75.5 33.5t29.5 85.5t-29.5 85.5
t-75.5 33.5t-75 -33.5t-29 -85.5t29 -85.5t75 -33.5z" />
    <glyph glyph-name="zero.numr" horiz-adv-x="870" 
d="M436 596q-161 0 -254.5 115.5t-93.5 312.5q0 194 94.5 311t253.5 117q158 0 252 -117t94 -311q0 -197 -93 -312.5t-253 -115.5zM436 764q65 0 100 67t35 193q0 121 -36.5 189.5t-98.5 68.5q-63 0 -100 -68.5t-37 -189.5q0 -126 35.5 -193t101.5 -67z" />
    <glyph glyph-name="one.numr" horiz-adv-x="612" 
d="M274 612v351v221q-79 -110 -206 -103v187q174 9 237 166h168v-822h-199z" />
    <glyph glyph-name="two.numr" horiz-adv-x="796" 
d="M96 612v185q217 126 305 206t88 168q0 51 -26 81t-70 30q-52 0 -80.5 -44.5t-25.5 -119.5l-199 23q-2 138 84 224.5t227 86.5q136 0 218.5 -72.5t82.5 -189.5q0 -108 -84 -217q-79 -94 -274 -191h268h95v-170h-609z" />
    <glyph glyph-name="three.numr" horiz-adv-x="792" 
d="M397 596q-139 0 -227.5 72t-97.5 194l200 39q16 -139 123 -139q47 0 76 25.5t29 68.5t-30.5 67.5t-90.5 24.5h-55v160h55q52 0 79 24.5t27 65.5q0 38 -24 62t-64 24q-46 0 -72 -34t-26 -93l-203 31q5 117 88.5 190.5t212.5 73.5t210 -62.5t81 -162.5q0 -63 -35.5 -112.5
t-103.5 -76.5q156 -53 156 -200q0 -107 -85.5 -174.5t-222.5 -67.5z" />
    <glyph glyph-name="four.numr" horiz-adv-x="819" 
d="M444 612v197h-381v149l324 476h244v-463h114v-162h-114v-197h-187zM444 971v67v195l-178 -262h127h51z" />
    <glyph glyph-name="five.numr" horiz-adv-x="802" 
d="M401 596q-133 0 -219.5 62.5t-105.5 170.5l192 54q11 -57 43.5 -89t83.5 -32q52 0 84.5 33t32.5 88q0 53 -31 83.5t-80 30.5q-71 0 -106 -69l-193 37l72 469h516v-170h-360l-11 -64q-2 -24 -12 -113q52 62 150 62q114 0 187 -75t73 -195q0 -127 -88 -205t-228 -78z" />
    <glyph glyph-name="six.numr" horiz-adv-x="819" 
d="M422 596q-154 0 -245 106.5t-91 286.5q0 215 109.5 339t302.5 124q54 0 108 -13t80 -28v-184q-95 49 -194 49q-82 0 -139 -48.5t-64 -146.5q28 41 75 62.5t99 21.5q120 0 196 -76t76 -196q0 -132 -87.5 -214.5t-225.5 -82.5zM420 762q47 0 78.5 35.5t31.5 89.5
t-31.5 88.5t-78.5 34.5q-50 0 -81.5 -34.5t-31.5 -88.5q0 -55 31.5 -90t81.5 -35z" />
    <glyph glyph-name="seven.numr" horiz-adv-x="731" 
d="M174 612q-3 195 75.5 367t231.5 285h-125h-290v170h604v-187q-289 -212 -283 -635h-213z" />
    <glyph glyph-name="eight.numr" horiz-adv-x="806" 
d="M401 596q-145 0 -229 65t-84 177q0 70 43.5 121t114.5 77q-59 24 -98 72.5t-39 116.5q0 98 80.5 162.5t211.5 64.5q133 0 215 -64.5t82 -162.5q0 -68 -38 -116.5t-97 -72.5q73 -26 114.5 -76.5t41.5 -121.5q0 -112 -85.5 -177t-232.5 -65zM403 1098q44 0 70.5 28.5
t26.5 71.5q0 40 -26.5 65t-70.5 25t-70 -25t-26 -65q0 -44 26 -72t70 -28zM401 762q52 0 81.5 26.5t29.5 73.5q0 46 -29.5 73.5t-81.5 27.5q-49 0 -77.5 -27.5t-28.5 -73.5q0 -47 27.5 -73.5t78.5 -26.5z" />
    <glyph glyph-name="nine.numr" horiz-adv-x="813" 
d="M326 596q-117 0 -201 37v190q107 -47 197 -47q97 0 155 58q58 54 58 151q-60 -94 -183 -94q-116 0 -191 74t-75 190q0 131 84 214t217 83q132 0 227 -92q111 -105 111 -311q0 -214 -104.5 -333.5t-294.5 -119.5zM395 1047q46 0 75.5 33t29.5 85q0 53 -29.5 86t-75.5 33
t-75 -33.5t-29 -85.5t29 -85t75 -33z" />
    <glyph glyph-name="exclamdown.case" horiz-adv-x="616" 
d="M463 1434v-299h-307v299h307zM369 944l77 -575v-369h-274v371l80 573h117z" />
    <glyph glyph-name="questiondown.case" horiz-adv-x="1069" 
d="M711 1434v-299h-305v299h305zM678 944q0 -70 -12 -122.5t-40 -94t-56 -68.5t-78 -67q-72 -55 -111 -105t-39 -118q0 -84 54 -133.5t143 -49.5q208 0 217 275l248 -39q-5 -212 -128.5 -331.5t-343.5 -119.5q-211 0 -331.5 108t-120.5 271q0 64 17 118t52 100.5t73.5 82.5
t96.5 80q65 52 94 100t29 113h236z" />
    <glyph glyph-name="period.tf" 
d="M451 0v360h366v-360h-366z" />
    <glyph glyph-name="comma.tf" 
d="M438 -379l217 379h-202v360h366v-360l-217 -379h-164z" />
    <glyph glyph-name="colon.tf" 
d="M451 782v361h366v-361h-366zM451 0v360h366v-360h-366z" />
    <glyph glyph-name="semicolon.tf" 
d="M455 782v361h366v-361h-366zM440 -379l217 379h-202v360h366v-360l-219 -379h-162z" />
    <glyph glyph-name="numbersign.tf" 
d="M154 0l28 133q8 44 26 125.5t23 106.5h-153h-25v204h221l62 295h-221v221h266l76 349h219l-27 -125q-8 -41 -25.5 -122t-21.5 -102h170h49l74 349h221l-29 -129q-7 -39 -23 -114.5t-22 -105.5h146h29v-221h-222l-61 -295h221v-204h-264l-78 -365h-219l27 133
q8 40 25.5 120.5t23.5 111.5h-168h-49l-78 -365h-221zM496 569h217l63 295h-219z" />
    <glyph glyph-name="parenleft.case" horiz-adv-x="698" 
d="M637 -225q-99 14 -181 60t-140 116.5t-101 157.5t-68 190t-37 206.5t-12 213.5q0 134 16.5 258.5t56.5 246.5t100 214.5t154 155t212 75.5v-217q-88 -20 -151.5 -89.5t-97 -175t-48 -220t-14.5 -248.5q1 -134 15.5 -247t48 -218t96.5 -174.5t151 -89.5v-215z" />
    <glyph glyph-name="parenright.case" horiz-adv-x="700" 
d="M63 1669q99 -14 181 -60t140 -116.5t101 -157.5t68 -190t37 -206.5t12 -213.5q0 -134 -16.5 -258.5t-56.5 -246.5t-100 -214.5t-154 -155t-212 -75.5v217q88 20 151.5 89.5t97 175t48 220t13.5 248.5q0 105 -8.5 197.5t-30 184.5t-55.5 161t-89.5 119t-126.5 67v215z" />
    <glyph glyph-name="braceleft.case" horiz-adv-x="755" 
d="M541 -205q-156 0 -220.5 76t-64.5 233v302q0 119 -41.5 163.5t-148.5 44.5v209q108 0 149 41t41 156v319q0 157 64.5 233.5t220.5 76.5h147v-191h-74q-67 0 -98 -32t-31 -109v-307q0 -71 -18 -121.5t-54.5 -82.5t-70.5 -49t-88 -36q44 -16 71 -28t61 -35.5t53 -51.5
t32.5 -73t13.5 -103v-303q0 -77 31 -109t98 -32h74v-191h-147z" />
    <glyph glyph-name="braceright.case" horiz-adv-x="755" 
d="M215 1649q156 0 220.5 -76.5t64.5 -233.5v-301q0 -118 42 -163.5t148 -45.5v-208q-108 0 -149 -40.5t-41 -156.5v-320q0 -157 -64.5 -233t-220.5 -76h-147v193h73q67 0 98 31t31 108v307q0 57 13.5 102t33.5 73.5t53 51.5t61.5 35.5t70.5 26.5q-43 16 -70.5 28t-61.5 36
t-53.5 52t-33 73t-13.5 102v303q0 79 -31 110t-98 31h-73v191h147z" />
    <glyph glyph-name="bracketleft.case" horiz-adv-x="745" 
d="M190 -205v1854h492v-197h-262v-1460h262v-197h-492z" />
    <glyph glyph-name="bracketright.case" horiz-adv-x="745" 
d="M555 1649v-1854h-494v197h265v1460h-265v197h494z" />
    <glyph glyph-name="angleleft.case" horiz-adv-x="757" 
d="M297 727l420 -848l-209 -108l-463 948l465 950l205 -110z" />
    <glyph glyph-name="angleright.case" horiz-adv-x="759" 
d="M250 1669l463 -948l-465 -948l-205 110l418 832l-418 846z" />
    <glyph glyph-name="uni3010.case" horiz-adv-x="796" 
d="M190 -205v1854h609q-199 -225 -291 -449t-92 -477q0 -252 91.5 -476t291.5 -452h-609z" />
    <glyph glyph-name="uni3011.case" horiz-adv-x="796" 
d="M606 1649v-1854h-608q199 225 291 449t92 477q0 252 -91.5 476t-291.5 452h608z" />
    <glyph glyph-name="uni300C.case" horiz-adv-x="765" 
d="M156 731v918h577v-199h-348v-719h-229z" />
    <glyph glyph-name="uni300D.case" horiz-adv-x="763" 
d="M612 713v-918h-577v199h348v719h229z" />
    <glyph glyph-name="uni300A.case" horiz-adv-x="1251" 
d="M715 1559l-418 -830l420 -850l-209 -108l-463 950l465 948zM1210 1559l-419 -830l419 -850l-206 -108l-465 950l467 948z" />
    <glyph glyph-name="uni300B.case" horiz-adv-x="1253" 
d="M250 1671l463 -950l-465 -948l-205 110l418 832l-418 848zM743 1671l465 -950l-467 -948l-204 110l419 830l-419 850z" />
    <glyph glyph-name="uni3014.case" horiz-adv-x="700" 
d="M356 270l310 -346l-170 -153l-371 411v1078l371 409l163 -153l-303 -328v-918z" />
    <glyph glyph-name="uni3015.case" horiz-adv-x="698" 
d="M203 1669l368 -409v-1078l-370 -409l-162 153l303 328v917l-309 347z" />
    <glyph glyph-name="uni300E.case" horiz-adv-x="1095" 
d="M172 522v1127h850v-490h-342v-637h-508zM369 705h133v624h325v137h-458v-761z" />
    <glyph glyph-name="uni300F.case" horiz-adv-x="1097" 
d="M922 922v-1127h-848v488h342v639h506zM727 739h-133v-624h-326v-138h459v762z" />
    <glyph glyph-name="hyphen.case" horiz-adv-x="946" 
d="M137 629v237h672v-237h-672z" />
    <glyph glyph-name="uni00AD.case" horiz-adv-x="946" 
d="M137 629v237h672v-237h-672z" />
    <glyph glyph-name="endash.case" horiz-adv-x="1320" 
d="M141 641v209h1037v-209h-1037z" />
    <glyph glyph-name="emdash.case" horiz-adv-x="1888" 
d="M141 643v209h1606v-209h-1606z" />
    <glyph glyph-name="guillemotleft.case" horiz-adv-x="1222" 
d="M633 1178l-285 -467l287 -473h-268l-283 471l285 469h264zM819 711l287 -473h-266l-283 473l283 467h264z" />
    <glyph glyph-name="guillemotright.case" horiz-adv-x="1222" 
d="M383 1178l283 -471l-283 -469h-266l286 467l-286 473h266zM856 1178l281 -471l-283 -469h-264l284 467l-286 473h268z" />
    <glyph glyph-name="guilsinglleft.case" horiz-adv-x="749" 
d="M348 711l287 -473h-268l-283 471l285 469h264z" />
    <glyph glyph-name="guilsinglright.case" horiz-adv-x="749" 
d="M383 1178l283 -471l-283 -469h-266l286 467l-286 473h266z" />
    <glyph glyph-name="space.tf" 
 />
    <glyph glyph-name="uni20BF.tf" 
d="M1253 397q0 -167 -113 -268.5t-298 -122.5v-219h-176v213h-109v-213h-174v213h-258v1434h258v206h174v-206h109v206h176v-213q178 -21 271 -111.5t93 -230.5q0 -128 -76 -214.5t-202 -120.5q143 -25 234 -120.5t91 -232.5zM936 1034q0 172 -236 172h-309v-352h309
q110 0 173 45.5t63 134.5zM711 227q122 0 193 51.5t71 151.5q0 99 -71 150t-193 51h-320v-404h320z" />
    <glyph glyph-name="cent.tf" 
d="M571 -244v219q-193 31 -310.5 177t-117.5 366q0 215 119.5 361.5t308.5 177.5v221h164v-217q142 -17 246.5 -98t151.5 -199l-230 -88q-55 139 -168 172v-383v-283q129 35 180 201l236 -84q-52 -136 -160 -223t-256 -105v-215h-164zM571 190v369v283q-78 -29 -123 -110
t-45 -214q0 -262 168 -328z" />
    <glyph glyph-name="currency.tf" 
d="M240 158l-168 168l161 159q-65 105 -65 236q0 127 65 235l-161 164l168 166l166 -164q110 60 231 60q125 0 227 -60l166 164l168 -166l-162 -164q68 -104 68 -235q0 -123 -68 -236l162 -159l-168 -168l-164 166q-115 -64 -229 -64q-123 0 -231 62zM637 477
q102 0 167.5 70t65.5 174t-65.5 174t-167.5 70t-169 -70t-67 -174t67 -174t169 -70z" />
    <glyph glyph-name="dollar.tf" 
d="M555 -207v180q-196 24 -319.5 137.5t-167.5 278.5l229 92q25 -104 89.5 -181t168.5 -105v430l-43 8q-179 35 -278 133t-99 281q0 160 113 276t307 137v180h176v-180q93 -13 169.5 -48.5t128 -86t85 -106t51.5 -115.5l-219 -92q-59 182 -215 223v-395l55 -15
q84 -19 152 -51t124.5 -81t88 -122t31.5 -163q0 -176 -116 -296t-335 -141v-178h-176zM555 874v130v239q-84 -14 -129 -65t-45 -117q0 -75 42.5 -119t131.5 -68zM731 190q98 13 149.5 67.5t51.5 133.5q0 151 -201 199v-166v-234z" />
    <glyph glyph-name="Euro.tf" 
d="M715 -31q-195 0 -327.5 132t-172.5 362h-147v174h120q-6 77 0 151h-120v173h141q47 236 181 369.5t327 133.5q195 0 322.5 -114t166.5 -308l-235 -61q-11 50 -30 93.5t-49 82t-76 60.5t-103 22q-94 0 -158 -71t-90 -207h190h105v-173h-314q-7 -75 0 -151h314v-174h-105
h-188q25 -131 88 -198.5t158 -67.5q110 0 168.5 71.5t89.5 204.5l241 -76q-118 -428 -497 -428z" />
    <glyph glyph-name="liraturkish.tf" 
d="M303 0v219v232q-12 -6 -58 -31.5t-69 -38.5l-63 -35v219l190 105v137l-190 -105v220l190 104v414h256v-129v-148q24 13 93 51.5t100 55.5l221 121v-217l-414 -228v-139l414 229v-219l-414 -227v-348h37q79 2 153.5 43.5t139.5 131t98 214.5l242 -111q-164 -520 -768 -520
h-158z" />
    <glyph glyph-name="uni20BD.tf" 
d="M725 563h-240v-125h408v-190h-408v-248h-252v248h-143v190h143v125h-143v209h143v662h490q218 0 349.5 -122t131.5 -323q0 -191 -131.5 -308.5t-347.5 -117.5zM485 1206v-434h199q122 0 190 59t68 158q0 100 -67 158.5t-191 58.5h-199z" />
    <glyph glyph-name="rupeeindian.tf" 
d="M1157 1241h-141h-225q43 -14 79.5 -45.5t59.5 -75.5h227v-186h-205q-19 -109 -99.5 -187.5t-229.5 -101.5q137 -13 211.5 -83.5t105.5 -209.5l82 -352h-287l-67 330q-27 130 -91 182.5t-204 52.5h-230v223h310q85 0 147 37.5t86 108.5h-543v186h539q-53 121 -229 121
h-310v193h1014v-193z" />
    <glyph glyph-name="sterling.tf" 
d="M719 227h428v-227h-1000v231q26 7 49 15.5t65 30.5t71 47.5t51.5 67t22.5 89.5q0 66 -31 133h-223v172h110q-76 122 -76 240q0 104 40 188.5t107.5 138t154 82.5t182.5 29q62 0 123 -14.5t119.5 -46.5t105 -78t80 -113.5t45.5 -148.5l-258 -62q-16 123 -80.5 182.5
t-147.5 59.5q-93 0 -152 -57.5t-59 -157.5q0 -63 23 -118t68 -124h329v-172h-243q10 -48 10 -94q0 -187 -172 -293h258z" />
    <glyph glyph-name="uni20A9.tf" 
d="M1221 793h-152l-16 -146h168v-170h-187l-51 -477h-278l-29 297q-31 328 -41 420l-47 -418l-33 -299h-285l-45 477h-176v170h160l-12 146h-148v170h131l-45 471h221l21 -342q6 -118 22 -413.5t23 -430.5q12 118 55 477l39 303h240l35 -303q6 -64 49 -477q7 130 26 420.5
t27 418.5l22 347h224l-52 -471h134v-170z" />
    <glyph glyph-name="yen.tf" 
d="M1282 1434l-399 -619h256v-174h-365v-152h365v-172h-365v-317h-266v317h-373v172h373v152h-373v174h260l-407 619h309l199 -330l147 -250q102 184 143 254l191 326h305z" />
    <glyph glyph-name="multiply.case.tf" 
d="M276 211l-147 147l356 357l-358 356l149 152l359 -359l356 357l148 -148l-355 -356l355 -357l-150 -151l-356 358z" />
    <glyph glyph-name="plus.tf" 
d="M524 178v434h-434v222h434v434h221v-434h435v-222h-435v-434h-221z" />
    <glyph glyph-name="minus.tf" 
d="M145 612v222h979v-222h-979z" />
    <glyph glyph-name="multiply.tf" 
d="M276 211l-147 147l356 357l-358 356l149 152l359 -359l356 357l148 -148l-355 -356l355 -357l-150 -151l-356 358z" />
    <glyph glyph-name="divide.tf" 
d="M498 993v275h274v-275h-274zM145 612v222h979v-222h-979zM498 178v273h274v-273h-274z" />
    <glyph glyph-name="equal.tf" 
d="M141 844v219h987v-219h-987zM141 371v219h987v-219h-987z" />
    <glyph glyph-name="notequal.tf" 
d="M231 178l105 193h-195v219h310l65 119q36 64 72 135h-219h-228v219h564l110 205h209l-109 -205h211v-219h-327l-64 -119q-18 -38 -73 -135h212h252v-219h-581l-103 -193h-211z" />
    <glyph glyph-name="greater.tf" 
d="M170 147v242l457 180q77 29 200 77.5t170 66.5l-370 141l-457 182v248l985 -393v-348z" />
    <glyph glyph-name="less.tf" 
d="M1100 1284v-242l-457 -180q-251 -94 -371 -143q60 -22 184 -69.5t187 -71.5l457 -181v-250l-987 396v348z" />
    <glyph glyph-name="greaterequal.tf" 
d="M150 457v223l432 100l417 88q-317 63 -417 84l-432 99v235l987 -235v-355zM150 178v221h987v-221h-987z" />
    <glyph glyph-name="lessequal.tf" 
d="M1120 457l-985 235v357l985 239v-223l-432 -100q-408 -86 -416 -88q327 -67 416 -84l432 -99v-237zM135 178v221h985v-221h-985z" />
    <glyph glyph-name="plusminus.tf" 
d="M541 510v266h-391v207h391v285h198v-285h391v-207h-391v-266h-198zM135 178v221h987v-221h-987z" />
    <glyph glyph-name="approxequal.tf" 
d="M844 748q-101 0 -219 59l-78 41q-79 39 -135 39q-99 0 -183 -109l-145 146q60 94 150.5 144t187.5 50t217 -57l74 -39q87 -43 143 -43q98 0 182 113l148 -150q-61 -94 -152.5 -144t-189.5 -50zM844 297q-101 0 -219 59l-78 41q-79 39 -135 39q-100 0 -183 -108l-145 145
q60 94 150.5 144.5t187.5 50.5q95 0 217 -58l74 -39q87 -43 143 -43q98 0 182 113l148 -149q-61 -94 -152.5 -144.5t-189.5 -50.5z" />
    <glyph glyph-name="logicalnot.tf" 
d="M911 319v302h-778v219h977v-521h-199z" />
    <glyph glyph-name="percent.tf" 
d="M317 791q-131 0 -209.5 92.5t-78.5 246.5q0 150 77 242t211 92q131 0 206 -93t75 -241q0 -153 -75 -246t-206 -93zM162 0l762 1434h184l-760 -1434h-186zM315 936q107 0 107 194q0 92 -28.5 140.5t-76.5 48.5q-51 0 -81.5 -49t-30.5 -140q0 -194 110 -194zM961 -31
q-129 0 -208 93t-79 247q0 150 77 242t210 92q132 0 207 -93t75 -241q0 -154 -74.5 -247t-207.5 -93zM958 115q109 0 109 194q0 94 -28 141.5t-78 47.5q-51 0 -81 -48t-30 -141q0 -194 108 -194z" />
    <glyph glyph-name="perthousand.tf" 
d="M250 791q-113 0 -176.5 91.5t-63.5 247.5q0 153 61.5 243.5t178.5 90.5q114 0 173.5 -91.5t59.5 -242.5q0 -156 -59 -247.5t-174 -91.5zM809 1434h158l-772 -1434h-160zM250 1319q-39 0 -55.5 -46t-16.5 -143q0 -103 14.5 -148.5t55.5 -45.5q38 0 52.5 46t14.5 148
q0 97 -14.5 143t-50.5 46zM1042 643q105 0 161.5 -92t56.5 -242q0 -155 -56 -247.5t-162 -92.5q-92 0 -151 78q-56 -78 -148 -78q-102 0 -162.5 93t-60.5 247q0 151 59 242.5t164 91.5q96 0 148 -68q55 68 151 68zM750 115q41 0 55 45.5t14 148.5q0 100 -14.5 144.5
t-52.5 44.5t-54 -46t-16 -143q0 -101 15 -147.5t53 -46.5zM1030 115q41 0 55.5 45.5t14.5 148.5q0 99 -15 144t-53 45q-39 0 -55 -45.5t-16 -143.5q0 -102 14.5 -148t54.5 -46z" />
    <glyph glyph-name="at.case" horiz-adv-x="1898" 
d="M989 -152q-271 0 -473.5 100.5t-314 295.5t-111.5 463q0 198 71 362.5t192.5 272t282 166.5t341.5 59q182 0 341.5 -55.5t275.5 -155t182.5 -244.5t66.5 -317q0 -121 -35 -223t-94 -169.5t-135.5 -105t-161.5 -37.5q-101 0 -164 44.5t-84 117.5q-41 -77 -111.5 -120.5
t-162.5 -43.5q-156 0 -249 128.5t-93 318.5q0 182 94.5 306t245.5 124q174 0 264 -136v111h205v-592q0 -32 19.5 -50.5t54.5 -18.5q75 0 125.5 92.5t50.5 253.5q0 263 -173.5 419t-461.5 156q-141 0 -260.5 -43.5t-207.5 -126t-137.5 -208.5t-49.5 -283q0 -319 176.5 -491.5
t490.5 -172.5q292 0 514 121l90 -184q-262 -134 -604 -134zM958 446q90 0 141.5 77t51.5 196q0 109 -49.5 176.5t-138.5 67.5q-87 0 -137 -69.5t-50 -180.5q0 -119 48 -193t134 -74z" />
    <glyph glyph-name="registered.case" horiz-adv-x="1792" 
d="M895 -70q-166 0 -316 63t-257.5 170.5t-170.5 255.5t-63 312t63 312t170.5 255.5t257.5 170.5t316 63t316 -63t258 -170.5t171.5 -255.5t63.5 -312t-63.5 -312t-171.5 -255.5t-258 -170.5t-316 -63zM897 102q176 0 320.5 85t225.5 229t81 315q0 172 -81 316.5
t-225.5 229.5t-320.5 85t-321 -85t-226.5 -229.5t-81.5 -316.5q0 -171 81.5 -315.5t226.5 -229t321 -84.5zM575 322v839h400q123 0 200.5 -60t77.5 -167q0 -89 -55.5 -144.5t-150.5 -76.5q71 -17 108 -65t55 -138l35 -188h-182l-31 188q-15 87 -53.5 122.5t-116.5 35.5h-114
v-346h-173zM748 799h184q145 0 145 114q0 115 -147 115h-182v-229z" />
    <glyph glyph-name="section.tf" 
d="M635 -426q-195 0 -310.5 98.5t-140.5 249.5l232 76q45 -201 219 -201q87 0 133.5 43.5t46.5 106.5q0 59 -30.5 96t-106.5 63l-311 107q-132 45 -198.5 124t-66.5 200q0 98 57 179.5t142 123.5q-90 87 -90 250q0 157 111.5 265.5t304.5 108.5t306 -97.5t140 -248.5
l-233 -76q-46 199 -213 199q-82 0 -126 -44t-44 -107q0 -61 30 -96t109 -62l311 -109q133 -47 198.5 -124.5t65.5 -196.5q0 -98 -58 -181.5t-142 -125.5q90 -90 90 -246q0 -102 -48 -186t-146.5 -136.5t-231.5 -52.5zM811 299q49 27 79 73t30 101q0 99 -125 143l-215 76
q-66 22 -119 47q-109 -71 -109 -178q0 -96 127 -141l215 -74q66 -22 117 -47z" />
    <glyph glyph-name="degree.tf" 
d="M633 872q-163 0 -267 105t-104 260q0 157 106 263t267 106t267 -106t106 -263q0 -158 -105 -261.5t-270 -103.5zM635 1061q72 0 118 49.5t46 128.5q0 78 -46 126t-118 48q-71 0 -117.5 -48.5t-46.5 -125.5q0 -81 46 -129.5t118 -48.5z" />
    <glyph glyph-name="uni030C.alt" horiz-adv-x="0" 
d="M-260 911l154 269h-144v254h260v-254l-153 -269h-117z" />
    <glyph glyph-name="ringacutecomb" horiz-adv-x="567" 
d="M240 1665l102 266h291l-230 -266h-163zM326 1128q-105 0 -178.5 69.5t-73.5 174.5q0 103 74.5 172.5t177.5 69.5q100 0 173.5 -70.5t73.5 -173.5q0 -105 -73 -173.5t-174 -68.5zM326 1264q42 0 71 30t29 76q0 45 -29 76t-71 31q-44 0 -74.5 -30.5t-30.5 -74.5
q0 -49 29.5 -78.5t75.5 -29.5z" />
    <glyph glyph-name="uni0308.cap" horiz-adv-x="0" 
d="M-690 1159v232h268v-232h-268zM-217 1159v232h268v-232h-268z" />
    <glyph glyph-name="uni0307.cap" horiz-adv-x="0" 
d="M-248 1159v256h264v-256h-264z" />
    <glyph glyph-name="gravecomb.cap" horiz-adv-x="0" 
d="M-197 1159l-247 305h319l113 -305h-185z" />
    <glyph glyph-name="acutecomb.cap" horiz-adv-x="0" 
d="M-385 1159l113 305h319l-250 -305h-182z" />
    <glyph glyph-name="uni030B.cap" horiz-adv-x="0" 
d="M-768 1159l113 305h319l-250 -305h-182zM-371 1159l113 305h319l-249 -305h-183z" />
    <glyph glyph-name="uni0302.cap" horiz-adv-x="0" 
d="M-858 1159l246 260h352l246 -260h-248l-174 148l-174 -148h-248z" />
    <glyph glyph-name="uni030C.cap" horiz-adv-x="0" 
d="M-59 1419l-246 -260h-352l-246 260h248l174 -149l174 149h248z" />
    <glyph glyph-name="uni0306.cap" horiz-adv-x="0" 
d="M-395 1133q-94 0 -167 24t-115 65.5t-63.5 91t-23.5 105.5h203q5 -50 47.5 -88.5t118.5 -38.5q75 0 117 38t47 89h202q-2 -56 -23 -105.5t-62.5 -91t-114 -65.5t-166.5 -24z" />
    <glyph glyph-name="uni030A.cap" horiz-adv-x="0" 
d="M-283 1118q-109 0 -186.5 72.5t-77.5 183.5q0 107 78.5 180.5t185.5 73.5q106 0 184.5 -74t78.5 -182q0 -110 -78 -182t-185 -72zM-283 1260q44 0 75.5 32t31.5 80q0 47 -32 80t-75 33q-45 0 -76.5 -32.5t-31.5 -78.5q0 -51 30 -82.5t78 -31.5z" />
    <glyph glyph-name="ringacutecomb.cap" horiz-adv-x="567" 
d="M229 1645l103 264h291l-230 -264h-164zM313 1106q-103 0 -176.5 69.5t-73.5 174.5q0 103 74 173t176 70t176 -70.5t74 -174.5t-74 -173t-176 -69zM313 1241q43 0 73 31t30 76t-30 75.5t-73 30.5t-72.5 -30t-29.5 -74q0 -47 29 -78t73 -31z" />
    <glyph glyph-name="tildecomb.cap" horiz-adv-x="0" 
d="M-256 1139q-89 0 -186 53l-60 33q-63 37 -104 37q-40 0 -63 -27t-23 -76h-203q0 132 74.5 202.5t199.5 70.5q93 0 187 -54l57 -32q72 -37 107 -37q79 0 88 98h196q0 -268 -270 -268z" />
    <glyph glyph-name="uni0304.cap" horiz-adv-x="0" 
d="M-739 1188v174h704v-174h-704z" />
    <glyph glyph-name="dotbelowcomb.cap" horiz-adv-x="0" 
d="M-272 -399v256h264v-256h-264z" />
    </font>
</defs>
</svg>
